<svg width="150" height="120" viewBox="0 0 150 120" fill="none" xmlns="http://www.w3.org/2000/svg">
<g clip-path="url(#clip0)">
<path opacity="0.1" d="M92.3807 14.5525C85.9444 19.6836 77.596 19.3524 70.2801 16.6823C62.9643 14.0121 56.2441 9.25823 49.1162 5.87978C43.1752 3.0582 36.9158 1.2003 30.5212 0.360477C21.4366 -0.823249 11.2915 0.618773 4.9624 8.91753C-2.08623 18.1544 -1.54488 34.8185 6.07571 43.3042C9.95419 47.6176 15.0323 49.7347 19.4604 53.102C23.8886 56.4694 27.9912 62.0584 27.614 68.5554C27.2647 74.5771 23.2053 79.1915 19.004 82.0898C15.7573 84.3289 11.7591 86.774 11.3681 91.4123C10.9896 95.9 14.3518 99.4163 17.5623 101.416C28.0357 107.942 40.9417 107.878 51.379 101.258C55.1002 98.8886 58.518 95.7447 62.4216 93.9097C72.671 89.0734 83.9655 93.943 94.8188 95.7225C104.041 97.2269 113.44 96.448 122.373 93.439C127.748 91.631 133.143 88.8674 136.919 83.7189C139.642 80.0061 141.338 75.3092 142.93 70.6678C144.628 65.7205 146.261 60.7379 147.828 55.7199C148.767 52.709 149.692 49.638 149.936 46.4149C150.376 40.5755 148.522 34.8026 145.998 29.8744C140.004 18.1639 129.909 9.93645 118.976 7.84631C108.044 5.75617 96.4776 9.83821 87.9984 18.7708" fill="#6C63FF"/>
<g opacity="0.1">
<path opacity="0.1" d="M75.2387 16.3851L74.7085 51.4057C74.7085 51.4057 93.9019 51.4057 110.233 57.4431L110.55 22.0645C110.55 22.0645 84.3581 14.9352 75.2387 16.3851Z" fill="black"/>
</g>
<path d="M74.8212 15.7513L74.291 50.7719C74.291 50.7719 93.4844 50.7719 109.815 56.8093L110.133 21.4307C110.133 21.4307 83.9406 14.3014 74.8212 15.7513Z" fill="#F7F7FD"/>
<g opacity="0.1">
<path opacity="0.1" d="M65.6029 17.3882L66.1332 52.4087C66.1332 52.4087 46.9397 52.4087 30.6103 58.4462L30.2916 23.0676C30.2916 23.0676 56.4836 15.9462 65.6029 17.3882Z" fill="black"/>
</g>
<path d="M66.0204 16.596L66.5506 51.6165C66.5506 51.6165 47.3572 51.6165 31.0278 57.654L30.7091 22.2753C30.7091 22.2753 56.901 15.1539 66.0204 16.596Z" fill="#F7F7FD"/>
<g opacity="0.2">
<path opacity="0.2" d="M57.3994 20.6812L57.6847 39.4607C57.6847 39.4607 47.3866 39.4607 38.6332 42.6982L38.462 23.7253C38.462 23.7253 52.5092 19.9079 57.3994 20.6812Z" fill="#6C63FF"/>
</g>
<g opacity="0.1">
<path opacity="0.1" d="M121.863 29.2667V63.9212C121.863 63.9212 128.125 63.075 141.269 81.5503L142.435 46.8958C142.435 46.8958 128.755 30.1113 121.863 29.2667Z" fill="black"/>
</g>
<path d="M121.584 28.7913V63.4457C121.584 63.4457 127.847 62.5995 140.991 81.0749L142.157 46.4204C142.157 46.4204 128.477 29.6359 121.584 28.7913Z" fill="#F7F7FD"/>
<g opacity="0.1">
<path opacity="0.1" d="M20.6422 29.4252V64.0797C20.6422 64.0797 14.3854 63.2335 1.24419 81.7088L0.0710449 47.0543C0.0710449 47.0543 13.7494 30.2698 20.6422 29.4252Z" fill="black"/>
</g>
<path d="M21.0597 28.7913V63.4457C21.0597 63.4457 14.8029 62.5995 1.66167 81.0749L0.488525 46.4204C0.488525 46.4204 14.1669 29.6359 21.0597 28.7913Z" fill="#F7F7FD"/>
<g opacity="0.2">
<path opacity="0.2" d="M79.9493 23.0359L92.9514 25.6838V27.8405L79.9493 24.9977V23.0359Z" fill="#6C63FF"/>
</g>
<path d="M54.8999 43.8739L41.8993 46.5218V48.6785L54.8999 45.8357V43.8739Z" fill="white"/>
<path d="M80.1219 27.0562L103.885 32.6452V34.8019L80.1219 29.0179V27.0562Z" fill="white"/>
<path d="M80.1219 31.0764L103.885 36.6639V38.8221L80.1219 33.0366V31.0764Z" fill="white"/>
<g opacity="0.2">
<path opacity="0.2" d="M127.126 39.9821V41.8852L132.223 46.6011L132.463 44.9689L127.126 39.9821Z" fill="#6C63FF"/>
</g>
<path d="M127.126 58.3639V60.267L132.223 64.9829L132.463 63.3508L127.126 58.3639Z" fill="white"/>
<path d="M127.206 43.2463L127.126 45.1511L136.763 55.4877L136.604 53.312L127.206 43.2463Z" fill="white"/>
<path d="M127.126 46.7833V48.5962L136.763 59.1166V56.7586L127.126 46.7833Z" fill="white"/>
<g opacity="0.2">
<path opacity="0.2" d="M15.4373 40.394L15.5167 42.2988L5.88098 52.6354L6.03963 50.4597L15.4373 40.394Z" fill="#6C63FF"/>
</g>
<g opacity="0.2">
<path opacity="0.2" d="M15.5167 43.9309V45.7437L5.88098 56.2642V53.9062L15.5167 43.9309Z" fill="#6C63FF"/>
</g>
<path opacity="0.1" d="M28.4742 100.171C32.8551 100.171 36.4065 99.4434 36.4065 98.5455C36.4065 97.6476 32.8551 96.9197 28.4742 96.9197C24.0933 96.9197 20.5419 97.6476 20.5419 98.5455C20.5419 99.4434 24.0933 100.171 28.4742 100.171Z" fill="#6C63FF"/>
<path d="M9.66206 89.6067C9.66206 89.6067 10.4261 90.7445 9.30858 92.459C8.1911 94.1736 7.26984 95.6283 7.63862 96.6995C7.63862 96.6995 9.32389 93.5081 10.7002 93.4637C12.0765 93.4193 11.172 91.5336 9.66206 89.6067Z" fill="#6C63FF"/>
<path opacity="0.1" d="M9.66203 89.6067C9.72899 89.7162 9.7815 89.8364 9.8179 89.9632C11.1566 91.7539 11.8706 93.4257 10.5833 93.4685C9.3851 93.5065 7.93919 95.9484 7.60242 96.5648C7.61355 96.6108 7.62747 96.6583 7.64277 96.7043C7.64277 96.7043 9.32804 93.5128 10.7044 93.4685C12.0807 93.4241 11.172 91.5336 9.66203 89.6067Z" fill="black"/>
<path d="M11.083 91.0581C11.083 91.459 11.044 91.7839 10.9953 91.7839C10.9466 91.7839 10.9062 91.459 10.9062 91.0581C10.9062 90.6572 10.9563 90.8458 11.0051 90.8458C11.0538 90.8458 11.083 90.6556 11.083 91.0581Z" fill="#FFD037"/>
<path d="M11.5714 91.5336C11.2625 91.7253 10.9925 91.841 10.9688 91.7935C10.9452 91.746 11.1776 91.5495 11.4865 91.3577C11.7955 91.166 11.673 91.3054 11.6966 91.3577C11.7203 91.41 11.8803 91.3434 11.5714 91.5336Z" fill="#FFD037"/>
<path d="M5.62358 89.6067C5.62358 89.6067 4.86235 90.7413 5.97566 92.4638C7.08897 94.1863 8.0144 95.6331 7.64562 96.7043C7.64562 96.7043 5.96035 93.5128 4.58403 93.4685C3.2077 93.4241 4.11505 91.5336 5.62358 89.6067Z" fill="#6C63FF"/>
<path opacity="0.1" d="M5.62352 89.6067C5.55718 89.7167 5.50471 89.8367 5.46766 89.9632C4.12891 91.7539 3.415 93.4257 4.70226 93.4685C5.90185 93.5065 7.34636 95.9484 7.68314 96.5648C7.67221 96.6122 7.65873 96.6588 7.64278 96.7043C7.64278 96.7043 5.95751 93.5128 4.58119 93.4685C3.20486 93.4241 4.11499 91.5336 5.62352 89.6067Z" fill="black"/>
<path d="M4.20276 91.0581C4.20276 91.459 4.24172 91.7839 4.29043 91.7839C4.33914 91.7839 4.3795 91.459 4.3795 91.0581C4.3795 90.6572 4.3294 90.8458 4.28069 90.8458C4.23198 90.8458 4.20276 90.6556 4.20276 91.0581Z" fill="#FFD037"/>
<path d="M3.71555 91.5336C4.02449 91.7253 4.29307 91.841 4.31673 91.7935C4.34039 91.746 4.10799 91.5495 3.79904 91.3577C3.4901 91.166 3.61257 91.3054 3.58891 91.3577C3.56525 91.41 3.4066 91.3434 3.71555 91.5336Z" fill="#FFD037"/>
<path d="M4.44482 96.5553C4.44482 96.5553 6.58237 96.4808 7.22809 95.9579C7.87381 95.4349 10.5151 94.8122 10.6752 95.6505C10.8352 96.4887 13.8871 99.8165 11.474 99.8387C9.06087 99.8608 5.86707 99.4108 5.22414 98.9639C4.5812 98.5171 4.44482 96.5553 4.44482 96.5553Z" fill="#A8A8A8"/>
<path opacity="0.2" d="M11.5172 99.5471C9.10409 99.5693 5.91029 99.1192 5.26735 98.6724C4.7775 98.3333 4.58267 97.1147 4.51726 96.5521H4.44629C4.44629 96.5521 4.58545 98.5155 5.22421 98.9608C5.86297 99.4061 9.06094 99.8577 11.474 99.8355C12.1699 99.8355 12.412 99.5471 12.3981 99.1288C12.3021 99.3839 12.0363 99.5423 11.5172 99.5471Z" fill="black"/>
<path opacity="0.1" d="M83.5676 77.1418C90.7922 77.1418 96.6489 75.9996 96.6489 74.5906C96.6489 73.1815 90.7922 72.0393 83.5676 72.0393C76.3429 72.0393 70.4862 73.1815 70.4862 74.5906C70.4862 75.9996 76.3429 77.1418 83.5676 77.1418Z" fill="#6C63FF"/>
<path d="M80.9291 40.1579C80.8652 40.3129 80.8185 40.4763 80.7899 40.6444C80.7815 40.6866 80.7732 40.731 80.7648 40.7775C80.6813 41.2624 80.6257 41.8725 80.5965 42.2274C80.5825 42.4049 80.5756 42.519 80.5756 42.519C80.5756 42.519 77.5571 42.2892 78.0803 41.7124C78.2153 41.5532 78.3112 41.3565 78.3587 41.142C78.374 41.0802 78.3865 41.0184 78.3976 40.955C78.4226 40.8112 78.4389 40.6656 78.4464 40.5192C78.4464 40.4828 78.4464 40.4463 78.4464 40.4083C78.4532 40.1706 78.4434 39.9327 78.4171 39.6968C78.4171 39.6968 79.3982 39.6968 80.1386 39.7871C80.6368 39.8521 81.0251 39.9646 80.9291 40.1579Z" fill="#D38884"/>
<path d="M75.6964 56.513C74.668 56.475 75.4265 54.0362 75.5448 53.7082C75.663 53.3802 75.3694 52.5767 75.3694 52.5767C75.3694 52.5767 75.0215 50.2537 75.0215 50.1015C75.0037 49.7848 74.9647 49.4702 74.9046 49.1603C74.8684 48.8439 74.9169 48.5225 75.0438 48.238C75.1621 48.0272 75.144 47.1826 75.144 47.1826V46.0892L75.3736 45.7438L75.9595 46.3776L76.1223 46.5519L76.409 47.7753L76.3074 49.5279L76.2531 51.2346L76.608 53.5957C76.608 53.5957 76.7318 56.5526 75.6964 56.513Z" fill="#D38884"/>
<path opacity="0.1" d="M76.0221 46.6676L75.1454 46.2524V46.0908L75.3736 45.7454L75.9609 46.376L76.0221 46.6676Z" fill="black"/>
<path d="M75.6185 44.1703C75.5058 44.4855 75.4242 44.8139 75.375 45.1496C75.3297 45.4717 75.2527 45.7869 75.1454 46.0893L76.1195 46.5504L75.6185 44.1703Z" fill="#4C4981"/>
<path opacity="0.05" d="M75.6185 44.1703C75.5058 44.4855 75.4242 44.8139 75.375 45.1496C75.3297 45.4717 75.2527 45.7869 75.1454 46.0893L76.1195 46.5504L75.6185 44.1703Z" fill="black"/>
<path d="M83.3784 68.4137L83.2977 68.6101C83.2977 68.6101 83.21 69.2614 83.21 69.2773C83.21 69.2931 82.9567 69.7273 82.9567 69.7273L82.3207 69.8858L82.0507 69.8478C82.0364 69.6687 82.0122 69.4909 81.9784 69.3153C81.9686 69.2662 81.9589 69.2155 81.9464 69.1648C81.8513 68.7585 81.7016 68.3715 81.5024 68.0175C81.5024 68.0175 81.0307 66.6927 80.8623 66.52C80.6939 66.3473 80.0523 64.5994 80.1205 64.1779C80.1567 63.9466 80.1275 63.1701 80.0941 62.5235C80.0663 61.9959 80.0356 61.5522 80.0356 61.5522L81.6374 60.4746L81.8239 60.809L81.9352 61.007C81.9352 61.007 81.9352 61.0451 81.9283 61.1085V61.1322C81.9099 61.4017 81.8632 61.6677 81.7891 61.9246C81.7891 61.9246 81.6694 62.9039 81.7891 63.0766C81.9088 63.2493 82.2901 65.5581 82.375 66.6262C82.375 66.6595 82.375 66.6927 82.375 66.7228C82.4084 67.2141 82.6756 67.6514 82.9442 67.9715C82.9609 67.9937 82.979 68.0143 82.9971 68.0349C83.1164 68.171 83.2438 68.2975 83.3784 68.4137Z" fill="#D38884"/>
<path opacity="0.1" d="M82.0507 69.8445L82.3207 69.8825L82.9566 69.7241C82.9566 69.7241 83.2099 69.2883 83.2099 69.274C83.2099 69.2598 83.2976 68.6069 83.2976 68.6069L83.3783 68.4104L83.388 68.3866C83.2325 68.264 83.0864 68.1267 82.9511 67.9762C82.9357 67.9604 82.9204 67.9445 82.9065 67.9271C82.8926 67.9097 82.997 68.561 82.5127 68.8446C82.2775 68.9825 82.0841 69.0886 81.9491 69.1615L82.0507 69.8445Z" fill="black"/>
<path d="M83.4896 68.5056L83.3991 68.7258C83.3991 68.7258 83.3114 69.3771 83.3114 69.393C83.3114 69.4088 83.0582 69.843 83.0582 69.843L82.4222 70.0015L82.0562 69.9523C82.0562 69.8684 82.0437 69.7495 82.0256 69.6053C82.0144 69.5182 81.9991 69.4215 81.9783 69.3169C82.1174 69.2456 82.3331 69.1283 82.6101 68.9651C83.0957 68.6815 83.0039 68.0476 83.0039 68.0476C83.109 68.1668 83.22 68.279 83.3365 68.3836C83.4033 68.4374 83.4576 68.4802 83.4896 68.5056Z" fill="#CEDDF9"/>
<path opacity="0.1" d="M83.4897 68.5056L83.3992 68.7258C83.3992 68.7258 83.3115 69.3771 83.3115 69.393C83.3115 69.4088 83.0583 69.843 83.0583 69.843L82.4223 70.0015L82.0563 69.9523C82.0563 69.8684 82.0437 69.7495 82.0256 69.6053C82.1035 69.6093 82.1808 69.6215 82.2567 69.6418C82.2567 69.6418 83.1251 69.8525 83.1668 69.0697C83.1919 68.626 83.2726 68.4517 83.3366 68.3835C83.4034 68.4374 83.4577 68.4802 83.4897 68.5056Z" fill="black"/>
<path d="M83.4256 68.4532C83.4256 68.4532 83.2099 68.3993 83.1668 69.1806C83.1237 69.9618 82.2567 69.7526 82.2567 69.7526C82.2567 69.7526 81.8308 69.6322 81.8267 69.8334C81.8409 70.0195 81.8793 70.2022 81.9408 70.3754C81.9408 70.3754 81.9658 70.8413 82.0465 70.9522C82.1273 71.0631 82.0758 71.4751 82.0758 71.4751C82.0758 71.4751 82.1092 71.7825 82.7799 71.4751C82.7799 71.4751 83.3783 71.3341 83.8751 70.4863C83.8918 70.4578 83.8167 70.3706 84.2509 70.1931C84.6851 70.0157 85.9208 68.8779 85.8318 68.3217C85.8222 68.2296 85.7891 68.1428 85.7367 68.0718C85.6843 68.0009 85.6148 67.9489 85.5367 67.9224C85.4718 67.9026 85.404 67.8978 85.3373 67.9081C85.2707 67.9185 85.2065 67.9438 85.1485 67.9826C85.0312 68.0549 84.9098 68.1184 84.7853 68.1727C84.6199 68.249 84.4454 68.2965 84.2676 68.3138C84.1313 68.327 83.9965 68.3562 83.8654 68.4009C83.7256 68.463 83.5737 68.4811 83.4256 68.4532Z" fill="#CC8294"/>
<path d="M78.5103 63.0749C78.4145 63.1652 78.3319 63.2722 78.2654 63.3919C78.0205 63.8181 77.873 64.414 77.7088 64.6707C77.4944 65.0035 77.4304 65.65 77.4304 65.65C77.3734 66.0747 76.5829 68.3439 76.3686 68.7464C76.1543 69.1489 75.8565 70.2439 75.8565 70.2439C75.6742 70.5037 75.6853 70.8904 75.7034 71.0742C75.7034 71.1059 75.7034 71.1313 75.7117 71.1487C75.7201 71.1661 75.7117 71.1788 75.7117 71.1788V71.1899L75.4195 71.7556L74.4899 71.6082L74.0098 71.2374C74.0491 71.1647 74.084 71.089 74.1141 71.0108C74.3716 70.3579 74.5539 69.1917 74.5539 69.1917C74.5539 69.1917 74.8127 67.8606 74.7933 67.55C74.7998 67.1262 74.8253 66.7031 74.8698 66.2823C74.8698 66.2823 75.6018 63.7389 75.8356 63.3269C75.933 63.1641 75.9933 62.9762 76.0109 62.7802C76.0155 62.7408 76.0155 62.7008 76.0109 62.6614L76.3255 62.3048C76.3255 62.3048 78.9139 62.7089 78.5103 63.0749Z" fill="#D38884"/>
<path opacity="0.1" d="M75.7216 71.0679C75.7216 71.0679 75.7216 71.0996 75.7216 71.1519V71.1931L75.4294 71.7588L74.4998 71.6115L74.0197 71.2407C74.059 71.1679 74.0938 71.0922 74.124 71.0141C74.3578 70.938 74.8922 71.1535 74.8922 71.1535C74.8922 71.1535 75.4698 71.2787 75.7133 71.0774C75.7133 71.0759 75.7161 71.0711 75.7216 71.0679Z" fill="black"/>
<path d="M75.4948 72.5781L74.5513 72.8348L73.6857 72.1059L73.7302 71.6955C73.7906 71.6533 73.8443 71.5997 73.8888 71.537C73.952 71.4525 73.9951 71.3511 74.0141 71.2422C74.0642 70.9396 74.8866 71.2708 74.8866 71.2708C74.8866 71.2708 75.4878 71.4007 75.7216 71.1836C75.7052 71.3826 75.7203 71.5833 75.7661 71.7763C75.7884 71.8703 75.8373 71.9533 75.9053 72.0124C76.146 72.201 75.4948 72.5781 75.4948 72.5781Z" fill="#CEDDF9"/>
<path opacity="0.1" d="M75.4948 72.5781L74.5513 72.8348L73.6857 72.1059L73.7302 71.6955C73.7906 71.6533 73.8443 71.5997 73.8888 71.537C73.9515 71.537 74.0197 71.537 74.0781 71.537C74.2173 71.5528 74.5652 72.258 74.5652 72.258C75.4196 72.323 75.6785 72.0045 75.7661 71.7699C75.7884 71.8639 75.8373 71.9469 75.9053 72.006C76.146 72.201 75.4948 72.5781 75.4948 72.5781Z" fill="black"/>
<path d="M74.5651 72.3768C74.5651 72.3768 74.2227 71.6716 74.078 71.6573C73.9556 71.6495 73.833 71.6495 73.7106 71.6573C73.7106 71.6573 73.3321 72.6794 73.1929 72.7666C73.0538 72.8537 72.8506 73.3434 72.8506 73.3434C72.8506 73.3434 73.8526 74.4526 74.8212 74.2355C75.1302 74.2406 75.434 74.3268 75.709 74.4875C76.1571 74.7537 78.0289 74.5525 78.2571 74.085C78.4269 73.7332 78.4951 73.4781 78.3448 73.2927C78.2999 73.2397 78.2445 73.1997 78.1832 73.176C78.122 73.1523 78.0567 73.1456 77.9927 73.1564C77.7575 73.1929 77.2287 73.1865 76.7653 72.5384C76.7653 72.5384 75.9108 71.6478 75.8412 71.6462C75.7716 71.6447 75.8983 72.4782 74.5651 72.3768Z" fill="#CC8294"/>
<path opacity="0.1" d="M81.9366 61.1227L81.9297 61.1322C81.8712 61.2051 81.4593 61.7201 81.334 61.7566C81.127 61.8456 80.9244 61.9477 80.7273 62.0624C80.7273 62.0624 80.474 62.4475 80.2722 62.4665C80.2112 62.4765 80.1514 62.4946 80.0941 62.5204C80.0663 61.9927 80.0356 61.549 80.0356 61.549L81.6374 60.4746L81.8239 60.809C81.8656 60.9437 81.913 61.0688 81.9283 61.1085L81.9366 61.1227Z" fill="black"/>
<path d="M76.114 53.7082C76.114 53.7082 75.4906 54.6336 76.114 55.8617C76.4493 56.5521 76.8824 57.1748 77.3957 57.7047L79.5193 62.7153C79.5193 62.7153 80.076 62.3699 80.2791 62.3508C80.4823 62.3318 80.7342 61.9483 80.7342 61.9483C80.9312 61.833 81.1338 61.7303 81.341 61.6409C81.4801 61.6029 81.9435 61.0071 81.9435 61.0071C81.9435 61.0071 81.7111 60.4318 81.7626 60.2781C81.8141 60.1244 81.6109 59.7394 81.6109 59.7394C81.5477 59.5469 81.5011 59.3479 81.4718 59.1451C81.4718 58.9867 81.2519 58.6269 81.2519 58.6269C81.2519 58.6269 81.0334 58.2419 81.0334 58.0311C81.0334 57.8204 80.7064 56.9884 80.7064 56.9884L80.6215 53.3438L76.114 53.7082Z" fill="#CEDDF9"/>
<path opacity="0.05" d="M81.9365 61.0071C81.9365 61.0071 81.469 61.6013 81.334 61.6409C81.1268 61.7303 80.9242 61.833 80.7272 61.9483C80.7272 61.9483 80.474 62.3318 80.2722 62.3508C80.1268 62.3852 79.9863 62.4423 79.8547 62.5204C79.6738 62.6139 79.5109 62.7153 79.5109 62.7153L77.3859 57.7047C77.2 57.52 77.0273 57.3187 76.8697 57.1025C76.5819 56.7163 76.3257 56.301 76.1043 55.8617C75.8607 55.4163 75.7742 54.8825 75.8621 54.3674C75.9016 54.1314 75.9841 53.9073 76.1043 53.7098L77.6156 53.5878L80.6256 53.3438L80.6507 54.4229L80.7064 56.9884C80.7064 56.9884 80.7551 57.1168 80.8163 57.2863C80.9119 57.5221 80.9825 57.77 81.0264 58.0248C81.0264 58.2371 81.2449 58.6206 81.2449 58.6206C81.2449 58.6206 81.4648 58.9851 81.4648 59.1388C81.4943 59.342 81.5409 59.5415 81.6039 59.7346C81.6039 59.7346 81.8071 60.1181 81.757 60.2702C81.7069 60.4223 81.9365 61.0071 81.9365 61.0071Z" fill="black"/>
<path opacity="0.1" d="M78.5105 63.075C78.4147 63.1653 78.332 63.2723 78.2655 63.392C77.3484 63.468 76.2824 62.9166 76.0055 62.7708C76.01 62.7313 76.01 62.6914 76.0055 62.652L76.32 62.2954C76.32 62.2954 78.914 62.709 78.5105 63.075Z" fill="black"/>
<path d="M81.2157 54.8444C81.2157 54.8444 81.0765 55.3816 81.0306 55.6113C80.9847 55.8411 80.8789 56.9757 80.8789 56.9757L80.8205 57.2926L79.8575 62.522L79.6473 63.6581C79.2771 63.8895 78.3503 63.2731 78.3503 63.2731C77.2704 63.4093 75.9386 62.6218 75.9386 62.6218C75.9386 62.6218 76.1571 61.8152 76.107 61.4127C76.0569 61.0102 76.4104 60.6822 76.4104 60.6822C76.3269 60.3177 76.6289 58.7236 76.6289 58.7236C76.6289 58.7236 76.697 58.1293 76.9503 57.9756C77.2036 57.8219 76.9169 57.5921 76.8487 57.4559C76.8248 57.3386 76.8331 57.2158 76.8724 57.1041C76.8943 57.0154 76.9203 56.9281 76.9503 56.8426C76.3074 56.1105 76.2086 54.9664 76.2072 54.331C76.2054 54.1759 76.2115 54.0209 76.2253 53.8666L77.6169 53.5893L80.6577 52.984L80.968 54.0711L81.0459 54.3436L81.2157 54.8444Z" fill="#CEDDF9"/>
<path opacity="0.1" d="M80.929 40.1579C80.8652 40.3129 80.8184 40.4763 80.7899 40.6444C80.7815 40.6866 80.7732 40.731 80.7648 40.7775C80.4712 40.9946 80.2903 40.9962 79.9145 40.9962C79.7851 40.9962 79.7127 40.7141 79.5903 40.6792C79.5903 40.6792 79.4066 39.925 79.3551 40.5604C79.0016 40.478 78.6968 40.7918 78.4463 40.5176C78.4463 40.4812 78.4463 40.4447 78.4463 40.4067C78.4531 40.169 78.4434 39.9311 78.4171 39.6952C78.4171 39.6952 79.3982 39.6952 80.1386 39.7855C80.6368 39.8521 81.025 39.9646 80.929 40.1579Z" fill="black"/>
<path d="M81.625 38.8648C81.6246 39.1821 81.5624 39.4952 81.4427 39.7817C81.3231 40.0682 81.1491 40.3209 80.9332 40.5215C80.7174 40.7221 80.4651 40.8656 80.1946 40.9417C79.9241 41.0177 79.6422 41.0244 79.3692 40.9613C79.0613 40.8891 78.7742 40.73 78.5343 40.4987C78.2944 40.2673 78.1093 39.9712 77.9959 39.6373C77.8826 39.3034 77.8447 38.9424 77.8856 38.5875C77.9266 38.2326 78.0451 37.895 78.2303 37.6057C78.4155 37.3165 78.6615 37.0848 78.9457 36.9319C79.23 36.7789 79.5434 36.7097 79.8572 36.7304C80.1711 36.7511 80.4753 36.8612 80.7421 37.0506C81.0089 37.2399 81.2297 37.5025 81.3843 37.8142C81.544 38.1344 81.627 38.4967 81.625 38.8648Z" fill="#D38884"/>
<path opacity="0.1" d="M80.5965 42.2274C80.5826 42.4049 80.5756 42.519 80.5756 42.519C80.5756 42.519 77.5571 42.2892 78.0804 41.7124C78.2153 41.5532 78.3112 41.3565 78.3587 41.142L79.6682 41.386C79.6682 41.386 80.0384 41.7124 80.3251 42.0199C80.4068 42.1029 80.4981 42.1728 80.5965 42.2274Z" fill="black"/>
<path opacity="0.1" d="M81.0473 54.453C80.9144 54.473 80.7794 54.4617 80.6506 54.4197C80.5949 54.3995 80.5412 54.3724 80.4906 54.3389C80.2373 54.1661 79.3954 54.3785 79.3954 54.3785C79.3954 54.3785 77.102 54.5512 77.0004 54.3785C76.9434 54.2787 76.5384 54.2929 76.2072 54.323C76.068 54.3357 75.9498 54.3515 75.8649 54.3611C75.9043 54.125 75.9868 53.901 76.107 53.7034L77.6183 53.5814L80.659 52.9761L80.9693 54.0631C80.9894 54.1945 81.0154 54.3246 81.0473 54.453Z" fill="black"/>
<path d="M79.6641 41.5018L78.0192 41.1943C77.9902 41.2681 77.9474 41.3339 77.8938 41.3869C77.8402 41.44 77.7771 41.4792 77.7089 41.5018C77.4904 41.5588 76.5121 42.1356 76.0737 42.8265L75.6354 43.519C75.6354 43.519 75.2805 44.0182 75.3988 44.4207C75.5171 44.8232 75.6521 46.1875 75.6521 46.1875L75.8204 47.704C75.8204 47.704 76.1405 48.799 76.0403 49.2792C75.9401 49.7593 76.0904 51.775 76.0904 51.775L75.7536 54.2708C75.7536 54.2708 76.899 54.0981 77.0061 54.2708C77.1133 54.4435 79.4011 54.2708 79.4011 54.2708C79.4011 54.2708 80.2361 54.0584 80.4963 54.2312C80.6665 54.3357 80.8614 54.3762 81.053 54.3468C81.053 54.3468 80.8512 53.5545 80.9681 53.1187C81.085 52.683 81.053 51.8701 81.053 51.8701C81.053 51.8701 81.2214 50.699 81.1365 50.4882C81.0516 50.2775 81.323 49.5089 81.323 49.5089L82.2164 44.1529C82.2164 44.1529 82.1078 43.1926 81.6305 42.8661C81.1532 42.5397 80.6146 42.443 80.3279 42.1372C80.0413 41.8314 79.6641 41.5018 79.6641 41.5018Z" fill="#4C4981"/>
<path d="M80.428 46.7817V47.4156L80.9471 49.0097L81.1349 50.4882C81.1349 50.4882 81.4731 51.5436 81.4731 51.9144C81.4731 52.2852 82.2983 54.0457 82.2983 54.0457C82.2983 54.0457 82.5238 54.6415 82.4111 54.7556C82.2983 54.8697 81.3214 57.4051 82.5502 57.3291C83.7791 57.253 83.3936 54.6035 83.3936 54.6035L83.2252 53.4515C83.2252 53.4515 82.9886 50.5706 82.9886 50.3598C82.9886 50.3598 82.6852 49.1317 82.6518 48.8624C82.6184 48.593 82.3985 47.2302 82.3985 47.2302L82.2135 46.3475L80.428 46.7817Z" fill="#D38884"/>
<path opacity="0.1" d="M79.8365 48.7783L78.0038 49.9731L77.4346 50.9524L78.193 50.0746L79.8365 48.7783Z" fill="black"/>
<path opacity="0.1" d="M79.2812 51.0667C79.2812 51.0667 78.4462 51.6862 78.0538 51.6862C77.6613 51.6862 76.7512 52.7511 76.7512 52.7511C76.7512 52.7511 78.0413 51.8003 78.1429 51.8304C78.2444 51.8606 79.2812 51.0667 79.2812 51.0667Z" fill="black"/>
<path opacity="0.1" d="M77.1439 51.3978C77.1439 51.3978 76.3604 52.2044 76.5621 52.2916C76.7639 52.3787 77.8146 51.3978 77.8146 51.3978H77.1439Z" fill="black"/>
<path opacity="0.1" d="M80.609 48.5184C80.609 48.5184 80.0023 49.455 80.1665 49.4407C80.3307 49.4264 80.7983 48.8924 80.7983 48.8924L80.609 48.5184Z" fill="black"/>
<path opacity="0.1" d="M80.6966 49.4408C80.6966 49.4408 80.0397 50.2902 80.0648 50.5057C80.0898 50.7212 80.6966 49.4408 80.6966 49.4408Z" fill="black"/>
<path opacity="0.1" d="M80.8622 49.8655C80.8622 49.8655 80.4196 50.7656 80.6088 50.9525C80.7981 51.1395 80.8622 49.8655 80.8622 49.8655Z" fill="black"/>
<path opacity="0.1" d="M80.2889 47.5535C80.2889 47.5535 79.9592 48.1873 80.1999 48.2301C80.4406 48.2729 80.4643 48.2301 80.4643 48.2301L80.2889 47.5535Z" fill="black"/>
<path opacity="0.1" d="M80.3806 45.2351C80.2985 45.6225 80.1858 46.0007 80.0439 46.365C79.9911 46.1793 79.9474 45.9904 79.9131 45.7992C80.0519 45.5938 80.2086 45.4048 80.3806 45.2351Z" fill="black"/>
<path opacity="0.1" d="M81.3842 37.8142C81.3516 37.8952 81.3089 37.9705 81.2576 38.0377C81.1713 38.1262 81.0947 38.2262 81.0293 38.3356C80.9779 38.4989 80.9502 38.6707 80.9472 38.8442C80.9222 39.0154 80.8275 39.2055 80.6689 39.2103C80.5908 39.2028 80.515 39.1769 80.4462 39.1342C80.4118 39.1139 80.3734 39.104 80.3347 39.1054C80.296 39.1068 80.2582 39.1194 80.225 39.1422C80.181 39.193 80.1557 39.261 80.154 39.3323C80.1348 39.4813 80.1273 39.6319 80.1317 39.7824C80.1317 39.8426 80.1317 39.9012 80.1401 39.9614C80.179 40.1508 80.1688 40.3489 80.1108 40.5319C80.0382 40.6643 79.9284 40.7649 79.7991 40.8171C79.6588 40.883 79.5121 40.9298 79.3622 40.9566C79.0764 40.9965 78.7881 41.0071 78.5007 40.9883C78.4742 40.9891 78.4478 40.9842 78.4228 40.974C78.4105 40.9684 78.3992 40.9604 78.3894 40.9502C78.4212 40.7702 78.4385 40.5872 78.4409 40.4035C78.2477 40.19 78.0971 39.9316 77.9993 39.646C77.9014 39.3604 77.8587 39.0541 77.8738 38.748C77.889 38.4419 77.9618 38.1431 78.0872 37.8718C78.2127 37.6006 78.3879 37.3632 78.601 37.1757C78.814 36.9883 79.06 36.8552 79.3222 36.7855C79.5843 36.7157 79.8566 36.711 80.1206 36.7715C80.3845 36.8321 80.6339 36.9565 80.852 37.1364C81.07 37.3163 81.2515 37.5475 81.3842 37.8142Z" fill="black"/>
<path d="M80.5993 36.003C80.4268 35.9824 80.2639 36.087 80.0942 36.1298C79.7449 36.2169 79.3872 36.0363 79.0282 36.0379C78.7195 36.0578 78.4192 36.1599 78.1514 36.3358C77.9349 36.4523 77.7372 36.6098 77.5669 36.8017C77.3959 36.9966 77.2964 37.2584 77.2886 37.5338C77.3124 37.6916 77.3081 37.8533 77.2761 38.0092C77.24 38.0878 77.1971 38.1621 77.1481 38.231C77.1036 38.3122 77.0753 38.4035 77.0649 38.4985C77.0546 38.5934 77.0626 38.6898 77.0882 38.7809C77.1602 38.9614 77.2575 39.1273 77.3763 39.2721C77.6073 39.6097 77.752 40.0137 77.9594 40.3719C78.0498 40.5274 78.1513 40.6742 78.2628 40.8108C78.281 40.835 78.3032 40.855 78.3282 40.8695C78.3527 40.8793 78.3787 40.8836 78.4047 40.8821C78.8445 40.8964 79.2995 40.9075 79.7045 40.711C79.8342 40.6598 79.9444 40.559 80.0162 40.4258C80.0747 40.243 80.0853 40.0448 80.0469 39.8553C80.0284 39.6442 80.0326 39.4313 80.0594 39.2214C80.0611 39.1506 80.0865 39.0832 80.1304 39.0329C80.1636 39.0094 80.2017 38.9963 80.2408 38.9949C80.2798 38.9935 80.3186 39.0039 80.353 39.0249C80.4218 39.0662 80.4969 39.092 80.5743 39.101C80.726 39.101 80.822 38.9045 80.8526 38.7334C80.8359 38.5796 80.8559 38.4235 80.9105 38.2815C80.9651 38.1396 81.0523 38.017 81.163 37.9268C81.2672 37.7761 81.3388 37.5996 81.3719 37.4116C81.405 37.2235 81.3988 37.0292 81.3536 36.8445C81.2534 36.4879 80.9472 36.0426 80.5993 36.003Z" fill="#1E1637"/>
<path opacity="0.1" d="M82.4042 45.1036C82.3671 45.366 82.3671 45.6335 82.4042 45.8959C82.3875 46.1083 82.4042 47.2793 82.4042 47.2793C81.8475 47.086 80.4322 47.4711 80.4322 47.4711L80.2638 46.8959C80.1677 46.7539 80.096 46.5927 80.0523 46.4205C79.9995 46.2343 79.9558 46.0449 79.9215 45.8532C79.848 45.4547 79.7927 45.0522 79.7559 44.6473C79.6849 44.0372 80.4823 43.3795 81.0863 43.0151C81.6903 42.6506 82.2191 44.2051 82.2191 44.2051C82.2191 44.2051 82.471 44.8025 82.4042 45.1036Z" fill="black"/>
<path d="M82.4042 44.9943C82.3672 45.2567 82.3672 45.5242 82.4042 45.7866C82.3875 45.9974 82.4042 47.1684 82.4042 47.1684C81.8475 46.9767 80.4322 47.3601 80.4322 47.3601L80.2638 46.7849C80.1674 46.6432 80.0956 46.4819 80.0523 46.3095C79.9995 46.1239 79.9558 45.935 79.9215 45.7438C79.8481 45.3454 79.7928 44.9429 79.7559 44.5379C79.6849 43.9262 80.4823 43.2702 81.0863 42.9041C81.6903 42.5381 82.2191 44.0942 82.2191 44.0942C82.2191 44.0942 82.471 44.6869 82.4042 44.9943Z" fill="#4C4981"/>
<path opacity="0.2" d="M81.334 36.8444C81.305 36.7355 81.2634 36.6316 81.2101 36.5354C81.2185 36.5623 81.2268 36.5877 81.2338 36.6146C81.2789 36.7994 81.2852 36.9937 81.2521 37.1817C81.2189 37.3698 81.1473 37.5463 81.0431 37.6969C80.9325 37.7872 80.8453 37.9098 80.7907 38.0517C80.7361 38.1936 80.7161 38.3497 80.7328 38.5035C80.7091 38.6747 80.6131 38.8632 80.4544 38.8696C80.3764 38.8621 80.3006 38.8362 80.2318 38.7935C80.1974 38.7732 80.159 38.7633 80.1202 38.7646C80.0815 38.766 80.0437 38.7787 80.0105 38.8014C79.9666 38.8523 79.9412 38.9203 79.9395 38.9916C79.9127 39.2015 79.9085 39.4144 79.927 39.6254C79.9423 39.8188 79.9757 40.0264 79.8964 40.1975C79.823 40.3292 79.7134 40.4295 79.5847 40.4827C79.1797 40.6792 78.7246 40.6681 78.2849 40.6539C78.2588 40.6548 78.2328 40.65 78.2083 40.6396C78.1828 40.6262 78.1604 40.6061 78.1429 40.581C78.0303 40.4454 77.9288 40.2985 77.8395 40.142C77.6322 39.7839 77.4875 39.3814 77.2565 39.0423C77.1938 38.9504 77.1173 38.8601 77.0658 38.7634V38.7824C77.1367 38.9635 77.2341 39.1296 77.3539 39.2737C77.5835 39.6112 77.7296 40.0153 77.9356 40.3734C78.0261 40.5293 78.128 40.6761 78.2403 40.8123C78.2581 40.8365 78.2798 40.8564 78.3044 40.871C78.3289 40.8807 78.3549 40.885 78.3809 40.8836C78.8207 40.8979 79.2771 40.909 79.6807 40.7125C79.8104 40.6613 79.9206 40.5605 79.9924 40.4273C80.0508 40.2445 80.0615 40.0463 80.023 39.8568C80.006 39.6457 80.0102 39.433 80.0356 39.2229C80.0385 39.1524 80.0637 39.0854 80.1065 39.0344C80.1398 39.0109 80.1778 38.9978 80.2169 38.9964C80.256 38.995 80.2947 39.0054 80.3292 39.0264C80.398 39.0677 80.4731 39.0935 80.5505 39.1025C80.7035 39.1025 80.7982 38.906 80.8288 38.7349C80.8311 38.5613 80.8588 38.3894 80.9109 38.2262C80.9758 38.1165 81.0525 38.0164 81.1391 37.9283C81.2441 37.7778 81.3165 37.6012 81.3503 37.4129C81.3842 37.2245 81.3786 37.0298 81.334 36.8444Z" fill="black"/>
<path d="M94.9011 37.2612L93.6987 40.1706C93.6987 40.1706 93.5219 40.7173 93.4078 40.8188C93.2937 40.9202 92.7885 42.6474 92.7885 42.6474L91.4985 44.9103L91.4108 45.0688L90.9056 44.9103L90.5508 43.4017L90.5717 42.9644V42.9089C90.5717 42.9089 91.3677 41.9581 91.5458 41.8868C91.5458 41.8868 91.685 41.9058 91.9494 41.169C92.2138 40.4321 92.4559 40.2736 92.4559 40.2736L92.5951 39.7412L94.0883 37.0331C94.0883 37.0331 95.3408 34.9904 95.6818 35.8969C96.0227 36.8033 94.9011 37.2612 94.9011 37.2612Z" fill="#FFD2C6"/>
<path d="M89.9079 57.9281C89.9039 57.9775 89.8901 58.0251 89.8676 58.0676C89.7284 58.2989 88.9449 63.0069 88.9449 63.0069C89.0075 63.3238 88.8308 63.9577 88.7167 64.2461C88.6026 64.5345 88.3493 66.0304 88.3493 66.0304C88.3493 66.0304 88.2867 69.2567 88.1238 69.7606C87.961 70.2645 88.1753 71.3453 88.1753 71.3453C88.16 71.8412 88.4216 72.3673 88.5775 72.6336L88.6081 72.6843C88.6582 72.7667 88.6916 72.8142 88.6916 72.8142C88.7345 72.9104 88.7947 72.9951 88.8684 73.063L88.9045 73.0947C89.1196 73.2583 89.36 73.3739 89.6129 73.4354H89.6379C89.7381 73.4607 89.8049 73.4718 89.8049 73.4718L89.8676 73.8617L89.1982 74.0201L87.9207 74.12C87.9207 74.12 86.4149 74.2515 86.7572 73.4861C86.7809 73.435 86.8014 73.3821 86.8185 73.3276C86.8317 73.2903 86.8434 73.2522 86.8533 73.2135C87.0592 72.4799 86.9201 71.5877 86.9201 71.5877L86.6292 68.9826C86.1491 66.5628 87.0064 63.8705 87.0064 63.8705C87.0064 63.8705 86.9326 63.655 87.0968 63.1083C87.261 62.5616 87.0968 61.3652 87.0968 61.3652C87.0968 61.3652 87.0091 59.8249 86.895 59.0627C86.85 58.7416 86.8347 58.4161 86.8491 58.0913C86.8546 57.9014 86.8699 57.7119 86.895 57.524L89.7771 57.0883C89.7771 57.0883 89.9427 57.6223 89.9079 57.9281Z" fill="#FFD2C6"/>
<path opacity="0.1" d="M89.8675 73.8648L89.1982 74.0233L87.9207 74.1231C87.9207 74.1231 86.415 74.2547 86.7573 73.4893C86.781 73.4382 86.8015 73.3852 86.8185 73.3308C86.8318 73.2935 86.8434 73.2554 86.8533 73.2167C87.1142 73.2265 87.3719 73.2854 87.6159 73.391C88.0445 73.5796 88.3674 73.0884 88.3674 73.0884L88.5761 72.6352L88.6067 72.5702C88.6568 72.6526 88.6902 72.7001 88.6902 72.7001C88.7407 72.8115 88.8137 72.9076 88.9032 72.9806L88.867 73.0646L88.6652 73.5495C88.6652 73.5495 88.924 73.5796 89.2775 73.6446C89.3459 73.6647 89.4185 73.6545 89.4805 73.6159C89.5425 73.5774 89.5894 73.5134 89.6115 73.437H89.6365C89.7367 73.4623 89.8035 73.4734 89.8035 73.4734L89.8675 73.8648Z" fill="black"/>
<path d="M90.4868 74.2229C90.4367 74.4828 89.027 74.562 89.027 74.562C89.027 74.562 88.2421 74.4764 88.0222 74.684C87.8024 74.8916 87.1552 74.8425 87.1302 74.8425C87.1051 74.8425 86.7642 74.8282 86.6306 74.131C86.497 73.4337 86.8045 73.3387 86.8185 73.3276C87.0913 73.3321 87.3613 73.3916 87.6159 73.5035C88.0445 73.692 88.3674 73.2008 88.3674 73.2008L88.6067 72.6826C88.6568 72.765 88.6902 72.8126 88.6902 72.8126C88.7407 72.9239 88.8137 73.02 88.9031 73.093L88.6652 73.6619C88.6652 73.6619 88.924 73.692 89.2775 73.7554C89.3199 73.7665 89.3638 73.7667 89.4063 73.756C89.4487 73.7453 89.4886 73.7241 89.5229 73.6937C89.5573 73.6634 89.5853 73.6248 89.6049 73.5807C89.6246 73.5365 89.6354 73.488 89.6365 73.4385C89.6372 73.4242 89.6372 73.41 89.6365 73.3957C89.6365 73.3957 89.8564 73.4686 90.1292 73.5542C90.2515 73.5943 90.3562 73.6853 90.4225 73.8091C90.4887 73.933 90.5117 74.0807 90.4868 74.2229Z" fill="#626696"/>
<path d="M93.1433 61.3604C93.1099 61.5902 93.0751 62.186 93.0751 62.186C93.1934 62.6852 92.89 63.8705 92.89 63.8705L92.7384 64.5471C92.8052 65.4108 92.3209 67.5231 92.3209 67.5231C92.3209 67.5231 91.9966 69.4817 91.8282 70.3263C91.7275 70.7958 91.7581 71.2895 91.9159 71.7382L91.9284 71.7731C91.9284 71.7889 91.9354 71.8048 91.9382 71.8206C91.9432 71.8439 91.9497 71.8666 91.9576 71.8888C91.9953 72.0051 92.0515 72.1125 92.1232 72.2057C92.1509 72.2438 92.1811 72.2793 92.2137 72.3119C92.3723 72.4719 92.5541 72.5995 92.7509 72.689L92.8358 72.727C92.9237 72.7642 93.0134 72.7959 93.1044 72.8221H93.135L93.0668 73.2753L92.1733 73.0139L90.9765 72.5718L90.3962 72.2009C90.3962 72.2009 90.3962 72.1645 90.4143 72.0948C90.415 72.0906 90.415 72.0863 90.4143 72.0821C90.4143 72.052 90.4254 72.0171 90.4324 71.9759C90.5242 71.3817 90.7525 69.7194 90.6384 68.4897C90.4992 66.9732 91.0558 64.8799 91.1853 64.3823C91.2657 64.097 91.3001 63.7974 91.2869 63.4981C91.067 63.1336 91.0169 61.6742 91.0169 61.6742C91.0169 61.6742 90.6119 60.7329 90.2779 59.7346C90.1666 59.4087 90.0859 59.0704 90.0372 58.7252C89.9976 58.4823 89.9813 58.2352 89.9885 57.9883C89.9885 57.9883 92.7036 55.1661 93.0014 57.898C93.0111 57.9915 93.0209 58.0786 93.0306 58.1658C93.295 60.6774 93.1753 61.137 93.1433 61.3604Z" fill="#FFD2C6"/>
<path opacity="0.1" d="M93.1433 72.8348L93.0752 73.288L92.1817 73.0265L90.9849 72.5844L90.3962 72.2009C90.3962 72.2009 90.3962 72.1645 90.4143 72.0947C90.415 72.0906 90.415 72.0863 90.4143 72.0821C90.4143 72.052 90.4255 72.0171 90.4324 71.9759H90.5159C90.6859 71.9571 90.8575 71.9837 91.0169 72.0535C91.2117 72.1359 91.4678 72.231 91.5193 72.1914C91.6097 72.1474 91.7078 72.1278 91.806 72.1344L91.9298 71.8174L91.9493 71.7699C91.9867 71.8864 92.0429 71.9939 92.1149 72.0868C92.1448 72.1266 92.1768 72.1642 92.2109 72.1993V72.3087L92.204 72.4671C92.3377 72.5641 92.4823 72.6398 92.634 72.6922C92.6733 72.7033 92.7144 72.7033 92.7537 72.6922L92.8386 72.7302C92.9265 72.7673 93.0162 72.7991 93.1072 72.8253L93.1433 72.8348Z" fill="black"/>
<path d="M92.6953 73.8061C92.4462 73.7253 91.845 73.5937 91.7476 73.6952C91.6502 73.7966 90.8166 73.6952 90.8166 73.6952C90.7293 73.6936 90.6438 73.6664 90.5685 73.6161C90.4931 73.5659 90.4305 73.4943 90.3866 73.4083C90.2126 73.1009 90.3532 72.1074 90.3532 72.1074H90.4144L90.5174 72.0947C90.6873 72.076 90.8587 72.102 91.0184 72.1707C91.2132 72.2547 91.4693 72.3498 91.5208 72.3102C91.6109 72.2651 91.7092 72.245 91.8075 72.2516L91.9466 71.895C91.9843 72.0113 92.0405 72.1187 92.1122 72.2119C92.1417 72.2516 92.1738 72.2887 92.2082 72.3229L92.1957 72.5875C92.3295 72.6845 92.4742 72.7607 92.6257 72.8141C92.6624 72.83 92.7027 72.8312 92.7401 72.8177C92.7775 72.8042 92.8098 72.7767 92.8317 72.7396C92.8381 72.7271 92.8433 72.7138 92.847 72.7C92.9597 72.7605 93.0784 72.8052 93.2005 72.8331C93.3569 72.8145 93.5139 72.8616 93.642 72.9655C93.7701 73.0693 93.8605 73.2229 93.8963 73.3973C94.0285 73.8394 92.9444 73.8869 92.6953 73.8061Z" fill="#626696"/>
<path opacity="0.1" d="M89.9078 57.9281L89.7533 57.982C89.632 58.0239 89.5076 58.0536 89.3817 58.0707C88.5829 58.1991 87.2678 58.1214 86.8503 58.0913C86.8558 57.9014 86.8712 57.7119 86.8963 57.524L89.7783 57.0883C89.7783 57.0883 89.9426 57.6223 89.9078 57.9281Z" fill="black"/>
<path d="M92.4225 57.131C92.4225 57.131 91.3649 57.3179 90.5035 57.5319C90.2168 57.6032 89.9468 57.6792 89.7534 57.7506C89.632 57.7924 89.5077 57.8226 89.3818 57.8409C88.423 57.9993 86.7197 57.852 86.7197 57.852C86.2521 56.1247 87.2874 53.949 87.2874 53.949C87.2638 53.7763 87.5031 53.2454 87.5031 53.2454V53.228L87.6507 52.6116H91.582L91.6307 52.8762L91.7309 53.415L92.3488 56.7538L92.4225 57.131Z" fill="#626696"/>
<path opacity="0.1" d="M93.0321 58.1785L93.0085 58.1896L92.5478 58.4225C92.0496 58.684 90.5592 58.7395 90.0429 58.7395C90.0034 58.4966 89.987 58.2495 89.9942 58.0026C89.9942 58.0026 92.7093 55.1804 93.0071 57.9123C93.0127 58.0042 93.0224 58.0977 93.0321 58.1785Z" fill="black"/>
<path d="M93.1046 57.9106L93.0086 57.9597L92.548 58.1927C92.0414 58.4589 90.5022 58.5096 90.0096 58.5096H89.8802C89.6533 58.5017 89.4251 58.2592 89.4251 58.1927C89.4251 58.1578 89.4015 57.9867 89.382 57.8409C89.3639 57.7236 89.35 57.6222 89.35 57.6222C88.8216 57.3632 88.3101 57.0619 87.8192 56.7205C87.4337 56.421 87.5311 54.2929 87.6049 53.2232C87.6313 52.854 87.655 52.6116 87.655 52.6116L91.635 52.8762L92.1917 52.9127L92.5104 52.9935L92.5953 53.0141C92.5953 53.0141 92.8249 54.9156 92.9376 55.0741C93.0503 55.2326 92.9766 55.765 92.9627 56.0693C92.9625 56.1998 92.9499 56.33 92.9251 56.4575C92.9251 56.4575 93.0893 56.9899 93.0517 57.2878C93.0345 57.4974 93.0525 57.7087 93.1046 57.9106Z" fill="#626696"/>
<path d="M88.8433 42.1292C89.744 42.1292 90.4743 41.2977 90.4743 40.272C90.4743 39.2463 89.744 38.4148 88.8433 38.4148C87.9425 38.4148 87.2123 39.2463 87.2123 40.272C87.2123 41.2977 87.9425 42.1292 88.8433 42.1292Z" fill="#FFD2C6"/>
<path d="M88.0472 41.0453C88.0472 41.0453 88.1599 42.8042 87.844 43.2083C87.483 43.6198 87.1031 44.0091 86.7057 44.3746L86.959 45.5694L88.3882 45.7564L90.0581 43.7265L89.6782 43.202C89.6782 43.202 89.3874 42.0785 89.6267 41.5175C89.8661 40.9565 88.0472 41.0453 88.0472 41.0453Z" fill="#FFD2C6"/>
<path opacity="0.1" d="M91.4985 44.9103L91.4108 45.0688L90.9056 44.9103L90.5508 43.4017L90.5717 42.9644L90.676 42.7932C90.676 42.7932 91.2327 42.8075 91.209 43.3843C91.1854 43.8882 91.4386 44.7185 91.4985 44.9103Z" fill="black"/>
<path opacity="0.1" d="M92.5979 53.2454C92.5979 53.2454 92.1957 53.3468 91.7351 53.415C91.2744 53.4831 90.7428 53.5196 90.5244 53.3738C90.1584 53.1266 88.1753 53.1979 87.6019 53.2232H87.5045L87.652 52.6068H91.5834L91.6321 52.8714L92.1888 52.9079L92.5074 52.9887C92.5659 53.144 92.5979 53.2454 92.5979 53.2454Z" fill="black"/>
<path d="M90.576 42.9058C90.576 42.9058 91.1326 42.92 91.1076 43.4968C91.0825 44.0736 91.4109 45.0656 91.4109 45.0656L91.2843 45.3968C91.2843 45.3968 91.1076 46.2034 91.2467 46.4046C91.3859 46.6059 91.891 46.6059 91.6002 48.2618C91.6002 48.2618 91.5376 49.501 91.6893 49.9035C91.8409 50.306 91.8409 51.2711 92.0678 51.6752C92.2749 52.1053 92.4526 52.553 92.5994 53.0142C92.5994 53.0142 90.9559 53.4309 90.5259 53.1441C90.0958 52.8573 87.4531 52.9999 87.4531 52.9999C87.4531 52.9999 87.4657 52.496 87.4531 52.4374C87.4409 52.3747 87.4401 52.3099 87.4509 52.2469C87.4617 52.1839 87.4837 52.1241 87.5158 52.0713C87.6048 51.9334 87.744 51.7037 87.6674 51.5024C87.5909 51.3012 87.8567 51.0033 87.7175 50.6911C87.5784 50.3789 87.41 50.3171 87.4392 50.146C87.4467 50.0479 87.4368 49.949 87.41 49.8554C87.3832 49.7617 87.3401 49.6752 87.2834 49.6009C87.1832 49.4567 86.4999 47.9354 86.4999 47.9354L86.3858 47.2255C86.3858 47.2255 85.5062 46.4918 85.5229 46.1463C85.5396 45.8009 85.8555 45.3207 85.8555 45.3207L86.7017 44.37C86.7017 44.37 87.1706 44.9452 87.6257 44.7439C88.0808 44.5427 89.0591 43.5776 89.0591 43.5776C89.0591 43.5776 89.4084 43.3621 89.4334 43.2037C89.4585 43.0452 89.6742 43.1894 89.6742 43.1894C89.6742 43.1894 89.9901 42.9913 90.0527 43.0611C90.1599 43.1247 90.2756 43.1681 90.395 43.1894L90.576 42.9058Z" fill="#FFCDE5"/>
<path d="M85.7957 45.9054L85.5271 46.1463C85.3229 46.638 85.2079 47.1716 85.1889 47.7151C85.1177 48.5323 85.0039 49.344 84.8479 50.1459L84.3163 51.2282C84.3163 51.2282 83.4438 53.3152 83.3297 53.8698C83.2155 54.4244 82.6979 55.3609 82.6979 55.3609C82.6979 55.3609 80.9402 57.1595 82.1663 57.4843C83.3923 57.8092 83.4313 56.0582 83.4313 56.0582C83.4313 56.0582 83.7096 55.6985 83.7639 55.4528C83.8181 55.2072 85.3656 52.076 85.3656 52.076C85.3656 52.076 85.9098 51.2329 85.7957 50.7861C85.7957 50.7861 86.504 48.8845 86.504 48.4091C86.4908 48.0114 86.4527 47.6153 86.3899 47.2238L86.504 46.2302L85.7957 45.9054Z" fill="#FFD2C6"/>
<path opacity="0.1" d="M89.4374 49.875C89.4374 49.875 88.1989 50.6134 87.9582 50.6531C87.7174 50.6927 89.0074 50.4946 89.0074 50.4946L89.4374 49.875Z" fill="black"/>
<path opacity="0.1" d="M90.4478 50.4502C90.4478 50.4502 88.8043 51.0841 88.082 50.97C88.082 50.9668 89.88 51.3582 90.4478 50.4502Z" fill="black"/>
<path opacity="0.1" d="M90.5508 50.6577C90.5508 50.6577 89.0701 51.7178 88.199 51.5451C88.199 51.5451 90.2349 52.0063 90.5508 51.7606L89.6407 51.4738C89.6407 51.4738 90.651 50.8637 90.5508 50.6577Z" fill="black"/>
<path opacity="0.1" d="M88.8462 37.0029C88.6327 36.9431 88.4105 36.9361 88.1945 36.9823C87.9784 37.0284 87.7736 37.1268 87.5937 37.2707C87.3404 37.4973 87.1762 37.8443 86.8867 38.0139C86.7364 38.087 86.5821 38.1489 86.4247 38.1993C86.1476 38.3284 85.9166 38.5598 85.769 38.8564C85.6213 39.153 85.5655 39.4976 85.6106 39.8346C85.6551 40.1199 85.772 40.3829 85.8305 40.665C85.9335 41.1673 85.8416 41.6934 85.7303 42.1942C85.4188 43.5826 84.9461 44.9175 84.3247 46.1637C84.2758 46.2409 84.2513 46.3348 84.2552 46.4299C84.2708 46.4938 84.3005 46.5522 84.3414 46.5995C84.9259 47.368 85.8722 47.6327 86.7699 47.6675C87.0994 47.7046 87.4316 47.6417 87.7329 47.4853C87.9189 47.3634 88.0791 47.1962 88.2018 46.9956C88.5124 46.5118 88.6668 45.9207 88.6388 45.3223C88.6152 44.8389 88.4732 44.3509 88.5804 43.8834C88.591 43.8181 88.617 43.7573 88.6555 43.7075C88.7515 43.595 88.9116 43.6251 89.048 43.6061C89.4195 43.557 89.6589 43.1117 89.7034 42.6886C89.748 42.2655 89.6547 41.8408 89.6519 41.4209C89.6505 40.8586 89.8049 40.3102 90.0931 39.8537C90.2169 39.6603 90.3714 39.4702 90.416 39.2277C90.4688 38.9235 90.3144 38.7 90.1808 38.4608C89.9734 38.0868 89.8718 37.651 89.5559 37.3658C89.3474 37.1834 89.1044 37.0592 88.8462 37.0029Z" fill="black"/>
<path d="M88.7444 36.8873C88.5323 36.8283 88.3115 36.8217 88.0969 36.8679C87.8823 36.914 87.6789 37.012 87.5003 37.1551C87.247 37.3833 87.0828 37.7303 86.792 37.8999C86.6414 37.9717 86.4871 38.0331 86.3299 38.0837C86.0533 38.2126 85.8227 38.4436 85.6751 38.7395C85.5275 39.0355 85.4714 39.3793 85.5158 39.7159C85.5604 40.0011 85.6773 40.2642 85.7357 40.5462C85.8387 41.0486 85.7482 41.5747 85.6355 42.0754C85.3242 43.4611 84.852 44.7934 84.2314 46.037C84.1814 46.1137 84.1567 46.2079 84.1618 46.3032C84.1761 46.3674 84.2054 46.426 84.2467 46.4728C84.8312 47.2429 85.7775 47.506 86.6751 47.5408C87.0044 47.5779 87.3366 47.5156 87.6381 47.3602C87.8239 47.2372 87.984 47.0696 88.1071 46.8689C88.417 46.3848 88.5709 45.7938 88.5426 45.1956C88.5176 44.7202 88.3756 44.2242 88.4828 43.7567C88.4946 43.6919 88.5204 43.6314 88.5579 43.5808C88.6554 43.4683 88.814 43.4984 88.9518 43.481C89.322 43.4319 89.5613 42.985 89.6059 42.5635C89.6504 42.142 89.5571 41.7157 89.5558 41.2958C89.5537 40.7339 89.7081 40.1857 89.9969 39.7301C90.1194 39.5352 90.2752 39.3451 90.3198 39.0963C90.3712 38.792 90.2168 38.5702 90.0832 38.3293C89.8758 37.9569 89.7742 37.5196 89.4583 37.2343C89.2473 37.057 89.0029 36.9381 88.7444 36.8873Z" fill="#985C7E"/>
<path opacity="0.1" d="M88.199 54.8904C88.199 54.8904 88.5232 56.6192 89.0632 57.0883L88.199 54.8904Z" fill="black"/>
<g opacity="0.1">
<path opacity="0.1" d="M85.612 40.1057C85.5953 40.0391 85.5758 39.971 85.5549 39.9044C85.5772 39.9726 85.5911 40.0328 85.612 40.1057Z" fill="black"/>
<path opacity="0.1" d="M90.2252 38.6066C90.231 38.6592 90.231 38.7124 90.2252 38.765C90.1835 39.0075 90.0262 39.1976 89.9024 39.391C89.6144 39.8476 89.4601 40.396 89.4612 40.9582C89.4612 41.3844 89.5558 41.8091 89.5113 42.2259C89.4668 42.6426 89.233 43.0943 88.8572 43.1418C88.7181 43.1608 88.5608 43.1307 88.4648 43.2432C88.4269 43.2937 88.4006 43.3542 88.3883 43.4191C88.2811 43.8866 88.4245 44.3699 88.4481 44.858C88.474 45.4566 88.3177 46.0471 88.0056 46.5298C87.8832 46.7307 87.723 46.898 87.5366 47.0194C87.2359 47.176 86.904 47.2388 86.575 47.2017C85.6969 47.1684 84.7659 46.9101 84.1758 46.1701C84.1602 46.2142 84.1554 46.2624 84.1619 46.3095C84.1762 46.3737 84.2055 46.4323 84.2468 46.4791C84.8313 47.2492 85.7776 47.5122 86.6752 47.5471C87.0045 47.5842 87.3367 47.5219 87.6382 47.3665C87.824 47.2435 87.9841 47.0758 88.1072 46.8752C88.4171 46.3911 88.571 45.8001 88.5427 45.2018C88.5177 44.7264 88.3757 44.2305 88.4829 43.763C88.4947 43.6981 88.5205 43.6377 88.558 43.5871C88.6555 43.4746 88.8141 43.5047 88.9519 43.4873C89.3221 43.4381 89.5614 42.9913 89.6059 42.5698C89.6505 42.1482 89.5572 41.722 89.5558 41.302C89.5538 40.7402 89.7082 40.192 89.997 39.7364C90.1195 39.5415 90.2753 39.3513 90.3199 39.1026C90.3429 38.9296 90.3092 38.753 90.2252 38.6066Z" fill="black"/>
</g>
<path opacity="0.1" d="M17.977 79.5869C19.6034 79.5869 20.9217 79.4351 20.9217 79.2478C20.9217 79.0605 19.6034 78.9087 17.977 78.9087C16.3507 78.9087 15.0323 79.0605 15.0323 79.2478C15.0323 79.4351 16.3507 79.5869 17.977 79.5869Z" fill="#6C63FF"/>
<path d="M19.0069 73.6414C19.0069 73.6414 15.166 75.9011 17.1505 78.5537C17.2063 78.7191 17.3067 78.8601 17.4371 78.9565C17.5676 79.053 17.7215 79.1001 17.8769 79.0909C17.8769 79.0909 17.7684 78.8675 18.1817 78.6884C18.329 78.6239 18.4691 78.5399 18.5992 78.4381C18.7738 78.3006 18.9043 78.102 18.9707 77.8723C18.9707 77.8723 19.757 76.6759 19.1475 74.4622C19.1475 74.4622 19.2268 73.8283 19.1572 73.7348L18.691 74.4622C18.691 74.4622 19.1739 74.8314 19.2296 75.3734C19.2296 75.3734 18.7272 74.4638 18.6172 74.5684C18.595 74.589 18.3862 74.9661 18.3862 74.9661C18.3862 74.9661 19.2212 75.6126 19.2838 76.4509C19.2838 76.4509 18.8135 75.2767 18.3097 75.1087L18.023 75.6998C18.023 75.6998 18.9359 76.3337 19.0389 77.2844C19.0389 77.2844 18.5087 76.0769 17.9674 75.8345L17.7544 76.4588C17.7544 76.4588 18.6339 77.0927 18.7147 77.885C18.7147 77.885 17.9785 76.5603 17.7141 76.603C17.7141 76.603 17.5485 77.1894 17.5749 77.37C17.5749 77.37 18.1984 77.8454 18.2095 78.3097C18.2095 78.3097 17.6348 77.4825 17.5457 77.538C17.5457 77.538 17.5095 78.3683 17.6849 78.8057C17.504 78.4158 17.4162 77.9786 17.4302 77.538C17.2522 77.717 17.1244 77.9518 17.0628 78.213C17.0628 78.213 16.8972 77.7551 17.4413 77.3367C17.4413 77.3367 17.4928 76.6902 17.5554 76.611C17.5554 76.611 16.9668 76.9374 16.7205 77.3399C16.7205 77.3399 16.8123 76.7409 17.6111 76.443L17.8143 75.8091C17.8143 75.8091 17.0155 76.1942 16.7678 76.5333C16.7678 76.5333 16.9459 75.9391 17.8811 75.6538L18.1594 75.0707C18.1594 75.0707 17.4497 75.3433 17.1032 75.6538C17.1032 75.6538 17.3717 75.142 18.2443 74.9075L18.4697 74.5414C18.4697 74.5414 17.9534 74.7522 17.8101 74.8267C17.6668 74.9011 17.6375 74.8647 17.6375 74.8647C17.9006 74.6112 18.2207 74.4466 18.5616 74.3893C18.5616 74.3893 19.0417 73.681 19.0069 73.6414Z" fill="#6C63FF"/>
<path d="M22.7907 77.6632C23.1929 77.9342 23.8219 78.1101 24.6137 77.5285L24.6054 78.8136C24.6625 79.6963 25.6185 82.9068 25.6185 82.9068L26.2934 85.5499C26.7776 87.4164 27.0277 89.3513 27.0366 91.2974C27.0193 91.9101 27.0922 92.5218 27.2523 93.1071C27.6113 94.2163 27.1131 95.6425 26.8932 96.1702C26.4924 96.3287 26.0791 96.4475 25.7799 96.5267C25.7459 96.5357 25.7124 96.5474 25.6797 96.5616V96.5537C25.6797 96.5537 24.6666 97.0116 24.2157 96.9482C23.8804 96.9007 23.6702 97.3777 23.9374 97.7279C23.719 97.8045 23.4908 97.8388 23.2625 97.8293C22.8116 97.7659 22.5875 98.6486 23.4309 98.9005C24.2742 99.1525 29.0614 98.9005 29.0614 98.9005C29.1962 98.8238 29.3047 98.6983 29.37 98.5437C29.4352 98.3891 29.4535 98.2141 29.4218 98.0464C29.7892 98.0306 30.0188 98.0179 30.0188 98.0179C30.0188 98.0179 30.8636 97.5774 30.0188 96.381L29.9743 96.4206L29.7934 95.8152V94.996C29.7934 94.996 30.8636 89.1328 30.5254 88.4483C30.1872 87.7637 30.0188 84.2299 30.0188 84.2299L30.1316 80.3888C30.4363 79.6709 30.5936 78.5474 30.6729 77.668C30.7876 77.2482 30.86 76.8149 30.8886 76.3765C30.9011 76.1705 30.9123 75.9534 30.9192 75.7284C30.9237 75.2353 30.8545 74.745 30.7147 74.2784C31.0954 73.632 31.5217 73.022 31.9894 72.4545C32.1838 72.2487 32.3315 71.9922 32.4197 71.7071C32.508 71.4219 32.5341 71.1167 32.496 70.8176L32.2176 68.6767L31.5413 65.032C31.6262 64.0179 31.4411 63.4347 31.2351 63.1051C31.2838 62.7787 31.3298 62.4507 31.3646 62.1226C31.5141 60.6941 31.4473 59.2469 31.1669 57.8441C31.0695 57.3545 30.9359 56.8521 30.6353 56.4813C30.293 56.0614 29.7391 55.8047 29.6125 55.2548C29.5929 55.1155 29.5669 54.9774 29.5346 54.8412C29.4107 54.4799 29.0197 54.35 28.6773 54.3024C28.0678 54.2185 27.1869 54.1535 26.601 54.426C26.1932 54.6178 25.6269 55.1407 25.4056 55.7033C25.2722 55.9375 25.2224 56.2209 25.2664 56.4956C25.2877 56.5896 25.3205 56.6797 25.3638 56.7634C25.2734 57.0332 25.2263 57.3193 25.2247 57.608C25.2269 58.1014 25.3595 58.5826 25.6052 58.9891C25.8509 59.3955 26.1984 59.7083 26.6024 59.8867C26.6149 59.9343 26.6274 59.9818 26.6386 60.0293C26.664 60.1418 26.6821 60.2562 26.6928 60.3716C26.6831 60.595 26.6706 60.8185 26.6608 61.0403C26.6555 61.0709 26.6486 61.1011 26.64 61.1307C26.1553 61.375 25.6828 61.6496 25.2247 61.9531C25.5628 62.5188 25.169 64.9116 25.169 64.9116C24.3243 65.4789 23.4796 66.9273 24.38 68.4374C25.2803 69.9476 24.7738 71.5671 24.7738 71.5671L24.6346 74.0296L24.6068 74.5209H24.6179L24.6068 74.7078H24.6304V74.9091C24.2338 75.0676 23.6563 75.4067 23.3126 76.0183C23.1492 76.3219 22.9507 76.599 22.7225 76.8424C22.6667 76.8936 22.6229 76.9599 22.5951 77.0351C22.5672 77.1104 22.5562 77.1923 22.563 77.2736C22.5697 77.3549 22.5941 77.4331 22.6338 77.501C22.6735 77.569 22.7274 77.6247 22.7907 77.6632ZM29.5888 71.1218C29.555 70.6962 29.6243 70.2681 29.7892 69.8842C29.9214 69.8842 30.055 69.8842 30.1872 69.8842C30.2012 69.9904 30.2165 70.0918 30.2359 70.1837C30.3501 70.7447 29.8936 71.0093 29.5888 71.1218Z" fill="url(#paint0_linear)"/>
<path d="M29.7001 95.5269L29.9172 96.2669L29.2158 97.0687L26.8862 97.6852L25.2065 97.4998L25.3151 96.8215C25.347 96.6757 25.4137 96.5428 25.5077 96.4374C25.6018 96.332 25.7196 96.2582 25.8481 96.2241C26.5439 96.0387 27.8548 95.6188 28.1318 95.0325L29.7001 95.5269Z" fill="#DB8B8B"/>
<path opacity="0.1" d="M29.7001 95.5269L29.9172 96.2669L29.2158 97.0687L26.8862 97.6852L25.2065 97.4998L25.3151 96.8215C25.347 96.6757 25.4137 96.5428 25.5077 96.4374C25.6018 96.332 25.7196 96.2582 25.8481 96.2241C26.5439 96.0387 27.8548 95.6188 28.1318 95.0325L29.7001 95.5269Z" fill="black"/>
<path d="M25.7452 97.3158L26.0708 96.8214L25.7452 96.251C25.7452 96.251 24.771 96.6978 24.3368 96.636C23.9026 96.5742 23.6869 97.4394 24.4996 97.6851C25.3124 97.9307 29.9173 97.6851 29.9173 97.6851C29.9173 97.6851 30.73 97.254 29.9173 96.0814L29.2159 96.6978C29.2159 96.6978 28.0233 97.4394 27.4276 97.3158H25.7452Z" fill="#2E3037"/>
<path d="M24.2826 98.3649L25.9623 98.5487L28.2919 97.9323L28.9961 97.1304L28.939 96.9339L28.8583 96.6582L28.7804 96.3904L27.2092 95.896C27.1295 96.0442 27.0204 96.1691 26.8905 96.2605C26.3798 96.6566 25.4627 96.9434 24.9255 97.0876L24.8573 97.1098C24.7529 97.1487 24.6577 97.2143 24.579 97.3016C24.4846 97.4065 24.4176 97.5393 24.3856 97.6851L24.2826 98.3649Z" fill="#DB8B8B"/>
<path opacity="0.1" d="M24.2826 98.3649L25.9623 98.5487L28.2919 97.9323L28.9961 97.1305L28.939 96.934L28.2919 97.4997C28.2919 97.4997 27.1007 98.2413 26.5036 98.1177H24.8253L25.1496 97.6233L24.8573 97.1099C24.7529 97.1487 24.6577 97.2143 24.579 97.3016C24.4846 97.4066 24.4176 97.5393 24.3856 97.6851L24.2826 98.3649Z" fill="black"/>
<path d="M24.8253 98.1795L25.1496 97.6851L24.8253 97.1146C24.8253 97.1146 23.8512 97.5615 23.4156 97.4997C22.98 97.4379 22.7657 98.3031 23.5784 98.5487C24.3911 98.7943 28.996 98.5487 28.996 98.5487C28.996 98.5487 29.8087 98.1177 28.996 96.9451L28.2919 97.5551C28.2919 97.5551 27.1006 98.2968 26.5036 98.1732L24.8253 98.1795Z" fill="#2E3037"/>
<path d="M26.1794 62.3984C26.1794 62.3984 28.7804 62.7058 28.4061 61.4729C28.3005 61.1227 28.2728 60.7481 28.3253 60.3827C28.3933 59.93 28.5508 59.5008 28.786 59.1277L26.3478 59.5603C26.4934 59.8384 26.6044 60.1381 26.6776 60.4509C26.9629 61.7598 26.1794 62.3984 26.1794 62.3984Z" fill="#DB8B8B"/>
<path d="M30.6216 76.4636C30.6216 76.4636 30.5673 79.1163 30.026 80.4125L29.9118 84.1745C29.9118 84.1745 30.0747 87.629 30.3989 88.3088C30.7232 88.9886 29.6948 94.725 29.6948 94.725V95.7107C29.6948 95.7107 27.9622 96.4523 27.4681 95.5886L27.9636 88.247L27.7506 78.0641L30.6216 76.4636Z" fill="#474463"/>
<path opacity="0.1" d="M30.6216 76.4636C30.6216 76.4636 30.5673 79.1163 30.026 80.4125L29.9118 84.1745C29.9118 84.1745 30.0747 87.629 30.3989 88.3088C30.7232 88.9886 29.6948 94.725 29.6948 94.725V95.7107C29.6948 95.7107 27.9622 96.4523 27.4681 95.5886L27.9636 88.247L27.7506 78.0641L30.6216 76.4636Z" fill="black"/>
<path d="M31.7056 67.9493L32.0299 68.9366L32.3012 71.0346C32.338 71.3268 32.313 71.6247 32.2283 71.9036C32.1435 72.1826 32.0016 72.4344 31.8142 72.6383C31.1643 73.3783 30.2973 74.9217 30.2973 74.9217L29.2675 71.4086C29.2675 71.4086 30.2973 71.2232 30.1344 70.4214C29.9716 69.6196 30.0259 68.1379 30.0259 68.1379L31.7056 67.9493Z" fill="#FC6681"/>
<path opacity="0.05" d="M31.7056 67.9493L32.0299 68.9366L32.3012 71.0346C32.338 71.3268 32.313 71.6247 32.2283 71.9036C32.1435 72.1826 32.0016 72.4344 31.8142 72.6383C31.1643 73.3783 30.2973 74.9217 30.2973 74.9217L29.2675 71.4086C29.2675 71.4086 30.2973 71.2232 30.1344 70.4214C29.9716 69.6196 30.0259 68.1379 30.0259 68.1379L31.7056 67.9493Z" fill="black"/>
<path opacity="0.1" d="M26.8906 96.2605C27.5864 97.506 28.6664 96.7992 28.8584 96.6582L28.7805 96.3904L27.2093 95.896C27.1296 96.0442 27.0205 96.1691 26.8906 96.2605Z" fill="black"/>
<path d="M24.7168 78.8691C24.7711 79.7327 25.6909 82.8798 25.6909 82.8798L26.3408 85.4691C26.8072 87.2995 27.0475 89.195 27.0547 91.1009C27.0409 91.7012 27.1129 92.3001 27.2677 92.8741C27.7019 94.2306 26.8349 96.0814 26.8349 96.0814C27.5933 97.6233 28.8931 96.5758 28.8931 96.5758V95.5886C28.8931 95.5886 29.9229 90.2214 29.6515 89.1724C29.3802 88.1234 29.273 85.2853 29.273 85.2853V80.1653C30.1386 79.1785 30.664 77.8704 30.7537 76.4794C30.7676 76.2782 30.7774 76.0659 30.7843 75.8456C30.8289 74.4527 29.9925 72.8221 29.671 72.2389C29.5931 72.0995 29.5444 72.0203 29.5444 72.0203L24.7544 74.1817H24.7432V74.3925V74.8599L24.7168 78.8691Z" fill="#474463"/>
<path opacity="0.1" d="M26.3422 59.5603C26.4877 59.8384 26.5987 60.1381 26.672 60.4509C26.9366 60.5661 27.2188 60.6195 27.5019 60.6078C27.785 60.5961 28.0631 60.5195 28.3197 60.3827C28.3876 59.93 28.5452 59.5008 28.7803 59.1277L26.3422 59.5603Z" fill="black"/>
<path d="M27.425 60.4856C28.5917 60.4856 29.5375 59.4087 29.5375 58.0802C29.5375 56.7517 28.5917 55.6747 27.425 55.6747C26.2583 55.6747 25.3125 56.7517 25.3125 58.0802C25.3125 59.4087 26.2583 60.4856 27.425 60.4856Z" fill="#DB8B8B"/>
<path opacity="0.1" d="M24.7168 74.8599H24.7391C27.0116 75.3908 29.8631 72.6953 29.8631 72.6953C29.7869 72.5482 29.7208 72.3945 29.6654 72.2358C29.5875 72.0963 29.5388 72.0171 29.5388 72.0171L24.7544 74.1817L24.7418 74.3972L24.7168 74.8599Z" fill="black"/>
<path d="M25.3194 62.3365C25.3194 62.3365 28.3532 60.2385 29.3287 61.1021L30.6828 63.0766C30.6828 63.0766 31.5497 63.384 31.3869 65.3584L32.0368 68.9365L30.0885 69.4928C30.0885 69.4928 28.9376 70.7256 29.8631 72.5178C29.8631 72.5178 26.9921 75.2323 24.714 74.6777L24.8755 71.7778C24.8755 71.7778 25.3639 70.1741 24.4969 68.6941C23.63 67.214 24.4427 65.7942 25.2554 65.238C25.2582 65.2285 25.6381 62.8911 25.3194 62.3365Z" fill="#FC6681"/>
<path d="M25.1496 74.9218C25.1496 74.9218 24.0126 75.1674 23.4699 76.1546C23.3141 76.4515 23.1236 76.7228 22.9035 76.9612C22.854 77.0125 22.8157 77.0762 22.7916 77.1473C22.7675 77.2185 22.7584 77.295 22.7648 77.3709C22.7713 77.4467 22.7933 77.5198 22.829 77.5843C22.8646 77.6488 22.913 77.703 22.9703 77.7424C23.4003 78.0356 24.1017 78.2178 24.9868 77.389C26.5037 75.9692 25.1496 74.9218 25.1496 74.9218Z" fill="#DB8B8B"/>
<path opacity="0.1" d="M26.8293 63.5076C26.8293 63.5076 27.9134 63.384 28.1834 66.5929C28.4534 69.8018 28.8876 70.5419 28.8876 70.5419C28.8876 70.5419 29.1589 72.2073 28.509 73.1945C27.8592 74.1818 26.6122 76.2782 26.6122 76.2782C26.6122 76.2782 25.2582 76.7108 24.9868 75.169L26.6665 71.5909C26.6665 71.5909 26.9379 70.358 26.288 69.4944C25.6381 68.6308 25.1496 62.8912 26.8293 63.5076Z" fill="black"/>
<path d="M26.7207 63.3269C26.7207 63.3269 27.8048 63.2033 28.0748 66.4106C28.3447 69.6179 28.7803 70.3595 28.7803 70.3595C28.7803 70.3595 29.0503 72.025 28.4004 73.0122C27.7505 73.9994 26.5036 76.0959 26.5036 76.0959C26.5036 76.0959 25.1495 76.5285 24.8782 74.9867L26.5579 71.4086C26.5579 71.4086 26.8292 70.1741 26.1793 69.3105C25.5295 68.4469 25.041 62.7057 26.7207 63.3269Z" fill="#FC6681"/>
<path opacity="0.1" d="M25.8273 65.6357C25.8273 65.6357 25.7188 67.5484 26.2059 68.5974C26.6929 69.6465 26.6943 71.0029 26.2059 71.7445" fill="black"/>
<path opacity="0.1" d="M25.5559 63.2921C25.5559 63.2921 25.9901 62.7992 27.2356 62.7374C28.4811 62.6756 29.0239 62.243 29.0239 62.243" fill="black"/>
<path opacity="0.1" d="M28.5703 54.9696C28.8987 55.0155 29.2758 55.1439 29.3941 55.4973C29.4254 55.6309 29.4505 55.7663 29.4693 55.9029C29.5917 56.4417 30.1247 56.6953 30.4531 57.1057C30.744 57.4686 30.8706 57.9614 30.9653 58.44C31.235 59.815 31.2995 61.2319 31.1559 62.6313C31.0502 63.655 30.8344 64.6628 30.7732 65.6897C30.712 66.7165 30.8233 67.7988 31.3173 68.6625C31.5289 69.0333 31.8086 69.3597 31.9589 69.7717C31.6486 70.0585 31.2199 70.0997 30.8205 70.1156C30.3567 70.1325 29.8928 70.1325 29.4289 70.1156C29.1833 70.1273 28.939 70.0696 28.7178 69.9476C28.5613 69.8342 28.4329 69.6771 28.3448 69.4912C28.079 68.9762 28.0108 68.3582 28.022 67.7592C28.0331 67.1602 28.1166 66.5676 28.1263 65.9702C28.1263 65.6437 28.1096 65.2983 27.9454 65.0321C27.8104 64.8541 27.6577 64.6946 27.4904 64.5567C26.9114 63.9719 26.7124 63.0322 26.6929 62.1512C26.6735 61.2701 26.8001 60.3859 26.7347 59.5064C26.7096 59.1626 26.5955 58.749 26.2991 58.6824C26.2056 58.6766 26.1125 58.6628 26.0208 58.6412C25.7814 58.5366 25.8051 58.1531 25.7425 57.8727C25.6659 57.5557 25.4307 57.3149 25.3639 56.9963C25.2081 56.25 26.0417 55.3594 26.5886 55.0948C27.1355 54.8301 27.983 54.8872 28.5703 54.9696Z" fill="black"/>
<path d="M28.6246 54.8459C28.953 54.8935 29.3288 55.0218 29.4484 55.3736C29.4799 55.5077 29.505 55.6437 29.5236 55.7809C29.646 56.3196 30.179 56.5732 30.5075 56.982C30.7983 57.3449 30.925 57.8377 31.0196 58.3163C31.2893 59.6913 31.3538 61.1082 31.2102 62.5077C31.1045 63.5313 30.8888 64.5392 30.8275 65.566C30.7663 66.5929 30.8776 67.6752 31.3717 68.5388C31.5832 68.9096 31.8629 69.236 32.0132 69.648C31.7029 69.9349 31.2743 69.9761 30.8749 69.9919C30.411 70.0088 29.9448 70.0088 29.4763 69.9919C29.2307 70.0036 28.9864 69.9459 28.7651 69.8239C28.609 69.7107 28.4807 69.5542 28.3922 69.3691C28.125 68.8526 28.0582 68.2345 28.0693 67.6356C28.0805 67.0366 28.164 66.4439 28.1737 65.8465C28.1737 65.5216 28.157 65.1746 27.9928 64.9084C27.8574 64.7308 27.7047 64.5713 27.5377 64.433C26.9588 63.8483 26.7584 62.9101 26.7389 62.0275C26.7194 61.1449 26.8475 60.2622 26.7821 59.3827C26.757 59.0389 26.6429 58.6253 26.3465 58.5587C26.2529 58.5529 26.1599 58.5391 26.0682 58.5175C25.8288 58.4129 25.8525 58.0295 25.7898 57.749C25.7133 57.432 25.4781 57.1912 25.4113 56.8727C25.2554 56.1279 26.089 55.2357 26.6359 54.9711C27.1829 54.7065 28.0373 54.7699 28.6246 54.8459Z" fill="#472727"/>
<path opacity="0.1" d="M133.755 110.286C135.6 110.286 137.095 110.052 137.095 109.763C137.095 109.474 135.6 109.24 133.755 109.24C131.911 109.24 130.416 109.474 130.416 109.763C130.416 110.052 131.911 110.286 133.755 110.286Z" fill="#6C63FF"/>
<path opacity="0.1" d="M120.961 111.765C122.805 111.765 124.301 111.53 124.301 111.242C124.301 110.953 122.805 110.719 120.961 110.719C119.116 110.719 117.621 110.953 117.621 111.242C117.621 111.53 119.116 111.765 120.961 111.765Z" fill="#6C63FF"/>
<path opacity="0.1" d="M105.891 109.765C107.735 109.765 109.231 109.531 109.231 109.242C109.231 108.953 107.735 108.719 105.891 108.719C104.046 108.719 102.551 108.953 102.551 109.242C102.551 109.531 104.046 109.765 105.891 109.765Z" fill="#6C63FF"/>
<path opacity="0.1" d="M126.082 115.818C127.393 115.818 128.456 115.652 128.456 115.447C128.456 115.243 127.393 115.077 126.082 115.077C124.771 115.077 123.708 115.243 123.708 115.447C123.708 115.652 124.771 115.818 126.082 115.818Z" fill="#6C63FF"/>
<path opacity="0.1" d="M112.803 115.446C114.114 115.446 115.177 115.28 115.177 115.075C115.177 114.87 114.114 114.704 112.803 114.704C111.492 114.704 110.429 114.87 110.429 115.075C110.429 115.28 111.492 115.446 112.803 115.446Z" fill="#6C63FF"/>
<path d="M120.89 111.123C120.89 111.123 125.574 93.638 120.156 86.6338C116.104 81.395 111.505 82.021 109.441 82.6722C108.908 82.8341 108.412 83.126 107.987 83.5277C107.563 83.9293 107.22 84.4312 106.983 84.9985C106.264 86.767 106.393 89.6399 111.478 92.9914C119.991 98.6026 120.524 106.302 120.524 106.302L120.89 111.123Z" fill="#6C63FF"/>
<path d="M110.177 85.149C110.177 85.149 123.986 90.0614 120.893 111.123" stroke="#565987" stroke-miterlimit="10"/>
<path d="M118.243 86.9127C118.243 86.9127 116.341 88.3706 116.946 90.5574" stroke="#565987" stroke-miterlimit="10"/>
<path d="M111.562 88.2058C111.562 88.2058 112.725 86.8589 114.139 87.6021" stroke="#565987" stroke-miterlimit="10"/>
<path d="M117.028 94.9817C117.028 94.9817 119.068 93.8028 119.596 95.2797" stroke="#565987" stroke-miterlimit="10"/>
<path d="M122.071 97.4411C122.071 97.4411 120.54 97.3017 120.511 98.1368" stroke="#565987" stroke-miterlimit="10"/>
<path d="M121.079 111.262C121.079 111.262 115.593 98.5535 114.086 98.8324C113.371 98.9639 113.041 99.7658 112.891 100.576C112.706 101.617 112.81 102.698 113.19 103.669C113.966 105.699 116.054 109.56 121.079 111.262Z" fill="#6C63FF"/>
<path d="M114.127 101.244C114.127 101.244 119.885 110.752 120.998 111.17" stroke="#565987" stroke-miterlimit="10"/>
<path d="M113.596 102.729H114.941" stroke="#565987" stroke-miterlimit="10"/>
<path d="M115.206 106.207L117.313 106.31" stroke="#565987" stroke-miterlimit="10"/>
<path d="M116.488 103.425L116.26 104.675" stroke="#565987" stroke-miterlimit="10"/>
<path d="M118.729 107.228L118.688 108.364" stroke="#565987" stroke-miterlimit="10"/>
<path d="M120.916 111.262C120.916 111.262 126.402 98.5535 127.909 98.8324C128.626 98.9639 128.956 99.7658 129.105 100.576C129.29 101.617 129.185 102.698 128.805 103.669C128.022 105.699 125.934 109.56 120.916 111.262Z" fill="#6C63FF"/>
<path d="M127.869 101.244C127.869 101.244 122.11 110.752 120.998 111.17" stroke="#565987" stroke-miterlimit="10"/>
<path d="M128.398 102.729H127.053" stroke="#565987" stroke-miterlimit="10"/>
<path d="M126.788 106.207L124.681 106.31" stroke="#565987" stroke-miterlimit="10"/>
<path d="M125.506 103.425L125.734 104.675" stroke="#565987" stroke-miterlimit="10"/>
<path d="M123.265 107.228L123.306 108.364" stroke="#565987" stroke-miterlimit="10"/>
<path d="M111.496 114.23C111.347 114.092 111.238 113.904 111.185 113.693C111.16 113.587 111.169 113.475 111.208 113.376C111.248 113.276 111.317 113.195 111.403 113.146C111.603 113.059 111.821 113.218 111.979 113.378C112.138 113.538 112.327 113.72 112.536 113.687C112.427 113.574 112.345 113.43 112.299 113.271C112.252 113.111 112.243 112.941 112.271 112.776C112.281 112.708 112.307 112.644 112.345 112.592C112.457 112.456 112.658 112.514 112.792 112.62C113.209 112.959 113.333 113.616 113.336 114.205C113.357 113.988 113.357 113.769 113.336 113.552C113.328 113.443 113.343 113.334 113.381 113.233C113.419 113.133 113.477 113.044 113.552 112.975C113.652 112.913 113.766 112.883 113.88 112.887C113.975 112.871 114.071 112.879 114.163 112.908C114.255 112.938 114.34 112.99 114.413 113.059C114.575 113.256 114.533 113.587 114.392 113.804C114.234 114.007 114.046 114.177 113.836 114.306C113.678 114.414 113.544 114.56 113.442 114.734C113.43 114.759 113.421 114.784 113.413 114.81H112.22C111.957 114.655 111.714 114.46 111.496 114.23Z" fill="#6C63FF"/>
<path d="M132.401 109.112C132.252 108.973 132.143 108.786 132.09 108.575C132.066 108.469 132.074 108.358 132.113 108.258C132.153 108.159 132.221 108.078 132.307 108.03C132.507 107.941 132.724 108.099 132.884 108.259C133.044 108.419 133.232 108.602 133.441 108.576C133.332 108.463 133.25 108.32 133.204 108.16C133.158 108.001 133.148 107.83 133.177 107.665C133.186 107.597 133.212 107.534 133.25 107.481C133.362 107.345 133.563 107.404 133.697 107.51C134.115 107.849 134.238 108.505 134.241 109.094C134.262 108.878 134.262 108.659 134.241 108.442C134.233 108.333 134.249 108.223 134.286 108.123C134.324 108.022 134.382 107.934 134.457 107.865C134.558 107.803 134.671 107.772 134.785 107.776C134.88 107.761 134.976 107.768 135.067 107.798C135.159 107.828 135.244 107.879 135.317 107.949C135.48 108.145 135.437 108.476 135.296 108.694C135.138 108.897 134.949 109.067 134.739 109.196C134.582 109.304 134.447 109.45 134.346 109.624C134.334 109.648 134.324 109.674 134.316 109.7H133.124C132.861 109.542 132.618 109.344 132.401 109.112Z" fill="#6C63FF"/>
<path d="M125.435 114.23C125.285 114.092 125.176 113.904 125.122 113.693C125.097 113.587 125.106 113.475 125.146 113.376C125.185 113.276 125.254 113.195 125.34 113.146C125.541 113.059 125.758 113.218 125.918 113.378C126.078 113.538 126.266 113.72 126.474 113.687C126.365 113.574 126.283 113.431 126.236 113.271C126.19 113.111 126.181 112.941 126.21 112.776C126.219 112.708 126.245 112.644 126.284 112.592C126.395 112.456 126.595 112.514 126.729 112.62C127.147 112.959 127.272 113.616 127.273 114.205C127.297 113.988 127.3 113.769 127.282 113.552C127.273 113.443 127.288 113.334 127.326 113.233C127.363 113.133 127.421 113.044 127.496 112.975C127.597 112.913 127.71 112.883 127.824 112.887C127.919 112.871 128.015 112.879 128.107 112.908C128.199 112.938 128.284 112.99 128.357 113.059C128.519 113.256 128.477 113.587 128.336 113.804C128.178 114.007 127.99 114.177 127.78 114.306C127.622 114.413 127.487 114.559 127.386 114.734C127.374 114.758 127.364 114.784 127.357 114.81H126.163C125.898 114.655 125.653 114.46 125.435 114.23Z" fill="#6C63FF"/>
<path d="M105.675 103.884C105.675 103.884 105.227 104.55 105.881 105.556C106.535 106.562 107.075 107.412 106.855 108.039C106.855 108.039 105.868 106.171 105.065 106.138C104.262 106.104 104.791 105.003 105.675 103.884Z" fill="#6C63FF"/>
<path opacity="0.1" d="M105.675 103.884C105.636 103.948 105.605 104.019 105.583 104.093C104.8 105.141 104.382 106.12 105.135 106.144C105.838 106.168 106.68 107.597 106.88 107.957C106.874 107.985 106.867 108.013 106.857 108.039C106.857 108.039 105.87 106.171 105.067 106.138C104.264 106.104 104.791 105.003 105.675 103.884Z" fill="black"/>
<path d="M104.843 104.734C104.843 104.968 104.867 105.158 104.894 105.158C104.922 105.158 104.946 104.968 104.946 104.734C104.946 104.499 104.918 104.61 104.889 104.61C104.86 104.61 104.843 104.499 104.843 104.734Z" fill="#FFD037"/>
<path d="M104.558 105.014C104.739 105.125 104.896 105.193 104.91 105.165C104.924 105.136 104.789 105.022 104.608 104.909C104.427 104.797 104.498 104.879 104.484 104.909C104.47 104.94 104.377 104.902 104.558 105.014Z" fill="#FFD037"/>
<path d="M108.039 103.884C108.039 103.884 108.486 104.55 107.832 105.556C107.178 106.562 106.639 107.412 106.858 108.039C106.858 108.039 107.845 106.171 108.649 106.138C109.453 106.104 108.923 105.003 108.039 103.884Z" fill="#6C63FF"/>
<path opacity="0.1" d="M108.039 103.884C108.078 103.949 108.109 104.019 108.13 104.093C108.915 105.141 109.332 106.12 108.578 106.144C107.882 106.168 107.035 107.597 106.833 107.957C106.833 107.985 106.848 108.012 106.856 108.039C106.856 108.039 107.843 106.171 108.647 106.138C109.452 106.104 108.923 105.003 108.039 103.884Z" fill="black"/>
<path d="M108.87 104.734C108.87 104.968 108.848 105.158 108.819 105.158C108.789 105.158 108.767 104.968 108.767 104.734C108.767 104.499 108.796 104.61 108.824 104.61C108.852 104.61 108.87 104.499 108.87 104.734Z" fill="#FFD037"/>
<path d="M109.157 105.014C108.976 105.125 108.817 105.193 108.805 105.165C108.792 105.136 108.926 105.022 109.107 104.909C109.288 104.797 109.217 104.879 109.231 104.909C109.245 104.94 109.338 104.902 109.157 105.014Z" fill="#FFD037"/>
<path d="M108.728 107.952C108.728 107.952 107.476 107.908 107.1 107.602C106.724 107.296 105.176 106.931 105.082 107.423C104.989 107.914 103.201 109.861 104.615 109.874C106.029 109.887 107.896 109.624 108.273 109.362C108.65 109.101 108.728 107.952 108.728 107.952Z" fill="#A8A8A8"/>
<path opacity="0.2" d="M104.588 109.703C106.002 109.716 107.871 109.453 108.248 109.191C108.533 108.993 108.649 108.28 108.686 107.95H108.728C108.728 107.95 108.649 109.099 108.273 109.361C107.897 109.622 106.027 109.885 104.615 109.873C104.207 109.873 104.065 109.703 104.073 109.459C104.13 109.608 104.285 109.7 104.588 109.703Z" fill="black"/>
<path opacity="0.1" d="M23.2807 112.703C25.9492 112.703 28.1125 112.339 28.1125 111.89C28.1125 111.441 25.9492 111.077 23.2807 111.077C20.6122 111.077 18.449 111.441 18.449 111.89C18.449 112.339 20.6122 112.703 23.2807 112.703Z" fill="#6C63FF"/>
<path opacity="0.1" d="M34.9801 120C37.6486 120 39.8118 119.636 39.8118 119.187C39.8118 118.738 37.6486 118.374 34.9801 118.374C32.3116 118.374 30.1483 118.738 30.1483 119.187C30.1483 119.636 32.3116 120 34.9801 120Z" fill="#6C63FF"/>
<path opacity="0.1" d="M86.5959 100.58C88.3628 100.58 89.7952 100.398 89.7952 100.173C89.7952 99.9481 88.3628 99.7657 86.5959 99.7657C84.8289 99.7657 83.3965 99.9481 83.3965 100.173C83.3965 100.398 84.8289 100.58 86.5959 100.58Z" fill="#6C63FF"/>
<path opacity="0.1" d="M71.6399 112.297C73.4069 112.297 74.8393 112.115 74.8393 111.89C74.8393 111.665 73.4069 111.483 71.6399 111.483C69.873 111.483 68.4406 111.665 68.4406 111.89C68.4406 112.115 69.873 112.297 71.6399 112.297Z" fill="#6C63FF"/>
<path opacity="0.1" d="M64.8975 119.594C66.6644 119.594 68.0968 119.412 68.0968 119.187C68.0968 118.962 66.6644 118.78 64.8975 118.78C63.1305 118.78 61.6981 118.962 61.6981 119.187C61.6981 119.412 63.1305 119.594 64.8975 119.594Z" fill="#6C63FF"/>
</g>
<defs>
<linearGradient id="paint0_linear" x1="27.5417" y1="99.0115" x2="27.5417" y2="54.2232" gradientUnits="userSpaceOnUse">
<stop stop-color="#808080" stop-opacity="0.25"/>
<stop offset="0.54" stop-color="#808080" stop-opacity="0.12"/>
<stop offset="1" stop-color="#808080" stop-opacity="0.1"/>
</linearGradient>
<clipPath id="clip0">
<rect width="150" height="120" fill="white"/>
</clipPath>
</defs>
</svg>
