<svg width="154" height="94" viewBox="0 0 154 94" fill="none" xmlns="http://www.w3.org/2000/svg">
<g clip-path="url(#clip0)">
<g opacity="0.1">
<path opacity="0.1" d="M67.3635 61.6625C68.2467 61.6625 68.9626 60.5715 68.9626 59.2256C68.9626 57.8797 68.2467 56.7887 67.3635 56.7887C66.4804 56.7887 65.7645 57.8797 65.7645 59.2256C65.7645 60.5715 66.4804 61.6625 67.3635 61.6625Z" fill="#3F3D56"/>
<path opacity="0.1" d="M68.6297 48.7991C68.8527 48.3458 68.9682 47.8315 68.9641 47.3091C68.9641 45.9631 68.2475 44.8722 67.3637 44.8722C66.4799 44.8722 65.759 45.9664 65.759 47.3124C65.755 47.8348 65.8704 48.349 66.0935 48.8024C65.8742 49.2572 65.7591 49.77 65.7591 50.2915C65.7591 50.813 65.8742 51.3258 66.0935 51.7806C65.8742 52.2355 65.7591 52.7483 65.7591 53.2698C65.7591 53.7913 65.8742 54.3041 66.0935 54.7589C65.87 55.2121 65.7546 55.7264 65.759 56.2489C65.759 57.5933 66.4756 58.6858 67.358 58.6858C68.2404 58.6858 68.9585 57.5933 68.9585 56.2489C68.9629 55.7264 68.8475 55.2121 68.624 54.7589C68.8433 54.3041 68.9584 53.7913 68.9584 53.2698C68.9584 52.7483 68.8433 52.2355 68.624 51.7806C68.8433 51.3258 68.9584 50.813 68.9584 50.2915C68.9584 49.77 68.8433 49.2572 68.624 48.8024L68.6297 48.7991Z" fill="#3F3D56"/>
<path opacity="0.1" d="M67.3635 46.7711C68.2467 46.7711 68.9626 45.68 68.9626 44.3341C68.9626 42.9883 68.2467 41.8972 67.3635 41.8972C66.4804 41.8972 65.7645 42.9883 65.7645 44.3341C65.7645 45.68 66.4804 46.7711 67.3635 46.7711Z" fill="#3F3D56"/>
<path opacity="0.1" d="M67.3635 43.7928C68.2467 43.7928 68.9626 42.7018 68.9626 41.3559C68.9626 40.01 68.2467 38.9189 67.3635 38.9189C66.4804 38.9189 65.7645 40.01 65.7645 41.3559C65.7645 42.7018 66.4804 43.7928 67.3635 43.7928Z" fill="#3F3D56"/>
<path opacity="0.1" d="M61.3779 20.9723C61.1588 20.649 60.9597 20.308 60.7821 19.9518L64.9834 19.1487L60.4393 19.188C60.0042 18.0833 59.7674 16.887 59.7432 15.6721C59.7191 14.4573 59.9081 13.2494 60.2988 12.1225L66.3955 15.8041L60.7751 10.9924C61.2976 9.92315 62.0045 8.99131 62.8514 8.25542C63.6982 7.51953 64.6667 6.99551 65.6959 6.7163C66.7251 6.43709 67.7929 6.40873 68.832 6.63299C69.8711 6.85726 70.8591 7.3293 71.7339 8.01946C72.6087 8.70961 73.3514 9.60295 73.9153 10.6433C74.4792 11.6837 74.8521 12.8486 75.0105 14.0648C75.169 15.281 75.1096 16.5222 74.836 17.7104C74.5625 18.8986 74.0808 20.008 73.4211 20.9691C73.7618 21.4728 74.0548 22.0179 74.2951 22.5948L68.839 25.9018L74.6548 23.6301C75.0635 25.0353 75.1646 26.537 74.949 27.9992C74.7333 29.4614 74.2077 30.8379 73.4197 32.0039C74.3086 33.3192 74.8616 34.899 75.0155 36.5629C75.1693 38.2267 74.9178 39.9074 74.2897 41.4127C73.6617 42.918 72.6823 44.1872 71.4637 45.0751C70.2451 45.9631 68.8365 46.434 67.3988 46.434C65.9611 46.434 64.5524 45.9631 63.3338 45.0751C62.1152 44.1872 61.1359 42.918 60.5078 41.4127C59.8798 39.9074 59.6283 38.2267 59.7821 36.5629C59.936 34.899 60.489 33.3192 61.3779 32.0039C60.3156 30.4322 59.738 28.4904 59.738 26.4906C59.738 24.4908 60.3156 22.549 61.3779 20.9772V20.9723Z" fill="#6C63FF"/>
<path opacity="0.1" d="M75.0597 26.4857C75.0625 28.486 74.4847 30.4288 73.42 31.999C74.3089 33.3143 74.8619 34.8941 75.0157 36.558C75.1696 38.2218 74.9181 39.9024 74.29 41.4077C73.6619 42.913 72.6826 44.1822 71.464 45.0702C70.2454 45.9582 68.8368 46.4291 67.3991 46.4291C65.9614 46.4291 64.5527 45.9582 63.3341 45.0702C62.1155 44.1822 61.1362 42.913 60.5081 41.4077C59.88 39.9024 59.6285 38.2218 59.7824 36.558C59.9363 34.8941 60.4893 33.3143 61.3782 31.999C60.351 30.4813 75.0597 25.4847 75.0597 26.4857Z" fill="black"/>
</g>
<g opacity="0.1">
<path opacity="0.1" d="M86.0321 55.8351C86.6925 55.8351 87.2278 55.0201 87.2278 54.0148C87.2278 53.0094 86.6925 52.1945 86.0321 52.1945C85.3717 52.1945 84.8363 53.0094 84.8363 54.0148C84.8363 55.0201 85.3717 55.8351 86.0321 55.8351Z" fill="#3F3D56"/>
<path opacity="0.1" d="M86.9762 46.2248C87.1424 45.8863 87.2283 45.5025 87.2249 45.1126C87.2249 44.1068 86.6896 43.2906 86.0306 43.2906C85.3716 43.2906 84.8348 44.1084 84.8348 45.1126C84.8312 45.5027 84.9176 45.8868 85.0849 46.2248C84.921 46.5647 84.8349 46.9479 84.8349 47.3378C84.8349 47.7276 84.921 48.1108 85.0849 48.4507C84.921 48.7906 84.8349 49.1739 84.8349 49.5637C84.8349 49.9535 84.921 50.3368 85.0849 50.6767C84.9176 51.0147 84.8312 51.3987 84.8348 51.7888C84.8348 52.7947 85.3702 53.6108 86.0306 53.6108C86.691 53.6108 87.2249 52.793 87.2249 51.7888C87.2283 51.399 87.1424 51.0151 86.9762 50.6767C87.1389 50.3363 87.2242 49.9532 87.2242 49.5637C87.2242 49.1742 87.1389 48.7911 86.9762 48.4507C87.1389 48.1103 87.2242 47.7273 87.2242 47.3378C87.2242 46.9482 87.1389 46.5652 86.9762 46.2248Z" fill="#3F3D56"/>
<path opacity="0.1" d="M86.0321 44.7071C86.6925 44.7071 87.2278 43.8921 87.2278 42.8867C87.2278 41.8814 86.6925 41.0664 86.0321 41.0664C85.3717 41.0664 84.8363 41.8814 84.8363 42.8867C84.8363 43.8921 85.3717 44.7071 86.0321 44.7071Z" fill="#3F3D56"/>
<path opacity="0.1" d="M86.0321 42.4811C86.6925 42.4811 87.2278 41.6661 87.2278 40.6608C87.2278 39.6554 86.6925 38.8405 86.0321 38.8405C85.3717 38.8405 84.8363 39.6554 84.8363 40.6608C84.8363 41.6661 85.3717 42.4811 86.0321 42.4811Z" fill="#3F3D56"/>
<path opacity="0.1" d="M81.5582 25.4291C81.3942 25.1879 81.2453 24.9332 81.1128 24.667L84.2532 24.0667L80.8571 24.0962C80.5313 23.2708 80.3535 22.3768 80.3347 21.4688C80.3158 20.5607 80.4563 19.6578 80.7475 18.8151L85.3043 21.5676L81.1016 17.9695C81.4946 17.176 82.024 16.4853 82.6566 15.9405C83.2892 15.3957 84.0115 15.0086 84.7783 14.8032C85.5452 14.5978 86.3402 14.5787 87.1138 14.7469C87.8873 14.9152 88.6227 15.2672 89.2742 15.781C89.9256 16.2949 90.4791 16.9595 90.9 17.7334C91.3209 18.5073 91.6002 19.3739 91.7206 20.2791C91.8409 21.1843 91.7996 22.1087 91.5994 22.9945C91.3991 23.8803 91.0441 24.7085 90.5566 25.4275C90.8109 25.8043 91.0299 26.2117 91.21 26.6427L87.1351 29.1074L91.4811 27.4097C91.7864 28.4599 91.8619 29.582 91.7007 30.6746C91.5395 31.7672 91.1467 32.7958 90.558 33.6672C91.2231 34.6498 91.6372 35.8304 91.7528 37.0741C91.8685 38.3178 91.681 39.5742 91.2119 40.6996C90.7427 41.8251 90.0109 42.7741 89.1001 43.4381C88.1893 44.102 87.1363 44.4542 86.0616 44.4542C84.9869 44.4542 83.9339 44.102 83.0231 43.4381C82.1123 42.7741 81.3805 41.8251 80.9114 40.6996C80.4423 39.5742 80.2548 38.3178 80.3704 37.0741C80.4861 35.8304 80.9001 34.6498 81.5653 33.6672C80.7714 32.4928 80.3398 31.0417 80.3398 29.5474C80.3398 28.053 80.7714 26.602 81.5653 25.4275L81.5582 25.4291Z" fill="#6C63FF"/>
<path opacity="0.1" d="M91.7818 29.549C91.7837 31.0437 91.352 32.4954 90.5566 33.6689C91.2217 34.6514 91.6358 35.8321 91.7514 37.0758C91.8671 38.3194 91.6796 39.5758 91.2105 40.7013C90.7413 41.8267 90.0095 42.7757 89.0987 43.4397C88.1879 44.1037 87.1349 44.4558 86.0602 44.4558C84.9855 44.4558 83.9326 44.1037 83.0218 43.4397C82.111 42.7757 81.3791 41.8267 80.91 40.7013C80.4409 39.5758 80.2534 38.3194 80.3691 37.0758C80.4847 35.8321 80.8988 34.6514 81.5639 33.6689C80.7939 32.5355 91.7818 28.8016 91.7818 29.549Z" fill="black"/>
</g>
<g opacity="0.1">
<path opacity="0.1" d="M145.932 55.1203C146.815 55.1203 147.531 54.0293 147.531 52.6834C147.531 51.3375 146.815 50.2465 145.932 50.2465C145.049 50.2465 144.333 51.3375 144.333 52.6834C144.333 54.0293 145.049 55.1203 145.932 55.1203Z" fill="#3F3D56"/>
<path opacity="0.1" d="M144.666 42.257C144.443 41.8037 144.327 41.2894 144.331 40.767C144.331 39.421 145.048 38.3301 145.932 38.3301C146.816 38.3301 147.531 39.421 147.531 40.767C147.535 41.2894 147.419 41.8037 147.196 42.257C147.416 42.7118 147.531 43.2246 147.531 43.7461C147.531 44.2676 147.416 44.7804 147.196 45.2353C147.416 45.6901 147.531 46.2029 147.531 46.7244C147.531 47.2459 147.416 47.7587 147.196 48.2135C147.42 48.6667 147.535 49.1811 147.531 49.7035C147.531 51.0479 146.814 52.1404 145.932 52.1404C145.049 52.1404 144.331 51.0479 144.331 49.7035C144.327 49.1811 144.442 48.6667 144.666 48.2135C144.447 47.7587 144.332 47.2459 144.332 46.7244C144.332 46.2029 144.447 45.6901 144.666 45.2353C144.447 44.7804 144.332 44.2676 144.332 43.7461C144.332 43.2246 144.447 42.7118 144.666 42.257Z" fill="#3F3D56"/>
<path opacity="0.1" d="M145.932 40.229C146.815 40.229 147.531 39.1379 147.531 37.792C147.531 36.4462 146.815 35.3551 145.932 35.3551C145.049 35.3551 144.333 36.4462 144.333 37.792C144.333 39.1379 145.049 40.229 145.932 40.229Z" fill="#3F3D56"/>
<path opacity="0.1" d="M145.932 37.2507C146.815 37.2507 147.531 36.1596 147.531 34.8138C147.531 33.4679 146.815 32.3768 145.932 32.3768C145.049 32.3768 144.333 33.4679 144.333 34.8138C144.333 36.1596 145.049 37.2507 145.932 37.2507Z" fill="#3F3D56"/>
<path opacity="0.1" d="M151.918 14.4302C152.137 14.1069 152.336 13.7659 152.513 13.4097L148.312 12.6066L152.856 12.6459C153.291 11.5412 153.528 10.3449 153.552 9.13C153.576 7.91514 153.387 6.70731 152.997 5.58041L146.9 9.26197L152.52 4.45026C151.998 3.38104 151.291 2.44919 150.444 1.7133C149.597 0.977416 148.629 0.453396 147.6 0.174186C146.57 -0.105025 145.503 -0.133388 144.464 0.0908775C143.424 0.315143 142.436 0.787189 141.562 1.47734C140.687 2.1675 139.944 3.06083 139.38 4.1012C138.816 5.14156 138.443 6.30646 138.285 7.52266C138.127 8.73886 138.186 9.98006 138.459 11.1683C138.733 12.3564 139.215 13.4659 139.874 14.4269C139.534 14.9307 139.241 15.4758 139 16.0527L144.456 19.3597L138.641 17.0879C138.232 18.4932 138.131 19.9949 138.347 21.4571C138.562 22.9193 139.088 24.2957 139.876 25.4618C138.987 26.7771 138.434 28.3569 138.28 30.0207C138.126 31.6846 138.378 33.3652 139.006 34.8705C139.634 36.3758 140.613 37.645 141.832 38.533C143.05 39.421 144.459 39.8919 145.897 39.8919C147.334 39.8919 148.743 39.421 149.962 38.533C151.18 37.645 152.16 36.3758 152.788 34.8705C153.416 33.3652 153.667 31.6846 153.513 30.0207C153.36 28.3569 152.807 26.7771 151.918 25.4618C152.98 23.8901 153.557 21.9483 153.557 19.9485C153.557 17.9486 152.98 16.0069 151.918 14.4351V14.4302Z" fill="#6C63FF"/>
<path opacity="0.1" d="M138.237 19.9436C138.234 21.9439 138.812 23.8867 139.876 25.4569C138.988 26.7721 138.435 28.352 138.281 30.0158C138.127 31.6797 138.378 33.3603 139.006 34.8656C139.634 36.3709 140.614 37.6401 141.832 38.5281C143.051 39.4161 144.46 39.887 145.897 39.887C147.335 39.887 148.744 39.4161 149.962 38.5281C151.181 37.6401 152.16 36.3709 152.788 34.8656C153.416 33.3603 153.668 31.6797 153.514 30.0158C153.36 28.352 152.807 26.7721 151.918 25.4569C152.945 23.9391 138.237 18.9426 138.237 19.9436Z" fill="black"/>
</g>
<g opacity="0.1">
<path opacity="0.1" d="M130.495 54.8538C131.156 54.8538 131.691 54.0388 131.691 53.0335C131.691 52.0281 131.156 51.2131 130.495 51.2131C129.835 51.2131 129.3 52.0281 129.3 53.0335C129.3 54.0388 129.835 54.8538 130.495 54.8538Z" fill="#3F3D56"/>
<path opacity="0.1" d="M129.551 45.2435C129.385 44.905 129.299 44.5211 129.302 44.1313C129.302 43.1254 129.838 42.3093 130.497 42.3093C131.156 42.3093 131.692 43.1271 131.692 44.1313C131.696 44.5214 131.61 44.9055 131.442 45.2435C131.606 45.5834 131.692 45.9666 131.692 46.3564C131.692 46.7462 131.606 47.1295 131.442 47.4694C131.606 47.8093 131.692 48.1926 131.692 48.5824C131.692 48.9722 131.606 49.3554 131.442 49.6953C131.61 50.0333 131.696 50.4174 131.692 50.8075C131.692 51.8133 131.157 52.6295 130.497 52.6295C129.836 52.6295 129.302 51.8117 129.302 50.8075C129.299 50.4177 129.385 50.0338 129.551 49.6953C129.388 49.3549 129.303 48.9719 129.303 48.5824C129.303 48.1929 129.388 47.8098 129.551 47.4694C129.388 47.129 129.303 46.7459 129.303 46.3564C129.303 45.9669 129.388 45.5839 129.551 45.2435Z" fill="#3F3D56"/>
<path opacity="0.1" d="M130.495 43.7256C131.156 43.7256 131.691 42.9106 131.691 41.9053C131.691 40.9 131.156 40.085 130.495 40.085C129.835 40.085 129.3 40.9 129.3 41.9053C129.3 42.9106 129.835 43.7256 130.495 43.7256Z" fill="#3F3D56"/>
<path opacity="0.1" d="M130.495 41.4997C131.156 41.4997 131.691 40.6847 131.691 39.6793C131.691 38.674 131.156 37.859 130.495 37.859C129.835 37.859 129.3 38.674 129.3 39.6793C129.3 40.6847 129.835 41.4997 130.495 41.4997Z" fill="#3F3D56"/>
<path opacity="0.1" d="M134.969 24.4478C135.133 24.2066 135.282 23.9519 135.415 23.6856L132.274 23.0854L135.67 23.1148C135.996 22.2895 136.174 21.3955 136.193 20.4874C136.212 19.5794 136.071 18.6764 135.78 17.8337L131.223 20.5863L135.426 16.9882C135.033 16.1946 134.503 15.5039 133.871 14.9592C133.238 14.4144 132.516 14.0272 131.749 13.8219C130.982 13.6165 130.187 13.5974 129.414 13.7656C128.64 13.9339 127.905 14.2859 127.253 14.7997C126.602 15.3136 126.048 15.9782 125.627 16.7521C125.207 17.526 124.927 18.3926 124.807 19.2978C124.687 20.203 124.728 21.1273 124.928 22.0131C125.128 22.8989 125.483 23.7272 125.971 24.4462C125.717 24.823 125.497 25.2304 125.317 25.6613L129.392 28.1261L125.055 26.43C124.749 27.4802 124.674 28.6023 124.835 29.6949C124.996 30.7875 125.389 31.8161 125.978 32.6875C125.313 33.6701 124.899 34.8508 124.783 36.0944C124.667 37.3381 124.855 38.5945 125.324 39.7199C125.793 40.8454 126.525 41.7944 127.436 42.4584C128.347 43.1223 129.4 43.4745 130.474 43.4745C131.549 43.4745 132.602 43.1223 133.513 42.4584C134.423 41.7944 135.155 40.8454 135.624 39.7199C136.094 38.5945 136.281 37.3381 136.165 36.0944C136.05 34.8508 135.636 33.6701 134.971 32.6875C135.764 31.5131 136.196 30.0621 136.196 28.5677C136.196 27.0733 135.764 25.6223 134.971 24.4478H134.969Z" fill="#6C63FF"/>
<path opacity="0.1" d="M124.745 28.5677C124.744 30.0624 125.175 31.5141 125.971 32.6876C125.306 33.6701 124.892 34.8508 124.776 36.0944C124.66 37.3381 124.848 38.5945 125.317 39.72C125.786 40.8454 126.518 41.7944 127.429 42.4584C128.339 43.1224 129.392 43.4745 130.467 43.4745C131.542 43.4745 132.595 43.1224 133.506 42.4584C134.416 41.7944 135.148 40.8454 135.617 39.72C136.086 38.5945 136.274 37.3381 136.158 36.0944C136.043 34.8508 135.629 33.6701 134.963 32.6876C135.733 31.5541 124.745 27.8202 124.745 28.5677Z" fill="black"/>
</g>
<g opacity="0.1">
<path opacity="0.1" d="M8.65407 55.1203C9.53718 55.1203 10.2531 54.0293 10.2531 52.6834C10.2531 51.3375 9.53718 50.2465 8.65407 50.2465C7.77096 50.2465 7.05505 51.3375 7.05505 52.6834C7.05505 54.0293 7.77096 55.1203 8.65407 55.1203Z" fill="#3F3D56"/>
<path opacity="0.1" d="M9.91882 42.257C10.1419 41.8036 10.2573 41.2894 10.2532 40.767C10.2532 39.421 9.53663 38.3301 8.65422 38.3301C7.77181 38.3301 7.05521 39.421 7.05521 40.767C7.0507 41.2893 7.16564 41.8035 7.38822 42.257C7.16979 42.7121 7.05511 43.2248 7.05511 43.7461C7.05511 44.2675 7.16979 44.7801 7.38822 45.2353C7.16979 45.6904 7.05511 46.2031 7.05511 46.7244C7.05511 47.2457 7.16979 47.7584 7.38822 48.2135C7.16519 48.6668 7.05023 49.1812 7.05521 49.7035C7.05521 51.0479 7.77041 52.1404 8.65422 52.1404C9.53804 52.1404 10.2575 51.0512 10.2575 49.7068C10.2619 49.1843 10.1465 48.6699 9.92304 48.2168C10.1422 47.762 10.2574 47.2492 10.2574 46.7277C10.2574 46.2061 10.1422 45.6934 9.92304 45.2385C10.1422 44.7837 10.2574 44.2709 10.2574 43.7494C10.2574 43.2279 10.1422 42.7151 9.92304 42.2602L9.91882 42.257Z" fill="#3F3D56"/>
<path opacity="0.1" d="M8.65407 40.229C9.53718 40.229 10.2531 39.1379 10.2531 37.792C10.2531 36.4462 9.53718 35.3551 8.65407 35.3551C7.77096 35.3551 7.05505 36.4462 7.05505 37.792C7.05505 39.1379 7.77096 40.229 8.65407 40.229Z" fill="#3F3D56"/>
<path opacity="0.1" d="M8.65407 37.2507C9.53718 37.2507 10.2531 36.1596 10.2531 34.8138C10.2531 33.4679 9.53718 32.3768 8.65407 32.3768C7.77096 32.3768 7.05505 33.4679 7.05505 34.8138C7.05505 36.1596 7.77096 37.2507 8.65407 37.2507Z" fill="#3F3D56"/>
<path opacity="0.1" d="M2.66976 14.4302C2.4511 14.1065 2.25203 13.7655 2.074 13.4097L6.27668 12.6066L1.72834 12.654C1.2933 11.5494 1.05645 10.353 1.03229 9.13817C1.00813 7.92331 1.19716 6.71548 1.58783 5.58858L7.68601 9.27014L2.06557 4.45844C2.58941 3.3924 3.2968 2.4638 4.14339 1.73086C4.98997 0.997921 5.9575 0.476436 6.98534 0.199097C8.01317 -0.0782423 9.07914 -0.105458 10.1164 0.119158C11.1537 0.343773 12.14 0.815376 13.0133 1.50441C13.8867 2.19343 14.6284 3.08503 15.1919 4.12331C15.7554 5.1616 16.1286 6.32417 16.288 7.53817C16.4474 8.75217 16.3897 9.99142 16.1184 11.1782C15.8472 12.3651 15.3682 13.4739 14.7116 14.4351C15.0522 14.9389 15.3452 15.4839 15.5855 16.0608L10.1281 19.3597L15.9452 17.0879C16.353 18.4934 16.4535 19.995 16.2376 21.4571C16.0217 22.9191 15.4963 24.2955 14.7087 25.4618C15.5977 26.7771 16.1507 28.3569 16.3045 30.0208C16.4584 31.6846 16.2069 33.3652 15.5788 34.8705C14.9507 36.3758 13.9714 37.645 12.7528 38.533C11.5342 39.421 10.1255 39.8919 8.68785 39.8919C7.25016 39.8919 5.84149 39.421 4.6229 38.533C3.4043 37.645 2.42498 36.3758 1.7969 34.8705C1.16881 33.3652 0.917327 31.6846 1.07119 30.0208C1.22505 28.3569 1.77805 26.7771 2.66695 25.4618C1.60465 23.8901 1.0271 21.9483 1.0271 19.9485C1.0271 17.9486 1.60465 16.0069 2.66695 14.4351L2.66976 14.4302Z" fill="#6C63FF"/>
<path opacity="0.1" d="M16.3487 19.9436C16.3514 21.9439 15.7736 23.8867 14.7089 25.4569C15.5978 26.7721 16.1508 28.352 16.3047 30.0158C16.4585 31.6797 16.207 33.3603 15.579 34.8656C14.9509 36.3709 13.9715 37.6401 12.753 38.5281C11.5344 39.4161 10.1257 39.887 8.688 39.887C7.25032 39.887 5.84164 39.4161 4.62305 38.5281C3.40446 37.6401 2.42514 36.3709 1.79705 34.8656C1.16897 33.3603 0.917483 31.6797 1.07134 30.0158C1.2252 28.352 1.7782 26.7721 2.66711 25.4569C1.63998 23.9391 16.3487 18.9426 16.3487 19.9436Z" fill="black"/>
</g>
<g opacity="0.1">
<path opacity="0.1" d="M24.0892 54.8538C24.7496 54.8538 25.2849 54.0388 25.2849 53.0335C25.2849 52.0281 24.7496 51.2131 24.0892 51.2131C23.4288 51.2131 22.8934 52.0281 22.8934 53.0335C22.8934 54.0388 23.4288 54.8538 24.0892 54.8538Z" fill="#3F3D56"/>
<path opacity="0.1" d="M25.0348 45.2435C25.201 44.905 25.2868 44.5211 25.2835 44.1313C25.2835 43.1254 24.7495 42.3093 24.0891 42.3093C23.4287 42.3093 22.8934 43.1271 22.8934 44.1313C22.8904 44.5213 22.9768 44.9052 23.1435 45.2435C22.9795 45.5834 22.8934 45.9666 22.8934 46.3564C22.8934 46.7462 22.9795 47.1295 23.1435 47.4694C22.9795 47.8093 22.8934 48.1926 22.8934 48.5824C22.8934 48.9722 22.9795 49.3554 23.1435 49.6953C22.9768 50.0336 22.8904 50.4175 22.8934 50.8075C22.8934 51.8133 23.4287 52.6295 24.0891 52.6295C24.7495 52.6295 25.2835 51.8117 25.2835 50.8075C25.2868 50.4177 25.201 50.0338 25.0348 49.6953C25.1974 49.3549 25.2828 48.9719 25.2828 48.5824C25.2828 48.1929 25.1974 47.8098 25.0348 47.4694C25.1974 47.129 25.2828 46.7459 25.2828 46.3564C25.2828 45.9669 25.1974 45.5839 25.0348 45.2435Z" fill="#3F3D56"/>
<path opacity="0.1" d="M24.0892 43.7256C24.7496 43.7256 25.2849 42.9106 25.2849 41.9053C25.2849 40.9 24.7496 40.085 24.0892 40.085C23.4288 40.085 22.8934 40.9 22.8934 41.9053C22.8934 42.9106 23.4288 43.7256 24.0892 43.7256Z" fill="#3F3D56"/>
<path opacity="0.1" d="M24.0892 41.4997C24.7496 41.4997 25.2849 40.6847 25.2849 39.6793C25.2849 38.674 24.7496 37.859 24.0892 37.859C23.4288 37.859 22.8934 38.674 22.8934 39.6793C22.8934 40.6847 23.4288 41.4997 24.0892 41.4997Z" fill="#3F3D56"/>
<path opacity="0.1" d="M19.6152 24.4478C19.4516 24.2062 19.3028 23.9515 19.1698 23.6856L22.3102 23.0854L18.9141 23.1148C18.5883 22.2895 18.4105 21.3955 18.3917 20.4874C18.3728 19.5794 18.5133 18.6764 18.8045 17.8337L23.3613 20.5863L19.1586 16.9882C19.5516 16.1946 20.0809 15.5039 20.7136 14.9592C21.3462 14.4144 22.0684 14.0272 22.8353 13.8219C23.6022 13.6165 24.3972 13.5974 25.1708 13.7656C25.9443 13.9339 26.6797 14.2859 27.3312 14.7997C27.9826 15.3136 28.536 15.9782 28.9569 16.7521C29.3778 17.526 29.6572 18.3926 29.7775 19.2978C29.8979 20.203 29.8566 21.1273 29.6563 22.0131C29.4561 22.8989 29.1011 23.7272 28.6136 24.4461C28.8688 24.8222 29.0879 25.2297 29.2669 25.6613L25.1921 28.1261L29.5381 26.4284C29.8434 27.4785 29.9188 28.6007 29.7576 29.6933C29.5964 30.7859 29.2037 31.8145 28.615 32.6859C29.2801 33.6685 29.6942 34.8491 29.8098 36.0928C29.9254 37.3364 29.738 38.5929 29.2688 39.7183C28.7997 40.8437 28.0679 41.7927 27.1571 42.4567C26.2463 43.1207 25.1933 43.4728 24.1186 43.4728C23.0439 43.4728 21.9909 43.1207 21.0801 42.4567C20.1693 41.7927 19.4375 40.8437 18.9684 39.7183C18.4993 38.5929 18.3118 37.3364 18.4274 36.0928C18.5431 34.8491 18.9571 33.6685 19.6223 32.6859C18.8284 31.5114 18.3968 30.0604 18.3968 28.566C18.3968 27.0716 18.8284 25.6206 19.6223 24.4461L19.6152 24.4478Z" fill="#6C63FF"/>
<path opacity="0.1" d="M29.8387 28.5677C29.8406 30.0624 29.4089 31.5141 28.6135 32.6876C29.2786 33.6701 29.6927 34.8508 29.8083 36.0944C29.9239 37.3381 29.7365 38.5945 29.2673 39.72C28.7982 40.8454 28.0664 41.7944 27.1556 42.4584C26.2448 43.1224 25.1918 43.4745 24.1171 43.4745C23.0424 43.4745 21.9894 43.1224 21.0786 42.4584C20.1678 41.7944 19.436 40.8454 18.9669 39.72C18.4978 38.5945 18.3103 37.3381 18.4259 36.0944C18.5416 34.8508 18.9556 33.6701 19.6208 32.6876C18.848 31.5541 29.8387 27.8202 29.8387 28.5677Z" fill="black"/>
</g>
<path opacity="0.1" d="M77 82.1016C119.526 82.1016 154 81.4529 154 80.6526C154 79.8523 119.526 79.2035 77 79.2035C34.4741 79.2035 0 79.8523 0 80.6526C0 81.4529 34.4741 82.1016 77 82.1016Z" fill="#6C63FF"/>
<path opacity="0.1" d="M77 94.0001C119.526 94.0001 154 93.3513 154 92.551C154 91.7507 119.526 91.1019 77 91.1019C34.4741 91.1019 0 91.7507 0 92.551C0 93.3513 34.4741 94.0001 77 94.0001Z" fill="#6C63FF"/>
<path opacity="0.1" d="M77 57.2695C119.526 57.2695 154 56.6207 154 55.8204C154 55.0201 119.526 54.3713 77 54.3713C34.4741 54.3713 0 55.0201 0 55.8204C0 56.6207 34.4741 57.2695 77 57.2695Z" fill="#6C63FF"/>
<path opacity="0.1" d="M77 69.6848C119.526 69.6848 154 69.036 154 68.2357C154 67.4354 119.526 66.7866 77 66.7866C34.4741 66.7866 0 67.4354 0 68.2357C0 69.036 34.4741 69.6848 77 69.6848Z" fill="#6C63FF"/>
<path opacity="0.1" d="M113.644 18.0513C113.142 17.941 112.624 18.0071 112.154 18.241C111.873 18.3871 111.568 18.4626 111.259 18.4626C110.951 18.4626 110.646 18.3871 110.364 18.241C110.031 18.0707 109.67 17.9868 109.306 17.9949C108.942 18.0031 108.584 18.1033 108.257 18.2884C108.07 18.4038 107.862 18.4644 107.651 18.4651C106.797 18.4651 106.087 17.4641 105.94 16.1443C106.108 15.9984 106.251 15.8169 106.361 15.6094C106.861 14.6706 107.636 14.0671 108.507 14.0671C109.378 14.0671 110.142 14.6625 110.642 15.5914C110.791 15.8721 111 16.1031 111.249 16.2619C111.497 16.4207 111.777 16.5019 112.06 16.4975H112.083C112.77 16.4893 113.359 17.1239 113.644 18.0513Z" fill="#6C63FF"/>
<path opacity="0.1" d="M116.245 13.9052L114.865 14.9225L115.708 13.1496C115.471 12.9296 115.177 12.8081 114.873 12.8045H114.851C114.757 12.806 114.663 12.7978 114.57 12.7799L114.095 13.125L114.296 12.6998C113.964 12.566 113.677 12.3129 113.477 11.9769L112.634 12.5951L113.162 11.4764C112.673 10.7928 112.013 10.3741 111.288 10.3741C110.416 10.3741 109.642 10.976 109.141 11.9147C108.993 12.1955 108.784 12.4256 108.535 12.5819C108.286 12.7382 108.006 12.8149 107.723 12.8045H107.676C106.715 12.8045 105.937 14.072 105.937 15.6356C105.937 17.1991 106.715 18.4683 107.676 18.4683C107.888 18.4666 108.095 18.4061 108.282 18.2917C108.609 18.106 108.967 18.0055 109.331 17.997C109.695 17.9886 110.056 18.0723 110.39 18.2426C110.671 18.3897 110.976 18.4658 111.285 18.4658C111.593 18.4658 111.898 18.3897 112.18 18.2426C112.51 18.0762 112.868 17.9943 113.228 18.0025C113.588 18.0106 113.943 18.1087 114.268 18.29C114.453 18.4026 114.658 18.462 114.866 18.4634C115.827 18.4634 116.606 17.1942 116.606 15.6307C116.612 15.0294 116.487 14.436 116.245 13.9052Z" fill="#6C63FF"/>
<path opacity="0.1" d="M54.9763 17.1664C54.6247 17.0891 54.2613 17.1352 53.9323 17.2989C53.7353 17.4013 53.5221 17.4543 53.3063 17.4543C53.0906 17.4543 52.8773 17.4013 52.6804 17.2989C52.4473 17.1797 52.1947 17.1211 51.9401 17.127C51.6856 17.133 51.4352 17.2033 51.2064 17.3332C51.0762 17.4123 50.9317 17.4543 50.7849 17.4559C50.1877 17.4559 49.6903 16.7559 49.5863 15.8318C49.7055 15.7301 49.8071 15.6031 49.8856 15.4573C50.2355 14.8031 50.7778 14.3779 51.3877 14.3779C51.9975 14.3779 52.5328 14.7949 52.8827 15.4442C52.9872 15.6408 53.1336 15.8025 53.3076 15.9137C53.4817 16.0249 53.6775 16.0818 53.8761 16.0788H53.8916C54.3637 16.0755 54.7754 16.5204 54.9763 17.1664Z" fill="#6C63FF"/>
<path opacity="0.1" d="M56.7959 14.2667L55.8306 14.9798L56.4165 13.7384C56.2509 13.5841 56.0456 13.4988 55.8334 13.4963H55.8166C55.7497 13.4977 55.6829 13.4917 55.617 13.4783L55.2896 13.7204L55.4302 13.4227C55.1981 13.3288 54.9975 13.1519 54.8569 12.9174L54.2709 13.3491L54.6419 12.5674C54.4861 12.3332 54.2875 12.1423 54.0606 12.0085C53.8336 11.8747 53.5839 11.8014 53.3295 11.7938C52.7197 11.7938 52.1773 12.2157 51.8275 12.8732C51.7238 13.0698 51.5773 13.231 51.4028 13.3404C51.2283 13.4498 51.0321 13.5036 50.834 13.4963H50.8017C50.1287 13.4963 49.5835 14.3828 49.5835 15.4786C49.5835 16.5744 50.1287 17.4608 50.8017 17.4608C50.9488 17.4595 51.0934 17.4169 51.2233 17.3365C51.452 17.2073 51.7022 17.1375 51.9565 17.1319C52.2107 17.1262 52.463 17.1849 52.6958 17.3038C52.894 17.409 53.1089 17.4647 53.3267 17.4674C53.5411 17.4669 53.7531 17.4146 53.9492 17.3136C54.1806 17.1971 54.4308 17.1397 54.6829 17.1453C54.935 17.151 55.1831 17.2195 55.4105 17.3464C55.5406 17.4257 55.6852 17.4672 55.832 17.4674C56.5037 17.4674 57.0488 16.5793 57.0488 15.4851C57.0545 15.0606 56.9675 14.6413 56.7959 14.2667Z" fill="#6C63FF"/>
<path opacity="0.1" d="M37.8804 29.9906C38.2315 29.9134 38.5944 29.9595 38.923 30.1231C39.1202 30.2255 39.3337 30.2785 39.5496 30.2785C39.7656 30.2785 39.9791 30.2255 40.1763 30.1231C40.4094 30.0041 40.6619 29.9454 40.9164 29.951C41.1709 29.9567 41.4213 30.0265 41.6503 30.1558C41.7801 30.2363 41.9247 30.2789 42.0718 30.2801C42.669 30.2801 43.1664 29.5784 43.269 28.6544C43.1499 28.553 43.0487 28.4258 42.9711 28.2798C42.6198 27.6256 42.0774 27.202 41.469 27.202C40.8606 27.202 40.3239 27.6174 39.9726 28.2684C39.8682 28.4647 39.7221 28.6263 39.5482 28.7375C39.3744 28.8486 39.1789 28.9057 38.9806 28.903H38.9651C38.4916 28.9062 38.0785 29.3495 37.8804 29.9906Z" fill="#6C63FF"/>
<path opacity="0.1" d="M36.0594 27.0957L37.0261 27.8088L36.4387 26.569C36.6048 26.4142 36.8105 26.3284 37.0233 26.3253H37.0387C37.106 26.3265 37.1732 26.321 37.2397 26.309L37.567 26.5494L37.4265 26.2534C37.6581 26.1592 37.8583 25.9823 37.9984 25.748L38.5843 26.1798L38.219 25.3964C38.3749 25.1624 38.5735 24.9718 38.8005 24.8383C39.0275 24.7047 39.2771 24.6317 39.5314 24.6244C40.1398 24.6244 40.6836 25.0464 41.0334 25.7038C41.137 25.9002 41.2833 26.0612 41.4575 26.1706C41.6317 26.28 41.8276 26.334 42.0255 26.327H42.0592C42.7308 26.327 43.276 27.2151 43.276 28.3092C43.276 29.4034 42.7308 30.2915 42.0592 30.2915C41.9122 30.2907 41.7676 30.2486 41.6376 30.1688C41.4088 30.0389 41.1585 29.9685 40.9039 29.9626C40.6494 29.9566 40.3968 30.0153 40.1637 30.1345C39.9663 30.2406 39.7516 30.2963 39.5342 30.298C39.3193 30.2978 39.1068 30.2454 38.9103 30.1443C38.6792 30.0277 38.4292 29.9704 38.1773 29.976C37.9255 29.9816 37.6776 30.0502 37.4504 30.177C37.3203 30.2563 37.1757 30.2978 37.0289 30.298C36.3558 30.298 35.8107 29.4116 35.8107 28.3158C35.8041 27.8912 35.8896 27.4716 36.0594 27.0957Z" fill="#6C63FF"/>
<path d="M93.3428 80.1831C93.7096 79.3915 93.2937 78.4233 92.8159 77.7184C92.3382 77.0135 91.7537 76.2791 91.7663 75.3812C91.7846 74.0908 92.9621 73.327 93.9021 72.6434C94.6001 72.1339 95.244 71.53 95.82 70.8443C96.061 70.5803 96.2602 70.2692 96.4088 69.9251C96.6041 69.4214 96.5985 68.8457 96.5858 68.2896C96.5455 66.448 96.4673 64.6075 96.3512 62.7681" stroke="#3F3D56" stroke-width="4" stroke-miterlimit="10"/>
<path d="M98.1398 62.6765C98.1262 62.3392 98.04 62.0112 97.8889 61.7228C97.7379 61.4345 97.527 61.1949 97.2756 61.0263L96.8878 61.9176L96.9005 60.8382C96.5488 60.7177 96.1733 60.7303 95.8281 60.8744C95.483 61.0184 95.1861 61.2864 94.9804 61.6396C94.7746 61.9928 94.6706 62.4129 94.6833 62.8394C94.696 63.2659 94.8248 63.6767 95.0512 64.0124C95.2775 64.3482 95.5896 64.5915 95.9425 64.7073C96.2954 64.8231 96.6707 64.8054 97.0144 64.6568C97.3581 64.5082 97.6523 64.2362 97.8546 63.8803C98.0568 63.5244 98.1567 63.1028 98.1398 62.6765Z" fill="#6C63FF"/>
<path d="M95.0543 76.3036C94.8803 76.6972 94.5997 77.0132 94.2559 77.2025C93.9121 77.3918 93.5243 77.4439 93.1524 77.3508C92.7806 77.2577 92.4455 77.0245 92.199 76.6874C91.9525 76.3503 91.8083 75.928 91.7888 75.4858C91.7759 75.207 91.8142 74.9282 91.9012 74.6681C92.0286 74.2886 92.2518 73.963 92.5414 73.7342C92.831 73.5054 93.1734 73.3842 93.5234 73.3865C93.8734 73.3888 94.2146 73.5145 94.5019 73.7471C94.7893 73.9797 95.0093 74.3082 95.133 74.6893L94.0525 75.7132L95.2412 75.3861C95.2425 75.7049 95.1785 76.0194 95.0543 76.3036Z" fill="#6C63FF"/>
<path d="M94.2 72.3947C93.7755 72.418 93.3585 72.2586 93.0286 71.9468C92.6986 71.6351 92.4788 71.1929 92.411 70.7046C92.3433 70.2163 92.4324 69.716 92.6612 69.2993C92.8901 68.8825 93.2428 68.5784 93.652 68.4449L93.6422 69.2742L94.0342 68.3713C94.4925 68.3464 94.9407 68.5344 95.2799 68.8941C95.6192 69.2537 95.8218 69.7555 95.8432 70.289C95.8647 70.8225 95.7031 71.3441 95.3942 71.739C95.0852 72.1339 94.6541 72.3698 94.1958 72.3947H94.2Z" fill="#6C63FF"/>
<path d="M98.3999 69.1416C98.1317 69.1578 97.864 69.101 97.6179 68.9758C97.3719 68.8507 97.1542 68.6605 96.9822 68.4204C96.8102 68.1804 96.6886 67.897 96.627 67.5928C96.5654 67.2885 96.5656 66.9718 96.6274 66.6676C96.6892 66.3634 96.811 66.0802 96.9832 65.8403C97.1553 65.6004 97.3731 65.4104 97.6192 65.2855C97.8654 65.1606 98.1332 65.1041 98.4013 65.1204C98.6695 65.1368 98.9307 65.2257 99.1643 65.3799L98.8594 66.3613L99.4818 65.6449C99.7336 65.9136 99.9114 66.263 99.9928 66.6491C100.074 67.0352 100.056 67.4407 99.9392 67.8145C99.8229 68.1883 99.6141 68.5137 99.3392 68.7496C99.0642 68.9855 98.7354 69.1213 98.3943 69.14L98.3999 69.1416Z" fill="#6C63FF"/>
<path opacity="0.1" d="M97.9066 63.2129C97.5076 63.2636 97.1198 63.4076 96.7179 63.437C96.3161 63.4664 95.8749 63.3536 95.6247 62.9921C95.5071 62.7815 95.4002 62.5631 95.3044 62.3379C95.1952 62.1395 95.0455 61.9754 94.8688 61.8604C94.7569 62.1155 94.6931 62.3955 94.6816 62.6817C94.6701 62.9679 94.7112 63.2536 94.8021 63.5198C94.8931 63.786 95.0318 64.0266 95.209 64.2254C95.3863 64.4242 95.5979 64.5767 95.8298 64.6727C96.0617 64.7687 96.3085 64.806 96.5538 64.782C96.799 64.7581 97.0371 64.6736 97.252 64.534C97.467 64.3944 97.6538 64.2031 97.8002 63.9727C97.9465 63.7424 98.0489 63.4783 98.1005 63.1982C98.0373 63.1998 97.9713 63.2048 97.9066 63.2129Z" fill="black"/>
<path opacity="0.1" d="M98.3999 69.1418C98.1016 69.1582 97.8048 69.0845 97.5383 68.9278C97.2718 68.7711 97.0447 68.5368 96.879 68.2477C96.7134 67.9585 96.6148 67.6244 96.593 67.2778C96.5712 66.9312 96.6268 66.5839 96.7545 66.2698C96.8916 66.3776 97.0095 66.5153 97.1016 66.6754C97.2049 66.9047 97.3194 67.1269 97.4444 67.341C97.7142 67.709 98.1751 67.8317 98.5924 67.8072C99.0097 67.7826 99.413 67.6436 99.8289 67.6027C99.8865 67.6027 99.9441 67.5929 100.003 67.5913C99.9171 68.0175 99.714 68.3994 99.4247 68.6792C99.1354 68.959 98.7756 69.1214 98.3999 69.1418Z" fill="black"/>
<path opacity="0.1" d="M94.1999 72.3948C93.9048 72.4109 93.611 72.3387 93.3466 72.1851C93.0822 72.0315 92.856 71.8017 92.6896 71.5175C92.5232 71.2332 92.4222 70.9041 92.396 70.5616C92.3699 70.219 92.4197 69.8743 92.5405 69.5604C92.6831 69.6697 92.8073 69.8082 92.9072 69.9693C93.0205 70.2041 93.1458 70.4307 93.2824 70.6481C93.5733 71.0259 94.065 71.16 94.5063 71.1387C94.9475 71.1174 95.3493 71.0062 95.7709 70.9752C95.6659 71.3709 95.4589 71.7195 95.1778 71.9735C94.8968 72.2275 94.5553 72.3746 94.1999 72.3948Z" fill="black"/>
<path opacity="0.1" d="M95.0543 76.3036C94.8803 76.6973 94.5997 77.0132 94.2559 77.2025C93.9121 77.3918 93.5243 77.4439 93.1524 77.3508C92.7806 77.2577 92.4455 77.0245 92.199 76.6874C91.9525 76.3503 91.8083 75.928 91.7888 75.4859C91.7759 75.2071 91.8142 74.9283 91.9012 74.6681C92.0437 74.777 92.1716 74.9098 92.2806 75.0623C92.445 75.2945 92.5532 75.5529 92.7443 75.777C93.097 76.181 93.6689 76.3478 94.1761 76.3625C94.4696 76.3635 94.7629 76.3439 95.0543 76.3036Z" fill="black"/>
<path d="M7.63118 68.4073C7.99791 67.6158 7.582 66.6475 7.10426 65.9426C6.62652 65.2377 6.042 64.5001 6.05465 63.6055C6.07291 62.315 7.25039 61.5512 8.19041 60.8676C8.88849 60.3581 9.5323 59.7542 10.1084 59.0685C10.3493 58.8046 10.5486 58.4935 10.6971 58.1493C10.8924 57.6456 10.8868 57.0699 10.8742 56.5138C10.833 54.6722 10.7547 52.8317 10.6395 50.9923" stroke="#3F3D56" stroke-width="4" stroke-miterlimit="10"/>
<path d="M12.4282 50.9008C12.4147 50.5634 12.3284 50.2355 12.1774 49.9471C12.0264 49.6587 11.8155 49.4192 11.5641 49.2505L11.1763 50.1419L11.1889 49.0624C10.8372 48.9419 10.4617 48.9546 10.1166 49.0986C9.77147 49.2427 9.4746 49.5106 9.26882 49.8638C9.06305 50.217 8.95902 50.6372 8.97175 51.0637C8.98447 51.4902 9.1133 51.901 9.33963 52.2367C9.56597 52.5724 9.8781 52.8158 10.231 52.9316C10.5838 53.0474 10.9592 53.0297 11.3029 52.881C11.6466 52.7324 11.9408 52.4605 12.143 52.1045C12.3453 51.7486 12.4452 51.3271 12.4282 50.9008Z" fill="#6C63FF"/>
<path d="M9.34251 64.5278C9.16851 64.9215 8.8879 65.2374 8.54409 65.4267C8.20028 65.616 7.81246 65.6682 7.44064 65.575C7.06881 65.4819 6.73372 65.2488 6.48722 64.9116C6.24072 64.5745 6.09655 64.1522 6.07704 63.7101C6.06411 63.4313 6.10243 63.1525 6.18945 62.8923C6.31683 62.5129 6.54004 62.1873 6.82963 61.9585C7.11923 61.7297 7.4616 61.6084 7.8116 61.6107C8.16159 61.6131 8.50276 61.7388 8.79012 61.9714C9.07747 62.204 9.29751 62.5325 9.4212 62.9136L8.34067 63.9374L9.52939 63.6103C9.53075 63.9291 9.46668 64.2437 9.34251 64.5278Z" fill="#6C63FF"/>
<path d="M8.48821 60.619C8.06372 60.6423 7.64672 60.4828 7.31677 60.1711C6.98682 59.8594 6.767 59.4172 6.69925 58.9288C6.6315 58.4405 6.72056 57.9403 6.94945 57.5235C7.17833 57.1067 7.53101 56.8026 7.94022 56.6692L7.93038 57.4984L8.32241 56.5956C8.54937 56.5832 8.7762 56.623 8.98994 56.7127C9.20369 56.8024 9.40016 56.9402 9.56815 57.1183C9.73614 57.2964 9.87235 57.5112 9.96901 57.7505C10.0657 57.9899 10.1209 58.2491 10.1315 58.5132C10.1421 58.7774 10.1079 59.0414 10.0308 59.2902C9.95379 59.539 9.83539 59.7677 9.68241 59.9633C9.52943 60.1588 9.34485 60.3173 9.13923 60.4298C8.9336 60.5424 8.71095 60.6066 8.48399 60.619H8.48821Z" fill="#6C63FF"/>
<path d="M12.6881 57.366C12.4199 57.3821 12.1522 57.3254 11.9061 57.2002C11.6601 57.075 11.4424 56.8849 11.2704 56.6448C11.0984 56.4047 10.9768 56.1214 10.9152 55.8171C10.8537 55.5129 10.8538 55.1961 10.9156 54.892C10.9774 54.5878 11.0992 54.3045 11.2714 54.0646C11.4435 53.8247 11.6613 53.6348 11.9075 53.5099C12.1536 53.3849 12.4214 53.3284 12.6895 53.3448C12.9577 53.3612 13.2189 53.4501 13.4525 53.6043L13.1476 54.5856L13.77 53.8693C14.0218 54.1379 14.1996 54.4874 14.281 54.8735C14.3624 55.2596 14.3437 55.6651 14.2274 56.0389C14.1111 56.4127 13.9023 56.738 13.6274 56.9739C13.3524 57.2098 13.0237 57.3457 12.6825 57.3644L12.6881 57.366Z" fill="#6C63FF"/>
<path opacity="0.1" d="M12.1949 51.4372C11.7958 51.4879 11.408 51.6318 11.0061 51.6613C10.6043 51.6907 10.1631 51.5778 9.91296 51.2164C9.79533 51.0058 9.68836 50.7873 9.5926 50.5622C9.48336 50.3637 9.33375 50.1997 9.15701 50.0846C9.04511 50.3398 8.98128 50.6198 8.96978 50.906C8.95829 51.1921 8.99939 51.4779 9.09035 51.7441C9.18132 52.0103 9.32004 52.2508 9.49725 52.4496C9.67446 52.6484 9.88609 52.8009 10.118 52.8969C10.3499 52.9929 10.5967 53.0302 10.842 53.0063C11.0872 52.9824 11.3253 52.8978 11.5402 52.7583C11.7552 52.6187 11.9421 52.4273 12.0884 52.197C12.2347 51.9666 12.3371 51.7026 12.3888 51.4225C12.3255 51.4241 12.2595 51.429 12.1949 51.4372Z" fill="black"/>
<path opacity="0.1" d="M12.6882 57.3659C12.39 57.3823 12.0931 57.3086 11.8266 57.1519C11.5601 56.9953 11.333 56.761 11.1673 56.4718C11.0017 56.1827 10.9032 55.8485 10.8813 55.5019C10.8595 55.1553 10.9151 54.8081 11.0428 54.4939C11.1799 54.6017 11.2978 54.7395 11.3899 54.8995C11.4932 55.1288 11.6077 55.351 11.7327 55.5652C12.0025 55.9332 12.4634 56.0558 12.8807 56.0313C13.298 56.0068 13.7013 55.8677 14.1172 55.8268C14.1748 55.8268 14.2324 55.817 14.2914 55.8154C14.2054 56.2416 14.0023 56.6235 13.713 56.9033C13.4237 57.1831 13.0639 57.3455 12.6882 57.3659Z" fill="black"/>
<path opacity="0.1" d="M8.48825 60.619C8.19309 60.6351 7.89931 60.5629 7.63493 60.4094C7.37054 60.2558 7.14436 60.0259 6.97796 59.7417C6.81156 59.4575 6.71049 59.1284 6.68438 58.7858C6.65827 58.4432 6.708 58.0985 6.82882 57.7847C6.97138 57.8939 7.09566 58.0325 7.19555 58.1935C7.30885 58.4283 7.43413 58.655 7.57072 58.8723C7.86157 59.2501 8.35336 59.3842 8.79457 59.363C9.23577 59.3417 9.63763 59.2305 10.0592 59.1994C9.95426 59.5952 9.7472 59.9437 9.46614 60.1977C9.18509 60.4517 8.84365 60.5988 8.48825 60.619Z" fill="black"/>
<path opacity="0.1" d="M9.34251 64.5279C9.16851 64.9215 8.88789 65.2374 8.54409 65.4267C8.20028 65.616 7.81246 65.6682 7.44063 65.5751C7.06881 65.4819 6.73372 65.2488 6.48722 64.9116C6.24072 64.5745 6.09655 64.1522 6.07704 63.7101C6.06411 63.4313 6.10243 63.1525 6.18945 62.8923C6.33192 63.0012 6.45977 63.134 6.56882 63.2865C6.73322 63.5187 6.84142 63.7772 7.03251 64.0012C7.38519 64.4052 7.95707 64.572 8.46432 64.5867C8.7578 64.5878 9.05107 64.5681 9.34251 64.5279Z" fill="black"/>
<path d="M64.708 54.9356C64.3413 54.1456 64.7572 53.1774 65.2363 52.4725C65.7155 51.7676 66.2972 51.0332 66.2845 50.1353C66.2677 48.8432 65.0902 48.0811 64.1488 47.3974C63.4509 46.8882 62.8076 46.2843 62.2322 45.5984C61.9901 45.3359 61.7903 45.0251 61.642 44.6808C61.4481 44.1755 61.4538 43.6014 61.465 43.0453C61.5071 41.2037 61.5854 39.3632 61.6996 37.5238" stroke="#3F3D56" stroke-width="4" stroke-miterlimit="10"/>
<path d="M59.9125 37.4305C59.9258 37.0933 60.0118 36.7654 60.1625 36.477C60.3133 36.1886 60.524 35.949 60.7752 35.7803L61.163 36.6717L61.1518 35.5922C61.3365 35.5297 61.5287 35.5027 61.7209 35.5121C62.0625 35.5306 62.3918 35.6666 62.6671 35.903C62.9424 36.1394 63.1513 36.4654 63.2674 36.8399C63.3835 37.2144 63.4015 37.6206 63.3193 38.0071C63.2371 38.3936 63.0583 38.743 62.8055 39.0112C62.5527 39.2794 62.2372 39.4544 61.899 39.5139C61.5608 39.5734 61.215 39.5149 60.9053 39.3457C60.5957 39.1766 60.3361 38.9043 60.1594 38.5634C59.9827 38.2225 59.8967 37.8283 59.9125 37.4305Z" fill="#6C63FF"/>
<path d="M62.9968 51.0577C63.1781 51.4686 63.4753 51.7945 63.8385 51.9806C64.2017 52.1667 64.6089 52.2017 64.9917 52.0798C65.3745 51.958 65.7096 51.6866 65.9409 51.3112C66.1722 50.9358 66.2856 50.4793 66.262 50.0182C66.2384 49.5571 66.0793 49.1194 65.8114 48.7786C65.5435 48.4379 65.183 48.2147 64.7905 48.1465C64.398 48.0784 63.9973 48.1694 63.6556 48.4044C63.3139 48.6393 63.052 49.0039 62.9139 49.4369L63.9944 50.4608L62.8057 50.1337C62.8047 50.4551 62.8703 50.772 62.9968 51.0577Z" fill="#6C63FF"/>
<path d="M63.851 47.1489C64.2757 47.1726 64.6929 47.0135 65.0232 46.702C65.3535 46.3904 65.5736 45.9481 65.6416 45.4596C65.7095 44.9712 65.6205 44.4707 65.3916 44.0537C65.1627 43.6367 64.8098 43.3325 64.4004 43.1991L64.4089 44.0283L64.0168 43.1255C63.5586 43.0992 63.1103 43.2859 62.7703 43.6445C62.4304 44.003 62.2268 44.5041 62.2042 45.0374C62.1944 45.2697 62.2196 45.5022 62.2787 45.7243C62.3824 46.1216 62.5892 46.4718 62.8707 46.7269C63.1523 46.9819 63.4947 47.1293 63.851 47.1489Z" fill="#6C63FF"/>
<path d="M59.6526 43.8925C59.9207 43.9084 60.1883 43.8514 60.4343 43.726C60.6802 43.6007 60.8977 43.4104 61.0696 43.1703C61.2414 42.9302 61.3629 42.6468 61.4243 42.3425C61.4858 42.0383 61.4855 41.7216 61.4236 41.4175C61.3617 41.1134 61.2398 40.8303 61.0676 40.5905C60.8954 40.3507 60.6777 40.1609 60.4315 40.036C60.1854 39.9112 59.9177 39.8548 59.6495 39.8712C59.3814 39.8876 59.1203 39.9765 58.8868 40.1308L59.1931 41.1121L58.5636 40.4104C58.3957 40.5875 58.2596 40.8015 58.1631 41.0401C58.0666 41.2787 58.0117 41.5372 58.0015 41.8006C57.9932 41.9869 58.0079 42.1736 58.0451 42.3551C58.1333 42.7797 58.3378 43.1595 58.6278 43.4368C58.9178 43.7142 59.2775 43.8741 59.6526 43.8925Z" fill="#6C63FF"/>
<path opacity="0.1" d="M60.1458 37.967C60.5449 38.0177 60.9327 38.1616 61.3331 38.191C61.7336 38.2205 62.1762 38.1076 62.4277 37.7462C62.5449 37.5355 62.6514 37.3171 62.7467 37.092C62.8564 36.8934 63.0065 36.7294 63.1836 36.6144C63.2958 36.8696 63.3598 37.1498 63.3714 37.4361C63.383 37.7225 63.3419 38.0084 63.2509 38.2748C63.1599 38.5411 63.0211 38.7818 62.8438 38.9807C62.6664 39.1796 62.4546 39.3322 62.2226 39.4281C61.9905 39.5241 61.7435 39.5612 61.4981 39.5371C61.2527 39.513 61.0145 39.4282 60.7996 39.2883C60.5846 39.1484 60.3978 38.9567 60.2516 38.726C60.1054 38.4953 60.0032 38.231 59.9519 37.9506C60.0151 37.9522 60.0798 37.9588 60.1458 37.967Z" fill="black"/>
<path opacity="0.1" d="M59.6526 43.8925C59.9507 43.9084 60.2472 43.8344 60.5135 43.6776C60.7798 43.5208 61.0068 43.2866 61.1723 42.9976C61.3379 42.7086 61.4365 42.3747 61.4585 42.0283C61.4805 41.6819 61.4252 41.3347 61.2979 41.0205C61.1604 41.1283 61.0421 41.266 60.9495 41.4261C60.8461 41.6554 60.7317 41.8776 60.6066 42.0918C60.3382 42.4598 59.8774 42.5824 59.4601 42.5579C59.0427 42.5334 58.6395 42.3943 58.2235 42.3535C58.1659 42.3535 58.1069 42.3436 58.0493 42.342C58.1352 42.7683 58.3382 43.1504 58.6275 43.4302C58.9169 43.7101 59.2768 43.8724 59.6526 43.8925Z" fill="black"/>
<path opacity="0.1" d="M63.8511 47.1488C64.1464 47.1654 64.4404 47.0935 64.705 46.94C64.9696 46.7866 65.1959 46.5567 65.3624 46.2723C65.5289 45.988 65.6299 45.6587 65.6559 45.3159C65.6818 44.9731 65.6317 44.6283 65.5105 44.3145C65.3681 44.4234 65.2442 44.562 65.1452 44.7233C65.0319 44.9581 64.9066 45.1848 64.77 45.4021C64.4777 45.7799 63.9874 45.914 63.5448 45.8927C63.1021 45.8715 62.7017 45.7603 62.2802 45.7292C62.3845 46.1253 62.5914 46.4743 62.8726 46.7284C63.1538 46.9825 63.4955 47.1293 63.8511 47.1488Z" fill="black"/>
<path opacity="0.1" d="M62.9966 51.0578C63.1996 51.5134 63.5445 51.8615 63.9607 52.031C64.3769 52.2005 64.833 52.1786 65.2358 51.9698C65.6386 51.761 65.9576 51.381 66.1278 50.9074C66.2979 50.4339 66.3062 49.9027 66.1511 49.4222C66.008 49.5302 65.88 49.6631 65.7717 49.8164C65.6073 50.0486 65.4907 50.3071 65.308 50.5311C64.9539 50.9351 64.3834 51.1019 63.8748 51.1166C63.5813 51.1168 63.2881 51.0972 62.9966 51.0578Z" fill="black"/>
<path d="M109.561 55.3036C117.318 55.3036 123.606 47.984 123.606 38.9549C123.606 29.9258 117.318 22.6062 109.561 22.6062C101.804 22.6062 95.5151 29.9258 95.5151 38.9549C95.5151 47.984 101.804 55.3036 109.561 55.3036Z" fill="white"/>
<path d="M115.59 43.1713C115.101 42.6021 113.925 41.7435 113.342 41.4229C112.669 41.0467 112.421 41.0533 111.945 41.454C111.549 41.7811 111.292 42.0967 110.836 41.9806C110.381 41.8645 109.479 41.0729 108.606 40.0605C107.734 39.0481 107.057 38.0046 106.96 37.4666C106.863 36.9285 107.13 36.6357 107.413 36.1745C107.756 35.6201 107.766 35.3322 107.44 34.5488C107.159 33.87 106.43 32.5044 105.937 31.932C105.444 31.3595 105.337 31.4855 105.067 31.6048C104.789 31.7403 104.523 31.9045 104.27 32.0955C103.781 32.4766 103.507 32.7939 103.315 33.2714C103.122 33.749 102.904 34.6355 104.024 36.9563C104.85 38.7317 105.897 40.3558 107.13 41.7762C108.354 43.2144 109.754 44.4346 111.285 45.3972C113.277 46.7056 114.04 46.4456 114.45 46.2232C114.861 46.0007 115.133 45.6851 115.459 45.111C115.624 44.8174 115.765 44.507 115.881 44.1837C115.973 43.8696 116.083 43.7421 115.59 43.1713Z" fill="#6C63FF"/>
<path opacity="0.1" d="M109.561 22.6078C106.781 22.6062 104.063 23.5642 101.752 25.3607C99.4398 27.1572 97.6377 29.7115 96.5734 32.7004C95.509 35.6892 95.2302 38.9784 95.7721 42.1517C96.314 45.3251 97.6524 48.2401 99.6179 50.5279C101.583 52.8157 104.088 54.3736 106.814 55.0044C109.54 55.6352 112.366 55.3106 114.934 54.0717C117.502 52.8328 119.696 50.7352 121.24 48.0444C122.783 45.3535 123.606 42.1903 123.605 38.9548C123.603 34.62 122.123 30.4633 119.489 27.3981C116.856 24.3329 113.285 22.61 109.561 22.6078ZM109.561 53.1299C107.152 53.1299 104.797 52.2986 102.795 50.741C100.792 49.1834 99.2312 46.9696 98.3095 44.3794C97.3878 41.7892 97.1466 38.9391 97.6165 36.1894C98.0864 33.4397 99.2462 30.914 100.949 28.9315C102.653 26.9491 104.822 25.5991 107.185 25.0521C109.547 24.5052 111.996 24.7859 114.221 25.8588C116.446 26.9317 118.348 28.7485 119.686 31.0796C121.024 33.4107 121.739 36.1513 121.739 38.9548C121.739 40.8163 121.424 42.6596 120.812 44.3794C120.2 46.0992 119.303 47.6618 118.172 48.9781C117.041 50.2944 115.698 51.3385 114.221 52.0509C112.743 52.7633 111.16 53.1299 109.561 53.1299Z" fill="white"/>
<path d="M77.2923 80.1357C85.0494 80.1357 91.3378 72.8162 91.3378 63.787C91.3378 54.7579 85.0494 47.4384 77.2923 47.4384C69.5352 47.4384 63.2468 54.7579 63.2468 63.787C63.2468 72.8162 69.5352 80.1357 77.2923 80.1357Z" fill="white"/>
<path d="M85.2803 58.8477L81.0748 63.8279C81.0674 63.8361 81.0615 63.846 81.0575 63.857C81.0534 63.8679 81.0514 63.8797 81.0514 63.8916C81.0514 63.9036 81.0534 63.9154 81.0575 63.9263C81.0615 63.9373 81.0674 63.9472 81.0748 63.9554L84.0255 67.6076C84.0961 67.6903 84.1441 67.7955 84.1635 67.91C84.1829 68.0244 84.1728 68.143 84.1346 68.2508C84.0963 68.3586 84.0315 68.4508 83.9484 68.5159C83.8652 68.581 83.7674 68.616 83.6672 68.6167C83.5323 68.6163 83.4031 68.554 83.3075 68.4433L80.3722 64.8043C80.3572 64.7871 80.337 64.7775 80.316 64.7775C80.295 64.7775 80.2748 64.7871 80.2598 64.8043L79.5446 65.6449C79.2518 65.9935 78.902 66.2704 78.516 66.4594C78.1299 66.6485 77.7153 66.7458 77.2964 66.7456C76.8697 66.7433 76.4476 66.6421 76.0548 66.4477C75.662 66.2534 75.3065 65.9699 75.0089 65.6138L74.3218 64.7961C74.3068 64.7789 74.2866 64.7693 74.2656 64.7693C74.2446 64.7693 74.2244 64.7789 74.2094 64.7961L71.2811 68.427C71.234 68.4819 71.1781 68.5255 71.1165 68.5552C71.0549 68.585 70.9888 68.6003 70.9221 68.6003C70.8554 68.6003 70.7894 68.585 70.7278 68.5552C70.6662 68.5255 70.6102 68.4819 70.5631 68.427C70.5158 68.3722 70.4782 68.3071 70.4525 68.2354C70.4268 68.1637 70.4136 68.0868 70.4136 68.0091C70.4136 67.9314 70.4268 67.8545 70.4525 67.7827C70.4782 67.711 70.5158 67.6459 70.5631 67.5912L73.5026 63.9473C73.5157 63.9295 73.5229 63.9069 73.5229 63.8835C73.5229 63.8601 73.5157 63.8375 73.5026 63.8197L69.2971 58.8395C69.2863 58.8269 69.2725 58.8182 69.2575 58.8147C69.2425 58.8112 69.2269 58.813 69.2127 58.8198C69.1985 58.8267 69.1865 58.8383 69.178 58.8531C69.1695 58.868 69.165 58.8855 69.165 58.9033V68.8685C69.1662 69.2538 69.2981 69.6228 69.5321 69.8952C69.7662 70.1676 70.0832 70.3212 70.4142 70.3225H84.166C84.497 70.3212 84.814 70.1676 85.0481 69.8952C85.2821 69.6228 85.414 69.2538 85.4152 68.8685V58.9115C85.4159 58.8929 85.4116 58.8746 85.403 58.859C85.3944 58.8433 85.3818 58.8312 85.367 58.8242C85.3523 58.8172 85.336 58.8157 85.3205 58.8199C85.3049 58.8241 85.2909 58.8338 85.2803 58.8477Z" fill="#6C63FF"/>
<path d="M77.2923 65.5632C77.5774 65.5664 77.8601 65.503 78.1237 65.3765C78.3873 65.2501 78.6263 65.0633 78.8267 64.8272L84.9515 57.5704C84.7341 57.3608 84.4611 57.2452 84.1787 57.2433H70.4171C70.1346 57.2444 69.8614 57.36 69.6443 57.5704L75.7706 64.8272C75.9691 65.062 76.2061 65.248 76.4674 65.3744C76.7288 65.5008 77.0093 65.565 77.2923 65.5632Z" fill="#6C63FF"/>
<path opacity="0.1" d="M77.1153 47.4399C74.3356 47.4383 71.618 48.3964 69.3062 50.1929C66.9945 51.9894 65.1924 54.5437 64.1281 57.5325C63.0637 60.5214 62.7848 63.8105 63.3268 66.9839C63.8687 70.1573 65.2071 73.0722 67.1726 75.3601C69.1381 77.6479 71.6424 79.2057 74.3687 79.8365C77.095 80.4673 79.9208 80.1428 82.4886 78.9039C85.0564 77.665 87.2508 75.5674 88.7942 72.8765C90.3376 70.1857 91.1607 67.0224 91.1593 63.787C91.1575 59.4522 89.6772 55.2955 87.0439 52.2303C84.4105 49.1651 80.8394 47.4421 77.1153 47.4399ZM77.1153 77.9621C74.7067 77.9621 72.3521 77.1307 70.3495 75.5731C68.3468 74.0156 66.7859 71.8017 65.8642 69.2116C64.9424 66.6214 64.7013 63.7713 65.1712 61.0216C65.6411 58.2719 66.8009 55.7461 68.504 53.7637C70.2072 51.7813 72.3771 50.4312 74.7394 49.8843C77.1017 49.3373 79.5504 49.6181 81.7756 50.6909C84.0009 51.7638 85.9028 53.5807 87.241 55.9117C88.5791 58.2428 89.2933 60.9834 89.2933 63.787C89.2933 67.5465 88.0103 71.1519 85.7265 73.8103C83.4426 76.4686 80.3451 77.9621 77.1153 77.9621Z" fill="white"/>
<path d="M43.6333 67.68C51.288 67.68 57.4933 60.9463 57.4933 52.64C57.4933 44.3336 51.288 37.6 43.6333 37.6C35.9787 37.6 29.7733 44.3336 29.7733 52.64C29.7733 60.9463 35.9787 67.68 43.6333 67.68Z" fill="white"/>
<path d="M43.9587 43.7551L38.3594 58.7921L38.8821 59.4005L43.9601 56.7935L49.0382 59.4005L49.5609 58.7921L43.9587 43.7551Z" fill="#6C63FF"/>
<path opacity="0.1" d="M43.9588 35.2242C41.1794 35.2226 38.4621 36.1805 36.1505 37.9766C33.8389 39.7728 32.0368 42.3265 30.9722 45.3149C29.9077 48.3033 29.6284 51.5921 30.1698 54.7652C30.7111 57.9383 32.0488 60.8533 34.0136 63.1415C35.9784 65.4296 38.4821 66.9881 41.2079 67.6198C43.9338 68.2516 46.7593 67.9281 49.3272 66.6905C51.8951 65.4529 54.09 63.3566 55.6343 60.6668C57.1786 57.977 58.0028 54.8146 58.0028 51.5795C58.0028 47.2432 56.5234 43.0844 53.8898 40.0175C51.2563 36.9505 47.6841 35.2264 43.9588 35.2242ZM43.9588 65.7464C41.5499 65.7464 39.1951 64.9148 37.1923 63.3569C35.1894 61.7989 33.6285 59.5846 32.707 56.994C31.7855 54.4033 31.5447 51.5528 32.0152 48.8029C32.4857 46.0529 33.6462 43.5272 35.35 41.5451C37.0539 39.563 39.2245 38.2136 41.5872 37.6676C43.95 37.1216 46.3988 37.4034 48.624 38.4776C50.8491 39.5517 52.7506 41.3698 54.0879 43.702C55.4252 46.0341 56.1382 48.7756 56.1368 51.5795C56.1365 55.3386 54.8533 58.9437 52.5695 61.6017C50.2857 64.2597 47.1883 65.7529 43.9588 65.7529V65.7464Z" fill="white"/>
<g opacity="0.1">
<path opacity="0.1" d="M107.147 79.753C107.147 79.753 105.75 79.7088 105.328 79.6205C105.328 79.7039 105.328 79.753 105.328 79.753C105.219 79.8805 107.262 79.946 107.262 79.946C107.29 79.9489 107.316 79.9614 107.338 79.9819C107.263 79.753 107.147 79.753 107.147 79.753Z" fill="black"/>
<path opacity="0.1" d="M109.577 77.1165C109.521 77.0527 109.466 76.1532 109.466 76.1532C109.438 76.1739 109.406 76.1873 109.372 76.1924C109.392 76.4639 109.43 76.881 109.466 76.9235C109.503 76.9661 109.747 78.595 109.687 79.367C109.627 80.139 109.687 80.1373 109.687 80.1373C109.687 80.1373 107.895 80.4432 107.461 80.2387C107.461 80.2665 107.474 80.2976 107.478 80.3303C107.533 80.7163 109.798 80.3303 109.798 80.3303C109.798 80.3303 109.742 80.3303 109.798 79.56C109.854 78.7897 109.632 77.1819 109.577 77.1165Z" fill="black"/>
</g>
<path d="M117.522 67.7711C117.889 66.9811 117.473 66.0113 116.994 65.3063C116.514 64.6014 115.933 63.8687 115.945 62.9692C115.962 61.6788 117.14 60.9166 118.081 60.2313C118.779 59.7222 119.422 59.1183 119.998 58.4322C120.239 58.1694 120.439 57.8587 120.588 57.5147C120.782 57.0093 120.776 56.4353 120.765 55.8792C120.724 54.0365 120.645 52.196 120.53 50.3577" stroke="#3F3D56" stroke-width="4" stroke-miterlimit="10"/>
<path d="M122.317 50.2596C122.304 49.9226 122.218 49.5949 122.067 49.3068C121.916 49.0187 121.706 48.7794 121.455 48.611L121.067 49.5023L121.078 48.4229C120.894 48.3588 120.701 48.3317 120.509 48.3427C120.167 48.3613 119.838 48.4974 119.563 48.7338C119.287 48.9703 119.079 49.2964 118.963 49.671C118.846 50.0456 118.828 50.4519 118.911 50.8384C118.993 51.2249 119.172 51.5743 119.425 51.8425C119.678 52.1106 119.994 52.2854 120.332 52.3447C120.67 52.4041 121.016 52.3453 121.326 52.1759C121.635 52.0064 121.895 51.7339 122.071 51.3928C122.248 51.0517 122.333 50.6573 122.317 50.2596Z" fill="#6C63FF"/>
<path d="M119.233 63.8884C119.052 64.2991 118.755 64.6248 118.392 64.8107C118.028 64.9967 117.621 65.0316 117.239 64.9097C116.856 64.7878 116.521 64.5164 116.29 64.1411C116.058 63.7658 115.945 63.3093 115.969 62.8483C115.992 62.3872 116.151 61.9496 116.419 61.6088C116.687 61.2681 117.047 61.0448 117.44 60.9766C117.832 60.9083 118.233 60.9992 118.574 61.2339C118.916 61.4687 119.178 61.8331 119.316 62.2659L118.236 63.2898L119.425 62.9627C119.426 63.2846 119.36 63.6022 119.233 63.8884Z" fill="#6C63FF"/>
<path d="M118.379 59.9778C117.954 60.0016 117.537 59.8425 117.207 59.5309C116.877 59.2193 116.656 58.7771 116.589 58.2886C116.521 57.8001 116.61 57.2996 116.838 56.8827C117.067 56.4657 117.42 56.1615 117.83 56.0281L117.821 56.8573L118.213 55.9561C118.672 55.9317 119.119 56.12 119.459 56.4797C119.798 56.8394 120 57.3411 120.022 57.8745C120.032 58.1387 119.998 58.4027 119.921 58.6514C119.844 58.9002 119.726 59.1289 119.573 59.3244C119.42 59.5199 119.236 59.6784 119.03 59.7908C118.824 59.9032 118.602 59.9673 118.375 59.9795L118.379 59.9778Z" fill="#6C63FF"/>
<path d="M122.578 56.7264C122.309 56.7423 122.042 56.6853 121.796 56.56C121.55 56.4347 121.332 56.2444 121.161 56.0043C120.989 55.7641 120.867 55.4807 120.806 55.1765C120.744 54.8723 120.745 54.5556 120.806 54.2515C120.868 53.9474 120.99 53.6643 121.162 53.4245C121.335 53.1847 121.552 52.9949 121.799 52.87C122.045 52.7452 122.312 52.6887 122.581 52.7052C122.849 52.7216 123.11 52.8105 123.343 52.9647L123.037 53.9461L123.667 53.2428C123.834 53.42 123.97 53.634 124.067 53.8726C124.163 54.1112 124.218 54.3696 124.229 54.633C124.237 54.8193 124.222 55.006 124.185 55.1874C124.097 55.6123 123.892 55.9922 123.602 56.2698C123.312 56.5475 122.953 56.7077 122.578 56.7264Z" fill="#6C63FF"/>
<path opacity="0.1" d="M122.086 50.7961C121.687 50.8484 121.297 50.9923 120.897 51.0218C120.496 51.0512 120.054 50.9383 119.802 50.5753C119.685 50.3648 119.578 50.1464 119.483 49.9211C119.374 49.723 119.224 49.559 119.048 49.4435C118.936 49.6987 118.872 49.9789 118.86 50.2652C118.848 50.5516 118.89 50.8375 118.981 51.1039C119.072 51.3702 119.21 51.6109 119.388 51.8098C119.565 52.0088 119.777 52.1613 120.009 52.2572C120.241 52.3532 120.488 52.3904 120.733 52.3662C120.979 52.3421 121.217 52.2573 121.432 52.1174C121.647 51.9775 121.834 51.7858 121.98 51.5551C122.126 51.3244 122.228 51.0601 122.28 50.7797C122.215 50.783 122.15 50.7879 122.086 50.7961Z" fill="black"/>
<path opacity="0.1" d="M122.577 56.7265C122.279 56.7424 121.983 56.6684 121.717 56.5116C121.45 56.3548 121.223 56.1205 121.058 55.8316C120.892 55.5426 120.794 55.2087 120.772 54.8622C120.75 54.5158 120.805 54.1687 120.932 53.8545C121.07 53.9617 121.188 54.0989 121.281 54.2585C121.383 54.4882 121.498 54.7104 121.623 54.9241C121.892 55.2938 122.353 55.4148 122.77 55.3919C123.187 55.369 123.591 55.2283 124.006 55.1874C124.064 55.1874 124.123 55.176 124.181 55.1744C124.095 55.6009 123.892 55.9831 123.603 56.2633C123.313 56.5434 122.953 56.706 122.577 56.7265Z" fill="black"/>
<path opacity="0.1" d="M118.379 59.9779C118.083 59.9947 117.789 59.9229 117.524 59.7693C117.259 59.6157 117.033 59.3854 116.866 59.1006C116.699 58.8157 116.598 58.4859 116.573 58.1426C116.547 57.7994 116.598 57.4542 116.72 57.1403C116.861 57.2501 116.985 57.3885 117.085 57.5491C117.226 57.7699 117.303 58.0251 117.46 58.2279C117.752 58.6073 118.243 58.7398 118.685 58.7283C119.128 58.7169 119.529 58.5942 119.95 58.5566C119.846 58.9529 119.639 59.3021 119.358 59.5565C119.077 59.8108 118.735 59.958 118.379 59.9779Z" fill="black"/>
<path opacity="0.1" d="M119.233 63.8884C119.027 64.3377 118.682 64.6793 118.268 64.8445C117.854 65.0098 117.402 64.9865 117.002 64.7792C116.603 64.572 116.285 64.1962 116.114 63.7275C115.942 63.2587 115.93 62.7319 116.079 62.2529C116.222 62.3614 116.35 62.4942 116.458 62.6471C116.624 62.881 116.732 63.1377 116.922 63.3634C117.276 63.7674 117.847 63.9326 118.355 63.949C118.649 63.9486 118.942 63.9284 119.233 63.8884Z" fill="black"/>
<path d="M139.863 92.6311C140.23 91.8411 139.814 90.8712 139.335 90.1663C138.856 89.4614 138.274 88.7287 138.287 87.8292C138.303 86.5387 139.481 85.7766 140.422 85.0913C141.12 84.5822 141.764 83.9783 142.339 83.2922C142.581 83.0294 142.78 82.7187 142.929 82.3747C143.123 81.8693 143.117 81.2952 143.106 80.7392C143.066 78.8965 142.988 77.056 142.871 75.2177" stroke="#3F3D56" stroke-width="4" stroke-miterlimit="10"/>
<path d="M144.659 75.1196C144.646 74.7826 144.56 74.4549 144.409 74.1668C144.258 73.8787 144.047 73.6394 143.796 73.471L143.408 74.3623L143.42 73.2829C143.237 73.2197 143.047 73.1926 142.858 73.2027C142.516 73.2213 142.187 73.3574 141.911 73.5938C141.636 73.8303 141.427 74.1564 141.311 74.531C141.195 74.9056 141.177 75.3119 141.259 75.6984C141.342 76.0849 141.521 76.4344 141.774 76.7025C142.027 76.9706 142.342 77.1454 142.68 77.2047C143.019 77.2641 143.365 77.2053 143.674 77.0359C143.984 76.8664 144.243 76.5939 144.42 76.2528C144.596 75.9117 144.682 75.5174 144.666 75.1196H144.659Z" fill="#6C63FF"/>
<path d="M141.575 88.7484C141.393 89.1591 141.096 89.4848 140.733 89.6707C140.37 89.8567 139.962 89.8916 139.58 89.7697C139.197 89.6478 138.862 89.3764 138.631 89.0011C138.399 88.6258 138.286 88.1693 138.31 87.7083C138.333 87.2472 138.492 86.8096 138.76 86.4688C139.028 86.1281 139.388 85.9048 139.781 85.8366C140.173 85.7683 140.574 85.8592 140.915 86.0939C141.257 86.3287 141.519 86.693 141.658 87.1259L140.577 88.1498L141.766 87.8227C141.767 88.1446 141.701 88.4622 141.575 88.7484Z" fill="#6C63FF"/>
<path d="M140.72 84.8378C140.296 84.8616 139.878 84.7025 139.548 84.3909C139.218 84.0793 138.998 83.6371 138.93 83.1486C138.862 82.6601 138.951 82.1596 139.18 81.7426C139.409 81.3257 139.761 81.0214 140.171 80.888L140.162 81.7172L140.554 80.8161C141.013 80.7916 141.461 80.98 141.8 81.3397C142.139 81.6994 142.341 82.2011 142.363 82.7345C142.374 82.9987 142.34 83.2626 142.263 83.5114C142.186 83.7602 142.067 83.9889 141.914 84.1844C141.761 84.3799 141.577 84.5383 141.371 84.6508C141.166 84.7632 140.943 84.8273 140.716 84.8395L140.72 84.8378Z" fill="#6C63FF"/>
<path d="M144.919 81.5864C144.651 81.6023 144.383 81.5453 144.137 81.42C143.891 81.2946 143.674 81.1044 143.502 80.8643C143.33 80.6241 143.208 80.3407 143.147 80.0365C143.086 79.7323 143.086 79.4156 143.148 79.1115C143.21 78.8074 143.331 78.5242 143.504 78.2845C143.676 78.0447 143.894 77.8549 144.14 77.73C144.386 77.6052 144.654 77.5487 144.922 77.5652C145.19 77.5816 145.451 77.6705 145.685 77.8247L145.378 78.806L146.008 78.1028C146.175 78.28 146.311 78.494 146.408 78.7326C146.504 78.9712 146.559 79.2296 146.57 79.493C146.578 79.6792 146.563 79.866 146.526 80.0474C146.438 80.4722 146.234 80.8522 145.944 81.1298C145.654 81.4075 145.294 81.5677 144.919 81.5864Z" fill="#6C63FF"/>
<path opacity="0.1" d="M144.427 75.656C144.028 75.7084 143.639 75.8523 143.238 75.8818C142.838 75.9112 142.395 75.7983 142.144 75.4352C142.026 75.2248 141.92 75.0064 141.825 74.781C141.715 74.5829 141.566 74.419 141.389 74.3035C141.277 74.5587 141.213 74.8389 141.202 75.1252C141.19 75.4115 141.231 75.6975 141.322 75.9639C141.413 76.2302 141.552 76.4709 141.729 76.6698C141.906 76.8687 142.118 77.0213 142.35 77.1172C142.582 77.2132 142.829 77.2503 143.075 77.2262C143.32 77.2021 143.558 77.1173 143.773 76.9774C143.988 76.8375 144.175 76.6458 144.321 76.4151C144.467 76.1844 144.57 75.9201 144.621 75.6397C144.556 75.643 144.492 75.6479 144.427 75.656Z" fill="black"/>
<path opacity="0.1" d="M144.919 81.5863C144.621 81.6023 144.324 81.5283 144.058 81.3715C143.792 81.2147 143.565 80.9804 143.399 80.6914C143.233 80.4024 143.135 80.0685 143.113 79.7221C143.091 79.3757 143.146 79.0286 143.273 78.7144C143.411 78.8215 143.529 78.9587 143.622 79.1183C143.725 79.348 143.839 79.5703 143.965 79.784C144.233 80.1536 144.694 80.2746 145.111 80.2518C145.529 80.2289 145.932 80.0882 146.348 80.0473C146.405 80.0473 146.464 80.0359 146.522 80.0342C146.436 80.4607 146.233 80.843 145.944 81.1231C145.655 81.4032 145.295 81.5658 144.919 81.5863Z" fill="black"/>
<path opacity="0.1" d="M140.72 84.8379C140.425 84.8547 140.13 84.7829 139.865 84.6293C139.6 84.4757 139.374 84.2454 139.207 83.9606C139.041 83.6757 138.94 83.3459 138.914 83.0026C138.888 82.6594 138.939 82.3142 139.061 82.0002C139.203 82.1101 139.326 82.2485 139.426 82.4091C139.567 82.6299 139.644 82.8851 139.801 83.0879C140.094 83.4673 140.584 83.5998 141.027 83.5883C141.469 83.5769 141.87 83.4542 142.291 83.4166C142.187 83.8129 141.98 84.1621 141.699 84.4165C141.418 84.6708 141.076 84.818 140.72 84.8379Z" fill="black"/>
<path opacity="0.1" d="M141.575 88.7483C141.368 89.1975 141.023 89.5391 140.61 89.7044C140.196 89.8697 139.743 89.8463 139.344 89.6391C138.944 89.4318 138.626 89.056 138.455 88.5873C138.284 88.1186 138.271 87.5918 138.42 87.1128C138.563 87.2212 138.691 87.3541 138.799 87.5069C138.965 87.7408 139.08 87.9976 139.263 88.2233C139.617 88.6273 140.188 88.7925 140.696 88.8088C140.99 88.8085 141.283 88.7883 141.575 88.7483Z" fill="black"/>
</g>
<defs>
<clipPath id="clip0">
<rect width="154" height="94" fill="white"/>
</clipPath>
</defs>
</svg>
