<svg width="123" height="123" viewBox="0 0 123 123" fill="none" xmlns="http://www.w3.org/2000/svg">
<g opacity="0.5">
<path opacity="0.5" d="M73.7999 8.55891L26.027 8.68242C25.5063 8.68364 25.0074 8.9049 24.6401 9.29752C24.2727 9.69014 24.067 10.222 24.0681 10.776L24.2854 105.853C24.2868 106.407 24.495 106.937 24.8641 107.328C25.2333 107.719 25.7332 107.937 26.2538 107.936L74.0268 107.812C74.2846 107.812 74.5398 107.757 74.7777 107.652C75.0157 107.546 75.2318 107.392 75.4137 107.197C75.5956 107.003 75.7397 106.772 75.8379 106.519C75.936 106.265 75.9862 105.993 75.9856 105.719L75.7683 10.6423C75.767 10.0883 75.5588 9.55755 75.1897 9.16683C74.8205 8.77611 74.3206 8.55744 73.7999 8.55891Z" fill="url(#paint0_linear)"/>
</g>
<path d="M73.1087 9.8578L26.724 9.97778C25.642 9.98058 24.767 10.9162 24.7697 12.0675L24.9808 104.513C24.9835 105.664 25.8627 106.595 26.9447 106.592L73.3294 106.472C74.4114 106.469 75.2864 105.534 75.2838 104.383L75.0726 11.9373C75.0699 10.786 74.1907 9.855 73.1087 9.8578Z" fill="white"/>
<path opacity="0.3" d="M62.5584 12.3072C62.4153 13.332 61.9322 14.2685 61.1966 14.9474C60.461 15.6262 59.5214 16.0026 58.5477 16.0085L41.1728 16.0534C40.1991 16.0526 39.2578 15.6811 38.5191 15.006C37.7804 14.331 37.2931 13.397 37.1452 12.3729L27.9421 12.3967C27.4353 12.3981 26.9499 12.6135 26.5924 12.9957C26.235 13.3779 26.0349 13.8955 26.0361 14.4347L26.2365 102.139C26.2371 102.406 26.2871 102.67 26.3837 102.917C26.4803 103.163 26.6215 103.387 26.7994 103.575C26.9772 103.763 27.1882 103.913 27.4202 104.014C27.6522 104.116 27.9008 104.168 28.1517 104.167L72.1113 104.053C72.3622 104.053 72.6105 103.999 72.8421 103.897C73.0737 103.794 73.284 103.644 73.4609 103.454C73.6379 103.265 73.7781 103.041 73.8736 102.794C73.969 102.547 74.0179 102.282 74.0173 102.015L73.8169 14.3111C73.8163 14.0441 73.7663 13.7799 73.6697 13.5335C73.5731 13.2871 73.4319 13.0633 73.254 12.875C73.0762 12.6867 72.8652 12.5375 72.6332 12.4359C72.4011 12.3343 72.1526 12.2824 71.9017 12.283L62.5584 12.3072Z" fill="#6C63FF"/>
<path d="M13.0508 18.2752L81.4623 77.8927L82.361 29.1018L5.09912 26.1886L17.2998 38.6384L94.6816 44.9658L14.0822 66.5801L87.0709 91.7897L86.7973 101.342L11.4819 96.5779L13.7624 120.669L46.8349 117.529L64.5718 1.04895" stroke="white" stroke-width="4" stroke-miterlimit="10"/>
<path d="M54.7816 13.4148L44.1479 13.5849C43.9892 13.5875 43.8625 13.7264 43.8649 13.8953L43.8668 14.0292C43.8692 14.1981 43.9998 14.3329 44.1585 14.3303L54.7921 14.1602C54.9508 14.1577 55.0775 14.0188 55.0751 13.8499L55.0733 13.716C55.0709 13.5471 54.9403 13.4123 54.7816 13.4148Z" fill="#DBDBDB"/>
<path d="M57.4549 14.1176C57.6871 14.1176 57.8753 13.9173 57.8753 13.6703C57.8753 13.4233 57.6871 13.223 57.4549 13.223C57.2227 13.223 57.0345 13.4233 57.0345 13.6703C57.0345 13.9173 57.2227 14.1176 57.4549 14.1176Z" fill="#DBDBDB"/>
<g opacity="0.5">
<path opacity="0.5" d="M17.6832 20.9911H17.2522V23.5902H17.6832V20.9911Z" fill="#47E6B1"/>
<path opacity="0.5" d="M18.689 22.52V22.0613H16.2464V22.52H18.689Z" fill="#47E6B1"/>
</g>
<g opacity="0.5">
<path opacity="0.5" d="M21.1315 37.2858H20.7004V39.8849H21.1315V37.2858Z" fill="#47E6B1"/>
<path opacity="0.5" d="M22.1372 38.8147V38.356H19.6947V38.8147H22.1372Z" fill="#47E6B1"/>
</g>
<g opacity="0.5">
<path opacity="0.5" d="M87.2239 16.0988H86.7928V18.6979H87.2239V16.0988Z" fill="#47E6B1"/>
<path opacity="0.5" d="M88.2296 17.6277V17.169H85.7871V17.6277H88.2296Z" fill="#47E6B1"/>
</g>
<g opacity="0.5">
<path opacity="0.5" d="M121.994 25.6666H121.563V28.2657H121.994V25.6666Z" fill="#47E6B1"/>
<path opacity="0.5" d="M123 27.1955V26.7368H120.557V27.1955H123Z" fill="#47E6B1"/>
</g>
<path opacity="0.5" d="M4.76632 36.1095C4.64753 36.0544 4.55192 35.9548 4.49767 35.8296C4.44342 35.7044 4.43434 35.5624 4.47213 35.4305C4.47825 35.4103 4.48211 35.3894 4.48362 35.3682C4.48707 35.3078 4.47215 35.2478 4.44106 35.1971C4.40997 35.1464 4.36436 35.1078 4.31099 35.0868C4.25762 35.0659 4.19933 35.0638 4.14476 35.0808C4.09018 35.0979 4.04222 35.1332 4.00797 35.1815C3.9962 35.1987 3.98637 35.2172 3.97868 35.2368C3.92695 35.3632 3.83334 35.465 3.71568 35.5227C3.59802 35.5804 3.46453 35.5901 3.3406 35.5499C3.3216 35.5434 3.30195 35.5392 3.28204 35.5376C3.22527 35.534 3.16889 35.5498 3.12125 35.5829C3.07362 35.616 3.03727 35.6645 3.01758 35.7213C2.99789 35.7781 2.99592 35.8401 3.01195 35.8982C3.02798 35.9563 3.06116 36.0073 3.10659 36.0438C3.1227 36.0563 3.14015 36.0668 3.15857 36.0749C3.27735 36.13 3.37297 36.2296 3.42722 36.3548C3.48146 36.48 3.49055 36.622 3.45275 36.7539C3.44663 36.7741 3.44278 36.795 3.44127 36.8162C3.43781 36.8766 3.45274 36.9366 3.48383 36.9873C3.51492 37.038 3.56053 37.0767 3.61389 37.0976C3.66726 37.1185 3.72555 37.1206 3.78013 37.1036C3.83471 37.0865 3.88267 37.0512 3.91691 37.0029C3.92869 36.9857 3.93852 36.9672 3.94621 36.9476C3.99794 36.8212 4.09155 36.7194 4.20921 36.6617C4.32687 36.604 4.46036 36.5943 4.58429 36.6346C4.60329 36.6411 4.62294 36.6452 4.64284 36.6468C4.69962 36.6504 4.756 36.6346 4.80363 36.6015C4.85127 36.5684 4.88762 36.5199 4.9073 36.4631C4.92699 36.4063 4.92896 36.3443 4.91293 36.2862C4.8969 36.2281 4.86372 36.1771 4.8183 36.1407C4.80218 36.1281 4.78474 36.1177 4.76632 36.1095Z" fill="#4D8AF0"/>
<path opacity="0.5" d="M113.387 65.3103C113.268 65.2552 113.173 65.1556 113.119 65.0304C113.064 64.9052 113.055 64.7632 113.093 64.6313C113.099 64.6111 113.103 64.5902 113.104 64.569C113.108 64.5086 113.093 64.4486 113.062 64.3979C113.031 64.3472 112.985 64.3086 112.932 64.2876C112.878 64.2667 112.82 64.2646 112.766 64.2816C112.711 64.2987 112.663 64.334 112.629 64.3823C112.617 64.3995 112.607 64.418 112.6 64.4376C112.548 64.564 112.454 64.6658 112.337 64.7235C112.219 64.7812 112.085 64.7909 111.961 64.7507C111.942 64.7442 111.923 64.7401 111.903 64.7384C111.846 64.7348 111.79 64.7506 111.742 64.7837C111.694 64.8168 111.658 64.8653 111.638 64.9221C111.619 64.9789 111.617 65.0409 111.633 65.099C111.649 65.1571 111.682 65.2081 111.727 65.2446C111.744 65.2571 111.761 65.2676 111.779 65.2757C111.898 65.3308 111.994 65.4304 112.048 65.5556C112.102 65.6808 112.111 65.8228 112.074 65.9547C112.067 65.9749 112.064 65.9958 112.062 66.017C112.059 66.0774 112.074 66.1374 112.105 66.1881C112.136 66.2388 112.181 66.2775 112.235 66.2984C112.288 66.3194 112.346 66.3215 112.401 66.3044C112.456 66.2873 112.504 66.252 112.538 66.2037C112.55 66.1866 112.559 66.168 112.567 66.1484C112.619 66.022 112.712 65.9203 112.83 65.8625C112.948 65.8048 113.081 65.7951 113.205 65.8354C113.224 65.8419 113.244 65.846 113.264 65.8476C113.32 65.8513 113.377 65.8354 113.424 65.8023C113.472 65.7692 113.508 65.7207 113.528 65.6639C113.548 65.6071 113.55 65.5451 113.534 65.487C113.518 65.4289 113.485 65.3779 113.439 65.3415C113.423 65.3289 113.406 65.3185 113.387 65.3103Z" fill="#4D8AF0"/>
<path opacity="0.5" d="M105.772 18.6806C105.653 18.6256 105.558 18.526 105.504 18.4008C105.449 18.2756 105.44 18.1336 105.478 18.0017C105.484 17.9815 105.488 17.9606 105.489 17.9394C105.493 17.879 105.478 17.819 105.447 17.7683C105.416 17.7176 105.37 17.6789 105.317 17.658C105.263 17.637 105.205 17.6349 105.151 17.652C105.096 17.669 105.048 17.7043 105.014 17.7527C105.002 17.7698 104.992 17.7884 104.985 17.808C104.933 17.9344 104.839 18.0361 104.722 18.0938C104.604 18.1516 104.47 18.1612 104.346 18.121C104.327 18.1145 104.308 18.1104 104.288 18.1088C104.231 18.1051 104.175 18.121 104.127 18.1541C104.079 18.1872 104.043 18.2357 104.023 18.2925C104.004 18.3493 104.002 18.4113 104.018 18.4694C104.034 18.5274 104.067 18.5785 104.112 18.6149C104.129 18.6274 104.146 18.6379 104.164 18.6461C104.283 18.7011 104.379 18.8007 104.433 18.9259C104.487 19.0511 104.496 19.1932 104.459 19.325C104.452 19.3453 104.449 19.3662 104.447 19.3874C104.444 19.4478 104.459 19.5078 104.49 19.5584C104.521 19.6091 104.566 19.6478 104.62 19.6688C104.673 19.6897 104.731 19.6918 104.786 19.6748C104.841 19.6577 104.889 19.6224 104.923 19.5741C104.935 19.5569 104.944 19.5383 104.952 19.5187C105.004 19.3923 105.097 19.2906 105.215 19.2329C105.333 19.1752 105.466 19.1655 105.59 19.2057C105.609 19.2122 105.629 19.2163 105.649 19.2179C105.705 19.2216 105.762 19.2057 105.809 19.1726C105.857 19.1396 105.893 19.091 105.913 19.0342C105.933 18.9775 105.935 18.9154 105.919 18.8574C105.903 18.7993 105.87 18.7483 105.824 18.7118C105.808 18.6993 105.791 18.6888 105.772 18.6806Z" fill="#4D8AF0"/>
<path opacity="0.5" d="M109.22 45.2825C109.102 45.2275 109.006 45.1279 108.952 45.0027C108.898 44.8775 108.888 44.7354 108.926 44.6036C108.932 44.5833 108.936 44.5624 108.938 44.5412C108.941 44.4808 108.926 44.4208 108.895 44.3702C108.864 44.3195 108.818 44.2808 108.765 44.2598C108.712 44.2389 108.653 44.2368 108.599 44.2538C108.544 44.2709 108.496 44.3062 108.462 44.3545C108.45 44.3717 108.44 44.3903 108.433 44.4099C108.381 44.5363 108.287 44.638 108.17 44.6957C108.052 44.7534 107.919 44.7631 107.795 44.7229C107.776 44.7164 107.756 44.7123 107.736 44.7107C107.679 44.707 107.623 44.7229 107.575 44.756C107.528 44.789 107.491 44.8376 107.472 44.8944C107.452 44.9511 107.45 45.0132 107.466 45.0712C107.482 45.1293 107.515 45.1803 107.561 45.2168C107.577 45.2293 107.594 45.2398 107.613 45.248C107.731 45.303 107.827 45.4026 107.881 45.5278C107.936 45.653 107.945 45.7951 107.907 45.9269C107.901 45.9471 107.897 45.968 107.895 45.9892C107.892 46.0496 107.907 46.1096 107.938 46.1603C107.969 46.211 108.015 46.2497 108.068 46.2706C108.121 46.2916 108.18 46.2937 108.234 46.2766C108.289 46.2596 108.337 46.2242 108.371 46.1759C108.383 46.1588 108.393 46.1402 108.4 46.1206C108.452 45.9942 108.546 45.8925 108.663 45.8347C108.781 45.777 108.914 45.7674 109.038 45.8076C109.057 45.8141 109.077 45.8182 109.097 45.8198C109.154 45.8235 109.21 45.8076 109.258 45.7745C109.305 45.7414 109.342 45.6929 109.361 45.6361C109.381 45.5793 109.383 45.5173 109.367 45.4592C109.351 45.4012 109.318 45.3501 109.272 45.3137C109.256 45.3012 109.239 45.2907 109.22 45.2825Z" fill="#4D8AF0"/>
<path opacity="0.5" d="M13.3728 66.1809C13.8489 66.1809 14.2349 65.7702 14.2349 65.2636C14.2349 64.7569 13.8489 64.3463 13.3728 64.3463C12.8967 64.3463 12.5107 64.7569 12.5107 65.2636C12.5107 65.7702 12.8967 66.1809 13.3728 66.1809Z" fill="#F55F44"/>
<path opacity="0.5" d="M86.9365 35.9099C87.4127 35.9099 87.7986 35.4992 87.7986 34.9926C87.7986 34.4859 87.4127 34.0753 86.9365 34.0753C86.4604 34.0753 86.0745 34.4859 86.0745 34.9926C86.0745 35.4992 86.4604 35.9099 86.9365 35.9099Z" fill="#4D8AF0"/>
<path opacity="0.5" d="M93.9768 59.1482C94.4529 59.1482 94.8389 58.7375 94.8389 58.2309C94.8389 57.7243 94.4529 57.3136 93.9768 57.3136C93.5007 57.3136 93.1147 57.7243 93.1147 58.2309C93.1147 58.7375 93.5007 59.1482 93.9768 59.1482Z" fill="#47E6B1"/>
<path opacity="0.5" d="M4.89577 10.8369C5.37188 10.8369 5.75784 10.4262 5.75784 9.91962C5.75784 9.41301 5.37188 9.00232 4.89577 9.00232C4.41966 9.00232 4.03369 9.41301 4.03369 9.91962C4.03369 10.4262 4.41966 10.8369 4.89577 10.8369Z" fill="#F55F44"/>
<path d="M76.2142 36.0279L73.0209 36.1597L73.1801 40.5284L76.3734 40.3967L76.2142 36.0279Z" fill="#6C63FF"/>
<path d="M61.8089 51.3282C61.8089 51.3282 57.3866 49.08 57.4574 51.0216C57.5282 52.9633 61.9151 54.2408 61.9151 54.2408L61.8089 51.3282Z" fill="#FFB9B9"/>
<path d="M64.2353 67.7573C64.2353 67.7573 62.1489 73.191 61.378 77.112C60.6072 81.033 59.4332 86.4291 60.9433 90.256C62.4534 94.0829 66.7468 105.33 66.791 106.544C66.8352 107.757 66.4232 108.99 67.3356 108.952C68.248 108.914 73.2131 107.251 73.4146 106.514C73.6162 105.776 71.7207 103.91 71.7207 103.91L67.04 88.3029L71.9236 78.1353L75.4461 93.3037L76.136 112.235C76.136 112.235 79.5221 111.123 80.0136 112.075C80.0136 112.075 81.5307 109.825 81.7234 108.845C81.9161 107.864 81.007 89.185 81.007 89.185C81.007 89.185 84.1151 67.9093 81.606 68.0128C79.097 68.1163 69.2692 61.7158 64.2353 67.7573Z" fill="#2F2E41"/>
<path d="M67.3002 107.981C67.3002 107.981 64.9857 113.424 64.7665 113.677C64.5472 113.929 63.039 116.422 64.1795 116.375C65.32 116.328 68.0129 115.001 69.995 112.975C71.9771 110.948 74.5904 107.437 74.3535 107.204C74.1166 106.971 72.4934 106.309 72.4934 106.309L67.3002 107.981Z" fill="#2F2E41"/>
<path d="M76.5479 111.003C76.5479 111.003 76.4083 113.439 75.9875 114.429C75.5666 115.419 75.6197 116.875 76.7602 116.828C77.9007 116.781 80.8483 116.173 80.8483 116.173C80.8483 116.173 81.0233 114.707 80.7864 114.474C80.5494 114.241 79.5397 111.609 79.9694 110.862C80.399 110.115 76.5479 111.003 76.5479 111.003Z" fill="#2F2E41"/>
<path d="M78.2351 31.9337C78.2351 31.9337 80.6665 35.9657 81.6142 36.8989C82.562 37.832 79.8956 39.8867 79.8956 39.8867L75.1233 40.5697C75.1233 40.5697 75.1833 35.9488 74.9375 35.4728C74.6917 34.9968 78.2351 31.9337 78.2351 31.9337Z" fill="#FFB9B9"/>
<path d="M74.0871 37.2095C74.0871 37.2095 75.0702 39.1135 75.9826 39.0758C76.895 39.0382 81.6143 36.8989 81.8158 36.1613C82.0174 35.4238 83.379 41.4445 83.379 41.4445L71.8313 63.0685L69.0145 60.997L70.3793 48.3008L71.5003 41.4485L74.0871 37.2095Z" fill="#6C63FF"/>
<path d="M82.2417 56.5621C81.7811 57.5874 81.4934 58.6566 81.5333 59.7513C81.535 59.7998 81.5368 59.8483 81.5409 59.8968C81.6501 62.1431 82.4278 64.7411 82.7069 66.6305C82.9093 67.9858 82.8517 68.975 82.1063 69.2075C80.2992 69.7682 82.3698 70.169 75.3784 72.6451C68.387 75.1213 67.1669 72.9839 67.1492 72.4985C67.1316 72.0131 68.1394 68.3254 67.9024 68.0921C67.6655 67.8588 64.5871 71.1458 63.657 70.698C62.727 70.2502 63.5509 67.7855 63.5509 67.7855C63.5509 67.7855 65.6461 62.5945 65.6019 61.3809C65.5577 60.1674 68.7757 54.4439 68.7757 54.4439L70.9644 39.2829C70.9644 39.2829 71.8061 37.3036 72.9377 37.0138C74.0693 36.724 75.0083 37.4145 75.0083 37.4145L73.1146 41.868L71.1167 49.7289L71.4509 52.632C71.4509 52.632 73.7742 47.4315 75.3001 45.424C76.8261 43.4164 80.0794 38.6637 80.0794 38.6637C80.0794 38.6637 80.839 35.9367 80.2656 35.1217C79.6921 34.3044 82.6574 34.182 83.9217 37.5329C84.5918 39.3089 85.6797 41.9572 86.3613 44.4231C86.9686 46.6076 87.2554 48.6497 86.6538 49.817C85.7342 51.6002 83.421 53.9441 82.2417 56.5621Z" fill="#575A89"/>
<path opacity="0.1" d="M86.6538 49.817C85.7342 51.6002 83.421 53.9441 82.2417 56.562C81.9337 55.3812 81.5579 54.1595 81.5579 54.1595C81.5579 54.1595 80.1167 45.9544 84.3797 43.8339C85.0861 43.7612 85.7926 43.9713 86.3612 44.4231C86.9686 46.6075 87.2554 48.6497 86.6538 49.817Z" fill="black"/>
<path d="M69.7305 49.2999L66.1163 50.4214L61.0982 50.6284L60.5819 55.2681L68.8288 55.9001C68.8288 55.9001 70.8886 49.7383 69.7305 49.2999Z" fill="#575A89"/>
<path d="M75.6238 64.9001C75.6238 64.9001 70.7887 65.7537 71.8923 67.3018C72.9958 68.85 77.2791 67.2224 77.2791 67.2224L75.6238 64.9001Z" fill="#FFB9B9"/>
<path opacity="0.1" d="M81.5408 59.8968C81.6501 62.1432 82.4278 64.7411 82.7068 66.6305C81.1665 68.1817 79.7018 69.5498 79.1498 69.5726C78.0094 69.6197 76.1758 69.4523 75.5003 69.7232C74.8249 69.9942 74.4287 65.3921 74.4287 65.3921C74.4287 65.3921 74.8318 63.917 76.6301 63.1136C77.8438 62.57 80.1704 61.0958 81.5408 59.8968Z" fill="black"/>
<path d="M84.3269 42.3776C84.3269 42.3776 88.1869 41.7322 87.9783 48.5469C87.7698 55.3616 88.3852 59.7116 86.8328 60.991C85.2803 62.2704 80.2375 68.0692 79.097 68.1163C77.9565 68.1634 76.1229 67.9959 75.4475 68.2669C74.772 68.5378 74.3759 63.9358 74.3759 63.9358C74.3759 63.9358 74.779 62.4607 76.5772 61.6572C78.3755 60.8538 82.612 58.0052 82.5766 57.0343C82.5413 56.0635 81.505 52.7032 81.505 52.7032C81.505 52.7032 80.0638 44.4981 84.3269 42.3776Z" fill="#575A89"/>
<path d="M74.8313 37.9039C77.6049 37.9039 79.8532 35.5115 79.8532 32.5603C79.8532 29.6091 77.6049 27.2167 74.8313 27.2167C72.0578 27.2167 69.8094 29.6091 69.8094 32.5603C69.8094 35.5115 72.0578 37.9039 74.8313 37.9039Z" fill="#FFB9B9"/>
<path d="M71.45 24.9013C71.3289 25.0124 71.1839 25.0898 71.0278 25.1268C70.9494 25.1417 70.8688 25.1229 70.8033 25.0747C70.7379 25.0265 70.6931 24.9527 70.6786 24.8694C70.5637 25.123 70.4341 25.3932 70.1995 25.5233C69.9649 25.6534 69.6022 25.5443 69.5684 25.2651C69.5341 25.4771 69.446 25.6751 69.3135 25.8375C69.168 25.9852 68.904 26.0224 68.777 25.8566C68.8797 26.454 68.8163 27.0683 68.8486 27.6747C68.8808 28.281 69.0328 28.9238 69.4633 29.3225C70.0911 29.904 71.0353 29.7605 71.8612 29.6503C71.9861 29.6224 72.1157 29.63 72.237 29.6722C72.5462 29.8124 72.5322 30.2704 72.5363 30.6281C72.5616 31.2556 72.795 31.8533 73.1951 32.3151C73.5953 32.7768 74.1363 33.0728 74.722 33.1503C75.0498 33.2041 75.3843 33.1173 75.652 32.9088C75.8865 32.6973 76.0063 32.3526 76.2749 32.1937C76.712 31.9353 77.2421 32.3122 77.5617 32.7214C77.8813 33.1306 78.1962 33.634 78.6913 33.7089C79.346 33.808 79.8447 33.098 80.0893 32.4442C80.4269 31.528 80.5886 30.549 80.5649 29.5652C80.5413 28.5813 80.3328 27.6125 79.9516 26.7157C78.5845 23.5447 73.9145 23.0432 71.45 24.9013Z" fill="#2F2E41"/>
<path d="M66.8776 39.3048C66.2109 44.4238 56.3146 55.1292 56.3146 55.1292C56.3146 55.1292 48.8326 41.8609 49.4993 36.7418C49.6551 35.5255 50.0348 34.3538 50.6167 33.2938C51.1987 32.2338 51.9714 31.3064 52.8906 30.5646C53.8099 29.8228 54.8576 29.2812 55.9738 28.9709C57.09 28.6606 58.2528 28.5876 59.3956 28.7562C60.5383 28.9247 61.6386 29.3314 62.6334 29.9531C63.6283 30.5747 64.4981 31.3991 65.1931 32.3789C65.8881 33.3588 66.3946 34.4748 66.6837 35.6633C66.9727 36.8517 67.0387 38.0892 66.8776 39.3048Z" fill="url(#paint1_linear)"/>
<path d="M66.3073 39.4667C65.6819 44.2683 56.3994 54.3098 56.3994 54.3098C56.3994 54.3098 49.3813 41.8643 50.0067 37.0627C50.1526 35.9216 50.5087 34.8224 51.0544 33.8279C51.6002 32.8334 52.325 31.9633 53.1873 31.2674C54.0496 30.5714 55.0324 30.0633 56.0795 29.7721C57.1266 29.481 58.2174 29.4125 59.2895 29.5706C60.3615 29.7287 61.3937 30.1103 62.3269 30.6935C63.2601 31.2767 64.0761 32.0501 64.728 32.9693C65.3799 33.8886 65.8549 34.9357 66.1259 36.0506C66.3969 37.1655 66.4586 38.3264 66.3073 39.4667V39.4667Z" fill="#6C63FF"/>
<path d="M62.3228 38.1702C62.6355 35.7694 61.0645 33.5541 58.8139 33.2222C56.5633 32.8903 54.4852 34.5674 54.1725 36.9682C53.8598 39.369 55.4308 41.5843 57.6815 41.9162C59.9321 42.2481 62.0101 40.5709 62.3228 38.1702Z" fill="white"/>
<defs>
<linearGradient id="paint0_linear" x1="29.7033" y1="109.66" x2="74.8279" y2="8.83897" gradientUnits="userSpaceOnUse">
<stop stop-color="#808080" stop-opacity="0.25"/>
<stop offset="0.53514" stop-color="#808080" stop-opacity="0.12"/>
<stop offset="1" stop-color="#808080" stop-opacity="0.1"/>
</linearGradient>
<linearGradient id="paint1_linear" x1="8454.36" y1="12073" x2="9124.61" y2="7528.25" gradientUnits="userSpaceOnUse">
<stop stop-color="#808080" stop-opacity="0.25"/>
<stop offset="0.53514" stop-color="#808080" stop-opacity="0.12"/>
<stop offset="1" stop-color="#808080" stop-opacity="0.1"/>
</linearGradient>
</defs>
</svg>
