<svg width="102" height="83" viewBox="0 0 102 83" fill="none" xmlns="http://www.w3.org/2000/svg">
<g clip-path="url(#clip0)">
<path d="M101.972 0.622009H4.94116V65.8953H101.972V0.622009Z" fill="url(#paint0_linear)"/>
<path d="M100.88 8.33386H5.79016V63.921H100.88V8.33386Z" fill="white"/>
<path d="M100.88 1.97931H5.79016V8.33389H100.88V1.97931Z" fill="#6C63FF"/>
<path d="M99.7888 12.3441H7.12427V60.8363H99.7888V12.3441Z" fill="url(#paint1_linear)"/>
<path opacity="0.5" d="M19.4352 13.2078H8.27661V22.2769H19.4352V13.2078Z" fill="#6C63FF"/>
<path d="M30.715 13.2078H19.5564V22.2769H30.715V13.2078Z" fill="white"/>
<path opacity="0.2" d="M41.9949 13.2078H30.8363V22.2769H41.9949V13.2078Z" fill="#6C63FF"/>
<path d="M53.2748 13.2078H42.1162V22.2769H53.2748V13.2078Z" fill="white"/>
<path d="M64.5546 13.2078H53.396V22.2769H64.5546V13.2078Z" fill="white"/>
<path opacity="0.5" d="M75.8345 13.2078H64.6759V22.2769H75.8345V13.2078Z" fill="#6C63FF"/>
<path d="M87.1143 13.2078H75.9557V22.2769H87.1143V13.2078Z" fill="white"/>
<path opacity="0.2" d="M98.394 13.2078H87.2355V22.2769H98.394V13.2078Z" fill="#6C63FF"/>
<path opacity="0.2" d="M19.4352 22.462H8.27661V31.5312H19.4352V22.462Z" fill="#6C63FF"/>
<path opacity="0.2" d="M30.715 22.462H19.5564V31.5312H30.715V22.462Z" fill="#6C63FF"/>
<path d="M41.9949 22.462H30.8363V31.5312H41.9949V22.462Z" fill="white"/>
<path opacity="0.5" d="M53.2748 22.462H42.1162V31.5312H53.2748V22.462Z" fill="#6C63FF"/>
<path d="M64.5546 22.462H53.396V31.5312H64.5546V22.462Z" fill="white"/>
<path opacity="0.2" d="M75.8345 22.462H64.6759V31.5312H75.8345V22.462Z" fill="#6C63FF"/>
<path opacity="0.5" d="M87.1143 22.462H75.9557V31.5312H87.1143V22.462Z" fill="#6C63FF"/>
<path d="M98.394 22.462H87.2355V31.5312H98.394V22.462Z" fill="white"/>
<path d="M19.4352 31.5929H8.27661V40.6621H19.4352V31.5929Z" fill="white"/>
<path d="M30.715 31.5929H19.5564V40.6621H30.715V31.5929Z" fill="white"/>
<path opacity="0.2" d="M41.9949 31.5929H30.8363V40.6621H41.9949V31.5929Z" fill="#6C63FF"/>
<path d="M53.2748 31.5929H42.1162V40.6621H53.2748V31.5929Z" fill="white"/>
<path opacity="0.2" d="M64.5546 31.5929H53.396V40.6621H64.5546V31.5929Z" fill="#6C63FF"/>
<path d="M75.8345 31.5929H64.6759V40.6621H75.8345V31.5929Z" fill="white"/>
<path d="M87.1143 31.5929H75.9557V40.6621H87.1143V31.5929Z" fill="white"/>
<path opacity="0.2" d="M98.394 31.5929H87.2355V40.6621H98.394V31.5929Z" fill="#6C63FF"/>
<path d="M19.4352 40.7238H8.27661V49.7929H19.4352V40.7238Z" fill="white"/>
<path opacity="0.5" d="M30.715 40.7238H19.5564V49.7929H30.715V40.7238Z" fill="#6C63FF"/>
<path opacity="0.5" d="M41.9949 40.7238H30.8363V49.7929H41.9949V40.7238Z" fill="#6C63FF"/>
<path d="M53.2748 40.7238H42.1162V49.7929H53.2748V40.7238Z" fill="white"/>
<path d="M64.5546 40.7238H53.396V49.7929H64.5546V40.7238Z" fill="white"/>
<path opacity="0.5" d="M75.8345 40.7238H64.6759V49.7929H75.8345V40.7238Z" fill="#6C63FF"/>
<path d="M87.1143 40.7238H75.9557V49.7929H87.1143V40.7238Z" fill="white"/>
<path opacity="0.5" d="M98.394 40.7238H87.2355V49.7929H98.394V40.7238Z" fill="#6C63FF"/>
<path opacity="0.5" d="M19.4352 49.978H8.27661V59.0471H19.4352V49.978Z" fill="#6C63FF"/>
<path opacity="0.2" d="M30.715 49.978H19.5564V59.0471H30.715V49.978Z" fill="#6C63FF"/>
<path d="M41.9949 49.978H30.8363V59.0471H41.9949V49.978Z" fill="white"/>
<path opacity="0.5" d="M53.2748 49.978H42.1162V59.0471H53.2748V49.978Z" fill="#6C63FF"/>
<path opacity="0.2" d="M64.5546 49.978H53.396V59.0471H64.5546V49.978Z" fill="#6C63FF"/>
<path d="M75.8345 49.978H64.6759V59.0471H75.8345V49.978Z" fill="white"/>
<path opacity="0.2" d="M87.1143 49.978H75.9557V59.0471H87.1143V49.978Z" fill="#6C63FF"/>
<path d="M98.394 49.978H87.2355V59.0471H98.394V49.978Z" fill="white"/>
<path d="M12.5824 32.4566H9.18628V35.9115H12.5824V32.4566Z" fill="#69F0AE"/>
<path d="M46.3006 14.1949H42.9045V17.6498H46.3006V14.1949Z" fill="#69F0AE"/>
<path d="M45.9367 32.4566H42.5406V35.9115H45.9367V32.4566Z" fill="#69F0AE"/>
<path d="M57.4591 41.2173H54.063V44.6722H57.4591V41.2173Z" fill="#69F0AE"/>
<path d="M79.8975 32.4566H76.5015V35.9115H79.8975V32.4566Z" fill="#69F0AE"/>
<path d="M21.4291 82.0656C32.9206 82.0656 42.2362 72.5885 42.2362 60.898C42.2362 49.2075 32.9206 39.7305 21.4291 39.7305C9.93771 39.7305 0.62207 49.2075 0.62207 60.898C0.62207 72.5885 9.93771 82.0656 21.4291 82.0656Z" fill="url(#paint2_linear)"/>
<path d="M21.4291 81.4943C32.6104 81.4943 41.6746 72.273 41.6746 60.898C41.6746 49.523 32.6104 40.3018 21.4291 40.3018C10.2478 40.3018 1.18359 49.523 1.18359 60.898C1.18359 72.273 10.2478 81.4943 21.4291 81.4943Z" fill="#6C63FF"/>
<path d="M21.4291 77.6322C30.5138 77.6322 37.8783 70.14 37.8783 60.898C37.8783 51.656 30.5138 44.1639 21.4291 44.1639C12.3445 44.1639 4.97998 51.656 4.97998 60.898C4.97998 70.14 12.3445 77.6322 21.4291 77.6322Z" fill="white"/>
<path d="M21.4292 61.8987C21.9725 61.8987 22.4129 61.4506 22.4129 60.898C22.4129 60.3453 21.9725 59.8973 21.4292 59.8973C20.886 59.8973 20.4456 60.3453 20.4456 60.898C20.4456 61.4506 20.886 61.8987 21.4292 61.8987Z" fill="url(#paint3_linear)"/>
<path d="M21.8002 61.0214L21.1937 60.8141L26.6517 47.8187L27.2582 48.1086L21.8002 61.0214Z" fill="url(#paint4_linear)"/>
<path d="M26.7167 47.9381L21.3744 60.8105L21.7632 60.9775L27.1055 48.1051L26.7167 47.9381Z" fill="#2196F3"/>
<path d="M24.8324 67.8078L21.3151 61.1448L21.8002 60.898L25.4389 67.4377L24.8324 67.8078Z" fill="url(#paint5_linear)"/>
<path d="M21.7533 60.9426L21.3824 61.1476L24.8971 67.7274L25.2679 67.5224L21.7533 60.9426Z" fill="#2196F3"/>
<path d="M36.754 61.7568C36.9871 61.7568 37.1761 61.5646 37.1761 61.3274C37.1761 61.0903 36.9871 60.898 36.754 60.898C36.5209 60.898 36.3319 61.0903 36.3319 61.3274C36.3319 61.5646 36.5209 61.7568 36.754 61.7568Z" fill="#6C63FF"/>
<path d="M8.70365 53.4671C8.85504 53.2003 8.76519 52.8592 8.50298 52.7052C8.24077 52.5512 7.90548 52.6426 7.75409 52.9093C7.6027 53.1761 7.69255 53.5172 7.95476 53.6712C8.21697 53.8252 8.55226 53.7338 8.70365 53.4671Z" fill="url(#paint6_linear)"/>
<path d="M8.64324 69.5467C8.90545 69.3927 8.99529 69.0516 8.8439 68.7848C8.69251 68.5181 8.35723 68.4267 8.09502 68.5807C7.8328 68.7347 7.74296 69.0758 7.89435 69.3426C8.04574 69.6093 8.38103 69.7007 8.64324 69.5467Z" fill="url(#paint7_linear)"/>
<path d="M6.1056 61.8851C6.40837 61.8851 6.65382 61.6354 6.65382 61.3274C6.65382 61.0194 6.40837 60.7697 6.1056 60.7697C5.80282 60.7697 5.55737 61.0194 5.55737 61.3274C5.55737 61.6354 5.80282 61.8851 6.1056 61.8851Z" fill="url(#paint8_linear)"/>
<path d="M14.0976 47.9503C14.3598 47.7963 14.4496 47.4552 14.2983 47.1884C14.1469 46.9216 13.8116 46.8302 13.5494 46.9843C13.2872 47.1383 13.1973 47.4794 13.3487 47.7461C13.5001 48.0129 13.8354 48.1043 14.0976 47.9503Z" fill="url(#paint9_linear)"/>
<path d="M21.6896 45.9487C21.9518 45.7947 22.0417 45.4536 21.8903 45.1868C21.7389 44.9201 21.4036 44.8287 21.1414 44.9827C20.8792 45.1367 20.7893 45.4778 20.9407 45.7445C21.0921 46.0113 21.4274 46.1027 21.6896 45.9487Z" fill="url(#paint10_linear)"/>
<path d="M29.2815 47.9509C29.5438 47.7969 29.6336 47.4558 29.4822 47.1891C29.3308 46.9223 28.9955 46.8309 28.7333 46.9849C28.4711 47.1389 28.3813 47.48 28.5327 47.7468C28.684 48.0136 29.0193 48.1049 29.2815 47.9509Z" fill="url(#paint11_linear)"/>
<path d="M34.9048 53.6722C35.167 53.5182 35.2569 53.1771 35.1055 52.9103C34.9541 52.6436 34.6188 52.5522 34.3566 52.7062C34.0944 52.8602 34.0046 53.2013 34.1559 53.4681C34.3073 53.7348 34.6426 53.8262 34.9048 53.6722Z" fill="url(#paint12_linear)"/>
<path d="M34.7648 69.5479C35.027 69.3939 35.1169 69.0528 34.9655 68.7861C34.8141 68.5193 34.4788 68.4279 34.2166 68.5819C33.9544 68.7359 33.8645 69.077 34.0159 69.3438C34.1673 69.6105 34.5026 69.7019 34.7648 69.5479Z" fill="url(#paint13_linear)"/>
<path d="M29.0002 75.1255C29.2624 74.9715 29.3522 74.6304 29.2008 74.3636C29.0495 74.0969 28.7142 74.0055 28.4519 74.1595C28.1897 74.3135 28.0999 74.6546 28.2513 74.9214C28.4027 75.1881 28.738 75.2795 29.0002 75.1255Z" fill="url(#paint14_linear)"/>
<path d="M21.689 76.8427C21.9512 76.6886 22.0411 76.3476 21.8897 76.0808C21.7383 75.814 21.403 75.7226 21.1408 75.8767C20.8786 76.0307 20.7887 76.3718 20.9401 76.6385C21.0915 76.9053 21.4268 76.9967 21.689 76.8427Z" fill="url(#paint15_linear)"/>
<path d="M14.3788 75.1261C14.641 74.9721 14.7309 74.631 14.5795 74.3642C14.4281 74.0975 14.0928 74.0061 13.8306 74.1601C13.5684 74.3141 13.4786 74.6552 13.6299 74.922C13.7813 75.1887 14.1166 75.2801 14.3788 75.1261Z" fill="url(#paint16_linear)"/>
<path d="M21.429 45.8802C21.6622 45.8802 21.8511 45.688 21.8511 45.4508C21.8511 45.2137 21.6622 45.0214 21.429 45.0214C21.1959 45.0214 21.007 45.2137 21.007 45.4508C21.007 45.688 21.1959 45.8802 21.429 45.8802Z" fill="#69F0AE"/>
<path d="M29.3867 47.7347C29.5033 47.5293 29.4341 47.2667 29.2322 47.1481C29.0303 47.0295 28.7722 47.0999 28.6556 47.3053C28.5391 47.5106 28.6082 47.7732 28.8101 47.8918C29.012 48.0104 29.2701 47.94 29.3867 47.7347Z" fill="#69F0AE"/>
<path d="M34.7893 53.5464C34.9912 53.4278 35.0604 53.1652 34.9438 52.9598C34.8273 52.7544 34.5691 52.6841 34.3672 52.8026C34.1654 52.9212 34.0962 53.1838 34.2128 53.3892C34.3293 53.5946 34.5875 53.6649 34.7893 53.5464Z" fill="#69F0AE"/>
<path d="M34.8559 69.2787C34.9725 69.0733 34.9033 68.8107 34.7014 68.6921C34.4996 68.5735 34.2414 68.6439 34.1249 68.8493C34.0083 69.0546 34.0775 69.3173 34.2793 69.4358C34.4812 69.5544 34.7394 69.484 34.8559 69.2787Z" fill="#69F0AE"/>
<path d="M28.9372 74.985C29.139 74.8664 29.2082 74.6038 29.0916 74.3984C28.9751 74.193 28.717 74.1227 28.5151 74.2412C28.3132 74.3598 28.244 74.6224 28.3606 74.8278C28.4771 75.0332 28.7353 75.1035 28.9372 74.985Z" fill="#69F0AE"/>
<path d="M14.048 47.8931C14.2499 47.7745 14.319 47.5119 14.2025 47.3065C14.0859 47.1012 13.8278 47.0308 13.6259 47.1494C13.424 47.268 13.3549 47.5306 13.4714 47.7359C13.588 47.9413 13.8461 48.0117 14.048 47.8931Z" fill="#69F0AE"/>
<path d="M8.64597 53.3895C8.76252 53.1841 8.69336 52.9215 8.49148 52.8029C8.2896 52.6844 8.03146 52.7547 7.9149 52.9601C7.79834 53.1655 7.86751 53.4281 8.06939 53.5467C8.27127 53.6652 8.52941 53.5949 8.64597 53.3895Z" fill="#69F0AE"/>
<path d="M37.0147 61.825C37.2769 61.671 37.3668 61.3299 37.2154 61.0631C37.064 60.7963 36.7287 60.7049 36.4665 60.859C36.2043 61.013 36.1144 61.3541 36.2658 61.6208C36.4172 61.8876 36.7525 61.979 37.0147 61.825Z" fill="#69F0AE"/>
<path d="M8.58023 69.4355C8.78211 69.317 8.85127 69.0543 8.73472 68.849C8.61816 68.6436 8.36002 68.5732 8.15814 68.6918C7.95626 68.8104 7.88709 69.073 8.00364 69.2784C8.1202 69.4838 8.37835 69.5541 8.58023 69.4355Z" fill="#69F0AE"/>
<path d="M14.4978 74.8284C14.6143 74.623 14.5452 74.3604 14.3433 74.2418C14.1414 74.1233 13.8833 74.1936 13.7667 74.399C13.6501 74.6044 13.7193 74.867 13.9212 74.9856C14.1231 75.1041 14.3812 75.0338 14.4978 74.8284Z" fill="#69F0AE"/>
<path d="M6.10543 61.7568C6.33854 61.7568 6.52752 61.5646 6.52752 61.3274C6.52752 61.0903 6.33854 60.898 6.10543 60.898C5.87232 60.898 5.68335 61.0903 5.68335 61.3274C5.68335 61.5646 5.87232 61.7568 6.10543 61.7568Z" fill="#69F0AE"/>
<path d="M21.429 76.7734C21.6622 76.7734 21.8511 76.5811 21.8511 76.344C21.8511 76.1068 21.6622 75.9146 21.429 75.9146C21.1959 75.9146 21.007 76.1068 21.007 76.344C21.007 76.5811 21.1959 76.7734 21.429 76.7734Z" fill="#69F0AE"/>
<path opacity="0.2" d="M5.82413 62.4712C5.82522 58.7837 7.02336 55.1998 9.23243 52.2762C11.4415 49.3526 14.5378 47.2531 18.0404 46.3037C21.5429 45.3544 25.2556 45.6084 28.6016 47.0263C31.9477 48.4443 34.7398 50.9467 36.5441 54.1448C35.6587 52.0525 34.3628 50.1661 32.7356 48.6011C31.1085 47.0361 29.1845 45.8255 27.0814 45.0434C24.9783 44.2613 22.7404 43.9242 20.5048 44.0528C18.2692 44.1814 16.0829 44.7729 14.0798 45.7911C12.0767 46.8093 10.2991 48.2328 8.85569 49.9743C7.4123 51.7159 6.33359 53.7389 5.6856 55.9194C5.03761 58.1 4.834 60.3921 5.08723 62.6555C5.34047 64.9189 6.04521 67.1058 7.15831 69.0824C6.27533 66.9942 5.82131 64.7444 5.82413 62.4712Z" fill="#6C63FF"/>
<path d="M21.4292 61.6137C21.8177 61.6137 22.1327 61.2933 22.1327 60.898C22.1327 60.5028 21.8177 60.1824 21.4292 60.1824C21.0407 60.1824 20.7257 60.5028 20.7257 60.898C20.7257 61.2933 21.0407 61.6137 21.4292 61.6137Z" fill="#69F0AE"/>
</g>
<defs>
<linearGradient id="paint0_linear" x1="53.4566" y1="65.8953" x2="53.4566" y2="0.622009" gradientUnits="userSpaceOnUse">
<stop stop-color="#808080" stop-opacity="0.25"/>
<stop offset="0.54" stop-color="#808080" stop-opacity="0.12"/>
<stop offset="1" stop-color="#808080" stop-opacity="0.1"/>
</linearGradient>
<linearGradient id="paint1_linear" x1="40372.7" y1="23676.6" x2="40372.7" y2="4619.11" gradientUnits="userSpaceOnUse">
<stop stop-color="#808080" stop-opacity="0.25"/>
<stop offset="0.54" stop-color="#808080" stop-opacity="0.12"/>
<stop offset="1" stop-color="#808080" stop-opacity="0.1"/>
</linearGradient>
<linearGradient id="paint2_linear" x1="7139.53" y1="27983" x2="7139.53" y2="13457.8" gradientUnits="userSpaceOnUse">
<stop stop-color="#808080" stop-opacity="0.25"/>
<stop offset="0.54" stop-color="#808080" stop-opacity="0.12"/>
<stop offset="1" stop-color="#808080" stop-opacity="0.1"/>
</linearGradient>
<linearGradient id="paint3_linear" x1="357.936" y1="1053.8" x2="357.936" y2="1021.32" gradientUnits="userSpaceOnUse">
<stop stop-color="#808080" stop-opacity="0.25"/>
<stop offset="0.54" stop-color="#808080" stop-opacity="0.12"/>
<stop offset="1" stop-color="#808080" stop-opacity="0.1"/>
</linearGradient>
<linearGradient id="paint4_linear" x1="1201.39" y1="6510.55" x2="1201.39" y2="5097.86" gradientUnits="userSpaceOnUse">
<stop stop-color="#808080" stop-opacity="0.25"/>
<stop offset="0.54" stop-color="#808080" stop-opacity="0.12"/>
<stop offset="1" stop-color="#808080" stop-opacity="0.1"/>
</linearGradient>
<linearGradient id="paint5_linear" x1="794.984" y1="3823.3" x2="794.984" y2="3436.35" gradientUnits="userSpaceOnUse">
<stop stop-color="#808080" stop-opacity="0.25"/>
<stop offset="0.54" stop-color="#808080" stop-opacity="0.12"/>
<stop offset="1" stop-color="#808080" stop-opacity="0.1"/>
</linearGradient>
<linearGradient id="paint6_linear" x1="-443.875" y1="936.674" x2="-435.227" y2="931.767" gradientUnits="userSpaceOnUse">
<stop stop-color="#808080" stop-opacity="0.25"/>
<stop offset="0.54" stop-color="#808080" stop-opacity="0.12"/>
<stop offset="1" stop-color="#808080" stop-opacity="0.1"/>
</linearGradient>
<linearGradient id="paint7_linear" x1="277.624" y1="826.09" x2="277.624" y2="816.018" gradientUnits="userSpaceOnUse">
<stop stop-color="#808080" stop-opacity="0.25"/>
<stop offset="0.54" stop-color="#808080" stop-opacity="0.12"/>
<stop offset="1" stop-color="#808080" stop-opacity="0.1"/>
</linearGradient>
<linearGradient id="paint8_linear" x1="-85.1839" y1="955.331" x2="-80.099" y2="946.673" gradientUnits="userSpaceOnUse">
<stop stop-color="#808080" stop-opacity="0.25"/>
<stop offset="0.54" stop-color="#808080" stop-opacity="0.12"/>
<stop offset="1" stop-color="#808080" stop-opacity="0.1"/>
</linearGradient>
<linearGradient id="paint9_linear" x1="-748.385" y1="721.339" x2="-738.473" y2="721.339" gradientUnits="userSpaceOnUse">
<stop stop-color="#808080" stop-opacity="0.25"/>
<stop offset="0.54" stop-color="#808080" stop-opacity="0.12"/>
<stop offset="1" stop-color="#808080" stop-opacity="0.1"/>
</linearGradient>
<linearGradient id="paint10_linear" x1="-677.793" y1="710.966" x2="-667.881" y2="710.966" gradientUnits="userSpaceOnUse">
<stop stop-color="#808080" stop-opacity="0.25"/>
<stop offset="0.54" stop-color="#808080" stop-opacity="0.12"/>
<stop offset="1" stop-color="#808080" stop-opacity="0.1"/>
</linearGradient>
<linearGradient id="paint11_linear" x1="-611.121" y1="736.785" x2="-601.22" y2="736.785" gradientUnits="userSpaceOnUse">
<stop stop-color="#808080" stop-opacity="0.25"/>
<stop offset="0.54" stop-color="#808080" stop-opacity="0.12"/>
<stop offset="1" stop-color="#808080" stop-opacity="0.1"/>
</linearGradient>
<linearGradient id="paint12_linear" x1="-565.907" y1="794.232" x2="-555.996" y2="794.232" gradientUnits="userSpaceOnUse">
<stop stop-color="#808080" stop-opacity="0.25"/>
<stop offset="0.54" stop-color="#808080" stop-opacity="0.12"/>
<stop offset="1" stop-color="#808080" stop-opacity="0.1"/>
</linearGradient>
<linearGradient id="paint13_linear" x1="-582.79" y1="937.6" x2="-572.878" y2="937.6" gradientUnits="userSpaceOnUse">
<stop stop-color="#808080" stop-opacity="0.25"/>
<stop offset="0.54" stop-color="#808080" stop-opacity="0.12"/>
<stop offset="1" stop-color="#808080" stop-opacity="0.1"/>
</linearGradient>
<linearGradient id="paint14_linear" x1="-640.375" y1="982.168" x2="-630.474" y2="982.167" gradientUnits="userSpaceOnUse">
<stop stop-color="#808080" stop-opacity="0.25"/>
<stop offset="0.54" stop-color="#808080" stop-opacity="0.12"/>
<stop offset="1" stop-color="#808080" stop-opacity="0.1"/>
</linearGradient>
<linearGradient id="paint15_linear" x1="-708.16" y1="990.239" x2="-698.248" y2="990.239" gradientUnits="userSpaceOnUse">
<stop stop-color="#808080" stop-opacity="0.25"/>
<stop offset="0.54" stop-color="#808080" stop-opacity="0.12"/>
<stop offset="1" stop-color="#808080" stop-opacity="0.1"/>
</linearGradient>
<linearGradient id="paint16_linear" x1="-772.554" y1="967.285" x2="-762.653" y2="967.285" gradientUnits="userSpaceOnUse">
<stop stop-color="#808080" stop-opacity="0.25"/>
<stop offset="0.54" stop-color="#808080" stop-opacity="0.12"/>
<stop offset="1" stop-color="#808080" stop-opacity="0.1"/>
</linearGradient>
<clipPath id="clip0">
<rect width="101.35" height="81.4435" fill="white" transform="translate(0.62207 0.622009)"/>
</clipPath>
</defs>
</svg>
