<svg width="152" height="110" viewBox="0 0 152 110" fill="none" xmlns="http://www.w3.org/2000/svg">
<path opacity="0.1" d="M1.63574 74.3792C4.041 87.2145 9.13278 98.3096 17.1799 103.688C33.9031 114.864 71.6183 109.1 99.7665 102.477C113.989 99.1431 126.899 89.931 136.419 76.3235L1.63574 74.3792Z" fill="#6C63FF"/>
<path opacity="0.1" d="M149.243 13.9649H133.799C133.445 13.9649 133.105 13.7893 132.855 13.4767C132.605 13.1641 132.464 12.7402 132.464 12.2982C132.464 11.8561 132.605 11.4322 132.855 11.1196C133.105 10.8071 133.445 10.6315 133.799 10.6315H136.469C136.115 10.6315 135.775 10.4559 135.525 10.1433C135.275 9.83074 135.134 9.40682 135.134 8.96478C135.134 8.52275 135.275 8.09882 135.525 7.78625C135.775 7.47369 136.115 7.29809 136.469 7.29809H134.561C134.207 7.29809 133.867 7.1225 133.617 6.80993C133.367 6.49736 133.226 6.07344 133.226 5.6314C133.226 5.18937 133.367 4.76544 133.617 4.45287C133.867 4.14031 134.207 3.96471 134.561 3.96471H142.625C140.836 2.92681 138.745 2.18818 136.337 1.8007C114.357 -1.7247 106.51 0.607113 103.742 3.01158C100.326 5.96958 96.5161 8.14571 92.4441 9.19399C78.8799 12.6831 53.5179 16.8848 30.5364 7.83953C19.1114 3.34197 10.6195 10.9394 5.53052 23.6294H151.926C151.735 19.9414 151.162 16.5371 150.112 13.5549C149.872 13.8177 149.563 13.9633 149.243 13.9649Z" fill="#6C63FF"/>
<path opacity="0.1" d="M0.332082 47.5893C-0.260849 55.0544 -0.0591176 62.5847 0.932011 69.9837L136.529 76.1678C140.303 70.7467 143.472 64.7124 145.95 58.2295L0.332082 47.5893ZM53.9516 63.5643H51.2873C51.6413 63.5643 51.9809 63.7399 52.2312 64.0524C52.4816 64.365 52.6222 64.7889 52.6222 65.231C52.6222 65.673 52.4816 66.0969 52.2312 66.4095C51.9809 66.7221 51.6413 66.8976 51.2873 66.8976H35.8429C35.4889 66.8976 35.1493 66.7221 34.899 66.4095C34.6486 66.0969 34.508 65.673 34.508 65.231C34.508 64.7889 34.6486 64.365 34.899 64.0524C35.1493 63.7399 35.4889 63.5643 35.8429 63.5643H38.5128C38.1588 63.5643 37.8192 63.3887 37.5689 63.0761C37.3185 62.7635 37.1779 62.3396 37.1779 61.8976C37.1779 61.4555 37.3185 61.0316 37.5689 60.719C37.8192 60.4065 38.1588 60.2309 38.5128 60.2309H36.6049C36.2509 60.2309 35.9114 60.0553 35.661 59.7427C35.4106 59.4302 35.27 59.0062 35.27 58.5642C35.27 58.1222 35.4106 57.6982 35.661 57.3857C35.9114 57.0731 36.2509 56.8975 36.6049 56.8975H52.0493C52.4034 56.8975 52.7429 57.0731 52.9933 57.3857C53.2436 57.6982 53.3843 58.1222 53.3843 58.5642C53.3843 59.0062 53.2436 59.4302 52.9933 59.7427C52.7429 60.0553 52.4034 60.2309 52.0493 60.2309H53.9516C54.3057 60.2309 54.6452 60.4065 54.8956 60.719C55.1459 61.0316 55.2866 61.4555 55.2866 61.8976C55.2866 62.3396 55.1459 62.7635 54.8956 63.0761C54.6452 63.3887 54.3057 63.5643 53.9516 63.5643Z" fill="#6C63FF"/>
<path opacity="0.1" d="M151.931 23.754L3.89015 28.2515C2.08897 34.0309 0.896041 40.5662 0.344604 47.3385H149.338C150.311 43.3598 151.032 39.2912 151.492 35.1708C151.931 31.1922 152.11 27.3364 151.931 23.754ZM30.3979 38.4817H27.7335C28.0876 38.4817 28.4271 38.6573 28.6775 38.9699C28.9278 39.2825 29.0685 39.7064 29.0685 40.1484C29.0685 40.5905 28.9278 41.0144 28.6775 41.327C28.4271 41.6395 28.0876 41.8151 27.7335 41.8151H12.2892C11.9351 41.8151 11.5956 41.6395 11.3452 41.327C11.0949 41.0144 10.9542 40.5905 10.9542 40.1484C10.9542 39.7064 11.0949 39.2825 11.3452 38.9699C11.5956 38.6573 11.9351 38.4817 12.2892 38.4817H14.9591C14.605 38.4817 14.2655 38.3061 14.0151 37.9936C13.7648 37.681 13.6241 37.2571 13.6241 36.815C13.6241 36.373 13.7648 35.9491 14.0151 35.6365C14.2655 35.3239 14.605 35.1484 14.9591 35.1484H13.0512C12.6971 35.1484 12.3576 34.9728 12.1072 34.6602C11.8569 34.3476 11.7162 33.9237 11.7162 33.4817C11.7162 33.0396 11.8569 32.6157 12.1072 32.3031C12.3576 31.9906 12.6971 31.815 13.0512 31.815H28.4956C28.8496 31.815 29.1892 31.9906 29.4395 32.3031C29.6899 32.6157 29.8305 33.0396 29.8305 33.4817C29.8305 33.9237 29.6899 34.3476 29.4395 34.6602C29.1892 34.9728 28.8496 35.1484 28.4956 35.1484H30.3979C30.7519 35.1484 31.0915 35.3239 31.3418 35.6365C31.5922 35.9491 31.7328 36.373 31.7328 36.815C31.7328 37.2571 31.5922 37.681 31.3418 37.9936C31.0915 38.3061 30.7519 38.4817 30.3979 38.4817Z" fill="#6C63FF"/>
</svg>
