<svg width="156" height="120" viewBox="0 0 156 120" fill="none" xmlns="http://www.w3.org/2000/svg">
<g clip-path="url(#clip0)">
<path opacity="0.1" d="M51.8635 119.933C59.4606 119.933 65.6193 118.858 65.6193 117.533C65.6193 116.208 59.4606 115.134 51.8635 115.134C44.2664 115.134 38.1078 116.208 38.1078 117.533C38.1078 118.858 44.2664 119.933 51.8635 119.933Z" fill="#6C63FF"/>
<path opacity="0.1" d="M126.638 120C136.118 120 143.803 118.926 143.803 117.601C143.803 116.276 136.118 115.201 126.638 115.201C117.158 115.201 109.473 116.276 109.473 117.601C109.473 118.926 117.158 120 126.638 120Z" fill="#6C63FF"/>
<path opacity="0.1" d="M1.95379 51.8486H16.2813V73.0557H3.0027C2.9674 73.2734 2.93352 73.4926 2.89682 73.7118H16.2813V90.8148C16.2573 90.8072 16.2361 90.798 16.2135 90.7888C15.8352 90.6263 15.4597 90.4545 15.0841 90.2706L14.8442 90.1525C14.4677 89.9594 14.0912 89.755 13.7148 89.5393C13.5835 89.4642 13.4522 89.386 13.3223 89.3063C11.2324 88.0349 9.33381 86.4239 7.69241 84.5292C7.64441 84.4786 7.59924 84.425 7.55124 84.3759C7.32254 84.1061 7.09808 83.8332 6.88067 83.5542L6.64068 83.2476C6.38375 82.9057 6.13529 82.5546 5.89389 82.1989C5.85859 82.1468 5.82471 82.0947 5.78801 82.0456C4.80623 80.5673 3.99104 78.9666 3.35986 77.2778C3.3401 77.2272 3.32316 77.172 3.3048 77.1245C3.11093 76.5828 2.93917 76.036 2.78953 75.4841C2.72459 75.2526 2.66247 75.0241 2.60883 74.7834C2.58906 74.7129 2.57212 74.6439 2.55659 74.575C1.75474 71.1761 1.66016 67.6454 1.66016 64.1393C1.66016 63.73 1.66016 63.3191 1.66016 62.9128C1.66016 61.4947 1.67569 60.0675 1.69827 58.6417C1.69827 58.2722 1.71239 57.9043 1.71945 57.5333C1.73921 56.592 1.76745 55.6507 1.80415 54.7094C1.81262 54.4472 1.82392 54.1866 1.83662 53.926C1.83662 53.7757 1.84368 53.6255 1.8578 53.4752C1.89168 52.9295 1.91991 52.3883 1.95379 51.8486Z" fill="#6C63FF"/>
<path opacity="0.1" d="M16.2814 28.2362H8.42236C9.69989 26.0647 11.0957 23.978 12.6024 21.9874C13.7699 20.4298 15.0024 18.912 16.2814 17.4495V28.2362Z" fill="#6C63FF"/>
<path opacity="0.1" d="M16.2813 28.8923V51.1925H1.99902C1.99902 51.1281 2.00891 51.0621 2.01314 50.9978C2.02585 50.8215 2.03855 50.6452 2.05267 50.4704C2.0682 50.2649 2.08514 50.058 2.10349 49.8572C2.12184 49.6563 2.14161 49.411 2.16278 49.1887C2.18396 48.9664 2.20372 48.7411 2.22772 48.5188C2.25172 48.2965 2.2729 48.0742 2.29831 47.8534C2.32372 47.6327 2.34631 47.4088 2.37313 47.1881C2.3943 47.0041 2.41689 46.8217 2.43948 46.6377C2.47195 46.3786 2.50583 46.118 2.54253 45.8604C2.54253 45.8221 2.55241 45.7822 2.55806 45.7454C2.81573 43.86 3.16681 41.991 3.60979 40.1466C4.07348 38.2119 4.66559 36.3161 5.38149 34.4743C6.14235 32.5475 7.03321 30.6843 8.0468 28.9L16.2813 28.8923Z" fill="#6C63FF"/>
<path opacity="0.1" d="M19.7019 51.8466V73.0552H50.3036V51.8466H19.7019ZM19.7019 73.7098V91.9227C19.877 91.9626 20.0506 92.0009 20.2228 92.0331C20.4572 92.0822 20.6901 92.1266 20.9287 92.165C20.9739 92.1726 21.0204 92.1803 21.0699 92.1849C21.163 92.2018 21.259 92.2156 21.3522 92.2294C21.588 92.2646 21.8223 92.2937 22.0581 92.3167C22.1696 92.329 22.2825 92.3397 22.3955 92.3489L22.6679 92.3719C22.8161 92.3842 22.963 92.3934 23.1084 92.398C23.1987 92.398 23.2891 92.4072 23.3822 92.4103C23.4528 92.4103 23.5234 92.4103 23.5968 92.4103C23.6702 92.4103 23.7747 92.4103 23.8636 92.4103C23.985 92.4103 24.1065 92.4103 24.2264 92.4103H24.3888C24.5102 92.4103 24.6316 92.4103 24.7516 92.398H24.7601C24.8434 92.398 24.9281 92.398 25.0128 92.3857C25.0363 92.3873 25.0598 92.3873 25.0834 92.3857C25.1539 92.3857 25.2245 92.3857 25.2923 92.375H25.3417L25.8146 92.3351C25.9699 92.3198 26.1266 92.2999 26.2847 92.2815L26.6066 92.2401C27.9161 92.0408 29.211 91.7417 30.4818 91.3448C33.3362 90.4801 36.1286 89.2705 38.9817 88.3844C42.6705 87.2423 46.7461 86.6812 50.3107 88.0778V73.7098H19.7019ZM50.3036 28.2357V0.00104232C46.9533 -0.0383767 43.612 0.387175 40.3609 1.26736C32.612 3.38148 25.6593 7.96691 19.7019 13.8233V28.2342H21.2378V28.8888H19.7019V51.192H50.3036V28.8903H27.544V28.2357H50.3036ZM89.61 18.6984C87.6929 18.6249 85.7871 17.9656 84.0634 16.9477C80.767 15.0007 78.1342 11.9943 75.1921 9.45706C69.0794 4.17254 61.4985 0.983744 53.7214 0.192677V28.2357H97.4069L97.5156 28.1115L89.61 18.6984ZM93.5896 17.9319L97.8092 22.9604V16.6135C96.3961 16.8036 95.158 17.2558 93.5952 17.9258L93.5896 17.9319ZM97.8092 96.4453V73.7098H88.818C88.794 73.6132 88.77 73.5151 88.7418 73.417C88.7686 73.5151 88.7912 73.6132 88.8166 73.7098H53.727V90.152C54.0602 90.4203 54.3891 90.7024 54.7152 90.9891C55.0667 91.2957 55.414 91.6192 55.7627 91.9365L56.1142 92.2524C56.2822 92.4057 56.4516 92.559 56.6225 92.7031C56.9613 93.0015 57.3034 93.2959 57.6488 93.5861C57.8196 93.7394 57.9946 93.8774 58.1683 94.0215C60.9249 96.3104 63.8329 98.3759 66.8687 100.201C67.5491 100.61 68.2357 101.009 68.9284 101.399C69.39 101.655 69.8545 101.909 70.3203 102.156C71.0205 102.527 71.7264 102.885 72.4379 103.229C78.9976 106.427 85.934 108.621 93.0489 109.749C94.6291 110.003 96.2154 110.202 97.8078 110.347V96.4438H97.949L97.8092 96.4453ZM53.727 28.8903V51.192H97.8149V28.8903H53.727ZM53.727 51.8466V73.0552H97.8149V51.8466H53.727ZM101.237 16.5859V23.6656L106.623 17.2481C104.838 16.9354 103.043 16.7121 101.237 16.5782V16.5859ZM101.237 51.8543V73.0552H144.118V51.8466L101.237 51.8543ZM143.961 98.1286L144.112 73.7098H101.237V110.591C103.999 110.717 106.765 110.681 109.524 110.484H109.572C110.889 110.394 112.201 110.263 113.506 110.091H113.536C120.5 109.211 127.309 107.238 133.751 104.233L143.961 98.1286ZM152.386 55.339C152.225 54.9266 152.057 54.5172 151.886 54.1125C151.567 53.346 151.23 52.6009 150.883 51.8558H147.537V73.0552H155.996C155.992 67.0517 154.593 60.9193 152.39 55.3313L152.386 55.339ZM147.537 73.7175V94.7206C149.92 92.2401 151.933 89.4024 153.383 86.1584C155.126 82.2521 155.924 78.0223 155.989 73.7144L147.537 73.7175ZM147.537 45.6744V51.1935H150.569C149.652 49.2936 148.641 47.4487 147.541 45.6668L147.537 45.6744ZM118.456 20.7466C118.232 20.6546 118.009 20.5611 117.785 20.4707C115.418 19.5213 112.999 18.7318 110.541 18.1067L102.3 27.9291L102.142 28.1115L102.248 28.2372H131.58C127.495 25.1834 123.091 22.6664 118.46 20.739L118.456 20.7466ZM132.44 28.898H101.838L101.237 29.4959V51.192H106.508H106.517H144.123V40.6827C140.721 36.2147 136.795 32.2502 132.444 28.8903L132.44 28.898Z" fill="#6C63FF"/>
<path opacity="0.1" d="M16.2813 40.1405V51.1925H1.99902C1.99902 51.1281 2.00891 51.0622 2.01314 50.9978C2.02585 50.8215 2.03855 50.6452 2.05267 50.4704C2.0682 50.265 2.08514 50.058 2.10349 49.8572C2.12184 49.6563 2.14161 49.411 2.16278 49.1887C2.18396 48.9664 2.20372 48.7411 2.22772 48.5188C2.25172 48.2965 2.2729 48.0742 2.29831 47.8534C2.32372 47.6327 2.34631 47.4088 2.37313 47.1881C2.3943 47.0041 2.41689 46.8217 2.43948 46.6377C2.47195 46.3786 2.50583 46.118 2.54253 45.8604C2.54253 45.8221 2.55241 45.7822 2.55806 45.7454C2.81573 43.86 3.16681 41.991 3.60979 40.1466L16.2813 40.1405Z" fill="#6C63FF"/>
<path opacity="0.1" d="M1.95379 51.8486H16.2813V73.0557H3.0027C2.9674 73.2734 2.93352 73.4926 2.89682 73.7118H16.2813V90.8148C16.2573 90.8072 16.2361 90.798 16.2135 90.7888C15.8352 90.6263 15.4597 90.4545 15.0841 90.2706L14.8442 90.1525C14.4677 89.9594 14.0912 89.755 13.7148 89.5393C13.5835 89.4642 13.4522 89.386 13.3223 89.3063C11.2324 88.0349 9.33381 86.4239 7.69241 84.5292C7.64441 84.4786 7.59924 84.425 7.55124 84.3759C7.32254 84.1061 7.09808 83.8332 6.88067 83.5542L6.64068 83.2476C6.38375 82.9057 6.13529 82.5546 5.89389 82.1989C5.85859 82.1468 5.82471 82.0947 5.78801 82.0456C4.80623 80.5673 3.99104 78.9666 3.35986 77.2778C3.3401 77.2272 3.32316 77.172 3.3048 77.1245C3.11093 76.5828 2.93917 76.036 2.78953 75.4841C2.72459 75.2526 2.66247 75.0241 2.60883 74.7834C2.58906 74.7129 2.57212 74.6439 2.55659 74.575C1.75474 71.1761 1.66016 67.6454 1.66016 64.1393C1.66016 63.73 1.66016 63.3191 1.66016 62.9128C1.66016 61.4947 1.67569 60.0675 1.69827 58.6417C1.69827 58.2722 1.71239 57.9043 1.71945 57.5333C1.73921 56.592 1.76745 55.6507 1.80415 54.7094C1.81262 54.4472 1.82392 54.1866 1.83662 53.926C1.83662 53.7757 1.84368 53.6255 1.8578 53.4752C1.89168 52.9295 1.91991 52.3883 1.95379 51.8486Z" fill="#6C63FF"/>
<path opacity="0.1" d="M30.4747 32.0842V51.1925H19.7019V32.0842H21.2378V25.6146H27.5426V32.0842H30.4747Z" fill="#6C63FF"/>
<path opacity="0.1" d="M30.4746 51.8471H19.7032V73.0541H30.4746V51.8471Z" fill="#6C63FF"/>
<path opacity="0.1" d="M19.7019 73.7119H30.4747V91.3422C29.2039 91.7388 27.909 92.0374 26.5995 92.236L26.2777 92.2789C26.1196 92.2989 25.9629 92.3157 25.8076 92.3326C25.6523 92.3495 25.4913 92.3617 25.3346 92.3725H25.2852C25.2175 92.3725 25.1441 92.3817 25.0777 92.3832H25.0057C24.921 92.3832 24.8363 92.3924 24.7516 92.3955C24.6316 92.4031 24.5116 92.4047 24.3888 92.4062C24.3366 92.4062 24.2871 92.4062 24.2349 92.4062C24.1135 92.4062 23.9935 92.4062 23.8721 92.4062H23.6053C23.5333 92.4062 23.4641 92.4062 23.3893 92.4062L23.1168 92.3955C22.9757 92.3955 22.8232 92.3786 22.6764 92.3679L22.4053 92.3464L22.0679 92.3127C21.8308 92.2897 21.595 92.2605 21.3621 92.2253L21.0797 92.1824L20.9386 92.1609C20.7028 92.121 20.4699 92.0781 20.2327 92.029C20.0591 91.9969 19.8868 91.957 19.7118 91.9187L19.7019 73.7119Z" fill="#6C63FF"/>
<path opacity="0.1" d="M97.8148 29.8275H88.9323V51.1909H97.8148V29.8275Z" fill="#6C63FF"/>
<path opacity="0.1" d="M97.8163 51.8471V73.0557H53.7271V63.9078H77.2109V69.3042H88.9324V51.8471H97.8163Z" fill="#6C63FF"/>
<path opacity="0.1" d="M97.956 96.4504H97.8148V110.363C96.2243 110.217 94.6385 110.018 93.0574 109.767C85.939 108.635 78.9997 106.436 72.4379 103.233C70.5434 102.307 68.6874 101.296 66.8701 100.2C63.8344 98.3739 60.926 96.3084 58.1683 94.0205C57.4756 93.444 56.7919 92.8543 56.1171 92.2513C55.6498 91.8328 55.1853 91.4035 54.7152 90.9865C54.3891 90.6998 54.0602 90.4177 53.7271 90.1479V73.7118H88.8152C88.7912 73.6137 88.7672 73.5156 88.7418 73.419C88.7686 73.5156 88.794 73.6137 88.818 73.7118H97.8148V96.4412C97.8628 96.4427 97.9094 96.4473 97.956 96.4504Z" fill="#6C63FF"/>
<path opacity="0.1" d="M120.981 28.2362H115.193V26.2831H117.788V20.465C118.013 20.5539 118.237 20.6454 118.46 20.7394V26.2831H120.981V28.2362Z" fill="#6C63FF"/>
<path opacity="0.1" d="M134.926 51.1925H106.511C106.511 51.1925 106.511 51.1925 106.521 51.2001L106.508 51.1925H101.237V29.829H102.73V45.6197H109.556V36.268H115.194V28.8923H120.982V36.2741H126.621V45.6259H134.926V51.1925Z" fill="#6C63FF"/>
<path opacity="0.1" d="M101.237 51.8471V73.0557H134.926V51.8471H101.237ZM144.071 98.0203L144.118 81.2331H134.926V73.721H101.237V110.591C103.999 110.718 106.765 110.682 109.524 110.484H109.572C110.889 110.394 112.201 110.263 113.506 110.092H113.536C120.5 109.212 127.309 107.238 133.751 104.234" fill="#6C63FF"/>
<path opacity="0.1" d="M148.135 73.7119H155.994C155.925 78.0183 155.129 82.248 153.387 86.1543C151.937 89.3998 149.923 92.2375 147.542 94.7165V81.2255H148.135V73.7119Z" fill="#6C63FF"/>
<path opacity="0.1" d="M155.999 73.0557H148.135V55.3318H152.39C154.592 60.9198 155.991 67.0521 155.999 73.0557Z" fill="#6C63FF"/>
<path opacity="0.1" d="M97.8161 35.7667H93.0573V42.4647H97.8161V35.7667Z" fill="#6C63FF"/>
<path opacity="0.1" d="M97.8161 49.6502H93.0573V51.1925H97.8161V49.6502Z" fill="#6C63FF"/>
<path opacity="0.1" d="M97.8161 51.8471H93.0573V56.3467H97.8161V51.8471Z" fill="#6C63FF"/>
<path opacity="0.1" d="M97.8161 63.5338H93.0573V70.2318H97.8161V63.5338Z" fill="#6C63FF"/>
<path opacity="0.1" d="M97.8161 77.4173H93.0573V84.1153H97.8161V77.4173Z" fill="#6C63FF"/>
<path opacity="0.1" d="M97.8147 96.4412C97.8627 96.4412 97.9093 96.4412 97.9559 96.4504H97.8147V98.0065H93.0573V91.3008H97.8147V96.4412Z" fill="#6C63FF"/>
<path opacity="0.1" d="M97.8147 105.181V110.355C96.2242 110.209 94.6384 110.01 93.0573 109.759V105.181H97.8147Z" fill="#6C63FF"/>
<path opacity="0.1" d="M74.1221 72.5636H53.7271V73.0557H74.1221V72.5636Z" fill="#6C63FF"/>
<path opacity="0.1" d="M74.1221 73.7103H53.7271V75.596H74.1221V73.7103Z" fill="#6C63FF"/>
<path opacity="0.1" d="M74.1221 81.7773H53.7271V84.8098H74.1221V81.7773Z" fill="#6C63FF"/>
<path opacity="0.1" d="M74.1207 90.9911V94.0235H58.1683C57.4757 93.4491 56.7914 92.8594 56.1157 92.2543C55.6484 91.8358 55.1854 91.4066 54.7139 90.9911H74.1207Z" fill="#6C63FF"/>
<path opacity="0.1" d="M74.1206 100.203V103.233H72.4364C70.5437 102.306 68.6883 101.294 66.87 100.199L74.1206 100.203Z" fill="#6C63FF"/>
<path opacity="0.1" d="M113.54 53.903H109.525V58.263H113.54V53.903Z" fill="#6C63FF"/>
<path opacity="0.1" d="M26.6094 33.5882H22.5945V37.9483H26.6094V33.5882Z" fill="#6C63FF"/>
<path opacity="0.1" d="M26.6094 43.7156H22.5945V48.0757H26.6094V43.7156Z" fill="#6C63FF"/>
<path opacity="0.1" d="M26.6094 53.8432H22.5945V58.2033H26.6094V53.8432Z" fill="#6C63FF"/>
<path opacity="0.1" d="M26.6094 63.9691H22.5945V68.3292H26.6094V63.9691Z" fill="#6C63FF"/>
<path opacity="0.1" d="M26.6094 74.0967H22.5945V78.4567H26.6094V74.0967Z" fill="#6C63FF"/>
<path opacity="0.1" d="M26.6094 84.2241H22.5945V88.5842H26.6094V84.2241Z" fill="#6C63FF"/>
<path opacity="0.1" d="M128.867 53.903H124.852V58.263H128.867V53.903Z" fill="#6C63FF"/>
<path opacity="0.1" d="M113.54 64.6575H109.525V69.0175H113.54V64.6575Z" fill="#6C63FF"/>
<path opacity="0.1" d="M128.867 64.6575H124.852V69.0175H128.867V64.6575Z" fill="#6C63FF"/>
<path opacity="0.1" d="M113.54 75.4105H109.525V79.7706H113.54V75.4105Z" fill="#6C63FF"/>
<path opacity="0.1" d="M128.867 75.4105H124.852V79.7706H128.867V75.4105Z" fill="#6C63FF"/>
<path opacity="0.1" d="M113.54 86.165H109.525V90.525H113.54V86.165Z" fill="#6C63FF"/>
<path opacity="0.1" d="M128.867 86.165H124.852V90.525H128.867V86.165Z" fill="#6C63FF"/>
<path opacity="0.1" d="M113.54 96.9196H109.525V101.28H113.54V96.9196Z" fill="#6C63FF"/>
<path opacity="0.1" d="M128.867 96.9196H124.852V101.28H128.867V96.9196Z" fill="#6C63FF"/>
<path opacity="0.1" d="M109.525 110.484V107.672H113.539V110.084L109.525 110.484Z" fill="#6C63FF"/>
<path opacity="0.1" d="M2.54114 45.7424V48.2367H16.2813V45.7424H2.54114ZM3.9105 48.0803H2.7896V45.8957H3.91897L3.9105 48.0803ZM5.27845 48.0803H4.14908V45.8957H5.27845V48.0803ZM6.64358 48.0803H5.51421V45.8957H6.64358V48.0803ZM8.01153 48.0803H6.88357V45.8957H8.01294L8.01153 48.0803ZM9.37807 48.0803H8.2487V45.8957H9.37807V48.0803ZM10.746 48.0803H9.61665V45.8957H10.746V48.0803ZM12.114 48.0803H10.9846V45.8957H12.114V48.0803ZM13.4805 48.0803H12.3511V45.8957H13.4805V48.0803ZM14.847 48.0803H13.7177V45.8957H14.847V48.0803ZM16.2136 48.0803H15.0842V45.8957H16.2136V48.0803Z" fill="#6C63FF"/>
<path opacity="0.1" d="M2.54114 52.9999V55.4943H16.2813V52.9999H2.54114ZM3.9105 55.3363H2.7896V53.1578H3.91897L3.9105 55.3363ZM5.27845 55.3363H4.14908V53.1578H5.27845V55.3363ZM6.64358 55.3363H5.51421V53.1578H6.64358V55.3363ZM8.01153 55.3363H6.88357V53.1578H8.01294L8.01153 55.3363ZM9.37807 55.3363H8.2487V53.1578H9.37807V55.3363ZM10.746 55.3363H9.61665V53.1578H10.746V55.3363ZM12.114 55.3363H10.9846V53.1578H12.114V55.3363ZM13.4805 55.3363H12.3511V53.1578H13.4805V55.3363ZM14.847 55.3363H13.7177V53.1578H14.847V55.3363ZM16.2136 55.3363H15.0842V53.1578H16.2136V55.3363Z" fill="#6C63FF"/>
<path opacity="0.1" d="M2.54114 60.2606V62.7595H16.2813V60.2606H2.54114ZM3.9105 62.597H2.7896V60.417H3.91897L3.9105 62.597ZM5.27845 62.597H4.14908V60.417H5.27845V62.597ZM6.64358 62.597H5.51421V60.417H6.64358V62.597ZM8.01153 62.597H6.88357V60.417H8.01294L8.01153 62.597ZM9.37807 62.597H8.2487V60.417H9.37807V62.597ZM10.746 62.597H9.61665V60.417H10.746V62.597ZM12.114 62.597H10.9846V60.417H12.114V62.597ZM13.4805 62.597H12.3511V60.417H13.4805V62.597ZM14.847 62.597H13.7177V60.417H14.847V62.597ZM16.2136 62.597H15.0842V60.417H16.2136V62.597Z" fill="#6C63FF"/>
<path opacity="0.1" d="M2.54114 67.5212V70.0125H16.2813V67.5212H2.54114ZM3.9105 69.8576H2.7896V67.6761H3.91897L3.9105 69.8576ZM5.27845 69.8576H4.14908V67.6761H5.27845V69.8576ZM6.64358 69.8576H5.51421V67.6761H6.64358V69.8576ZM8.01153 69.8576H6.88357V67.6761H8.01294L8.01153 69.8576ZM9.37807 69.8576H8.2487V67.6761H9.37807V69.8576ZM10.746 69.8576H9.61665V67.6761H10.746V69.8576ZM12.114 69.8576H10.9846V67.6761H12.114V69.8576ZM13.4805 69.8576H12.3511V67.6761H13.4805V69.8576ZM14.847 69.8576H13.7177V67.6761H14.847V69.8576ZM16.2136 69.8576H15.0842V67.6761H16.2136V69.8576Z" fill="#6C63FF"/>
<path opacity="0.1" d="M2.60034 74.7804C2.6554 75.015 2.71751 75.2495 2.78245 75.481V74.9368H3.91182V77.1168H3.30761C3.32596 77.1674 3.34431 77.2226 3.36267 77.2701H16.2813V74.7804H2.60034ZM5.2826 77.1168H4.15323V74.9368H5.2826V77.1168ZM6.64772 77.1168H5.51835V74.9368H6.64772V77.1168ZM8.01567 77.1168H6.88348V74.9368H8.01285L8.01567 77.1168ZM9.38221 77.1168H8.25284V74.9368H9.38221V77.1168ZM10.7502 77.1168H9.62079V74.9368H10.7502V77.1168ZM12.1181 77.1168H10.9887V74.9368H12.1181V77.1168ZM13.4846 77.1168H12.3553V74.9368H13.4846V77.1168ZM14.8512 77.1168H13.7218V74.9368H14.8512V77.1168ZM16.2177 77.1168H15.0884V74.9368H16.2177V77.1168Z" fill="#6C63FF"/>
<path opacity="0.1" d="M5.79077 82.0411C5.82606 82.0901 5.85995 82.1453 5.89665 82.1944H6.64345V83.2415C6.72391 83.3457 6.80297 83.45 6.88485 83.5481V82.1882H8.01422V84.376H7.55682C7.602 84.4265 7.64576 84.4802 7.698 84.5293H16.2855V82.0411H5.79077ZM9.37794 84.376H8.24856V82.1974H9.37794V84.376ZM10.7459 84.376H9.61652V82.1974H10.7459V84.376ZM12.1138 84.376H10.9845V82.1974H12.1138V84.376ZM13.4804 84.376H12.351V82.1974H13.4804V84.376ZM14.8469 84.376H13.7175V82.1974H14.8469V84.376ZM16.2135 84.376H15.0841V82.1974H16.2135V84.376Z" fill="#6C63FF"/>
<path opacity="0.1" d="M13.328 89.3002C13.4565 89.3799 13.5878 89.4535 13.7205 89.5332V89.4565H14.8498V90.1464L15.0898 90.2675V89.4565H16.2192V90.7827C16.2408 90.7944 16.2636 90.8036 16.287 90.8103V89.3002H13.328Z" fill="#6C63FF"/>
<path opacity="0.1" d="M106.511 51.1925H106.519H106.511ZM97.8148 96.4397H97.9559H97.8148ZM88.7417 73.4175C88.7685 73.5156 88.7911 73.6138 88.8165 73.7103C88.7939 73.6138 88.7699 73.5156 88.7417 73.4175ZM106.511 51.1879H106.519H106.511ZM21.2434 28.2316V28.8863H27.5495V28.2316H21.2434ZM97.8148 96.4397H97.9559H97.8148ZM88.7417 73.4175C88.7685 73.5156 88.7911 73.6138 88.8165 73.7103C88.7939 73.6138 88.7699 73.5156 88.7417 73.4175ZM106.511 51.1879H106.519H106.511ZM97.8148 96.4351H97.9559H97.8148ZM88.7417 73.4175C88.7685 73.5156 88.7911 73.6138 88.8165 73.7103C88.7939 73.6138 88.7699 73.5156 88.7417 73.4175Z" fill="#6C63FF"/>
<path d="M65.1647 58.2063C65.1647 58.2063 64.6084 58.122 64.6084 57.242C64.6084 56.362 64.2103 54.7186 64.2103 54.7186C64.2103 54.7109 63.8659 51.8563 63.3901 51.4025C62.9144 50.9488 62.3031 48.2843 62.3031 48.2843C62.3031 48.2843 62.1987 46.8386 61.9855 46.5274C61.7723 46.2161 61.4843 45.4542 61.0594 44.3673C60.6345 43.2803 58.8628 42.5276 58.8628 42.5276C58.8628 42.5276 55.6596 40.51 54.7519 39.8523C54.6693 39.7983 54.5922 39.7351 54.5217 39.6638C54.3636 39.4384 53.6747 39.4338 53.6747 39.4338C53.6027 38.9402 53.5335 38.3729 53.511 37.8594C53.511 37.8042 53.511 37.749 53.5039 37.6938C54.5161 37.044 55.2785 36.0196 55.6511 34.8085C55.6681 34.7503 55.6822 34.6889 55.6977 34.6307C55.7584 34.609 55.8142 34.5738 55.8616 34.5273C55.909 34.4809 55.9469 34.4242 55.973 34.3609C56.0549 34.1631 56.0563 33.9316 56.1579 33.7476C56.2765 33.5299 56.5024 33.4134 56.6803 33.2494C57.1292 32.8355 57.2449 32.1379 57.2238 31.5032C57.2097 30.9896 57.1334 30.4715 57.1631 29.9609L57.1715 29.8322C57.18 29.7555 57.1899 29.6789 57.2026 29.6053C57.2718 29.2251 57.4228 28.8663 57.5075 28.4892C57.5922 28.1121 57.6007 27.6874 57.4031 27.3624C57.1137 26.8856 56.5109 26.7905 55.9815 26.7415C55.3815 26.6863 54.845 26.7583 54.461 26.2172C54.2813 25.9343 54.0792 25.6691 53.8568 25.4246C53.7778 25.3449 53.0098 24.8359 53.0098 24.8021C52.2603 24.4251 51.4107 24.3544 50.6169 24.6028C50.2188 24.7286 49.8433 24.934 49.4396 25.0367C48.5685 25.2605 47.5662 25.0183 46.8265 25.5595C46.4143 25.8661 46.1672 26.3536 45.9357 26.8289C45.7475 27.2203 45.5564 27.6112 45.3625 28.0017C45.0506 28.644 44.7329 29.2971 44.6016 30.0085C44.574 30.1633 44.557 30.3201 44.5508 30.4776V30.4853C44.5508 30.542 44.5508 30.5987 44.5508 30.6554V30.7275C44.5508 30.7811 44.5508 30.8333 44.5593 30.8808C44.5677 30.9283 44.5663 30.9436 44.5706 30.9758C44.5748 31.008 44.5819 31.0801 44.5903 31.1291C44.5988 31.1782 44.6157 31.2641 44.6327 31.3315C44.6397 31.3606 44.6496 31.3882 44.6581 31.4158C44.6722 31.468 44.6892 31.5185 44.7075 31.5691C44.7174 31.5952 44.7273 31.6228 44.7386 31.6489C44.7597 31.7025 44.7852 31.7546 44.8106 31.8022C44.8219 31.8236 44.8303 31.8436 44.8416 31.8635C44.881 31.9348 44.9244 32.0034 44.9715 32.0689C45.2736 32.4783 45.7183 32.7389 46.0472 33.1221C46.0472 33.1375 46.0472 33.1528 46.0472 33.1666C46.0472 33.2095 46.0472 33.2509 46.0472 33.2938C46.0647 34.1486 46.2742 34.9858 46.6575 35.7326C47.0408 36.4794 47.5864 37.1132 48.2467 37.5788C48.2467 37.6371 48.2537 37.6968 48.2566 37.7551C48.2841 38.2102 48.2789 38.6669 48.241 39.1211C48.1835 39.0475 48.1116 38.989 48.0305 38.9497C47.9493 38.9104 47.8611 38.8915 47.7723 38.8942C47.7117 38.891 47.6509 38.8966 47.5916 38.911L47.5789 38.9003V38.9141C47.2684 38.9969 46.8858 39.348 46.5201 40.346C46.5201 40.346 45.4077 41.7074 44.5607 41.6506C43.7137 41.5939 41.5693 43.0672 41.5693 43.0672C41.5693 43.0672 39.4771 44.542 39.0282 46.0444C38.7773 46.8964 38.4764 47.73 38.1275 48.5403L35.5412 54.3277L35.0641 58.9192C35.0641 58.9192 35.3281 60.9613 35.2758 61.2725C35.2236 61.5837 36.3615 64.3908 36.3615 64.3908C36.3615 64.3908 40.1208 71.564 41.6568 71.932L41.7669 71.8476C41.8326 71.8849 41.9023 71.9132 41.9744 71.932L42.2907 71.6897C42.3096 71.9597 42.3016 72.2311 42.2667 72.4992C42.0549 73.2075 42.3457 77.8297 42.7156 78.7358C43.0855 79.6418 42.9542 91.5216 42.9542 91.5216L42.9019 92.5702C42.9019 92.5702 42.9019 92.604 42.9146 92.6622L42.9019 92.9106L42.94 92.932C42.9796 93.2647 42.9667 93.6022 42.9019 93.9301C42.7692 94.39 42.7156 95.69 42.7156 95.69C42.7156 95.69 41.6582 103.03 42.1594 104.505C42.6605 105.98 43.0869 107.596 43.0869 107.596C43.0869 107.596 43.6163 109.436 43.1123 109.75C42.6083 110.064 41.1754 110.592 41.4704 111.358C41.7387 112.066 42.7565 113.964 42.9076 114.242L42.8949 114.387L42.6873 116.83C42.7209 117.152 42.8015 117.467 42.9259 117.762C43.1532 118.294 43.5951 118.846 44.435 118.786C44.5762 118.775 44.74 118.757 44.8981 118.734C46.4354 118.51 48.3286 117.765 48.3286 117.765C48.2303 117.697 48.1402 117.616 48.0603 117.524C47.9848 117.445 47.9249 117.349 47.8844 117.244C47.8438 117.138 47.8235 117.025 47.8246 116.911C47.8472 116.466 47.0806 114.348 46.89 113.826C46.8604 113.751 46.8448 113.708 46.8448 113.708C46.8448 113.708 48.5925 111.724 48.3017 109.966C48.3017 109.966 46.3677 108.74 47.0044 108.067C47.6411 107.394 48.7789 105.46 48.7789 105.46C48.7789 105.46 48.8311 98.2319 48.7789 97.1526C48.7244 96.4035 48.7571 95.6499 48.8763 94.9097C48.8975 94.7978 48.9229 94.6889 48.9497 94.5816C49.8302 94.7244 50.7191 94.7976 51.6094 94.8009C51.9341 94.8009 52.2644 94.8009 52.5976 94.7794C52.5976 94.8816 52.6018 94.992 52.6103 95.1105C52.6837 96.9012 52.8206 100.041 52.9322 101.208C53.0903 102.88 53.9641 107.387 53.9641 107.387C53.9641 107.387 52.2969 108.549 54.2549 111.413C54.2549 111.413 54.2549 112.451 54.1251 112.601C53.9864 113.093 53.8747 113.592 53.7905 114.098C53.7086 114.637 53.6747 115.183 53.8074 115.467C54.1251 116.144 56.0309 116.089 56.0309 116.089L56.0775 116.08C56.4373 116.04 56.8009 116.077 57.1472 116.191C57.4935 116.304 57.8156 116.491 58.0948 116.741C58.819 117.372 61.5676 117.095 63.0556 116.894C63.6386 116.814 64.0282 116.741 64.0282 116.741C64.0471 116.669 64.0538 116.594 64.048 116.52C64.0325 116.123 63.7459 115.252 61.8034 114.475C61.8034 114.475 59.9766 113.141 60.002 111.979H59.9639H59.7521C59.906 111.97 60.0048 111.979 60.0048 111.979C60.0048 111.979 59.2891 109.143 59.5813 108.913C59.8736 108.683 58.9983 105.54 58.9983 105.54C58.9983 105.54 58.4971 100.266 58.4703 99.8968C58.4714 99.5798 58.5157 99.2646 58.6016 98.9616L58.4703 96.0703C58.4703 96.0703 58.4449 95.109 58.4703 94.7963C58.466 94.5248 58.4458 94.2539 58.4096 93.9853C58.3969 93.8779 58.3842 93.766 58.3701 93.6557C59.0548 93.4671 59.4995 93.2923 59.4995 93.2923L59.4204 83.2277C60.002 82.0012 60.1093 79.3107 60.1065 77.402C60.1065 76.1755 60.0557 75.2679 60.0557 75.2679L60.8505 73.859C60.8505 73.859 61.034 72.1727 60.7432 71.8032C60.6147 71.6361 60.6726 71.4628 60.7785 71.3203C60.8335 71.2729 60.8915 71.2299 60.9521 71.1915C60.9521 71.1915 60.9436 71.1777 60.9338 71.1578C60.9893 71.1074 61.0482 71.0618 61.1102 71.0213C61.1102 71.0213 60.8279 70.5461 61.0806 70.3452C61.3177 70.52 61.5295 70.6518 61.6904 70.7592C61.6791 70.8711 61.6678 70.9355 61.6678 70.9355L61.7356 70.7822C61.8909 70.8772 61.9855 70.9355 61.9855 70.9355C61.9855 70.9355 63.2306 68.2419 63.2038 67.8448C63.177 67.4477 64.0508 65.7751 64.0508 65.7751C64.0508 65.7751 64.1567 64.8967 64.6339 64.5287C65.111 64.1608 65.0037 61.4948 65.0037 61.4948C65.0037 61.4948 65.1364 60.1058 65.4541 59.5386C65.7717 58.9713 65.1647 58.2063 65.1647 58.2063ZM41.3406 57.0243L41.3646 57.6667C41.2234 57.4199 41.1218 57.242 41.1218 57.242L41.3406 57.0243Z" fill="url(#paint0_linear)"/>
<path d="M62.0534 69.7718L61.7485 71.1822C61.7485 71.1822 59.3062 69.8285 58.8657 68.1084C58.4253 66.3883 59.6026 65.7352 59.6026 65.7352L61.8783 66.7823L62.0534 69.7718Z" fill="white"/>
<path opacity="0.1" d="M62.0534 69.7718L61.7485 71.1822C61.7485 71.1822 59.3062 69.8285 58.8657 68.1084C58.4253 66.3883 59.6026 65.7352 59.6026 65.7352L61.8783 66.7823L62.0534 69.7718Z" fill="black"/>
<path d="M48.3469 117.774C48.3469 117.774 46.0881 118.675 44.5352 118.789C43.7108 118.849 43.2774 118.3 43.0543 117.771C42.9325 117.477 42.8539 117.164 42.8214 116.843L43.0233 114.414L43.1306 113.12L46.4298 112.189L46.897 113.74L46.9408 113.859C47.1286 114.377 47.881 116.485 47.8584 116.925C47.8575 117.037 47.8775 117.149 47.9173 117.253C47.9571 117.357 48.0158 117.451 48.0899 117.53C48.1657 117.623 48.252 117.705 48.3469 117.774Z" fill="white"/>
<path d="M63.7756 116.538C63.7813 116.612 63.7746 116.686 63.7559 116.758C63.7559 116.758 58.925 117.633 57.9368 116.758C57.6581 116.502 57.3334 116.312 56.9833 116.201C56.6332 116.089 56.2655 116.059 55.9039 116.111C55.9039 116.111 54.0348 116.166 53.7228 115.497C53.5929 115.217 53.6268 114.673 53.7072 114.136C53.7893 113.633 53.8987 113.136 54.0348 112.647L54.1096 112.583L54.5543 112.195L59.7607 112.028H59.8002C59.7748 113.184 61.5677 114.51 61.5677 114.51C63.4721 115.277 63.753 116.143 63.7756 116.538Z" fill="white"/>
<path opacity="0.1" d="M63.7756 116.538C63.7805 116.612 63.7733 116.686 63.7544 116.758C63.7544 116.758 58.9249 117.633 57.9367 116.758C57.6583 116.502 57.3337 116.312 56.9839 116.201C56.6341 116.09 56.2667 116.059 55.9053 116.111C55.9053 116.111 54.0348 116.166 53.7242 115.497C53.5943 115.215 53.6268 114.673 53.7072 114.136C54.4272 114.214 55.5636 114.409 56.0097 114.873C56.6845 115.58 57.828 116.285 58.5296 116.341C59.0788 116.379 62.3639 116.492 63.7756 116.538Z" fill="black"/>
<path opacity="0.1" d="M48.3469 117.774C48.3469 117.774 46.0881 118.675 44.5353 118.789C43.7108 118.849 43.2774 118.3 43.0558 117.769C43.6304 117.979 44.428 118.2 44.8473 117.998C45.3442 117.759 47.106 117.604 48.0942 117.538C48.1694 117.627 48.2542 117.707 48.3469 117.774Z" fill="black"/>
<path d="M51.6984 45.1291C49.835 44.3426 47.4379 41.7441 48.0364 40.5299C48.1694 40.2235 48.2484 39.8928 48.2694 39.5549C48.3079 39.0961 48.3135 38.6348 48.2863 38.1751C48.2443 37.4222 48.1609 36.6727 48.0364 35.9307C48.0364 35.9307 53.8541 36.0732 53.5153 37.0038C53.4165 37.2767 53.401 37.7504 53.4278 38.2809C53.4546 38.8113 53.5252 39.4107 53.5986 39.9182C53.7002 40.6142 53.8019 41.1447 53.8019 41.1447C53.8019 41.1447 53.4461 41.6858 53.2372 41.715C53.0283 41.7441 54.3722 46.2498 51.6984 45.1291Z" fill="#CF6F80"/>
<path opacity="0.1" d="M46.9366 113.859L46.8928 113.911C45.1536 111.626 43.0501 114.473 43.0501 114.473L43.019 114.414L43.1263 113.12L46.4256 112.189L46.8928 113.74L46.9366 113.859Z" fill="black"/>
<path opacity="0.1" d="M59.8017 112.189C59.8017 112.189 58.5311 112.16 57.8535 112.81C57.1759 113.46 53.9007 112.951 54.0419 112.81C54.0837 112.74 54.109 112.66 54.1153 112.577L54.56 112.189L59.7664 112.022C59.7862 112.125 59.8017 112.189 59.8017 112.189Z" fill="black"/>
<path d="M49.1007 94.2505C49.0061 94.5045 48.9342 94.7679 48.8861 95.0369C48.7684 95.7737 48.7357 96.5235 48.7887 97.2691C48.8409 98.3423 48.7887 105.534 48.7887 105.534C48.7887 105.534 47.672 107.452 47.0495 108.128C46.4269 108.804 48.32 110.018 48.32 110.018C48.6024 111.766 46.8914 113.74 46.8914 113.74C45.1521 111.456 43.0487 114.305 43.0487 114.305C43.0487 114.305 41.9052 112.158 41.62 111.392C41.3349 110.625 42.7367 110.095 43.2294 109.784C43.7221 109.472 43.2054 107.637 43.2054 107.637C43.2054 107.637 42.7889 106.029 42.2948 104.562C41.8007 103.095 42.8398 95.7912 42.8398 95.7912C42.8398 95.7912 42.8934 94.4942 43.0219 94.042C43.0867 93.7156 43.0996 93.3796 43.06 93.0486C43.0515 92.9366 43.0416 92.8431 43.0346 92.7803C43.0275 92.7174 43.0219 92.6883 43.0219 92.6883L43.0416 92.6515L43.7475 91.2227C43.7475 91.2227 49.4395 93.3506 49.1007 94.2505Z" fill="#6C63FF"/>
<path d="M59.8016 112.02C59.8016 112.02 58.531 111.991 57.8534 112.634C57.1758 113.276 53.9006 112.775 54.0418 112.634C54.1829 112.493 54.1717 111.449 54.1717 111.449C52.2503 108.6 53.8893 107.444 53.8893 107.444C53.8893 107.444 53.031 102.96 52.8757 101.296C52.767 100.134 52.6329 97.0115 52.5609 95.2286C52.5298 94.462 52.5115 93.9346 52.5115 93.9346L54.0813 93.5912L54.2832 93.5468L58.0694 92.722C58.0694 92.722 58.1739 93.4885 58.2444 94.1156C58.2796 94.3833 58.2994 94.6531 58.3037 94.9235C58.2783 95.2301 58.3037 96.1898 58.3037 96.1898L58.4322 99.0674C58.3483 99.3692 58.305 99.6827 58.3037 99.998C58.3292 100.364 58.8218 105.611 58.8218 105.611C58.8218 105.611 59.6788 108.741 59.3865 108.966C59.0943 109.192 59.8016 112.02 59.8016 112.02Z" fill="#6C63FF"/>
<path opacity="0.1" d="M53.5151 37.0038C53.4163 37.2767 53.4008 37.7504 53.4276 38.2809C52.6483 38.7905 51.7525 39.051 50.843 39.0326C49.9336 39.0141 49.0473 38.7174 48.2861 38.1766C48.2442 37.4232 48.1608 36.6732 48.0363 35.9307C48.0363 35.9307 53.8539 36.0702 53.5151 37.0038Z" fill="black"/>
<path d="M55.764 33.6158C55.7652 34.1682 55.6851 34.7173 55.5269 35.2424C55.1732 36.4188 54.4479 37.4216 53.4793 38.0735C52.5106 38.7253 51.3609 38.9844 50.2334 38.8048C49.1059 38.6251 48.0732 38.0185 47.3177 37.0919C46.5623 36.1654 46.1327 34.9787 46.1051 33.7415C46.1051 33.6986 46.1051 33.6587 46.1051 33.6158C46.0941 32.9194 46.211 32.2276 46.4488 31.5808C46.6866 30.9339 47.0406 30.345 47.4902 29.8483C47.9398 29.3516 48.476 28.9572 49.0675 28.6879C49.659 28.4186 50.2939 28.2799 50.9353 28.2799C51.5766 28.2799 52.2115 28.4186 52.803 28.6879C53.3945 28.9572 53.9307 29.3516 54.3803 29.8483C54.8299 30.345 55.1839 30.9339 55.4218 31.5808C55.6596 32.2276 55.7764 32.9194 55.7654 33.6158H55.764Z" fill="#CF6F80"/>
<path opacity="0.1" d="M51.6984 45.1291C49.835 44.3427 47.4379 41.7441 48.0364 40.5299C48.1694 40.2235 48.2484 39.8928 48.2694 39.5549L50.8203 41.8315L52.3986 43.2373L53.5986 39.9197C53.7002 40.6158 53.8019 41.1462 53.8019 41.1462C53.8019 41.1462 53.4461 41.6874 53.2372 41.7165C53.0283 41.7456 54.3722 46.2498 51.6984 45.1291Z" fill="black"/>
<path d="M58.2953 55.1908L56.165 94.0543L53.3867 94.252L46.1926 71.7173L47.3728 44.9636L47.6213 39.3112L50.8202 42.1642L52.4 43.57L53.6352 40.1559L55.9321 42.3298L58.2953 55.1908Z" fill="#6C63FF"/>
<path opacity="0.1" d="M49.1007 94.2504C49.0061 94.5045 48.9343 94.7679 48.8862 95.0369C46.8646 94.6979 44.9012 94.0318 43.0614 93.0608L43.0233 93.0393L43.036 92.7925L43.0431 92.6637L43.7489 91.2349C43.7489 91.2349 49.4396 93.3505 49.1007 94.2504Z" fill="black"/>
<path opacity="0.1" d="M54.1138 95.0431C53.597 95.1385 53.0758 95.203 52.5525 95.2363C52.5214 94.4697 52.5031 93.9424 52.5031 93.9424L54.0729 93.5989L54.1138 95.0431Z" fill="black"/>
<path opacity="0.1" d="M58.2361 94.1232C57.2323 94.4068 55.6823 94.7257 54.2945 94.5264L54.2748 93.5544L58.061 92.7296C58.061 92.7296 58.1655 93.4885 58.2361 94.1232Z" fill="black"/>
<path opacity="0.1" d="M54.2691 94.7042C48.4811 95.7774 43.1801 92.7005 43.1801 92.7005L43.2309 91.658C43.2309 91.658 43.3622 79.8395 42.998 78.9335C42.6338 78.0274 42.35 73.4328 42.5561 72.7276C42.7622 72.0224 41.8037 61.4472 41.8037 61.4472L41.6484 57.1546L35.9648 54.6541L38.5059 48.902C38.8491 48.0956 39.1443 47.266 39.3897 46.4184C39.8315 44.9252 41.8827 43.4581 41.8827 43.4581C41.8827 43.4581 43.9862 41.9925 44.8177 42.0476C45.6492 42.1028 46.739 40.7507 46.739 40.7507C47.5437 38.5231 48.2722 39.5319 48.2722 39.5319C48.2722 39.6377 48.2722 39.5319 48.2326 39.8615C47.9503 42.3067 52.7981 50.0334 52.8673 50.1699L53.3289 62.3824L53.7962 77.8373L54.2691 94.7042Z" fill="black"/>
<path d="M54.1138 94.7043C48.3258 95.7774 43.0234 92.7005 43.0234 92.7005L43.0756 91.658C43.0756 91.658 43.2069 79.8396 42.8413 78.9335C42.4756 78.0275 42.1933 73.4328 42.4008 72.7276C42.6083 72.0224 41.6484 61.4472 41.6484 61.4472L41.4917 57.1546L35.8053 54.645L38.3464 48.8929C38.6889 48.0861 38.984 47.2565 39.2301 46.4093C39.6706 44.9161 41.7232 43.4489 41.7232 43.4489C41.7232 43.4489 43.8267 41.9833 44.6567 42.0385C45.4868 42.0937 46.5781 40.7415 46.5781 40.7415C47.3842 38.514 48.2721 39.5227 48.2721 39.5227C48.2721 39.6285 48.1874 39.676 48.2326 39.8523C48.8538 42.224 52.6428 50.0243 52.712 50.1607L53.1792 62.3732L53.6465 77.8282L54.1138 94.7043Z" fill="white"/>
<path opacity="0.1" d="M52.554 50.5087C51.9314 50.2267 48.6336 46.1379 48.6336 46.1379V45.2074C48.5136 44.9007 47.8007 45.0878 47.2219 45.3024L47.4704 39.65L47.7527 39.9045C48.3711 42.2746 52.482 50.3723 52.554 50.5087Z" fill="black"/>
<path d="M52.7105 50.1699C52.0865 49.8879 48.7888 45.7991 48.7888 45.7991V44.8686C48.6688 44.5619 47.9559 44.749 47.3771 44.9636L47.6269 39.3112L47.9093 39.5656C48.529 41.9358 52.6413 50.035 52.7105 50.1699Z" fill="white"/>
<path opacity="0.1" d="M43.1802 70.5614C43.2578 70.5614 47.205 70.1107 47.205 70.1107C47.205 70.1107 49.595 75.2143 49.4383 76.4561C49.2816 77.6978 48.9979 78.7971 48.0365 78.6024C47.0751 78.4077 42.8625 78.7557 42.8625 78.7557L43.1802 70.5614Z" fill="black"/>
<path d="M43.0234 70.2225C43.1011 70.2225 47.0482 69.7718 47.0482 69.7718C47.0482 69.7718 49.4369 74.8769 49.2816 76.1172C49.1263 77.3575 48.8397 78.4582 47.8797 78.2635C46.9198 78.0688 42.7058 78.4168 42.7058 78.4168L43.0234 70.2225Z" fill="white"/>
<path d="M45.9979 67.8264C45.9979 67.8264 49.6203 69.9405 49.698 70.5859C49.7756 71.2313 47.8543 70.3038 47.4392 70.1919C47.166 70.1204 46.888 70.0732 46.6077 70.0508L43.8394 70.1321L45.9979 67.8264Z" fill="#CF6F80"/>
<path opacity="0.1" d="M51.543 50.7724C51.7535 50.7724 51.9242 50.5871 51.9242 50.3585C51.9242 50.1299 51.7535 49.9446 51.543 49.9446C51.3325 49.9446 51.1619 50.1299 51.1619 50.3585C51.1619 50.5871 51.3325 50.7724 51.543 50.7724Z" fill="black"/>
<path d="M51.543 50.6038C51.7535 50.6038 51.9242 50.4185 51.9242 50.1899C51.9242 49.9613 51.7535 49.7759 51.543 49.7759C51.3325 49.7759 51.1619 49.9613 51.1619 50.1899C51.1619 50.4185 51.3325 50.6038 51.543 50.6038Z" fill="#3F3D56"/>
<path opacity="0.1" d="M52.2447 68.691C52.4552 68.691 52.6259 68.5057 52.6259 68.2771C52.6259 68.0485 52.4552 67.8632 52.2447 67.8632C52.0342 67.8632 51.8635 68.0485 51.8635 68.2771C51.8635 68.5057 52.0342 68.691 52.2447 68.691Z" fill="black"/>
<path d="M52.2447 68.5209C52.4552 68.5209 52.6259 68.3356 52.6259 68.1069C52.6259 67.8783 52.4552 67.693 52.2447 67.693C52.0342 67.693 51.8635 67.8783 51.8635 68.1069C51.8635 68.3356 52.0342 68.5209 52.2447 68.5209Z" fill="#3F3D56"/>
<path opacity="0.1" d="M51.9229 59.7317C52.1334 59.7317 52.304 59.5464 52.304 59.3178C52.304 59.0892 52.1334 58.9039 51.9229 58.9039C51.7124 58.9039 51.5417 59.0892 51.5417 59.3178C51.5417 59.5464 51.7124 59.7317 51.9229 59.7317Z" fill="black"/>
<path d="M51.9229 59.5631C52.1334 59.5631 52.304 59.3778 52.304 59.1492C52.304 58.9206 52.1334 58.7352 51.9229 58.7352C51.7124 58.7352 51.5417 58.9206 51.5417 59.1492C51.5417 59.3778 51.7124 59.5631 51.9229 59.5631Z" fill="#3F3D56"/>
<path d="M60.7094 69.965C60.7094 69.965 60.9691 70.3881 60.7094 70.5859C60.4496 70.7837 60.7348 71.262 60.7348 71.262C60.7348 71.262 60.0868 71.6744 60.372 72.0454C60.6572 72.4164 60.4764 74.092 60.4764 74.092L59.6972 75.4933C59.6972 75.4933 59.7438 76.3963 59.7466 77.6166C59.7466 79.5207 59.6435 82.1974 59.0732 83.4177L59.1523 93.4303C59.1523 93.4303 56.4234 94.5126 54.1393 94.183L53.8005 78.1164C53.8005 78.1164 54.2946 69.0053 54.4767 67.2576C54.5832 66.3503 54.6267 65.4355 54.6065 64.521C54.6065 64.521 54.5289 61.786 54.2677 60.5167C54.2677 60.5167 53.9854 55.0175 53.9572 53.4952C53.9445 52.767 53.9797 50.6421 54.0193 48.6215C54.063 46.4124 54.1124 44.3289 54.1124 44.3289L53.5972 39.9014C53.5972 39.9014 54.1124 39.8447 54.2677 40.07C54.3373 40.1406 54.4129 40.2037 54.4936 40.2586C55.383 40.9117 58.5255 42.92 58.5255 42.92C58.5255 42.92 60.2647 43.6712 60.6811 44.7474C61.0976 45.8237 61.387 46.5871 61.5889 46.8937C61.7908 47.2004 61.9009 48.6414 61.9009 48.6414C61.9009 48.6414 62.4994 51.2937 62.9667 51.7429C63.434 52.1921 63.7756 55.0497 63.7756 55.0497L59.6464 58.5758C59.6464 58.5758 59.2836 64.4413 59.2059 64.6682C59.1283 64.8951 60.7094 69.965 60.7094 69.965Z" fill="white"/>
<path d="M60.8661 69.965C60.8661 69.965 61.1244 70.3881 60.8661 70.5859C60.6077 70.7837 60.8901 71.262 60.8901 71.262C60.8901 71.262 60.2463 71.679 60.5287 72.05C60.811 72.421 60.6331 74.0966 60.6331 74.0966L59.8539 75.4979C59.8539 75.4979 59.9005 76.4009 59.9047 77.6212C59.9047 79.5253 59.8016 82.202 59.2313 83.4223L59.309 93.4349C59.309 93.4349 56.5759 94.5172 54.2945 94.1876L53.9572 78.121C53.9572 78.121 54.4512 69.0099 54.6334 67.2622C54.7401 66.3549 54.783 65.44 54.7618 64.5256C54.7618 64.5256 54.6842 61.7906 54.4244 60.5212C54.4244 60.5212 54.1421 55.0221 54.1124 53.4998C54.0997 52.7716 54.1364 50.6467 54.1746 48.6261C54.2183 46.417 54.2677 44.3335 54.2677 44.3335L53.5873 39.8462C53.5873 39.8462 54.2677 39.8462 54.4244 40.0746C54.4933 40.146 54.5691 40.2092 54.6503 40.2632C55.5397 40.9163 58.6836 42.9246 58.6836 42.9246C58.6836 42.9246 60.4214 43.6758 60.8378 44.752C61.2543 45.8283 61.5437 46.5917 61.747 46.8983C61.9503 47.205 62.0576 48.646 62.0576 48.646C62.0576 48.646 62.6561 51.2983 63.1234 51.7475C63.5907 52.1967 63.9281 55.0482 63.9281 55.0482L59.7988 58.5742C59.7988 58.5742 59.436 64.4398 59.357 64.6667C59.2779 64.8936 60.8661 69.965 60.8661 69.965Z" fill="white"/>
<path opacity="0.1" d="M55.9208 45.635L56.2935 46.8155L54.3312 48.9618C54.3749 46.7542 54.4243 44.6692 54.4243 44.6692L53.7439 40.1819C53.7439 40.1819 54.4243 40.1819 54.581 40.4103C54.6498 40.4815 54.7255 40.5442 54.8069 40.5973L56.4756 45.8251L55.9208 45.635Z" fill="black"/>
<path d="M55.7641 45.2962L56.1383 46.4767L54.176 48.623C54.2197 46.4138 54.2691 44.3304 54.2691 44.3304L53.5873 39.8431C53.5873 39.8431 54.2691 39.8431 54.4244 40.0715C54.4937 40.1425 54.5693 40.2057 54.6503 40.2601L56.3204 45.4863L55.7641 45.2962Z" fill="white"/>
<path opacity="0.1" d="M55.764 33.6158C55.7652 34.1682 55.6851 34.7173 55.5269 35.2424C55.5002 35.2469 55.473 35.2456 55.4468 35.2384C55.4206 35.2313 55.396 35.2186 55.3744 35.201C55.3377 33.8212 54.7123 32.5258 53.9429 31.4235C53.7269 31.0907 53.465 30.7959 53.1665 30.5496C52.8646 30.3034 52.4892 30.1881 52.1133 30.2261C51.6898 30.289 51.3157 30.6017 50.888 30.6416C50.3233 30.6922 49.8179 30.2675 49.2574 30.2461C49.0296 30.2484 48.8048 30.3035 48.5982 30.4077C48.3915 30.5118 48.2076 30.6627 48.0589 30.8501C47.7645 31.2284 47.5457 31.669 47.4166 32.144C47.1946 32.8643 47.0737 33.6168 47.058 34.3762C47.0509 34.8054 47.0128 35.3436 46.6458 35.4999C46.6734 35.1842 46.6404 34.8657 46.5487 34.5646C46.4571 34.2635 46.3089 33.9864 46.1136 33.7507L46.1051 33.7415C46.1051 33.6986 46.1051 33.6587 46.1051 33.6158C46.0941 32.9194 46.211 32.2276 46.4488 31.5808C46.6866 30.9339 47.0406 30.345 47.4902 29.8483C47.9398 29.3516 48.476 28.9572 49.0675 28.6879C49.659 28.4186 50.2939 28.2799 50.9353 28.2799C51.5766 28.2799 52.2115 28.4186 52.803 28.6879C53.3945 28.9572 53.9307 29.3516 54.3803 29.8483C54.8299 30.345 55.1839 30.9339 55.4218 31.5808C55.6596 32.2276 55.7764 32.9194 55.7654 33.6158H55.764Z" fill="black"/>
<path d="M52.935 25.2865C52.2014 24.9118 51.367 24.8409 50.5887 25.0872C50.1976 25.213 49.8292 25.4169 49.4325 25.5196C48.5855 25.7419 47.5973 25.5012 46.8702 26.0393C46.4665 26.3459 46.2237 26.8303 45.9978 27.301L45.4331 28.4692C45.1254 29.1085 44.8148 29.7585 44.6863 30.4622C44.5578 31.1659 44.6355 31.9539 45.0463 32.5196C45.3456 32.932 45.7875 33.1911 46.1121 33.5789C46.3067 33.8149 46.4542 34.0919 46.5456 34.3926C46.6369 34.6934 46.6701 35.0113 46.643 35.3267C47.0114 35.1733 47.0467 34.6337 47.0552 34.2044C47.0709 33.4451 47.1918 32.6926 47.4137 31.9723C47.5426 31.4971 47.7614 31.0564 48.0561 30.6784C48.2049 30.4911 48.3888 30.3404 48.5955 30.2362C48.8021 30.1321 49.0268 30.0769 49.2546 30.0743C49.8193 30.0958 50.3261 30.5189 50.8852 30.4683C51.3087 30.43 51.6842 30.1157 52.1105 30.0544C52.4864 30.0158 52.8621 30.1312 53.1637 30.3779C53.4621 30.6238 53.7236 30.9186 53.9387 31.2517C54.7095 32.354 55.3349 33.6464 55.3716 35.0292C55.5311 35.1565 55.7612 34.9909 55.8403 34.7947C55.9193 34.5984 55.9221 34.3685 56.0224 34.1814C56.1381 33.9653 56.3598 33.8503 56.5334 33.6878C56.9739 33.2754 57.084 32.5809 57.067 31.9508C57.0501 31.3207 56.9372 30.6814 57.0473 30.0621C57.1136 29.6819 57.2633 29.3262 57.3452 28.9506C57.427 28.575 57.4369 28.1534 57.2435 27.8299C56.9612 27.3547 56.3668 27.2611 55.8487 27.2167C55.2601 27.1615 54.7335 27.232 54.358 26.6939C54.1817 26.4131 53.9833 26.1494 53.765 25.9059C53.6902 25.8262 52.935 25.3203 52.935 25.2865Z" fill="#512E4E"/>
<path opacity="0.1" d="M37.5912 57.6161L36.116 54.6542L35.6487 59.2243C35.6487 59.2243 35.9084 61.2541 35.8562 61.5653C35.804 61.8765 36.9206 64.6667 36.9206 64.6667C36.9206 64.6667 40.6094 71.8016 42.1157 72.1696L47.2049 68.2204L45.8554 66.3592C45.8554 66.3592 45.3881 66.1614 45.2709 66.3592C45.2709 66.3592 42.7651 61.6772 42.5054 61.3384C42.2456 60.9996 42.2964 60.3235 42.2964 60.3235C42.2964 60.3235 41.9068 59.8728 42.0367 59.4496C42.1666 59.0265 41.2842 57.5594 41.2842 57.5594L42.0889 56.7422L37.5912 57.6161Z" fill="black"/>
<path d="M36.1935 54.3169L35.8038 54.6542L35.3365 59.2243C35.3365 59.2243 35.5963 61.2541 35.5441 61.5653C35.4918 61.8765 36.6099 64.6667 36.6099 64.6667C36.6099 64.6667 40.2973 71.8016 41.8036 72.1696L46.8943 68.2204L45.5432 66.3592C45.5432 66.3592 45.076 66.1614 44.9588 66.3592C44.9588 66.3592 42.453 61.6772 42.1932 61.3384C41.9335 60.9996 41.9857 60.3235 41.9857 60.3235C41.9857 60.3235 41.5961 59.8728 41.726 59.4496C41.8558 59.0265 40.9721 57.5593 40.9721 57.5593L41.7768 56.7422L36.1935 54.3169Z" fill="white"/>
<path opacity="0.1" d="M60.3718 72.2202C60.6542 72.5927 60.4763 74.2653 60.4763 74.2653L59.697 75.6665C59.697 75.6665 59.7436 76.571 59.7465 77.7898L58.4364 78.2344C58.318 78.2746 58.1925 78.2834 58.0703 78.2602C57.9481 78.2369 57.8328 78.1823 57.734 78.1008C57.6353 78.0194 57.5559 77.9134 57.5024 77.7918C57.449 77.6703 57.4232 77.5366 57.427 77.402L57.6529 69.4897L60.7092 70.7591C60.4495 70.9554 60.7346 71.4367 60.7346 71.4367C60.7346 71.4367 60.0867 71.8476 60.3718 72.2202Z" fill="black"/>
<path d="M60.5286 72.05C60.811 72.4225 60.6331 74.0966 60.6331 74.0966L59.8538 75.4979C59.8538 75.4979 59.9004 76.4009 59.9047 77.6212L58.5706 78.0735C58.4546 78.1126 58.3318 78.1211 58.2122 78.0982C58.0926 78.0753 57.9798 78.0218 57.8831 77.942C57.7864 77.8622 57.7087 77.7585 57.6564 77.6395C57.6041 77.5205 57.5787 77.3897 57.5824 77.2579L57.8097 69.3211L60.8675 70.5905C60.6063 70.7867 60.8915 71.2666 60.8915 71.2666C60.8915 71.2666 60.2463 71.679 60.5286 72.05Z" fill="white"/>
<path d="M61.5409 68.2786C61.5409 68.2786 61.3334 69.7181 60.8139 69.8025C60.2944 69.8868 60.0614 72.1312 59.5433 72.0515C59.0252 71.9718 59.3683 69.965 59.3866 69.5756C59.405 69.1862 58.822 67.5734 59.2582 67.207C59.6944 66.8406 61.075 67.207 61.075 67.207L61.5409 68.2786Z" fill="#CF6F80"/>
<path opacity="0.1" d="M62.6463 57.1929L63.6261 55.0466C63.6261 55.0466 64.0157 56.6824 64.0157 57.5563C64.0157 58.4301 64.5606 58.516 64.5606 58.516C64.5606 58.516 65.1578 59.2825 64.843 59.8406C64.5281 60.3986 64.4011 61.7876 64.4011 61.7876C64.4011 61.7876 64.5041 64.4383 64.0369 64.8047C63.5696 65.1711 63.4722 66.0465 63.4722 66.0465C63.4722 66.0465 62.6139 67.7098 62.6407 68.1054C62.6675 68.5009 61.4464 71.1792 61.4464 71.1792C61.4464 71.1792 62.0435 67.8509 58.5637 66.4129C58.5637 66.4129 58.5368 65.283 58.7966 64.9733C59.0563 64.6636 59.4615 64.5226 59.2074 62.9573C58.9533 61.392 59.134 59.5217 59.134 59.1461C59.134 58.7705 59.9133 56.4279 59.9133 56.4279L62.6463 57.1929Z" fill="black"/>
<path d="M63.0697 54.74L63.9252 55.0466C63.9252 55.0466 64.3163 56.6824 64.3163 57.5563C64.3163 58.4301 64.8612 58.516 64.8612 58.516C64.8612 58.516 65.4583 59.2825 65.1435 59.8405C64.8287 60.3986 64.7031 61.7875 64.7031 61.7875C64.7031 61.7875 64.8061 64.4382 64.3389 64.8046C63.8716 65.171 63.7671 66.0464 63.7671 66.0464C63.7671 66.0464 62.9102 67.7098 62.937 68.1054C62.9638 68.5009 61.7413 71.1792 61.7413 71.1792C61.7413 71.1792 62.3399 67.8509 58.8586 66.4128C58.8586 66.4128 58.8332 65.283 59.0929 64.9733C59.3527 64.6636 59.7578 64.5226 59.5037 62.9573C59.2496 61.392 59.4303 59.5217 59.4303 59.1461C59.4303 58.7704 60.2096 56.4279 60.2096 56.4279L63.0697 54.74Z" fill="white"/>
<path opacity="0.1" d="M44.174 110.371C44.174 110.371 45.5377 109.44 46.4327 110.116C47.3278 110.792 44.174 110.371 44.174 110.371Z" fill="black"/>
<path opacity="0.1" d="M54.7701 107.493C54.7701 107.493 55.9772 107.325 56.9908 108.51C58.0044 109.695 54.7701 107.493 54.7701 107.493Z" fill="black"/>
<g opacity="0.1">
<path opacity="0.1" d="M56.5362 33.3521C56.3626 33.5146 56.1395 33.6311 56.0238 33.8473C55.9249 34.0328 55.9221 34.2612 55.8431 34.4605C55.764 34.6598 55.5339 34.8223 55.3744 34.6966C55.3377 33.3168 54.7109 32.0214 53.9415 30.9176C53.7264 30.5845 53.4649 30.2897 53.1664 30.0437C52.8643 29.797 52.4882 29.6817 52.1119 29.7202C51.6884 29.7831 51.3157 30.0958 50.8879 30.1342C50.3233 30.1863 49.8164 29.7616 49.256 29.7402C49.0282 29.7426 48.8036 29.7979 48.5971 29.9024C48.3907 30.0068 48.2071 30.158 48.0589 30.3457C47.7642 30.7232 47.5454 31.1634 47.4165 31.6381C47.1947 32.3585 47.0738 33.1109 47.058 33.8703C47.0495 34.298 47.0128 34.8315 46.6486 34.991C46.657 35.1042 46.657 35.218 46.6486 35.3313C47.0156 35.178 47.0523 34.6383 47.0608 34.2091C47.0765 33.4497 47.1974 32.6972 47.4194 31.9769C47.5482 31.5018 47.767 31.0611 48.0617 30.683C48.2103 30.4958 48.3939 30.3451 48.6003 30.2409C48.8067 30.1367 49.0312 30.0816 49.2588 30.079C49.8235 30.1004 50.3317 30.5236 50.8908 30.473C51.3143 30.4347 51.6898 30.1204 52.1147 30.0591C52.4911 30.0205 52.8671 30.1358 53.1693 30.3825C53.4677 30.6285 53.7292 30.9233 53.9443 31.2564C54.7137 32.3587 55.3405 33.651 55.3772 35.0339C55.5367 35.1611 55.7668 34.9955 55.8459 34.7993C55.9249 34.6031 55.9278 34.3731 56.0266 34.1861C56.1423 33.9699 56.3654 33.8549 56.539 33.6924C56.9795 33.28 57.0896 32.5856 57.0727 31.9555C57.0727 31.9355 57.0727 31.9156 57.0727 31.8972C57.0458 32.443 56.9117 32.9995 56.5362 33.3521Z" fill="black"/>
<path opacity="0.1" d="M46.115 33.2432C45.7903 32.8554 45.347 32.5963 45.0491 32.1854C44.7983 31.8217 44.6551 31.3839 44.6383 30.9298C44.5939 31.4972 44.7398 32.0629 45.0491 32.5227C45.347 32.9351 45.7903 33.1942 46.115 33.582C46.4267 33.9614 46.6139 34.4423 46.6472 34.9495C46.6688 34.6409 46.6328 34.3306 46.5414 34.0374C46.4499 33.7442 46.3049 33.4741 46.115 33.2432Z" fill="black"/>
<path opacity="0.1" d="M57.3481 28.6149C57.2648 28.9905 57.1165 29.3477 57.0488 29.7264C57.0087 29.9794 56.994 30.2364 57.005 30.4929C57.0097 30.3468 57.0244 30.2013 57.0488 30.0575C57.1165 29.6773 57.2648 29.3216 57.3481 28.946C57.3966 28.7389 57.4124 28.5242 57.3946 28.3113C57.3859 28.4136 57.3703 28.5151 57.3481 28.6149Z" fill="black"/>
</g>
<path opacity="0.1" d="M18.7375 116.604C26.3346 116.604 32.4933 115.53 32.4933 114.205C32.4933 112.88 26.3346 111.806 18.7375 111.806C11.1405 111.806 4.98181 112.88 4.98181 114.205C4.98181 115.53 11.1405 116.604 18.7375 116.604Z" fill="#6C63FF"/>
<path d="M19.181 68.2433H18.2959V89.8858H19.181V68.2433Z" fill="#535461"/>
<path d="M24.743 89.8199L24.688 90.7949L24.6089 92.1747L24.5764 92.7481L24.4988 94.1278L24.4649 94.7012L24.3859 96.081L23.4937 111.729C23.4549 112.402 23.1813 113.034 22.7287 113.496C22.276 113.958 21.6782 114.216 21.057 114.216H16.4182C15.7971 114.215 15.1995 113.958 14.7471 113.496C14.2947 113.034 14.0214 112.402 13.983 111.729L13.095 96.0702L13.0159 94.6905L12.9835 94.1171L12.9044 92.7373L12.8719 92.164L12.7929 90.7842L12.7364 89.8092C12.7266 89.6215 12.7522 89.4336 12.8117 89.2571C12.8711 89.0806 12.9631 88.9191 13.0821 88.7826C13.2011 88.646 13.3445 88.5374 13.5035 88.4632C13.6626 88.389 13.8339 88.3509 14.007 88.3512H23.4951C23.6675 88.3528 23.8378 88.3928 23.9955 88.4686C24.1531 88.5445 24.2948 88.6546 24.4117 88.7923C24.5287 88.9299 24.6184 89.0921 24.6754 89.2688C24.7324 89.4456 24.7554 89.6331 24.743 89.8199Z" fill="#3F3D56"/>
<path d="M24.6881 90.7949L24.609 92.1701H12.8664L12.7874 90.7949H24.6881Z" fill="#9D9CB5"/>
<path d="M24.5765 92.7434L24.4989 94.1201H12.9779L12.8988 92.7434H24.5765Z" fill="#9D9CB5"/>
<path d="M24.4649 94.6951L24.3872 96.0703H13.0893L13.0103 94.6951H24.4649Z" fill="#9D9CB5"/>
<path d="M11.4353 76.3549C16.5895 80.4053 18.741 86.7399 18.741 86.7399C18.741 86.7399 12.5294 86.5084 7.37384 82.458C2.21826 78.4077 0.0710449 72.0745 0.0710449 72.0745C0.0710449 72.0745 6.27976 72.3045 11.4353 76.3549Z" fill="#6C63FF"/>
<path d="M0.0668945 72.0745C0.0668945 72.0745 6.5156 75.9609 8.58376 79.1788C10.6519 82.3967 18.741 86.7399 18.741 86.7399" stroke="#535461" stroke-width="2" stroke-miterlimit="10"/>
<path d="M14.7636 68.1958C17.5687 70.3988 18.7419 73.8467 18.7419 73.8467C18.7419 73.8467 15.3608 73.721 12.5543 71.518C9.74783 69.315 8.57751 65.8655 8.57751 65.8655C8.57751 65.8655 11.9572 65.9912 14.7636 68.1958Z" fill="#6C63FF"/>
<path d="M8.57751 65.8655C8.57751 65.8655 12.087 67.9812 13.2122 69.732C14.3373 71.4827 18.7419 73.8467 18.7419 73.8467" stroke="#535461" stroke-width="2" stroke-miterlimit="10"/>
<path d="M22.8147 73.672C19.5918 77.5185 18.9099 82.5454 18.9099 82.5454C18.9099 82.5454 23.4542 81.3343 26.6743 77.4863C29.8945 73.6383 30.5791 68.6129 30.5791 68.6129C30.5791 68.6129 26.0377 69.8255 22.8147 73.672Z" fill="#6C63FF"/>
<path d="M30.582 68.6143C30.582 68.6143 26.3835 72.5574 25.3163 75.274C24.249 77.9906 18.9099 82.5454 18.9099 82.5454" stroke="#535461" stroke-width="2" stroke-miterlimit="10"/>
<path d="M141.125 72.3183C141.125 72.3183 138.794 59.7256 139.686 58.1588C139.686 58.1588 139.719 56.7024 139.665 54.8458C139.665 54.7753 139.665 54.7048 139.665 54.6327C139.822 54.7464 139.986 54.8488 140.155 54.9393C140.977 55.398 141.921 55.5303 142.823 55.3134L142.117 54.4595C141.948 54.2556 141.771 54.0348 141.735 53.765C141.698 53.4952 141.8 53.2545 141.887 53.0138C142.558 51.1741 142.593 48.8607 141.301 47.4564C140.21 46.2759 139.945 44.752 138.76 43.6743C137.895 42.8848 137.419 41.7273 136.97 40.6081C136.59 39.6622 136.208 38.7087 135.99 37.706C135.821 36.9226 135.753 36.1116 135.52 35.3466C135.287 34.5816 134.851 33.8381 134.169 33.4962C133.926 33.3751 133.657 33.3061 133.435 33.1451C133.144 32.932 132.969 32.5856 132.759 32.282C131.69 30.7489 128.112 31.6519 126.418 32.2743C125.957 32.4311 125.531 32.6877 125.164 33.0286L125.18 33.001C125.192 32.978 125.208 32.955 125.222 32.932C125.036 33.0949 124.876 33.289 124.748 33.5069C124.5 33.9316 124.397 34.4268 124.191 34.8867C123.943 35.4309 122.561 36.9502 123.155 37.5619C123.197 37.603 123.244 37.6362 123.296 37.66C123.519 37.7609 123.765 37.7876 124.002 37.7367L123.977 37.8026C123.774 38.3423 123.67 38.9198 123.67 39.5028C123.67 42.0216 125.583 44.0637 127.945 44.0637C128.389 44.0642 128.83 43.9902 129.254 43.8445C129.264 43.9027 129.272 43.961 129.282 44.0192C129.282 44.0422 129.289 44.0652 129.292 44.0882L129.217 44.2017C129.213 44.1947 129.209 44.188 129.204 44.1817L126.988 47.5453C126.649 47.8044 124.698 49.3375 124.588 50.4873C124.472 51.7459 124.356 53.2192 124.356 53.2192L124.341 53.535C124.244 53.6229 124.131 53.687 124.009 53.7227C123.887 53.7584 123.76 53.765 123.635 53.742C122.943 53.6194 122.943 56.5015 122.943 56.5015C122.943 56.5015 122.483 56.9615 122.167 56.5629C121.851 56.1643 121.015 57.5149 121.015 57.5149L115.777 57.7602L115.657 57.7679L115.375 56.8189C115.345 56.7188 115.279 56.6358 115.193 56.5878C115.106 56.5399 115.006 56.5309 114.914 56.5629C114.892 56.5707 114.87 56.5804 114.85 56.592L114.83 56.6043L114.794 56.6319L114.775 56.6502C114.765 56.6602 114.756 56.671 114.747 56.6824L114.73 56.7039L114.722 56.7131C114.689 56.762 114.667 56.8186 114.659 56.8782C114.65 56.9379 114.654 56.9989 114.671 57.0565L114.914 57.8706C113.903 58.0913 112.869 58.7138 113.712 60.4277L109.44 59.5708L110.822 60.8309L117.957 62.4299C117.863 62.6139 117.925 62.8807 118.22 63.2563C119.49 64.8767 121.806 65.3167 122.737 65.4302C122.983 66.0279 123.291 66.5936 123.653 67.1166L123.573 68.7309C123.573 68.7309 121.214 81.0354 120.782 81.6593C121 81.391 121.2 81.1056 121.379 80.8054C120.694 83.3334 119.737 86.7936 119.486 87.3118C119.082 88.1396 118.708 91.4894 119.168 91.704C119.31 91.77 119.713 91.7378 120.289 91.6902V91.9677L120.264 102.483C120.264 102.483 120.38 108.933 120.062 109.548C119.744 110.162 119.66 111.452 119.66 111.452C119.66 111.452 118.389 113.995 117.383 115.018C117.376 115.025 117.368 115.033 117.36 115.039L117.329 114.8C117.329 114.8 116.119 116.459 113.443 116.365C113.443 116.365 111.832 117.503 114.22 117.564C116.609 117.625 119.66 117.472 119.66 117.472C119.66 117.472 121.79 113.946 123.574 114.406V117.078H124.121V114.363C124.374 114.182 124.591 113.947 124.758 113.672C124.925 113.397 125.039 113.088 125.093 112.764C125.14 112.43 125.106 112.088 124.994 111.773C124.882 111.457 124.696 111.179 124.455 110.966C124.347 110.859 124.26 110.73 124.2 110.585C124.14 110.441 124.108 110.284 124.107 110.125L124.087 110.144C124.087 110.09 124.074 110.035 124.068 109.978C123.912 108.599 123.716 105.752 124.409 103.645C125.359 100.757 125.647 96.7341 124.955 94.3394C124.732 93.5739 124.548 92.7954 124.406 92.0076C124.389 91.9079 124.373 91.8129 124.359 91.724C124.832 91.7934 125.3 91.8958 125.761 92.0306C127.363 92.5104 130.869 92.5993 133.862 92.5733C133.869 92.6622 133.877 92.7557 133.887 92.8492C133.94 93.4993 134.052 94.1421 134.22 94.7686C134.596 95.9951 134.768 101.402 134.768 101.402C134.768 101.402 135.252 105.848 134.988 107.657C134.847 108.663 134.706 109.673 134.625 110.688V110.708C134.625 110.708 133.832 113.161 133.252 114.493C133.238 114.527 133.222 114.561 133.208 114.593C133.053 114.608 132.901 114.645 132.755 114.702C132.755 114.702 131.977 116.388 131.202 116.667C130.427 116.946 130.684 117.864 132.439 117.527C134.193 117.19 136.843 116.914 136.843 116.914L136.957 115.194L137.497 114.461L137.356 116.177L137.93 116.054L137.854 113.967L138.736 112.769C138.736 112.769 139.802 111.738 138.218 109.712V109.756C138.201 109.727 138.186 109.696 138.167 109.667V109.658C137.905 109.216 137.696 108.393 138.078 106.932C138.77 104.292 139.172 101.896 139.172 101.896C139.172 101.896 140.717 95.4769 138.86 92.4399H138.942C138.752 92.0125 138.618 91.5585 138.543 91.0908C138.533 91.0356 138.525 90.9789 138.517 90.9206C139.891 90.8348 141.239 90.565 142.339 89.9824C142.335 89.9763 141.673 74.7436 141.125 72.3183ZM123.686 61.6941V61.7247L123.404 61.7401L123.686 61.6941ZM122.717 61.8397C122.671 61.8509 122.628 61.8734 122.59 61.9056C122.469 62.0921 122.393 62.3088 122.369 62.5357L121.928 62.4284C121.928 62.4284 121.619 62.3564 121.174 62.2751L120.964 62.0451C121.543 61.993 122.144 61.9164 122.717 61.8397Z" fill="url(#paint1_linear)"/>
<path d="M137.291 113.989L137.123 116.161L137.686 116.038L137.601 113.682L137.291 113.989Z" fill="#1D2366"/>
<path d="M124.44 103.674C123.761 105.775 123.953 108.609 124.105 109.986C124.161 110.495 124.214 110.805 124.214 110.805C124.214 110.805 123.199 113.316 123.114 113.411C123.029 113.506 120.127 115.43 120.127 115.43L118.098 116.716C118.098 116.716 116.04 115.736 117.027 115.399C117.228 115.311 117.41 115.177 117.559 115.005C118.547 113.986 119.788 111.452 119.788 111.452C119.788 111.452 119.873 110.165 120.183 109.554C120.494 108.942 120.381 102.514 120.381 102.514L120.405 92.0352V90.6692L124.266 90.6999C124.29 91.1636 124.346 91.6247 124.433 92.0796C124.571 92.8648 124.751 93.6407 124.97 94.4038C125.651 96.7938 125.368 100.797 124.44 103.674Z" fill="#FFB0B1"/>
<path opacity="0.1" d="M124.214 110.805C124.214 110.805 123.199 113.316 123.114 113.411C123.029 113.506 120.127 115.43 120.127 115.43L118.098 116.716C118.098 116.716 116.04 115.737 117.027 115.399C117.228 115.311 117.41 115.177 117.559 115.005L117.646 115.675L118.323 115.645L124.111 109.989C124.161 110.495 124.214 110.805 124.214 110.805Z" fill="black"/>
<path d="M124.143 110.132L118.323 115.825L117.647 115.856L117.506 114.783C117.506 114.783 116.323 116.436 113.694 116.344C113.694 116.344 112.116 117.477 114.455 117.538C116.794 117.599 119.781 117.446 119.781 117.446C119.781 117.446 121.868 113.92 123.614 114.38V117.043H124.15V114.355C124.4 114.173 124.613 113.938 124.776 113.664C124.94 113.39 125.051 113.083 125.102 112.761C125.148 112.429 125.116 112.091 125.007 111.777C124.897 111.463 124.716 111.186 124.479 110.97C124.374 110.863 124.289 110.733 124.232 110.589C124.174 110.444 124.144 110.289 124.143 110.132Z" fill="#1D2366"/>
<path d="M137.827 106.949C137.452 108.405 137.656 109.226 137.913 109.666V109.675C138.243 110.218 138.472 110.826 138.588 111.464L138.611 111.602L135.962 115.795L134.525 116.408C134.525 116.408 132.214 115.551 132.636 115.306C132.742 115.246 132.907 114.927 133.096 114.487C133.661 113.161 134.44 110.714 134.44 110.714V110.694C134.522 109.684 134.652 108.677 134.796 107.674C135.054 105.87 134.58 101.441 134.58 101.441C134.58 101.441 134.411 96.0549 134.044 94.83C133.878 94.2072 133.768 93.5685 133.715 92.9228C133.639 92.1563 133.622 91.5246 133.622 91.5246C133.622 91.5246 135.143 89.225 137.933 91.7086C138.156 91.9067 138.352 92.1379 138.516 92.3954C140.443 95.3727 138.892 101.931 138.892 101.931C138.892 101.931 138.503 104.317 137.827 106.949Z" fill="#FFB0B1"/>
<path opacity="0.1" d="M138.615 111.602L135.966 115.795L134.529 116.408C134.529 116.408 132.218 115.551 132.64 115.306C132.746 115.246 132.911 114.927 133.101 114.487C134.079 114.478 134.586 115.49 134.586 115.49L135.825 115.275C135.825 115.275 137.46 111.786 137.827 111.573C138.194 111.36 137.883 109.98 137.883 109.98V109.629C137.893 109.641 137.902 109.655 137.913 109.667V109.676C138.243 110.22 138.472 110.827 138.588 111.465L138.615 111.602Z" fill="black"/>
<path d="M134.67 115.58C134.67 115.58 133.964 114.173 132.612 114.693C132.612 114.693 131.851 116.379 131.09 116.652C130.329 116.925 130.583 117.845 132.303 117.509C134.022 117.173 136.614 116.896 136.614 116.896L136.727 115.18L138.475 112.762C138.475 112.762 139.517 111.737 137.967 109.718V110.069C137.967 110.069 138.277 111.448 137.91 111.662C137.543 111.875 135.914 115.366 135.914 115.366L134.67 115.58Z" fill="#1D2366"/>
<path opacity="0.1" d="M124.27 90.6968C124.295 91.1605 124.35 91.6217 124.437 92.0766C122.847 91.8236 121.372 91.9493 120.405 92.0321V90.6661L124.27 90.6968Z" fill="black"/>
<path opacity="0.1" d="M138.673 92.7772C138.673 92.7772 136.414 92.8968 133.72 92.9213C133.644 92.1547 133.627 91.5231 133.627 91.5231C133.627 91.5231 135.149 89.2235 137.938 91.7071C138.162 91.9052 138.358 92.1364 138.522 92.3939C138.565 92.5246 138.616 92.6526 138.673 92.7772Z" fill="black"/>
<path d="M138.673 92.5012C138.673 92.5012 128.779 93.0209 125.764 92.1026C122.749 91.1843 119.76 91.9799 119.31 91.7668C118.859 91.5537 119.225 88.2162 119.62 87.3899C120.015 86.5636 122.184 78.2068 122.184 78.2068L124.27 66.3929L126.468 65.7352L126.624 65.6877L130.454 64.5409L133.26 63.6993C133.26 63.6993 138.841 87.3593 138.362 89.1039C138.188 89.772 138.16 90.4748 138.28 91.1567C138.353 91.6223 138.485 92.0748 138.673 92.5012Z" fill="#1D2366"/>
<path d="M116.997 58.3136C116.997 58.3136 115.021 60.6132 116.517 61.8949C118.014 63.1765 118.998 62.0175 118.998 62.0175L116.997 58.3136Z" fill="#C7DAF5"/>
<path opacity="0.1" d="M116.997 58.3136C116.997 58.3136 115.021 60.6132 116.517 61.8949C118.014 63.1765 118.998 62.0175 118.998 62.0175L116.997 58.3136Z" fill="black"/>
<path d="M132.965 43.1944C132.965 43.1944 132.734 43.4336 132.385 43.7862C131.888 44.2905 131.152 45.028 130.5 45.6458C129.597 46.4997 128.851 47.1267 129.118 46.5917C129.385 46.0567 129.334 45.1245 129.201 44.2522C129.192 44.194 129.183 44.1357 129.173 44.079C129.063 43.4383 128.918 42.8055 128.737 42.1841C128.737 42.1841 130.197 40.1359 131.004 39.328C131.305 39.0214 131.515 38.8957 131.528 39.1088C131.542 39.3954 131.74 40.0286 131.985 40.7001C131.992 40.7215 131.999 40.7415 132.008 40.7629C132.172 41.2229 132.357 41.6951 132.519 42.1029C132.767 42.7283 132.965 43.1944 132.965 43.1944Z" fill="#FFB0B1"/>
<path opacity="0.1" d="M132.008 40.763C131.871 41.5642 131.538 42.3108 131.044 42.9246C130.55 43.5384 129.914 43.9969 129.201 44.2523C129.089 43.5524 128.934 42.8615 128.737 42.1841C128.737 42.1841 131.486 38.3284 131.528 39.1088C131.538 39.4047 131.752 40.0608 132.008 40.763Z" fill="black"/>
<path opacity="0.1" d="M128.928 45.2825L129.283 44.7382C129.283 44.7382 129.519 46.2989 130.386 45.6105C131.253 44.9222 131.295 50.7908 131.295 50.7908L130.365 65.8962L123.642 65.4593L123.833 58.1603L124.594 54.4809L126.475 49.132L127.595 47.3644L128.928 45.2825Z" fill="black"/>
<path d="M131.295 50.8843L130.448 64.5425L130.359 65.9898L126.611 65.746L126.47 65.7368L123.646 65.5528L123.837 58.2523L124.598 54.5729L126.48 49.224L127.599 47.4564L128.932 45.3668L129.288 44.8241C129.288 44.8241 129.523 46.3848 130.39 45.6964L130.409 45.6826C131.256 45.1 131.295 50.8843 131.295 50.8843Z" fill="#1D2366"/>
<path d="M124.692 53.2943C124.692 53.2943 124.355 54.0609 123.677 53.9367C123 53.8125 123.001 56.6962 123.001 56.6962C123.001 56.6962 122.551 57.1561 122.24 56.7575C121.93 56.3589 121.111 57.7065 121.111 57.7065L115.981 57.9518C115.981 57.9518 118.263 59.0847 117.816 62.5127C117.816 62.5127 125.566 61.9915 125.82 61.1958C126.074 60.4001 124.692 53.2943 124.692 53.2943Z" fill="white"/>
<path opacity="0.03" d="M124.692 53.2943C124.692 53.2943 124.355 54.0609 123.677 53.9367C123 53.8125 123.001 56.6962 123.001 56.6962C123.001 56.6962 122.551 57.1561 122.24 56.7575C121.93 56.3589 121.111 57.7065 121.111 57.7065L115.981 57.9518C115.981 57.9518 118.263 59.0847 117.816 62.5127C117.816 62.5127 125.566 61.9915 125.82 61.1958C126.074 60.4001 124.692 53.2943 124.692 53.2943Z" fill="black"/>
<path d="M109.783 59.7532L111.136 61.0072L122.268 63.5475L120.888 62.0175L109.783 59.7532Z" fill="white"/>
<path d="M128.949 45.7654C128.764 46.072 128.235 47.6419 127.793 49.0124C127.424 50.1546 127.116 51.1588 127.116 51.1588C127.116 51.1588 126.398 56.2394 126.031 57.1577C125.664 58.076 125.863 61.6573 125.863 61.6573L124.495 70.5016C124.495 70.5016 123.875 75.0625 122.918 77.7867C121.974 80.4681 120.922 81.7252 120.889 81.7651C121.313 81.1426 123.621 68.8872 123.621 68.8872L124.383 53.4308C124.383 53.4308 124.495 51.9621 124.608 50.7065C124.721 49.4509 127.008 47.7369 127.008 47.7369L129.213 44.332C129.435 44.6539 129.286 45.215 128.949 45.7654Z" fill="white"/>
<path d="M123.199 65.6295C123.199 65.6295 119.952 65.4762 118.379 63.4249C116.807 61.3736 122.014 62.6062 122.014 62.6062L123.368 62.9435L123.199 65.6295Z" fill="#FFB0B1"/>
<path opacity="0.1" d="M138.362 89.1054C138.188 89.7735 138.16 90.4763 138.28 91.1582C134.738 91.4311 130.949 90.3917 130.949 90.3917C130.243 91.0969 128.384 92.1363 128.384 92.1363L127.37 78.492C126.722 76.6523 126.468 67.0138 126.468 67.0138C126.468 67.0138 126.526 66.5094 126.609 65.7536C126.609 65.7352 126.609 65.7153 126.616 65.6969C126.869 63.5859 127.37 59.6229 127.616 59.0878C127.955 58.3519 126.574 56.3942 126.574 56.3942L127.202 50.5762L127.279 49.874C128.603 49.2317 129.618 47.1804 129.618 47.1804L130.397 45.6979C131.244 45.1077 131.288 50.892 131.288 50.892L130.441 64.5502L133.247 63.7085C133.247 63.7085 138.84 87.3608 138.362 89.1054Z" fill="black"/>
<path d="M141.997 90.0483C138.136 92.1302 131.118 90.2016 131.118 90.2016C130.413 90.9068 128.553 91.9463 128.553 91.9463L127.538 78.3019C126.892 76.4622 126.638 66.8237 126.638 66.8237C126.638 66.8237 127.454 59.6321 127.792 58.8977C127.891 58.6831 127.843 58.3642 127.726 58.0208C127.15 56.3863 126.938 54.627 127.108 52.8865L127.379 50.3861L127.454 49.6855C128.779 49.0416 129.794 46.9903 129.794 46.9903L130.5 45.6474L131.799 43.173L132.414 42.0017L132.519 42.1044L133.317 42.8894C133.317 42.8894 133.655 43.196 134.164 43.6559C135.269 44.6677 137.179 46.4492 138.164 47.5392C139.031 48.4989 139.305 52.2319 139.384 55.0421C139.436 56.8925 139.405 58.3428 139.405 58.3428C138.531 59.905 140.817 72.4471 140.817 72.4471C141.349 74.8709 141.997 90.0483 141.997 90.0483Z" fill="white"/>
<path opacity="0.03" d="M134.586 46.9596C134.586 46.9596 131.936 52.4373 132.244 54.5192C132.551 56.6012 133.427 58.9575 133.005 59.5079C132.86 59.7164 132.672 59.8856 132.457 60.0024C132.242 60.1192 132.004 60.1802 131.764 60.1809C131.34 60.2116 130.211 61.0685 130.211 61.1605C130.211 61.2525 129.168 61.2525 128.234 61.6818C127.301 62.111 125.924 62.3548 125.924 62.3548C125.924 62.3548 123.241 62.2628 122.991 62.5388C122.742 62.8147 122.485 64.4658 123.02 65.7828C123.555 67.0997 124.149 68.0824 124.598 68.2617C125.047 68.4411 127.896 67.4048 130.207 67.1595C132.518 66.9142 135.026 64.9258 135.026 64.9258C135.026 64.9258 137.789 63.8526 138.273 62.0482C138.757 60.2437 137.682 50.3263 137.682 50.3263C137.682 50.3263 136.868 45.7041 134.586 46.9596Z" fill="black"/>
<path opacity="0.03" d="M134.247 46.4997C134.247 46.4997 131.597 51.979 131.908 54.0593C132.218 56.1397 133.091 58.4976 132.667 59.0495C132.523 59.2582 132.335 59.4277 132.12 59.5445C131.905 59.6613 131.668 59.7222 131.428 59.7225C131.004 59.7532 129.875 60.6102 129.875 60.7022C129.875 60.7941 128.832 60.7941 127.898 61.2219C126.965 61.6496 125.587 61.8949 125.587 61.8949C125.587 61.8949 122.905 61.8029 122.657 62.0789C122.408 62.3548 122.148 64.0075 122.685 65.3228C123.221 66.6382 123.814 67.6225 124.263 67.8018C124.712 67.9812 127.561 66.9448 129.872 66.7011C132.183 66.4573 134.692 64.4659 134.692 64.4659C134.692 64.4659 137.453 63.3927 137.931 61.5898C138.41 59.7869 137.34 49.8664 137.34 49.8664C137.34 49.8664 136.53 45.2457 134.247 46.4997Z" fill="black"/>
<path d="M134.502 46.6837C134.502 46.6837 131.853 52.1629 132.163 54.2433C132.474 56.3237 133.346 58.6816 132.924 59.2319C132.78 59.4412 132.592 59.611 132.377 59.7281C132.162 59.8452 131.924 59.9063 131.683 59.9065C131.26 59.9372 130.13 60.7941 130.13 60.8846C130.13 60.975 129.088 60.9766 128.154 61.4058C127.219 61.8351 125.843 62.0789 125.843 62.0789C125.843 62.0789 123.161 61.9869 122.911 62.2628C122.661 62.5388 122.404 64.1914 122.939 65.5068C123.474 66.8222 124.068 67.8064 124.517 67.9858C124.966 68.1652 127.815 67.1288 130.126 66.8835C132.437 66.6382 134.946 64.6498 134.946 64.6498C134.946 64.6498 137.708 63.5767 138.193 61.7723C138.677 59.9678 137.608 50.0503 137.608 50.0503C137.608 50.0503 136.784 45.4358 134.502 46.6837Z" fill="white"/>
<path opacity="0.1" d="M134.445 61.3798C134.445 61.3798 132.327 60.9198 133.064 61.6864C133.801 62.4529 133.797 63.1244 134.699 63.0937C135.601 63.0631 134.445 61.3798 134.445 61.3798Z" fill="black"/>
<path opacity="0.1" d="M138.023 77.8726C138.023 77.8726 137.066 78.5763 138.897 80.1983C140.728 81.8203 138.023 77.8726 138.023 77.8726Z" fill="black"/>
<path opacity="0.1" d="M136.197 83.6569C136.197 83.7488 135.858 87.0296 137.125 87.8498C138.393 88.67 136.197 83.6569 136.197 83.6569Z" fill="black"/>
<path d="M116.068 57.9442C115.046 57.9825 112.838 58.3213 113.983 60.6408C114.995 62.6936 116.697 61.3215 117.654 60.2806C117.42 59.31 116.853 58.4738 116.068 57.9442Z" fill="#FFB0B1"/>
<path d="M117.666 60.2616L117.708 60.2146L117.666 60.2616Z" fill="#FFB0B1"/>
<path opacity="0.1" d="M134.164 43.7494C133.079 44.5542 132.17 45.2334 131.992 45.3744C131.507 45.7654 130.581 48.0604 129.984 49.2316C129.508 50.1745 127.962 50.4167 127.379 50.4765L127.454 49.7759C128.779 49.132 129.794 47.0807 129.794 47.0807L132.414 42.0921L133.317 42.9828C133.317 42.9828 133.655 43.2894 134.164 43.7494Z" fill="black"/>
<path d="M134.164 43.6574C133.079 44.4623 132.17 45.1415 131.992 45.284C131.507 45.6734 130.581 47.9685 129.984 49.1397C129.508 50.0826 127.962 50.3248 127.379 50.3846L127.454 49.684C128.779 49.0401 129.794 46.9888 129.794 46.9888L132.414 42.0002L133.317 42.8878C133.317 42.8878 133.655 43.1914 134.164 43.6574Z" fill="#DCE7FF"/>
<path d="M132.077 39.7511C132.078 40.6714 131.821 41.5701 131.34 42.3282C130.773 43.2245 129.928 43.8702 128.96 44.1481C127.991 44.426 126.963 44.3177 126.062 43.8429C125.161 43.3681 124.447 42.5582 124.048 41.5602C123.65 40.5622 123.594 39.4422 123.891 38.4034C124.188 37.3646 124.818 36.4759 125.667 35.8984C126.516 35.321 127.527 35.0931 128.518 35.2562C129.508 35.4192 130.412 35.9623 131.065 36.787C131.718 37.6117 132.077 38.6634 132.077 39.7511Z" fill="#FFB0B1"/>
<path opacity="0.1" d="M139.384 55.0436C138.811 54.6606 138.344 54.1159 138.033 53.4675C137.797 52.9616 137.641 52.3775 137.238 52.0188C136.876 51.6968 136.391 51.6187 135.94 51.4745C134.454 50.9978 133.209 49.526 133.163 47.8458C133.14 47.0547 133.367 46.2652 133.264 45.4817C133.206 45.0384 133.043 44.6187 132.793 44.263C132.668 44.0928 132.532 43.9334 132.385 43.7862C132.187 43.5838 131.98 43.3876 131.799 43.1729C131.685 43.04 131.586 42.8935 131.503 42.736C131.435 42.6072 131.381 42.471 131.34 42.3297C131.058 41.3915 131.315 40.2785 131.004 39.3295L130.987 39.2774C130.87 38.9401 130.632 38.6028 130.3 38.5768C129.968 38.5507 129.684 38.8497 129.368 38.983C128.706 39.2621 127.992 38.7868 127.44 38.3024C126.888 37.8179 126.265 37.2645 125.563 37.3718C125.099 37.4438 124.732 37.7872 124.304 37.9651C124.208 38.0057 124.108 38.037 124.006 38.0586C124.368 37.0782 125.033 36.2653 125.887 35.7596C126.741 35.2539 127.731 35.0869 128.686 35.2874C129.641 35.4878 130.502 36.0432 131.12 36.858C131.739 37.6729 132.078 38.6964 132.077 39.7526C132.078 40.0716 132.047 40.3897 131.985 40.7016C131.992 40.7231 131.999 40.743 132.008 40.7645C132.172 41.2244 132.357 41.6966 132.519 42.1044L133.317 42.8893C133.317 42.8893 133.655 43.1959 134.164 43.6559C135.269 44.6677 137.179 46.4491 138.164 47.5391C139.031 48.5019 139.302 52.2334 139.384 55.0436Z" fill="black"/>
<path d="M124.255 35.1641C124.457 34.718 124.557 34.2182 124.798 33.7951C125.153 33.1819 125.771 32.7894 126.406 32.5518C128.065 31.9309 131.57 31.0294 132.618 32.5518C132.824 32.8584 132.995 33.1987 133.28 33.4103C133.497 33.5713 133.76 33.6403 133.998 33.7614C134.666 34.1017 135.092 34.8437 135.32 35.6011C135.547 36.3584 135.615 37.1709 135.781 37.9513C135.995 38.9524 136.369 39.9013 136.741 40.8442C137.18 41.9572 137.646 43.1116 138.493 43.8981C139.649 44.9712 139.905 46.4905 140.978 47.6679C142.248 49.0661 142.207 51.3733 141.552 53.2054C141.466 53.4461 141.369 53.6975 141.403 53.9535C141.437 54.2095 141.612 54.4426 141.777 54.6465L142.471 55.4973C140.828 55.9281 138.969 54.996 138.204 53.3602C137.968 52.8543 137.811 52.2717 137.408 51.9115C137.046 51.5895 136.561 51.5129 136.11 51.3687C134.625 50.8904 133.38 49.4171 133.333 47.7369C133.311 46.9474 133.538 46.1578 133.435 45.3759C133.378 44.9296 133.215 44.507 132.962 44.1495C132.574 43.5991 131.988 43.2296 131.672 42.6164C131.137 41.5908 131.543 40.2585 131.158 39.1578C131.039 38.8205 130.802 38.4832 130.471 38.4572C130.139 38.4311 129.855 38.7301 129.537 38.8634C128.877 39.1425 128.162 38.6687 127.61 38.1828C127.058 37.6968 126.436 37.1449 125.733 37.2537C125.268 37.3242 124.903 37.6676 124.475 37.847C124.159 37.9789 123.518 38.0969 123.241 37.8071C122.657 37.223 124.011 35.7099 124.255 35.1641Z" fill="#591D4B"/>
<path opacity="0.1" d="M138.596 52.8543C138.359 52.3484 138.204 51.7658 137.8 51.4071C137.439 51.0851 136.953 51.007 136.501 50.8628C135.018 50.3861 133.773 48.9128 133.725 47.2325C133.702 46.443 133.929 45.6519 133.828 44.8701C133.768 44.4266 133.606 44.007 133.355 43.6513C132.965 43.1009 132.379 42.7314 132.064 42.1182C131.529 41.0941 131.936 39.7618 131.549 38.6596C131.432 38.3238 131.193 37.9865 130.863 37.959C130.533 37.9314 130.246 38.2334 129.93 38.3668C129.269 38.6458 128.553 38.1705 128.003 37.6861C127.452 37.2016 126.827 36.6482 126.125 36.7555C125.661 36.8275 125.294 37.171 124.867 37.3488C124.551 37.4806 123.909 37.6002 123.632 37.3105C123.051 36.6972 124.404 35.1872 124.647 34.6444C124.849 34.1968 124.949 33.6985 125.192 33.2754C125.205 33.2524 125.219 33.2294 125.233 33.2064C125.052 33.3698 124.895 33.5633 124.769 33.7798C124.527 34.2029 124.427 34.6996 124.225 35.1488C123.981 35.6915 122.627 37.2062 123.21 37.8148C123.492 38.1061 124.128 37.9865 124.444 37.8547C124.867 37.6753 125.237 37.3319 125.702 37.2614C126.408 37.1526 127.029 37.706 127.579 38.1904C128.13 38.6749 128.85 39.1502 129.508 38.8711C129.824 38.7378 130.101 38.4373 130.44 38.4649C130.778 38.4925 131.004 38.8282 131.127 39.1655C131.512 40.2662 131.106 41.5985 131.641 42.6241C131.957 43.2266 132.543 43.6037 132.931 44.1572C133.184 44.5147 133.347 44.9373 133.404 45.3836C133.507 46.1655 133.28 46.955 133.302 47.7446C133.349 49.431 134.594 50.8981 136.079 51.3764C136.527 51.5205 137.015 51.5972 137.377 51.9191C137.782 52.2794 137.941 52.862 138.173 53.3679C138.938 55.0037 140.797 55.9358 142.44 55.505L142.113 55.1033C140.689 55.1263 139.247 54.2463 138.596 52.8543Z" fill="black"/>
<path opacity="0.1" d="M128.864 45.8573C128.679 46.1639 128.15 47.7338 127.708 49.1044C127.294 48.9296 126.919 47.8151 126.919 47.8151L129.124 44.4086C129.35 44.7458 129.202 45.3054 128.864 45.8573Z" fill="black"/>
<path d="M128.949 45.7654C128.764 46.072 128.234 47.6419 127.793 49.0125C127.379 48.8392 127.003 47.7231 127.003 47.7231L129.209 44.3182C129.434 44.6539 129.286 45.215 128.949 45.7654Z" fill="#DCE7FF"/>
<path d="M116.128 61.4273L114.905 57.2405C114.891 57.1915 114.885 57.1398 114.889 57.0885C114.893 57.0372 114.906 56.9873 114.928 56.9416C114.95 56.8958 114.98 56.8552 115.016 56.8221C115.052 56.7889 115.094 56.7639 115.139 56.7484C115.23 56.7175 115.329 56.727 115.413 56.7746C115.498 56.8223 115.562 56.9043 115.591 57.0029L116.814 61.1851L116.692 62.0605L116.128 61.4273Z" fill="#BE8B87"/>
<path opacity="0.1" d="M115.021 56.8725C115.112 56.8412 115.211 56.8504 115.296 56.8981C115.381 56.9458 115.445 57.0281 115.474 57.127L116.697 61.3092L116.605 61.9654L116.694 62.0666L116.815 61.1912L115.586 57.009C115.556 56.9104 115.493 56.8284 115.408 56.7807C115.323 56.7331 115.225 56.7236 115.134 56.7545C115.057 56.7814 114.991 56.8354 114.946 56.9078C114.97 56.8938 114.995 56.882 115.021 56.8725Z" fill="white"/>
<path d="M116.127 61.4273L116.814 61.1912L116.713 61.9087L116.692 62.0666L116.492 61.8397L116.127 61.4273Z" fill="#EFC8C4"/>
<path d="M116.492 61.8397C116.504 61.8233 116.519 61.8098 116.535 61.7999C116.545 61.793 116.557 61.7894 116.569 61.7894C116.58 61.7894 116.592 61.793 116.602 61.7999C116.611 61.8125 116.619 61.8264 116.626 61.8412C116.635 61.8582 116.648 61.8726 116.663 61.8835C116.678 61.8944 116.695 61.9014 116.713 61.9041L116.692 62.0574L116.492 61.8397Z" fill="#727A9C"/>
<path d="M114.898 58.7275C114.898 58.7275 117.35 58.7122 116.773 59.8452C116.195 60.9781 115.293 61.1145 115.293 61.1145L114.898 58.7275Z" fill="#FFB0B1"/>
<path d="M99.6472 7.88306H99.5414C95.3288 7.88306 91.6033 10.3038 89.4603 13.8759C87.3173 10.3038 83.5918 7.88306 79.3793 7.88306H79.2734C76.112 7.91577 73.0902 9.30207 70.8647 11.7407C68.6392 14.1793 67.3899 17.4732 67.3882 20.9065C67.3882 25.17 69.1076 31.2195 72.4605 36.1974C78.8485 45.6826 89.4603 53.9811 89.4603 53.9811C89.4603 53.9811 100.072 45.6841 106.459 36.1974C109.813 31.2195 111.531 25.17 111.531 20.9065C111.529 17.4735 110.28 14.1798 108.055 11.7412C105.83 9.30265 102.808 7.91618 99.6472 7.88306ZM98.1325 36.9272C97.6527 36.9252 97.1847 36.7657 96.7899 36.4697C96.3951 36.1737 96.092 35.7549 95.9203 35.2684H93.4018C93.236 35.2673 93.0746 35.2099 92.9402 35.1044C92.8058 34.9989 92.7051 34.8504 92.6522 34.6797L91.8786 32.1486L89.4307 41.4375C89.383 41.6163 89.2832 41.7735 89.1462 41.8855C89.0093 41.9974 88.8426 42.0581 88.6712 42.0584H88.6218C88.4429 42.049 88.2724 41.9732 88.1388 41.8438C88.0052 41.7143 87.9165 41.539 87.8877 41.347L85.3649 24.8695L83.5212 34.6199C83.479 34.8051 83.3808 34.9696 83.2423 35.0872C83.1039 35.2047 82.9332 35.2685 82.7575 35.2684H79.2099C79.1035 35.2733 78.9974 35.2548 78.8978 35.2139C78.7982 35.1731 78.7072 35.1108 78.6304 35.0308C78.5536 34.9508 78.4924 34.8548 78.4506 34.7485C78.4089 34.6422 78.3873 34.5278 78.3873 34.4122C78.3873 34.2966 78.4089 34.1822 78.4506 34.0759C78.4924 33.9695 78.5536 33.8735 78.6304 33.7935C78.7072 33.7135 78.7982 33.6512 78.8978 33.6104C78.9974 33.5696 79.1035 33.5511 79.2099 33.556H82.1363L84.748 20.4466C84.7909 20.2528 84.8944 20.0812 85.0409 19.9611C85.1874 19.841 85.3678 19.7799 85.5512 19.7882C85.7346 19.7965 85.9096 19.8738 86.0463 20.0067C86.1831 20.1397 86.2731 20.3201 86.3009 20.5171L88.8773 37.3258L91.0711 29.015C91.1168 28.8399 91.2133 28.6856 91.3464 28.5751C91.4795 28.4646 91.6419 28.4038 91.8094 28.4017H91.8249C91.9908 28.4018 92.1525 28.4587 92.2869 28.5645C92.4212 28.6702 92.5214 28.8193 92.5731 28.9904L93.9721 33.5606H95.8892C96.0256 33.1108 96.2736 32.7108 96.6061 32.4045C96.9385 32.0982 97.3424 31.8977 97.7732 31.8249C98.204 31.7522 98.6449 31.8102 99.0473 31.9924C99.4497 32.1746 99.7979 32.474 100.053 32.8576C100.309 33.2411 100.462 33.6939 100.496 34.1659C100.529 34.638 100.442 35.1109 100.244 35.5325C100.046 35.9542 99.7438 36.3081 99.372 36.5553C99.0002 36.8025 98.5727 36.9333 98.1367 36.9333L98.1325 36.9272Z" fill="#6C63FF"/>
</g>
<defs>
<linearGradient id="paint0_linear" x1="50.3035" y1="118.793" x2="50.3035" y2="24.4572" gradientUnits="userSpaceOnUse">
<stop stop-color="#808080" stop-opacity="0.25"/>
<stop offset="0.54" stop-color="#808080" stop-opacity="0.12"/>
<stop offset="1" stop-color="#808080" stop-opacity="0.1"/>
</linearGradient>
<linearGradient id="paint1_linear" x1="31511.6" y1="71178" x2="31511.6" y2="22754.4" gradientUnits="userSpaceOnUse">
<stop stop-color="#808080" stop-opacity="0.25"/>
<stop offset="0.54" stop-color="#808080" stop-opacity="0.12"/>
<stop offset="1" stop-color="#808080" stop-opacity="0.1"/>
</linearGradient>
<clipPath id="clip0">
<rect width="156" height="120" fill="white"/>
</clipPath>
</defs>
</svg>
