<svg width="79" height="15" viewBox="0 0 79 15" fill="none" xmlns="http://www.w3.org/2000/svg">
<path d="M8.59844 11.0205H3.64141L2.6043 14H0.292774L5.12676 1.20312H7.12188L11.9646 14H9.64434L8.59844 11.0205ZM4.26543 9.22754H7.97441L6.11992 3.91895L4.26543 9.22754ZM21.7123 9.3418C21.7123 10.8184 21.3812 11.9932 20.7191 12.8662C20.0629 13.7393 19.1576 14.1758 18.0033 14.1758C16.89 14.1758 16.0229 13.7744 15.4018 12.9717L15.2963 14H13.3627V0.5H15.4984V5.4043C16.1137 4.67773 16.9428 4.31445 17.9857 4.31445C19.1459 4.31445 20.057 4.74512 20.7191 5.60645C21.3812 6.46777 21.7123 7.67188 21.7123 9.21875V9.3418ZM19.5766 9.15723C19.5766 8.12598 19.3949 7.35254 19.0316 6.83691C18.6684 6.32129 18.141 6.06348 17.4496 6.06348C16.5238 6.06348 15.8734 6.46777 15.4984 7.27637V11.1963C15.8793 12.0225 16.5355 12.4355 17.4672 12.4355C18.1352 12.4355 18.6508 12.1865 19.0141 11.6885C19.3773 11.1904 19.5648 10.4375 19.5766 9.42969V9.15723ZM23.2598 9.15723C23.2598 8.22559 23.4443 7.3877 23.8135 6.64355C24.1826 5.89355 24.7012 5.31934 25.3691 4.9209C26.0371 4.5166 26.8047 4.31445 27.6719 4.31445C28.9551 4.31445 29.9951 4.72754 30.792 5.55371C31.5947 6.37988 32.0283 7.47559 32.0928 8.84082L32.1016 9.3418C32.1016 10.2793 31.9199 11.1172 31.5566 11.8555C31.1992 12.5938 30.6836 13.165 30.0098 13.5693C29.3418 13.9736 28.5684 14.1758 27.6895 14.1758C26.3477 14.1758 25.2725 13.7305 24.4639 12.8398C23.6611 11.9434 23.2598 10.751 23.2598 9.2627V9.15723ZM25.3955 9.3418C25.3955 10.3203 25.5977 11.0879 26.002 11.6445C26.4062 12.1953 26.9688 12.4707 27.6895 12.4707C28.4102 12.4707 28.9697 12.1895 29.3682 11.627C29.7725 11.0645 29.9746 10.2412 29.9746 9.15723C29.9746 8.19629 29.7666 7.43457 29.3506 6.87207C28.9404 6.30957 28.3809 6.02832 27.6719 6.02832C26.9746 6.02832 26.4209 6.30664 26.0107 6.86328C25.6006 7.41406 25.3955 8.24023 25.3955 9.3418ZM39.8189 13.0684C39.192 13.8066 38.3014 14.1758 37.1471 14.1758C36.1158 14.1758 35.3336 13.874 34.8004 13.2705C34.273 12.667 34.0094 11.7939 34.0094 10.6514V4.49023H36.1451V10.625C36.1451 11.832 36.6461 12.4355 37.648 12.4355C38.6852 12.4355 39.3854 12.0635 39.7486 11.3193V4.49023H41.8844V14H39.8717L39.8189 13.0684ZM46.8859 2.17871V4.49023H48.5647V6.07227H46.8859V11.3809C46.8859 11.7441 46.9563 12.0078 47.0969 12.1719C47.2434 12.3301 47.5012 12.4092 47.8703 12.4092C48.1164 12.4092 48.3654 12.3799 48.6174 12.3213V13.9736C48.1311 14.1084 47.6623 14.1758 47.2111 14.1758C45.5705 14.1758 44.7502 13.2705 44.7502 11.46V6.07227H43.1857V4.49023H44.7502V2.17871H46.8859ZM69.1855 1.20312V9.75488C69.1855 11.1143 68.749 12.1924 67.876 12.9893C67.0088 13.7803 65.8516 14.1758 64.4043 14.1758C62.9395 14.1758 61.7764 13.7861 60.915 13.0068C60.0537 12.2217 59.623 11.1348 59.623 9.74609V1.20312H61.8379V9.76367C61.8379 10.6191 62.0547 11.2725 62.4883 11.7236C62.9219 12.1748 63.5605 12.4004 64.4043 12.4004C66.1152 12.4004 66.9707 11.498 66.9707 9.69336V1.20312H69.1855ZM76.8414 11.416C76.8414 11.0352 76.6832 10.7451 76.3668 10.5459C76.0562 10.3467 75.5377 10.1709 74.8111 10.0186C74.0846 9.86621 73.4781 9.67285 72.9918 9.43848C71.9254 8.92285 71.3922 8.17578 71.3922 7.19727C71.3922 6.37695 71.7379 5.69141 72.4293 5.14062C73.1207 4.58984 73.9996 4.31445 75.066 4.31445C76.2027 4.31445 77.1197 4.5957 77.817 5.1582C78.5201 5.7207 78.8717 6.4502 78.8717 7.34668H76.7359C76.7359 6.93652 76.5836 6.59668 76.2789 6.32715C75.9742 6.05176 75.5699 5.91406 75.066 5.91406C74.5973 5.91406 74.2135 6.02246 73.9146 6.23926C73.6217 6.45605 73.4752 6.74609 73.4752 7.10938C73.4752 7.4375 73.6129 7.69238 73.8883 7.87402C74.1637 8.05566 74.7203 8.24023 75.5582 8.42773C76.3961 8.60938 77.0523 8.8291 77.5269 9.08691C78.0074 9.33887 78.3619 9.64355 78.5904 10.001C78.8248 10.3584 78.942 10.792 78.942 11.3018C78.942 12.1572 78.5875 12.8516 77.8785 13.3848C77.1695 13.9121 76.2408 14.1758 75.0924 14.1758C74.3131 14.1758 73.6187 14.0352 73.0094 13.7539C72.4 13.4727 71.9254 13.0859 71.5855 12.5938C71.2457 12.1016 71.0758 11.5713 71.0758 11.0029H73.15C73.1793 11.5068 73.3697 11.8965 73.7213 12.1719C74.0728 12.4414 74.5387 12.5762 75.1187 12.5762C75.6812 12.5762 76.109 12.4707 76.4019 12.2598C76.6949 12.043 76.8414 11.7617 76.8414 11.416Z" fill="#1F3A6F"/>
</svg>
