<svg width="79" height="30" viewBox="0 0 79 30" fill="none" xmlns="http://www.w3.org/2000/svg">
<path d="M16.908 8.68262H13.0525L12.2459 11H10.448L14.2078 1.04688H15.7596L19.5262 11H17.7215L16.908 8.68262ZM13.5379 7.28809H16.4227L14.9803 3.15918L13.5379 7.28809ZM22.4174 11H20.7562V0.5H22.4174V11ZM26.1494 11H24.4883V0.5H26.1494V11ZM31.3717 11.1367C30.3189 11.1367 29.4645 10.8063 28.8082 10.1455C28.1565 9.48014 27.8307 8.59603 27.8307 7.49316V7.28809C27.8307 6.5498 27.9719 5.89128 28.2545 5.3125C28.5416 4.72917 28.9426 4.27572 29.4576 3.95215C29.9726 3.62858 30.5468 3.4668 31.1803 3.4668C32.1874 3.4668 32.9645 3.78809 33.5113 4.43066C34.0628 5.07324 34.3385 5.98242 34.3385 7.1582V7.82812H29.5055C29.5556 8.4388 29.7584 8.92188 30.1139 9.27734C30.4739 9.63281 30.9251 9.81055 31.4674 9.81055C32.2285 9.81055 32.8482 9.50293 33.3268 8.8877L34.2223 9.74219C33.926 10.1842 33.5296 10.5283 33.0328 10.7744C32.5406 11.016 31.9869 11.1367 31.3717 11.1367ZM31.1734 4.7998C30.7177 4.7998 30.3486 4.95931 30.066 5.27832C29.788 5.59733 29.6103 6.04167 29.5328 6.61133H32.6979V6.48828C32.6614 5.93229 32.5133 5.51302 32.2535 5.23047C31.9938 4.94336 31.6337 4.7998 31.1734 4.7998ZM39.6564 5.12109C39.4377 5.08464 39.2121 5.06641 38.9797 5.06641C38.2186 5.06641 37.7059 5.35807 37.4416 5.94141V11H35.7805V3.60352H37.3664L37.4074 4.43066C37.8085 3.78809 38.3645 3.4668 39.0754 3.4668C39.3124 3.4668 39.5083 3.4987 39.6633 3.5625L39.6564 5.12109ZM40.4285 7.24707C40.4285 6.09863 40.6974 5.18262 41.2352 4.49902C41.7775 3.81087 42.4952 3.4668 43.3885 3.4668C44.2316 3.4668 44.8947 3.76074 45.3777 4.34863L45.4529 3.60352H46.95V10.7744C46.95 11.7451 46.6469 12.5107 46.0408 13.0713C45.4393 13.6318 44.6258 13.9121 43.6004 13.9121C43.0581 13.9121 42.5271 13.7982 42.0076 13.5703C41.4926 13.347 41.1007 13.0531 40.8318 12.6885L41.618 11.6904C42.1284 12.2965 42.7573 12.5996 43.5047 12.5996C44.0561 12.5996 44.4913 12.4492 44.8104 12.1484C45.1294 11.8522 45.2889 11.4147 45.2889 10.8359V10.3369C44.8104 10.8701 44.1723 11.1367 43.3748 11.1367C42.5089 11.1367 41.8003 10.7926 41.2488 10.1045C40.702 9.41634 40.4285 8.46387 40.4285 7.24707ZM42.0828 7.39062C42.0828 8.13346 42.2332 8.71908 42.534 9.14746C42.8393 9.57129 43.2609 9.7832 43.7986 9.7832C44.4686 9.7832 44.9653 9.49609 45.2889 8.92188V5.66797C44.9744 5.10742 44.4822 4.82715 43.8123 4.82715C43.2654 4.82715 42.8393 5.04362 42.534 5.47656C42.2332 5.90951 42.0828 6.54753 42.0828 7.39062ZM51.3998 8.62109L52.9037 3.60352H54.6742L51.7348 12.1211C51.2836 13.3652 50.518 13.9873 49.4379 13.9873C49.1964 13.9873 48.9298 13.9463 48.6381 13.8643V12.5791L48.9525 12.5996C49.3718 12.5996 49.6863 12.5221 49.8959 12.3672C50.1101 12.2168 50.2787 11.9616 50.4018 11.6016L50.641 10.9658L48.0434 3.60352H49.8344L51.3998 8.62109ZM59.1578 8.31348C59.1578 7.85319 59.2831 7.43164 59.5338 7.04883C59.7844 6.66146 60.2789 6.20345 61.0172 5.6748C60.6298 5.18717 60.3587 4.77246 60.2037 4.43066C60.0533 4.08887 59.9781 3.75846 59.9781 3.43945C59.9781 2.66016 60.2151 2.04492 60.6891 1.59375C61.163 1.13802 61.801 0.910156 62.6031 0.910156C63.3277 0.910156 63.9202 1.12435 64.3805 1.55273C64.8453 1.97656 65.0777 2.50293 65.0777 3.13184C65.0777 3.54655 64.9729 3.92936 64.7633 4.28027C64.5536 4.62663 64.2096 4.97298 63.7311 5.31934L63.0543 5.81152L64.9752 8.08105C65.2532 7.53418 65.3922 6.92578 65.3922 6.25586H66.8346C66.8346 7.48177 66.5475 8.48665 65.9732 9.27051L67.4361 11H65.5084L64.9479 10.3369C64.2369 10.8701 63.3893 11.1367 62.4049 11.1367C61.4205 11.1367 60.6321 10.877 60.0396 10.3574C59.4518 9.83333 59.1578 9.15202 59.1578 8.31348ZM62.4527 9.81055C63.0133 9.81055 63.5374 9.6237 64.025 9.25L61.8512 6.68652L61.6393 6.83691C61.0924 7.25163 60.8189 7.72559 60.8189 8.25879C60.8189 8.71908 60.9671 9.09277 61.2633 9.37988C61.5595 9.66699 61.956 9.81055 62.4527 9.81055ZM61.5367 3.39844C61.5367 3.78125 61.7714 4.26204 62.2408 4.84082L62.9996 4.32129L63.2115 4.15039C63.4941 3.89974 63.6354 3.57845 63.6354 3.18652C63.6354 2.92676 63.5374 2.70573 63.3414 2.52344C63.1454 2.33659 62.8971 2.24316 62.5963 2.24316C62.2727 2.24316 62.0152 2.35254 61.8238 2.57129C61.6324 2.79004 61.5367 3.06576 61.5367 3.39844ZM1.99902 27H0.276367V17.0469H1.99902V27ZM5.67637 19.6035L5.72422 20.376C6.24375 19.7699 6.95469 19.4668 7.85703 19.4668C8.84596 19.4668 9.52272 19.8451 9.8873 20.6016C10.4251 19.8451 11.1816 19.4668 12.1568 19.4668C12.9726 19.4668 13.5787 19.6924 13.9752 20.1436C14.3762 20.5947 14.5813 21.2601 14.5904 22.1396V27H12.9293V22.1875C12.9293 21.7181 12.8268 21.374 12.6217 21.1553C12.4166 20.9365 12.0771 20.8271 11.6031 20.8271C11.2249 20.8271 10.915 20.9297 10.6734 21.1348C10.4365 21.3353 10.2701 21.5996 10.1744 21.9277L10.1812 27H8.52012V22.1328C8.49733 21.2624 8.05299 20.8271 7.18711 20.8271C6.52174 20.8271 6.05006 21.0983 5.77207 21.6406V27H4.11094V19.6035H5.67637ZM18.008 19.6035L18.0559 20.376C18.5754 19.7699 19.2863 19.4668 20.1887 19.4668C21.1776 19.4668 21.8544 19.8451 22.2189 20.6016C22.7567 19.8451 23.5132 19.4668 24.4885 19.4668C25.3042 19.4668 25.9104 19.6924 26.3068 20.1436C26.7079 20.5947 26.913 21.2601 26.9221 22.1396V27H25.2609V22.1875C25.2609 21.7181 25.1584 21.374 24.9533 21.1553C24.7482 20.9365 24.4087 20.8271 23.9348 20.8271C23.5565 20.8271 23.2466 20.9297 23.0051 21.1348C22.7681 21.3353 22.6018 21.5996 22.5061 21.9277L22.5129 27H20.8518V22.1328C20.829 21.2624 20.3846 20.8271 19.5187 20.8271C18.8534 20.8271 18.3817 21.0983 18.1037 21.6406V27H16.4426V19.6035H18.008ZM33.2586 26.2754C32.771 26.8496 32.0783 27.1367 31.1805 27.1367C30.3784 27.1367 29.77 26.902 29.3553 26.4326C28.9451 25.9632 28.74 25.2842 28.74 24.3955V19.6035H30.4012V24.375C30.4012 25.3138 30.7908 25.7832 31.5701 25.7832C32.3768 25.7832 32.9214 25.4938 33.2039 24.915V19.6035H34.865V27H33.2996L33.2586 26.2754ZM38.2484 19.6035L38.2963 20.458C38.8432 19.7972 39.5609 19.4668 40.4496 19.4668C41.99 19.4668 42.7738 20.3486 42.8012 22.1123V27H41.14V22.208C41.14 21.7386 41.0375 21.3923 40.8324 21.1689C40.6319 20.9411 40.3015 20.8271 39.8412 20.8271C39.1713 20.8271 38.6723 21.1302 38.3441 21.7363V27H36.683V19.6035H38.2484ZM44.3389 23.2334C44.3389 22.5088 44.4824 21.8571 44.7695 21.2783C45.0566 20.695 45.46 20.2484 45.9795 19.9385C46.499 19.624 47.096 19.4668 47.7705 19.4668C48.7686 19.4668 49.5775 19.7881 50.1973 20.4307C50.8216 21.0732 51.1589 21.9255 51.209 22.9873L51.2158 23.377C51.2158 24.1061 51.0745 24.7578 50.792 25.332C50.514 25.9062 50.113 26.3506 49.5889 26.665C49.0693 26.9795 48.4678 27.1367 47.7842 27.1367C46.7406 27.1367 45.9043 26.7904 45.2754 26.0977C44.651 25.4004 44.3389 24.473 44.3389 23.3154V23.2334ZM46 23.377C46 24.138 46.1572 24.735 46.4717 25.168C46.7861 25.5964 47.2236 25.8105 47.7842 25.8105C48.3447 25.8105 48.7799 25.5918 49.0898 25.1543C49.4043 24.7168 49.5615 24.0765 49.5615 23.2334C49.5615 22.486 49.3997 21.8936 49.0762 21.4561C48.7572 21.0186 48.3219 20.7998 47.7705 20.7998C47.2282 20.7998 46.7975 21.0163 46.4785 21.4492C46.1595 21.8776 46 22.5202 46 23.377ZM54.5377 27H52.8766V16.5H54.5377V27ZM56.1916 23.2334C56.1916 22.5088 56.3352 21.8571 56.6223 21.2783C56.9094 20.695 57.3127 20.2484 57.8322 19.9385C58.3518 19.624 58.9488 19.4668 59.6232 19.4668C60.6213 19.4668 61.4302 19.7881 62.05 20.4307C62.6744 21.0732 63.0116 21.9255 63.0617 22.9873L63.0686 23.377C63.0686 24.1061 62.9273 24.7578 62.6447 25.332C62.3667 25.9062 61.9657 26.3506 61.4416 26.665C60.9221 26.9795 60.3205 27.1367 59.6369 27.1367C58.5933 27.1367 57.757 26.7904 57.1281 26.0977C56.5038 25.4004 56.1916 24.473 56.1916 23.3154V23.2334ZM57.8527 23.377C57.8527 24.138 58.01 24.735 58.3244 25.168C58.6389 25.5964 59.0764 25.8105 59.6369 25.8105C60.1975 25.8105 60.6327 25.5918 60.9426 25.1543C61.257 24.7168 61.4143 24.0765 61.4143 23.2334C61.4143 22.486 61.2525 21.8936 60.9289 21.4561C60.6099 21.0186 60.1747 20.7998 59.6232 20.7998C59.0809 20.7998 58.6503 21.0163 58.3313 21.4492C58.0122 21.8776 57.8527 22.5202 57.8527 23.377ZM64.3328 23.2471C64.3328 22.0986 64.6017 21.1826 65.1395 20.499C65.6818 19.8109 66.3995 19.4668 67.2928 19.4668C68.1359 19.4668 68.799 19.7607 69.282 20.3486L69.3572 19.6035H70.8543V26.7744C70.8543 27.7451 70.5512 28.5107 69.9451 29.0713C69.3436 29.6318 68.5301 29.9121 67.5047 29.9121C66.9624 29.9121 66.4314 29.7982 65.9119 29.5703C65.3969 29.347 65.005 29.0531 64.7361 28.6885L65.5223 27.6904C66.0327 28.2965 66.6616 28.5996 67.409 28.5996C67.9604 28.5996 68.3956 28.4492 68.7146 28.1484C69.0337 27.8522 69.1932 27.4147 69.1932 26.8359V26.3369C68.7146 26.8701 68.0766 27.1367 67.2791 27.1367C66.4132 27.1367 65.7046 26.7926 65.1531 26.1045C64.6062 25.4163 64.3328 24.4639 64.3328 23.2471ZM65.9871 23.3906C65.9871 24.1335 66.1375 24.7191 66.4383 25.1475C66.7436 25.5713 67.1652 25.7832 67.7029 25.7832C68.3728 25.7832 68.8696 25.4961 69.1932 24.9219V21.668C68.8787 21.1074 68.3865 20.8271 67.7166 20.8271C67.1697 20.8271 66.7436 21.0436 66.4383 21.4766C66.1375 21.9095 65.9871 22.5475 65.9871 23.3906ZM75.3041 24.6211L76.808 19.6035H78.5785L75.6391 28.1211C75.1879 29.3652 74.4223 29.9873 73.3422 29.9873C73.1006 29.9873 72.834 29.9463 72.5424 29.8643V28.5791L72.8568 28.5996C73.2761 28.5996 73.5906 28.5221 73.8002 28.3672C74.0144 28.2168 74.183 27.9616 74.3061 27.6016L74.5453 26.9658L71.9477 19.6035H73.7387L75.3041 24.6211Z" fill="#1F3A6F"/>
</svg>
