<svg width="100" height="29" viewBox="0 0 100 29" fill="none" xmlns="http://www.w3.org/2000/svg">
<path d="M9.27205 5.848H8.46005C8.49738 4.54133 9.24872 3.888 10.714 3.888C11.9647 3.888 12.6694 4.50867 12.828 5.75C12.8374 5.33 12.87 5.022 12.926 4.826C13.01 4.574 13.178 4.35933 13.43 4.182C13.682 3.99533 14.0414 3.902 14.508 3.902H15.502V4.588C15.1754 4.504 14.984 4.49467 14.928 4.56C14.8907 4.60667 14.872 4.65333 14.872 4.7C14.872 4.784 15.0074 5.022 15.278 5.414C15.5487 5.79667 15.684 6.142 15.684 6.45C15.684 6.82333 15.5487 7.12667 15.278 7.36C15.0167 7.59333 14.6854 7.72867 14.284 7.766C14.1254 7.78467 13.892 7.78467 13.584 7.766V10.216C13.9667 10.1413 14.312 10.048 14.62 9.936C14.816 9.86133 15.124 9.72133 15.544 9.516V10.314C15.2454 10.454 14.9607 10.5707 14.69 10.664C14.2794 10.804 13.9107 10.8927 13.584 10.93V13.296H12.828V11C12.464 11.0373 12.0347 11.0467 11.54 11.028C10.98 11.0093 10.4714 10.944 10.014 10.832C9.16472 10.6173 8.55338 10.2207 8.18005 9.642C7.91872 9.24067 7.78805 8.774 7.78805 8.242C7.78805 7.458 8.05405 6.83267 8.58605 6.366C9.08072 5.93667 9.72005 5.722 10.504 5.722H12.016C11.9787 4.966 11.5587 4.588 10.756 4.588C9.73872 4.588 9.24405 5.008 9.27205 5.848ZM14.144 4.56C13.7707 4.65333 13.584 4.95667 13.584 5.47V7.08C14.4334 7.12667 14.858 6.884 14.858 6.352C14.858 6.128 14.6994 5.792 14.382 5.344C14.186 5.07333 14.1067 4.812 14.144 4.56ZM12.828 6.394H10.672C10.1027 6.394 9.62672 6.54333 9.24405 6.842C8.82405 7.16867 8.61405 7.61667 8.61405 8.186C8.61405 8.718 8.77272 9.15667 9.09005 9.502C9.41672 9.838 9.84605 10.0573 10.378 10.16C11.0687 10.2907 11.8854 10.3327 12.828 10.286V6.394ZM19.1277 7.43C19.1277 6.80467 19.0017 6.21667 18.7497 5.666C18.4323 4.966 17.9983 4.616 17.4477 4.616C16.9437 4.616 16.5237 4.728 16.1877 4.952V4.21C16.365 4.098 16.561 4.014 16.7757 3.958C16.953 3.91133 17.2003 3.888 17.5177 3.888C18.3017 3.888 18.899 4.25667 19.3097 4.994C19.7297 5.722 19.9397 6.534 19.9397 7.43C19.9397 8.34467 19.7297 9.17067 19.3097 9.908C18.899 10.636 18.3017 11 17.5177 11C17.2003 11 16.953 10.9767 16.7757 10.93C16.561 10.874 16.365 10.79 16.1877 10.678V9.936C16.5237 10.16 16.9437 10.272 17.4477 10.272C17.9983 10.272 18.4323 9.91733 18.7497 9.208C19.0017 8.65733 19.1277 8.06467 19.1277 7.43ZM23.4072 4.602C23.7526 4.602 23.9906 4.70933 24.1212 4.924C24.2612 5.13867 24.3312 5.40467 24.3312 5.722H20.4812V6.394H21.9932C21.2652 6.77667 20.9012 7.43467 20.9012 8.368C20.9012 9.04933 21.0879 9.642 21.4612 10.146C21.7506 10.538 22.1286 10.804 22.5952 10.944C22.8566 11.0187 23.1786 11.0467 23.5612 11.028C24.1866 10.9907 24.6579 10.8133 24.9752 10.496C25.0966 10.3747 25.1946 10.2253 25.2692 10.048C25.3439 10.2067 25.4559 10.3653 25.6052 10.524C25.9319 10.86 26.3939 11.028 26.9912 11.028C27.5606 11.028 28.0272 10.9253 28.3912 10.72C28.7646 10.5053 29.0632 10.188 29.2872 9.768C29.5206 9.33867 29.6372 8.872 29.6372 8.368C29.6372 7.612 29.4412 7.01 29.0492 6.562C28.7226 6.18867 28.3166 5.93667 27.8312 5.806C27.6259 5.75 27.3739 5.722 27.0752 5.722H26.2072C26.2072 5.39533 26.2726 5.12933 26.4032 4.924C26.5432 4.71867 26.7859 4.61133 27.1312 4.602C27.5139 4.58333 27.7752 4.686 27.9152 4.91C28.0552 5.12467 28.1252 5.386 28.1252 5.694H28.9372C28.9372 5.162 28.8206 4.74667 28.5872 4.448C28.2886 4.06533 27.8032 3.874 27.1312 3.874C26.6646 3.874 26.2726 4.00933 25.9552 4.28C25.6472 4.55067 25.4652 4.91467 25.4092 5.372C25.3906 5.53067 25.3812 5.75 25.3812 6.03V6.394H26.8232C27.0286 6.394 27.1732 6.39867 27.2572 6.408C27.6399 6.408 27.9852 6.57133 28.2932 6.898C28.6386 7.262 28.8159 7.71467 28.8252 8.256C28.8346 8.63867 28.7552 9.00267 28.5872 9.348C28.4286 9.684 28.2139 9.92667 27.9432 10.076C27.7099 10.2067 27.4906 10.272 27.2852 10.272C26.7626 10.272 26.3566 10.1227 26.0672 9.824C25.7872 9.516 25.6472 9.18467 25.6472 8.83V8.06H24.8912V8.886C24.8912 9.194 24.7512 9.502 24.4712 9.81C24.2006 10.1087 23.7992 10.258 23.2672 10.258C22.7912 10.258 22.4132 10.0667 22.1332 9.684C21.8719 9.32933 21.7412 8.858 21.7412 8.27C21.7412 8.018 21.8019 7.766 21.9232 7.514C22.0446 7.25267 22.1939 7.05667 22.3712 6.926C22.8659 6.57133 23.4166 6.394 24.0232 6.394H25.1572V6.016C25.1572 5.624 25.1246 5.316 25.0592 5.092C24.8259 4.28933 24.2752 3.88333 23.4072 3.874C23.0059 3.86467 22.7072 3.91133 22.5112 4.014C21.9046 4.31267 21.6012 4.87267 21.6012 5.694H22.4132C22.4132 4.966 22.7446 4.602 23.4072 4.602ZM33.0722 7.43C33.0722 6.80467 32.9462 6.21667 32.6942 5.666C32.3769 4.966 31.9429 4.616 31.3922 4.616C30.8882 4.616 30.4682 4.728 30.1322 4.952V4.21C30.3095 4.098 30.5055 4.014 30.7202 3.958C30.8975 3.91133 31.1449 3.888 31.4622 3.888C32.2462 3.888 32.8435 4.25667 33.2542 4.994C33.6742 5.722 33.8842 6.534 33.8842 7.43C33.8842 8.34467 33.6742 9.17067 33.2542 9.908C32.8435 10.636 32.2462 11 31.4622 11C31.1449 11 30.8975 10.9767 30.7202 10.93C30.5055 10.874 30.3095 10.79 30.1322 10.678V9.936C30.4682 10.16 30.8882 10.272 31.3922 10.272C31.9429 10.272 32.3769 9.91733 32.6942 9.208C32.9462 8.65733 33.0722 8.06467 33.0722 7.43ZM36.8338 6.716C36.7311 6.80933 36.3624 7.17333 35.7278 7.808C35.9331 7.864 36.0731 7.98533 36.1478 8.172C36.1758 8.23733 36.1898 8.30267 36.1898 8.368C36.1898 8.43333 36.1571 8.55933 36.0918 8.746C36.0264 8.92333 36.0078 9.07733 36.0358 9.208C36.1851 9.97333 36.9084 10.3467 38.2058 10.328C38.8684 10.3187 39.4378 10.1367 39.9138 9.782C40.4364 9.39 40.6978 8.86267 40.6978 8.2C40.6978 7.54667 40.4691 7.01467 40.0118 6.604C39.5638 6.184 39.0178 5.97867 38.3738 5.988C38.0471 5.99733 37.7624 6.06267 37.5198 6.184C37.3424 6.27733 37.1138 6.45467 36.8338 6.716ZM35.8818 5.386C35.8444 5.582 35.8724 5.77333 35.9658 5.96H35.1398C35.0744 5.624 35.1024 5.26933 35.2238 4.896C35.3171 4.60667 35.5038 4.37333 35.7838 4.196C36.0638 4.01867 36.3764 3.93467 36.7218 3.944C37.4404 3.96267 37.8698 4.266 38.0098 4.854C38.8964 4.21933 39.8578 3.90667 40.8938 3.916C41.9484 3.92533 42.8258 4.28 43.5258 4.98C44.2351 5.67067 44.5898 6.53867 44.5898 7.584C44.5898 8.18133 44.4684 8.73667 44.2258 9.25C43.9831 9.754 43.6658 10.132 43.2738 10.384C42.6204 10.804 41.7758 11.014 40.7398 11.014V10.342C41.3558 10.342 41.8924 10.2393 42.3498 10.034C42.7791 9.838 43.1198 9.52533 43.3718 9.096C43.6331 8.65733 43.7638 8.16267 43.7638 7.612C43.7638 6.8 43.4931 6.10933 42.9518 5.54C42.4104 4.96133 41.7338 4.672 40.9218 4.672C40.0444 4.672 39.2558 4.90533 38.5558 5.372C39.2838 5.30667 39.8998 5.47467 40.4038 5.876C41.1691 6.492 41.5471 7.25733 41.5378 8.172C41.5284 9.04 41.1971 9.74467 40.5438 10.286C39.9278 10.79 39.1531 11.042 38.2198 11.042C37.4171 11.042 36.8011 10.958 36.3718 10.79C35.7651 10.5567 35.3871 10.132 35.2378 9.516C35.2098 9.41333 35.1958 9.31533 35.1958 9.222C35.1958 9.09133 35.2191 8.956 35.2658 8.816C35.3218 8.676 35.3498 8.58733 35.3498 8.55C35.3498 8.438 35.3031 8.382 35.2098 8.382C35.0418 8.382 34.8784 8.49867 34.7198 8.732V7.822C35.1584 7.318 35.5878 6.86067 36.0078 6.45C36.3624 6.12333 36.7778 5.74067 37.2538 5.302C37.2631 5.25533 37.2678 5.20867 37.2678 5.162C37.2678 4.826 37.0484 4.66733 36.6098 4.686C36.2084 4.69533 35.9658 4.92867 35.8818 5.386ZM43.0724 2.53C43.2404 2.65133 43.4224 2.698 43.6184 2.67C43.8051 2.642 43.9451 2.572 44.0384 2.46C44.1318 2.33867 44.1691 2.18467 44.1504 1.998C44.1318 1.79267 44.0804 1.65267 43.9964 1.578C43.8658 1.466 43.7304 1.41467 43.5904 1.424C43.4691 1.43333 43.3618 1.47067 43.2684 1.536C43.1378 1.62 43.0724 1.72267 43.0724 1.844V2.53ZM42.3164 1.914C42.3164 1.718 42.2418 1.58733 42.0924 1.522C41.9338 1.45667 41.7704 1.46133 41.6024 1.536C41.4251 1.61067 41.2991 1.71333 41.2244 1.844V1.06C41.5044 0.826666 41.8078 0.724 42.1344 0.751999C42.2838 0.761333 42.4238 0.808 42.5544 0.891999C42.6291 0.938666 42.7131 1.00867 42.8064 1.102C42.8998 0.99 43.0304 0.901333 43.1984 0.836C43.3664 0.770666 43.5578 0.742666 43.7724 0.751999C44.0991 0.770666 44.3744 0.882666 44.5984 1.088C44.8131 1.29333 44.9298 1.58267 44.9484 1.956C44.9578 2.264 44.9064 2.51133 44.7944 2.698C44.6731 2.88467 44.5191 3.02933 44.3324 3.132C44.1084 3.25333 43.8658 3.30467 43.6044 3.286C43.3524 3.26733 43.1751 3.22533 43.0724 3.16V4.742C42.9978 4.658 42.8764 4.55067 42.7084 4.42C42.5591 4.32667 42.4284 4.26133 42.3164 4.224V1.914ZM50.1231 4.49C49.8245 4.518 49.6938 4.69533 49.7311 5.022C49.7591 5.32067 49.9365 5.45133 50.2631 5.414C50.5618 5.386 50.6925 5.20867 50.6551 4.882C50.6271 4.58333 50.4498 4.45267 50.1231 4.49ZM53.2871 3.79C53.8845 4.52733 54.1831 5.442 54.1831 6.534C54.1831 7.61667 53.9545 8.51267 53.4971 9.222C53.0118 9.978 52.3445 10.5053 51.4951 10.804C51.0285 10.9627 50.4965 11.042 49.8991 11.042C49.1805 11.042 48.6158 10.9627 48.2051 10.804C47.3371 10.468 46.6978 9.98267 46.2871 9.348C45.8765 8.704 45.6711 7.92 45.6711 6.996C45.6711 6.212 45.8391 5.54467 46.1751 4.994C46.4178 4.59267 46.7491 4.28467 47.1691 4.07C47.4025 3.94867 47.6871 3.89733 48.0231 3.916C48.3591 3.93467 48.6158 4.084 48.7931 4.364C48.8958 4.532 48.9425 4.73267 48.9331 4.966C48.9238 5.20867 48.8118 5.47467 48.5971 5.764C48.4478 5.96933 48.3731 6.21667 48.3731 6.506C48.3731 6.702 48.4151 6.86533 48.4991 6.996C48.7978 7.45333 49.2318 7.682 49.8011 7.682C50.1651 7.682 50.4498 7.61667 50.6551 7.486C51.0565 7.234 51.2851 6.82333 51.3411 6.254C51.3785 5.87133 51.3271 5.54933 51.1871 5.288C51.2058 5.54933 51.1031 5.764 50.8791 5.932C50.6645 6.1 50.4171 6.17467 50.1371 6.156C49.7078 6.128 49.3905 5.96933 49.1851 5.68C49.0545 5.484 48.9891 5.26933 48.9891 5.036C48.9891 4.672 49.0918 4.38733 49.2971 4.182C49.5865 3.89267 49.9365 3.75733 50.3471 3.776C50.8605 3.79467 51.3038 4.056 51.6771 4.56C51.9945 4.98 52.1438 5.54467 52.1251 6.254C52.1158 6.79533 51.9571 7.25267 51.6491 7.626C51.2011 8.17667 50.5758 8.44267 49.7731 8.424C49.1291 8.41467 48.5878 8.20933 48.1491 7.808C47.7665 7.46267 47.5845 7.00067 47.6031 6.422C47.6125 6.10467 47.6918 5.82 47.8411 5.568C47.9345 5.46533 48.0418 5.28333 48.1631 5.022C48.1911 4.75133 48.0558 4.616 47.7571 4.616C47.4678 4.616 47.1645 4.86333 46.8471 5.358C46.5951 5.98333 46.4691 6.54333 46.4691 7.038C46.4691 7.55133 46.5531 8.02267 46.7211 8.452C47.0385 9.24533 47.6218 9.79133 48.4711 10.09C48.9098 10.2487 49.3905 10.3187 49.9131 10.3C50.2585 10.2907 50.4918 10.2767 50.6131 10.258C50.8931 10.2113 51.2058 10.104 51.5511 9.936C52.0085 9.712 52.4145 9.348 52.7691 8.844C53.1611 8.284 53.3571 7.57 53.3571 6.702C53.3571 5.47933 53.0445 4.59267 52.4191 4.042C52.0645 3.72467 51.5791 3.566 50.9631 3.566H47.2811C46.5998 3.566 46.2031 3.314 46.0911 2.81C46.0725 2.726 46.0631 2.63733 46.0631 2.544C46.0631 2.124 46.2685 1.788 46.6791 1.536C47.2578 1.18133 48.3218 1.004 49.8711 1.004C52.1858 1.004 53.4691 1.466 53.7211 2.39C53.7585 2.51133 53.7771 2.63267 53.7771 2.754C53.7771 3.174 53.6138 3.51933 53.2871 3.79ZM51.0611 2.838C51.8078 2.838 52.3585 2.96867 52.7131 3.23C52.8905 2.98733 52.9605 2.77733 52.9231 2.6C52.8205 2.02133 51.8265 1.732 49.9411 1.732C48.5971 1.732 47.7198 1.83933 47.3091 2.054C47.0385 2.194 46.9125 2.34333 46.9311 2.502C46.9498 2.726 47.1878 2.838 47.6451 2.838H51.0611ZM57.6533 6.156C57.504 6.28667 57.266 6.51533 56.9393 6.842C56.6966 7.094 56.3653 7.444 55.9453 7.892C56.188 7.92 56.3513 8.06 56.4353 8.312C56.4633 8.40533 56.4773 8.49867 56.4773 8.592C56.4773 8.69467 56.4586 8.802 56.4213 8.914C56.3653 9.082 56.3373 9.17067 56.3373 9.18C56.3186 9.25467 56.3093 9.334 56.3093 9.418C56.3093 9.96867 56.6033 10.244 57.1913 10.244C57.5273 10.244 57.7933 10.1367 57.9893 9.922C58.1853 9.70733 58.2833 9.42267 58.2833 9.068V8.27H59.0533V9.082C59.0533 9.94067 59.4126 10.3373 60.1313 10.272C60.4953 10.2347 60.7846 10.0247 60.9993 9.642C61.1766 9.31533 61.2653 8.94667 61.2653 8.536C61.2653 7.88267 61.0693 7.29933 60.6773 6.786C60.2946 6.27267 59.786 5.94133 59.1513 5.792C59.03 5.764 58.8946 5.75 58.7453 5.75C58.2973 5.75 57.9333 5.88533 57.6533 6.156ZM56.1553 5.89H55.3433C55.306 5.74067 55.2873 5.596 55.2873 5.456C55.2873 5.04533 55.4226 4.69067 55.6933 4.392C55.964 4.084 56.3 3.916 56.7013 3.888C57.5973 3.82267 58.1153 4.13533 58.2553 4.826C59.0673 4.22867 60.038 3.916 61.1673 3.888C62.2593 3.86 63.188 4.21 63.9533 4.938C64.7466 5.694 65.1246 6.632 65.0873 7.752C65.0593 8.69467 64.7606 9.474 64.1913 10.09C63.6313 10.6967 62.9033 11 62.0073 11C61.886 11 61.7646 10.9953 61.6433 10.986V10.314C62.418 10.37 63.062 10.1087 63.5753 9.53C64.0886 8.95133 64.3173 8.27933 64.2613 7.514C64.196 6.674 63.8786 5.98333 63.3093 5.442C62.7493 4.89133 62.0493 4.61133 61.2093 4.602C60.3786 4.59267 59.6833 4.76533 59.1233 5.12C60.934 5.372 61.914 6.41733 62.0633 8.256C62.1193 8.956 61.9933 9.572 61.6853 10.104C61.34 10.7013 60.8406 11 60.1873 11C59.3006 10.9907 58.7873 10.748 58.6473 10.272C58.4886 10.7573 57.9473 11 57.0233 11C56.594 11 56.2346 10.86 55.9453 10.58C55.656 10.2907 55.502 9.94533 55.4833 9.544C55.474 9.41333 55.4973 9.25 55.5533 9.054C55.6186 8.858 55.6513 8.73667 55.6513 8.69C55.6513 8.55 55.572 8.48 55.4133 8.48C55.3106 8.48 55.1613 8.578 54.9653 8.774V7.934C55.1333 7.71 55.544 7.24333 56.1973 6.534C56.1973 6.534 56.5706 6.16067 57.3173 5.414C57.42 5.31133 57.4713 5.18533 57.4713 5.036C57.4713 4.728 57.2613 4.59267 56.8413 4.63C56.608 4.64867 56.4213 4.74667 56.2813 4.924C56.1506 5.10133 56.0853 5.302 56.0853 5.526C56.0853 5.65667 56.1086 5.778 56.1553 5.89ZM68.0314 6.716C67.9287 6.80933 67.5601 7.17333 66.9254 7.808C67.1307 7.864 67.2707 7.98533 67.3454 8.172C67.3734 8.23733 67.3874 8.30267 67.3874 8.368C67.3874 8.43333 67.3547 8.55933 67.2894 8.746C67.2241 8.92333 67.2054 9.07733 67.2334 9.208C67.3827 9.97333 68.1061 10.3467 69.4034 10.328C70.0661 10.3187 70.6354 10.1367 71.1114 9.782C71.6341 9.39 71.8954 8.86267 71.8954 8.2C71.8954 7.54667 71.6667 7.01467 71.2094 6.604C70.7614 6.184 70.2154 5.97867 69.5714 5.988C69.2447 5.99733 68.9601 6.06267 68.7174 6.184C68.5401 6.27733 68.3114 6.45467 68.0314 6.716ZM67.0794 5.386C67.0421 5.582 67.0701 5.77333 67.1634 5.96H66.3374C66.2721 5.624 66.3001 5.26933 66.4214 4.896C66.5147 4.60667 66.7014 4.37333 66.9814 4.196C67.2614 4.01867 67.5741 3.93467 67.9194 3.944C68.6381 3.96267 69.0674 4.266 69.2074 4.854C70.0941 4.21933 71.0554 3.90667 72.0914 3.916C73.1461 3.92533 74.0234 4.28 74.7234 4.98C75.4327 5.67067 75.7874 6.53867 75.7874 7.584C75.7874 8.18133 75.6661 8.73667 75.4234 9.25C75.1807 9.754 74.8634 10.132 74.4714 10.384C73.8181 10.804 72.9734 11.014 71.9374 11.014V10.342C72.5534 10.342 73.0901 10.2393 73.5474 10.034C73.9767 9.838 74.3174 9.52533 74.5694 9.096C74.8307 8.65733 74.9614 8.16267 74.9614 7.612C74.9614 6.8 74.6907 6.10933 74.1494 5.54C73.6081 4.96133 72.9314 4.672 72.1194 4.672C71.2421 4.672 70.4534 4.90533 69.7534 5.372C70.4814 5.30667 71.0974 5.47467 71.6014 5.876C72.3667 6.492 72.7447 7.25733 72.7354 8.172C72.7261 9.04 72.3947 9.74467 71.7414 10.286C71.1254 10.79 70.3507 11.042 69.4174 11.042C68.6147 11.042 67.9987 10.958 67.5694 10.79C66.9627 10.5567 66.5847 10.132 66.4354 9.516C66.4074 9.41333 66.3934 9.31533 66.3934 9.222C66.3934 9.09133 66.4167 8.956 66.4634 8.816C66.5194 8.676 66.5474 8.58733 66.5474 8.55C66.5474 8.438 66.5007 8.382 66.4074 8.382C66.2394 8.382 66.0761 8.49867 65.9174 8.732V7.822C66.3561 7.318 66.7854 6.86067 67.2054 6.45C67.5601 6.12333 67.9754 5.74067 68.4514 5.302C68.4607 5.25533 68.4654 5.20867 68.4654 5.162C68.4654 4.826 68.2461 4.66733 67.8074 4.686C67.4061 4.69533 67.1634 4.92867 67.0794 5.386ZM79.2261 7.43C79.2261 6.80467 79.1001 6.21667 78.8481 5.666C78.5308 4.966 78.0968 4.616 77.5461 4.616C77.0421 4.616 76.6221 4.728 76.2861 4.952V4.21C76.4634 4.098 76.6594 4.014 76.8741 3.958C77.0514 3.91133 77.2988 3.888 77.6161 3.888C78.4001 3.888 78.9974 4.25667 79.4081 4.994C79.8281 5.722 80.0381 6.534 80.0381 7.43C80.0381 8.34467 79.8281 9.17067 79.4081 9.908C78.9974 10.636 78.4001 11 77.6161 11C77.2988 11 77.0514 10.9767 76.8741 10.93C76.6594 10.874 76.4634 10.79 76.2861 10.678V9.936C76.6221 10.16 77.0421 10.272 77.5461 10.272C78.0968 10.272 78.5308 9.91733 78.8481 9.208C79.1001 8.65733 79.2261 8.06467 79.2261 7.43ZM87.0502 7.178C86.8822 7.43933 86.7982 7.78467 86.7982 8.214C86.7982 8.87667 87.0502 9.39467 87.5542 9.768C88.0116 10.1133 88.6182 10.2813 89.3742 10.272C89.8689 10.272 90.3122 10.1413 90.7042 9.88C91.2549 9.52533 91.5302 9.012 91.5302 8.34C91.5302 7.98533 91.4182 7.68667 91.1942 7.444C91.0542 7.29467 90.8769 7.22 90.6622 7.22C90.2889 7.22 90.1256 7.43467 90.1722 7.864H89.4302C89.4209 7.71467 89.4162 7.53733 89.4162 7.332C89.4162 6.94933 89.4302 6.63667 89.4582 6.394C89.5142 5.89933 89.6356 5.498 89.8222 5.19C90.1302 4.66733 90.5222 4.31267 90.9982 4.126C91.4742 3.93 91.9876 3.85533 92.5382 3.902C92.9769 3.93933 93.3409 4.042 93.6302 4.21C94.0596 4.462 94.4562 4.84467 94.8202 5.358C95.2029 5.90867 95.3942 6.61333 95.3942 7.472C95.3942 7.96667 95.2682 8.48 95.0162 9.012C94.8016 9.47867 94.5682 9.824 94.3162 10.048C93.5882 10.692 92.7529 11.0093 91.8102 11V10.3C92.2489 10.3 92.6549 10.202 93.0282 10.006C93.4856 9.76333 93.8496 9.418 94.1202 8.97C94.4002 8.51267 94.5449 8.004 94.5542 7.444C94.5729 6.632 94.3116 5.92733 93.7702 5.33C93.3969 4.91933 92.9722 4.69067 92.4962 4.644C91.8336 4.57867 91.2782 4.742 90.8302 5.134C90.6996 5.246 90.5736 5.43267 90.4522 5.694C90.3122 5.99267 90.2376 6.296 90.2282 6.604C90.4056 6.47333 90.6342 6.436 90.9142 6.492C91.0916 6.52933 91.1896 6.548 91.2082 6.548C91.3669 6.604 91.5302 6.70667 91.6982 6.856C92.0902 7.21067 92.3049 7.682 92.3422 8.27C92.3889 9.07267 92.1089 9.73067 91.5022 10.244C90.9049 10.748 90.2049 11 89.4022 11C88.4689 11 87.6989 10.7947 87.0922 10.384C86.6069 10.0573 86.2849 9.62333 86.1262 9.082C86.0236 8.73667 85.9862 8.354 86.0142 7.934C86.0702 7.15933 86.3969 6.55733 86.9942 6.128C87.3862 5.848 87.9322 5.708 88.6322 5.708C88.6322 5.46533 88.6136 5.288 88.5762 5.176C88.4549 4.80267 88.2122 4.616 87.8482 4.616C87.6709 4.616 87.5216 4.67667 87.4002 4.798C87.2789 4.91933 87.1996 5.09667 87.1622 5.33C87.1342 5.526 87.1389 5.68933 87.1762 5.82H86.3782C86.3502 5.72667 86.3456 5.568 86.3642 5.344C86.3829 5.12933 86.4062 4.98467 86.4342 4.91C86.5929 4.48067 86.8309 4.196 87.1482 4.056C87.3629 3.96267 87.6102 3.91133 87.8902 3.902C88.4409 3.89267 88.8609 4.09333 89.1502 4.504C89.3089 4.74667 89.4116 5.17133 89.4582 5.778C89.4676 5.92733 89.4676 6.13267 89.4582 6.394H88.8282C88.3336 6.394 87.9836 6.436 87.7782 6.52C87.5076 6.61333 87.2649 6.83267 87.0502 7.178ZM98.8304 7.43C98.8304 6.80467 98.7044 6.21667 98.4524 5.666C98.1351 4.966 97.7011 4.616 97.1504 4.616C96.6464 4.616 96.2264 4.728 95.8904 4.952V4.21C96.0677 4.098 96.2637 4.014 96.4784 3.958C96.6557 3.91133 96.9031 3.888 97.2204 3.888C98.0044 3.888 98.6017 4.25667 99.0124 4.994C99.4324 5.722 99.6424 6.534 99.6424 7.43C99.6424 8.34467 99.4324 9.17067 99.0124 9.908C98.6017 10.636 98.0044 11 97.2204 11C96.9031 11 96.6557 10.9767 96.4784 10.93C96.2637 10.874 96.0677 10.79 95.8904 10.678V9.936C96.2264 10.16 96.6464 10.272 97.1504 10.272C97.7011 10.272 98.1351 9.91733 98.4524 9.208C98.7044 8.65733 98.8304 8.06467 98.8304 7.43ZM4.80452 25.384C3.52586 25.384 2.58786 25.0947 1.99052 24.516C1.59852 24.1333 1.40252 23.6807 1.40252 23.158C1.40252 22.9247 1.43986 22.696 1.51452 22.472C1.67319 22.0147 1.93452 21.7067 2.29852 21.548C2.53186 21.4453 2.86319 21.394 3.29252 21.394H4.69252V21.03C4.69252 20.666 4.66452 20.358 4.60852 20.106C4.52452 19.7327 4.32852 19.4387 4.02052 19.224C3.71252 19 3.35319 18.888 2.94252 18.888C2.38252 18.888 1.94386 19.0187 1.62652 19.28C1.30919 19.5413 1.15052 19.9427 1.15052 20.484C1.15052 20.484 1.16919 20.5587 1.20652 20.708H2.01852C1.96252 20.568 1.93919 20.456 1.94852 20.372C1.97652 19.8587 2.31252 19.6067 2.95652 19.616C3.30186 19.6253 3.54919 19.7467 3.69852 19.98C3.80119 20.148 3.86186 20.4 3.88052 20.736H2.95652C2.44319 20.736 2.01386 20.8387 1.66852 21.044C1.33252 21.2493 1.06652 21.5293 0.870523 21.884C0.674523 22.2293 0.576523 22.6353 0.576523 23.102C0.576523 24.2967 1.13186 25.146 2.24252 25.65C2.94252 25.9673 3.79186 26.126 4.79052 26.126C5.80786 26.126 6.66652 25.9673 7.36652 25.65C8.47719 25.146 9.03252 24.2967 9.03252 23.102C9.03252 22.6353 8.93919 22.234 8.75252 21.898C8.43519 21.3287 7.97786 20.9647 7.38052 20.806C7.20319 20.7593 6.96052 20.736 6.65252 20.736H5.72852C5.74719 20.4 5.80786 20.148 5.91052 19.98C6.05986 19.7467 6.30719 19.6253 6.65252 19.616C7.29652 19.6067 7.63252 19.8587 7.66052 20.372C7.66986 20.456 7.64652 20.568 7.59052 20.708H8.40252C8.42119 20.652 8.43986 20.5773 8.45852 20.484C8.45852 19.9427 8.29986 19.5413 7.98252 19.28C7.66519 19.0187 7.22652 18.888 6.66652 18.888C6.25586 18.888 5.89652 19 5.58852 19.224C5.28052 19.4387 5.08452 19.7327 5.00052 20.106C4.94452 20.358 4.91652 20.666 4.91652 21.03V21.394H6.31652C6.74586 21.394 7.07719 21.4453 7.31052 21.548C7.67452 21.7067 7.93586 22.0147 8.09452 22.472C8.16919 22.696 8.20652 22.9247 8.20652 23.158C8.20652 23.6807 8.01052 24.1333 7.61852 24.516C7.02119 25.0947 6.08319 25.384 4.80452 25.384ZM7.58871 25.188C7.66338 25.1413 7.76138 25.0713 7.88271 24.978C7.94804 24.9313 8.06471 24.8193 8.23271 24.642C8.34471 24.7073 8.44738 24.8287 8.54071 25.006C8.63404 25.1833 8.68071 25.3887 8.68071 25.622C8.68071 26.2193 8.42871 26.77 7.92471 27.274C7.70071 27.498 7.43004 27.6893 7.11271 27.848C6.40338 28.2027 5.58204 28.3847 4.64871 28.394C4.03271 28.4033 3.46338 28.324 2.94071 28.156C2.04471 27.876 1.38671 27.414 0.96671 26.77C0.77071 26.4807 0.668043 26.224 0.65871 26H1.54071C1.71804 26.56 2.14271 26.9893 2.81471 27.288C3.36538 27.54 3.97671 27.666 4.64871 27.666C4.91938 27.666 5.17138 27.6473 5.40471 27.61C5.79671 27.5447 6.12338 27.4467 6.38471 27.316C6.88871 27.064 7.25271 26.784 7.47671 26.476C7.67271 26.2053 7.77538 25.9253 7.78471 25.636C7.79404 25.4027 7.72871 25.2533 7.58871 25.188ZM12.2734 21.716C12.1707 21.8093 11.8021 22.1733 11.1674 22.808C11.3727 22.864 11.5127 22.9853 11.5874 23.172C11.6154 23.2373 11.6294 23.3027 11.6294 23.368C11.6294 23.4333 11.5967 23.5593 11.5314 23.746C11.4661 23.9233 11.4474 24.0773 11.4754 24.208C11.6247 24.9733 12.3481 25.3467 13.6454 25.328C14.3081 25.3187 14.8774 25.1367 15.3534 24.782C15.8761 24.39 16.1374 23.8627 16.1374 23.2C16.1374 22.5467 15.9087 22.0147 15.4514 21.604C15.0034 21.184 14.4574 20.9787 13.8134 20.988C13.4867 20.9973 13.2021 21.0627 12.9594 21.184C12.7821 21.2773 12.5534 21.4547 12.2734 21.716ZM11.3214 20.386C11.2841 20.582 11.3121 20.7733 11.4054 20.96H10.5794C10.5141 20.624 10.5421 20.2693 10.6634 19.896C10.7567 19.6067 10.9434 19.3733 11.2234 19.196C11.5034 19.0187 11.8161 18.9347 12.1614 18.944C12.8801 18.9627 13.3094 19.266 13.4494 19.854C14.3361 19.2193 15.2974 18.9067 16.3334 18.916C17.3881 18.9253 18.2654 19.28 18.9654 19.98C19.6747 20.6707 20.0294 21.5387 20.0294 22.584C20.0294 23.1813 19.9081 23.7367 19.6654 24.25C19.4227 24.754 19.1054 25.132 18.7134 25.384C18.0601 25.804 17.2154 26.014 16.1794 26.014V25.342C16.7954 25.342 17.3321 25.2393 17.7894 25.034C18.2187 24.838 18.5594 24.5253 18.8114 24.096C19.0727 23.6573 19.2034 23.1627 19.2034 22.612C19.2034 21.8 18.9327 21.1093 18.3914 20.54C17.8501 19.9613 17.1734 19.672 16.3614 19.672C15.4841 19.672 14.6954 19.9053 13.9954 20.372C14.7234 20.3067 15.3394 20.4747 15.8434 20.876C16.6087 21.492 16.9867 22.2573 16.9774 23.172C16.9681 24.04 16.6367 24.7447 15.9834 25.286C15.3674 25.79 14.5927 26.042 13.6594 26.042C12.8567 26.042 12.2407 25.958 11.8114 25.79C11.2047 25.5567 10.8267 25.132 10.6774 24.516C10.6494 24.4133 10.6354 24.3153 10.6354 24.222C10.6354 24.0913 10.6587 23.956 10.7054 23.816C10.7614 23.676 10.7894 23.5873 10.7894 23.55C10.7894 23.438 10.7427 23.382 10.6494 23.382C10.4814 23.382 10.3181 23.4987 10.1594 23.732V22.822C10.5981 22.318 11.0274 21.8607 11.4474 21.45C11.8021 21.1233 12.2174 20.7407 12.6934 20.302C12.7027 20.2553 12.7074 20.2087 12.7074 20.162C12.7074 19.826 12.4881 19.6673 12.0494 19.686C11.6481 19.6953 11.4054 19.9287 11.3214 20.386ZM15.7121 16.298C14.0601 16.298 12.9634 16.5733 12.4221 17.124C12.1794 17.3667 12.0581 17.6793 12.0581 18.062C12.0581 18.398 12.1701 18.6687 12.3941 18.874C12.6088 19.0793 12.8888 19.182 13.2341 19.182C13.3461 19.182 13.4628 19.1727 13.5841 19.154V18.51C13.5281 18.5193 13.4721 18.524 13.4161 18.524C13.0801 18.524 12.9121 18.37 12.9121 18.062C12.9121 17.8473 13.0101 17.6747 13.2061 17.544C13.7194 17.208 14.5548 17.04 15.7121 17.04C16.8788 17.04 17.7234 17.208 18.2461 17.544C18.4421 17.6747 18.5401 17.8473 18.5401 18.062C18.5401 18.37 18.3721 18.524 18.0361 18.524C17.9801 18.524 17.9241 18.5193 17.8681 18.51V19.154C17.9894 19.1727 18.1061 19.182 18.2181 19.182C18.5634 19.182 18.8481 19.0793 19.0721 18.874C19.2868 18.6687 19.3941 18.398 19.3941 18.062C19.3941 17.6793 19.2728 17.3667 19.0301 17.124C18.4888 16.5733 17.3828 16.298 15.7121 16.298ZM29.6508 22.304C29.6508 21.6693 29.4034 21.058 28.9088 20.47C28.4421 19.91 27.8354 19.616 27.0888 19.588C26.6408 19.5693 26.2301 19.658 25.8568 19.854C25.5394 20.022 25.2548 20.288 25.0028 20.652C24.8348 20.8947 24.7181 21.1793 24.6528 21.506C24.8114 21.4127 25.0354 21.366 25.3248 21.366C25.6888 21.366 25.9874 21.4547 26.2208 21.632C26.5288 21.8747 26.7574 22.2153 26.9068 22.654C26.9908 22.9247 27.0281 23.1907 27.0188 23.452C26.9814 24.3013 26.6968 24.936 26.1648 25.356C25.6421 25.776 25.0448 25.9907 24.3728 26C23.4114 26.0187 22.6228 25.72 22.0068 25.104C21.3908 24.488 21.0828 23.6107 21.0828 22.472C21.0828 21.408 21.4048 20.5493 22.0488 19.896C22.6928 19.2333 23.5281 18.8973 24.5548 18.888V19.588C23.9014 19.6067 23.3181 19.8353 22.8048 20.274C22.2074 20.7873 21.9088 21.5153 21.9088 22.458C21.9088 23.1207 22.0488 23.6807 22.3288 24.138C22.5528 24.502 22.8468 24.782 23.2108 24.978C23.5468 25.1553 23.8781 25.244 24.2048 25.244C24.8954 25.244 25.4368 25.006 25.8288 24.53C26.1088 24.194 26.2254 23.7693 26.1788 23.256C26.1601 22.976 26.0761 22.724 25.9268 22.5C25.7774 22.276 25.6048 22.1547 25.4088 22.136C25.0261 22.0987 24.7741 22.1827 24.6528 22.388C24.5594 22.556 24.5501 22.7987 24.6248 23.116H23.8548C23.7988 22.836 23.7708 22.5373 23.7708 22.22C23.7708 21.828 23.8128 21.492 23.8968 21.212C24.1674 20.316 24.6854 19.6533 25.4508 19.224C25.8521 19 26.3934 18.888 27.0748 18.888C28.0268 18.888 28.8294 19.238 29.4828 19.938C30.1361 20.6287 30.4628 21.4547 30.4628 22.416C30.4628 23.4987 30.1081 24.3667 29.3988 25.02C28.6988 25.6733 27.7468 26.0047 26.5428 26.014V25.314C26.7574 25.3513 26.9394 25.342 27.0888 25.286C27.2848 25.2113 27.3828 25.09 27.3828 24.922C27.3828 24.8847 27.3781 24.8427 27.3688 24.796C27.3594 24.7493 27.2988 24.5113 27.1868 24.082C27.1121 23.8207 27.0748 23.5827 27.0748 23.368C27.0748 22.6213 27.3688 22.1313 27.9568 21.898C28.1248 21.8327 28.3301 21.8 28.5728 21.8C28.8808 21.8 29.1281 21.8607 29.3148 21.982C29.4548 22.0753 29.5668 22.1827 29.6508 22.304ZM28.0548 25.062C28.4841 24.8473 28.8434 24.5533 29.1328 24.18C29.2354 24.0493 29.3054 23.9093 29.3428 23.76C29.3894 23.6013 29.4128 23.4707 29.4128 23.368C29.4128 23.088 29.3101 22.864 29.1048 22.696C28.9741 22.584 28.8108 22.528 28.6148 22.528C28.4001 22.528 28.2228 22.6027 28.0828 22.752C27.8774 22.9667 27.8168 23.3213 27.9008 23.816C27.9568 24.012 28.0268 24.306 28.1108 24.698C28.1201 24.8007 28.1014 24.922 28.0548 25.062ZM33.9269 21.156C33.7776 21.2867 33.5396 21.5153 33.2129 21.842C32.9703 22.094 32.6389 22.444 32.2189 22.892C32.4616 22.92 32.6249 23.06 32.7089 23.312C32.7369 23.4053 32.7509 23.4987 32.7509 23.592C32.7509 23.6947 32.7323 23.802 32.6949 23.914C32.6389 24.082 32.6109 24.1707 32.6109 24.18C32.5923 24.2547 32.5829 24.334 32.5829 24.418C32.5829 24.9687 32.8769 25.244 33.4649 25.244C33.8009 25.244 34.0669 25.1367 34.2629 24.922C34.4589 24.7073 34.5569 24.4227 34.5569 24.068V23.27H35.3269V24.082C35.3269 24.9407 35.6863 25.3373 36.4049 25.272C36.7689 25.2347 37.0583 25.0247 37.2729 24.642C37.4503 24.3153 37.5389 23.9467 37.5389 23.536C37.5389 22.8827 37.3429 22.2993 36.9509 21.786C36.5683 21.2727 36.0596 20.9413 35.4249 20.792C35.3036 20.764 35.1683 20.75 35.0189 20.75C34.5709 20.75 34.2069 20.8853 33.9269 21.156ZM32.4289 20.89H31.6169C31.5796 20.7407 31.5609 20.596 31.5609 20.456C31.5609 20.0453 31.6963 19.6907 31.9669 19.392C32.2376 19.084 32.5736 18.916 32.9749 18.888C33.8709 18.8227 34.3889 19.1353 34.5289 19.826C35.3409 19.2287 36.3116 18.916 37.4409 18.888C38.5329 18.86 39.4616 19.21 40.2269 19.938C41.0203 20.694 41.3983 21.632 41.3609 22.752C41.3329 23.6947 41.0343 24.474 40.4649 25.09C39.9049 25.6967 39.1769 26 38.2809 26C38.1596 26 38.0383 25.9953 37.9169 25.986V25.314C38.6916 25.37 39.3356 25.1087 39.8489 24.53C40.3623 23.9513 40.5909 23.2793 40.5349 22.514C40.4696 21.674 40.1523 20.9833 39.5829 20.442C39.0229 19.8913 38.3229 19.6113 37.4829 19.602C36.6523 19.5927 35.9569 19.7653 35.3969 20.12C37.2076 20.372 38.1876 21.4173 38.3369 23.256C38.3929 23.956 38.2669 24.572 37.9589 25.104C37.6136 25.7013 37.1143 26 36.4609 26C35.5743 25.9907 35.0609 25.748 34.9209 25.272C34.7623 25.7573 34.2209 26 33.2969 26C32.8676 26 32.5083 25.86 32.2189 25.58C31.9296 25.2907 31.7756 24.9453 31.7569 24.544C31.7476 24.4133 31.7709 24.25 31.8269 24.054C31.8923 23.858 31.9249 23.7367 31.9249 23.69C31.9249 23.55 31.8456 23.48 31.6869 23.48C31.5843 23.48 31.4349 23.578 31.2389 23.774V22.934C31.4069 22.71 31.8176 22.2433 32.4709 21.534C32.4709 21.534 32.8443 21.1607 33.5909 20.414C33.6936 20.3113 33.7449 20.1853 33.7449 20.036C33.7449 19.728 33.5349 19.5927 33.1149 19.63C32.8816 19.6487 32.6949 19.7467 32.5549 19.924C32.4243 20.1013 32.3589 20.302 32.3589 20.526C32.3589 20.6567 32.3823 20.778 32.4289 20.89ZM39.839 17.53C40.007 17.6513 40.189 17.698 40.385 17.67C40.5717 17.642 40.7117 17.572 40.805 17.46C40.8984 17.3387 40.9357 17.1847 40.917 16.998C40.8984 16.7927 40.847 16.6527 40.763 16.578C40.6324 16.466 40.497 16.4147 40.357 16.424C40.2357 16.4333 40.1284 16.4707 40.035 16.536C39.9044 16.62 39.839 16.7227 39.839 16.844V17.53ZM39.083 16.914C39.083 16.718 39.0084 16.5873 38.859 16.522C38.7004 16.4567 38.537 16.4613 38.369 16.536C38.1917 16.6107 38.0657 16.7133 37.991 16.844V16.06C38.271 15.8267 38.5744 15.724 38.901 15.752C39.0504 15.7613 39.1904 15.808 39.321 15.892C39.3957 15.9387 39.4797 16.0087 39.573 16.102C39.6664 15.99 39.797 15.9013 39.965 15.836C40.133 15.7707 40.3244 15.7427 40.539 15.752C40.8657 15.7707 41.141 15.8827 41.365 16.088C41.5797 16.2933 41.6964 16.5827 41.715 16.956C41.7244 17.264 41.673 17.5113 41.561 17.698C41.4397 17.8847 41.2857 18.0293 41.099 18.132C40.875 18.2533 40.6324 18.3047 40.371 18.286C40.119 18.2673 39.9417 18.2253 39.839 18.16V19.742C39.7644 19.658 39.643 19.5507 39.475 19.42C39.3257 19.3267 39.195 19.2613 39.083 19.224V16.914ZM44.5097 21.716C44.4071 21.8093 44.0384 22.1733 43.4037 22.808C43.6091 22.864 43.7491 22.9853 43.8237 23.172C43.8517 23.2373 43.8657 23.3027 43.8657 23.368C43.8657 23.4333 43.8331 23.5593 43.7677 23.746C43.7024 23.9233 43.6837 24.0773 43.7117 24.208C43.8611 24.9733 44.5844 25.3467 45.8817 25.328C46.5444 25.3187 47.1137 25.1367 47.5897 24.782C48.1124 24.39 48.3737 23.8627 48.3737 23.2C48.3737 22.5467 48.1451 22.0147 47.6877 21.604C47.2397 21.184 46.6937 20.9787 46.0497 20.988C45.7231 20.9973 45.4384 21.0627 45.1957 21.184C45.0184 21.2773 44.7897 21.4547 44.5097 21.716ZM43.5577 20.386C43.5204 20.582 43.5484 20.7733 43.6417 20.96H42.8157C42.7504 20.624 42.7784 20.2693 42.8997 19.896C42.9931 19.6067 43.1797 19.3733 43.4597 19.196C43.7397 19.0187 44.0524 18.9347 44.3977 18.944C45.1164 18.9627 45.5457 19.266 45.6857 19.854C46.5724 19.2193 47.5337 18.9067 48.5697 18.916C49.6244 18.9253 50.5017 19.28 51.2017 19.98C51.9111 20.6707 52.2657 21.5387 52.2657 22.584C52.2657 23.1813 52.1444 23.7367 51.9017 24.25C51.6591 24.754 51.3417 25.132 50.9497 25.384C50.2964 25.804 49.4517 26.014 48.4157 26.014V25.342C49.0317 25.342 49.5684 25.2393 50.0257 25.034C50.4551 24.838 50.7957 24.5253 51.0477 24.096C51.3091 23.6573 51.4397 23.1627 51.4397 22.612C51.4397 21.8 51.1691 21.1093 50.6277 20.54C50.0864 19.9613 49.4097 19.672 48.5977 19.672C47.7204 19.672 46.9317 19.9053 46.2317 20.372C46.9597 20.3067 47.5757 20.4747 48.0797 20.876C48.8451 21.492 49.2231 22.2573 49.2137 23.172C49.2044 24.04 48.8731 24.7447 48.2197 25.286C47.6037 25.79 46.8291 26.042 45.8957 26.042C45.0931 26.042 44.4771 25.958 44.0477 25.79C43.4411 25.5567 43.0631 25.132 42.9137 24.516C42.8857 24.4133 42.8717 24.3153 42.8717 24.222C42.8717 24.0913 42.8951 23.956 42.9417 23.816C42.9977 23.676 43.0257 23.5873 43.0257 23.55C43.0257 23.438 42.9791 23.382 42.8857 23.382C42.7177 23.382 42.5544 23.4987 42.3957 23.732V22.822C42.8344 22.318 43.2637 21.8607 43.6837 21.45C44.0384 21.1233 44.4537 20.7407 44.9297 20.302C44.9391 20.2553 44.9437 20.2087 44.9437 20.162C44.9437 19.826 44.7244 19.6673 44.2857 19.686C43.8844 19.6953 43.6417 19.9287 43.5577 20.386ZM45.8204 19.154C45.6991 19.1727 45.5824 19.182 45.4704 19.182C45.1251 19.182 44.8451 19.0793 44.6304 18.874C44.4064 18.6687 44.2944 18.398 44.2944 18.062C44.2944 17.6793 44.4157 17.3667 44.6584 17.124C45.1997 16.5733 46.2964 16.298 47.9484 16.298C48.7417 16.298 49.3904 16.34 49.8944 16.424C50.5291 16.5267 50.9771 16.704 51.2384 16.956C51.4997 17.208 51.6304 17.5113 51.6304 17.866C51.6304 18.2487 51.4904 18.5613 51.2104 18.804C50.9957 18.9907 50.6691 19.084 50.2304 19.084C49.9597 19.084 49.7124 19.042 49.4884 18.958C48.8817 18.7433 48.5737 18.3653 48.5644 17.824C48.5551 17.4787 48.6671 17.2267 48.9004 17.068C48.7231 17.0493 48.4151 17.04 47.9764 17.04C46.8097 17.04 45.9651 17.208 45.4424 17.544C45.2464 17.6747 45.1484 17.8473 45.1484 18.062C45.1484 18.37 45.3164 18.524 45.6524 18.524C45.7084 18.524 45.7644 18.5193 45.8204 18.51V19.154ZM50.0484 17.236C49.6751 17.236 49.4604 17.376 49.4044 17.656C49.3391 17.992 49.5164 18.2207 49.9364 18.342C50.0204 18.37 50.1044 18.384 50.1884 18.384C50.4777 18.384 50.6691 18.2907 50.7624 18.104C50.7997 18.0293 50.8184 17.95 50.8184 17.866C50.8184 17.6793 50.7391 17.53 50.5804 17.418C50.4217 17.2967 50.2444 17.236 50.0484 17.236ZM55.9371 21.156C55.7878 21.2867 55.5498 21.5153 55.2231 21.842C54.9804 22.094 54.6491 22.444 54.2291 22.892C54.4718 22.92 54.6351 23.06 54.7191 23.312C54.7471 23.4053 54.7611 23.4987 54.7611 23.592C54.7611 23.6947 54.7424 23.802 54.7051 23.914C54.6491 24.082 54.6211 24.1707 54.6211 24.18C54.6024 24.2547 54.5931 24.334 54.5931 24.418C54.5931 24.9687 54.8871 25.244 55.4751 25.244C55.8111 25.244 56.0771 25.1367 56.2731 24.922C56.4691 24.7073 56.5671 24.4227 56.5671 24.068V23.27H57.3371V24.082C57.3371 24.9407 57.6964 25.3373 58.4151 25.272C58.7791 25.2347 59.0684 25.0247 59.2831 24.642C59.4604 24.3153 59.5491 23.9467 59.5491 23.536C59.5491 22.8827 59.3531 22.2993 58.9611 21.786C58.5784 21.2727 58.0698 20.9413 57.4351 20.792C57.3138 20.764 57.1784 20.75 57.0291 20.75C56.5811 20.75 56.2171 20.8853 55.9371 21.156ZM54.4391 20.89H53.6271C53.5898 20.7407 53.5711 20.596 53.5711 20.456C53.5711 20.0453 53.7064 19.6907 53.9771 19.392C54.2478 19.084 54.5838 18.916 54.9851 18.888C55.8811 18.8227 56.3991 19.1353 56.5391 19.826C57.3511 19.2287 58.3218 18.916 59.4511 18.888C60.5431 18.86 61.4718 19.21 62.2371 19.938C63.0304 20.694 63.4084 21.632 63.3711 22.752C63.3431 23.6947 63.0444 24.474 62.4751 25.09C61.9151 25.6967 61.1871 26 60.2911 26C60.1698 26 60.0484 25.9953 59.9271 25.986V25.314C60.7018 25.37 61.3458 25.1087 61.8591 24.53C62.3724 23.9513 62.6011 23.2793 62.5451 22.514C62.4798 21.674 62.1624 20.9833 61.5931 20.442C61.0331 19.8913 60.3331 19.6113 59.4931 19.602C58.6624 19.5927 57.9671 19.7653 57.4071 20.12C59.2178 20.372 60.1978 21.4173 60.3471 23.256C60.4031 23.956 60.2771 24.572 59.9691 25.104C59.6238 25.7013 59.1244 26 58.4711 26C57.5844 25.9907 57.0711 25.748 56.9311 25.272C56.7724 25.7573 56.2311 26 55.3071 26C54.8778 26 54.5184 25.86 54.2291 25.58C53.9398 25.2907 53.7858 24.9453 53.7671 24.544C53.7578 24.4133 53.7811 24.25 53.8371 24.054C53.9024 23.858 53.9351 23.7367 53.9351 23.69C53.9351 23.55 53.8558 23.48 53.6971 23.48C53.5944 23.48 53.4451 23.578 53.2491 23.774V22.934C53.4171 22.71 53.8278 22.2433 54.4811 21.534C54.4811 21.534 54.8544 21.1607 55.6011 20.414C55.7038 20.3113 55.7551 20.1853 55.7551 20.036C55.7551 19.728 55.5451 19.5927 55.1251 19.63C54.8918 19.6487 54.7051 19.7467 54.5651 19.924C54.4344 20.1013 54.3691 20.302 54.3691 20.526C54.3691 20.6567 54.3924 20.778 54.4391 20.89ZM67.9952 19.602C67.1832 19.5927 66.4879 19.868 65.9092 20.428C65.3305 20.988 65.0365 21.66 65.0272 22.444C65.0179 23.2467 65.3119 23.928 65.9092 24.488C66.4412 24.992 67.1505 25.2487 68.0372 25.258C68.8305 25.2673 69.5072 25.006 70.0672 24.474C70.6365 23.9327 70.9259 23.256 70.9352 22.444C70.9445 21.6413 70.6552 20.9693 70.0672 20.428C69.4885 19.8867 68.7979 19.6113 67.9952 19.602ZM71.7472 22.416C71.7565 23.4893 71.4019 24.3573 70.6832 25.02C69.9739 25.6733 69.0779 26 67.9952 26C66.9125 26 66.0119 25.6733 65.2932 25.02C64.5745 24.3667 64.2152 23.508 64.2152 22.444C64.2152 21.8 64.3692 21.226 64.6772 20.722C64.6772 20.7127 64.8779 20.456 65.2792 19.952C65.3819 19.8213 65.7879 19.5367 66.4972 19.098C66.8892 18.8647 67.2859 18.6313 67.6872 18.398C68.1445 18.0993 68.4712 17.81 68.6672 17.53C68.8632 17.25 69.0079 16.984 69.1012 16.732H69.9832C69.8992 17.096 69.7219 17.4647 69.4512 17.838C69.1619 18.2393 68.7699 18.5847 68.2752 18.874C68.5459 18.9113 68.7419 18.9393 68.8632 18.958C69.0592 19.0047 69.2832 19.0747 69.5352 19.168C70.2072 19.42 70.7392 19.8447 71.1312 20.442C71.5325 21.0393 71.7379 21.6973 71.7472 22.416ZM77.4537 17.054H78.3217L77.2297 18.986C77.5377 19.014 77.8177 19.07 78.0697 19.154C78.359 19.2567 78.625 19.3967 78.8677 19.574C79.0823 19.1727 79.465 18.9627 80.0157 18.944C80.613 18.9253 81.0517 19.1587 81.3317 19.644C81.6957 19.1867 82.1903 18.9627 82.8157 18.972C84.2343 19 84.9343 20.1853 84.9157 22.528C84.897 24.9173 84.0897 26.1027 82.4937 26.084C81.3083 26.0747 80.6503 25.426 80.5197 24.138H81.3177C81.3363 24.5207 81.453 24.8193 81.6677 25.034C81.901 25.286 82.223 25.3933 82.6337 25.356C83.175 25.3093 83.5717 24.9593 83.8237 24.306C84.0103 23.83 84.1037 23.256 84.1037 22.584C84.1037 20.6707 83.665 19.714 82.7877 19.714C82.4983 19.714 82.2417 19.8027 82.0177 19.98C81.803 20.148 81.6957 20.3627 81.6957 20.624V21.954H80.9397V20.708C80.9397 20.4467 80.865 20.218 80.7157 20.022C80.5757 19.8167 80.389 19.7093 80.1557 19.7C79.8477 19.6907 79.605 19.812 79.4277 20.064C80.025 20.932 80.3143 21.8187 80.2957 22.724C80.277 23.7227 79.9177 24.5487 79.2177 25.202C78.527 25.8553 77.6823 26.154 76.6837 26.098C75.7783 26.0513 74.929 25.9067 74.1357 25.664C74.0703 25.6453 74.0003 25.636 73.9257 25.636C73.6643 25.636 73.4823 25.7153 73.3797 25.874H72.5677L73.7717 23.718C73.221 23.1953 72.969 22.5093 73.0157 21.66C73.0623 20.8013 73.4823 20.078 74.2757 19.49C74.7237 19.154 75.433 18.9627 76.4037 18.916L77.4537 17.054ZM75.9837 19.672C75.5357 19.6907 75.1297 19.8167 74.7657 20.05C74.3737 20.3113 74.0983 20.6613 73.9397 21.1C73.8463 21.3613 73.7997 21.618 73.7997 21.87C73.7997 22.2993 73.921 22.6773 74.1637 23.004L75.9837 19.672ZM76.8377 19.686L75.9557 21.268C76.2077 21.0533 76.525 20.9507 76.9077 20.96C77.3183 20.9787 77.6543 21.1607 77.9157 21.506C78.177 21.8513 78.2797 22.2387 78.2237 22.668C78.1397 23.2653 77.8923 23.7227 77.4817 24.04C77.0803 24.348 76.5717 24.5067 75.9557 24.516C75.4423 24.5253 74.915 24.4087 74.3737 24.166L73.8837 25.076C74.0237 24.964 74.2523 24.9547 74.5697 25.048C75.2697 25.2533 75.9743 25.3653 76.6837 25.384C77.4397 25.4027 78.093 25.1507 78.6437 24.628C79.1943 24.1053 79.4743 23.4707 79.4837 22.724C79.5023 21.7347 79.1943 20.9413 78.5597 20.344C78.177 19.98 77.603 19.7607 76.8377 19.686ZM75.4797 22.164L74.7517 23.48C75.1063 23.6667 75.4423 23.7693 75.7597 23.788C76.3477 23.816 76.7957 23.676 77.1037 23.368C76.9263 23.4333 76.7537 23.466 76.5857 23.466C76.3243 23.466 76.0863 23.3773 75.8717 23.2C75.5543 22.9293 75.4237 22.584 75.4797 22.164ZM76.2077 22.234C76.2077 22.3927 76.2637 22.528 76.3757 22.64C76.4877 22.752 76.6183 22.808 76.7677 22.808C76.9357 22.808 77.0757 22.752 77.1877 22.64C77.309 22.528 77.3697 22.3927 77.3697 22.234C77.3697 22.0753 77.309 21.94 77.1877 21.828C77.0757 21.716 76.9403 21.66 76.7817 21.66C76.623 21.66 76.4877 21.716 76.3757 21.828C76.2637 21.94 76.2077 22.0753 76.2077 22.234ZM88.1693 19.056C87.4133 19.336 86.83 19.77 86.4193 20.358C85.99 20.9833 85.7753 21.7907 85.7753 22.78C85.7753 23.6667 85.99 24.4413 86.4193 25.104C86.69 25.5147 87.0586 25.79 87.5253 25.93C87.8146 26.014 88.1413 26.0467 88.5053 26.028C89.1306 25.9907 89.602 25.8133 89.9193 25.496C90.0406 25.3747 90.1386 25.2253 90.2133 25.048C90.288 25.2067 90.4 25.3653 90.5493 25.524C90.876 25.86 91.338 26.028 91.9353 26.028C92.5046 26.028 92.9713 25.9253 93.3353 25.72C93.7086 25.5053 94.0073 25.188 94.2313 24.768C94.4646 24.3387 94.5813 23.872 94.5813 23.368C94.5813 22.612 94.3853 22.01 93.9933 21.562C93.6666 21.1887 93.2606 20.9367 92.7753 20.806C92.57 20.75 92.318 20.722 92.0193 20.722H90.8433C90.8433 20.3767 90.9226 20.1153 91.0813 19.938C91.2773 19.714 91.6086 19.602 92.0753 19.602C92.4673 19.602 92.7286 19.7093 92.8593 19.924C92.9993 20.1293 93.0693 20.386 93.0693 20.694H93.8813C93.8813 20.162 93.7646 19.7467 93.5313 19.448C93.2326 19.0653 92.7473 18.874 92.0753 18.874C91.0486 18.874 90.3906 19.2707 90.1013 20.064C90.0453 20.2133 90.0173 20.5353 90.0173 21.03V21.394H91.7673C91.9726 21.394 92.1173 21.3987 92.2013 21.408C92.584 21.408 92.9293 21.5713 93.2373 21.898C93.5826 22.262 93.76 22.7147 93.7693 23.256C93.7786 23.6387 93.6993 24.0027 93.5313 24.348C93.3726 24.684 93.158 24.9267 92.8873 25.076C92.654 25.2067 92.4346 25.272 92.2293 25.272C91.7066 25.272 91.3006 25.1227 91.0113 24.824C90.7313 24.516 90.5913 24.1847 90.5913 23.83V22.948H89.8353V23.886C89.8353 24.194 89.686 24.5113 89.3873 24.838C89.098 25.1647 88.706 25.3047 88.2113 25.258C87.754 25.2207 87.3853 25.0153 87.1053 24.642C86.788 24.222 86.62 23.648 86.6013 22.92C86.592 22.388 86.6526 21.912 86.7833 21.492C86.998 20.8293 87.4086 20.316 88.0153 19.952C88.4166 19.7187 88.986 19.6113 89.7233 19.63V18.888C88.9953 18.888 88.4773 18.944 88.1693 19.056Z" fill="#154882"/>
</svg>
