<svg width="99" height="14" viewBox="0 0 99 14" fill="none" xmlns="http://www.w3.org/2000/svg">
<path d="M6.73027 8.68262H2.87481L2.06816 11H0.270313L4.03008 1.04688H5.58184L9.34844 11H7.54375L6.73027 8.68262ZM3.36016 7.28809H6.24492L4.80254 3.15918L3.36016 7.28809ZM11.6859 3.60352L11.7338 4.45801C12.2807 3.7972 12.9984 3.4668 13.8871 3.4668C15.4275 3.4668 16.2113 4.34863 16.2387 6.1123V11H14.5775V6.20801C14.5775 5.73861 14.475 5.39225 14.2699 5.16895C14.0694 4.94108 13.739 4.82715 13.2787 4.82715C12.6088 4.82715 12.1098 5.13021 11.7816 5.73633V11H10.1205V3.60352H11.6859ZM21.3447 11.1367C20.292 11.1367 19.4375 10.8063 18.7812 10.1455C18.1296 9.48014 17.8037 8.59603 17.8037 7.49316V7.28809C17.8037 6.5498 17.945 5.89128 18.2275 5.3125C18.5146 4.72917 18.9157 4.27572 19.4307 3.95215C19.9456 3.62858 20.5199 3.4668 21.1533 3.4668C22.1605 3.4668 22.9375 3.78809 23.4844 4.43066C24.0358 5.07324 24.3115 5.98242 24.3115 7.1582V7.82812H19.4785C19.5286 8.4388 19.7314 8.92188 20.0869 9.27734C20.4469 9.63281 20.8981 9.81055 21.4404 9.81055C22.2015 9.81055 22.8213 9.50293 23.2998 8.8877L24.1953 9.74219C23.8991 10.1842 23.5026 10.5283 23.0059 10.7744C22.5137 11.016 21.96 11.1367 21.3447 11.1367ZM21.1465 4.7998C20.6908 4.7998 20.3216 4.95931 20.0391 5.27832C19.7611 5.59733 19.5833 6.04167 19.5059 6.61133H22.6709V6.48828C22.6344 5.93229 22.4863 5.51302 22.2266 5.23047C21.9668 4.94336 21.6068 4.7998 21.1465 4.7998ZM29.9029 8.99023C29.9029 8.69401 29.7799 8.46842 29.5338 8.31348C29.2923 8.15853 28.8889 8.02181 28.3238 7.90332C27.7587 7.78483 27.287 7.63444 26.9088 7.45215C26.0794 7.05111 25.6646 6.47005 25.6646 5.70898C25.6646 5.07096 25.9335 4.53776 26.4713 4.10938C27.0091 3.68099 27.6926 3.4668 28.5221 3.4668C29.4062 3.4668 30.1194 3.68555 30.6617 4.12305C31.2086 4.56055 31.482 5.12793 31.482 5.8252H29.8209C29.8209 5.50618 29.7024 5.24186 29.4654 5.03223C29.2285 4.81803 28.914 4.71094 28.5221 4.71094C28.1575 4.71094 27.859 4.79525 27.6266 4.96387C27.3987 5.13249 27.2848 5.35807 27.2848 5.64062C27.2848 5.89583 27.3919 6.09408 27.6061 6.23535C27.8202 6.37663 28.2532 6.52018 28.9049 6.66602C29.5566 6.80729 30.067 6.97819 30.4361 7.17871C30.8098 7.37467 31.0855 7.61165 31.2633 7.88965C31.4456 8.16764 31.5367 8.50488 31.5367 8.90137C31.5367 9.56673 31.261 10.1068 30.7096 10.5215C30.1581 10.9316 29.4358 11.1367 28.5426 11.1367C27.9365 11.1367 27.3964 11.0273 26.9225 10.8086C26.4485 10.5898 26.0794 10.2891 25.815 9.90625C25.5507 9.52344 25.4186 9.111 25.4186 8.66895H27.0318C27.0546 9.06087 27.2027 9.36393 27.4762 9.57812C27.7496 9.78776 28.1119 9.89258 28.5631 9.89258C29.0006 9.89258 29.3333 9.81055 29.5611 9.64648C29.789 9.47786 29.9029 9.25911 29.9029 8.99023ZM35.2209 1.80566V3.60352H36.5266V4.83398H35.2209V8.96289C35.2209 9.24544 35.2756 9.45052 35.385 9.57812C35.4989 9.70117 35.6994 9.7627 35.9865 9.7627C36.1779 9.7627 36.3716 9.73991 36.5676 9.69434V10.9795C36.1893 11.0843 35.8247 11.1367 35.4738 11.1367C34.1978 11.1367 33.5598 10.4326 33.5598 9.02441V4.83398H32.343V3.60352H33.5598V1.80566H35.2209ZM39.5887 4.41016C40.131 3.78125 40.8169 3.4668 41.6463 3.4668C43.2231 3.4668 44.0229 4.36686 44.0457 6.16699V11H42.3846V6.22852C42.3846 5.7181 42.2729 5.35807 42.0496 5.14844C41.8309 4.93424 41.5073 4.82715 41.0789 4.82715C40.4135 4.82715 39.9168 5.12337 39.5887 5.71582V11H37.9275V0.5H39.5887V4.41016ZM49.1381 11.1367C48.0854 11.1367 47.2309 10.8063 46.5746 10.1455C45.9229 9.48014 45.5971 8.59603 45.5971 7.49316V7.28809C45.5971 6.5498 45.7383 5.89128 46.0209 5.3125C46.308 4.72917 46.7091 4.27572 47.224 3.95215C47.739 3.62858 48.3132 3.4668 48.9467 3.4668C49.9538 3.4668 50.7309 3.78809 51.2777 4.43066C51.8292 5.07324 52.1049 5.98242 52.1049 7.1582V7.82812H47.2719C47.322 8.4388 47.5248 8.92188 47.8803 9.27734C48.2403 9.63281 48.6915 9.81055 49.2338 9.81055C49.9949 9.81055 50.6147 9.50293 51.0932 8.8877L51.9887 9.74219C51.6925 10.1842 51.296 10.5283 50.7992 10.7744C50.307 11.016 49.7533 11.1367 49.1381 11.1367ZM48.9398 4.7998C48.4841 4.7998 48.115 4.95931 47.8324 5.27832C47.5544 5.59733 47.3767 6.04167 47.2992 6.61133H50.4643V6.48828C50.4278 5.93229 50.2797 5.51302 50.0199 5.23047C49.7602 4.94336 49.4001 4.7998 48.9398 4.7998ZM57.6963 8.99023C57.6963 8.69401 57.5732 8.46842 57.3271 8.31348C57.0856 8.15853 56.6823 8.02181 56.1172 7.90332C55.5521 7.78483 55.0804 7.63444 54.7021 7.45215C53.8727 7.05111 53.458 6.47005 53.458 5.70898C53.458 5.07096 53.7269 4.53776 54.2646 4.10938C54.8024 3.68099 55.486 3.4668 56.3154 3.4668C57.1995 3.4668 57.9128 3.68555 58.4551 4.12305C59.002 4.56055 59.2754 5.12793 59.2754 5.8252H57.6143C57.6143 5.50618 57.4958 5.24186 57.2588 5.03223C57.0218 4.81803 56.7074 4.71094 56.3154 4.71094C55.9508 4.71094 55.6523 4.79525 55.4199 4.96387C55.1921 5.13249 55.0781 5.35807 55.0781 5.64062C55.0781 5.89583 55.1852 6.09408 55.3994 6.23535C55.6136 6.37663 56.0465 6.52018 56.6982 6.66602C57.3499 6.80729 57.8604 6.97819 58.2295 7.17871C58.6032 7.37467 58.8789 7.61165 59.0566 7.88965C59.2389 8.16764 59.3301 8.50488 59.3301 8.90137C59.3301 9.56673 59.0544 10.1068 58.5029 10.5215C57.9515 10.9316 57.2292 11.1367 56.3359 11.1367C55.7298 11.1367 55.1898 11.0273 54.7158 10.8086C54.2419 10.5898 53.8727 10.2891 53.6084 9.90625C53.3441 9.52344 53.2119 9.111 53.2119 8.66895H54.8252C54.848 9.06087 54.9961 9.36393 55.2695 9.57812C55.543 9.78776 55.9053 9.89258 56.3564 9.89258C56.7939 9.89258 57.1266 9.81055 57.3545 9.64648C57.5824 9.47786 57.6963 9.25911 57.6963 8.99023ZM62.6998 11H61.0387V3.60352H62.6998V11ZM60.9361 1.68262C60.9361 1.42741 61.0159 1.21549 61.1754 1.04688C61.3395 0.878255 61.5719 0.793945 61.8727 0.793945C62.1734 0.793945 62.4059 0.878255 62.5699 1.04688C62.734 1.21549 62.816 1.42741 62.816 1.68262C62.816 1.93327 62.734 2.1429 62.5699 2.31152C62.4059 2.47559 62.1734 2.55762 61.8727 2.55762C61.5719 2.55762 61.3395 2.47559 61.1754 2.31152C61.0159 2.1429 60.9361 1.93327 60.9361 1.68262ZM64.3537 7.2334C64.3537 6.50879 64.4973 5.8571 64.7844 5.27832C65.0715 4.69499 65.4748 4.24837 65.9943 3.93848C66.5139 3.62402 67.1109 3.4668 67.7854 3.4668C68.7834 3.4668 69.5923 3.78809 70.2121 4.43066C70.8365 5.07324 71.1737 5.92546 71.2238 6.9873L71.2307 7.37695C71.2307 8.10612 71.0894 8.75781 70.8068 9.33203C70.5288 9.90625 70.1278 10.3506 69.6037 10.665C69.0842 10.9795 68.4826 11.1367 67.799 11.1367C66.7554 11.1367 65.9191 10.7904 65.2902 10.0977C64.6659 9.40039 64.3537 8.47298 64.3537 7.31543V7.2334ZM66.0148 7.37695C66.0148 8.13802 66.1721 8.73503 66.4865 9.16797C66.801 9.59635 67.2385 9.81055 67.799 9.81055C68.3596 9.81055 68.7948 9.5918 69.1047 9.1543C69.4191 8.7168 69.5764 8.0765 69.5764 7.2334C69.5764 6.486 69.4146 5.89355 69.091 5.45605C68.772 5.01855 68.3368 4.7998 67.7854 4.7998C67.243 4.7998 66.8124 5.01628 66.4934 5.44922C66.1744 5.8776 66.0148 6.52018 66.0148 7.37695ZM74.5525 11H72.8914V0.5H74.5525V11ZM76.2065 7.2334C76.2065 6.50879 76.35 5.8571 76.6371 5.27832C76.9242 4.69499 77.3275 4.24837 77.8471 3.93848C78.3666 3.62402 78.9636 3.4668 79.6381 3.4668C80.6361 3.4668 81.4451 3.78809 82.0648 4.43066C82.6892 5.07324 83.0264 5.92546 83.0766 6.9873L83.0834 7.37695C83.0834 8.10612 82.9421 8.75781 82.6596 9.33203C82.3816 9.90625 81.9805 10.3506 81.4565 10.665C80.9369 10.9795 80.3354 11.1367 79.6518 11.1367C78.6081 11.1367 77.7719 10.7904 77.143 10.0977C76.5186 9.40039 76.2065 8.47298 76.2065 7.31543V7.2334ZM77.8676 7.37695C77.8676 8.13802 78.0248 8.73503 78.3393 9.16797C78.6537 9.59635 79.0912 9.81055 79.6518 9.81055C80.2123 9.81055 80.6475 9.5918 80.9574 9.1543C81.2719 8.7168 81.4291 8.0765 81.4291 7.2334C81.4291 6.486 81.2673 5.89355 80.9438 5.45605C80.6247 5.01855 80.1895 4.7998 79.6381 4.7998C79.0958 4.7998 78.6651 5.01628 78.3461 5.44922C78.0271 5.8776 77.8676 6.52018 77.8676 7.37695ZM84.3477 7.24707C84.3477 6.09863 84.6165 5.18262 85.1543 4.49902C85.6966 3.81087 86.4144 3.4668 87.3076 3.4668C88.1507 3.4668 88.8138 3.76074 89.2969 4.34863L89.3721 3.60352H90.8691V10.7744C90.8691 11.7451 90.5661 12.5107 89.96 13.0713C89.3584 13.6318 88.5449 13.9121 87.5195 13.9121C86.9772 13.9121 86.4463 13.7982 85.9268 13.5703C85.4118 13.347 85.0199 13.0531 84.751 12.6885L85.5371 11.6904C86.0475 12.2965 86.6764 12.5996 87.4238 12.5996C87.9753 12.5996 88.4105 12.4492 88.7295 12.1484C89.0485 11.8522 89.208 11.4147 89.208 10.8359V10.3369C88.7295 10.8701 88.0915 11.1367 87.2939 11.1367C86.4281 11.1367 85.7194 10.7926 85.168 10.1045C84.6211 9.41634 84.3477 8.46387 84.3477 7.24707ZM86.002 7.39062C86.002 8.13346 86.1523 8.71908 86.4531 9.14746C86.7585 9.57129 87.18 9.7832 87.7178 9.7832C88.3877 9.7832 88.8844 9.49609 89.208 8.92188V5.66797C88.8936 5.10742 88.4014 4.82715 87.7314 4.82715C87.1846 4.82715 86.7585 5.04362 86.4531 5.47656C86.1523 5.90951 86.002 6.54753 86.002 7.39062ZM95.3189 8.62109L96.8228 3.60352H98.5934L95.6539 12.1211C95.2027 13.3652 94.4371 13.9873 93.357 13.9873C93.1155 13.9873 92.8489 13.9463 92.5572 13.8643V12.5791L92.8717 12.5996C93.2909 12.5996 93.6054 12.5221 93.815 12.3672C94.0292 12.2168 94.1978 11.9616 94.3209 11.6016L94.5602 10.9658L91.9625 3.60352H93.7535L95.3189 8.62109Z" fill="#1F3A6F"/>
</svg>
