<svg width="58" height="14" viewBox="0 0 58 14" fill="none" xmlns="http://www.w3.org/2000/svg">
<path d="M2.30361 6.072H1.50561C1.42161 5.596 1.46361 5.18533 1.63161 4.84C1.92094 4.24267 2.41094 3.944 3.10161 3.944C3.50294 3.944 3.83428 4.06533 4.09561 4.308C4.36628 4.55067 4.51561 4.86333 4.54361 5.246C5.15961 4.35933 6.03694 3.93 7.17561 3.958C8.39828 3.99533 9.34094 4.52733 10.0036 5.554C10.4143 6.18867 10.6056 6.884 10.5776 7.64C10.5309 8.99333 9.92894 9.98267 8.77161 10.608C8.23028 10.8973 7.51628 11.0513 6.62961 11.07V10.37C7.55361 10.3513 8.30028 10.0947 8.86961 9.6C9.43894 9.10533 9.72828 8.452 9.73761 7.64C9.74694 6.94 9.54161 6.30533 9.12161 5.736C8.71094 5.15733 8.19761 4.82133 7.58161 4.728C7.42294 4.7 7.26428 4.686 7.10561 4.686C6.12561 4.686 5.38828 5.12933 4.89361 6.016C4.99628 5.99733 5.09894 5.988 5.20161 5.988C5.71494 5.988 6.17694 6.17 6.58761 6.534C7.12894 7.01 7.39961 7.64933 7.39961 8.452C7.39961 8.76933 7.32028 9.10067 7.16161 9.446C7.00294 9.79133 6.79761 10.076 6.54561 10.3C5.92028 10.832 5.14561 11.0933 4.22161 11.084C3.16694 11.0653 2.32694 10.7433 1.70161 10.118C1.16961 9.586 0.898942 8.816 0.889609 7.808C0.889609 7.48133 0.912942 7.16867 0.959609 6.87H1.64561C1.63628 7.28067 1.88361 7.49067 2.38761 7.5C2.68628 7.50933 2.96628 7.40667 3.22761 7.192C3.48894 6.968 3.68961 6.66467 3.82961 6.282C3.94161 5.98333 3.92761 5.63333 3.78761 5.232C3.66628 4.868 3.43294 4.686 3.08761 4.686C2.80761 4.686 2.59294 4.77933 2.44361 4.966C2.30361 5.15267 2.23361 5.37667 2.23361 5.638C2.23361 5.79667 2.25694 5.94133 2.30361 6.072ZM1.65961 7.934C1.67828 8.466 1.80894 8.914 2.05161 9.278C2.31294 9.67 2.63494 9.95 3.01761 10.118C3.33494 10.2487 3.75494 10.3233 4.27761 10.342C4.84694 10.3607 5.35094 10.2067 5.78961 9.88C6.26561 9.516 6.52228 9.04933 6.55961 8.48C6.59694 8.01333 6.46161 7.598 6.15361 7.234C5.84561 6.86067 5.47694 6.674 5.04761 6.674C4.85161 6.674 4.73028 6.68333 4.68361 6.702C4.57161 6.73933 4.44561 6.856 4.30561 7.052C3.92294 7.56533 3.50761 7.91533 3.05961 8.102C2.87294 8.17667 2.65361 8.214 2.40161 8.214C1.99094 8.214 1.74361 8.12067 1.65961 7.934ZM6.26423 1.298C4.61223 1.298 3.51557 1.57333 2.97423 2.124C2.73157 2.36667 2.61023 2.67933 2.61023 3.062C2.61023 3.398 2.72223 3.66867 2.94623 3.874C3.1609 4.07933 3.4409 4.182 3.78623 4.182C3.89823 4.182 4.0149 4.17267 4.13623 4.154V3.51C4.08023 3.51933 4.02423 3.524 3.96823 3.524C3.63223 3.524 3.46423 3.37 3.46423 3.062C3.46423 2.84733 3.56223 2.67467 3.75823 2.544C4.27157 2.208 5.1069 2.04 6.26423 2.04C7.4309 2.04 8.27557 2.208 8.79823 2.544C8.99423 2.67467 9.09223 2.84733 9.09223 3.062C9.09223 3.37 8.92423 3.524 8.58823 3.524C8.53223 3.524 8.47623 3.51933 8.42023 3.51V4.154C8.54157 4.17267 8.65823 4.182 8.77023 4.182C9.11557 4.182 9.40023 4.07933 9.62423 3.874C9.8389 3.66867 9.94623 3.398 9.94623 3.062C9.94623 2.67933 9.8249 2.36667 9.58223 2.124C9.0409 1.57333 7.9349 1.298 6.26423 1.298ZM15.4149 4.602C14.6029 4.59267 13.9076 4.868 13.3289 5.428C12.7503 5.988 12.4563 6.66 12.4469 7.444C12.4376 8.24667 12.7316 8.928 13.3289 9.488C13.8609 9.992 14.5703 10.2487 15.4569 10.258C16.2503 10.2673 16.9269 10.006 17.4869 9.474C18.0563 8.93267 18.3456 8.256 18.3549 7.444C18.3643 6.64133 18.0749 5.96933 17.4869 5.428C16.9083 4.88667 16.2176 4.61133 15.4149 4.602ZM19.1669 7.416C19.1763 8.48933 18.8216 9.35733 18.1029 10.02C17.3936 10.6733 16.4976 11 15.4149 11C14.3323 11 13.4316 10.6733 12.7129 10.02C11.9943 9.36667 11.6349 8.508 11.6349 7.444C11.6349 6.8 11.7889 6.226 12.0969 5.722C12.0969 5.71267 12.2976 5.456 12.6989 4.952C12.8016 4.82133 13.2076 4.53667 13.9169 4.098C14.3089 3.86467 14.7056 3.63133 15.1069 3.398C15.5643 3.09933 15.8909 2.81 16.0869 2.53C16.2829 2.25 16.4276 1.984 16.5209 1.732H17.4029C17.3189 2.096 17.1416 2.46467 16.8709 2.838C16.5816 3.23933 16.1896 3.58467 15.6949 3.874C15.9656 3.91133 16.1616 3.93933 16.2829 3.958C16.4789 4.00467 16.7029 4.07467 16.9549 4.168C17.6269 4.42 18.1589 4.84467 18.5509 5.442C18.9523 6.03933 19.1576 6.69733 19.1669 7.416ZM12.7269 3.188C12.8949 3.30933 13.0769 3.356 13.2729 3.328C13.6276 3.272 13.8049 3.07133 13.8049 2.726C13.8049 2.53933 13.7536 2.39933 13.6509 2.306C13.5203 2.194 13.3849 2.14267 13.2449 2.152C13.1236 2.16133 13.0163 2.19867 12.9229 2.264C12.7923 2.348 12.7269 2.45067 12.7269 2.572V3.188ZM11.9709 2.642C11.9709 2.446 11.8963 2.31533 11.7469 2.25C11.5883 2.18467 11.4249 2.18933 11.2569 2.264C11.0796 2.33867 10.9536 2.44133 10.8789 2.572V1.788C10.9816 1.704 11.0936 1.634 11.2149 1.578C11.3923 1.494 11.5836 1.46133 11.7889 1.48C11.9383 1.48933 12.0783 1.536 12.2089 1.62C12.2836 1.66667 12.3676 1.73667 12.4609 1.83C12.5543 1.718 12.6849 1.62933 12.8529 1.564C13.0209 1.49867 13.2123 1.47067 13.4269 1.48C13.9496 1.508 14.3043 1.732 14.4909 2.152C14.5469 2.292 14.5843 2.46467 14.6029 2.67C14.6216 2.94067 14.5703 3.16933 14.4489 3.356C14.3276 3.54267 14.1736 3.68733 13.9869 3.79C13.7629 3.91133 13.5203 3.96267 13.2589 3.944C13.0069 3.92533 12.8296 3.88333 12.7269 3.818V4.952C12.6243 5.04533 12.4983 5.19 12.3489 5.386C12.1996 5.57267 12.0736 5.75 11.9709 5.918V2.642ZM24.9154 3.566H21.6534C20.9721 3.566 20.5754 3.314 20.4634 2.81C20.4447 2.726 20.4354 2.63733 20.4354 2.544C20.4354 2.124 20.6407 1.788 21.0514 1.536C21.6301 1.18133 22.6241 1.004 24.0334 1.004C24.9761 1.004 25.7041 1.06467 26.2174 1.186C27.1227 1.39133 27.6547 1.788 27.8134 2.376C27.8414 2.488 27.8554 2.6 27.8554 2.712C27.8554 3.08533 27.6874 3.426 27.3514 3.734C28.0327 4.47133 28.3734 5.40933 28.3734 6.548C28.3734 7.892 28.0187 8.96067 27.3094 9.754C26.5721 10.5847 25.5454 10.9953 24.2294 10.986C22.7454 10.9673 21.6627 10.6547 20.9814 10.048C20.3467 9.488 20.0294 8.802 20.0294 7.99C20.0294 7.08467 20.4167 6.43133 21.1914 6.03C21.6394 5.79667 22.1667 5.68 22.7734 5.68H23.7534C23.7347 5.32533 23.6134 5.05467 23.3894 4.868C23.1654 4.672 22.8854 4.574 22.5494 4.574C22.2041 4.574 21.9147 4.66733 21.6814 4.854C21.4481 5.04067 21.3314 5.316 21.3314 5.68H20.5054C20.4961 5.10133 20.7014 4.644 21.1214 4.308C21.4947 4.00933 21.9707 3.86 22.5494 3.86C23.9401 3.86 24.6447 4.69533 24.6634 6.366H22.9834C22.2834 6.366 21.7701 6.51067 21.4434 6.8C21.0514 7.14533 20.8694 7.56067 20.8974 8.046C20.9441 8.82067 21.3034 9.39933 21.9754 9.782C22.5261 10.09 23.2541 10.244 24.1594 10.244C25.1954 10.244 26.0074 9.93133 26.5954 9.306C27.1834 8.67133 27.5007 7.79867 27.5474 6.688C27.5941 5.66133 27.2861 4.826 26.6234 4.182C26.4647 4.02333 26.2221 3.88333 25.8954 3.762C25.5687 3.63133 25.2421 3.566 24.9154 3.566ZM25.0134 2.838C25.7601 2.838 26.3107 2.96867 26.6654 3.23C26.9454 3.09 27.0574 2.87533 27.0014 2.586C26.8987 2.01667 25.9327 1.732 24.1034 1.732C22.8994 1.732 22.0921 1.83933 21.6814 2.054C21.4107 2.194 21.2847 2.34333 21.3034 2.502C21.3221 2.726 21.5601 2.838 22.0174 2.838H25.0134ZM30.6712 6.072H29.8732C29.7892 5.596 29.8312 5.18533 29.9992 4.84C30.2885 4.24267 30.7785 3.944 31.4692 3.944C31.8705 3.944 32.2019 4.06533 32.4632 4.308C32.7339 4.55067 32.8832 4.86333 32.9112 5.246C33.5272 4.35933 34.4045 3.93 35.5432 3.958C36.7659 3.99533 37.7085 4.52733 38.3712 5.554C38.7819 6.18867 38.9732 6.884 38.9452 7.64C38.8985 8.99333 38.2965 9.98267 37.1392 10.608C36.5979 10.8973 35.8839 11.0513 34.9972 11.07V10.37C35.9212 10.3513 36.6679 10.0947 37.2372 9.6C37.8065 9.10533 38.0959 8.452 38.1052 7.64C38.1145 6.94 37.9092 6.30533 37.4892 5.736C37.0785 5.15733 36.5652 4.82133 35.9492 4.728C35.7905 4.7 35.6319 4.686 35.4732 4.686C34.4932 4.686 33.7559 5.12933 33.2612 6.016C33.3639 5.99733 33.4665 5.988 33.5692 5.988C34.0825 5.988 34.5445 6.17 34.9552 6.534C35.4965 7.01 35.7672 7.64933 35.7672 8.452C35.7672 8.76933 35.6879 9.10067 35.5292 9.446C35.3705 9.79133 35.1652 10.076 34.9132 10.3C34.2879 10.832 33.5132 11.0933 32.5892 11.084C31.5345 11.0653 30.6945 10.7433 30.0692 10.118C29.5372 9.586 29.2665 8.816 29.2572 7.808C29.2572 7.48133 29.2805 7.16867 29.3272 6.87H30.0132C30.0039 7.28067 30.2512 7.49067 30.7552 7.5C31.0539 7.50933 31.3339 7.40667 31.5952 7.192C31.8565 6.968 32.0572 6.66467 32.1972 6.282C32.3092 5.98333 32.2952 5.63333 32.1552 5.232C32.0339 4.868 31.8005 4.686 31.4552 4.686C31.1752 4.686 30.9605 4.77933 30.8112 4.966C30.6712 5.15267 30.6012 5.37667 30.6012 5.638C30.6012 5.79667 30.6245 5.94133 30.6712 6.072ZM30.0272 7.934C30.0459 8.466 30.1765 8.914 30.4192 9.278C30.6805 9.67 31.0025 9.95 31.3852 10.118C31.7025 10.2487 32.1225 10.3233 32.6452 10.342C33.2145 10.3607 33.7185 10.2067 34.1572 9.88C34.6332 9.516 34.8899 9.04933 34.9272 8.48C34.9645 8.01333 34.8292 7.598 34.5212 7.234C34.2132 6.86067 33.8445 6.674 33.4152 6.674C33.2192 6.674 33.0979 6.68333 33.0512 6.702C32.9392 6.73933 32.8132 6.856 32.6732 7.052C32.2905 7.56533 31.8752 7.91533 31.4272 8.102C31.2405 8.17667 31.0212 8.214 30.7692 8.214C30.3585 8.214 30.1112 8.12067 30.0272 7.934ZM37.4318 2.53C37.5998 2.65133 37.7818 2.698 37.9778 2.67C38.1645 2.642 38.3045 2.572 38.3978 2.46C38.4911 2.33867 38.5285 2.18467 38.5098 1.998C38.4911 1.79267 38.4398 1.65267 38.3558 1.578C38.2251 1.466 38.0898 1.41467 37.9498 1.424C37.8285 1.43333 37.7211 1.47067 37.6278 1.536C37.4971 1.62 37.4318 1.72267 37.4318 1.844V2.53ZM36.6758 1.914C36.6758 1.718 36.6011 1.58733 36.4518 1.522C36.2931 1.45667 36.1298 1.46133 35.9618 1.536C35.7845 1.61067 35.6585 1.71333 35.5838 1.844V1.06C35.8638 0.826666 36.1671 0.724 36.4938 0.751999C36.6431 0.761333 36.7831 0.808 36.9138 0.891999C36.9885 0.938666 37.0725 1.00867 37.1658 1.102C37.2591 0.99 37.3898 0.901333 37.5578 0.836C37.7258 0.770666 37.9171 0.742666 38.1318 0.751999C38.4585 0.770666 38.7338 0.882666 38.9578 1.088C39.1725 1.29333 39.2891 1.58267 39.3078 1.956C39.3171 2.264 39.2658 2.51133 39.1538 2.698C39.0325 2.88467 38.8785 3.02933 38.6918 3.132C38.4678 3.25333 38.2251 3.30467 37.9638 3.286C37.7118 3.26733 37.5345 3.22533 37.4318 3.16V4.742C37.3571 4.658 37.2358 4.55067 37.0678 4.42C36.9185 4.32667 36.7878 4.26133 36.6758 4.224V1.914ZM41.5705 9.796C41.0758 9.44133 40.8238 8.96067 40.8145 8.354C40.8052 7.74733 41.0805 7.234 41.6405 6.814C41.9018 6.618 42.1632 6.49667 42.4245 6.45C42.5645 6.422 42.8305 6.408 43.2225 6.408H46.4565C46.4472 6.34267 46.4332 6.226 46.4145 6.058C46.2932 5.386 46.0178 4.85867 45.5885 4.476C45.1685 4.084 44.5105 3.888 43.6145 3.888C43.2132 3.888 42.9518 3.902 42.8305 3.93C42.3732 4.03267 42.1212 4.09333 42.0745 4.112C41.7572 4.24267 41.4492 4.49 41.1505 4.854C40.8798 5.18067 40.7445 5.484 40.7445 5.764H41.5845C41.5938 5.71733 41.6125 5.652 41.6405 5.568C41.7898 5.204 42.0138 4.952 42.3125 4.812C42.6205 4.672 43.0592 4.59733 43.6285 4.588C44.1232 4.588 44.5058 4.672 44.7765 4.84C45.0565 4.99867 45.3038 5.29267 45.5185 5.722H43.2645C42.4338 5.722 41.8505 5.82 41.5145 6.016C41.2718 6.156 41.1318 6.24 41.0945 6.268C40.9638 6.37067 40.7818 6.55267 40.5485 6.814C40.1845 7.234 40.0025 7.74733 40.0025 8.354C40.0025 9.09133 40.2405 9.67467 40.7165 10.104C41.0618 10.4213 41.3978 10.6407 41.7245 10.762C41.9765 10.8553 42.3825 10.9393 42.9425 11.014C42.6158 11.1353 42.4478 11.4107 42.4385 11.84C42.4292 12.092 42.5272 12.3253 42.7325 12.54C42.9658 12.8013 43.3252 12.988 43.8105 13.1C44.0532 13.156 44.4405 13.184 44.9725 13.184C45.6632 13.184 46.2558 13.0207 46.7505 12.694C47.0772 12.4793 47.3245 12.204 47.4925 11.868C47.6418 11.5787 47.6932 11.2613 47.6465 10.916H46.8205C46.8578 11.0187 46.8578 11.1587 46.8205 11.336C46.7832 11.5413 46.7038 11.6953 46.5825 11.798C46.2932 12.0407 46.0785 12.1947 45.9385 12.26C45.6772 12.3813 45.2945 12.4513 44.7905 12.47C43.8198 12.5073 43.3345 12.2553 43.3345 11.714C43.3345 11.378 43.6145 11.1493 44.1745 11.028C44.2772 11.028 44.4405 11.014 44.6645 10.986C45.6165 10.846 46.3118 10.5333 46.7505 10.048C46.8905 9.88933 46.9745 9.712 47.0025 9.516H46.1485C46.1112 9.77733 45.7752 9.992 45.1405 10.16C44.7765 10.2533 44.2772 10.3047 43.6425 10.314C42.7652 10.3233 42.0745 10.1507 41.5705 9.796ZM49.2638 6.072H48.4658C48.3818 5.596 48.4238 5.18533 48.5918 4.84C48.8811 4.24267 49.3711 3.944 50.0618 3.944C50.4631 3.944 50.7944 4.06533 51.0558 4.308C51.3264 4.55067 51.4758 4.86333 51.5038 5.246C52.1198 4.35933 52.9971 3.93 54.1358 3.958C55.3584 3.99533 56.3011 4.52733 56.9638 5.554C57.3744 6.18867 57.5658 6.884 57.5378 7.64C57.4911 8.99333 56.8891 9.98267 55.7318 10.608C55.1904 10.8973 54.4764 11.0513 53.5898 11.07V10.37C54.5138 10.3513 55.2604 10.0947 55.8298 9.6C56.3991 9.10533 56.6884 8.452 56.6978 7.64C56.7071 6.94 56.5018 6.30533 56.0818 5.736C55.6711 5.15733 55.1578 4.82133 54.5418 4.728C54.3831 4.7 54.2244 4.686 54.0658 4.686C53.0858 4.686 52.3484 5.12933 51.8538 6.016C51.9564 5.99733 52.0591 5.988 52.1618 5.988C52.6751 5.988 53.1371 6.17 53.5478 6.534C54.0891 7.01 54.3598 7.64933 54.3598 8.452C54.3598 8.76933 54.2804 9.10067 54.1218 9.446C53.9631 9.79133 53.7578 10.076 53.5058 10.3C52.8804 10.832 52.1058 11.0933 51.1818 11.084C50.1271 11.0653 49.2871 10.7433 48.6618 10.118C48.1298 9.586 47.8591 8.816 47.8498 7.808C47.8498 7.48133 47.8731 7.16867 47.9198 6.87H48.6058C48.5964 7.28067 48.8438 7.49067 49.3478 7.5C49.6464 7.50933 49.9264 7.40667 50.1878 7.192C50.4491 6.968 50.6498 6.66467 50.7898 6.282C50.9018 5.98333 50.8878 5.63333 50.7478 5.232C50.6264 4.868 50.3931 4.686 50.0478 4.686C49.7678 4.686 49.5531 4.77933 49.4038 4.966C49.2638 5.15267 49.1938 5.37667 49.1938 5.638C49.1938 5.79667 49.2171 5.94133 49.2638 6.072ZM48.6198 7.934C48.6384 8.466 48.7691 8.914 49.0118 9.278C49.2731 9.67 49.5951 9.95 49.9778 10.118C50.2951 10.2487 50.7151 10.3233 51.2378 10.342C51.8071 10.3607 52.3111 10.2067 52.7498 9.88C53.2258 9.516 53.4824 9.04933 53.5198 8.48C53.5571 8.01333 53.4218 7.598 53.1138 7.234C52.8058 6.86067 52.4371 6.674 52.0078 6.674C51.8118 6.674 51.6904 6.68333 51.6438 6.702C51.5318 6.73933 51.4058 6.856 51.2658 7.052C50.8831 7.56533 50.4678 7.91533 50.0198 8.102C49.8331 8.17667 49.6138 8.214 49.3618 8.214C48.9511 8.214 48.7038 8.12067 48.6198 7.934Z" fill="#203A6F"/>
</svg>
