<svg width="90" height="14" viewBox="0 0 90 14" fill="none" xmlns="http://www.w3.org/2000/svg">
<path d="M10.9658 8.83398C10.8369 10.1992 10.333 11.2656 9.4541 12.0332C8.5752 12.7949 7.40625 13.1758 5.94727 13.1758C4.92773 13.1758 4.02832 12.9355 3.24902 12.4551C2.47559 11.9688 1.87793 11.2803 1.45605 10.3896C1.03418 9.49902 0.814453 8.46484 0.796875 7.28711V6.0918C0.796875 4.88477 1.01074 3.82129 1.43848 2.90137C1.86621 1.98145 2.47852 1.27246 3.27539 0.774414C4.07812 0.276367 5.00391 0.0273438 6.05273 0.0273438C7.46484 0.0273438 8.60156 0.411133 9.46289 1.17871C10.3242 1.94629 10.8252 3.03027 10.9658 4.43066H8.75098C8.64551 3.51074 8.37598 2.84863 7.94238 2.44434C7.51465 2.03418 6.88477 1.8291 6.05273 1.8291C5.08594 1.8291 4.3418 2.18359 3.82031 2.89258C3.30469 3.5957 3.04102 4.62988 3.0293 5.99512V7.12891C3.0293 8.51172 3.27539 9.56641 3.76758 10.293C4.26562 11.0195 4.99219 11.3828 5.94727 11.3828C6.82031 11.3828 7.47656 11.1865 7.91602 10.7939C8.35547 10.4014 8.63379 9.74805 8.75098 8.83398H10.9658ZM12.5045 8.15723C12.5045 7.22559 12.6891 6.3877 13.0582 5.64355C13.4273 4.89355 13.9459 4.31934 14.6139 3.9209C15.2818 3.5166 16.0494 3.31445 16.9166 3.31445C18.1998 3.31445 19.2398 3.72754 20.0367 4.55371C20.8395 5.37988 21.273 6.47559 21.3375 7.84082L21.3463 8.3418C21.3463 9.2793 21.1646 10.1172 20.8014 10.8555C20.4439 11.5938 19.9283 12.165 19.2545 12.5693C18.5865 12.9736 17.8131 13.1758 16.9342 13.1758C15.5924 13.1758 14.5172 12.7305 13.7086 11.8398C12.9059 10.9434 12.5045 9.75098 12.5045 8.2627V8.15723ZM14.6402 8.3418C14.6402 9.32031 14.8424 10.0879 15.2467 10.6445C15.651 11.1953 16.2135 11.4707 16.9342 11.4707C17.6549 11.4707 18.2145 11.1895 18.6129 10.627C19.0172 10.0645 19.2193 9.24121 19.2193 8.15723C19.2193 7.19629 19.0113 6.43457 18.5953 5.87207C18.1852 5.30957 17.6256 5.02832 16.9166 5.02832C16.2193 5.02832 15.6656 5.30664 15.2555 5.86328C14.8453 6.41406 14.6402 7.24023 14.6402 8.3418ZM25.2844 3.49023L25.3459 4.58887C26.049 3.73926 26.9719 3.31445 28.1145 3.31445C30.0949 3.31445 31.1027 4.44824 31.1379 6.71582V13H29.0021V6.83887C29.0021 6.23535 28.8703 5.79004 28.6066 5.50293C28.3488 5.20996 27.924 5.06348 27.3322 5.06348C26.4709 5.06348 25.8293 5.45312 25.4074 6.23242V13H23.2717V3.49023H25.2844ZM36.1482 1.17871V3.49023H37.827V5.07227H36.1482V10.3809C36.1482 10.7441 36.2186 11.0078 36.3592 11.1719C36.5057 11.3301 36.7635 11.4092 37.1326 11.4092C37.3787 11.4092 37.6277 11.3799 37.8797 11.3213V12.9736C37.3934 13.1084 36.9246 13.1758 36.4734 13.1758C34.8328 13.1758 34.0125 12.2705 34.0125 10.46V5.07227H32.448V3.49023H34.0125V1.17871H36.1482ZM45.2982 13C45.2045 12.8184 45.1225 12.5225 45.0521 12.1123C44.3725 12.8213 43.5404 13.1758 42.5561 13.1758C41.601 13.1758 40.8217 12.9033 40.2182 12.3584C39.6146 11.8135 39.3129 11.1396 39.3129 10.3369C39.3129 9.32324 39.6879 8.54688 40.4379 8.00781C41.1937 7.46289 42.2719 7.19043 43.6723 7.19043H44.9818V6.56641C44.9818 6.07422 44.8441 5.68164 44.5687 5.38867C44.2934 5.08984 43.8744 4.94043 43.3119 4.94043C42.8256 4.94043 42.4271 5.06348 42.1166 5.30957C41.8061 5.5498 41.6508 5.85742 41.6508 6.23242H39.515C39.515 5.71094 39.6879 5.22461 40.0336 4.77344C40.3793 4.31641 40.848 3.95898 41.4398 3.70117C42.0375 3.44336 42.7025 3.31445 43.435 3.31445C44.5482 3.31445 45.4359 3.5957 46.098 4.1582C46.7602 4.71484 47.1 5.5 47.1176 6.51367V10.8027C47.1176 11.6582 47.2377 12.3408 47.4779 12.8506V13H45.2982ZM42.9516 11.4619C43.3734 11.4619 43.7689 11.3594 44.1381 11.1543C44.5131 10.9492 44.7943 10.6738 44.9818 10.3281V8.53516H43.8305C43.0395 8.53516 42.4447 8.67285 42.0463 8.94824C41.6479 9.22363 41.4486 9.61328 41.4486 10.1172C41.4486 10.5273 41.5834 10.8555 41.8529 11.1016C42.1283 11.3418 42.4945 11.4619 42.9516 11.4619ZM53.4111 11.4707C53.9443 11.4707 54.3867 11.3154 54.7383 11.0049C55.0898 10.6943 55.2773 10.3105 55.3008 9.85352H57.3135C57.29 10.4453 57.1055 10.999 56.7598 11.5146C56.4141 12.0244 55.9453 12.4287 55.3535 12.7275C54.7617 13.0264 54.123 13.1758 53.4375 13.1758C52.1074 13.1758 51.0527 12.7451 50.2734 11.8838C49.4941 11.0225 49.1045 9.83301 49.1045 8.31543V8.0957C49.1045 6.64844 49.4912 5.49121 50.2646 4.62402C51.0381 3.75098 52.0928 3.31445 53.4287 3.31445C54.5596 3.31445 55.4795 3.64551 56.1885 4.30762C56.9033 4.96387 57.2783 5.82812 57.3135 6.90039H55.3008C55.2773 6.35547 55.0898 5.90723 54.7383 5.55566C54.3926 5.2041 53.9502 5.02832 53.4111 5.02832C52.7197 5.02832 52.1865 5.28027 51.8115 5.78418C51.4365 6.28223 51.2461 7.04102 51.2402 8.06055V8.40332C51.2402 9.43457 51.4248 10.2051 51.7939 10.7148C52.1689 11.2188 52.708 11.4707 53.4111 11.4707ZM61.7525 1.17871V3.49023H63.4313V5.07227H61.7525V10.3809C61.7525 10.7441 61.8229 11.0078 61.9635 11.1719C62.11 11.3301 62.3678 11.4092 62.7369 11.4092C62.983 11.4092 63.232 11.3799 63.484 11.3213V12.9736C62.9977 13.1084 62.5289 13.1758 62.0777 13.1758C60.4371 13.1758 59.6168 12.2705 59.6168 10.46V5.07227H58.0523V3.49023H59.6168V1.17871H61.7525ZM79.4197 0.203125V8.75488C79.4197 10.1143 78.9832 11.1924 78.1102 11.9893C77.243 12.7803 76.0857 13.1758 74.6385 13.1758C73.1736 13.1758 72.0105 12.7861 71.1492 12.0068C70.2879 11.2217 69.8572 10.1348 69.8572 8.74609V0.203125H72.0721V8.76367C72.0721 9.61914 72.2889 10.2725 72.7225 10.7236C73.1561 11.1748 73.7947 11.4004 74.6385 11.4004C76.3494 11.4004 77.2049 10.498 77.2049 8.69336V0.203125H79.4197ZM87.0756 10.416C87.0756 10.0352 86.9174 9.74512 86.601 9.5459C86.2904 9.34668 85.7719 9.1709 85.0453 9.01855C84.3187 8.86621 83.7123 8.67285 83.226 8.43848C82.1596 7.92285 81.6264 7.17578 81.6264 6.19727C81.6264 5.37695 81.9721 4.69141 82.6635 4.14062C83.3549 3.58984 84.2338 3.31445 85.3002 3.31445C86.4369 3.31445 87.3539 3.5957 88.0512 4.1582C88.7543 4.7207 89.1059 5.4502 89.1059 6.34668H86.9701C86.9701 5.93652 86.8178 5.59668 86.5131 5.32715C86.2084 5.05176 85.8041 4.91406 85.3002 4.91406C84.8314 4.91406 84.4477 5.02246 84.1488 5.23926C83.8559 5.45605 83.7094 5.74609 83.7094 6.10938C83.7094 6.4375 83.8471 6.69238 84.1225 6.87402C84.3979 7.05566 84.9545 7.24023 85.7924 7.42773C86.6303 7.60938 87.2865 7.8291 87.7611 8.08691C88.2416 8.33887 88.5961 8.64355 88.8246 9.00098C89.059 9.3584 89.1762 9.79199 89.1762 10.3018C89.1762 11.1572 88.8217 11.8516 88.1127 12.3848C87.4037 12.9121 86.475 13.1758 85.3266 13.1758C84.5473 13.1758 83.8529 13.0352 83.2436 12.7539C82.6342 12.4727 82.1596 12.0859 81.8197 11.5938C81.4799 11.1016 81.31 10.5713 81.31 10.0029H83.3842C83.4135 10.5068 83.6039 10.8965 83.9555 11.1719C84.307 11.4414 84.7729 11.5762 85.3529 11.5762C85.9154 11.5762 86.3432 11.4707 86.6361 11.2598C86.9291 11.043 87.0756 10.7617 87.0756 10.416Z" fill="#203A6F"/>
</svg>
