<svg width="68" height="30" viewBox="0 0 68 30" fill="none" xmlns="http://www.w3.org/2000/svg">
<path d="M0.854492 11V1.04688H3.79395C4.6735 1.04688 5.4528 1.24284 6.13184 1.63477C6.81543 2.02669 7.34408 2.58268 7.71777 3.30273C8.09147 4.02279 8.27832 4.84766 8.27832 5.77734V6.27637C8.27832 7.21973 8.08919 8.04915 7.71094 8.76465C7.33724 9.48014 6.80176 10.0316 6.10449 10.4189C5.41178 10.8063 4.61654 11 3.71875 11H0.854492ZM2.58398 2.44141V9.61914H3.71191C4.61882 9.61914 5.3138 9.33659 5.79688 8.77148C6.28451 8.20182 6.53288 7.38607 6.54199 6.32422V5.77051C6.54199 4.69043 6.30729 3.86556 5.83789 3.2959C5.36849 2.72624 4.68717 2.44141 3.79395 2.44141H2.58398ZM11.7574 11H10.0963V3.60352H11.7574V11ZM9.99375 1.68262C9.99375 1.42741 10.0735 1.21549 10.233 1.04688C10.3971 0.878255 10.6295 0.793945 10.9303 0.793945C11.2311 0.793945 11.4635 0.878255 11.6275 1.04688C11.7916 1.21549 11.8736 1.42741 11.8736 1.68262C11.8736 1.93327 11.7916 2.1429 11.6275 2.31152C11.4635 2.47559 11.2311 2.55762 10.9303 2.55762C10.6295 2.55762 10.3971 2.47559 10.233 2.31152C10.0735 2.1429 9.99375 1.93327 9.99375 1.68262ZM18.1418 11C18.0689 10.8587 18.0051 10.6286 17.9504 10.3096C17.4217 10.861 16.7746 11.1367 16.009 11.1367C15.2661 11.1367 14.66 10.9248 14.1906 10.501C13.7212 10.0771 13.4865 9.55306 13.4865 8.92871C13.4865 8.1403 13.7782 7.53646 14.3615 7.11719C14.9494 6.69336 15.788 6.48145 16.8771 6.48145H17.8957V5.99609C17.8957 5.61328 17.7886 5.30794 17.5744 5.08008C17.3602 4.84766 17.0344 4.73145 16.5969 4.73145C16.2186 4.73145 15.9087 4.82715 15.6672 5.01855C15.4257 5.2054 15.3049 5.44466 15.3049 5.73633H13.6437C13.6437 5.33073 13.7782 4.95247 14.0471 4.60156C14.3159 4.24609 14.6805 3.9681 15.1408 3.76758C15.6057 3.56706 16.1229 3.4668 16.6926 3.4668C17.5585 3.4668 18.2489 3.68555 18.7639 4.12305C19.2788 4.55599 19.5432 5.16667 19.5568 5.95508V9.29102C19.5568 9.95638 19.6503 10.4873 19.8371 10.8838V11H18.1418ZM16.3166 9.80371C16.6447 9.80371 16.9523 9.72396 17.2395 9.56445C17.5311 9.40495 17.7499 9.19076 17.8957 8.92188V7.52734H17.0002C16.385 7.52734 15.9224 7.63444 15.6125 7.84863C15.3026 8.06283 15.1477 8.36589 15.1477 8.75781C15.1477 9.07682 15.2525 9.33203 15.4621 9.52344C15.6763 9.71029 15.9611 9.80371 16.3166 9.80371ZM21.1561 7.24707C21.1561 6.09863 21.4249 5.18262 21.9627 4.49902C22.505 3.81087 23.2228 3.4668 24.116 3.4668C24.9591 3.4668 25.6222 3.76074 26.1053 4.34863L26.1805 3.60352H27.6775V10.7744C27.6775 11.7451 27.3745 12.5107 26.7684 13.0713C26.1668 13.6318 25.3533 13.9121 24.3279 13.9121C23.7856 13.9121 23.2547 13.7982 22.7352 13.5703C22.2202 13.347 21.8283 13.0531 21.5594 12.6885L22.3455 11.6904C22.8559 12.2965 23.4848 12.5996 24.2322 12.5996C24.7837 12.5996 25.2189 12.4492 25.5379 12.1484C25.8569 11.8522 26.0164 11.4147 26.0164 10.8359V10.3369C25.5379 10.8701 24.8999 11.1367 24.1023 11.1367C23.2365 11.1367 22.5278 10.7926 21.9764 10.1045C21.4295 9.41634 21.1561 8.46387 21.1561 7.24707ZM22.8104 7.39062C22.8104 8.13346 22.9607 8.71908 23.2615 9.14746C23.5669 9.57129 23.9884 9.7832 24.5262 9.7832C25.1961 9.7832 25.6928 9.49609 26.0164 8.92188V5.66797C25.702 5.10742 25.2098 4.82715 24.5398 4.82715C23.993 4.82715 23.5669 5.04362 23.2615 5.47656C22.9607 5.90951 22.8104 6.54753 22.8104 7.39062ZM31.0814 3.60352L31.1293 4.45801C31.6762 3.7972 32.3939 3.4668 33.2826 3.4668C34.823 3.4668 35.6068 4.34863 35.6342 6.1123V11H33.973V6.20801C33.973 5.73861 33.8705 5.39225 33.6654 5.16895C33.4649 4.94108 33.1345 4.82715 32.6742 4.82715C32.0043 4.82715 31.5053 5.13021 31.1771 5.73633V11H29.516V3.60352H31.0814ZM37.1719 7.2334C37.1719 6.50879 37.3154 5.8571 37.6025 5.27832C37.8896 4.69499 38.293 4.24837 38.8125 3.93848C39.332 3.62402 39.929 3.4668 40.6035 3.4668C41.6016 3.4668 42.4105 3.78809 43.0303 4.43066C43.6546 5.07324 43.9919 5.92546 44.042 6.9873L44.0488 7.37695C44.0488 8.10612 43.9076 8.75781 43.625 9.33203C43.347 9.90625 42.946 10.3506 42.4219 10.665C41.9023 10.9795 41.3008 11.1367 40.6172 11.1367C39.5736 11.1367 38.7373 10.7904 38.1084 10.0977C37.484 9.40039 37.1719 8.47298 37.1719 7.31543V7.2334ZM38.833 7.37695C38.833 8.13802 38.9902 8.73503 39.3047 9.16797C39.6191 9.59635 40.0566 9.81055 40.6172 9.81055C41.1777 9.81055 41.613 9.5918 41.9229 9.1543C42.2373 8.7168 42.3945 8.0765 42.3945 7.2334C42.3945 6.486 42.2327 5.89355 41.9092 5.45605C41.5902 5.01855 41.1549 4.7998 40.6035 4.7998C40.0612 4.7998 39.6305 5.01628 39.3115 5.44922C38.9925 5.8776 38.833 6.52018 38.833 7.37695ZM49.7496 8.99023C49.7496 8.69401 49.6266 8.46842 49.3805 8.31348C49.1389 8.15853 48.7356 8.02181 48.1705 7.90332C47.6054 7.78483 47.1337 7.63444 46.7555 7.45215C45.926 7.05111 45.5113 6.47005 45.5113 5.70898C45.5113 5.07096 45.7802 4.53776 46.318 4.10938C46.8557 3.68099 47.5393 3.4668 48.3688 3.4668C49.2529 3.4668 49.9661 3.68555 50.5084 4.12305C51.0553 4.56055 51.3287 5.12793 51.3287 5.8252H49.6676C49.6676 5.50618 49.5491 5.24186 49.3121 5.03223C49.0751 4.81803 48.7607 4.71094 48.3688 4.71094C48.0042 4.71094 47.7057 4.79525 47.4732 4.96387C47.2454 5.13249 47.1314 5.35807 47.1314 5.64062C47.1314 5.89583 47.2385 6.09408 47.4527 6.23535C47.6669 6.37663 48.0999 6.52018 48.7516 6.66602C49.4033 6.80729 49.9137 6.97819 50.2828 7.17871C50.6565 7.37467 50.9322 7.61165 51.11 7.88965C51.2923 8.16764 51.3834 8.50488 51.3834 8.90137C51.3834 9.56673 51.1077 10.1068 50.5563 10.5215C50.0048 10.9316 49.2825 11.1367 48.3893 11.1367C47.7831 11.1367 47.2431 11.0273 46.7691 10.8086C46.2952 10.5898 45.926 10.2891 45.6617 9.90625C45.3974 9.52344 45.2652 9.111 45.2652 8.66895H46.8785C46.9013 9.06087 47.0494 9.36393 47.3229 9.57812C47.5963 9.78776 47.9586 9.89258 48.4098 9.89258C48.8473 9.89258 49.1799 9.81055 49.4078 9.64648C49.6357 9.47786 49.7496 9.25911 49.7496 8.99023ZM55.0676 1.80566V3.60352H56.3732V4.83398H55.0676V8.96289C55.0676 9.24544 55.1223 9.45052 55.2316 9.57812C55.3456 9.70117 55.5461 9.7627 55.8332 9.7627C56.0246 9.7627 56.2183 9.73991 56.4143 9.69434V10.9795C56.036 11.0843 55.6714 11.1367 55.3205 11.1367C54.0445 11.1367 53.4064 10.4326 53.4064 9.02441V4.83398H52.1897V3.60352H53.4064V1.80566H55.0676ZM59.5652 11H57.9041V3.60352H59.5652V11ZM57.8016 1.68262C57.8016 1.42741 57.8813 1.21549 58.0408 1.04688C58.2049 0.878255 58.4373 0.793945 58.7381 0.793945C59.0389 0.793945 59.2713 0.878255 59.4353 1.04688C59.5994 1.21549 59.6814 1.42741 59.6814 1.68262C59.6814 1.93327 59.5994 2.1429 59.4353 2.31152C59.2713 2.47559 59.0389 2.55762 58.7381 2.55762C58.4373 2.55762 58.2049 2.47559 58.0408 2.31152C57.8813 2.1429 57.8016 1.93327 57.8016 1.68262ZM64.5687 9.81055C64.9835 9.81055 65.3275 9.68978 65.601 9.44824C65.8744 9.20671 66.0202 8.9082 66.0385 8.55273H67.6039C67.5857 9.01302 67.4421 9.44368 67.1732 9.84473C66.9044 10.2412 66.5398 10.5557 66.0795 10.7881C65.6192 11.0205 65.1225 11.1367 64.5893 11.1367C63.5548 11.1367 62.7344 10.8018 62.1283 10.1318C61.5222 9.46191 61.2191 8.53678 61.2191 7.35645V7.18555C61.2191 6.0599 61.5199 5.15983 62.1215 4.48535C62.723 3.80632 63.5434 3.4668 64.5824 3.4668C65.462 3.4668 66.1775 3.72428 66.7289 4.23926C67.2849 4.74967 67.5766 5.42188 67.6039 6.25586H66.0385C66.0202 5.83203 65.8744 5.4834 65.601 5.20996C65.3321 4.93652 64.988 4.7998 64.5687 4.7998C64.031 4.7998 63.6163 4.99577 63.3246 5.3877C63.0329 5.77507 62.8848 6.36523 62.8803 7.1582V7.4248C62.8803 8.22689 63.0238 8.82617 63.3109 9.22266C63.6026 9.61458 64.0219 9.81055 64.5687 9.81055ZM6.95195 23.165H5.02422V27H3.29473V17.0469H6.79473C7.94316 17.0469 8.82956 17.3044 9.45391 17.8193C10.0783 18.3343 10.3904 19.0794 10.3904 20.0547C10.3904 20.7201 10.2286 21.2783 9.90508 21.7295C9.58607 22.1761 9.13945 22.5202 8.56524 22.7617L10.8006 26.9111V27H8.94805L6.95195 23.165ZM5.02422 21.7773H6.80156C7.3849 21.7773 7.84063 21.6315 8.16875 21.3398C8.49688 21.0436 8.66094 20.6403 8.66094 20.1299C8.66094 19.5967 8.50827 19.1842 8.20293 18.8926C7.90215 18.6009 7.45098 18.4505 6.84941 18.4414H5.02422V21.7773ZM16.4398 27C16.3669 26.8587 16.3031 26.6286 16.2484 26.3096C15.7198 26.861 15.0727 27.1367 14.307 27.1367C13.5642 27.1367 12.9581 26.9248 12.4887 26.501C12.0193 26.0771 11.7846 25.5531 11.7846 24.9287C11.7846 24.1403 12.0762 23.5365 12.6596 23.1172C13.2475 22.6934 14.086 22.4814 15.1752 22.4814H16.1938V21.9961C16.1938 21.6133 16.0867 21.3079 15.8725 21.0801C15.6583 20.8477 15.3324 20.7314 14.8949 20.7314C14.5167 20.7314 14.2068 20.8271 13.9652 21.0186C13.7237 21.2054 13.6029 21.4447 13.6029 21.7363H11.9418C11.9418 21.3307 12.0762 20.9525 12.3451 20.6016C12.614 20.2461 12.9786 19.9681 13.4389 19.7676C13.9037 19.5671 14.421 19.4668 14.9906 19.4668C15.8565 19.4668 16.5469 19.6855 17.0619 20.123C17.5769 20.556 17.8412 21.1667 17.8549 21.9551V25.291C17.8549 25.9564 17.9483 26.4873 18.1352 26.8838V27H16.4398ZM14.6146 25.8037C14.9428 25.8037 15.2504 25.724 15.5375 25.5645C15.8292 25.4049 16.0479 25.1908 16.1938 24.9219V23.5273H15.2982C14.683 23.5273 14.2204 23.6344 13.9105 23.8486C13.6007 24.0628 13.4457 24.3659 13.4457 24.7578C13.4457 25.0768 13.5505 25.332 13.7602 25.5234C13.9743 25.7103 14.2592 25.8037 14.6146 25.8037ZM19.4336 23.2471C19.4336 22.1077 19.6979 21.194 20.2266 20.5059C20.7552 19.8132 21.4639 19.4668 22.3525 19.4668C23.1364 19.4668 23.7699 19.7402 24.2529 20.2871V16.5H25.9141V27H24.4102L24.3281 26.2344C23.8314 26.8359 23.1683 27.1367 22.3389 27.1367C21.473 27.1367 20.7712 26.7881 20.2334 26.0908C19.7002 25.3936 19.4336 24.4456 19.4336 23.2471ZM21.0947 23.3906C21.0947 24.1426 21.2383 24.7305 21.5254 25.1543C21.8171 25.5736 22.2295 25.7832 22.7627 25.7832C23.4417 25.7832 23.9385 25.4801 24.2529 24.874V21.7158C23.9476 21.1234 23.4554 20.8271 22.7764 20.8271C22.2386 20.8271 21.8239 21.0413 21.5322 21.4697C21.2406 21.8936 21.0947 22.5339 21.0947 23.3906ZM29.5641 27H27.9029V19.6035H29.5641V27ZM27.8004 17.6826C27.8004 17.4274 27.8801 17.2155 28.0396 17.0469C28.2037 16.8783 28.4361 16.7939 28.7369 16.7939C29.0377 16.7939 29.2701 16.8783 29.4342 17.0469C29.5982 17.2155 29.6803 17.4274 29.6803 17.6826C29.6803 17.9333 29.5982 18.1429 29.4342 18.3115C29.2701 18.4756 29.0377 18.5576 28.7369 18.5576C28.4361 18.5576 28.2037 18.4756 28.0396 18.3115C27.8801 18.1429 27.8004 17.9333 27.8004 17.6826ZM31.218 23.2334C31.218 22.5088 31.3615 21.8571 31.6486 21.2783C31.9357 20.695 32.3391 20.2484 32.8586 19.9385C33.3781 19.624 33.9751 19.4668 34.6496 19.4668C35.6477 19.4668 36.4566 19.7881 37.0764 20.4307C37.7007 21.0732 38.038 21.9255 38.0881 22.9873L38.0949 23.377C38.0949 24.1061 37.9536 24.7578 37.6711 25.332C37.3931 25.9062 36.9921 26.3506 36.468 26.665C35.9484 26.9795 35.3469 27.1367 34.6633 27.1367C33.6197 27.1367 32.7834 26.7904 32.1545 26.0977C31.5301 25.4004 31.218 24.473 31.218 23.3154V23.2334ZM32.8791 23.377C32.8791 24.138 33.0363 24.735 33.3508 25.168C33.6652 25.5964 34.1027 25.8105 34.6633 25.8105C35.2238 25.8105 35.6591 25.5918 35.9689 25.1543C36.2834 24.7168 36.4406 24.0765 36.4406 23.2334C36.4406 22.486 36.2788 21.8936 35.9553 21.4561C35.6363 21.0186 35.201 20.7998 34.6496 20.7998C34.1073 20.7998 33.6766 21.0163 33.3576 21.4492C33.0386 21.8776 32.8791 22.5202 32.8791 23.377ZM41.4168 27H39.7557V16.5H41.4168V27ZM43.0707 23.2334C43.0707 22.5088 43.2143 21.8571 43.5014 21.2783C43.7885 20.695 44.1918 20.2484 44.7113 19.9385C45.2309 19.624 45.8279 19.4668 46.5023 19.4668C47.5004 19.4668 48.3093 19.7881 48.9291 20.4307C49.5535 21.0732 49.8907 21.9255 49.9408 22.9873L49.9477 23.377C49.9477 24.1061 49.8064 24.7578 49.5238 25.332C49.2458 25.9062 48.8448 26.3506 48.3207 26.665C47.8012 26.9795 47.1996 27.1367 46.516 27.1367C45.4724 27.1367 44.6361 26.7904 44.0072 26.0977C43.3829 25.4004 43.0707 24.473 43.0707 23.3154V23.2334ZM44.7318 23.377C44.7318 24.138 44.8891 24.735 45.2035 25.168C45.518 25.5964 45.9555 25.8105 46.516 25.8105C47.0766 25.8105 47.5118 25.5918 47.8217 25.1543C48.1361 24.7168 48.2934 24.0765 48.2934 23.2334C48.2934 22.486 48.1316 21.8936 47.808 21.4561C47.489 21.0186 47.0538 20.7998 46.5023 20.7998C45.96 20.7998 45.5294 21.0163 45.2104 21.4492C44.8913 21.8776 44.7318 22.5202 44.7318 23.377ZM51.2119 23.2471C51.2119 22.0986 51.4808 21.1826 52.0186 20.499C52.5609 19.8109 53.2786 19.4668 54.1719 19.4668C55.015 19.4668 55.6781 19.7607 56.1611 20.3486L56.2363 19.6035H57.7334V26.7744C57.7334 27.7451 57.4303 28.5107 56.8242 29.0713C56.2227 29.6318 55.4092 29.9121 54.3838 29.9121C53.8415 29.9121 53.3105 29.7982 52.791 29.5703C52.276 29.347 51.8841 29.0531 51.6152 28.6885L52.4014 27.6904C52.9118 28.2965 53.5407 28.5996 54.2881 28.5996C54.8395 28.5996 55.2747 28.4492 55.5938 28.1484C55.9128 27.8522 56.0723 27.4147 56.0723 26.8359V26.3369C55.5938 26.8701 54.9557 27.1367 54.1582 27.1367C53.2923 27.1367 52.5837 26.7926 52.0322 26.1045C51.4854 25.4163 51.2119 24.4639 51.2119 23.2471ZM52.8662 23.3906C52.8662 24.1335 53.0166 24.7191 53.3174 25.1475C53.6227 25.5713 54.0443 25.7832 54.582 25.7832C55.252 25.7832 55.7487 25.4961 56.0723 24.9219V21.668C55.7578 21.1074 55.2656 20.8271 54.5957 20.8271C54.0488 20.8271 53.6227 21.0436 53.3174 21.4766C53.0166 21.9095 52.8662 22.5475 52.8662 23.3906ZM62.1832 24.6211L63.6871 19.6035H65.4576L62.5182 28.1211C62.067 29.3652 61.3014 29.9873 60.2213 29.9873C59.9798 29.9873 59.7132 29.9463 59.4215 29.8643V28.5791L59.7359 28.5996C60.1552 28.5996 60.4697 28.5221 60.6793 28.3672C60.8935 28.2168 61.0621 27.9616 61.1852 27.6016L61.4244 26.9658L58.8268 19.6035H60.6178L62.1832 24.6211Z" fill="#1F3A6F"/>
</svg>
