<svg width="76" height="13" viewBox="0 0 76 13" fill="none" xmlns="http://www.w3.org/2000/svg">
<path d="M4.89039 2.566H1.62839C0.947058 2.566 0.550391 2.314 0.438391 1.81C0.419725 1.726 0.410391 1.63733 0.410391 1.544C0.410391 1.124 0.615725 0.787999 1.02639 0.535999C1.60506 0.181333 2.59906 0.00399935 4.00839 0.00399935C4.95106 0.00399935 5.67906 0.0646661 6.19239 0.186C7.09772 0.391333 7.62972 0.788 7.78839 1.376C7.81639 1.488 7.83039 1.6 7.83039 1.712C7.83039 2.08533 7.66239 2.426 7.32639 2.734C8.00773 3.47133 8.34839 4.40933 8.34839 5.548C8.34839 6.892 7.99373 7.96067 7.28439 8.754C6.54706 9.58467 5.52039 9.99533 4.20439 9.986C2.72039 9.96733 1.63772 9.65467 0.956391 9.048C0.321725 8.488 0.0043914 7.802 0.0043914 6.99C0.0043914 6.08467 0.391725 5.43133 1.16639 5.03C1.61439 4.79667 2.14172 4.68 2.74839 4.68H3.72839C3.70972 4.32533 3.58839 4.05467 3.36439 3.868C3.14039 3.672 2.86039 3.574 2.52439 3.574C2.17906 3.574 1.88972 3.66733 1.65639 3.854C1.42306 4.04067 1.30639 4.316 1.30639 4.68H0.480391C0.471058 4.10133 0.676391 3.644 1.09639 3.308C1.46972 3.00933 1.94572 2.86 2.52439 2.86C3.91506 2.86 4.61972 3.69533 4.63839 5.366H2.95839C2.25839 5.366 1.74506 5.51067 1.41839 5.8C1.02639 6.14533 0.844391 6.56067 0.872391 7.046C0.919058 7.82067 1.27839 8.39933 1.95039 8.782C2.50106 9.09 3.22906 9.244 4.13439 9.244C5.17039 9.244 5.98239 8.93133 6.57039 8.306C7.15839 7.67133 7.47573 6.79867 7.52239 5.688C7.56906 4.66133 7.26106 3.826 6.59839 3.182C6.43973 3.02333 6.19706 2.88333 5.87039 2.762C5.54372 2.63133 5.21706 2.566 4.89039 2.566ZM4.98839 1.838C5.73506 1.838 6.28573 1.96867 6.64039 2.23C6.92039 2.09 7.03239 1.87533 6.97639 1.586C6.87372 1.01667 5.90773 0.731999 4.07839 0.731999C2.87439 0.731999 2.06706 0.839333 1.65639 1.054C1.38572 1.194 1.25972 1.34333 1.27839 1.502C1.29706 1.726 1.53506 1.838 1.99239 1.838H4.98839ZM11.8502 5.156C11.7009 5.28667 11.4629 5.51533 11.1362 5.842C10.8935 6.094 10.5622 6.444 10.1422 6.892C10.3849 6.92 10.5482 7.06 10.6322 7.312C10.6602 7.40533 10.6742 7.49867 10.6742 7.592C10.6742 7.69467 10.6555 7.802 10.6182 7.914C10.5622 8.082 10.5342 8.17067 10.5342 8.18C10.5155 8.25467 10.5062 8.334 10.5062 8.418C10.5062 8.96867 10.8002 9.244 11.3882 9.244C11.7242 9.244 11.9902 9.13667 12.1862 8.922C12.3822 8.70733 12.4802 8.42267 12.4802 8.068V7.27H13.2502V8.082C13.2502 8.94067 13.6095 9.33733 14.3282 9.272C14.6922 9.23467 14.9815 9.02467 15.1962 8.642C15.3735 8.31533 15.4622 7.94667 15.4622 7.536C15.4622 6.88267 15.2662 6.29933 14.8742 5.786C14.4915 5.27267 13.9829 4.94133 13.3482 4.792C13.2269 4.764 13.0915 4.75 12.9422 4.75C12.4942 4.75 12.1302 4.88533 11.8502 5.156ZM10.3522 4.89H9.54019C9.50285 4.74067 9.48419 4.596 9.48419 4.456C9.48419 4.04533 9.61952 3.69067 9.89019 3.392C10.1609 3.084 10.4969 2.916 10.8982 2.888C11.7942 2.82267 12.3122 3.13533 12.4522 3.826C13.2642 3.22867 14.2349 2.916 15.3642 2.888C16.4562 2.86 17.3849 3.21 18.1502 3.938C18.9435 4.694 19.3215 5.632 19.2842 6.752C19.2562 7.69467 18.9575 8.474 18.3882 9.09C17.8282 9.69667 17.1002 10 16.2042 10C16.0829 10 15.9615 9.99533 15.8402 9.986V9.314C16.6149 9.37 17.2589 9.10867 17.7722 8.53C18.2855 7.95133 18.5142 7.27933 18.4582 6.514C18.3929 5.674 18.0755 4.98333 17.5062 4.442C16.9462 3.89133 16.2462 3.61133 15.4062 3.602C14.5755 3.59267 13.8802 3.76533 13.3202 4.12C15.1309 4.372 16.1109 5.41733 16.2602 7.256C16.3162 7.956 16.1902 8.572 15.8822 9.104C15.5369 9.70133 15.0375 10 14.3842 10C13.4975 9.99067 12.9842 9.748 12.8442 9.272C12.6855 9.75733 12.1442 10 11.2202 10C10.7909 10 10.4315 9.86 10.1422 9.58C9.85285 9.29067 9.69885 8.94533 9.68019 8.544C9.67085 8.41333 9.69419 8.25 9.75019 8.054C9.81552 7.858 9.84819 7.73667 9.84819 7.69C9.84819 7.55 9.76885 7.48 9.61019 7.48C9.50752 7.48 9.35819 7.578 9.16219 7.774V6.934C9.33019 6.71 9.74085 6.24333 10.3942 5.534C10.3942 5.534 10.7675 5.16067 11.5142 4.414C11.6169 4.31133 11.6682 4.18533 11.6682 4.036C11.6682 3.728 11.4582 3.59267 11.0382 3.63C10.8049 3.64867 10.6182 3.74667 10.4782 3.924C10.3475 4.10133 10.2822 4.302 10.2822 4.526C10.2822 4.65667 10.3055 4.778 10.3522 4.89ZM14.9623 0.298C13.3103 0.298 12.2136 0.573333 11.6723 1.124C11.4296 1.36667 11.3083 1.67933 11.3083 2.062C11.3083 2.398 11.4203 2.66867 11.6443 2.874C11.8589 3.07933 12.1389 3.182 12.4843 3.182C12.5963 3.182 12.7129 3.17267 12.8343 3.154V2.51C12.7783 2.51933 12.7223 2.524 12.6663 2.524C12.3303 2.524 12.1623 2.37 12.1623 2.062C12.1623 1.84733 12.2603 1.67467 12.4563 1.544C12.9696 1.208 13.8049 1.04 14.9623 1.04C16.1289 1.04 16.9736 1.208 17.4963 1.544C17.6923 1.67467 17.7903 1.84733 17.7903 2.062C17.7903 2.37 17.6223 2.524 17.2863 2.524C17.2303 2.524 17.1743 2.51933 17.1183 2.51V3.154C17.2396 3.17267 17.3563 3.182 17.4683 3.182C17.8136 3.182 18.0983 3.07933 18.3223 2.874C18.5369 2.66867 18.6443 2.398 18.6443 2.062C18.6443 1.67933 18.5229 1.36667 18.2803 1.124C17.7389 0.573333 16.6329 0.298 14.9623 0.298ZM24.113 3.602C23.301 3.59267 22.6056 3.868 22.027 4.428C21.4483 4.988 21.1543 5.66 21.145 6.444C21.1356 7.24667 21.4296 7.928 22.027 8.488C22.559 8.992 23.2683 9.24867 24.155 9.258C24.9483 9.26733 25.625 9.006 26.185 8.474C26.7543 7.93267 27.0436 7.256 27.053 6.444C27.0623 5.64133 26.773 4.96933 26.185 4.428C25.6063 3.88667 24.9156 3.61133 24.113 3.602ZM27.865 6.416C27.8743 7.48933 27.5196 8.35733 26.801 9.02C26.0916 9.67333 25.1956 10 24.113 10C23.0303 10 22.1296 9.67333 21.411 9.02C20.6923 8.36667 20.333 7.508 20.333 6.444C20.333 5.8 20.487 5.226 20.795 4.722C20.795 4.71267 20.9956 4.456 21.397 3.952C21.4996 3.82133 21.9056 3.53667 22.615 3.098C23.007 2.86467 23.4036 2.63133 23.805 2.398C24.2623 2.09933 24.589 1.81 24.785 1.53C24.981 1.25 25.1256 0.983999 25.219 0.731999H26.101C26.017 1.096 25.8396 1.46467 25.569 1.838C25.2796 2.23933 24.8876 2.58467 24.393 2.874C24.6636 2.91133 24.8596 2.93933 24.981 2.958C25.177 3.00467 25.401 3.07467 25.653 3.168C26.325 3.42 26.857 3.84467 27.249 4.442C27.6503 5.03933 27.8556 5.69733 27.865 6.416ZM33.5714 1.054H34.4394L33.3474 2.986C33.6554 3.014 33.9354 3.07 34.1874 3.154C34.4768 3.25667 34.7428 3.39667 34.9854 3.574C35.2001 3.17267 35.5828 2.96267 36.1334 2.944C36.7308 2.92533 37.1694 3.15867 37.4494 3.644C37.8134 3.18667 38.3081 2.96267 38.9334 2.972C40.3521 3 41.0521 4.18533 41.0334 6.528C41.0148 8.91733 40.2074 10.1027 38.6114 10.084C37.4261 10.0747 36.7681 9.426 36.6374 8.138H37.4354C37.4541 8.52067 37.5708 8.81933 37.7854 9.034C38.0188 9.286 38.3408 9.39333 38.7514 9.356C39.2928 9.30933 39.6894 8.95933 39.9414 8.306C40.1281 7.83 40.2214 7.256 40.2214 6.584C40.2214 4.67067 39.7828 3.714 38.9054 3.714C38.6161 3.714 38.3594 3.80267 38.1354 3.98C37.9208 4.148 37.8134 4.36267 37.8134 4.624V5.954H37.0574V4.708C37.0574 4.44667 36.9828 4.218 36.8334 4.022C36.6934 3.81667 36.5068 3.70933 36.2734 3.7C35.9654 3.69067 35.7228 3.812 35.5454 4.064C36.1428 4.932 36.4321 5.81867 36.4134 6.724C36.3948 7.72267 36.0354 8.54867 35.3354 9.202C34.6448 9.85533 33.8001 10.154 32.8014 10.098C31.8961 10.0513 31.0468 9.90667 30.2534 9.664C30.1881 9.64533 30.1181 9.636 30.0434 9.636C29.7821 9.636 29.6001 9.71533 29.4974 9.874H28.6854L29.8894 7.718C29.3388 7.19533 29.0868 6.50933 29.1334 5.66C29.1801 4.80133 29.6001 4.078 30.3934 3.49C30.8414 3.154 31.5508 2.96267 32.5214 2.916L33.5714 1.054ZM32.1014 3.672C31.6534 3.69067 31.2474 3.81667 30.8834 4.05C30.4914 4.31133 30.2161 4.66133 30.0574 5.1C29.9641 5.36133 29.9174 5.618 29.9174 5.87C29.9174 6.29933 30.0388 6.67733 30.2814 7.004L32.1014 3.672ZM32.9554 3.686L32.0734 5.268C32.3254 5.05333 32.6428 4.95067 33.0254 4.96C33.4361 4.97867 33.7721 5.16067 34.0334 5.506C34.2948 5.85133 34.3974 6.23867 34.3414 6.668C34.2574 7.26533 34.0101 7.72267 33.5994 8.04C33.1981 8.348 32.6894 8.50667 32.0734 8.516C31.5601 8.52533 31.0328 8.40867 30.4914 8.166L30.0014 9.076C30.1414 8.964 30.3701 8.95467 30.6874 9.048C31.3874 9.25333 32.0921 9.36533 32.8014 9.384C33.5574 9.40267 34.2108 9.15067 34.7614 8.628C35.3121 8.10533 35.5921 7.47067 35.6014 6.724C35.6201 5.73467 35.3121 4.94133 34.6774 4.344C34.2948 3.98 33.7208 3.76067 32.9554 3.686ZM31.5974 6.164L30.8694 7.48C31.2241 7.66667 31.5601 7.76933 31.8774 7.788C32.4654 7.816 32.9134 7.676 33.2214 7.368C33.0441 7.43333 32.8714 7.466 32.7034 7.466C32.4421 7.466 32.2041 7.37733 31.9894 7.2C31.6721 6.92933 31.5414 6.584 31.5974 6.164ZM32.3254 6.234C32.3254 6.39267 32.3814 6.528 32.4934 6.64C32.6054 6.752 32.7361 6.808 32.8854 6.808C33.0534 6.808 33.1934 6.752 33.3054 6.64C33.4268 6.528 33.4874 6.39267 33.4874 6.234C33.4874 6.07533 33.4268 5.94 33.3054 5.828C33.1934 5.716 33.0581 5.66 32.8994 5.66C32.7408 5.66 32.6054 5.716 32.4934 5.828C32.3814 5.94 32.3254 6.07533 32.3254 6.234ZM45.6591 5.45C45.3791 5.45 45.1457 5.54333 44.9591 5.73C44.7817 5.90733 44.6931 6.12667 44.6931 6.388C44.6931 6.64933 44.7677 6.87333 44.9171 7.06C45.0757 7.23733 45.3044 7.326 45.6031 7.326C45.8831 7.326 46.1071 7.242 46.2751 7.074C46.4431 6.906 46.5271 6.69133 46.5271 6.43C46.5271 6.15 46.4477 5.91667 46.2891 5.73C46.1397 5.54333 45.9297 5.45 45.6591 5.45ZM47.3671 6.472C47.3671 6.976 47.1991 7.37733 46.8631 7.676C46.5364 7.96533 46.1164 8.11 45.6031 8.11C45.0991 8.11 44.6837 7.956 44.3571 7.648C44.0304 7.34 43.8671 6.934 43.8671 6.43C43.8671 5.94467 44.0351 5.534 44.3711 5.198C44.7071 4.862 45.1317 4.68 45.6451 4.652C46.0651 4.624 46.4337 4.64733 46.7511 4.722C47.0404 4.78733 47.3251 4.918 47.6051 5.114C47.9411 5.35667 48.2024 5.646 48.3891 5.982C48.6037 6.38333 48.7017 6.85933 48.6831 7.41C48.6644 7.89533 48.5244 8.31067 48.2631 8.656C48.0297 8.964 47.7777 9.21133 47.5071 9.398C47.1804 9.63133 46.8117 9.79933 46.4011 9.902C46.1491 9.96733 45.7524 10.0047 45.2111 10.014C44.7164 10.0233 44.2404 9.91133 43.7831 9.678C43.2977 9.43533 42.9151 9.12733 42.6351 8.754C42.3644 8.38067 42.1684 8.00733 42.0471 7.634C41.9351 7.25133 41.8791 6.84533 41.8791 6.416C41.8791 5.97733 41.9537 5.55733 42.1031 5.156C42.2244 4.82 42.4251 4.47933 42.7051 4.134C42.9477 3.826 43.2231 3.58333 43.5311 3.406C43.7831 3.25667 44.0257 3.14467 44.2591 3.07C44.6604 2.93933 45.0477 2.874 45.4211 2.874C46.0651 2.874 46.6437 3 47.1571 3.252C47.6797 3.49467 48.0391 3.91467 48.2351 4.512H47.3811C47.2131 4.19467 46.9844 3.97067 46.6951 3.84C46.4057 3.7 46.1071 3.62067 45.7991 3.602C45.5004 3.58333 45.2577 3.588 45.0711 3.616C44.7351 3.672 44.4457 3.76533 44.2031 3.896C43.8297 4.11067 43.5171 4.39067 43.2651 4.736C42.9011 5.24933 42.7144 5.79067 42.7051 6.36C42.6957 6.77067 42.7424 7.13933 42.8451 7.466C42.9664 7.84867 43.1437 8.15667 43.3771 8.39C43.6944 8.70733 44.0024 8.93133 44.3011 9.062C44.6091 9.19267 44.9497 9.258 45.3231 9.258C45.7057 9.258 46.0604 9.202 46.3871 9.09C46.5831 9.02467 46.7604 8.936 46.9191 8.824C47.1244 8.684 47.3297 8.488 47.5351 8.236C47.7404 7.97467 47.8477 7.67133 47.8571 7.326C47.8664 6.906 47.8104 6.57467 47.6891 6.332C47.5771 6.08933 47.4277 5.87467 47.2411 5.688C47.1944 5.64133 47.1151 5.58067 47.0031 5.506C47.0497 5.54333 47.1151 5.62267 47.1991 5.744C47.2551 5.83733 47.2971 5.94467 47.3251 6.066C47.3531 6.29 47.3671 6.42533 47.3671 6.472ZM53.7489 9.986C52.2649 9.96733 51.1823 9.65467 50.5009 9.048C49.8663 8.488 49.5489 7.802 49.5489 6.99C49.5489 6.08467 49.9363 5.43133 50.7109 5.03C51.1589 4.79667 51.6863 4.68 52.2929 4.68H53.2729C53.2543 4.32533 53.1329 4.05467 52.9089 3.868C52.6849 3.672 52.4049 3.574 52.0689 3.574C51.7236 3.574 51.4343 3.66733 51.2009 3.854C50.9676 4.04067 50.8509 4.316 50.8509 4.68H50.0249C50.0156 4.10133 50.2209 3.644 50.6409 3.308C51.0143 3.00933 51.4903 2.86 52.0689 2.86C53.4596 2.86 54.1643 3.69533 54.1829 5.366H52.5029C51.8029 5.366 51.2896 5.51067 50.9629 5.8C50.5709 6.14533 50.3889 6.56067 50.4169 7.046C50.4636 7.82067 50.8229 8.39933 51.4949 8.782C52.0456 9.09 52.7736 9.244 53.6789 9.244C54.7149 9.244 55.5269 8.93133 56.1149 8.306C56.7029 7.67133 57.0203 6.79867 57.0669 5.688C57.1136 4.68 56.8056 3.84467 56.1429 3.182C55.5176 2.55667 54.6216 2.23933 53.4549 2.23C52.1296 2.21133 50.9583 2.44933 49.9409 2.944V2.174C50.6036 1.95933 50.9349 1.782 50.9349 1.642C50.9349 1.614 50.9163 1.59067 50.8789 1.572C50.6829 1.45067 50.5849 1.278 50.5849 1.054C50.5849 0.829999 50.7249 0.629333 51.0049 0.451999C51.4903 0.153333 52.3443 0.00399935 53.5669 0.00399935C55.8536 0.00399935 57.1229 0.466 57.3749 1.39C57.4029 1.49267 57.4169 1.6 57.4169 1.712C57.4169 2.16933 57.2349 2.51 56.8709 2.734C57.5523 3.47133 57.8929 4.40933 57.8929 5.548C57.8929 6.892 57.5383 7.96067 56.8289 8.754C56.0916 9.58467 55.0649 9.99533 53.7489 9.986ZM51.6769 1.656C52.2369 1.56267 52.8343 1.516 53.4689 1.516C54.5983 1.516 55.5176 1.73533 56.2269 2.174C56.5163 2.118 56.6283 1.922 56.5629 1.586C56.4603 1.01667 55.4849 0.731999 53.6369 0.731999C52.6009 0.731999 51.9336 0.815999 51.6349 0.983999C51.5509 1.03067 51.5043 1.082 51.4949 1.138C51.4763 1.20333 51.4903 1.25933 51.5369 1.306C51.5929 1.34333 51.6443 1.38067 51.6909 1.418C51.7469 1.474 51.7423 1.55333 51.6769 1.656ZM60.3447 8.796C59.8501 8.44133 59.5981 7.96067 59.5887 7.354C59.5794 6.74733 59.8547 6.234 60.4147 5.814C60.6761 5.618 60.9374 5.49667 61.1987 5.45C61.3387 5.422 61.6047 5.408 61.9967 5.408H65.2307C65.2214 5.34267 65.2074 5.226 65.1887 5.058C65.0674 4.386 64.7921 3.85867 64.3627 3.476C63.9427 3.084 63.2847 2.888 62.3887 2.888C61.9874 2.888 61.7261 2.902 61.6047 2.93C61.1474 3.03267 60.8954 3.09333 60.8487 3.112C60.5314 3.24267 60.2234 3.49 59.9247 3.854C59.6541 4.18067 59.5187 4.484 59.5187 4.764H60.3587C60.3681 4.71733 60.3867 4.652 60.4147 4.568C60.5641 4.204 60.7881 3.952 61.0867 3.812C61.3947 3.672 61.8334 3.59733 62.4027 3.588C62.8974 3.588 63.2801 3.672 63.5507 3.84C63.8307 3.99867 64.0781 4.29267 64.2927 4.722H62.0387C61.2081 4.722 60.6247 4.82 60.2887 5.016C60.0461 5.156 59.9061 5.24 59.8687 5.268C59.7381 5.37067 59.5561 5.55267 59.3227 5.814C58.9587 6.234 58.7767 6.74733 58.7767 7.354C58.7767 8.09133 59.0147 8.67467 59.4907 9.104C59.8361 9.42133 60.1721 9.64067 60.4987 9.762C60.7507 9.85533 61.1567 9.93933 61.7167 10.014C61.3901 10.1353 61.2221 10.4107 61.2127 10.84C61.2034 11.092 61.3014 11.3253 61.5067 11.54C61.7401 11.8013 62.0994 11.988 62.5847 12.1C62.8274 12.156 63.2147 12.184 63.7467 12.184C64.4374 12.184 65.0301 12.0207 65.5247 11.694C65.8514 11.4793 66.0987 11.204 66.2667 10.868C66.4161 10.5787 66.4674 10.2613 66.4207 9.916H65.5947C65.6321 10.0187 65.6321 10.1587 65.5947 10.336C65.5574 10.5413 65.4781 10.6953 65.3567 10.798C65.0674 11.0407 64.8527 11.1947 64.7127 11.26C64.4514 11.3813 64.0687 11.4513 63.5647 11.47C62.5941 11.5073 62.1087 11.2553 62.1087 10.714C62.1087 10.378 62.3887 10.1493 62.9487 10.028C63.0514 10.028 63.2147 10.014 63.4387 9.986C64.3907 9.846 65.0861 9.53333 65.5247 9.048C65.6647 8.88933 65.7487 8.712 65.7767 8.516H64.9227C64.8854 8.77733 64.5494 8.992 63.9147 9.16C63.5507 9.25333 63.0514 9.30467 62.4167 9.314C61.5394 9.32333 60.8487 9.15067 60.3447 8.796ZM69.032 3.056C68.276 3.336 67.6926 3.77 67.282 4.358C66.8526 4.98333 66.638 5.79067 66.638 6.78C66.638 7.66667 66.8526 8.44133 67.282 9.104C67.5526 9.51467 67.9213 9.79 68.388 9.93C68.6773 10.014 69.004 10.0467 69.368 10.028C69.9933 9.99067 70.4646 9.81333 70.782 9.496C70.9033 9.37467 71.0013 9.22533 71.076 9.048C71.1506 9.20667 71.2626 9.36533 71.412 9.524C71.7386 9.86 72.2006 10.028 72.798 10.028C73.3673 10.028 73.834 9.92533 74.198 9.72C74.5713 9.50533 74.87 9.188 75.094 8.768C75.3273 8.33867 75.444 7.872 75.444 7.368C75.444 6.612 75.248 6.01 74.856 5.562C74.5293 5.18867 74.1233 4.93667 73.638 4.806C73.4326 4.75 73.1806 4.722 72.882 4.722H71.706C71.706 4.37667 71.7853 4.11533 71.944 3.938C72.14 3.714 72.4713 3.602 72.938 3.602C73.33 3.602 73.5913 3.70933 73.722 3.924C73.862 4.12933 73.932 4.386 73.932 4.694H74.744C74.744 4.162 74.6273 3.74667 74.394 3.448C74.0953 3.06533 73.61 2.874 72.938 2.874C71.9113 2.874 71.2533 3.27067 70.964 4.064C70.908 4.21333 70.88 4.53533 70.88 5.03V5.394H72.63C72.8353 5.394 72.98 5.39867 73.064 5.408C73.4466 5.408 73.792 5.57133 74.1 5.898C74.4453 6.262 74.6226 6.71467 74.632 7.256C74.6413 7.63867 74.562 8.00267 74.394 8.348C74.2353 8.684 74.0206 8.92667 73.75 9.076C73.5166 9.20667 73.2973 9.272 73.092 9.272C72.5693 9.272 72.1633 9.12267 71.874 8.824C71.594 8.516 71.454 8.18467 71.454 7.83V6.948H70.698V7.886C70.698 8.194 70.5486 8.51133 70.25 8.838C69.9606 9.16467 69.5686 9.30467 69.074 9.258C68.6166 9.22067 68.248 9.01533 67.968 8.642C67.6506 8.222 67.4826 7.648 67.464 6.92C67.4546 6.388 67.5153 5.912 67.646 5.492C67.8606 4.82933 68.2713 4.316 68.878 3.952C69.2793 3.71867 69.8486 3.61133 70.586 3.63V2.888C69.858 2.888 69.34 2.944 69.032 3.056Z" fill="#1F3A6F"/>
</svg>
