<svg width="71" height="27" viewBox="0 0 71 27" fill="none" xmlns="http://www.w3.org/2000/svg">
<path d="M6.24981 5.55664H2.16191V8.61914H6.94024V10H0.432423V0.046875H6.89238V1.44141H2.16191V4.18945H6.24981V5.55664ZM9.89981 2.60352L9.94766 3.37598C10.4672 2.76986 11.1781 2.4668 12.0805 2.4668C13.0694 2.4668 13.7462 2.84505 14.1107 3.60156C14.6485 2.84505 15.405 2.4668 16.3803 2.4668C17.196 2.4668 17.8021 2.69238 18.1986 3.14355C18.5997 3.59473 18.8048 4.26009 18.8139 5.13965V10H17.1527V5.1875C17.1527 4.7181 17.0502 4.37402 16.8451 4.15527C16.64 3.93652 16.3005 3.82715 15.8266 3.82715C15.4483 3.82715 15.1384 3.92969 14.8969 4.13477C14.6599 4.33529 14.4936 4.59961 14.3979 4.92773L14.4047 10H12.7436V5.13281C12.7208 4.26237 12.2764 3.82715 11.4105 3.82715C10.7452 3.82715 10.2735 4.09831 9.99551 4.64062V10H8.33438V2.60352H9.89981ZM23.9268 10.1367C22.874 10.1367 22.0195 9.80632 21.3633 9.14551C20.7116 8.48014 20.3857 7.59603 20.3857 6.49316V6.28809C20.3857 5.5498 20.527 4.89128 20.8096 4.3125C21.0967 3.72917 21.4977 3.27572 22.0127 2.95215C22.5277 2.62858 23.1019 2.4668 23.7354 2.4668C24.7425 2.4668 25.5195 2.78809 26.0664 3.43066C26.6178 4.07324 26.8936 4.98242 26.8936 6.1582V6.82812H22.0605C22.1107 7.4388 22.3135 7.92188 22.6689 8.27734C23.029 8.63281 23.4801 8.81055 24.0225 8.81055C24.7835 8.81055 25.4033 8.50293 25.8818 7.8877L26.7773 8.74219C26.4811 9.18424 26.0846 9.52832 25.5879 9.77441C25.0957 10.016 24.542 10.1367 23.9268 10.1367ZM23.7285 3.7998C23.2728 3.7998 22.9036 3.95931 22.6211 4.27832C22.3431 4.59733 22.1654 5.04167 22.0879 5.61133H25.2529V5.48828C25.2165 4.93229 25.0684 4.51302 24.8086 4.23047C24.5488 3.94336 24.1888 3.7998 23.7285 3.7998ZM32.2115 4.12109C31.9928 4.08464 31.7672 4.06641 31.5348 4.06641C30.7737 4.06641 30.261 4.35807 29.9967 4.94141V10H28.3355V2.60352H29.9215L29.9625 3.43066C30.3635 2.78809 30.9195 2.4668 31.6305 2.4668C31.8674 2.4668 32.0634 2.4987 32.2184 2.5625L32.2115 4.12109ZM32.9836 6.24707C32.9836 5.09863 33.2525 4.18262 33.7902 3.49902C34.3326 2.81087 35.0503 2.4668 35.9436 2.4668C36.7867 2.4668 37.4497 2.76074 37.9328 3.34863L38.008 2.60352H39.5051V9.77441C39.5051 10.7451 39.202 11.5107 38.5959 12.0713C37.9943 12.6318 37.1809 12.9121 36.1555 12.9121C35.6132 12.9121 35.0822 12.7982 34.5627 12.5703C34.0477 12.347 33.6558 12.0531 33.3869 11.6885L34.173 10.6904C34.6835 11.2965 35.3124 11.5996 36.0598 11.5996C36.6112 11.5996 37.0464 11.4492 37.3654 11.1484C37.6844 10.8522 37.8439 10.4147 37.8439 9.83594V9.33691C37.3654 9.87012 36.7274 10.1367 35.9299 10.1367C35.064 10.1367 34.3553 9.79264 33.8039 9.10449C33.257 8.41634 32.9836 7.46387 32.9836 6.24707ZM34.6379 6.39062C34.6379 7.13346 34.7883 7.71908 35.0891 8.14746C35.3944 8.57129 35.8159 8.7832 36.3537 8.7832C37.0236 8.7832 37.5204 8.49609 37.8439 7.92188V4.66797C37.5295 4.10742 37.0373 3.82715 36.3674 3.82715C35.8205 3.82715 35.3944 4.04362 35.0891 4.47656C34.7883 4.90951 34.6379 5.54753 34.6379 6.39062ZM44.6248 10.1367C43.5721 10.1367 42.7176 9.80632 42.0613 9.14551C41.4096 8.48014 41.0838 7.59603 41.0838 6.49316V6.28809C41.0838 5.5498 41.2251 4.89128 41.5076 4.3125C41.7947 3.72917 42.1958 3.27572 42.7107 2.95215C43.2257 2.62858 43.7999 2.4668 44.4334 2.4668C45.4406 2.4668 46.2176 2.78809 46.7645 3.43066C47.3159 4.07324 47.5916 4.98242 47.5916 6.1582V6.82812H42.7586C42.8087 7.4388 43.0115 7.92188 43.367 8.27734C43.727 8.63281 44.1782 8.81055 44.7205 8.81055C45.4816 8.81055 46.1014 8.50293 46.5799 7.8877L47.4754 8.74219C47.1792 9.18424 46.7827 9.52832 46.2859 9.77441C45.7938 10.016 45.24 10.1367 44.6248 10.1367ZM44.4266 3.7998C43.9708 3.7998 43.6017 3.95931 43.3191 4.27832C43.0411 4.59733 42.8634 5.04167 42.7859 5.61133H45.951V5.48828C45.9145 4.93229 45.7664 4.51302 45.5066 4.23047C45.2469 3.94336 44.8868 3.7998 44.4266 3.7998ZM50.5785 2.60352L50.6264 3.45801C51.1732 2.7972 51.891 2.4668 52.7797 2.4668C54.3201 2.4668 55.1039 3.34863 55.1313 5.1123V10H53.4701V5.20801C53.4701 4.73861 53.3676 4.39225 53.1625 4.16895C52.962 3.94108 52.6316 3.82715 52.1713 3.82715C51.5014 3.82715 51.0023 4.13021 50.6742 4.73633V10H49.0131V2.60352H50.5785ZM60.0186 8.81055C60.4333 8.81055 60.7773 8.68978 61.0508 8.44824C61.3242 8.20671 61.4701 7.9082 61.4883 7.55273H63.0537C63.0355 8.01302 62.8919 8.44368 62.623 8.84473C62.3542 9.24121 61.9896 9.55566 61.5293 9.78809C61.069 10.0205 60.5723 10.1367 60.0391 10.1367C59.0046 10.1367 58.1842 9.80176 57.5781 9.13184C56.972 8.46191 56.6689 7.53678 56.6689 6.35645V6.18555C56.6689 5.0599 56.9697 4.15983 57.5713 3.48535C58.1729 2.80632 58.9932 2.4668 60.0322 2.4668C60.9118 2.4668 61.6273 2.72428 62.1787 3.23926C62.7347 3.74967 63.0264 4.42188 63.0537 5.25586H61.4883C61.4701 4.83203 61.3242 4.4834 61.0508 4.20996C60.7819 3.93652 60.4378 3.7998 60.0186 3.7998C59.4808 3.7998 59.0661 3.99577 58.7744 4.3877C58.4827 4.77507 58.3346 5.36523 58.3301 6.1582V6.4248C58.3301 7.22689 58.4736 7.82617 58.7607 8.22266C59.0524 8.61458 59.4717 8.81055 60.0186 8.81055ZM67.0455 7.62109L68.5494 2.60352H70.3199L67.3805 11.1211C66.9293 12.3652 66.1637 12.9873 65.0836 12.9873C64.8421 12.9873 64.5754 12.9463 64.2838 12.8643V11.5791L64.5982 11.5996C65.0175 11.5996 65.332 11.5221 65.5416 11.3672C65.7558 11.2168 65.9244 10.9616 66.0475 10.6016L66.2867 9.96582L63.6891 2.60352H65.4801L67.0455 7.62109ZM8.90879 16.0469L11.7799 23.6758L14.6441 16.0469H16.8795V26H15.1568V22.7188L15.3277 18.3301L12.3883 26H11.151L8.21836 18.3369L8.38926 22.7188V26H6.6666V16.0469H8.90879ZM22.177 26.1367C21.1242 26.1367 20.2697 25.8063 19.6135 25.1455C18.9618 24.4801 18.6359 23.596 18.6359 22.4932V22.2881C18.6359 21.5498 18.7772 20.8913 19.0598 20.3125C19.3469 19.7292 19.7479 19.2757 20.2629 18.9521C20.7779 18.6286 21.3521 18.4668 21.9855 18.4668C22.9927 18.4668 23.7697 18.7881 24.3166 19.4307C24.868 20.0732 25.1437 20.9824 25.1437 22.1582V22.8281H20.3107C20.3609 23.4388 20.5637 23.9219 20.9191 24.2773C21.2792 24.6328 21.7303 24.8105 22.2727 24.8105C23.0337 24.8105 23.6535 24.5029 24.132 23.8877L25.0275 24.7422C24.7313 25.1842 24.3348 25.5283 23.8381 25.7744C23.3459 26.016 22.7922 26.1367 22.177 26.1367ZM21.9787 19.7998C21.523 19.7998 21.1538 19.9593 20.8713 20.2783C20.5933 20.5973 20.4156 21.0417 20.3381 21.6113H23.5031V21.4883C23.4667 20.9323 23.3186 20.513 23.0588 20.2305C22.799 19.9434 22.439 19.7998 21.9787 19.7998ZM26.2781 22.2471C26.2781 21.1077 26.5424 20.194 27.0711 19.5059C27.5997 18.8132 28.3084 18.4668 29.1971 18.4668C29.9809 18.4668 30.6144 18.7402 31.0975 19.2871V15.5H32.7586V26H31.2547L31.1727 25.2344C30.6759 25.8359 30.0128 26.1367 29.1834 26.1367C28.3175 26.1367 27.6157 25.7881 27.0779 25.0908C26.5447 24.3936 26.2781 23.4456 26.2781 22.2471ZM27.9393 22.3906C27.9393 23.1426 28.0828 23.7305 28.3699 24.1543C28.6616 24.5736 29.074 24.7832 29.6072 24.7832C30.2863 24.7832 30.783 24.4801 31.0975 23.874V20.7158C30.7921 20.1234 30.2999 19.8271 29.6209 19.8271C29.0831 19.8271 28.6684 20.0413 28.3768 20.4697C28.0851 20.8936 27.9393 21.5339 27.9393 22.3906ZM36.4086 26H34.7475V18.6035H36.4086V26ZM34.6449 16.6826C34.6449 16.4274 34.7247 16.2155 34.8842 16.0469C35.0482 15.8783 35.2807 15.7939 35.5814 15.7939C35.8822 15.7939 36.1146 15.8783 36.2787 16.0469C36.4428 16.2155 36.5248 16.4274 36.5248 16.6826C36.5248 16.9333 36.4428 17.1429 36.2787 17.3115C36.1146 17.4756 35.8822 17.5576 35.5814 17.5576C35.2807 17.5576 35.0482 17.4756 34.8842 17.3115C34.7247 17.1429 34.6449 16.9333 34.6449 16.6826ZM41.4121 24.8105C41.8268 24.8105 42.1709 24.6898 42.4443 24.4482C42.7178 24.2067 42.8636 23.9082 42.8818 23.5527H44.4473C44.429 24.013 44.2855 24.4437 44.0166 24.8447C43.7477 25.2412 43.3831 25.5557 42.9229 25.7881C42.4626 26.0205 41.9658 26.1367 41.4326 26.1367C40.3981 26.1367 39.5778 25.8018 38.9717 25.1318C38.3656 24.4619 38.0625 23.5368 38.0625 22.3564V22.1855C38.0625 21.0599 38.3633 20.1598 38.9648 19.4854C39.5664 18.8063 40.3867 18.4668 41.4258 18.4668C42.3053 18.4668 43.0208 18.7243 43.5723 19.2393C44.1283 19.7497 44.4199 20.4219 44.4473 21.2559H42.8818C42.8636 20.832 42.7178 20.4834 42.4443 20.21C42.1755 19.9365 41.8314 19.7998 41.4121 19.7998C40.8743 19.7998 40.4596 19.9958 40.168 20.3877C39.8763 20.7751 39.7282 21.3652 39.7236 22.1582V22.4248C39.7236 23.2269 39.8672 23.8262 40.1543 24.2227C40.446 24.6146 40.8652 24.8105 41.4121 24.8105ZM47.6188 26H45.9576V18.6035H47.6188V26ZM45.8551 16.6826C45.8551 16.4274 45.9348 16.2155 46.0943 16.0469C46.2584 15.8783 46.4908 15.7939 46.7916 15.7939C47.0924 15.7939 47.3248 15.8783 47.4889 16.0469C47.6529 16.2155 47.735 16.4274 47.735 16.6826C47.735 16.9333 47.6529 17.1429 47.4889 17.3115C47.3248 17.4756 47.0924 17.5576 46.7916 17.5576C46.4908 17.5576 46.2584 17.4756 46.0943 17.3115C45.9348 17.1429 45.8551 16.9333 45.8551 16.6826ZM51.1252 18.6035L51.173 19.458C51.7199 18.7972 52.4377 18.4668 53.3264 18.4668C54.8667 18.4668 55.6506 19.3486 55.6779 21.1123V26H54.0168V21.208C54.0168 20.7386 53.9143 20.3923 53.7092 20.1689C53.5087 19.9411 53.1783 19.8271 52.718 19.8271C52.048 19.8271 51.549 20.1302 51.2209 20.7363V26H49.5598V18.6035H51.1252ZM60.784 26.1367C59.7312 26.1367 58.8768 25.8063 58.2205 25.1455C57.5688 24.4801 57.243 23.596 57.243 22.4932V22.2881C57.243 21.5498 57.3842 20.8913 57.6668 20.3125C57.9539 19.7292 58.3549 19.2757 58.8699 18.9521C59.3849 18.6286 59.9591 18.4668 60.5926 18.4668C61.5997 18.4668 62.3768 18.7881 62.9236 19.4307C63.4751 20.0732 63.7508 20.9824 63.7508 22.1582V22.8281H58.9178C58.9679 23.4388 59.1707 23.9219 59.5262 24.2773C59.8862 24.6328 60.3374 24.8105 60.8797 24.8105C61.6408 24.8105 62.2605 24.5029 62.7391 23.8877L63.6346 24.7422C63.3383 25.1842 62.9419 25.5283 62.4451 25.7744C61.9529 26.016 61.3992 26.1367 60.784 26.1367ZM60.5857 19.7998C60.13 19.7998 59.7609 19.9593 59.4783 20.2783C59.2003 20.5973 59.0226 21.0417 58.9451 21.6113H62.1102V21.4883C62.0737 20.9323 61.9256 20.513 61.6658 20.2305C61.4061 19.9434 61.046 19.7998 60.5857 19.7998Z" fill="#1F3A6F"/>
</svg>
