<svg width="77" height="13" viewBox="0 0 77 13" fill="none" xmlns="http://www.w3.org/2000/svg">
<path d="M1.60998 6.178C1.44198 6.43933 1.35798 6.78467 1.35798 7.214C1.35798 7.87667 1.60998 8.39467 2.11398 8.768C2.57132 9.11333 3.17798 9.28133 3.93398 9.272C4.42865 9.272 4.87198 9.14133 5.26398 8.88C5.81465 8.52533 6.08998 8.012 6.08998 7.34C6.08998 6.98533 5.97798 6.68667 5.75398 6.444C5.61398 6.29467 5.43665 6.22 5.22198 6.22C4.84865 6.22 4.68532 6.43467 4.73198 6.864H3.98998C3.98065 6.71467 3.97598 6.53733 3.97598 6.332C3.97598 5.94933 3.98998 5.63667 4.01798 5.394C4.07398 4.89933 4.19532 4.498 4.38198 4.19C4.68998 3.66733 5.08198 3.31267 5.55798 3.126C6.03398 2.93 6.54732 2.85533 7.09798 2.902C7.53665 2.93933 7.90065 3.042 8.18998 3.21C8.61932 3.462 9.01598 3.84467 9.37998 4.358C9.76265 4.90867 9.95398 5.61333 9.95398 6.472C9.95398 6.96667 9.82798 7.48 9.57598 8.012C9.36132 8.47867 9.12798 8.824 8.87598 9.048C8.14798 9.692 7.31265 10.0093 6.36998 10V9.3C6.80865 9.3 7.21465 9.202 7.58798 9.006C8.04532 8.76333 8.40932 8.418 8.67998 7.97C8.95998 7.51267 9.10465 7.004 9.11398 6.444C9.13265 5.632 8.87132 4.92733 8.32998 4.33C7.95665 3.91933 7.53198 3.69067 7.05598 3.644C6.39332 3.57867 5.83798 3.742 5.38998 4.134C5.25932 4.246 5.13332 4.43267 5.01198 4.694C4.87198 4.99267 4.79732 5.296 4.78798 5.604C4.96532 5.47333 5.19398 5.436 5.47398 5.492C5.65132 5.52933 5.74932 5.548 5.76798 5.548C5.92665 5.604 6.08998 5.70667 6.25798 5.856C6.64998 6.21067 6.86465 6.682 6.90198 7.27C6.94865 8.07267 6.66865 8.73067 6.06198 9.244C5.46465 9.748 4.76465 10 3.96198 10C3.02865 10 2.25865 9.79467 1.65198 9.384C1.16665 9.05733 0.84465 8.62333 0.685983 8.082C0.583316 7.73667 0.545983 7.354 0.573983 6.934C0.629983 6.15933 0.95665 5.55733 1.55398 5.128C1.94598 4.848 2.49198 4.708 3.19198 4.708C3.19198 4.46533 3.17332 4.288 3.13598 4.176C3.01465 3.80267 2.77198 3.616 2.40798 3.616C2.23065 3.616 2.08132 3.67667 1.95998 3.798C1.83865 3.91933 1.75932 4.09667 1.72198 4.33C1.69398 4.526 1.69865 4.68933 1.73598 4.82H0.937983C0.909983 4.72667 0.905316 4.568 0.923983 4.344C0.94265 4.12933 0.965983 3.98467 0.993983 3.91C1.15265 3.48067 1.39065 3.196 1.70798 3.056C1.92265 2.96267 2.16998 2.91133 2.44998 2.902C3.00065 2.89267 3.42065 3.09333 3.70998 3.504C3.86865 3.74667 3.97132 4.17133 4.01798 4.778C4.02732 4.92733 4.02732 5.13267 4.01798 5.394H3.38798C2.89332 5.394 2.54332 5.436 2.33798 5.52C2.06732 5.61333 1.82465 5.83267 1.60998 6.178ZM12.3682 8.796C12.8722 9.15067 13.5628 9.32333 14.4402 9.314C15.0748 9.30467 15.5742 9.25333 15.9382 9.16C16.5728 8.992 16.9088 8.77733 16.9462 8.516H17.8002C17.7722 8.712 17.6882 8.88933 17.5482 9.048C17.1095 9.53333 16.4142 9.846 15.4622 9.986C15.3502 9.99533 15.1868 10.0093 14.9722 10.028C14.4122 10.1493 14.1322 10.378 14.1322 10.714C14.1322 11.0127 14.2862 11.2133 14.5942 11.316C14.9022 11.428 15.2335 11.4793 15.5882 11.47C16.0922 11.4513 16.4748 11.3813 16.7362 11.26C16.8762 11.1947 17.0908 11.0407 17.3802 10.798C17.5015 10.6953 17.5808 10.5413 17.6182 10.336C17.6555 10.1587 17.6555 10.0187 17.6182 9.916H18.4442C18.4908 10.2613 18.4395 10.5787 18.2902 10.868C18.1222 11.204 17.8748 11.4793 17.5482 11.694C17.0535 12.0207 16.4608 12.184 15.7702 12.184C15.2382 12.184 14.8508 12.156 14.6082 12.1C14.1228 11.988 13.7635 11.8013 13.5302 11.54C13.3248 11.3253 13.2268 11.092 13.2362 10.84C13.2455 10.4107 13.4135 10.1353 13.7402 10.014C13.1802 9.93933 12.7742 9.85533 12.5222 9.762C12.1955 9.64067 11.8595 9.42133 11.5142 9.104C11.0382 8.67467 10.8002 8.09133 10.8002 7.354C10.8002 6.74733 10.9822 6.234 11.3462 5.814C11.6262 5.49667 11.9482 5.23067 12.3122 5.016C12.6482 4.82 13.2315 4.722 14.0622 4.722H16.3162C16.1948 4.39533 15.9848 4.12467 15.6862 3.91C15.3968 3.69533 14.9768 3.588 14.4262 3.588C13.8568 3.588 13.4228 3.66267 13.1242 3.812C12.8255 3.952 12.5968 4.204 12.4382 4.568C12.4195 4.61467 12.4008 4.68 12.3822 4.764H11.5422C11.5422 4.484 11.6775 4.18067 11.9482 3.854C11.9855 3.80733 12.0322 3.756 12.0882 3.7C11.4068 3.42 11.0662 2.96733 11.0662 2.342C11.0662 2.19267 11.0895 2.03867 11.1362 1.88C11.2762 1.45067 11.6402 1.11933 12.2282 0.886C12.8255 0.643333 13.5488 0.521999 14.3982 0.521999C16.3208 0.521999 17.3802 1.09133 17.5762 2.23C17.5948 2.33267 17.6042 2.43533 17.6042 2.538C17.6042 3.154 17.3102 3.58333 16.7222 3.826C16.9462 4.12467 17.1095 4.53533 17.2122 5.058C17.2308 5.142 17.2448 5.25867 17.2542 5.408H14.0202C13.6282 5.408 13.3622 5.422 13.2222 5.45C12.9608 5.49667 12.6995 5.618 12.4382 5.814C11.8782 6.234 11.6028 6.74733 11.6122 7.354C11.6215 7.96067 11.8735 8.44133 12.3682 8.796ZM12.6762 3.21C13.0962 2.99533 13.6608 2.888 14.3702 2.888C15.1262 2.888 15.7282 3.028 16.1762 3.308C16.5962 3.17733 16.8108 2.90667 16.8202 2.496C16.8388 1.656 15.9942 1.236 14.2862 1.236C13.6328 1.236 13.0775 1.334 12.6202 1.53C12.1348 1.73533 11.8875 1.992 11.8782 2.3C11.8595 2.72 12.1255 3.02333 12.6762 3.21ZM21.2654 3.602C21.6108 3.602 21.8488 3.70933 21.9794 3.924C22.1194 4.13867 22.1894 4.40467 22.1894 4.722H18.3394V5.394H19.8514C19.1234 5.77667 18.7594 6.43467 18.7594 7.368C18.7594 8.04933 18.9461 8.642 19.3194 9.146C19.6088 9.538 19.9868 9.804 20.4534 9.944C20.7148 10.0187 21.0368 10.0467 21.4194 10.028C22.0448 9.99067 22.5161 9.81333 22.8334 9.496C22.9548 9.37467 23.0528 9.22533 23.1274 9.048C23.2021 9.20667 23.3141 9.36533 23.4634 9.524C23.7901 9.86 24.2521 10.028 24.8494 10.028C25.4188 10.028 25.8854 9.92533 26.2494 9.72C26.6228 9.50533 26.9214 9.188 27.1454 8.768C27.3788 8.33867 27.4954 7.872 27.4954 7.368C27.4954 6.612 27.2994 6.01 26.9074 5.562C26.5808 5.18867 26.1748 4.93667 25.6894 4.806C25.4841 4.75 25.2321 4.722 24.9334 4.722H24.0654C24.0654 4.39533 24.1308 4.12933 24.2614 3.924C24.4014 3.71867 24.6441 3.61133 24.9894 3.602C25.3721 3.58333 25.6334 3.686 25.7734 3.91C25.9134 4.12467 25.9834 4.386 25.9834 4.694H26.7954C26.7954 4.162 26.6788 3.74667 26.4454 3.448C26.1468 3.06533 25.6614 2.874 24.9894 2.874C24.5228 2.874 24.1308 3.00933 23.8134 3.28C23.5054 3.55067 23.3234 3.91467 23.2674 4.372C23.2488 4.53067 23.2394 4.75 23.2394 5.03V5.394H24.6814C24.8868 5.394 25.0314 5.39867 25.1154 5.408C25.4981 5.408 25.8434 5.57133 26.1514 5.898C26.4968 6.262 26.6741 6.71467 26.6834 7.256C26.6928 7.63867 26.6134 8.00267 26.4454 8.348C26.2868 8.684 26.0721 8.92667 25.8014 9.076C25.5681 9.20667 25.3488 9.272 25.1434 9.272C24.6208 9.272 24.2148 9.12267 23.9254 8.824C23.6454 8.516 23.5054 8.18467 23.5054 7.83V7.06H22.7494V7.886C22.7494 8.194 22.6094 8.502 22.3294 8.81C22.0588 9.10867 21.6574 9.258 21.1254 9.258C20.6494 9.258 20.2714 9.06667 19.9914 8.684C19.7301 8.32933 19.5994 7.858 19.5994 7.27C19.5994 7.018 19.6601 6.766 19.7814 6.514C19.9028 6.25267 20.0521 6.05667 20.2294 5.926C20.7241 5.57133 21.2748 5.394 21.8814 5.394H23.0154V5.016C23.0154 4.624 22.9828 4.316 22.9174 4.092C22.6841 3.28933 22.1334 2.88333 21.2654 2.874C20.8641 2.86467 20.5654 2.91133 20.3694 3.014C19.7628 3.31267 19.4594 3.87267 19.4594 4.694H20.2714C20.2714 3.966 20.6028 3.602 21.2654 3.602ZM23.1744 0.298C21.5224 0.298 20.4257 0.573333 19.8844 1.124C19.6417 1.36667 19.5204 1.67933 19.5204 2.062C19.5204 2.398 19.6324 2.66867 19.8564 2.874C20.0711 3.07933 20.3511 3.182 20.6964 3.182C20.8084 3.182 20.9251 3.17267 21.0464 3.154V2.51C20.9904 2.51933 20.9344 2.524 20.8784 2.524C20.5424 2.524 20.3744 2.37 20.3744 2.062C20.3744 1.84733 20.4724 1.67467 20.6684 1.544C21.1817 1.208 22.0171 1.04 23.1744 1.04C24.3411 1.04 25.1857 1.208 25.7084 1.544C25.9044 1.67467 26.0024 1.84733 26.0024 2.062C26.0024 2.37 25.8344 2.524 25.4984 2.524C25.4424 2.524 25.3864 2.51933 25.3304 2.51V3.154C25.4517 3.17267 25.5684 3.182 25.6804 3.182C26.0257 3.182 26.3104 3.07933 26.5344 2.874C26.7491 2.66867 26.8564 2.398 26.8564 2.062C26.8564 1.67933 26.7351 1.36667 26.4924 1.124C25.9511 0.573333 24.8451 0.298 23.1744 0.298ZM37.8996 9.384C36.621 9.384 35.683 9.09467 35.0856 8.516C34.6936 8.13333 34.4976 7.68067 34.4976 7.158C34.4976 6.92467 34.535 6.696 34.6096 6.472C34.7683 6.01467 35.0296 5.70667 35.3936 5.548C35.627 5.44533 35.9583 5.394 36.3876 5.394H37.7876V5.03C37.7876 4.666 37.7596 4.358 37.7036 4.106C37.6196 3.73267 37.4236 3.43867 37.1156 3.224C36.8076 3 36.4483 2.888 36.0376 2.888C35.4776 2.888 35.039 3.01867 34.7216 3.28C34.4043 3.54133 34.2456 3.94267 34.2456 4.484C34.2456 4.484 34.2643 4.55867 34.3016 4.708H35.1136C35.0576 4.568 35.0343 4.456 35.0436 4.372C35.0716 3.85867 35.4076 3.60667 36.0516 3.616C36.397 3.62533 36.6443 3.74667 36.7936 3.98C36.8963 4.148 36.957 4.4 36.9756 4.736H36.0516C35.5383 4.736 35.109 4.83867 34.7636 5.044C34.4276 5.24933 34.1616 5.52933 33.9656 5.884C33.7696 6.22933 33.6716 6.63533 33.6716 7.102C33.6716 8.29667 34.227 9.146 35.3376 9.65C36.0376 9.96733 36.887 10.126 37.8856 10.126C38.903 10.126 39.7616 9.96733 40.4616 9.65C41.5723 9.146 42.1276 8.29667 42.1276 7.102C42.1276 6.63533 42.0343 6.234 41.8476 5.898C41.5303 5.32867 41.073 4.96467 40.4756 4.806C40.2983 4.75933 40.0556 4.736 39.7476 4.736H38.8236C38.8423 4.4 38.903 4.148 39.0056 3.98C39.155 3.74667 39.4023 3.62533 39.7476 3.616C40.3916 3.60667 40.7276 3.85867 40.7556 4.372C40.765 4.456 40.7416 4.568 40.6856 4.708H41.4976C41.5163 4.652 41.535 4.57733 41.5536 4.484C41.5536 3.94267 41.395 3.54133 41.0776 3.28C40.7603 3.01867 40.3216 2.888 39.7616 2.888C39.351 2.888 38.9916 3 38.6836 3.224C38.3756 3.43867 38.1796 3.73267 38.0956 4.106C38.0396 4.358 38.0116 4.666 38.0116 5.03V5.394H39.4116C39.841 5.394 40.1723 5.44533 40.4056 5.548C40.7696 5.70667 41.031 6.01467 41.1896 6.472C41.2643 6.696 41.3016 6.92467 41.3016 7.158C41.3016 7.68067 41.1056 8.13333 40.7136 8.516C40.1163 9.09467 39.1783 9.384 37.8996 9.384ZM40.6838 9.188C40.7585 9.14133 40.8565 9.07133 40.9778 8.978C41.0432 8.93133 41.1598 8.81933 41.3278 8.642C41.4398 8.70733 41.5425 8.82867 41.6358 9.006C41.7292 9.18333 41.7758 9.38867 41.7758 9.622C41.7758 10.2193 41.5238 10.77 41.0198 11.274C40.7958 11.498 40.5252 11.6893 40.2078 11.848C39.4985 12.2027 38.6772 12.3847 37.7438 12.394C37.1278 12.4033 36.5585 12.324 36.0358 12.156C35.1398 11.876 34.4818 11.414 34.0618 10.77C33.8658 10.4807 33.7632 10.224 33.7538 10H34.6358C34.8132 10.56 35.2378 10.9893 35.9098 11.288C36.4605 11.54 37.0718 11.666 37.7438 11.666C38.0145 11.666 38.2665 11.6473 38.4998 11.61C38.8918 11.5447 39.2185 11.4467 39.4798 11.316C39.9838 11.064 40.3478 10.784 40.5718 10.476C40.7678 10.2053 40.8705 9.92533 40.8798 9.636C40.8892 9.40267 40.8238 9.25333 40.6838 9.188ZM45.3685 5.716C45.2658 5.80933 44.8972 6.17333 44.2625 6.808C44.4678 6.864 44.6078 6.98533 44.6825 7.172C44.7105 7.23733 44.7245 7.30267 44.7245 7.368C44.7245 7.43333 44.6918 7.55933 44.6265 7.746C44.5612 7.92333 44.5425 8.07733 44.5705 8.208C44.7198 8.97333 45.4432 9.34667 46.7405 9.328C47.4032 9.31867 47.9725 9.13667 48.4485 8.782C48.9712 8.39 49.2325 7.86267 49.2325 7.2C49.2325 6.54667 49.0038 6.01467 48.5465 5.604C48.0985 5.184 47.5525 4.97867 46.9085 4.988C46.5818 4.99733 46.2972 5.06267 46.0545 5.184C45.8772 5.27733 45.6485 5.45467 45.3685 5.716ZM44.4165 4.386C44.3792 4.582 44.4072 4.77333 44.5005 4.96H43.6745C43.6092 4.624 43.6372 4.26933 43.7585 3.896C43.8518 3.60667 44.0385 3.37333 44.3185 3.196C44.5985 3.01867 44.9112 2.93467 45.2565 2.944C45.9752 2.96267 46.4045 3.266 46.5445 3.854C47.4312 3.21933 48.3925 2.90667 49.4285 2.916C50.4832 2.92533 51.3605 3.28 52.0605 3.98C52.7698 4.67067 53.1245 5.53867 53.1245 6.584C53.1245 7.18133 53.0032 7.73667 52.7605 8.25C52.5178 8.754 52.2005 9.132 51.8085 9.384C51.1552 9.804 50.3105 10.014 49.2745 10.014V9.342C49.8905 9.342 50.4272 9.23933 50.8845 9.034C51.3138 8.838 51.6545 8.52533 51.9065 8.096C52.1678 7.65733 52.2985 7.16267 52.2985 6.612C52.2985 5.8 52.0278 5.10933 51.4865 4.54C50.9452 3.96133 50.2685 3.672 49.4565 3.672C48.5792 3.672 47.7905 3.90533 47.0905 4.372C47.8185 4.30667 48.4345 4.47467 48.9385 4.876C49.7038 5.492 50.0818 6.25733 50.0725 7.172C50.0632 8.04 49.7318 8.74467 49.0785 9.286C48.4625 9.79 47.6878 10.042 46.7545 10.042C45.9518 10.042 45.3358 9.958 44.9065 9.79C44.2998 9.55667 43.9218 9.132 43.7725 8.516C43.7445 8.41333 43.7305 8.31533 43.7305 8.222C43.7305 8.09133 43.7538 7.956 43.8005 7.816C43.8565 7.676 43.8845 7.58733 43.8845 7.55C43.8845 7.438 43.8378 7.382 43.7445 7.382C43.5765 7.382 43.4132 7.49867 43.2545 7.732V6.822C43.6932 6.318 44.1225 5.86067 44.5425 5.45C44.8972 5.12333 45.3125 4.74067 45.7885 4.302C45.7978 4.25533 45.8025 4.20867 45.8025 4.162C45.8025 3.826 45.5832 3.66733 45.1445 3.686C44.7432 3.69533 44.5005 3.92867 44.4165 4.386ZM48.8072 0.298C47.1552 0.298 46.0585 0.573333 45.5172 1.124C45.2745 1.36667 45.1532 1.67933 45.1532 2.062C45.1532 2.398 45.2652 2.66867 45.4892 2.874C45.7039 3.07933 45.9839 3.182 46.3292 3.182C46.4412 3.182 46.5579 3.17267 46.6792 3.154V2.51C46.6232 2.51933 46.5672 2.524 46.5112 2.524C46.1752 2.524 46.0072 2.37 46.0072 2.062C46.0072 1.84733 46.1052 1.67467 46.3012 1.544C46.8145 1.208 47.6499 1.04 48.8072 1.04C49.9739 1.04 50.8185 1.208 51.3412 1.544C51.5372 1.67467 51.6352 1.84733 51.6352 2.062C51.6352 2.37 51.4672 2.524 51.1312 2.524C51.0752 2.524 51.0192 2.51933 50.9632 2.51V3.154C51.0845 3.17267 51.2012 3.182 51.3132 3.182C51.6585 3.182 51.9432 3.07933 52.1672 2.874C52.3819 2.66867 52.4892 2.398 52.4892 2.062C52.4892 1.67933 52.3679 1.36667 52.1252 1.124C51.5839 0.573333 50.4779 0.298 48.8072 0.298ZM56.7959 5.156C56.6466 5.28667 56.4086 5.51533 56.0819 5.842C55.8392 6.094 55.5079 6.444 55.0879 6.892C55.3306 6.92 55.4939 7.06 55.5779 7.312C55.6059 7.40533 55.6199 7.49867 55.6199 7.592C55.6199 7.69467 55.6012 7.802 55.5639 7.914C55.5079 8.082 55.4799 8.17067 55.4799 8.18C55.4612 8.25467 55.4519 8.334 55.4519 8.418C55.4519 8.96867 55.7459 9.244 56.3339 9.244C56.6699 9.244 56.9359 9.13667 57.1319 8.922C57.3279 8.70733 57.4259 8.42267 57.4259 8.068V7.27H58.1959V8.082C58.1959 8.94067 58.5552 9.33733 59.2739 9.272C59.6379 9.23467 59.9272 9.02467 60.1419 8.642C60.3192 8.31533 60.4079 7.94667 60.4079 7.536C60.4079 6.88267 60.2119 6.29933 59.8199 5.786C59.4372 5.27267 58.9286 4.94133 58.2939 4.792C58.1726 4.764 58.0372 4.75 57.8879 4.75C57.4399 4.75 57.0759 4.88533 56.7959 5.156ZM55.2979 4.89H54.4859C54.4486 4.74067 54.4299 4.596 54.4299 4.456C54.4299 4.04533 54.5652 3.69067 54.8359 3.392C55.1066 3.084 55.4426 2.916 55.8439 2.888C56.7399 2.82267 57.2579 3.13533 57.3979 3.826C58.2099 3.22867 59.1806 2.916 60.3099 2.888C61.4019 2.86 62.3306 3.21 63.0959 3.938C63.8892 4.694 64.2672 5.632 64.2299 6.752C64.2019 7.69467 63.9032 8.474 63.3339 9.09C62.7739 9.69667 62.0459 10 61.1499 10C61.0286 10 60.9072 9.99533 60.7859 9.986V9.314C61.5606 9.37 62.2046 9.10867 62.7179 8.53C63.2312 7.95133 63.4599 7.27933 63.4039 6.514C63.3386 5.674 63.0212 4.98333 62.4519 4.442C61.8919 3.89133 61.1919 3.61133 60.3519 3.602C59.5212 3.59267 58.8259 3.76533 58.2659 4.12C60.0766 4.372 61.0566 5.41733 61.2059 7.256C61.2619 7.956 61.1359 8.572 60.8279 9.104C60.4826 9.70133 59.9832 10 59.3299 10C58.4432 9.99067 57.9299 9.748 57.7899 9.272C57.6312 9.75733 57.0899 10 56.1659 10C55.7366 10 55.3772 9.86 55.0879 9.58C54.7986 9.29067 54.6446 8.94533 54.6259 8.544C54.6166 8.41333 54.6399 8.25 54.6959 8.054C54.7612 7.858 54.7939 7.73667 54.7939 7.69C54.7939 7.55 54.7146 7.48 54.5559 7.48C54.4532 7.48 54.3039 7.578 54.1079 7.774V6.934C54.2759 6.71 54.6866 6.24333 55.3399 5.534C55.3399 5.534 55.7132 5.16067 56.4599 4.414C56.5626 4.31133 56.6139 4.18533 56.6139 4.036C56.6139 3.728 56.4039 3.59267 55.9839 3.63C55.7506 3.64867 55.5639 3.74667 55.4239 3.924C55.2932 4.10133 55.2279 4.302 55.2279 4.526C55.2279 4.65667 55.2512 4.778 55.2979 4.89ZM67.664 6.43C67.664 5.80467 67.538 5.21667 67.286 4.666C66.9686 3.966 66.5346 3.616 65.984 3.616C65.48 3.616 65.06 3.728 64.724 3.952V3.21C64.9013 3.098 65.0973 3.014 65.312 2.958C65.4893 2.91133 65.7366 2.888 66.054 2.888C66.838 2.888 67.4353 3.25667 67.846 3.994C68.266 4.722 68.476 5.534 68.476 6.43C68.476 7.34467 68.266 8.17067 67.846 8.908C67.4353 9.636 66.838 10 66.054 10C65.7366 10 65.4893 9.97667 65.312 9.93C65.0973 9.874 64.9013 9.79 64.724 9.678V8.936C65.06 9.16 65.48 9.272 65.984 9.272C66.5346 9.272 66.9686 8.91733 67.286 8.208C67.538 7.65733 67.664 7.06467 67.664 6.43ZM73.1055 3.602C72.2935 3.59267 71.5982 3.868 71.0195 4.428C70.4409 4.988 70.1469 5.66 70.1375 6.444C70.1282 7.24667 70.4222 7.928 71.0195 8.488C71.5515 8.992 72.2609 9.24867 73.1475 9.258C73.9409 9.26733 74.6175 9.006 75.1775 8.474C75.7469 7.93267 76.0362 7.256 76.0455 6.444C76.0549 5.64133 75.7655 4.96933 75.1775 4.428C74.5989 3.88667 73.9082 3.61133 73.1055 3.602ZM76.8575 6.416C76.8669 7.48933 76.5122 8.35733 75.7935 9.02C75.0842 9.67333 74.1882 10 73.1055 10C72.0229 10 71.1222 9.67333 70.4035 9.02C69.6849 8.36667 69.3255 7.508 69.3255 6.444C69.3255 5.8 69.4795 5.226 69.7875 4.722C69.7875 4.71267 69.9882 4.456 70.3895 3.952C70.4922 3.82133 70.8982 3.53667 71.6075 3.098C71.9995 2.86467 72.3962 2.63133 72.7975 2.398C73.2549 2.09933 73.5815 1.81 73.7775 1.53C73.9735 1.25 74.1182 0.983999 74.2115 0.731999H75.0935C75.0095 1.096 74.8322 1.46467 74.5615 1.838C74.2722 2.23933 73.8802 2.58467 73.3855 2.874C73.6562 2.91133 73.8522 2.93933 73.9735 2.958C74.1695 3.00467 74.3935 3.07467 74.6455 3.168C75.3175 3.42 75.8495 3.84467 76.2415 4.442C76.6429 5.03933 76.8482 5.69733 76.8575 6.416Z" fill="#1F3A6F"/>
</svg>
