<svg width="65" height="14" viewBox="0 0 65 14" fill="none" xmlns="http://www.w3.org/2000/svg">
<path d="M6.1209 6.55664H2.03301V9.61914H6.81133V11H0.303516V1.04688H6.76348V2.44141H2.03301V5.18945H6.1209V6.55664ZM10.6186 8.62109L12.1225 3.60352H13.893L10.9535 12.1211C10.5023 13.3652 9.73672 13.9873 8.65664 13.9873C8.4151 13.9873 8.1485 13.9463 7.85684 13.8643V12.5791L8.17129 12.5996C8.59056 12.5996 8.90501 12.5221 9.11465 12.3672C9.32884 12.2168 9.49746 11.9616 9.62051 11.6016L9.85977 10.9658L7.26211 3.60352H9.05313L10.6186 8.62109ZM18.165 11.1367C17.1123 11.1367 16.2578 10.8063 15.6016 10.1455C14.9499 9.48014 14.624 8.59603 14.624 7.49316V7.28809C14.624 6.5498 14.7653 5.89128 15.0479 5.3125C15.335 4.72917 15.736 4.27572 16.251 3.95215C16.766 3.62858 17.3402 3.4668 17.9736 3.4668C18.9808 3.4668 19.7578 3.78809 20.3047 4.43066C20.8561 5.07324 21.1318 5.98242 21.1318 7.1582V7.82812H16.2988C16.349 8.4388 16.5518 8.92188 16.9072 9.27734C17.2673 9.63281 17.7184 9.81055 18.2607 9.81055C19.0218 9.81055 19.6416 9.50293 20.1201 8.8877L21.0156 9.74219C20.7194 10.1842 20.3229 10.5283 19.8262 10.7744C19.334 11.016 18.7803 11.1367 18.165 11.1367ZM17.9668 4.7998C17.5111 4.7998 17.1419 4.95931 16.8594 5.27832C16.5814 5.59733 16.4036 6.04167 16.3262 6.61133H19.4912V6.48828C19.4548 5.93229 19.3066 5.51302 19.0469 5.23047C18.7871 4.94336 18.4271 4.7998 17.9668 4.7998ZM25.9504 8.31348C25.9504 7.85319 26.0757 7.43164 26.3264 7.04883C26.577 6.66146 27.0715 6.20345 27.8098 5.6748C27.4224 5.18717 27.1512 4.77246 26.9963 4.43066C26.8459 4.08887 26.7707 3.75846 26.7707 3.43945C26.7707 2.66016 27.0077 2.04492 27.4816 1.59375C27.9556 1.13802 28.5936 0.910156 29.3957 0.910156C30.1203 0.910156 30.7128 1.12435 31.173 1.55273C31.6379 1.97656 31.8703 2.50293 31.8703 3.13184C31.8703 3.54655 31.7655 3.92936 31.5559 4.28027C31.3462 4.62663 31.0022 4.97298 30.5236 5.31934L29.8469 5.81152L31.7678 8.08105C32.0458 7.53418 32.1848 6.92578 32.1848 6.25586H33.6272C33.6272 7.48177 33.34 8.48665 32.7658 9.27051L34.2287 11H32.301L31.7404 10.3369C31.0295 10.8701 30.1818 11.1367 29.1975 11.1367C28.2131 11.1367 27.4247 10.877 26.8322 10.3574C26.2443 9.83333 25.9504 9.15202 25.9504 8.31348ZM29.2453 9.81055C29.8059 9.81055 30.33 9.6237 30.8176 9.25L28.6438 6.68652L28.4318 6.83691C27.885 7.25163 27.6115 7.72559 27.6115 8.25879C27.6115 8.71908 27.7596 9.09277 28.0559 9.37988C28.3521 9.66699 28.7486 9.81055 29.2453 9.81055ZM28.3293 3.39844C28.3293 3.78125 28.564 4.26204 29.0334 4.84082L29.7922 4.32129L30.0041 4.15039C30.2867 3.89974 30.4279 3.57845 30.4279 3.18652C30.4279 2.92676 30.33 2.70573 30.134 2.52344C29.938 2.33659 29.6897 2.24316 29.3889 2.24316C29.0653 2.24316 28.8078 2.35254 28.6164 2.57129C28.425 2.79004 28.3293 3.06576 28.3293 3.39844ZM44.933 6.55664H40.8451V9.61914H45.6234V11H39.1156V1.04688H45.5756V2.44141H40.8451V5.18945H44.933V6.55664ZM55.0771 11H53.3477L48.9111 3.93848V11H47.1816V1.04688H48.9111L53.3613 8.13574V1.04688H55.0771V11ZM64.2574 2.44141H61.1539V11H59.4381V2.44141H56.3619V1.04688H64.2574V2.44141Z" fill="#1F3A6F"/>
</svg>
