<svg width="81" height="26" viewBox="0 0 81 26" fill="none" xmlns="http://www.w3.org/2000/svg">
<path d="M3.09119 4.652H2.27919C2.50319 3.46667 3.48785 2.874 5.23319 2.874C6.15719 2.874 6.85719 3.03733 7.33319 3.364C7.91185 3.76533 8.26185 4.45133 8.38319 5.422H4.75719C3.72119 5.422 2.94652 5.632 2.43319 6.052C1.73319 6.62133 1.38319 7.368 1.38319 8.292C1.38319 9.40267 1.71452 10.2707 2.37719 10.896C3.00252 11.4933 3.93119 11.792 5.16319 11.792C6.11519 11.792 6.91785 11.5027 7.57119 10.924C8.22452 10.3547 8.53719 9.63133 8.50919 8.754H9.34919C9.34919 9.622 9.10652 10.3593 8.62119 10.966C7.77185 12.0393 6.59119 12.5667 5.07919 12.548C3.73519 12.5293 2.68052 12.2027 1.91519 11.568C1.00985 10.812 0.557187 9.73867 0.557187 8.348C0.557187 7.24667 0.95852 6.32733 1.76119 5.59C2.38652 5.01133 3.36652 4.722 4.70119 4.722H7.38919C7.19319 3.966 6.50252 3.588 5.31719 3.588C4.01985 3.588 3.27785 3.94267 3.09119 4.652ZM13.8495 2.888V3.588C13.3175 3.57867 12.8928 3.63467 12.5755 3.756C12.3515 3.85867 12.0995 4.04533 11.8195 4.316C11.2875 4.82933 11.0215 5.58533 11.0215 6.584C11.0215 7.368 11.2268 7.998 11.6375 8.474C12.0948 9.006 12.6921 9.272 13.4295 9.272C14.1948 9.272 14.7315 9.09933 15.0395 8.754C15.4035 8.35267 15.5855 7.886 15.5855 7.354C15.5855 7.02733 15.5015 6.74267 15.3335 6.5C15.1655 6.25733 14.9321 6.136 14.6335 6.136C14.2041 6.136 13.9895 6.36 13.9895 6.808C13.9895 6.87333 13.9941 6.93867 14.0035 7.004H13.2335C13.2055 6.78933 13.1915 6.56067 13.1915 6.318C13.1915 5.58067 13.3268 4.96467 13.5975 4.47C14.1855 3.41533 15.1235 2.888 16.4115 2.888C17.3355 2.888 18.1008 3.25667 18.7075 3.994C19.3141 4.73133 19.6035 5.58533 19.5755 6.556C19.5475 7.61067 19.2021 8.46 18.5395 9.104C17.8768 9.748 16.9715 10.0513 15.8235 10.014V9.314C16.7008 9.314 17.3961 9.09 17.9095 8.642C18.4695 8.15667 18.7495 7.43333 18.7495 6.472C18.7495 5.716 18.5301 5.058 18.0915 4.498C17.6248 3.91 17.0415 3.616 16.3415 3.616C15.6788 3.616 15.1421 3.82133 14.7315 4.232C14.3301 4.63333 14.0921 5.09533 14.0175 5.618C14.2788 5.45933 14.5681 5.38 14.8855 5.38C15.3615 5.38933 15.7441 5.60867 16.0335 6.038C16.2855 6.42067 16.4115 6.88267 16.4115 7.424C16.4115 8.14267 16.1455 8.768 15.6135 9.3C15.1655 9.748 14.4328 9.98133 13.4155 10C12.4355 10.0187 11.6421 9.67333 11.0355 8.964C10.4848 8.32 10.2095 7.494 10.2095 6.486C10.2095 5.45 10.5361 4.568 11.1895 3.84C11.8055 3.15867 12.6921 2.84133 13.8495 2.888ZM16.3196 9.37V9.958H16.7116C16.609 10.0887 16.5576 10.28 16.5576 10.532C16.5576 10.7653 16.6743 10.9567 16.9076 11.106C17.1316 11.2553 17.4256 11.33 17.7896 11.33C18.1443 11.33 18.4383 11.246 18.6716 11.078C18.905 10.9193 19.031 10.7187 19.0496 10.476C19.0776 10.196 19.0403 9.97667 18.9376 9.818H19.7496C19.8336 10.07 19.8663 10.322 19.8476 10.574C19.8196 11.0313 19.6283 11.386 19.2736 11.638C18.8816 11.918 18.3916 12.058 17.8036 12.058C16.9823 12.058 16.413 11.89 16.0956 11.554C15.825 11.274 15.6896 10.924 15.6896 10.504C15.6896 9.916 15.8996 9.538 16.3196 9.37ZM24.4063 3.602C23.5943 3.59267 22.899 3.868 22.3203 4.428C21.7417 4.988 21.4477 5.66 21.4383 6.444C21.429 7.24667 21.723 7.928 22.3203 8.488C22.8523 8.992 23.5617 9.24867 24.4483 9.258C25.2417 9.26733 25.9183 9.006 26.4783 8.474C27.0477 7.93267 27.337 7.256 27.3463 6.444C27.3557 5.64133 27.0663 4.96933 26.4783 4.428C25.8997 3.88667 25.209 3.61133 24.4063 3.602ZM28.1583 6.416C28.1677 7.48933 27.813 8.35733 27.0943 9.02C26.385 9.67333 25.489 10 24.4063 10C23.3237 10 22.423 9.67333 21.7043 9.02C20.9857 8.36667 20.6263 7.508 20.6263 6.444C20.6263 5.8 20.7803 5.226 21.0883 4.722C21.0883 4.71267 21.289 4.456 21.6903 3.952C21.793 3.82133 22.199 3.53667 22.9083 3.098C23.3003 2.86467 23.697 2.63133 24.0983 2.398C24.5557 2.09933 24.8823 1.81 25.0783 1.53C25.2743 1.25 25.419 0.983999 25.5123 0.731999H26.3943C26.3103 1.096 26.133 1.46467 25.8623 1.838C25.573 2.23933 25.181 2.58467 24.6863 2.874C24.957 2.91133 25.153 2.93933 25.2743 2.958C25.4703 3.00467 25.6943 3.07467 25.9463 3.168C26.6183 3.42 27.1503 3.84467 27.5423 4.442C27.9437 5.03933 28.149 5.69733 28.1583 6.416ZM30.1688 8.684H31.3028C31.4241 8.91733 31.4848 9.20667 31.4848 9.552C31.4848 9.68267 31.4755 9.81333 31.4568 9.944C31.3541 10.588 31.1255 11.0967 30.7708 11.47H29.8608C30.1688 11.0967 30.3508 10.6673 30.4068 10.182C30.4721 9.63133 30.3928 9.132 30.1688 8.684ZM40.6748 5.156C40.5255 5.28667 40.2875 5.51533 39.9608 5.842C39.7181 6.094 39.3868 6.444 38.9668 6.892C39.2095 6.92 39.3728 7.06 39.4568 7.312C39.4848 7.40533 39.4988 7.49867 39.4988 7.592C39.4988 7.69467 39.4801 7.802 39.4428 7.914C39.3868 8.082 39.3588 8.17067 39.3588 8.18C39.3401 8.25467 39.3308 8.334 39.3308 8.418C39.3308 8.96867 39.6248 9.244 40.2128 9.244C40.5488 9.244 40.8148 9.13667 41.0108 8.922C41.2068 8.70733 41.3048 8.42267 41.3048 8.068V7.27H42.0748V8.082C42.0748 8.94067 42.4341 9.33733 43.1528 9.272C43.5168 9.23467 43.8061 9.02467 44.0208 8.642C44.1981 8.31533 44.2868 7.94667 44.2868 7.536C44.2868 6.88267 44.0908 6.29933 43.6988 5.786C43.3161 5.27267 42.8075 4.94133 42.1728 4.792C42.0515 4.764 41.9161 4.75 41.7668 4.75C41.3188 4.75 40.9548 4.88533 40.6748 5.156ZM39.1768 4.89H38.3648C38.3275 4.74067 38.3088 4.596 38.3088 4.456C38.3088 4.04533 38.4441 3.69067 38.7148 3.392C38.9855 3.084 39.3215 2.916 39.7228 2.888C40.6188 2.82267 41.1368 3.13533 41.2768 3.826C42.0888 3.22867 43.0595 2.916 44.1888 2.888C45.2808 2.86 46.2095 3.21 46.9748 3.938C47.7681 4.694 48.1461 5.632 48.1088 6.752C48.0808 7.69467 47.7821 8.474 47.2128 9.09C46.6528 9.69667 45.9248 10 45.0288 10C44.9075 10 44.7861 9.99533 44.6648 9.986V9.314C45.4395 9.37 46.0835 9.10867 46.5968 8.53C47.1101 7.95133 47.3388 7.27933 47.2828 6.514C47.2175 5.674 46.9001 4.98333 46.3308 4.442C45.7708 3.89133 45.0708 3.61133 44.2308 3.602C43.4001 3.59267 42.7048 3.76533 42.1448 4.12C43.9555 4.372 44.9355 5.41733 45.0848 7.256C45.1408 7.956 45.0148 8.572 44.7068 9.104C44.3615 9.70133 43.8621 10 43.2088 10C42.3221 9.99067 41.8088 9.748 41.6688 9.272C41.5101 9.75733 40.9688 10 40.0448 10C39.6155 10 39.2561 9.86 38.9668 9.58C38.6775 9.29067 38.5235 8.94533 38.5048 8.544C38.4955 8.41333 38.5188 8.25 38.5748 8.054C38.6401 7.858 38.6728 7.73667 38.6728 7.69C38.6728 7.55 38.5935 7.48 38.4348 7.48C38.3321 7.48 38.1828 7.578 37.9868 7.774V6.934C38.1548 6.71 38.5655 6.24333 39.2188 5.534C39.2188 5.534 39.5921 5.16067 40.3388 4.414C40.4415 4.31133 40.4928 4.18533 40.4928 4.036C40.4928 3.728 40.2828 3.59267 39.8628 3.63C39.6295 3.64867 39.4428 3.74667 39.3028 3.924C39.1721 4.10133 39.1068 4.302 39.1068 4.526C39.1068 4.65667 39.1301 4.778 39.1768 4.89ZM53.8109 1.054H54.6789L53.5869 2.986C53.8949 3.014 54.1749 3.07 54.4269 3.154C54.7162 3.25667 54.9822 3.39667 55.2249 3.574C55.4396 3.17267 55.8222 2.96267 56.3729 2.944C56.9702 2.92533 57.4089 3.15867 57.6889 3.644C58.0529 3.18667 58.5476 2.96267 59.1729 2.972C60.5916 3 61.2916 4.18533 61.2729 6.528C61.2542 8.91733 60.4469 10.1027 58.8509 10.084C57.6656 10.0747 57.0076 9.426 56.8769 8.138H57.6749C57.6936 8.52067 57.8102 8.81933 58.0249 9.034C58.2582 9.286 58.5802 9.39333 58.9909 9.356C59.5322 9.30933 59.9289 8.95933 60.1809 8.306C60.3676 7.83 60.4609 7.256 60.4609 6.584C60.4609 4.67067 60.0222 3.714 59.1449 3.714C58.8556 3.714 58.5989 3.80267 58.3749 3.98C58.1602 4.148 58.0529 4.36267 58.0529 4.624V5.954H57.2969V4.708C57.2969 4.44667 57.2222 4.218 57.0729 4.022C56.9329 3.81667 56.7462 3.70933 56.5129 3.7C56.2049 3.69067 55.9622 3.812 55.7849 4.064C56.3822 4.932 56.6716 5.81867 56.6529 6.724C56.6342 7.72267 56.2749 8.54867 55.5749 9.202C54.8842 9.85533 54.0396 10.154 53.0409 10.098C52.1356 10.0513 51.2862 9.90667 50.4929 9.664C50.4276 9.64533 50.3576 9.636 50.2829 9.636C50.0216 9.636 49.8396 9.71533 49.7369 9.874H48.9249L50.1289 7.718C49.5782 7.19533 49.3262 6.50933 49.3729 5.66C49.4196 4.80133 49.8396 4.078 50.6329 3.49C51.0809 3.154 51.7902 2.96267 52.7609 2.916L53.8109 1.054ZM52.3409 3.672C51.8929 3.69067 51.4869 3.81667 51.1229 4.05C50.7309 4.31133 50.4556 4.66133 50.2969 5.1C50.2036 5.36133 50.1569 5.618 50.1569 5.87C50.1569 6.29933 50.2782 6.67733 50.5209 7.004L52.3409 3.672ZM53.1949 3.686L52.3129 5.268C52.5649 5.05333 52.8822 4.95067 53.2649 4.96C53.6756 4.97867 54.0116 5.16067 54.2729 5.506C54.5342 5.85133 54.6369 6.23867 54.5809 6.668C54.4969 7.26533 54.2496 7.72267 53.8389 8.04C53.4376 8.348 52.9289 8.50667 52.3129 8.516C51.7996 8.52533 51.2722 8.40867 50.7309 8.166L50.2409 9.076C50.3809 8.964 50.6096 8.95467 50.9269 9.048C51.6269 9.25333 52.3316 9.36533 53.0409 9.384C53.7969 9.40267 54.4502 9.15067 55.0009 8.628C55.5516 8.10533 55.8316 7.47067 55.8409 6.724C55.8596 5.73467 55.5516 4.94133 54.9169 4.344C54.5342 3.98 53.9602 3.76067 53.1949 3.686ZM51.8369 6.164L51.1089 7.48C51.4636 7.66667 51.7996 7.76933 52.1169 7.788C52.7049 7.816 53.1529 7.676 53.4609 7.368C53.2836 7.43333 53.1109 7.466 52.9429 7.466C52.6816 7.466 52.4436 7.37733 52.2289 7.2C51.9116 6.92933 51.7809 6.584 51.8369 6.164ZM52.5649 6.234C52.5649 6.39267 52.6209 6.528 52.7329 6.64C52.8449 6.752 52.9756 6.808 53.1249 6.808C53.2929 6.808 53.4329 6.752 53.5449 6.64C53.6662 6.528 53.7269 6.39267 53.7269 6.234C53.7269 6.07533 53.6662 5.94 53.5449 5.828C53.4329 5.716 53.2976 5.66 53.1389 5.66C52.9802 5.66 52.8449 5.716 52.7329 5.828C52.6209 5.94 52.5649 6.07533 52.5649 6.234ZM68.2811 6.178C68.1131 6.43933 68.0291 6.78467 68.0291 7.214C68.0291 7.87667 68.2811 8.39467 68.7851 8.768C69.2424 9.11333 69.8491 9.28133 70.6051 9.272C71.0997 9.272 71.5431 9.14133 71.9351 8.88C72.4857 8.52533 72.7611 8.012 72.7611 7.34C72.7611 6.98533 72.6491 6.68667 72.4251 6.444C72.2851 6.29467 72.1077 6.22 71.8931 6.22C71.5197 6.22 71.3564 6.43467 71.4031 6.864H70.6611C70.6517 6.71467 70.6471 6.53733 70.6471 6.332C70.6471 5.94933 70.6611 5.63667 70.6891 5.394C70.7451 4.89933 70.8664 4.498 71.0531 4.19C71.3611 3.66733 71.7531 3.31267 72.2291 3.126C72.7051 2.93 73.2184 2.85533 73.7691 2.902C74.2077 2.93933 74.5717 3.042 74.8611 3.21C75.2904 3.462 75.6871 3.84467 76.0511 4.358C76.4337 4.90867 76.6251 5.61333 76.6251 6.472C76.6251 6.96667 76.4991 7.48 76.2471 8.012C76.0324 8.47867 75.7991 8.824 75.5471 9.048C74.8191 9.692 73.9837 10.0093 73.0411 10V9.3C73.4797 9.3 73.8857 9.202 74.2591 9.006C74.7164 8.76333 75.0804 8.418 75.3511 7.97C75.6311 7.51267 75.7757 7.004 75.7851 6.444C75.8037 5.632 75.5424 4.92733 75.0011 4.33C74.6277 3.91933 74.2031 3.69067 73.7271 3.644C73.0644 3.57867 72.5091 3.742 72.0611 4.134C71.9304 4.246 71.8044 4.43267 71.6831 4.694C71.5431 4.99267 71.4684 5.296 71.4591 5.604C71.6364 5.47333 71.8651 5.436 72.1451 5.492C72.3224 5.52933 72.4204 5.548 72.4391 5.548C72.5977 5.604 72.7611 5.70667 72.9291 5.856C73.3211 6.21067 73.5357 6.682 73.5731 7.27C73.6197 8.07267 73.3397 8.73067 72.7331 9.244C72.1357 9.748 71.4357 10 70.6331 10C69.6997 10 68.9297 9.79467 68.3231 9.384C67.8377 9.05733 67.5157 8.62333 67.3571 8.082C67.2544 7.73667 67.2171 7.354 67.2451 6.934C67.3011 6.15933 67.6277 5.55733 68.2251 5.128C68.6171 4.848 69.1631 4.708 69.8631 4.708C69.8631 4.46533 69.8444 4.288 69.8071 4.176C69.6857 3.80267 69.4431 3.616 69.0791 3.616C68.9017 3.616 68.7524 3.67667 68.6311 3.798C68.5097 3.91933 68.4304 4.09667 68.3931 4.33C68.3651 4.526 68.3697 4.68933 68.4071 4.82H67.6091C67.5811 4.72667 67.5764 4.568 67.5951 4.344C67.6137 4.12933 67.6371 3.98467 67.6651 3.91C67.8237 3.48067 68.0617 3.196 68.3791 3.056C68.5937 2.96267 68.8411 2.91133 69.1211 2.902C69.6717 2.89267 70.0917 3.09333 70.3811 3.504C70.5397 3.74667 70.6424 4.17133 70.6891 4.778C70.6984 4.92733 70.6984 5.13267 70.6891 5.394H70.0591C69.5644 5.394 69.2144 5.436 69.0091 5.52C68.7384 5.61333 68.4957 5.83267 68.2811 6.178ZM80.0613 6.43C80.0613 5.80467 79.9353 5.21667 79.6833 4.666C79.3659 3.966 78.9319 3.616 78.3813 3.616C77.8773 3.616 77.4573 3.728 77.1213 3.952V3.21C77.2986 3.098 77.4946 3.014 77.7093 2.958C77.8866 2.91133 78.1339 2.888 78.4513 2.888C79.2353 2.888 79.8326 3.25667 80.2433 3.994C80.6633 4.722 80.8733 5.534 80.8733 6.43C80.8733 7.34467 80.6633 8.17067 80.2433 8.908C79.8326 9.636 79.2353 10 78.4513 10C78.1339 10 77.8866 9.97667 77.7093 9.93C77.4946 9.874 77.2986 9.79 77.1213 9.678V8.936C77.4573 9.16 77.8773 9.272 78.3813 9.272C78.9319 9.272 79.3659 8.91733 79.6833 8.208C79.9353 7.65733 80.0613 7.06467 80.0613 6.43ZM25.4786 20.072H24.6806C24.5966 19.596 24.6386 19.1853 24.8066 18.84C25.0959 18.2427 25.5859 17.944 26.2766 17.944C26.6779 17.944 27.0093 18.0653 27.2706 18.308C27.5413 18.5507 27.6906 18.8633 27.7186 19.246C28.3346 18.3593 29.2119 17.93 30.3506 17.958C31.5733 17.9953 32.5159 18.5273 33.1786 19.554C33.5893 20.1887 33.7806 20.884 33.7526 21.64C33.7059 22.9933 33.1039 23.9827 31.9466 24.608C31.4053 24.8973 30.6913 25.0513 29.8046 25.07V24.37C30.7286 24.3513 31.4753 24.0947 32.0446 23.6C32.6139 23.1053 32.9033 22.452 32.9126 21.64C32.9219 20.94 32.7166 20.3053 32.2966 19.736C31.8859 19.1573 31.3726 18.8213 30.7566 18.728C30.5979 18.7 30.4393 18.686 30.2806 18.686C29.3006 18.686 28.5633 19.1293 28.0686 20.016C28.1713 19.9973 28.2739 19.988 28.3766 19.988C28.8899 19.988 29.3519 20.17 29.7626 20.534C30.3039 21.01 30.5746 21.6493 30.5746 22.452C30.5746 22.7693 30.4953 23.1007 30.3366 23.446C30.1779 23.7913 29.9726 24.076 29.7206 24.3C29.0953 24.832 28.3206 25.0933 27.3966 25.084C26.3419 25.0653 25.5019 24.7433 24.8766 24.118C24.3446 23.586 24.0739 22.816 24.0646 21.808C24.0646 21.4813 24.0879 21.1687 24.1346 20.87H24.8206C24.8113 21.2807 25.0586 21.4907 25.5626 21.5C25.8613 21.5093 26.1413 21.4067 26.4026 21.192C26.6639 20.968 26.8646 20.6647 27.0046 20.282C27.1166 19.9833 27.1026 19.6333 26.9626 19.232C26.8413 18.868 26.6079 18.686 26.2626 18.686C25.9826 18.686 25.7679 18.7793 25.6186 18.966C25.4786 19.1527 25.4086 19.3767 25.4086 19.638C25.4086 19.7967 25.4319 19.9413 25.4786 20.072ZM24.8346 21.934C24.8533 22.466 24.9839 22.914 25.2266 23.278C25.4879 23.67 25.8099 23.95 26.1926 24.118C26.5099 24.2487 26.9299 24.3233 27.4526 24.342C28.0219 24.3607 28.5259 24.2067 28.9646 23.88C29.4406 23.516 29.6973 23.0493 29.7346 22.48C29.7719 22.0133 29.6366 21.598 29.3286 21.234C29.0206 20.8607 28.6519 20.674 28.2226 20.674C28.0266 20.674 27.9053 20.6833 27.8586 20.702C27.7466 20.7393 27.6206 20.856 27.4806 21.052C27.0979 21.5653 26.6826 21.9153 26.2346 22.102C26.0479 22.1767 25.8286 22.214 25.5766 22.214C25.1659 22.214 24.9186 22.1207 24.8346 21.934ZM37.1952 21.43C37.1952 20.8047 37.0692 20.2167 36.8172 19.666C36.4999 18.966 36.0659 18.616 35.5152 18.616C35.0112 18.616 34.5912 18.728 34.2552 18.952V18.21C34.4326 18.098 34.6286 18.014 34.8432 17.958C35.0206 17.9113 35.2679 17.888 35.5852 17.888C36.3692 17.888 36.9666 18.2567 37.3772 18.994C37.7972 19.722 38.0072 20.534 38.0072 21.43C38.0072 22.3447 37.7972 23.1707 37.3772 23.908C36.9666 24.636 36.3692 25 35.5852 25C35.2679 25 35.0206 24.9767 34.8432 24.93C34.6286 24.874 34.4326 24.79 34.2552 24.678V23.936C34.5912 24.16 35.0112 24.272 35.5152 24.272C36.0659 24.272 36.4999 23.9173 36.8172 23.208C37.0692 22.6573 37.1952 22.0647 37.1952 21.43ZM41.4748 18.602C41.8201 18.602 42.0581 18.7093 42.1888 18.924C42.3288 19.1387 42.3988 19.4047 42.3988 19.722H38.5488V20.394H40.0608C39.3328 20.7767 38.9688 21.4347 38.9688 22.368C38.9688 23.0493 39.1555 23.642 39.5288 24.146C39.8181 24.538 40.1961 24.804 40.6628 24.944C40.9241 25.0187 41.2461 25.0467 41.6288 25.028C42.2541 24.9907 42.7255 24.8133 43.0428 24.496C43.1641 24.3747 43.2621 24.2253 43.3368 24.048C43.4115 24.2067 43.5235 24.3653 43.6728 24.524C43.9995 24.86 44.4615 25.028 45.0588 25.028C45.6281 25.028 46.0948 24.9253 46.4588 24.72C46.8321 24.5053 47.1308 24.188 47.3548 23.768C47.5881 23.3387 47.7048 22.872 47.7048 22.368C47.7048 21.612 47.5088 21.01 47.1168 20.562C46.7901 20.1887 46.3841 19.9367 45.8988 19.806C45.6935 19.75 45.4415 19.722 45.1428 19.722H44.2748C44.2748 19.3953 44.3401 19.1293 44.4708 18.924C44.6108 18.7187 44.8535 18.6113 45.1988 18.602C45.5815 18.5833 45.8428 18.686 45.9828 18.91C46.1228 19.1247 46.1928 19.386 46.1928 19.694H47.0048C47.0048 19.162 46.8881 18.7467 46.6548 18.448C46.3561 18.0653 45.8708 17.874 45.1988 17.874C44.7321 17.874 44.3401 18.0093 44.0228 18.28C43.7148 18.5507 43.5328 18.9147 43.4768 19.372C43.4581 19.5307 43.4488 19.75 43.4488 20.03V20.394H44.8908C45.0961 20.394 45.2408 20.3987 45.3248 20.408C45.7075 20.408 46.0528 20.5713 46.3608 20.898C46.7061 21.262 46.8835 21.7147 46.8928 22.256C46.9021 22.6387 46.8228 23.0027 46.6548 23.348C46.4961 23.684 46.2815 23.9267 46.0108 24.076C45.7775 24.2067 45.5581 24.272 45.3528 24.272C44.8301 24.272 44.4241 24.1227 44.1348 23.824C43.8548 23.516 43.7148 23.1847 43.7148 22.83V22.06H42.9588V22.886C42.9588 23.194 42.8188 23.502 42.5388 23.81C42.2681 24.1087 41.8668 24.258 41.3348 24.258C40.8588 24.258 40.4808 24.0667 40.2008 23.684C39.9395 23.3293 39.8088 22.858 39.8088 22.27C39.8088 22.018 39.8695 21.766 39.9908 21.514C40.1121 21.2527 40.2615 21.0567 40.4388 20.926C40.9335 20.5713 41.4841 20.394 42.0908 20.394H43.2248V20.016C43.2248 19.624 43.1921 19.316 43.1268 19.092C42.8935 18.2893 42.3428 17.8833 41.4748 17.874C41.0735 17.8647 40.7748 17.9113 40.5788 18.014C39.9721 18.3127 39.6688 18.8727 39.6688 19.694H40.4808C40.4808 18.966 40.8121 18.602 41.4748 18.602ZM50.9578 18.056C50.2018 18.336 49.6184 18.77 49.2078 19.358C48.7784 19.9833 48.5638 20.7907 48.5638 21.78C48.5638 22.6667 48.7784 23.4413 49.2078 24.104C49.4784 24.5147 49.8471 24.79 50.3138 24.93C50.6031 25.014 50.9298 25.0467 51.2938 25.028C51.9191 24.9907 52.3904 24.8133 52.7078 24.496C52.8291 24.3747 52.9271 24.2253 53.0018 24.048C53.0764 24.2067 53.1884 24.3653 53.3378 24.524C53.6644 24.86 54.1264 25.028 54.7238 25.028C55.2931 25.028 55.7598 24.9253 56.1238 24.72C56.4971 24.5053 56.7958 24.188 57.0198 23.768C57.2531 23.3387 57.3698 22.872 57.3698 22.368C57.3698 21.612 57.1738 21.01 56.7818 20.562C56.4551 20.1887 56.0491 19.9367 55.5638 19.806C55.3584 19.75 55.1064 19.722 54.8078 19.722H53.6318C53.6318 19.3767 53.7111 19.1153 53.8698 18.938C54.0658 18.714 54.3971 18.602 54.8638 18.602C55.2558 18.602 55.5171 18.7093 55.6478 18.924C55.7878 19.1293 55.8578 19.386 55.8578 19.694H56.6698C56.6698 19.162 56.5531 18.7467 56.3198 18.448C56.0211 18.0653 55.5358 17.874 54.8638 17.874C53.8371 17.874 53.1791 18.2707 52.8898 19.064C52.8338 19.2133 52.8058 19.5353 52.8058 20.03V20.394H54.5558C54.7611 20.394 54.9058 20.3987 54.9898 20.408C55.3724 20.408 55.7178 20.5713 56.0258 20.898C56.3711 21.262 56.5484 21.7147 56.5578 22.256C56.5671 22.6387 56.4878 23.0027 56.3198 23.348C56.1611 23.684 55.9464 23.9267 55.6758 24.076C55.4424 24.2067 55.2231 24.272 55.0178 24.272C54.4951 24.272 54.0891 24.1227 53.7998 23.824C53.5198 23.516 53.3798 23.1847 53.3798 22.83V21.948H52.6238V22.886C52.6238 23.194 52.4744 23.5113 52.1758 23.838C51.8864 24.1647 51.4944 24.3047 50.9998 24.258C50.5424 24.2207 50.1738 24.0153 49.8938 23.642C49.5764 23.222 49.4084 22.648 49.3898 21.92C49.3804 21.388 49.4411 20.912 49.5718 20.492C49.7864 19.8293 50.1971 19.316 50.8038 18.952C51.2051 18.7187 51.7744 18.6113 52.5118 18.63V17.888C51.7838 17.888 51.2658 17.944 50.9578 18.056Z" fill="#1F3A6F"/>
</svg>
