<svg width="116" height="15" viewBox="0 0 116 15" fill="none" xmlns="http://www.w3.org/2000/svg">
<path d="M10.9744 12.3389C10.5115 12.9424 9.86992 13.3994 9.04961 13.71C8.2293 14.0205 7.29766 14.1758 6.25469 14.1758C5.18242 14.1758 4.2332 13.9326 3.40703 13.4463C2.58086 12.96 1.94219 12.2656 1.49102 11.3633C1.0457 10.4551 0.814259 9.39746 0.79668 8.19043V7.18848C0.79668 5.25488 1.25957 3.74609 2.18535 2.66211C3.11113 1.57227 4.40313 1.02734 6.06133 1.02734C7.48516 1.02734 8.61602 1.37891 9.45391 2.08203C10.2918 2.78516 10.7957 3.79883 10.9656 5.12305H8.78594C8.53984 3.58203 7.64629 2.81152 6.10527 2.81152C5.10918 2.81152 4.35039 3.17188 3.82891 3.89258C3.31328 4.60742 3.04668 5.65918 3.0291 7.04785V8.03223C3.0291 9.41504 3.31914 10.4902 3.89922 11.2578C4.48516 12.0195 5.29668 12.4004 6.33379 12.4004C7.47051 12.4004 8.2791 12.1426 8.75957 11.627V9.12207H6.12285V7.43457H10.9744V12.3389ZM17.5492 14.1758C16.1957 14.1758 15.0971 13.751 14.2533 12.9014C13.4154 12.0459 12.9965 10.9092 12.9965 9.49121V9.22754C12.9965 8.27832 13.1781 7.43164 13.5414 6.6875C13.9105 5.9375 14.4262 5.35449 15.0883 4.93848C15.7504 4.52246 16.4887 4.31445 17.3031 4.31445C18.598 4.31445 19.5971 4.72754 20.3002 5.55371C21.0092 6.37988 21.3637 7.54883 21.3637 9.06055V9.92188H15.1498C15.2143 10.707 15.475 11.3281 15.932 11.7852C16.3949 12.2422 16.975 12.4707 17.6723 12.4707C18.6508 12.4707 19.4477 12.0752 20.0629 11.2842L21.2143 12.3828C20.8334 12.9512 20.3236 13.3936 19.685 13.71C19.0521 14.0205 18.3402 14.1758 17.5492 14.1758ZM17.2943 6.02832C16.7084 6.02832 16.2338 6.2334 15.8705 6.64355C15.5131 7.05371 15.2846 7.625 15.185 8.35742H19.2543V8.19922C19.2074 7.48438 19.017 6.94531 18.683 6.58203C18.349 6.21289 17.8861 6.02832 17.2943 6.02832ZM25.8555 2.17871V4.49023H27.5342V6.07227H25.8555V11.3809C25.8555 11.7441 25.9258 12.0078 26.0664 12.1719C26.2129 12.3301 26.4707 12.4092 26.8398 12.4092C27.0859 12.4092 27.335 12.3799 27.5869 12.3213V13.9736C27.1006 14.1084 26.6318 14.1758 26.1807 14.1758C24.54 14.1758 23.7197 13.2705 23.7197 11.46V6.07227H22.1553V4.49023H23.7197V2.17871H25.8555ZM34.1623 14V1.20312H37.9416C39.0725 1.20312 40.0744 1.45508 40.9475 1.95898C41.8264 2.46289 42.5061 3.17773 42.9865 4.10352C43.467 5.0293 43.7072 6.08984 43.7072 7.28516V7.92676C43.7072 9.13965 43.4641 10.2061 42.9777 11.126C42.4973 12.0459 41.8088 12.7549 40.9123 13.2529C40.0217 13.751 38.9992 14 37.8449 14H34.1623ZM36.3859 2.99609V12.2246H37.8361C39.0021 12.2246 39.8957 11.8613 40.5168 11.1348C41.1437 10.4023 41.4631 9.35352 41.4748 7.98828V7.27637C41.4748 5.8877 41.173 4.82715 40.5695 4.09473C39.966 3.3623 39.09 2.99609 37.9416 2.99609H36.3859ZM48.1375 14H46.0018V4.49023H48.1375V14ZM45.8699 2.02051C45.8699 1.69238 45.9725 1.41992 46.1775 1.20312C46.3885 0.986328 46.6873 0.87793 47.074 0.87793C47.4607 0.87793 47.7596 0.986328 47.9705 1.20312C48.1814 1.41992 48.2869 1.69238 48.2869 2.02051C48.2869 2.34277 48.1814 2.6123 47.9705 2.8291C47.7596 3.04004 47.4607 3.14551 47.074 3.14551C46.6873 3.14551 46.3885 3.04004 46.1775 2.8291C45.9725 2.6123 45.8699 2.34277 45.8699 2.02051ZM55.6 6.44141C55.3188 6.39453 55.0287 6.37109 54.7299 6.37109C53.7514 6.37109 53.0922 6.74609 52.7523 7.49609V14H50.6166V4.49023H52.6557L52.7084 5.55371C53.224 4.72754 53.9389 4.31445 54.8529 4.31445C55.1576 4.31445 55.4096 4.35547 55.6088 4.4375L55.6 6.44141ZM61.1113 14.1758C59.7578 14.1758 58.6592 13.751 57.8154 12.9014C56.9775 12.0459 56.5586 10.9092 56.5586 9.49121V9.22754C56.5586 8.27832 56.7402 7.43164 57.1035 6.6875C57.4727 5.9375 57.9883 5.35449 58.6504 4.93848C59.3125 4.52246 60.0508 4.31445 60.8652 4.31445C62.1602 4.31445 63.1592 4.72754 63.8623 5.55371C64.5713 6.37988 64.9258 7.54883 64.9258 9.06055V9.92188H58.7119C58.7764 10.707 59.0371 11.3281 59.4941 11.7852C59.957 12.2422 60.5371 12.4707 61.2344 12.4707C62.2129 12.4707 63.0098 12.0752 63.625 11.2842L64.7764 12.3828C64.3955 12.9512 63.8857 13.3936 63.2471 13.71C62.6143 14.0205 61.9023 14.1758 61.1113 14.1758ZM60.8564 6.02832C60.2705 6.02832 59.7959 6.2334 59.4326 6.64355C59.0752 7.05371 58.8467 7.625 58.7471 8.35742H62.8164V8.19922C62.7695 7.48438 62.5791 6.94531 62.2451 6.58203C61.9111 6.21289 61.4482 6.02832 60.8564 6.02832ZM70.648 12.4707C71.1812 12.4707 71.6236 12.3154 71.9752 12.0049C72.3268 11.6943 72.5143 11.3105 72.5377 10.8535H74.5504C74.5269 11.4453 74.3424 11.999 73.9967 12.5146C73.651 13.0244 73.1822 13.4287 72.5904 13.7275C71.9986 14.0264 71.36 14.1758 70.6744 14.1758C69.3443 14.1758 68.2896 13.7451 67.5103 12.8838C66.731 12.0225 66.3414 10.833 66.3414 9.31543V9.0957C66.3414 7.64844 66.7281 6.49121 67.5016 5.62402C68.275 4.75098 69.3297 4.31445 70.6656 4.31445C71.7965 4.31445 72.7164 4.64551 73.4254 5.30762C74.1402 5.96387 74.5152 6.82812 74.5504 7.90039H72.5377C72.5143 7.35547 72.3268 6.90723 71.9752 6.55566C71.6295 6.2041 71.1871 6.02832 70.648 6.02832C69.9566 6.02832 69.4234 6.28027 69.0484 6.78418C68.6734 7.28223 68.483 8.04102 68.4771 9.06055V9.40332C68.4771 10.4346 68.6617 11.2051 69.0309 11.7148C69.4059 12.2188 69.9449 12.4707 70.648 12.4707ZM78.9895 2.17871V4.49023H80.6682V6.07227H78.9895V11.3809C78.9895 11.7441 79.0598 12.0078 79.2004 12.1719C79.3469 12.3301 79.6047 12.4092 79.9738 12.4092C80.2199 12.4092 80.4689 12.3799 80.7209 12.3213V13.9736C80.2346 14.1084 79.7658 14.1758 79.3147 14.1758C77.674 14.1758 76.8537 13.2705 76.8537 11.46V6.07227H75.2893V4.49023H76.8537V2.17871H78.9895ZM84.7293 14H82.5936V4.49023H84.7293V14ZM82.4617 2.02051C82.4617 1.69238 82.5643 1.41992 82.7693 1.20312C82.9803 0.986328 83.2791 0.87793 83.6658 0.87793C84.0525 0.87793 84.3514 0.986328 84.5623 1.20312C84.7732 1.41992 84.8787 1.69238 84.8787 2.02051C84.8787 2.34277 84.7732 2.6123 84.5623 2.8291C84.3514 3.04004 84.0525 3.14551 83.6658 3.14551C83.2791 3.14551 82.9803 3.04004 82.7693 2.8291C82.5643 2.6123 82.4617 2.34277 82.4617 2.02051ZM86.8129 9.15723C86.8129 8.22559 86.9975 7.3877 87.3666 6.64355C87.7357 5.89355 88.2543 5.31934 88.9223 4.9209C89.5902 4.5166 90.3578 4.31445 91.225 4.31445C92.5082 4.31445 93.5482 4.72754 94.3451 5.55371C95.1479 6.37988 95.5815 7.47559 95.6459 8.84082L95.6547 9.3418C95.6547 10.2793 95.4731 11.1172 95.1098 11.8555C94.7523 12.5938 94.2367 13.165 93.5629 13.5693C92.8949 13.9736 92.1215 14.1758 91.2426 14.1758C89.9008 14.1758 88.8256 13.7305 88.017 12.8398C87.2143 11.9434 86.8129 10.751 86.8129 9.2627V9.15723ZM88.9486 9.3418C88.9486 10.3203 89.1508 11.0879 89.5551 11.6445C89.9594 12.1953 90.5219 12.4707 91.2426 12.4707C91.9633 12.4707 92.5229 12.1895 92.9213 11.627C93.3256 11.0645 93.5277 10.2412 93.5277 9.15723C93.5277 8.19629 93.3197 7.43457 92.9037 6.87207C92.4936 6.30957 91.934 6.02832 91.225 6.02832C90.5277 6.02832 89.974 6.30664 89.5639 6.86328C89.1537 7.41406 88.9486 8.24023 88.9486 9.3418ZM99.5928 4.49023L99.6543 5.58887C100.357 4.73926 101.28 4.31445 102.423 4.31445C104.403 4.31445 105.411 5.44824 105.446 7.71582V14H103.311V7.83887C103.311 7.23535 103.179 6.79004 102.915 6.50293C102.657 6.20996 102.232 6.06348 101.641 6.06348C100.779 6.06348 100.138 6.45312 99.7158 7.23242V14H97.5801V4.49023H99.5928ZM113.111 11.416C113.111 11.0352 112.953 10.7451 112.636 10.5459C112.326 10.3467 111.807 10.1709 111.081 10.0186C110.354 9.86621 109.748 9.67285 109.261 9.43848C108.195 8.92285 107.662 8.17578 107.662 7.19727C107.662 6.37695 108.007 5.69141 108.699 5.14062C109.39 4.58984 110.269 4.31445 111.336 4.31445C112.472 4.31445 113.389 4.5957 114.087 5.1582C114.79 5.7207 115.141 6.4502 115.141 7.34668H113.005C113.005 6.93652 112.853 6.59668 112.548 6.32715C112.244 6.05176 111.839 5.91406 111.336 5.91406C110.867 5.91406 110.483 6.02246 110.184 6.23926C109.891 6.45605 109.745 6.74609 109.745 7.10938C109.745 7.4375 109.882 7.69238 110.158 7.87402C110.433 8.05566 110.99 8.24023 111.828 8.42773C112.666 8.60938 113.322 8.8291 113.796 9.08691C114.277 9.33887 114.631 9.64355 114.86 10.001C115.094 10.3584 115.212 10.792 115.212 11.3018C115.212 12.1572 114.857 12.8516 114.148 13.3848C113.439 13.9121 112.51 14.1758 111.362 14.1758C110.583 14.1758 109.888 14.0352 109.279 13.7539C108.67 13.4727 108.195 13.0859 107.855 12.5938C107.515 12.1016 107.345 11.5713 107.345 11.0029H109.42C109.449 11.5068 109.639 11.8965 109.991 12.1719C110.342 12.4414 110.808 12.5762 111.388 12.5762C111.951 12.5762 112.379 12.4707 112.671 12.2598C112.964 12.043 113.111 11.7617 113.111 11.416Z" fill="#1F3A6F"/>
</svg>
