<svg width="92" height="14" viewBox="0 0 92 14" fill="none" xmlns="http://www.w3.org/2000/svg">
<path d="M1.67537 5.848H0.863369C0.900702 4.54133 1.65204 3.888 3.11737 3.888C4.36804 3.888 5.0727 4.50867 5.23137 5.75C5.2407 5.33 5.27337 5.022 5.32937 4.826C5.41337 4.574 5.58137 4.35933 5.83337 4.182C6.08537 3.99533 6.4447 3.902 6.91137 3.902H7.90537V4.588C7.5787 4.504 7.38737 4.49467 7.33137 4.56C7.29404 4.60667 7.27537 4.65333 7.27537 4.7C7.27537 4.784 7.4107 5.022 7.68137 5.414C7.95204 5.79667 8.08737 6.142 8.08737 6.45C8.08737 6.82333 7.95204 7.12667 7.68137 7.36C7.42004 7.59333 7.0887 7.72867 6.68737 7.766C6.5287 7.78467 6.29537 7.78467 5.98737 7.766V10.216C6.37004 10.1413 6.71537 10.048 7.02337 9.936C7.21937 9.86133 7.52737 9.72133 7.94737 9.516V10.314C7.6487 10.454 7.36404 10.5707 7.09337 10.664C6.6827 10.804 6.31404 10.8927 5.98737 10.93V13.296H5.23137V11C4.86737 11.0373 4.43804 11.0467 3.94337 11.028C3.38337 11.0093 2.8747 10.944 2.41737 10.832C1.56804 10.6173 0.956702 10.2207 0.583369 9.642C0.322035 9.24067 0.191369 8.774 0.191369 8.242C0.191369 7.458 0.457369 6.83267 0.989369 6.366C1.48404 5.93667 2.12337 5.722 2.90737 5.722H4.41937C4.38204 4.966 3.96204 4.588 3.15937 4.588C2.14204 4.588 1.64737 5.008 1.67537 5.848ZM6.54737 4.56C6.17404 4.65333 5.98737 4.95667 5.98737 5.47V7.08C6.8367 7.12667 7.26137 6.884 7.26137 6.352C7.26137 6.128 7.1027 5.792 6.78537 5.344C6.58937 5.07333 6.51004 4.812 6.54737 4.56ZM5.23137 6.394H3.07537C2.50604 6.394 2.03004 6.54333 1.64737 6.842C1.22737 7.16867 1.01737 7.61667 1.01737 8.186C1.01737 8.718 1.17604 9.15667 1.49337 9.502C1.82004 9.838 2.24937 10.0573 2.78137 10.16C3.47204 10.2907 4.2887 10.3327 5.23137 10.286V6.394ZM10.341 7.192C10.0703 7.472 9.91631 7.81733 9.87898 8.228C9.82298 8.85333 10.0656 9.36667 10.607 9.768C11.0643 10.1133 11.6756 10.2813 12.441 10.272C12.9356 10.272 13.379 10.1413 13.771 9.88C14.3216 9.52533 14.597 9.012 14.597 8.34C14.597 7.98533 14.485 7.68667 14.261 7.444C14.121 7.29467 13.9436 7.22 13.729 7.22C13.3556 7.22 13.1923 7.43467 13.239 7.864H12.497C12.4876 7.71467 12.483 7.53733 12.483 7.332C12.483 6.94933 12.497 6.63667 12.525 6.394C12.581 5.89933 12.7023 5.498 12.889 5.19C13.197 4.66733 13.589 4.31267 14.065 4.126C14.541 3.93 15.0543 3.85533 15.605 3.902C16.0436 3.93933 16.4076 4.042 16.697 4.21C17.1263 4.462 17.523 4.84467 17.887 5.358C18.2696 5.90867 18.461 6.61333 18.461 7.472C18.461 7.96667 18.335 8.48 18.083 9.012C17.8683 9.47867 17.635 9.824 17.383 10.048C16.655 10.692 15.8196 11.0093 14.877 11V10.3C15.3156 10.3 15.7216 10.202 16.095 10.006C16.5523 9.76333 16.9163 9.418 17.187 8.97C17.467 8.51267 17.6116 8.004 17.621 7.444C17.6396 6.632 17.3783 5.92733 16.837 5.33C16.4636 4.91933 16.039 4.69067 15.563 4.644C14.9003 4.57867 14.345 4.742 13.897 5.134C13.7663 5.246 13.6403 5.43267 13.519 5.694C13.379 5.99267 13.3043 6.296 13.295 6.604C13.4723 6.47333 13.701 6.436 13.981 6.492C14.1583 6.52933 14.2563 6.548 14.275 6.548C14.4336 6.604 14.597 6.70667 14.765 6.856C15.157 7.21067 15.3716 7.682 15.409 8.27C15.4556 9.07267 15.1756 9.73067 14.569 10.244C13.9716 10.748 13.2716 11 12.469 11C11.5263 11 10.7563 10.7993 10.159 10.398C9.66431 10.062 9.33764 9.63267 9.17898 9.11C9.06698 8.72733 9.03898 8.354 9.09498 7.99C9.14164 7.69133 9.24431 7.41133 9.40298 7.15C9.61764 6.79533 9.89298 6.55267 10.229 6.422H8.59098V5.708H11.699C11.699 5.46533 11.6803 5.288 11.643 5.176C11.5216 4.80267 11.279 4.616 10.915 4.616C10.7376 4.616 10.5836 4.68133 10.453 4.812C10.285 4.98 10.201 5.24133 10.201 5.596H9.41698C9.37031 5.36267 9.39364 5.134 9.48698 4.91C9.66431 4.48067 9.90698 4.196 10.215 4.056C10.4296 3.96267 10.677 3.91133 10.957 3.902C11.5076 3.89267 11.9276 4.09333 12.217 4.504C12.3756 4.74667 12.4783 5.17133 12.525 5.778C12.5343 5.92733 12.5343 6.13267 12.525 6.394H12.301C12.0583 6.394 11.8063 6.422 11.545 6.478C11.1063 6.57133 10.705 6.80933 10.341 7.192ZM20.2975 6.03H19.4855C19.3455 5.68467 19.2989 5.36267 19.3455 5.064C19.4015 4.70933 19.5602 4.42933 19.8215 4.224C20.0829 4.00933 20.4002 3.91133 20.7735 3.93C21.6695 3.97667 22.1315 4.46667 22.1595 5.4C22.1782 5.94133 22.0522 6.45933 21.7815 6.954C21.5202 7.32733 21.2589 7.70533 20.9975 8.088C20.5029 8.80667 20.2415 9.38533 20.2135 9.824C20.4842 9.66533 20.7782 9.586 21.0955 9.586C21.3942 9.586 21.7489 9.70267 22.1595 9.936C22.5795 10.16 22.9482 10.272 23.2655 10.272C23.6762 10.272 24.0122 10.1413 24.2735 9.88C24.5349 9.60933 24.6842 9.26867 24.7215 8.858C24.7589 8.37267 24.6375 7.96667 24.3575 7.64C24.1802 7.43467 23.8395 7.18267 23.3355 6.884C22.9529 6.66 22.6869 6.43133 22.5375 6.198C22.3882 5.95533 22.3182 5.62867 22.3275 5.218C22.3369 4.81667 22.4815 4.49933 22.7615 4.266C23.0415 4.02333 23.3962 3.902 23.8255 3.902C24.5909 3.902 25.0622 4.23333 25.2395 4.896C25.2675 4.99867 25.2815 5.11067 25.2815 5.232C25.2815 5.46533 25.2302 5.708 25.1275 5.96H24.3015C24.4415 5.708 24.4929 5.46533 24.4555 5.232C24.3902 4.84 24.1849 4.63933 23.8395 4.63C23.4569 4.61133 23.2375 4.798 23.1815 5.19C23.1442 5.47 23.2189 5.722 23.4055 5.946C23.5269 6.09533 23.7602 6.27733 24.1055 6.492C24.6095 6.80933 24.9689 7.11733 25.1835 7.416C25.4449 7.78933 25.5709 8.23733 25.5615 8.76C25.5429 9.44133 25.3282 9.98733 24.9175 10.398C24.5069 10.7993 23.9375 11.0093 23.2095 11.028C22.8455 11.0373 22.4582 10.9347 22.0475 10.72C21.5995 10.4867 21.2355 10.3607 20.9555 10.342C20.4702 10.314 20.1762 10.5007 20.0735 10.902H19.3455C19.3455 10.2953 19.3735 9.86133 19.4295 9.6C19.5135 9.16133 19.7095 8.68533 20.0175 8.172C20.3069 7.752 20.5915 7.332 20.8715 6.912C21.1609 6.48267 21.3242 6.05333 21.3615 5.624C21.3895 5.344 21.3429 5.11067 21.2215 4.924C21.1095 4.728 20.9369 4.63467 20.7035 4.644C20.3582 4.65333 20.1669 4.84 20.1295 5.204C20.0922 5.55867 20.1482 5.834 20.2975 6.03ZM27.8269 6.072H27.0289C26.9449 5.596 26.9869 5.18533 27.1549 4.84C27.4442 4.24267 27.9342 3.944 28.6249 3.944C29.0262 3.944 29.3575 4.06533 29.6189 4.308C29.8895 4.55067 30.0389 4.86333 30.0669 5.246C30.6829 4.35933 31.5602 3.93 32.6989 3.958C33.9215 3.99533 34.8642 4.52733 35.5269 5.554C35.9375 6.18867 36.1289 6.884 36.1009 7.64C36.0542 8.99333 35.4522 9.98267 34.2949 10.608C33.7535 10.8973 33.0395 11.0513 32.1529 11.07V10.37C33.0769 10.3513 33.8235 10.0947 34.3929 9.6C34.9622 9.10533 35.2515 8.452 35.2609 7.64C35.2702 6.94 35.0649 6.30533 34.6449 5.736C34.2342 5.15733 33.7209 4.82133 33.1049 4.728C32.9462 4.7 32.7875 4.686 32.6289 4.686C31.6489 4.686 30.9115 5.12933 30.4169 6.016C30.5195 5.99733 30.6222 5.988 30.7249 5.988C31.2382 5.988 31.7002 6.17 32.1109 6.534C32.6522 7.01 32.9229 7.64933 32.9229 8.452C32.9229 8.76933 32.8435 9.10067 32.6849 9.446C32.5262 9.79133 32.3209 10.076 32.0689 10.3C31.4435 10.832 30.6689 11.0933 29.7449 11.084C28.6902 11.0653 27.8502 10.7433 27.2249 10.118C26.6929 9.586 26.4222 8.816 26.4129 7.808C26.4129 7.48133 26.4362 7.16867 26.4829 6.87H27.1689C27.1595 7.28067 27.4069 7.49067 27.9109 7.5C28.2095 7.50933 28.4895 7.40667 28.7509 7.192C29.0122 6.968 29.2129 6.66467 29.3529 6.282C29.4649 5.98333 29.4509 5.63333 29.3109 5.232C29.1895 4.868 28.9562 4.686 28.6109 4.686C28.3309 4.686 28.1162 4.77933 27.9669 4.966C27.8269 5.15267 27.7569 5.37667 27.7569 5.638C27.7569 5.79667 27.7802 5.94133 27.8269 6.072ZM27.1829 7.934C27.2015 8.466 27.3322 8.914 27.5749 9.278C27.8362 9.67 28.1582 9.95 28.5409 10.118C28.8582 10.2487 29.2782 10.3233 29.8009 10.342C30.3702 10.3607 30.8742 10.2067 31.3129 9.88C31.7889 9.516 32.0455 9.04933 32.0829 8.48C32.1202 8.01333 31.9849 7.598 31.6769 7.234C31.3689 6.86067 31.0002 6.674 30.5709 6.674C30.3749 6.674 30.2535 6.68333 30.2069 6.702C30.0949 6.73933 29.9689 6.856 29.8289 7.052C29.4462 7.56533 29.0309 7.91533 28.5829 8.102C28.3962 8.17667 28.1769 8.214 27.9249 8.214C27.5142 8.214 27.2669 8.12067 27.1829 7.934ZM34.5875 2.53C34.7555 2.65133 34.9375 2.698 35.1335 2.67C35.3201 2.642 35.4601 2.572 35.5535 2.46C35.6468 2.33867 35.6841 2.18467 35.6655 1.998C35.6468 1.79267 35.5955 1.65267 35.5115 1.578C35.3808 1.466 35.2455 1.41467 35.1055 1.424C34.9841 1.43333 34.8768 1.47067 34.7835 1.536C34.6528 1.62 34.5875 1.72267 34.5875 1.844V2.53ZM33.8315 1.914C33.8315 1.718 33.7568 1.58733 33.6075 1.522C33.4488 1.45667 33.2855 1.46133 33.1175 1.536C32.9401 1.61067 32.8141 1.71333 32.7395 1.844V1.06C33.0195 0.826666 33.3228 0.724 33.6495 0.751999C33.7988 0.761333 33.9388 0.808 34.0695 0.891999C34.1441 0.938666 34.2281 1.00867 34.3215 1.102C34.4148 0.99 34.5455 0.901333 34.7135 0.836C34.8815 0.770666 35.0728 0.742666 35.2875 0.751999C35.6141 0.770666 35.8895 0.882666 36.1135 1.088C36.3281 1.29333 36.4448 1.58267 36.4635 1.956C36.4728 2.264 36.4215 2.51133 36.3095 2.698C36.1881 2.88467 36.0341 3.02933 35.8475 3.132C35.6235 3.25333 35.3808 3.30467 35.1195 3.286C34.8675 3.26733 34.6901 3.22533 34.5875 3.16V4.742C34.5128 4.658 34.3915 4.55067 34.2235 4.42C34.0741 4.32667 33.9435 4.26133 33.8315 4.224V1.914ZM39.2582 6.716C39.1555 6.80933 38.7868 7.17333 38.1522 7.808C38.3575 7.864 38.4975 7.98533 38.5722 8.172C38.6002 8.23733 38.6142 8.30267 38.6142 8.368C38.6142 8.43333 38.5815 8.55933 38.5162 8.746C38.4508 8.92333 38.4322 9.07733 38.4602 9.208C38.6095 9.97333 39.3328 10.3467 40.6302 10.328C41.2928 10.3187 41.8622 10.1367 42.3382 9.782C42.8608 9.39 43.1222 8.86267 43.1222 8.2C43.1222 7.54667 42.8935 7.01467 42.4362 6.604C41.9882 6.184 41.4422 5.97867 40.7982 5.988C40.4715 5.99733 40.1868 6.06267 39.9442 6.184C39.7668 6.27733 39.5382 6.45467 39.2582 6.716ZM38.3062 5.386C38.2688 5.582 38.2968 5.77333 38.3902 5.96H37.5642C37.4988 5.624 37.5268 5.26933 37.6482 4.896C37.7415 4.60667 37.9282 4.37333 38.2082 4.196C38.4882 4.01867 38.8008 3.93467 39.1462 3.944C39.8648 3.96267 40.2942 4.266 40.4342 4.854C41.3208 4.21933 42.2822 3.90667 43.3182 3.916C44.3728 3.92533 45.2502 4.28 45.9502 4.98C46.6595 5.67067 47.0142 6.53867 47.0142 7.584C47.0142 8.18133 46.8928 8.73667 46.6502 9.25C46.4075 9.754 46.0902 10.132 45.6982 10.384C45.0448 10.804 44.2002 11.014 43.1642 11.014V10.342C43.7802 10.342 44.3168 10.2393 44.7742 10.034C45.2035 9.838 45.5442 9.52533 45.7962 9.096C46.0575 8.65733 46.1882 8.16267 46.1882 7.612C46.1882 6.8 45.9175 6.10933 45.3762 5.54C44.8348 4.96133 44.1582 4.672 43.3462 4.672C42.4688 4.672 41.6802 4.90533 40.9802 5.372C41.7082 5.30667 42.3242 5.47467 42.8282 5.876C43.5935 6.492 43.9715 7.25733 43.9622 8.172C43.9528 9.04 43.6215 9.74467 42.9682 10.286C42.3522 10.79 41.5775 11.042 40.6442 11.042C39.8415 11.042 39.2255 10.958 38.7962 10.79C38.1895 10.5567 37.8115 10.132 37.6622 9.516C37.6342 9.41333 37.6202 9.31533 37.6202 9.222C37.6202 9.09133 37.6435 8.956 37.6902 8.816C37.7462 8.676 37.7742 8.58733 37.7742 8.55C37.7742 8.438 37.7275 8.382 37.6342 8.382C37.4662 8.382 37.3028 8.49867 37.1442 8.732V7.822C37.5828 7.318 38.0122 6.86067 38.4322 6.45C38.7868 6.12333 39.2022 5.74067 39.6782 5.302C39.6875 5.25533 39.6922 5.20867 39.6922 5.162C39.6922 4.826 39.4728 4.66733 39.0342 4.686C38.6328 4.69533 38.3902 4.92867 38.3062 5.386ZM51.6429 4.602C50.8309 4.59267 50.1355 4.868 49.5569 5.428C48.9782 5.988 48.6842 6.66 48.6749 7.444C48.6655 8.24667 48.9595 8.928 49.5569 9.488C50.0889 9.992 50.7982 10.2487 51.6849 10.258C52.4782 10.2673 53.1549 10.006 53.7149 9.474C54.2842 8.93267 54.5735 8.256 54.5829 7.444C54.5922 6.64133 54.3029 5.96933 53.7149 5.428C53.1362 4.88667 52.4455 4.61133 51.6429 4.602ZM55.3949 7.416C55.4042 8.48933 55.0495 9.35733 54.3309 10.02C53.6215 10.6733 52.7255 11 51.6429 11C50.5602 11 49.6595 10.6733 48.9409 10.02C48.2222 9.36667 47.8629 8.508 47.8629 7.444C47.8629 6.8 48.0169 6.226 48.3249 5.722C48.3249 5.71267 48.5255 5.456 48.9269 4.952C49.0295 4.82133 49.4355 4.53667 50.1449 4.098C50.5369 3.86467 50.9335 3.63133 51.3349 3.398C51.7922 3.09933 52.1189 2.81 52.3149 2.53C52.5109 2.25 52.6555 1.984 52.7489 1.732H53.6309C53.5469 2.096 53.3695 2.46467 53.0989 2.838C52.8095 3.23933 52.4175 3.58467 51.9229 3.874C52.1935 3.91133 52.3895 3.93933 52.5109 3.958C52.7069 4.00467 52.9309 4.07467 53.1829 4.168C53.8549 4.42 54.3869 4.84467 54.7789 5.442C55.1802 6.03933 55.3855 6.69733 55.3949 7.416ZM65.1499 6.45C64.8699 6.45 64.6366 6.54333 64.4499 6.73C64.2726 6.90733 64.1839 7.12667 64.1839 7.388C64.1839 7.64933 64.2586 7.87333 64.4079 8.06C64.5666 8.23733 64.7952 8.326 65.0939 8.326C65.3739 8.326 65.5979 8.242 65.7659 8.074C65.9339 7.906 66.0179 7.69133 66.0179 7.43C66.0179 7.15 65.9386 6.91667 65.7799 6.73C65.6306 6.54333 65.4206 6.45 65.1499 6.45ZM66.8579 7.472C66.8579 7.976 66.6899 8.37733 66.3539 8.676C66.0272 8.96533 65.6072 9.11 65.0939 9.11C64.5899 9.11 64.1746 8.956 63.8479 8.648C63.5212 8.34 63.3579 7.934 63.3579 7.43C63.3579 6.94467 63.5259 6.534 63.8619 6.198C64.1979 5.862 64.6226 5.68 65.1359 5.652C65.5559 5.624 65.9246 5.64733 66.2419 5.722C66.5312 5.78733 66.8159 5.918 67.0959 6.114C67.4319 6.35667 67.6932 6.646 67.8799 6.982C68.0946 7.38333 68.1926 7.85933 68.1739 8.41C68.1552 8.89533 68.0152 9.31067 67.7539 9.656C67.5206 9.964 67.2686 10.2113 66.9979 10.398C66.6712 10.6313 66.3026 10.7993 65.8919 10.902C65.6399 10.9673 65.2432 11.0047 64.7019 11.014C64.2072 11.0233 63.7312 10.9113 63.2739 10.678C62.7886 10.4353 62.4059 10.1273 62.1259 9.754C61.8552 9.38067 61.6592 9.00733 61.5379 8.634C61.4259 8.25133 61.3699 7.84533 61.3699 7.416C61.3699 6.97733 61.4446 6.55733 61.5939 6.156C61.7152 5.82 61.9159 5.47933 62.1959 5.134C62.4386 4.826 62.7139 4.58333 63.0219 4.406C63.2739 4.25667 63.5166 4.14467 63.7499 4.07C64.1512 3.93933 64.5386 3.874 64.9119 3.874C65.5559 3.874 66.1346 4 66.6479 4.252C67.1706 4.49467 67.5299 4.91467 67.7259 5.512H66.8719C66.7039 5.19467 66.4752 4.97067 66.1859 4.84C65.8966 4.7 65.5979 4.62067 65.2899 4.602C64.9912 4.58333 64.7486 4.588 64.5619 4.616C64.2259 4.672 63.9366 4.76533 63.6939 4.896C63.3206 5.11067 63.0079 5.39067 62.7559 5.736C62.3919 6.24933 62.2052 6.79067 62.1959 7.36C62.1866 7.77067 62.2332 8.13933 62.3359 8.466C62.4572 8.84867 62.6346 9.15667 62.8679 9.39C63.1852 9.70733 63.4932 9.93133 63.7919 10.062C64.0999 10.1927 64.4406 10.258 64.8139 10.258C65.1966 10.258 65.5512 10.202 65.8779 10.09C66.0739 10.0247 66.2512 9.936 66.4099 9.824C66.6152 9.684 66.8206 9.488 67.0259 9.236C67.2312 8.97467 67.3386 8.67133 67.3479 8.326C67.3572 7.906 67.3012 7.57467 67.1799 7.332C67.0679 7.08933 66.9186 6.87467 66.7319 6.688C66.6852 6.64133 66.6059 6.58067 66.4939 6.506C66.5406 6.54333 66.6059 6.62267 66.6899 6.744C66.7459 6.83733 66.7879 6.94467 66.8159 7.066C66.8439 7.29 66.8579 7.42533 66.8579 7.472ZM72.8057 4.602C71.9937 4.59267 71.2984 4.868 70.7197 5.428C70.1411 5.988 69.8471 6.66 69.8377 7.444C69.8284 8.24667 70.1224 8.928 70.7197 9.488C71.2517 9.992 71.9611 10.2487 72.8477 10.258C73.6411 10.2673 74.3177 10.006 74.8777 9.474C75.4471 8.93267 75.7364 8.256 75.7457 7.444C75.7551 6.64133 75.4657 5.96933 74.8777 5.428C74.2991 4.88667 73.6084 4.61133 72.8057 4.602ZM76.5577 7.416C76.5671 8.48933 76.2124 9.35733 75.4937 10.02C74.7844 10.6733 73.8884 11 72.8057 11C71.7231 11 70.8224 10.6733 70.1037 10.02C69.3851 9.36667 69.0257 8.508 69.0257 7.444C69.0257 6.8 69.1797 6.226 69.4877 5.722C69.4877 5.71267 69.6884 5.456 70.0897 4.952C70.1924 4.82133 70.5984 4.53667 71.3077 4.098C71.6997 3.86467 72.0964 3.63133 72.4977 3.398C72.9551 3.09933 73.2817 2.81 73.4777 2.53C73.6737 2.25 73.8184 1.984 73.9117 1.732H74.7937C74.7097 2.096 74.5324 2.46467 74.2617 2.838C73.9724 3.23933 73.5804 3.58467 73.0857 3.874C73.3564 3.91133 73.5524 3.93933 73.6737 3.958C73.8697 4.00467 74.0937 4.07467 74.3457 4.168C75.0177 4.42 75.5497 4.84467 75.9417 5.442C76.3431 6.03933 76.5484 6.69733 76.5577 7.416ZM79.9962 7.43C79.9962 6.80467 79.8702 6.21667 79.6182 5.666C79.3009 4.966 78.8669 4.616 78.3162 4.616C77.8122 4.616 77.3922 4.728 77.0562 4.952V4.21C77.2335 4.098 77.4295 4.014 77.6442 3.958C77.8215 3.91133 78.0689 3.888 78.3862 3.888C79.1702 3.888 79.7675 4.25667 80.1782 4.994C80.5982 5.722 80.8082 6.534 80.8082 7.43C80.8082 8.34467 80.5982 9.17067 80.1782 9.908C79.7675 10.636 79.1702 11 78.3862 11C78.0689 11 77.8215 10.9767 77.6442 10.93C77.4295 10.874 77.2335 10.79 77.0562 10.678V9.936C77.3922 10.16 77.8122 10.272 78.3162 10.272C78.8669 10.272 79.3009 9.91733 79.6182 9.208C79.8702 8.65733 79.9962 8.06467 79.9962 7.43ZM79.2918 2.53C79.4598 2.65133 79.6418 2.698 79.8378 2.67C80.0244 2.642 80.1644 2.572 80.2578 2.46C80.3511 2.33867 80.3884 2.18467 80.3698 1.998C80.3511 1.79267 80.2998 1.65267 80.2158 1.578C80.0851 1.466 79.9498 1.41467 79.8098 1.424C79.6884 1.43333 79.5811 1.47067 79.4878 1.536C79.3571 1.62 79.2918 1.72267 79.2918 1.844V2.53ZM78.5358 1.914C78.5358 1.718 78.4611 1.58733 78.3118 1.522C78.1531 1.45667 77.9898 1.46133 77.8218 1.536C77.6444 1.61067 77.5184 1.71333 77.4438 1.844V1.06C77.7238 0.826666 78.0271 0.724 78.3538 0.751999C78.5031 0.761333 78.6431 0.808 78.7738 0.891999C78.8484 0.938666 78.9324 1.00867 79.0258 1.102C79.1191 0.99 79.2498 0.901333 79.4178 0.836C79.5858 0.770666 79.7771 0.742666 79.9918 0.751999C80.3184 0.770666 80.5938 0.882666 80.8178 1.088C81.0324 1.29333 81.1491 1.58267 81.1678 1.956C81.1771 2.264 81.1258 2.51133 81.0138 2.698C80.8924 2.88467 80.7384 3.02933 80.5518 3.132C80.3278 3.25333 80.0851 3.30467 79.8238 3.286C79.5718 3.26733 79.3944 3.22533 79.2918 3.16V4.742C79.2171 4.658 79.0958 4.55067 78.9278 4.42C78.7784 4.32667 78.6478 4.26133 78.5358 4.224V1.914ZM85.5165 3.888V4.588C84.9845 4.57867 84.5598 4.63467 84.2425 4.756C84.0185 4.85867 83.7665 5.04533 83.4865 5.316C82.9545 5.82933 82.6885 6.58533 82.6885 7.584C82.6885 8.368 82.8938 8.998 83.3045 9.474C83.7618 10.006 84.3591 10.272 85.0965 10.272C85.8618 10.272 86.3985 10.0993 86.7065 9.754C87.0705 9.35267 87.2525 8.886 87.2525 8.354C87.2525 8.02733 87.1685 7.74267 87.0005 7.5C86.8325 7.25733 86.5991 7.136 86.3005 7.136C85.8711 7.136 85.6565 7.36 85.6565 7.808C85.6565 7.87333 85.6611 7.93867 85.6705 8.004H84.9005C84.8725 7.78933 84.8585 7.56067 84.8585 7.318C84.8585 6.58067 84.9938 5.96467 85.2645 5.47C85.8525 4.41533 86.7905 3.888 88.0785 3.888C89.0025 3.888 89.7678 4.25667 90.3745 4.994C90.9811 5.73133 91.2705 6.58533 91.2425 7.556C91.2145 8.61067 90.8691 9.46 90.2065 10.104C89.5438 10.748 88.6385 11.0513 87.4905 11.014V10.314C88.3678 10.314 89.0631 10.09 89.5765 9.642C90.1365 9.15667 90.4165 8.43333 90.4165 7.472C90.4165 6.716 90.1971 6.058 89.7585 5.498C89.2918 4.91 88.7085 4.616 88.0085 4.616C87.3458 4.616 86.8091 4.82133 86.3985 5.232C85.9971 5.63333 85.7591 6.09533 85.6845 6.618C85.9458 6.45933 86.2351 6.38 86.5525 6.38C87.0285 6.38933 87.4111 6.60867 87.7005 7.038C87.9525 7.42067 88.0785 7.88267 88.0785 8.424C88.0785 9.14267 87.8125 9.768 87.2805 10.3C86.8325 10.748 86.0998 10.9813 85.0825 11C84.1025 11.0187 83.3091 10.6733 82.7025 9.964C82.1518 9.32 81.8765 8.494 81.8765 7.486C81.8765 6.45 82.2031 5.568 82.8565 4.84C83.4725 4.15867 84.3591 3.84133 85.5165 3.888Z" fill="#1F3A6F"/>
</svg>
