<svg width="58" height="28" viewBox="0 0 58 28" fill="none" xmlns="http://www.w3.org/2000/svg">
<path d="M7.33848 11H5.61582V1.04688H7.33848V11ZM10.9953 3.60352L11.0432 4.45801C11.59 3.7972 12.3078 3.4668 13.1965 3.4668C14.7368 3.4668 15.5207 4.34863 15.548 6.1123V11H13.8869V6.20801C13.8869 5.73861 13.7844 5.39225 13.5793 5.16895C13.3788 4.94108 13.0484 4.82715 12.5881 4.82715C11.9182 4.82715 11.4191 5.13021 11.091 5.73633V11H9.42988V3.60352H10.9953ZM19.4783 1.80566V3.60352H20.784V4.83398H19.4783V8.96289C19.4783 9.24544 19.533 9.45052 19.6424 9.57812C19.7563 9.70117 19.9568 9.7627 20.2439 9.7627C20.4354 9.7627 20.629 9.73991 20.825 9.69434V10.9795C20.4467 11.0843 20.0822 11.1367 19.7313 11.1367C18.4552 11.1367 17.8172 10.4326 17.8172 9.02441V4.83398H16.6004V3.60352H17.8172V1.80566H19.4783ZM25.4662 11.1367C24.4135 11.1367 23.559 10.8063 22.9027 10.1455C22.251 9.48014 21.9252 8.59603 21.9252 7.49316V7.28809C21.9252 6.5498 22.0665 5.89128 22.349 5.3125C22.6361 4.72917 23.0372 4.27572 23.5521 3.95215C24.0671 3.62858 24.6413 3.4668 25.2748 3.4668C26.282 3.4668 27.059 3.78809 27.6059 4.43066C28.1573 5.07324 28.433 5.98242 28.433 7.1582V7.82812H23.6C23.6501 8.4388 23.8529 8.92188 24.2084 9.27734C24.5684 9.63281 25.0196 9.81055 25.5619 9.81055C26.323 9.81055 26.9428 9.50293 27.4213 8.8877L28.3168 9.74219C28.0206 10.1842 27.6241 10.5283 27.1273 10.7744C26.6352 11.016 26.0814 11.1367 25.4662 11.1367ZM25.268 4.7998C24.8122 4.7998 24.4431 4.95931 24.1605 5.27832C23.8826 5.59733 23.7048 6.04167 23.6273 6.61133H26.7924V6.48828C26.7559 5.93229 26.6078 5.51302 26.348 5.23047C26.0883 4.94336 25.7283 4.7998 25.268 4.7998ZM33.751 5.12109C33.5322 5.08464 33.3066 5.06641 33.0742 5.06641C32.3132 5.06641 31.8005 5.35807 31.5361 5.94141V11H29.875V3.60352H31.4609L31.502 4.43066C31.903 3.78809 32.459 3.4668 33.1699 3.4668C33.4069 3.4668 33.6029 3.4987 33.7578 3.5625L33.751 5.12109ZM36.4918 3.60352L36.5396 4.45801C37.0865 3.7972 37.8043 3.4668 38.693 3.4668C40.2333 3.4668 41.0172 4.34863 41.0445 6.1123V11H39.3834V6.20801C39.3834 5.73861 39.2809 5.39225 39.0758 5.16895C38.8753 4.94108 38.5449 4.82715 38.0846 4.82715C37.4146 4.82715 36.9156 5.13021 36.5875 5.73633V11H34.9264V3.60352H36.4918ZM47.3127 11C47.2398 10.8587 47.176 10.6286 47.1213 10.3096C46.5926 10.861 45.9455 11.1367 45.1799 11.1367C44.437 11.1367 43.8309 10.9248 43.3615 10.501C42.8921 10.0771 42.6574 9.55306 42.6574 8.92871C42.6574 8.1403 42.9491 7.53646 43.5324 7.11719C44.1203 6.69336 44.9589 6.48145 46.048 6.48145H47.0666V5.99609C47.0666 5.61328 46.9595 5.30794 46.7453 5.08008C46.5311 4.84766 46.2053 4.73145 45.7678 4.73145C45.3895 4.73145 45.0796 4.82715 44.8381 5.01855C44.5966 5.2054 44.4758 5.44466 44.4758 5.73633H42.8147C42.8147 5.33073 42.9491 4.95247 43.218 4.60156C43.4869 4.24609 43.8514 3.9681 44.3117 3.76758C44.7766 3.56706 45.2938 3.4668 45.8635 3.4668C46.7294 3.4668 47.4198 3.68555 47.9348 4.12305C48.4497 4.55599 48.7141 5.16667 48.7277 5.95508V9.29102C48.7277 9.95638 48.8212 10.4873 49.008 10.8838V11H47.3127ZM45.4875 9.80371C45.8156 9.80371 46.1232 9.72396 46.4104 9.56445C46.702 9.40495 46.9208 9.19076 47.0666 8.92188V7.52734H46.1711C45.5559 7.52734 45.0933 7.63444 44.7834 7.84863C44.4735 8.06283 44.3186 8.36589 44.3186 8.75781C44.3186 9.07682 44.4234 9.33203 44.633 9.52344C44.8472 9.71029 45.132 9.80371 45.4875 9.80371ZM52.3846 11H50.7234V0.5H52.3846V11ZM2.90879 17.0469L5.77988 24.6758L8.64414 17.0469H10.8795V27H9.15684V23.7188L9.32773 19.3301L6.38828 27H5.15098L2.21836 19.3369L2.38926 23.7188V27H0.666601V17.0469H2.90879ZM16.177 27.1367C15.1242 27.1367 14.2697 26.8063 13.6135 26.1455C12.9618 25.4801 12.6359 24.596 12.6359 23.4932V23.2881C12.6359 22.5498 12.7772 21.8913 13.0598 21.3125C13.3469 20.7292 13.7479 20.2757 14.2629 19.9521C14.7779 19.6286 15.3521 19.4668 15.9855 19.4668C16.9927 19.4668 17.7697 19.7881 18.3166 20.4307C18.868 21.0732 19.1437 21.9824 19.1437 23.1582V23.8281H14.3107C14.3609 24.4388 14.5637 24.9219 14.9191 25.2773C15.2792 25.6328 15.7303 25.8105 16.2727 25.8105C17.0337 25.8105 17.6535 25.5029 18.132 24.8877L19.0275 25.7422C18.7313 26.1842 18.3348 26.5283 17.8381 26.7744C17.3459 27.016 16.7922 27.1367 16.177 27.1367ZM15.9787 20.7998C15.523 20.7998 15.1538 20.9593 14.8713 21.2783C14.5933 21.5973 14.4156 22.0417 14.3381 22.6113H17.5031V22.4883C17.4667 21.9323 17.3186 21.513 17.0588 21.2305C16.799 20.9434 16.439 20.7998 15.9787 20.7998ZM20.2781 23.2471C20.2781 22.1077 20.5424 21.194 21.0711 20.5059C21.5997 19.8132 22.3084 19.4668 23.1971 19.4668C23.9809 19.4668 24.6144 19.7402 25.0975 20.2871V16.5H26.7586V27H25.2547L25.1727 26.2344C24.6759 26.8359 24.0128 27.1367 23.1834 27.1367C22.3175 27.1367 21.6157 26.7881 21.0779 26.0908C20.5447 25.3936 20.2781 24.4456 20.2781 23.2471ZM21.9393 23.3906C21.9393 24.1426 22.0828 24.7305 22.3699 25.1543C22.6616 25.5736 23.074 25.7832 23.6072 25.7832C24.2863 25.7832 24.783 25.4801 25.0975 24.874V21.7158C24.7921 21.1234 24.2999 20.8271 23.6209 20.8271C23.0831 20.8271 22.6684 21.0413 22.3768 21.4697C22.0851 21.8936 21.9393 22.5339 21.9393 23.3906ZM30.4086 27H28.7475V19.6035H30.4086V27ZM28.6449 17.6826C28.6449 17.4274 28.7247 17.2155 28.8842 17.0469C29.0482 16.8783 29.2807 16.7939 29.5814 16.7939C29.8822 16.7939 30.1146 16.8783 30.2787 17.0469C30.4428 17.2155 30.5248 17.4274 30.5248 17.6826C30.5248 17.9333 30.4428 18.1429 30.2787 18.3115C30.1146 18.4756 29.8822 18.5576 29.5814 18.5576C29.2807 18.5576 29.0482 18.4756 28.8842 18.3115C28.7247 18.1429 28.6449 17.9333 28.6449 17.6826ZM35.4121 25.8105C35.8268 25.8105 36.1709 25.6898 36.4443 25.4482C36.7178 25.2067 36.8636 24.9082 36.8818 24.5527H38.4473C38.429 25.013 38.2855 25.4437 38.0166 25.8447C37.7477 26.2412 37.3831 26.5557 36.9229 26.7881C36.4626 27.0205 35.9658 27.1367 35.4326 27.1367C34.3981 27.1367 33.5778 26.8018 32.9717 26.1318C32.3656 25.4619 32.0625 24.5368 32.0625 23.3564V23.1855C32.0625 22.0599 32.3633 21.1598 32.9648 20.4854C33.5664 19.8063 34.3867 19.4668 35.4258 19.4668C36.3053 19.4668 37.0208 19.7243 37.5723 20.2393C38.1283 20.7497 38.4199 21.4219 38.4473 22.2559H36.8818C36.8636 21.832 36.7178 21.4834 36.4443 21.21C36.1755 20.9365 35.8314 20.7998 35.4121 20.7998C34.8743 20.7998 34.4596 20.9958 34.168 21.3877C33.8763 21.7751 33.7282 22.3652 33.7236 23.1582V23.4248C33.7236 24.2269 33.8672 24.8262 34.1543 25.2227C34.446 25.6146 34.8652 25.8105 35.4121 25.8105ZM41.6188 27H39.9576V19.6035H41.6188V27ZM39.8551 17.6826C39.8551 17.4274 39.9348 17.2155 40.0943 17.0469C40.2584 16.8783 40.4908 16.7939 40.7916 16.7939C41.0924 16.7939 41.3248 16.8783 41.4889 17.0469C41.6529 17.2155 41.735 17.4274 41.735 17.6826C41.735 17.9333 41.6529 18.1429 41.4889 18.3115C41.3248 18.4756 41.0924 18.5576 40.7916 18.5576C40.4908 18.5576 40.2584 18.4756 40.0943 18.3115C39.9348 18.1429 39.8551 17.9333 39.8551 17.6826ZM45.1252 19.6035L45.173 20.458C45.7199 19.7972 46.4377 19.4668 47.3264 19.4668C48.8667 19.4668 49.6506 20.3486 49.6779 22.1123V27H48.0168V22.208C48.0168 21.7386 47.9143 21.3923 47.7092 21.1689C47.5087 20.9411 47.1783 20.8271 46.718 20.8271C46.048 20.8271 45.549 21.1302 45.2209 21.7363V27H43.5598V19.6035H45.1252ZM54.784 27.1367C53.7312 27.1367 52.8768 26.8063 52.2205 26.1455C51.5688 25.4801 51.243 24.596 51.243 23.4932V23.2881C51.243 22.5498 51.3842 21.8913 51.6668 21.3125C51.9539 20.7292 52.3549 20.2757 52.8699 19.9521C53.3849 19.6286 53.9591 19.4668 54.5926 19.4668C55.5997 19.4668 56.3768 19.7881 56.9236 20.4307C57.4751 21.0732 57.7508 21.9824 57.7508 23.1582V23.8281H52.9178C52.9679 24.4388 53.1707 24.9219 53.5262 25.2773C53.8862 25.6328 54.3374 25.8105 54.8797 25.8105C55.6408 25.8105 56.2605 25.5029 56.7391 24.8877L57.6346 25.7422C57.3383 26.1842 56.9419 26.5283 56.4451 26.7744C55.9529 27.016 55.3992 27.1367 54.784 27.1367ZM54.5857 20.7998C54.13 20.7998 53.7609 20.9593 53.4783 21.2783C53.2003 21.5973 53.0226 22.0417 52.9451 22.6113H56.1102V22.4883C56.0737 21.9323 55.9256 21.513 55.6658 21.2305C55.4061 20.9434 55.046 20.7998 54.5857 20.7998Z" fill="#1F3A6F"/>
</svg>
