<svg width="59" height="13" viewBox="0 0 59 13" fill="none" xmlns="http://www.w3.org/2000/svg">
<path d="M7.00156 2.888C6.60956 2.86933 6.25022 2.97667 5.92356 3.21C5.59689 3.434 5.39156 3.73267 5.30756 4.106C5.25156 4.358 5.22356 4.666 5.22356 5.03V5.394H6.62356C7.05289 5.394 7.38422 5.44533 7.61756 5.548C7.98156 5.70667 8.24289 6.01467 8.40156 6.472C8.47622 6.696 8.51356 6.92467 8.51356 7.158C8.51356 7.68067 8.31756 8.13333 7.92556 8.516C7.32822 9.09467 6.39022 9.384 5.11156 9.384C3.83289 9.384 2.89489 9.09467 2.29756 8.516C1.90556 8.13333 1.70956 7.68067 1.70956 7.158C1.70956 6.92467 1.74689 6.696 1.82156 6.472C1.98022 6.01467 2.24156 5.70667 2.60556 5.548C2.83889 5.44533 3.17022 5.394 3.59956 5.394H4.99956V5.03C4.99956 4.666 4.97156 4.358 4.91556 4.106C4.83156 3.73267 4.63556 3.43867 4.32756 3.224C4.01956 3 3.66022 2.888 3.24956 2.888C2.68956 2.888 2.25089 3.01867 1.93356 3.28C1.61622 3.54133 1.45756 3.94267 1.45756 4.484C1.45756 4.484 1.47622 4.55867 1.51356 4.708H2.32556C2.26956 4.568 2.24622 4.456 2.25556 4.372C2.28356 3.85867 2.61956 3.60667 3.26356 3.616C3.60889 3.62533 3.85622 3.74667 4.00556 3.98C4.10822 4.148 4.16889 4.4 4.18756 4.736H3.26356C2.75022 4.736 2.32089 4.83867 1.97556 5.044C1.63956 5.24933 1.37356 5.52933 1.17756 5.884C0.981555 6.22933 0.883555 6.63533 0.883555 7.102C0.883555 8.29667 1.43889 9.146 2.54956 9.65C3.24956 9.96733 4.09889 10.126 5.09756 10.126C6.11489 10.126 6.97356 9.96733 7.67356 9.65C8.78422 9.146 9.33956 8.29667 9.33956 7.102C9.33956 6.63533 9.24622 6.234 9.05956 5.898C8.74222 5.32867 8.28489 4.96467 7.68756 4.806C7.51022 4.75933 7.26756 4.736 6.95956 4.736H6.03556C6.05422 4.4 6.11489 4.148 6.21756 3.98C6.36689 3.74667 6.61422 3.62533 6.95956 3.616C7.60356 3.60667 7.93956 3.85867 7.96756 4.372C7.97689 4.456 7.95356 4.568 7.89756 4.708H8.70956C8.72822 4.652 8.74689 4.57733 8.76556 4.484C8.76556 3.94267 8.60689 3.54133 8.28956 3.28C8.14956 3.15867 8.00022 3.07 7.84156 3.014C8.15889 2.78067 8.38289 2.58 8.51356 2.412C8.87756 1.95467 9.08756 1.474 9.14356 0.969999H8.33156C8.32222 1.23133 8.14956 1.6 7.81356 2.076C7.68289 2.26267 7.41222 2.53333 7.00156 2.888ZM12.7837 6.43C12.7837 5.80467 12.6577 5.21667 12.4057 4.666C12.0884 3.966 11.6544 3.616 11.1037 3.616C10.5997 3.616 10.1797 3.728 9.84371 3.952V3.21C10.021 3.098 10.217 3.014 10.4317 2.958C10.609 2.91133 10.8564 2.888 11.1737 2.888C11.9577 2.888 12.555 3.25667 12.9657 3.994C13.3857 4.722 13.5957 5.534 13.5957 6.43C13.5957 7.34467 13.3857 8.17067 12.9657 8.908C12.555 9.636 11.9577 10 11.1737 10C10.8564 10 10.609 9.97667 10.4317 9.93C10.217 9.874 10.021 9.79 9.84371 9.678V8.936C10.1797 9.16 10.5997 9.272 11.1037 9.272C11.6544 9.272 12.0884 8.91733 12.4057 8.208C12.6577 7.65733 12.7837 7.06467 12.7837 6.43ZM15.8593 5.072H15.0613C14.9773 4.596 15.0193 4.18533 15.1873 3.84C15.4766 3.24267 15.9666 2.944 16.6573 2.944C17.0586 2.944 17.3899 3.06533 17.6513 3.308C17.9219 3.55067 18.0713 3.86333 18.0993 4.246C18.7153 3.35933 19.5926 2.93 20.7313 2.958C21.9539 2.99533 22.8966 3.52733 23.5593 4.554C23.9699 5.18867 24.1613 5.884 24.1333 6.64C24.0866 7.99333 23.4846 8.98267 22.3273 9.608C21.7859 9.89733 21.0719 10.0513 20.1853 10.07V9.37C21.1093 9.35133 21.8559 9.09467 22.4253 8.6C22.9946 8.10533 23.2839 7.452 23.2933 6.64C23.3026 5.94 23.0973 5.30533 22.6773 4.736C22.2666 4.15733 21.7533 3.82133 21.1373 3.728C20.9786 3.7 20.8199 3.686 20.6613 3.686C19.6813 3.686 18.9439 4.12933 18.4493 5.016C18.5519 4.99733 18.6546 4.988 18.7573 4.988C19.2706 4.988 19.7326 5.17 20.1433 5.534C20.6846 6.01 20.9553 6.64933 20.9553 7.452C20.9553 7.76933 20.8759 8.10067 20.7173 8.446C20.5586 8.79133 20.3533 9.076 20.1013 9.3C19.4759 9.832 18.7013 10.0933 17.7773 10.084C16.7226 10.0653 15.8826 9.74333 15.2573 9.118C14.7253 8.586 14.4546 7.816 14.4453 6.808C14.4453 6.48133 14.4686 6.16867 14.5153 5.87H15.2013C15.1919 6.28067 15.4393 6.49067 15.9433 6.5C16.2419 6.50933 16.5219 6.40667 16.7833 6.192C17.0446 5.968 17.2453 5.66467 17.3853 5.282C17.4973 4.98333 17.4833 4.63333 17.3433 4.232C17.2219 3.868 16.9886 3.686 16.6433 3.686C16.3633 3.686 16.1486 3.77933 15.9993 3.966C15.8593 4.15267 15.7893 4.37667 15.7893 4.638C15.7893 4.79667 15.8126 4.94133 15.8593 5.072ZM15.2153 6.934C15.2339 7.466 15.3646 7.914 15.6073 8.278C15.8686 8.67 16.1906 8.95 16.5733 9.118C16.8906 9.24867 17.3106 9.32333 17.8333 9.342C18.4026 9.36067 18.9066 9.20667 19.3453 8.88C19.8213 8.516 20.0779 8.04933 20.1153 7.48C20.1526 7.01333 20.0173 6.598 19.7093 6.234C19.4013 5.86067 19.0326 5.674 18.6033 5.674C18.4073 5.674 18.2859 5.68333 18.2393 5.702C18.1273 5.73933 18.0013 5.856 17.8613 6.052C17.4786 6.56533 17.0633 6.91533 16.6153 7.102C16.4286 7.17667 16.2093 7.214 15.9573 7.214C15.5466 7.214 15.2993 7.12067 15.2153 6.934ZM28.7659 5.45C28.4859 5.45 28.2526 5.54333 28.0659 5.73C27.8886 5.90733 27.7999 6.12667 27.7999 6.388C27.7999 6.64933 27.8746 6.87333 28.0239 7.06C28.1826 7.23733 28.4112 7.326 28.7099 7.326C28.9899 7.326 29.2139 7.242 29.3819 7.074C29.5499 6.906 29.6339 6.69133 29.6339 6.43C29.6339 6.15 29.5546 5.91667 29.3959 5.73C29.2466 5.54333 29.0366 5.45 28.7659 5.45ZM30.4739 6.472C30.4739 6.976 30.3059 7.37733 29.9699 7.676C29.6432 7.96533 29.2232 8.11 28.7099 8.11C28.2059 8.11 27.7906 7.956 27.4639 7.648C27.1372 7.34 26.9739 6.934 26.9739 6.43C26.9739 5.94467 27.1419 5.534 27.4779 5.198C27.8139 4.862 28.2386 4.68 28.7519 4.652C29.1719 4.624 29.5406 4.64733 29.8579 4.722C30.1472 4.78733 30.4319 4.918 30.7119 5.114C31.0479 5.35667 31.3092 5.646 31.4959 5.982C31.7106 6.38333 31.8086 6.85933 31.7899 7.41C31.7712 7.89533 31.6312 8.31067 31.3699 8.656C31.1366 8.964 30.8846 9.21133 30.6139 9.398C30.2872 9.63133 29.9186 9.79933 29.5079 9.902C29.2559 9.96733 28.8592 10.0047 28.3179 10.014C27.8232 10.0233 27.3472 9.91133 26.8899 9.678C26.4046 9.43533 26.0219 9.12733 25.7419 8.754C25.4712 8.38067 25.2752 8.00733 25.1539 7.634C25.0419 7.25133 24.9859 6.84533 24.9859 6.416C24.9859 5.97733 25.0606 5.55733 25.2099 5.156C25.3312 4.82 25.5319 4.47933 25.8119 4.134C26.0546 3.826 26.3299 3.58333 26.6379 3.406C26.8899 3.25667 27.1326 3.14467 27.3659 3.07C27.7672 2.93933 28.1546 2.874 28.5279 2.874C29.1719 2.874 29.7506 3 30.2639 3.252C30.7866 3.49467 31.1459 3.91467 31.3419 4.512H30.4879C30.3199 4.19467 30.0912 3.97067 29.8019 3.84C29.5126 3.7 29.2139 3.62067 28.9059 3.602C28.6072 3.58333 28.3646 3.588 28.1779 3.616C27.8419 3.672 27.5526 3.76533 27.3099 3.896C26.9366 4.11067 26.6239 4.39067 26.3719 4.736C26.0079 5.24933 25.8212 5.79067 25.8119 6.36C25.8026 6.77067 25.8492 7.13933 25.9519 7.466C26.0732 7.84867 26.2506 8.15667 26.4839 8.39C26.8012 8.70733 27.1092 8.93133 27.4079 9.062C27.7159 9.19267 28.0566 9.258 28.4299 9.258C28.8126 9.258 29.1672 9.202 29.4939 9.09C29.6899 9.02467 29.8672 8.936 30.0259 8.824C30.2312 8.684 30.4366 8.488 30.6419 8.236C30.8472 7.97467 30.9546 7.67133 30.9639 7.326C30.9732 6.906 30.9172 6.57467 30.7959 6.332C30.6839 6.08933 30.5346 5.87467 30.3479 5.688C30.3012 5.64133 30.2219 5.58067 30.1099 5.506C30.1566 5.54333 30.2219 5.62267 30.3059 5.744C30.3619 5.83733 30.4039 5.94467 30.4319 6.066C30.4599 6.29 30.4739 6.42533 30.4739 6.472ZM36.8558 9.986C35.3718 9.96733 34.2891 9.65467 33.6078 9.048C32.9731 8.488 32.6558 7.802 32.6558 6.99C32.6558 6.08467 33.0431 5.43133 33.8178 5.03C34.2658 4.79667 34.7931 4.68 35.3998 4.68H36.3798C36.3611 4.32533 36.2398 4.05467 36.0158 3.868C35.7918 3.672 35.5118 3.574 35.1758 3.574C34.8304 3.574 34.5411 3.66733 34.3078 3.854C34.0744 4.04067 33.9578 4.316 33.9578 4.68H33.1318C33.1224 4.10133 33.3278 3.644 33.7478 3.308C34.1211 3.00933 34.5971 2.86 35.1758 2.86C36.5664 2.86 37.2711 3.69533 37.2898 5.366H35.6098C34.9098 5.366 34.3964 5.51067 34.0698 5.8C33.6778 6.14533 33.4958 6.56067 33.5238 7.046C33.5704 7.82067 33.9298 8.39933 34.6018 8.782C35.1524 9.09 35.8804 9.244 36.7858 9.244C37.8218 9.244 38.6338 8.93133 39.2218 8.306C39.8098 7.67133 40.1271 6.79867 40.1738 5.688C40.2204 4.68 39.9124 3.84467 39.2498 3.182C38.6244 2.55667 37.7284 2.23933 36.5618 2.23C35.2364 2.21133 34.0651 2.44933 33.0478 2.944V2.174C33.7104 1.95933 34.0418 1.782 34.0418 1.642C34.0418 1.614 34.0231 1.59067 33.9858 1.572C33.7898 1.45067 33.6918 1.278 33.6918 1.054C33.6918 0.829999 33.8318 0.629333 34.1118 0.451999C34.5971 0.153333 35.4511 0.00399935 36.6738 0.00399935C38.9604 0.00399935 40.2298 0.466 40.4818 1.39C40.5098 1.49267 40.5238 1.6 40.5238 1.712C40.5238 2.16933 40.3418 2.51 39.9778 2.734C40.6591 3.47133 40.9998 4.40933 40.9998 5.548C40.9998 6.892 40.6451 7.96067 39.9358 8.754C39.1984 9.58467 38.1718 9.99533 36.8558 9.986ZM34.7838 1.656C35.3438 1.56267 35.9411 1.516 36.5758 1.516C37.7051 1.516 38.6244 1.73533 39.3338 2.174C39.6231 2.118 39.7351 1.922 39.6698 1.586C39.5671 1.01667 38.5918 0.731999 36.7438 0.731999C35.7078 0.731999 35.0404 0.815999 34.7418 0.983999C34.6578 1.03067 34.6111 1.082 34.6018 1.138C34.5831 1.20333 34.5971 1.25933 34.6438 1.306C34.6998 1.34333 34.7511 1.38067 34.7978 1.418C34.8538 1.474 34.8491 1.55333 34.7838 1.656ZM43.4516 8.796C42.9569 8.44133 42.7049 7.96067 42.6956 7.354C42.6862 6.74733 42.9616 6.234 43.5216 5.814C43.7829 5.618 44.0442 5.49667 44.3056 5.45C44.4456 5.422 44.7116 5.408 45.1036 5.408H48.3376C48.3282 5.34267 48.3142 5.226 48.2956 5.058C48.1742 4.386 47.8989 3.85867 47.4696 3.476C47.0496 3.084 46.3916 2.888 45.4956 2.888C45.0942 2.888 44.8329 2.902 44.7116 2.93C44.2542 3.03267 44.0022 3.09333 43.9556 3.112C43.6382 3.24267 43.3302 3.49 43.0316 3.854C42.7609 4.18067 42.6256 4.484 42.6256 4.764H43.4656C43.4749 4.71733 43.4936 4.652 43.5216 4.568C43.6709 4.204 43.8949 3.952 44.1936 3.812C44.5016 3.672 44.9402 3.59733 45.5096 3.588C46.0042 3.588 46.3869 3.672 46.6576 3.84C46.9376 3.99867 47.1849 4.29267 47.3996 4.722H45.1456C44.3149 4.722 43.7316 4.82 43.3956 5.016C43.1529 5.156 43.0129 5.24 42.9756 5.268C42.8449 5.37067 42.6629 5.55267 42.4296 5.814C42.0656 6.234 41.8836 6.74733 41.8836 7.354C41.8836 8.09133 42.1216 8.67467 42.5976 9.104C42.9429 9.42133 43.2789 9.64067 43.6056 9.762C43.8576 9.85533 44.2636 9.93933 44.8236 10.014C44.4969 10.1353 44.3289 10.4107 44.3196 10.84C44.3102 11.092 44.4082 11.3253 44.6136 11.54C44.8469 11.8013 45.2062 11.988 45.6916 12.1C45.9342 12.156 46.3216 12.184 46.8536 12.184C47.5442 12.184 48.1369 12.0207 48.6316 11.694C48.9582 11.4793 49.2056 11.204 49.3736 10.868C49.5229 10.5787 49.5742 10.2613 49.5276 9.916H48.7016C48.7389 10.0187 48.7389 10.1587 48.7016 10.336C48.6642 10.5413 48.5849 10.6953 48.4636 10.798C48.1742 11.0407 47.9596 11.1947 47.8196 11.26C47.5582 11.3813 47.1756 11.4513 46.6716 11.47C45.7009 11.5073 45.2156 11.2553 45.2156 10.714C45.2156 10.378 45.4956 10.1493 46.0556 10.028C46.1582 10.028 46.3216 10.014 46.5456 9.986C47.4976 9.846 48.1929 9.53333 48.6316 9.048C48.7716 8.88933 48.8556 8.712 48.8836 8.516H48.0296C47.9922 8.77733 47.6562 8.992 47.0216 9.16C46.6576 9.25333 46.1582 9.30467 45.5236 9.314C44.6462 9.32333 43.9556 9.15067 43.4516 8.796ZM52.1388 3.056C51.3828 3.336 50.7995 3.77 50.3888 4.358C49.9595 4.98333 49.7448 5.79067 49.7448 6.78C49.7448 7.66667 49.9595 8.44133 50.3888 9.104C50.6595 9.51467 51.0282 9.79 51.4948 9.93C51.7842 10.014 52.1108 10.0467 52.4748 10.028C53.1002 9.99067 53.5715 9.81333 53.8888 9.496C54.0102 9.37467 54.1082 9.22533 54.1828 9.048C54.2575 9.20667 54.3695 9.36533 54.5188 9.524C54.8455 9.86 55.3075 10.028 55.9048 10.028C56.4742 10.028 56.9408 9.92533 57.3048 9.72C57.6782 9.50533 57.9768 9.188 58.2008 8.768C58.4342 8.33867 58.5508 7.872 58.5508 7.368C58.5508 6.612 58.3548 6.01 57.9628 5.562C57.6362 5.18867 57.2302 4.93667 56.7448 4.806C56.5395 4.75 56.2875 4.722 55.9888 4.722H54.8128C54.8128 4.37667 54.8922 4.11533 55.0508 3.938C55.2468 3.714 55.5782 3.602 56.0448 3.602C56.4368 3.602 56.6982 3.70933 56.8288 3.924C56.9688 4.12933 57.0388 4.386 57.0388 4.694H57.8508C57.8508 4.162 57.7342 3.74667 57.5008 3.448C57.2022 3.06533 56.7168 2.874 56.0448 2.874C55.0182 2.874 54.3602 3.27067 54.0708 4.064C54.0148 4.21333 53.9868 4.53533 53.9868 5.03V5.394H55.7368C55.9422 5.394 56.0868 5.39867 56.1708 5.408C56.5535 5.408 56.8988 5.57133 57.2068 5.898C57.5522 6.262 57.7295 6.71467 57.7388 7.256C57.7482 7.63867 57.6688 8.00267 57.5008 8.348C57.3422 8.684 57.1275 8.92667 56.8568 9.076C56.6235 9.20667 56.4042 9.272 56.1988 9.272C55.6762 9.272 55.2702 9.12267 54.9808 8.824C54.7008 8.516 54.5608 8.18467 54.5608 7.83V6.948H53.8048V7.886C53.8048 8.194 53.6555 8.51133 53.3568 8.838C53.0675 9.16467 52.6755 9.30467 52.1808 9.258C51.7235 9.22067 51.3548 9.01533 51.0748 8.642C50.7575 8.222 50.5895 7.648 50.5708 6.92C50.5615 6.388 50.6222 5.912 50.7528 5.492C50.9675 4.82933 51.3782 4.316 51.9848 3.952C52.3862 3.71867 52.9555 3.61133 53.6928 3.63V2.888C52.9648 2.888 52.4468 2.944 52.1388 3.056Z" fill="#1F3A6F"/>
</svg>
