<svg width="56" height="28" viewBox="0 0 56 28" fill="none" xmlns="http://www.w3.org/2000/svg">
<path d="M5.85293 1.04688L8.72402 8.67578L11.5883 1.04688H13.8236V11H12.101V7.71875L12.2719 3.33008L9.33242 11H8.09512L5.1625 3.33691L5.3334 7.71875V11H3.61074V1.04688H5.85293ZM19.1211 11.1367C18.0684 11.1367 17.2139 10.8063 16.5576 10.1455C15.9059 9.48014 15.5801 8.59603 15.5801 7.49316V7.28809C15.5801 6.5498 15.7214 5.89128 16.0039 5.3125C16.291 4.72917 16.6921 4.27572 17.207 3.95215C17.722 3.62858 18.2962 3.4668 18.9297 3.4668C19.9368 3.4668 20.7139 3.78809 21.2607 4.43066C21.8122 5.07324 22.0879 5.98242 22.0879 7.1582V7.82812H17.2549C17.305 8.4388 17.5078 8.92188 17.8633 9.27734C18.2233 9.63281 18.6745 9.81055 19.2168 9.81055C19.9779 9.81055 20.5977 9.50293 21.0762 8.8877L21.9717 9.74219C21.6755 10.1842 21.279 10.5283 20.7822 10.7744C20.29 11.016 19.7363 11.1367 19.1211 11.1367ZM18.9229 4.7998C18.4671 4.7998 18.098 4.95931 17.8154 5.27832C17.5374 5.59733 17.3597 6.04167 17.2822 6.61133H20.4473V6.48828C20.4108 5.93229 20.2627 5.51302 20.0029 5.23047C19.7432 4.94336 19.3831 4.7998 18.9229 4.7998ZM23.2223 7.24707C23.2223 6.10775 23.4866 5.19401 24.0152 4.50586C24.5439 3.81315 25.2525 3.4668 26.1412 3.4668C26.9251 3.4668 27.5585 3.74023 28.0416 4.28711V0.5H29.7027V11H28.1988L28.1168 10.2344C27.6201 10.8359 26.957 11.1367 26.1275 11.1367C25.2617 11.1367 24.5598 10.7881 24.0221 10.0908C23.4889 9.39355 23.2223 8.44564 23.2223 7.24707ZM24.8834 7.39062C24.8834 8.14258 25.027 8.73047 25.3141 9.1543C25.6057 9.57357 26.0182 9.7832 26.5514 9.7832C27.2304 9.7832 27.7271 9.48014 28.0416 8.87402V5.71582C27.7363 5.12337 27.2441 4.82715 26.565 4.82715C26.0273 4.82715 25.6126 5.04134 25.3209 5.46973C25.0292 5.89355 24.8834 6.53385 24.8834 7.39062ZM33.3527 11H31.6916V3.60352H33.3527V11ZM31.5891 1.68262C31.5891 1.42741 31.6688 1.21549 31.8283 1.04688C31.9924 0.878255 32.2248 0.793945 32.5256 0.793945C32.8264 0.793945 33.0588 0.878255 33.2229 1.04688C33.3869 1.21549 33.4689 1.42741 33.4689 1.68262C33.4689 1.93327 33.3869 2.1429 33.2229 2.31152C33.0588 2.47559 32.8264 2.55762 32.5256 2.55762C32.2248 2.55762 31.9924 2.47559 31.8283 2.31152C31.6688 2.1429 31.5891 1.93327 31.5891 1.68262ZM38.3563 9.81055C38.771 9.81055 39.115 9.68978 39.3885 9.44824C39.6619 9.20671 39.8077 8.9082 39.826 8.55273H41.3914C41.3732 9.01302 41.2296 9.44368 40.9607 9.84473C40.6919 10.2412 40.3273 10.5557 39.867 10.7881C39.4067 11.0205 38.91 11.1367 38.3768 11.1367C37.3423 11.1367 36.5219 10.8018 35.9158 10.1318C35.3097 9.46191 35.0066 8.53678 35.0066 7.35645V7.18555C35.0066 6.0599 35.3074 5.15983 35.909 4.48535C36.5105 3.80632 37.3309 3.4668 38.3699 3.4668C39.2495 3.4668 39.965 3.72428 40.5164 4.23926C41.0724 4.74967 41.3641 5.42188 41.3914 6.25586H39.826C39.8077 5.83203 39.6619 5.4834 39.3885 5.20996C39.1196 4.93652 38.7755 4.7998 38.3563 4.7998C37.8185 4.7998 37.4038 4.99577 37.1121 5.3877C36.8204 5.77507 36.6723 6.36523 36.6678 7.1582V7.4248C36.6678 8.22689 36.8113 8.82617 37.0984 9.22266C37.3901 9.61458 37.8094 9.81055 38.3563 9.81055ZM47.2152 11C47.1423 10.8587 47.0785 10.6286 47.0238 10.3096C46.4952 10.861 45.848 11.1367 45.0824 11.1367C44.3396 11.1367 43.7335 10.9248 43.2641 10.501C42.7947 10.0771 42.56 9.55306 42.56 8.92871C42.56 8.1403 42.8516 7.53646 43.435 7.11719C44.0229 6.69336 44.8614 6.48145 45.9506 6.48145H46.9691V5.99609C46.9691 5.61328 46.862 5.30794 46.6479 5.08008C46.4337 4.84766 46.1078 4.73145 45.6703 4.73145C45.2921 4.73145 44.9822 4.82715 44.7406 5.01855C44.4991 5.2054 44.3783 5.44466 44.3783 5.73633H42.7172C42.7172 5.33073 42.8516 4.95247 43.1205 4.60156C43.3894 4.24609 43.754 3.9681 44.2143 3.76758C44.6791 3.56706 45.1964 3.4668 45.766 3.4668C46.6319 3.4668 47.3223 3.68555 47.8373 4.12305C48.3523 4.55599 48.6166 5.16667 48.6303 5.95508V9.29102C48.6303 9.95638 48.7237 10.4873 48.9105 10.8838V11H47.2152ZM45.39 9.80371C45.7182 9.80371 46.0258 9.72396 46.3129 9.56445C46.6046 9.40495 46.8233 9.19076 46.9691 8.92188V7.52734H46.0736C45.4584 7.52734 44.9958 7.63444 44.6859 7.84863C44.376 8.06283 44.2211 8.36589 44.2211 8.75781C44.2211 9.07682 44.3259 9.33203 44.5355 9.52344C44.7497 9.71029 45.0346 9.80371 45.39 9.80371ZM52.2871 11H50.626V0.5H52.2871V11ZM8.45762 25.708C8.09759 26.1774 7.59857 26.5329 6.96055 26.7744C6.32253 27.016 5.59792 27.1367 4.78672 27.1367C3.95273 27.1367 3.21445 26.9476 2.57187 26.5693C1.9293 26.1911 1.43255 25.651 1.08164 24.9492C0.735286 24.2428 0.555273 23.4202 0.541601 22.4814V21.7021C0.541601 20.1982 0.901627 19.0247 1.62168 18.1816C2.34173 17.334 3.34661 16.9102 4.63633 16.9102C5.74375 16.9102 6.62331 17.1836 7.275 17.7305C7.92669 18.2773 8.31862 19.0658 8.45078 20.0957H6.75547C6.56406 18.8971 5.86908 18.2979 4.67051 18.2979C3.89577 18.2979 3.3056 18.5781 2.9 19.1387C2.49896 19.6947 2.2916 20.5127 2.27793 21.5928V22.3584C2.27793 23.4339 2.50352 24.2702 2.95469 24.8672C3.41042 25.4596 4.0416 25.7559 4.84824 25.7559C5.73236 25.7559 6.36126 25.5553 6.73496 25.1543V23.2061H4.68418V21.8936H8.45762V25.708ZM13.6047 27.1367C12.552 27.1367 11.6975 26.8063 11.0412 26.1455C10.3895 25.4801 10.0637 24.596 10.0637 23.4932V23.2881C10.0637 22.5498 10.2049 21.8913 10.4875 21.3125C10.7746 20.7292 11.1757 20.2757 11.6906 19.9521C12.2056 19.6286 12.7798 19.4668 13.4133 19.4668C14.4204 19.4668 15.1975 19.7881 15.7443 20.4307C16.2958 21.0732 16.5715 21.9824 16.5715 23.1582V23.8281H11.7385C11.7886 24.4388 11.9914 24.9219 12.3469 25.2773C12.7069 25.6328 13.1581 25.8105 13.7004 25.8105C14.4615 25.8105 15.0812 25.5029 15.5598 24.8877L16.4553 25.7422C16.159 26.1842 15.7626 26.5283 15.2658 26.7744C14.7736 27.016 14.2199 27.1367 13.6047 27.1367ZM13.4064 20.7998C12.9507 20.7998 12.5816 20.9593 12.299 21.2783C12.021 21.5973 11.8433 22.0417 11.7658 22.6113H14.9309V22.4883C14.8944 21.9323 14.7463 21.513 14.4865 21.2305C14.2268 20.9434 13.8667 20.7998 13.4064 20.7998ZM19.5584 19.6035L19.6062 20.458C20.1531 19.7972 20.8709 19.4668 21.7596 19.4668C23.2999 19.4668 24.0838 20.3486 24.1111 22.1123V27H22.45V22.208C22.45 21.7386 22.3475 21.3923 22.1424 21.1689C21.9419 20.9411 21.6115 20.8271 21.1512 20.8271C20.4812 20.8271 19.9822 21.1302 19.6541 21.7363V27H17.993V19.6035H19.5584ZM29.2172 27.1367C28.1645 27.1367 27.31 26.8063 26.6537 26.1455C26.002 25.4801 25.6762 24.596 25.6762 23.4932V23.2881C25.6762 22.5498 25.8174 21.8913 26.1 21.3125C26.3871 20.7292 26.7881 20.2757 27.3031 19.9521C27.8181 19.6286 28.3923 19.4668 29.0258 19.4668C30.0329 19.4668 30.81 19.7881 31.3568 20.4307C31.9083 21.0732 32.184 21.9824 32.184 23.1582V23.8281H27.351C27.4011 24.4388 27.6039 24.9219 27.9594 25.2773C28.3194 25.6328 28.7706 25.8105 29.3129 25.8105C30.074 25.8105 30.6937 25.5029 31.1723 24.8877L32.0678 25.7422C31.7715 26.1842 31.3751 26.5283 30.8783 26.7744C30.3861 27.016 29.8324 27.1367 29.2172 27.1367ZM29.0189 20.7998C28.5632 20.7998 28.1941 20.9593 27.9115 21.2783C27.6335 21.5973 27.4558 22.0417 27.3783 22.6113H30.5434V22.4883C30.5069 21.9323 30.3588 21.513 30.099 21.2305C29.8393 20.9434 29.4792 20.7998 29.0189 20.7998ZM35.7109 17.8057V19.6035H37.0166V20.834H35.7109V24.9629C35.7109 25.2454 35.7656 25.4505 35.875 25.5781C35.9889 25.7012 36.1895 25.7627 36.4766 25.7627C36.668 25.7627 36.8617 25.7399 37.0576 25.6943V26.9795C36.6794 27.0843 36.3148 27.1367 35.9639 27.1367C34.6878 27.1367 34.0498 26.4326 34.0498 25.0244V20.834H32.833V19.6035H34.0498V17.8057H35.7109ZM40.2086 27H38.5475V19.6035H40.2086V27ZM38.4449 17.6826C38.4449 17.4274 38.5247 17.2155 38.6842 17.0469C38.8482 16.8783 39.0807 16.7939 39.3814 16.7939C39.6822 16.7939 39.9146 16.8783 40.0787 17.0469C40.2428 17.2155 40.3248 17.4274 40.3248 17.6826C40.3248 17.9333 40.2428 18.1429 40.0787 18.3115C39.9146 18.4756 39.6822 18.5576 39.3814 18.5576C39.0807 18.5576 38.8482 18.4756 38.6842 18.3115C38.5247 18.1429 38.4449 17.9333 38.4449 17.6826ZM45.2121 25.8105C45.6268 25.8105 45.9709 25.6898 46.2443 25.4482C46.5178 25.2067 46.6636 24.9082 46.6818 24.5527H48.2473C48.229 25.013 48.0855 25.4437 47.8166 25.8447C47.5477 26.2412 47.1831 26.5557 46.7229 26.7881C46.2626 27.0205 45.7658 27.1367 45.2326 27.1367C44.1981 27.1367 43.3778 26.8018 42.7717 26.1318C42.1656 25.4619 41.8625 24.5368 41.8625 23.3564V23.1855C41.8625 22.0599 42.1633 21.1598 42.7648 20.4854C43.3664 19.8063 44.1867 19.4668 45.2258 19.4668C46.1053 19.4668 46.8208 19.7243 47.3723 20.2393C47.9283 20.7497 48.2199 21.4219 48.2473 22.2559H46.6818C46.6636 21.832 46.5178 21.4834 46.2443 21.21C45.9755 20.9365 45.6314 20.7998 45.2121 20.7998C44.6744 20.7998 44.2596 20.9958 43.968 21.3877C43.6763 21.7751 43.5282 22.3652 43.5236 23.1582V23.4248C43.5236 24.2269 43.6672 24.8262 43.9543 25.2227C44.246 25.6146 44.6652 25.8105 45.2121 25.8105ZM53.7977 24.9902C53.7977 24.694 53.6746 24.4684 53.4285 24.3135C53.187 24.1585 52.7837 24.0218 52.2186 23.9033C51.6534 23.7848 51.1818 23.6344 50.8035 23.4521C49.9741 23.0511 49.5594 22.4701 49.5594 21.709C49.5594 21.071 49.8283 20.5378 50.366 20.1094C50.9038 19.681 51.5874 19.4668 52.4168 19.4668C53.3009 19.4668 54.0141 19.6855 54.5564 20.123C55.1033 20.5605 55.3768 21.1279 55.3768 21.8252H53.7156C53.7156 21.5062 53.5971 21.2419 53.3602 21.0322C53.1232 20.818 52.8087 20.7109 52.4168 20.7109C52.0522 20.7109 51.7537 20.7952 51.5213 20.9639C51.2934 21.1325 51.1795 21.3581 51.1795 21.6406C51.1795 21.8958 51.2866 22.0941 51.5008 22.2354C51.715 22.3766 52.1479 22.5202 52.7996 22.666C53.4513 22.8073 53.9617 22.9782 54.3309 23.1787C54.7046 23.3747 54.9803 23.6117 55.158 23.8896C55.3403 24.1676 55.4314 24.5049 55.4314 24.9014C55.4314 25.5667 55.1557 26.1068 54.6043 26.5215C54.0529 26.9316 53.3305 27.1367 52.4373 27.1367C51.8312 27.1367 51.2911 27.0273 50.8172 26.8086C50.3432 26.5898 49.9741 26.2891 49.7098 25.9062C49.4454 25.5234 49.3133 25.111 49.3133 24.6689H50.9266C50.9493 25.0609 51.0975 25.3639 51.3709 25.5781C51.6443 25.7878 52.0066 25.8926 52.4578 25.8926C52.8953 25.8926 53.228 25.8105 53.4559 25.6465C53.6837 25.4779 53.7977 25.2591 53.7977 24.9902Z" fill="#1F3A6F"/>
</svg>
