<svg width="142" height="18" viewBox="0 0 142 18" fill="none" xmlns="http://www.w3.org/2000/svg">
<path d="M3.78125 1.20312L7.47266 11.0117L11.1553 1.20312H14.0293V14H11.8145V9.78125L12.0342 4.13867L8.25488 14H6.66406L2.89355 4.14746L3.11328 9.78125V14H0.898438V1.20312H3.78125ZM19.9361 10.9414L21.8697 4.49023H24.1461L20.3668 15.4414C19.7867 17.041 18.8023 17.8408 17.4137 17.8408C17.1031 17.8408 16.7604 17.7881 16.3854 17.6826V16.0303L16.7896 16.0566C17.3287 16.0566 17.733 15.957 18.0025 15.7578C18.2779 15.5645 18.4947 15.2363 18.6529 14.7734L18.9605 13.9561L15.6207 4.49023H17.9234L19.9361 10.9414ZM35.8455 14C35.7518 13.8184 35.6697 13.5225 35.5994 13.1123C34.9197 13.8213 34.0877 14.1758 33.1033 14.1758C32.1482 14.1758 31.3689 13.9033 30.7654 13.3584C30.1619 12.8135 29.8602 12.1396 29.8602 11.3369C29.8602 10.3232 30.2352 9.54688 30.9852 9.00781C31.741 8.46289 32.8191 8.19043 34.2195 8.19043H35.5291V7.56641C35.5291 7.07422 35.3914 6.68164 35.116 6.38867C34.8406 6.08984 34.4217 5.94043 33.8592 5.94043C33.3729 5.94043 32.9744 6.06348 32.6639 6.30957C32.3533 6.5498 32.198 6.85742 32.198 7.23242H30.0623C30.0623 6.71094 30.2352 6.22461 30.5809 5.77344C30.9266 5.31641 31.3953 4.95898 31.9871 4.70117C32.5848 4.44336 33.2498 4.31445 33.9822 4.31445C35.0955 4.31445 35.9832 4.5957 36.6453 5.1582C37.3074 5.71484 37.6473 6.5 37.6648 7.51367V11.8027C37.6648 12.6582 37.785 13.3408 38.0252 13.8506V14H35.8455ZM33.4988 12.4619C33.9207 12.4619 34.3162 12.3594 34.6854 12.1543C35.0604 11.9492 35.3416 11.6738 35.5291 11.3281V9.53516H34.3777C33.5867 9.53516 32.992 9.67285 32.5936 9.94824C32.1951 10.2236 31.9959 10.6133 31.9959 11.1172C31.9959 11.5273 32.1307 11.8555 32.4002 12.1016C32.6756 12.3418 33.0418 12.4619 33.4988 12.4619ZM48.3793 9.3418C48.3793 10.8125 48.0453 11.9873 47.3773 12.8662C46.7094 13.7393 45.8129 14.1758 44.6879 14.1758C43.6449 14.1758 42.81 13.833 42.183 13.1475V17.6562H40.0473V4.49023H42.016L42.1039 5.45703C42.7309 4.69531 43.5834 4.31445 44.6615 4.31445C45.8217 4.31445 46.7299 4.74805 47.3861 5.61523C48.0482 6.47656 48.3793 7.6748 48.3793 9.20996V9.3418ZM46.2523 9.15723C46.2523 8.20801 46.0619 7.45508 45.6811 6.89844C45.3061 6.3418 44.767 6.06348 44.0639 6.06348C43.1908 6.06348 42.5639 6.42383 42.183 7.14453V11.3633C42.5697 12.1016 43.2025 12.4707 44.0814 12.4707C44.7611 12.4707 45.2914 12.1982 45.6723 11.6533C46.059 11.1025 46.2523 10.2705 46.2523 9.15723ZM58.6719 9.3418C58.6719 10.8125 58.3379 11.9873 57.6699 12.8662C57.002 13.7393 56.1055 14.1758 54.9805 14.1758C53.9375 14.1758 53.1025 13.833 52.4756 13.1475V17.6562H50.3398V4.49023H52.3086L52.3965 5.45703C53.0234 4.69531 53.876 4.31445 54.9541 4.31445C56.1143 4.31445 57.0225 4.74805 57.6787 5.61523C58.3408 6.47656 58.6719 7.6748 58.6719 9.20996V9.3418ZM56.5449 9.15723C56.5449 8.20801 56.3545 7.45508 55.9736 6.89844C55.5986 6.3418 55.0596 6.06348 54.3564 6.06348C53.4834 6.06348 52.8564 6.42383 52.4756 7.14453V11.3633C52.8623 12.1016 53.4951 12.4707 54.374 12.4707C55.0537 12.4707 55.584 12.1982 55.9648 11.6533C56.3516 11.1025 56.5449 10.2705 56.5449 9.15723ZM60.2369 9.15723C60.2369 8.22559 60.4215 7.3877 60.7906 6.64355C61.1598 5.89355 61.6783 5.31934 62.3463 4.9209C63.0143 4.5166 63.7818 4.31445 64.649 4.31445C65.9322 4.31445 66.9723 4.72754 67.7691 5.55371C68.5719 6.37988 69.0055 7.47559 69.0699 8.84082L69.0787 9.3418C69.0787 10.2793 68.8971 11.1172 68.5338 11.8555C68.1764 12.5938 67.6607 13.165 66.9869 13.5693C66.3189 13.9736 65.5455 14.1758 64.6666 14.1758C63.3248 14.1758 62.2496 13.7305 61.441 12.8398C60.6383 11.9434 60.2369 10.751 60.2369 9.2627V9.15723ZM62.3727 9.3418C62.3727 10.3203 62.5748 11.0879 62.9791 11.6445C63.3834 12.1953 63.9459 12.4707 64.6666 12.4707C65.3873 12.4707 65.9469 12.1895 66.3453 11.627C66.7496 11.0645 66.9518 10.2412 66.9518 9.15723C66.9518 8.19629 66.7438 7.43457 66.3277 6.87207C65.9176 6.30957 65.358 6.02832 64.649 6.02832C63.9518 6.02832 63.398 6.30664 62.9879 6.86328C62.5777 7.41406 62.3727 8.24023 62.3727 9.3418ZM73.3068 14H71.1711V4.49023H73.3068V14ZM71.0393 2.02051C71.0393 1.69238 71.1418 1.41992 71.3469 1.20312C71.5578 0.986328 71.8566 0.87793 72.2434 0.87793C72.6301 0.87793 72.9289 0.986328 73.1398 1.20312C73.3508 1.41992 73.4563 1.69238 73.4563 2.02051C73.4563 2.34277 73.3508 2.6123 73.1398 2.8291C72.9289 3.04004 72.6301 3.14551 72.2434 3.14551C71.8566 3.14551 71.5578 3.04004 71.3469 2.8291C71.1418 2.6123 71.0393 2.34277 71.0393 2.02051ZM77.7723 4.49023L77.8338 5.58887C78.5369 4.73926 79.4598 4.31445 80.6023 4.31445C82.5828 4.31445 83.5906 5.44824 83.6258 7.71582V14H81.49V7.83887C81.49 7.23535 81.3582 6.79004 81.0945 6.50293C80.8367 6.20996 80.4119 6.06348 79.8201 6.06348C78.9588 6.06348 78.3172 6.45312 77.8953 7.23242V14H75.7596V4.49023H77.7723ZM88.6361 2.17871V4.49023H90.3148V6.07227H88.6361V11.3809C88.6361 11.7441 88.7064 12.0078 88.8471 12.1719C88.9936 12.3301 89.2514 12.4092 89.6205 12.4092C89.8666 12.4092 90.1156 12.3799 90.3676 12.3213V13.9736C89.8812 14.1084 89.4125 14.1758 88.9613 14.1758C87.3207 14.1758 86.5004 13.2705 86.5004 11.46V6.07227H84.9359V4.49023H86.5004V2.17871H88.6361ZM94.1123 4.49023L94.1738 5.4834C94.8418 4.7041 95.7559 4.31445 96.916 4.31445C98.1875 4.31445 99.0576 4.80078 99.5264 5.77344C100.218 4.80078 101.19 4.31445 102.444 4.31445C103.493 4.31445 104.272 4.60449 104.782 5.18457C105.298 5.76465 105.562 6.62012 105.573 7.75098V14H103.438V7.8125C103.438 7.20898 103.306 6.7666 103.042 6.48535C102.778 6.2041 102.342 6.06348 101.732 6.06348C101.246 6.06348 100.848 6.19531 100.537 6.45898C100.232 6.7168 100.019 7.05664 99.8955 7.47852L99.9043 14H97.7686V7.74219C97.7393 6.62305 97.168 6.06348 96.0547 6.06348C95.1992 6.06348 94.5928 6.41211 94.2354 7.10938V14H92.0996V4.49023H94.1123ZM112.104 14.1758C110.751 14.1758 109.652 13.751 108.808 12.9014C107.97 12.0459 107.551 10.9092 107.551 9.49121V9.22754C107.551 8.27832 107.733 7.43164 108.096 6.6875C108.465 5.9375 108.981 5.35449 109.643 4.93848C110.305 4.52246 111.044 4.31445 111.858 4.31445C113.153 4.31445 114.152 4.72754 114.855 5.55371C115.564 6.37988 115.919 7.54883 115.919 9.06055V9.92188H109.705C109.769 10.707 110.03 11.3281 110.487 11.7852C110.95 12.2422 111.53 12.4707 112.227 12.4707C113.206 12.4707 114.003 12.0752 114.618 11.2842L115.769 12.3828C115.388 12.9512 114.879 13.3936 114.24 13.71C113.607 14.0205 112.895 14.1758 112.104 14.1758ZM111.849 6.02832C111.263 6.02832 110.789 6.2334 110.425 6.64355C110.068 7.05371 109.839 7.625 109.74 8.35742H113.809V8.19922C113.762 7.48438 113.572 6.94531 113.238 6.58203C112.904 6.21289 112.441 6.02832 111.849 6.02832ZM119.716 4.49023L119.778 5.58887C120.481 4.73926 121.404 4.31445 122.546 4.31445C124.527 4.31445 125.534 5.44824 125.57 7.71582V14H123.434V7.83887C123.434 7.23535 123.302 6.79004 123.038 6.50293C122.78 6.20996 122.356 6.06348 121.764 6.06348C120.903 6.06348 120.261 6.45312 119.839 7.23242V14H117.703V4.49023H119.716ZM130.58 2.17871V4.49023H132.259V6.07227H130.58V11.3809C130.58 11.7441 130.65 12.0078 130.791 12.1719C130.937 12.3301 131.195 12.4092 131.564 12.4092C131.81 12.4092 132.059 12.3799 132.311 12.3213V13.9736C131.825 14.1084 131.356 14.1758 130.905 14.1758C129.264 14.1758 128.444 13.2705 128.444 11.46V6.07227H126.88V4.49023H128.444V2.17871H130.58ZM139.378 11.416C139.378 11.0352 139.22 10.7451 138.904 10.5459C138.593 10.3467 138.075 10.1709 137.348 10.0186C136.621 9.86621 136.015 9.67285 135.529 9.43848C134.462 8.92285 133.929 8.17578 133.929 7.19727C133.929 6.37695 134.275 5.69141 134.966 5.14062C135.658 4.58984 136.537 4.31445 137.603 4.31445C138.74 4.31445 139.657 4.5957 140.354 5.1582C141.057 5.7207 141.409 6.4502 141.409 7.34668H139.273C139.273 6.93652 139.121 6.59668 138.816 6.32715C138.511 6.05176 138.107 5.91406 137.603 5.91406C137.134 5.91406 136.75 6.02246 136.452 6.23926C136.159 6.45605 136.012 6.74609 136.012 7.10938C136.012 7.4375 136.15 7.69238 136.425 7.87402C136.701 8.05566 137.257 8.24023 138.095 8.42773C138.933 8.60938 139.589 8.8291 140.064 9.08691C140.544 9.33887 140.899 9.64355 141.127 10.001C141.362 10.3584 141.479 10.792 141.479 11.3018C141.479 12.1572 141.124 12.8516 140.415 13.3848C139.706 13.9121 138.778 14.1758 137.629 14.1758C136.85 14.1758 136.156 14.0352 135.546 13.7539C134.937 13.4727 134.462 13.0859 134.122 12.5938C133.783 12.1016 133.613 11.5713 133.613 11.0029H135.687C135.716 11.5068 135.907 11.8965 136.258 12.1719C136.61 12.4414 137.076 12.5762 137.656 12.5762C138.218 12.5762 138.646 12.4707 138.939 12.2598C139.232 12.043 139.378 11.7617 139.378 11.416Z" fill="#203A6F"/>
</svg>
