<svg width="69" height="14" viewBox="0 0 69 14" fill="none" xmlns="http://www.w3.org/2000/svg">
<path d="M3.27265 4.602C3.61798 4.602 3.85598 4.70933 3.98665 4.924C4.12665 5.13867 4.19665 5.40467 4.19665 5.722H0.346648V6.394H1.85865C1.13065 6.77667 0.766648 7.43467 0.766648 8.368C0.766648 9.04933 0.953315 9.642 1.32665 10.146C1.61598 10.538 1.99398 10.804 2.46065 10.944C2.72198 11.0187 3.04398 11.0467 3.42665 11.028C4.05198 10.9907 4.52332 10.8133 4.84065 10.496C4.96198 10.3747 5.05998 10.2253 5.13465 10.048C5.20932 10.2067 5.32132 10.3653 5.47065 10.524C5.79732 10.86 6.25932 11.028 6.85665 11.028C7.42598 11.028 7.89265 10.9253 8.25665 10.72C8.62998 10.5053 8.92865 10.188 9.15265 9.768C9.38598 9.33867 9.50265 8.872 9.50265 8.368C9.50265 7.612 9.30665 7.01 8.91465 6.562C8.58798 6.18867 8.18198 5.93667 7.69665 5.806C7.49132 5.75 7.23932 5.722 6.94065 5.722H6.07265C6.07265 5.39533 6.13798 5.12933 6.26865 4.924C6.40865 4.71867 6.65132 4.61133 6.99665 4.602C7.37932 4.58333 7.64065 4.686 7.78065 4.91C7.92065 5.12467 7.99065 5.386 7.99065 5.694H8.80265C8.80265 5.162 8.68598 4.74667 8.45265 4.448C8.15398 4.06533 7.66865 3.874 6.99665 3.874C6.52998 3.874 6.13798 4.00933 5.82065 4.28C5.51265 4.55067 5.33065 4.91467 5.27465 5.372C5.25598 5.53067 5.24665 5.75 5.24665 6.03V6.394H6.68865C6.89398 6.394 7.03865 6.39867 7.12265 6.408C7.50532 6.408 7.85065 6.57133 8.15865 6.898C8.50398 7.262 8.68132 7.71467 8.69065 8.256C8.69998 8.63867 8.62065 9.00267 8.45265 9.348C8.29398 9.684 8.07932 9.92667 7.80865 10.076C7.57532 10.2067 7.35598 10.272 7.15065 10.272C6.62798 10.272 6.22198 10.1227 5.93265 9.824C5.65265 9.516 5.51265 9.18467 5.51265 8.83V8.06H4.75665V8.886C4.75665 9.194 4.61665 9.502 4.33665 9.81C4.06598 10.1087 3.66465 10.258 3.13265 10.258C2.65665 10.258 2.27865 10.0667 1.99865 9.684C1.73732 9.32933 1.60665 8.858 1.60665 8.27C1.60665 8.018 1.66732 7.766 1.78865 7.514C1.90998 7.25267 2.05932 7.05667 2.23665 6.926C2.73132 6.57133 3.28198 6.394 3.88865 6.394H5.02265V6.016C5.02265 5.624 4.98998 5.316 4.92465 5.092C4.69132 4.28933 4.14065 3.88333 3.27265 3.874C2.87132 3.86467 2.57265 3.91133 2.37665 4.014C1.76998 4.31267 1.46665 4.87267 1.46665 5.694H2.27865C2.27865 4.966 2.60998 4.602 3.27265 4.602ZM7.98162 2.53C8.14962 2.65133 8.33162 2.698 8.52762 2.67C8.71428 2.642 8.85428 2.572 8.94762 2.46C9.04095 2.33867 9.07828 2.18467 9.05962 1.998C9.04095 1.79267 8.98962 1.65267 8.90562 1.578C8.77495 1.466 8.63962 1.41467 8.49962 1.424C8.37828 1.43333 8.27095 1.47067 8.17762 1.536C8.04695 1.62 7.98162 1.72267 7.98162 1.844V2.53ZM7.22562 1.914C7.22562 1.718 7.15095 1.58733 7.00162 1.522C6.84295 1.45667 6.67962 1.46133 6.51162 1.536C6.33428 1.61067 6.20828 1.71333 6.13362 1.844V1.06C6.41362 0.826666 6.71695 0.724 7.04362 0.751999C7.19295 0.761333 7.33295 0.808 7.46362 0.891999C7.53828 0.938666 7.62228 1.00867 7.71562 1.102C7.80895 0.99 7.93962 0.901333 8.10762 0.836C8.27562 0.770666 8.46695 0.742666 8.68162 0.751999C9.00828 0.770666 9.28362 0.882666 9.50762 1.088C9.72228 1.29333 9.83895 1.58267 9.85762 1.956C9.86695 2.264 9.81562 2.51133 9.70362 2.698C9.58228 2.88467 9.42828 3.02933 9.24162 3.132C9.01762 3.25333 8.77495 3.30467 8.51362 3.286C8.26162 3.26733 8.08428 3.22533 7.98162 3.16V4.742C7.90695 4.658 7.78562 4.55067 7.61762 4.42C7.46828 4.32667 7.33762 4.26133 7.22562 4.224V1.914ZM11.9663 6.072H11.1683C11.0843 5.596 11.1263 5.18533 11.2943 4.84C11.5836 4.24267 12.0736 3.944 12.7643 3.944C13.1656 3.944 13.497 4.06533 13.7583 4.308C14.029 4.55067 14.1783 4.86333 14.2063 5.246C14.8223 4.35933 15.6996 3.93 16.8383 3.958C18.061 3.99533 19.0036 4.52733 19.6663 5.554C20.077 6.18867 20.2683 6.884 20.2403 7.64C20.1936 8.99333 19.5916 9.98267 18.4343 10.608C17.893 10.8973 17.179 11.0513 16.2923 11.07V10.37C17.2163 10.3513 17.963 10.0947 18.5323 9.6C19.1016 9.10533 19.391 8.452 19.4003 7.64C19.4096 6.94 19.2043 6.30533 18.7843 5.736C18.3736 5.15733 17.8603 4.82133 17.2443 4.728C17.0856 4.7 16.927 4.686 16.7683 4.686C15.7883 4.686 15.051 5.12933 14.5563 6.016C14.659 5.99733 14.7616 5.988 14.8643 5.988C15.3776 5.988 15.8396 6.17 16.2503 6.534C16.7916 7.01 17.0623 7.64933 17.0623 8.452C17.0623 8.76933 16.983 9.10067 16.8243 9.446C16.6656 9.79133 16.4603 10.076 16.2083 10.3C15.583 10.832 14.8083 11.0933 13.8843 11.084C12.8296 11.0653 11.9896 10.7433 11.3643 10.118C10.8323 9.586 10.5616 8.816 10.5523 7.808C10.5523 7.48133 10.5756 7.16867 10.6223 6.87H11.3083C11.299 7.28067 11.5463 7.49067 12.0503 7.5C12.349 7.50933 12.629 7.40667 12.8903 7.192C13.1516 6.968 13.3523 6.66467 13.4923 6.282C13.6043 5.98333 13.5903 5.63333 13.4503 5.232C13.329 4.868 13.0956 4.686 12.7503 4.686C12.4703 4.686 12.2556 4.77933 12.1063 4.966C11.9663 5.15267 11.8963 5.37667 11.8963 5.638C11.8963 5.79667 11.9196 5.94133 11.9663 6.072ZM11.3223 7.934C11.341 8.466 11.4716 8.914 11.7143 9.278C11.9756 9.67 12.2976 9.95 12.6803 10.118C12.9976 10.2487 13.4176 10.3233 13.9403 10.342C14.5096 10.3607 15.0136 10.2067 15.4523 9.88C15.9283 9.516 16.185 9.04933 16.2223 8.48C16.2596 8.01333 16.1243 7.598 15.8163 7.234C15.5083 6.86067 15.1396 6.674 14.7103 6.674C14.5143 6.674 14.393 6.68333 14.3463 6.702C14.2343 6.73933 14.1083 6.856 13.9683 7.052C13.5856 7.56533 13.1703 7.91533 12.7223 8.102C12.5356 8.17667 12.3163 8.214 12.0643 8.214C11.6536 8.214 11.4063 8.12067 11.3223 7.934ZM23.6829 7.43C23.6829 6.80467 23.5569 6.21667 23.3049 5.666C22.9876 4.966 22.5536 4.616 22.0029 4.616C21.4989 4.616 21.0789 4.728 20.7429 4.952V4.21C20.9203 4.098 21.1163 4.014 21.3309 3.958C21.5083 3.91133 21.7556 3.888 22.0729 3.888C22.8569 3.888 23.4543 4.25667 23.8649 4.994C24.2849 5.722 24.4949 6.534 24.4949 7.43C24.4949 8.34467 24.2849 9.17067 23.8649 9.908C23.4543 10.636 22.8569 11 22.0729 11C21.7556 11 21.5083 10.9767 21.3309 10.93C21.1163 10.874 20.9203 10.79 20.7429 10.678V9.936C21.0789 10.16 21.4989 10.272 22.0029 10.272C22.5536 10.272 22.9876 9.91733 23.3049 9.208C23.5569 8.65733 23.6829 8.06467 23.6829 7.43ZM27.7525 4.056C26.9965 4.336 26.4132 4.77 26.0025 5.358C25.5732 5.98333 25.3585 6.79067 25.3585 7.78C25.3585 8.66667 25.5732 9.44133 26.0025 10.104C26.2732 10.5147 26.6418 10.79 27.1085 10.93C27.3978 11.014 27.7245 11.0467 28.0885 11.028C28.7138 10.9907 29.1852 10.8133 29.5025 10.496C29.6238 10.3747 29.7218 10.2253 29.7965 10.048C29.8712 10.2067 29.9832 10.3653 30.1325 10.524C30.4592 10.86 30.9212 11.028 31.5185 11.028C32.0878 11.028 32.5545 10.9253 32.9185 10.72C33.2918 10.5053 33.5905 10.188 33.8145 9.768C34.0478 9.33867 34.1645 8.872 34.1645 8.368C34.1645 7.612 33.9685 7.01 33.5765 6.562C33.2498 6.18867 32.8438 5.93667 32.3585 5.806C32.1532 5.75 31.9012 5.722 31.6025 5.722H30.4265C30.4265 5.37667 30.5058 5.11533 30.6645 4.938C30.8605 4.714 31.1918 4.602 31.6585 4.602C32.0505 4.602 32.3118 4.70933 32.4425 4.924C32.5825 5.12933 32.6525 5.386 32.6525 5.694H33.4645C33.4645 5.162 33.3478 4.74667 33.1145 4.448C32.8158 4.06533 32.3305 3.874 31.6585 3.874C30.6318 3.874 29.9738 4.27067 29.6845 5.064C29.6285 5.21333 29.6005 5.53533 29.6005 6.03V6.394H31.3505C31.5558 6.394 31.7005 6.39867 31.7845 6.408C32.1672 6.408 32.5125 6.57133 32.8205 6.898C33.1658 7.262 33.3432 7.71467 33.3525 8.256C33.3618 8.63867 33.2825 9.00267 33.1145 9.348C32.9558 9.684 32.7412 9.92667 32.4705 10.076C32.2372 10.2067 32.0178 10.272 31.8125 10.272C31.2898 10.272 30.8838 10.1227 30.5945 9.824C30.3145 9.516 30.1745 9.18467 30.1745 8.83V7.948H29.4185V8.886C29.4185 9.194 29.2692 9.51133 28.9705 9.838C28.6812 10.1647 28.2892 10.3047 27.7945 10.258C27.3372 10.2207 26.9685 10.0153 26.6885 9.642C26.3712 9.222 26.2032 8.648 26.1845 7.92C26.1752 7.388 26.2358 6.912 26.3665 6.492C26.5812 5.82933 26.9918 5.316 27.5985 4.952C27.9998 4.71867 28.5692 4.61133 29.3065 4.63V3.888C28.5785 3.888 28.0605 3.944 27.7525 4.056ZM33.8901 8.62V13.562H27.0441C26.4001 13.562 26.0361 13.24 25.9521 12.596C25.9428 12.5213 25.9381 12.4467 25.9381 12.372C25.9381 11.924 26.0735 11.5927 26.3441 11.378H27.2261C26.9181 11.658 26.7688 11.9613 26.7781 12.288C26.7968 12.68 27.0161 12.876 27.4361 12.876H33.0641V9.712C33.4095 9.404 33.6848 9.04 33.8901 8.62ZM38.9948 6.45C38.7148 6.45 38.4815 6.54333 38.2948 6.73C38.1175 6.90733 38.0288 7.12667 38.0288 7.388C38.0288 7.64933 38.1035 7.87333 38.2528 8.06C38.4115 8.23733 38.6401 8.326 38.9388 8.326C39.2188 8.326 39.4428 8.242 39.6108 8.074C39.7788 7.906 39.8628 7.69133 39.8628 7.43C39.8628 7.15 39.7835 6.91667 39.6248 6.73C39.4755 6.54333 39.2655 6.45 38.9948 6.45ZM40.7028 7.472C40.7028 7.976 40.5348 8.37733 40.1988 8.676C39.8721 8.96533 39.4521 9.11 38.9388 9.11C38.4348 9.11 38.0195 8.956 37.6928 8.648C37.3661 8.34 37.2028 7.934 37.2028 7.43C37.2028 6.94467 37.3708 6.534 37.7068 6.198C38.0428 5.862 38.4675 5.68 38.9808 5.652C39.4008 5.624 39.7695 5.64733 40.0868 5.722C40.3761 5.78733 40.6608 5.918 40.9408 6.114C41.2768 6.35667 41.5381 6.646 41.7248 6.982C41.9395 7.38333 42.0375 7.85933 42.0188 8.41C42.0001 8.89533 41.8601 9.31067 41.5988 9.656C41.3655 9.964 41.1135 10.2113 40.8428 10.398C40.5161 10.6313 40.1475 10.7993 39.7368 10.902C39.4848 10.9673 39.0881 11.0047 38.5468 11.014C38.0521 11.0233 37.5761 10.9113 37.1188 10.678C36.6335 10.4353 36.2508 10.1273 35.9708 9.754C35.7001 9.38067 35.5041 9.00733 35.3828 8.634C35.2708 8.25133 35.2148 7.84533 35.2148 7.416C35.2148 6.97733 35.2895 6.55733 35.4388 6.156C35.5601 5.82 35.7608 5.47933 36.0408 5.134C36.2835 4.826 36.5588 4.58333 36.8668 4.406C37.1188 4.25667 37.3615 4.14467 37.5948 4.07C37.9961 3.93933 38.3835 3.874 38.7568 3.874C39.4008 3.874 39.9795 4 40.4928 4.252C41.0155 4.49467 41.3748 4.91467 41.5708 5.512H40.7168C40.5488 5.19467 40.3201 4.97067 40.0308 4.84C39.7415 4.7 39.4428 4.62067 39.1348 4.602C38.8361 4.58333 38.5935 4.588 38.4068 4.616C38.0708 4.672 37.7815 4.76533 37.5388 4.896C37.1655 5.11067 36.8528 5.39067 36.6008 5.736C36.2368 6.24933 36.0501 6.79067 36.0408 7.36C36.0315 7.77067 36.0781 8.13933 36.1808 8.466C36.3021 8.84867 36.4795 9.15667 36.7128 9.39C37.0301 9.70733 37.3381 9.93133 37.6368 10.062C37.9448 10.1927 38.2855 10.258 38.6588 10.258C39.0415 10.258 39.3961 10.202 39.7228 10.09C39.9188 10.0247 40.0961 9.936 40.2548 9.824C40.4601 9.684 40.6655 9.488 40.8708 9.236C41.0761 8.97467 41.1835 8.67133 41.1928 8.326C41.2021 7.906 41.1461 7.57467 41.0248 7.332C40.9128 7.08933 40.7635 6.87467 40.5768 6.688C40.5301 6.64133 40.4508 6.58067 40.3388 6.506C40.3855 6.54333 40.4508 6.62267 40.5348 6.744C40.5908 6.83733 40.6328 6.94467 40.6608 7.066C40.6888 7.29 40.7028 7.42533 40.7028 7.472ZM47.0847 10.986C45.6007 10.9673 44.518 10.6547 43.8367 10.048C43.202 9.488 42.8847 8.802 42.8847 7.99C42.8847 7.08467 43.272 6.43133 44.0467 6.03C44.4947 5.79667 45.022 5.68 45.6287 5.68H46.6087C46.59 5.32533 46.4687 5.05467 46.2447 4.868C46.0207 4.672 45.7407 4.574 45.4047 4.574C45.0593 4.574 44.77 4.66733 44.5367 4.854C44.3033 5.04067 44.1867 5.316 44.1867 5.68H43.3607C43.3513 5.10133 43.5567 4.644 43.9767 4.308C44.35 4.00933 44.826 3.86 45.4047 3.86C46.7953 3.86 47.5 4.69533 47.5187 6.366H45.8387C45.1387 6.366 44.6253 6.51067 44.2987 6.8C43.9067 7.14533 43.7247 7.56067 43.7527 8.046C43.7993 8.82067 44.1587 9.39933 44.8307 9.782C45.3813 10.09 46.1093 10.244 47.0147 10.244C48.0507 10.244 48.8627 9.93133 49.4507 9.306C50.0387 8.67133 50.356 7.79867 50.4027 6.688C50.4493 5.68 50.1413 4.84467 49.4787 4.182C48.8533 3.55667 47.9573 3.23933 46.7907 3.23C45.4653 3.21133 44.294 3.44933 43.2767 3.944V3.174C43.9393 2.95933 44.2707 2.782 44.2707 2.642C44.2707 2.614 44.252 2.59067 44.2147 2.572C44.0187 2.45067 43.9207 2.278 43.9207 2.054C43.9207 1.83 44.0607 1.62933 44.3407 1.452C44.826 1.15333 45.68 1.004 46.9027 1.004C49.1893 1.004 50.4587 1.466 50.7107 2.39C50.7387 2.49267 50.7527 2.6 50.7527 2.712C50.7527 3.16933 50.5707 3.51 50.2067 3.734C50.888 4.47133 51.2287 5.40933 51.2287 6.548C51.2287 7.892 50.874 8.96067 50.1647 9.754C49.4273 10.5847 48.4007 10.9953 47.0847 10.986ZM45.0127 2.656C45.5727 2.56267 46.17 2.516 46.8047 2.516C47.934 2.516 48.8533 2.73533 49.5627 3.174C49.852 3.118 49.964 2.922 49.8987 2.586C49.796 2.01667 48.8207 1.732 46.9727 1.732C45.9367 1.732 45.2693 1.816 44.9707 1.984C44.8867 2.03067 44.84 2.082 44.8307 2.138C44.812 2.20333 44.826 2.25933 44.8727 2.306C44.9287 2.34333 44.98 2.38067 45.0267 2.418C45.0827 2.474 45.078 2.55333 45.0127 2.656ZM53.6805 9.796C53.1858 9.44133 52.9338 8.96067 52.9245 8.354C52.9151 7.74733 53.1905 7.234 53.7505 6.814C54.0118 6.618 54.2731 6.49667 54.5345 6.45C54.6745 6.422 54.9405 6.408 55.3325 6.408H58.5665C58.5571 6.34267 58.5431 6.226 58.5245 6.058C58.4031 5.386 58.1278 4.85867 57.6985 4.476C57.2785 4.084 56.6205 3.888 55.7245 3.888C55.3231 3.888 55.0618 3.902 54.9405 3.93C54.4831 4.03267 54.2311 4.09333 54.1845 4.112C53.8671 4.24267 53.5591 4.49 53.2605 4.854C52.9898 5.18067 52.8545 5.484 52.8545 5.764H53.6945C53.7038 5.71733 53.7225 5.652 53.7505 5.568C53.8998 5.204 54.1238 4.952 54.4225 4.812C54.7305 4.672 55.1691 4.59733 55.7385 4.588C56.2331 4.588 56.6158 4.672 56.8865 4.84C57.1665 4.99867 57.4138 5.29267 57.6285 5.722H55.3745C54.5438 5.722 53.9605 5.82 53.6245 6.016C53.3818 6.156 53.2418 6.24 53.2045 6.268C53.0738 6.37067 52.8918 6.55267 52.6585 6.814C52.2945 7.234 52.1125 7.74733 52.1125 8.354C52.1125 9.09133 52.3505 9.67467 52.8265 10.104C53.1718 10.4213 53.5078 10.6407 53.8345 10.762C54.0865 10.8553 54.4925 10.9393 55.0525 11.014C54.7258 11.1353 54.5578 11.4107 54.5485 11.84C54.5391 12.092 54.6371 12.3253 54.8425 12.54C55.0758 12.8013 55.4351 12.988 55.9205 13.1C56.1631 13.156 56.5505 13.184 57.0825 13.184C57.7731 13.184 58.3658 13.0207 58.8605 12.694C59.1871 12.4793 59.4345 12.204 59.6025 11.868C59.7518 11.5787 59.8031 11.2613 59.7565 10.916H58.9305C58.9678 11.0187 58.9678 11.1587 58.9305 11.336C58.8931 11.5413 58.8138 11.6953 58.6925 11.798C58.4031 12.0407 58.1885 12.1947 58.0485 12.26C57.7871 12.3813 57.4045 12.4513 56.9005 12.47C55.9298 12.5073 55.4445 12.2553 55.4445 11.714C55.4445 11.378 55.7245 11.1493 56.2845 11.028C56.3871 11.028 56.5505 11.014 56.7745 10.986C57.7265 10.846 58.4218 10.5333 58.8605 10.048C59.0005 9.88933 59.0845 9.712 59.1125 9.516H58.2585C58.2211 9.77733 57.8851 9.992 57.2505 10.16C56.8865 10.2533 56.3871 10.3047 55.7525 10.314C54.8751 10.3233 54.1845 10.1507 53.6805 9.796ZM62.3677 4.056C61.6117 4.336 61.0284 4.77 60.6177 5.358C60.1884 5.98333 59.9737 6.79067 59.9737 7.78C59.9737 8.66667 60.1884 9.44133 60.6177 10.104C60.8884 10.5147 61.2571 10.79 61.7237 10.93C62.0131 11.014 62.3397 11.0467 62.7037 11.028C63.3291 10.9907 63.8004 10.8133 64.1177 10.496C64.2391 10.3747 64.3371 10.2253 64.4117 10.048C64.4864 10.2067 64.5984 10.3653 64.7477 10.524C65.0744 10.86 65.5364 11.028 66.1337 11.028C66.7031 11.028 67.1697 10.9253 67.5337 10.72C67.9071 10.5053 68.2057 10.188 68.4297 9.768C68.6631 9.33867 68.7797 8.872 68.7797 8.368C68.7797 7.612 68.5837 7.01 68.1917 6.562C67.8651 6.18867 67.4591 5.93667 66.9737 5.806C66.7684 5.75 66.5164 5.722 66.2177 5.722H65.0417C65.0417 5.37667 65.1211 5.11533 65.2797 4.938C65.4757 4.714 65.8071 4.602 66.2737 4.602C66.6657 4.602 66.9271 4.70933 67.0577 4.924C67.1977 5.12933 67.2677 5.386 67.2677 5.694H68.0797C68.0797 5.162 67.9631 4.74667 67.7297 4.448C67.4311 4.06533 66.9457 3.874 66.2737 3.874C65.2471 3.874 64.5891 4.27067 64.2997 5.064C64.2437 5.21333 64.2157 5.53533 64.2157 6.03V6.394H65.9657C66.1711 6.394 66.3157 6.39867 66.3997 6.408C66.7824 6.408 67.1277 6.57133 67.4357 6.898C67.7811 7.262 67.9584 7.71467 67.9677 8.256C67.9771 8.63867 67.8977 9.00267 67.7297 9.348C67.5711 9.684 67.3564 9.92667 67.0857 10.076C66.8524 10.2067 66.6331 10.272 66.4277 10.272C65.9051 10.272 65.4991 10.1227 65.2097 9.824C64.9297 9.516 64.7897 9.18467 64.7897 8.83V7.948H64.0337V8.886C64.0337 9.194 63.8844 9.51133 63.5857 9.838C63.2964 10.1647 62.9044 10.3047 62.4097 10.258C61.9524 10.2207 61.5837 10.0153 61.3037 9.642C60.9864 9.222 60.8184 8.648 60.7997 7.92C60.7904 7.388 60.8511 6.912 60.9817 6.492C61.1964 5.82933 61.6071 5.316 62.2137 4.952C62.6151 4.71867 63.1844 4.61133 63.9217 4.63V3.888C63.1937 3.888 62.6757 3.944 62.3677 4.056Z" fill="#1F3A6F"/>
</svg>
