<svg width="65" height="14" viewBox="0 0 65 14" fill="none" xmlns="http://www.w3.org/2000/svg">
<path d="M8.13066 11H6.40117L1.96465 3.93848V11H0.235157V1.04688H1.96465L6.41484 8.13574V1.04688H8.13066V11ZM13.4213 11.1367C12.3686 11.1367 11.5141 10.8063 10.8578 10.1455C10.2061 9.48014 9.88027 8.59603 9.88027 7.49316V7.28809C9.88027 6.5498 10.0215 5.89128 10.3041 5.3125C10.5912 4.72917 10.9923 4.27572 11.5072 3.95215C12.0222 3.62858 12.5964 3.4668 13.2299 3.4668C14.237 3.4668 15.0141 3.78809 15.5609 4.43066C16.1124 5.07324 16.3881 5.98242 16.3881 7.1582V7.82812H11.5551C11.6052 8.4388 11.808 8.92188 12.1635 9.27734C12.5235 9.63281 12.9747 9.81055 13.517 9.81055C14.2781 9.81055 14.8979 9.50293 15.3764 8.8877L16.2719 9.74219C15.9757 10.1842 15.5792 10.5283 15.0824 10.7744C14.5902 11.016 14.0365 11.1367 13.4213 11.1367ZM13.223 4.7998C12.7673 4.7998 12.3982 4.95931 12.1156 5.27832C11.8376 5.59733 11.6599 6.04167 11.5824 6.61133H14.7475V6.48828C14.711 5.93229 14.5629 5.51302 14.3031 5.23047C14.0434 4.94336 13.6833 4.7998 13.223 4.7998ZM22.3145 10.2754C21.8268 10.8496 21.1341 11.1367 20.2363 11.1367C19.4342 11.1367 18.8258 10.902 18.4111 10.4326C18.001 9.96322 17.7959 9.28418 17.7959 8.39551V3.60352H19.457V8.375C19.457 9.3138 19.8467 9.7832 20.626 9.7832C21.4326 9.7832 21.9772 9.49382 22.2598 8.91504V3.60352H23.9209V11H22.3555L22.3145 10.2754ZM29.6354 5.12109C29.4166 5.08464 29.191 5.06641 28.9586 5.06641C28.1975 5.06641 27.6848 5.35807 27.4205 5.94141V11H25.7594V3.60352H27.3453L27.3863 4.43066C27.7874 3.78809 28.3434 3.4668 29.0543 3.4668C29.2913 3.4668 29.4872 3.4987 29.6422 3.5625L29.6354 5.12109ZM30.2775 7.2334C30.2775 6.50879 30.4211 5.8571 30.7082 5.27832C30.9953 4.69499 31.3986 4.24837 31.9182 3.93848C32.4377 3.62402 33.0347 3.4668 33.7092 3.4668C34.7072 3.4668 35.5161 3.78809 36.1359 4.43066C36.7603 5.07324 37.0975 5.92546 37.1477 6.9873L37.1545 7.37695C37.1545 8.10612 37.0132 8.75781 36.7307 9.33203C36.4527 9.90625 36.0516 10.3506 35.5275 10.665C35.008 10.9795 34.4064 11.1367 33.7229 11.1367C32.6792 11.1367 31.843 10.7904 31.2141 10.0977C30.5897 9.40039 30.2775 8.47298 30.2775 7.31543V7.2334ZM31.9387 7.37695C31.9387 8.13802 32.0959 8.73503 32.4104 9.16797C32.7248 9.59635 33.1623 9.81055 33.7229 9.81055C34.2834 9.81055 34.7186 9.5918 35.0285 9.1543C35.343 8.7168 35.5002 8.0765 35.5002 7.2334C35.5002 6.486 35.3384 5.89355 35.0148 5.45605C34.6958 5.01855 34.2606 4.7998 33.7092 4.7998C33.1669 4.7998 32.7362 5.01628 32.4172 5.44922C32.0982 5.8776 31.9387 6.52018 31.9387 7.37695ZM40.4764 11H38.8152V0.5H40.4764V11ZM42.1303 7.2334C42.1303 6.50879 42.2738 5.8571 42.5609 5.27832C42.848 4.69499 43.2514 4.24837 43.7709 3.93848C44.2904 3.62402 44.8874 3.4668 45.5619 3.4668C46.56 3.4668 47.3689 3.78809 47.9887 4.43066C48.613 5.07324 48.9503 5.92546 49.0004 6.9873L49.0072 7.37695C49.0072 8.10612 48.866 8.75781 48.5834 9.33203C48.3054 9.90625 47.9044 10.3506 47.3803 10.665C46.8607 10.9795 46.2592 11.1367 45.5756 11.1367C44.532 11.1367 43.6957 10.7904 43.0668 10.0977C42.4425 9.40039 42.1303 8.47298 42.1303 7.31543V7.2334ZM43.7914 7.37695C43.7914 8.13802 43.9486 8.73503 44.2631 9.16797C44.5775 9.59635 45.015 9.81055 45.5756 9.81055C46.1361 9.81055 46.5714 9.5918 46.8813 9.1543C47.1957 8.7168 47.3529 8.0765 47.3529 7.2334C47.3529 6.486 47.1911 5.89355 46.8676 5.45605C46.5486 5.01855 46.1133 4.7998 45.5619 4.7998C45.0196 4.7998 44.5889 5.01628 44.2699 5.44922C43.9509 5.8776 43.7914 6.52018 43.7914 7.37695ZM50.2715 7.24707C50.2715 6.09863 50.5404 5.18262 51.0781 4.49902C51.6204 3.81087 52.3382 3.4668 53.2314 3.4668C54.0745 3.4668 54.7376 3.76074 55.2207 4.34863L55.2959 3.60352H56.793V10.7744C56.793 11.7451 56.4899 12.5107 55.8838 13.0713C55.2822 13.6318 54.4688 13.9121 53.4434 13.9121C52.901 13.9121 52.3701 13.7982 51.8506 13.5703C51.3356 13.347 50.9437 13.0531 50.6748 12.6885L51.4609 11.6904C51.9714 12.2965 52.6003 12.5996 53.3477 12.5996C53.8991 12.5996 54.3343 12.4492 54.6533 12.1484C54.9723 11.8522 55.1318 11.4147 55.1318 10.8359V10.3369C54.6533 10.8701 54.0153 11.1367 53.2178 11.1367C52.3519 11.1367 51.6432 10.7926 51.0918 10.1045C50.5449 9.41634 50.2715 8.46387 50.2715 7.24707ZM51.9258 7.39062C51.9258 8.13346 52.0762 8.71908 52.377 9.14746C52.6823 9.57129 53.1038 9.7832 53.6416 9.7832C54.3115 9.7832 54.8083 9.49609 55.1318 8.92188V5.66797C54.8174 5.10742 54.3252 4.82715 53.6553 4.82715C53.1084 4.82715 52.6823 5.04362 52.377 5.47656C52.0762 5.90951 51.9258 6.54753 51.9258 7.39062ZM61.2428 8.62109L62.7467 3.60352H64.5172L61.5777 12.1211C61.1266 13.3652 60.3609 13.9873 59.2809 13.9873C59.0393 13.9873 58.7727 13.9463 58.4811 13.8643V12.5791L58.7955 12.5996C59.2148 12.5996 59.5292 12.5221 59.7389 12.3672C59.9531 12.2168 60.1217 11.9616 60.2447 11.6016L60.484 10.9658L57.8863 3.60352H59.6773L61.2428 8.62109Z" fill="#1F3A6F"/>
</svg>
