<svg width="82" height="14" viewBox="0 0 82 14" fill="none" xmlns="http://www.w3.org/2000/svg">
<path d="M1.71123 6.072H0.913227C0.829227 5.596 0.871227 5.18533 1.03923 4.84C1.32856 4.24267 1.81856 3.944 2.50923 3.944C2.91056 3.944 3.24189 4.06533 3.50323 4.308C3.77389 4.55067 3.92323 4.86333 3.95123 5.246C4.56723 4.35933 5.44456 3.93 6.58323 3.958C7.80589 3.99533 8.74856 4.52733 9.41123 5.554C9.82189 6.18867 10.0132 6.884 9.98523 7.64C9.93856 8.99333 9.33656 9.98267 8.17923 10.608C7.63789 10.8973 6.92389 11.0513 6.03723 11.07V10.37C6.96123 10.3513 7.70789 10.0947 8.27723 9.6C8.84656 9.10533 9.13589 8.452 9.14523 7.64C9.15456 6.94 8.94923 6.30533 8.52923 5.736C8.11856 5.15733 7.60523 4.82133 6.98923 4.728C6.83056 4.7 6.67189 4.686 6.51323 4.686C5.53323 4.686 4.79589 5.12933 4.30123 6.016C4.40389 5.99733 4.50656 5.988 4.60923 5.988C5.12256 5.988 5.58456 6.17 5.99523 6.534C6.53656 7.01 6.80723 7.64933 6.80723 8.452C6.80723 8.76933 6.72789 9.10067 6.56923 9.446C6.41056 9.79133 6.20523 10.076 5.95323 10.3C5.32789 10.832 4.55323 11.0933 3.62923 11.084C2.57456 11.0653 1.73456 10.7433 1.10923 10.118C0.577227 9.586 0.30656 8.816 0.297227 7.808C0.297227 7.48133 0.32056 7.16867 0.367227 6.87H1.05323C1.04389 7.28067 1.29123 7.49067 1.79523 7.5C2.09389 7.50933 2.37389 7.40667 2.63523 7.192C2.89656 6.968 3.09723 6.66467 3.23723 6.282C3.34923 5.98333 3.33523 5.63333 3.19523 5.232C3.07389 4.868 2.84056 4.686 2.49523 4.686C2.21523 4.686 2.00056 4.77933 1.85123 4.966C1.71123 5.15267 1.64123 5.37667 1.64123 5.638C1.64123 5.79667 1.66456 5.94133 1.71123 6.072ZM1.06723 7.934C1.08589 8.466 1.21656 8.914 1.45923 9.278C1.72056 9.67 2.04256 9.95 2.42523 10.118C2.74256 10.2487 3.16256 10.3233 3.68523 10.342C4.25456 10.3607 4.75856 10.2067 5.19723 9.88C5.67323 9.516 5.92989 9.04933 5.96723 8.48C6.00456 8.01333 5.86923 7.598 5.56123 7.234C5.25323 6.86067 4.88456 6.674 4.45523 6.674C4.25923 6.674 4.13789 6.68333 4.09123 6.702C3.97923 6.73933 3.85323 6.856 3.71323 7.052C3.33056 7.56533 2.91523 7.91533 2.46723 8.102C2.28056 8.17667 2.06123 8.214 1.80923 8.214C1.39856 8.214 1.15123 8.12067 1.06723 7.934ZM11.8179 6.03H11.0059C10.8659 5.68467 10.8192 5.36267 10.8659 5.064C10.9219 4.70933 11.0805 4.42933 11.3419 4.224C11.6032 4.00933 11.9205 3.91133 12.2939 3.93C13.1899 3.97667 13.6519 4.46667 13.6799 5.4C13.6985 5.94133 13.5725 6.45933 13.3019 6.954C13.0405 7.32733 12.7792 7.70533 12.5179 8.088C12.0232 8.80667 11.7619 9.38533 11.7339 9.824C12.0045 9.66533 12.2985 9.586 12.6159 9.586C12.9145 9.586 13.2692 9.70267 13.6799 9.936C14.0999 10.16 14.4685 10.272 14.7859 10.272C15.1965 10.272 15.5325 10.1413 15.7939 9.88C16.0552 9.60933 16.2045 9.26867 16.2419 8.858C16.2792 8.37267 16.1579 7.96667 15.8779 7.64C15.7005 7.43467 15.3599 7.18267 14.8559 6.884C14.4732 6.66 14.2072 6.43133 14.0579 6.198C13.9085 5.95533 13.8385 5.62867 13.8479 5.218C13.8572 4.81667 14.0019 4.49933 14.2819 4.266C14.5619 4.02333 14.9165 3.902 15.3459 3.902C16.1112 3.902 16.5825 4.23333 16.7599 4.896C16.7879 4.99867 16.8019 5.11067 16.8019 5.232C16.8019 5.46533 16.7505 5.708 16.6479 5.96H15.8219C15.9619 5.708 16.0132 5.46533 15.9759 5.232C15.9105 4.84 15.7052 4.63933 15.3599 4.63C14.9772 4.61133 14.7579 4.798 14.7019 5.19C14.6645 5.47 14.7392 5.722 14.9259 5.946C15.0472 6.09533 15.2805 6.27733 15.6259 6.492C16.1299 6.80933 16.4892 7.11733 16.7039 7.416C16.9652 7.78933 17.0912 8.23733 17.0819 8.76C17.0632 9.44133 16.8485 9.98733 16.4379 10.398C16.0272 10.7993 15.4579 11.0093 14.7299 11.028C14.3659 11.0373 13.9785 10.9347 13.5679 10.72C13.1199 10.4867 12.7559 10.3607 12.4759 10.342C11.9905 10.314 11.6965 10.5007 11.5939 10.902H10.8659C10.8659 10.2953 10.8939 9.86133 10.9499 9.6C11.0339 9.16133 11.2299 8.68533 11.5379 8.172C11.8272 7.752 12.1119 7.332 12.3919 6.912C12.6812 6.48267 12.8445 6.05333 12.8819 5.624C12.9099 5.344 12.8632 5.11067 12.7419 4.924C12.6299 4.728 12.4572 4.63467 12.2239 4.644C11.8785 4.65333 11.6872 4.84 11.6499 5.204C11.6125 5.55867 11.6685 5.834 11.8179 6.03ZM25.8572 5.484C25.8572 4.94267 25.6985 4.54133 25.3812 4.28C25.0638 4.01867 24.6252 3.888 24.0652 3.888C23.6545 3.888 23.2952 4 22.9872 4.224C22.6792 4.43867 22.4832 4.73267 22.3992 5.106C22.3432 5.358 22.3152 5.666 22.3152 6.03V6.394H23.7152C24.0512 6.394 24.3032 6.41733 24.4712 6.464C24.3592 6.66933 24.0885 6.83267 23.6592 6.954C23.4258 7.01933 22.8938 7.052 22.0632 7.052C21.4285 7.052 20.9665 7.108 20.6772 7.22C20.2852 7.37867 20.0892 7.67733 20.0892 8.116C20.0892 8.956 20.7985 9.376 22.2172 9.376C22.7585 9.376 23.2252 9.292 23.6172 9.124C24.0932 8.91867 24.3312 8.62933 24.3312 8.256C24.3312 7.976 24.2472 7.738 24.0792 7.542C24.2005 7.50467 24.4105 7.402 24.7092 7.234C24.9052 7.13133 25.0498 7.00533 25.1432 6.856C25.4512 7.20133 25.6052 7.63533 25.6052 8.158C25.6052 8.68067 25.4092 9.13333 25.0172 9.516C24.4198 10.0947 23.4818 10.384 22.2032 10.384C20.9245 10.384 19.9865 10.0947 19.3892 9.516C18.9972 9.13333 18.8012 8.68067 18.8012 8.158C18.8012 7.92467 18.8385 7.696 18.9132 7.472C19.0718 7.01467 19.3332 6.70667 19.6972 6.548C19.9305 6.44533 20.2618 6.394 20.6912 6.394H22.0912V6.03C22.0912 5.666 22.0632 5.358 22.0072 5.106C21.9232 4.73267 21.7272 4.43867 21.4192 4.224C21.1112 4 20.7518 3.888 20.3412 3.888C19.7812 3.888 19.3425 4.01867 19.0252 4.28C18.7078 4.54133 18.5492 4.94267 18.5492 5.484C18.5492 5.484 18.5678 5.55867 18.6052 5.708H19.4172C19.3612 5.568 19.3378 5.456 19.3472 5.372C19.3752 4.85867 19.7112 4.60667 20.3552 4.616C20.7005 4.62533 20.9478 4.74667 21.0972 4.98C21.1998 5.148 21.2605 5.4 21.2792 5.736H20.3552C19.8418 5.736 19.4125 5.83867 19.0672 6.044C18.7312 6.24933 18.4652 6.52933 18.2692 6.884C18.0732 7.22933 17.9752 7.63533 17.9752 8.102C17.9752 9.29667 18.5305 10.146 19.6412 10.65C20.3412 10.9673 21.1905 11.126 22.1892 11.126C23.2065 11.126 24.0652 10.9673 24.7652 10.65C25.8665 10.146 26.4172 9.29667 26.4172 8.102C26.4172 7.63533 26.3285 7.234 26.1512 6.898C25.9925 6.60867 25.8012 6.38 25.5772 6.212C25.7638 6.044 25.8572 5.80133 25.8572 5.484ZM24.8912 5.848C24.8818 5.83867 24.8632 5.82933 24.8352 5.82C24.8072 5.81067 24.7885 5.806 24.7792 5.806C24.5738 5.75933 24.3312 5.736 24.0512 5.736H23.1272C23.1458 5.4 23.2065 5.148 23.3092 4.98C23.4585 4.74667 23.7058 4.62533 24.0512 4.616C24.7138 4.60667 25.0498 4.85867 25.0592 5.372C25.0592 5.54933 25.0032 5.708 24.8912 5.848ZM22.2032 7.696C22.6698 7.696 22.9778 7.71467 23.1272 7.752C23.4072 7.81733 23.5472 7.962 23.5472 8.186C23.5472 8.54067 23.1038 8.718 22.2172 8.718C21.3212 8.718 20.8732 8.53133 20.8732 8.158C20.8732 7.85 21.3165 7.696 22.2032 7.696ZM25.0004 2.53C25.1684 2.65133 25.3504 2.698 25.5464 2.67C25.733 2.642 25.873 2.572 25.9664 2.46C26.0597 2.33867 26.097 2.18467 26.0784 1.998C26.0597 1.79267 26.0084 1.65267 25.9244 1.578C25.7937 1.466 25.6584 1.41467 25.5184 1.424C25.397 1.43333 25.2897 1.47067 25.1964 1.536C25.0657 1.62 25.0004 1.72267 25.0004 1.844V2.53ZM24.2444 1.914C24.2444 1.718 24.1697 1.58733 24.0204 1.522C23.8617 1.45667 23.6984 1.46133 23.5304 1.536C23.353 1.61067 23.227 1.71333 23.1524 1.844V1.06C23.4324 0.826666 23.7357 0.724 24.0624 0.751999C24.2117 0.761333 24.3517 0.808 24.4824 0.891999C24.557 0.938666 24.641 1.00867 24.7344 1.102C24.8277 0.99 24.9584 0.901333 25.1264 0.836C25.2944 0.770666 25.4857 0.742666 25.7004 0.751999C26.027 0.770666 26.3024 0.882666 26.5264 1.088C26.741 1.29333 26.8577 1.58267 26.8764 1.956C26.8857 2.264 26.8344 2.51133 26.7224 2.698C26.601 2.88467 26.447 3.02933 26.2604 3.132C26.0364 3.25333 25.7937 3.30467 25.5324 3.286C25.2804 3.26733 25.103 3.22533 25.0004 3.16V4.742C24.9257 4.658 24.8044 4.55067 24.6364 4.42C24.487 4.32667 24.3564 4.26133 24.2444 4.224V1.914ZM31.6451 11.042C30.4131 11.0327 29.4424 10.734 28.7331 10.146C27.9677 9.502 27.5851 8.57333 27.5851 7.36C27.5851 6.45467 27.8837 5.68 28.4811 5.036C29.0877 4.38267 29.8391 4.03733 30.7351 4C31.0897 3.98133 31.4491 4.02333 31.8131 4.126V4.882C31.4957 4.77 31.1644 4.72333 30.8191 4.742C30.1377 4.77933 29.5637 5.04067 29.0971 5.526C28.6397 6.01133 28.4111 6.58533 28.4111 7.248C28.4111 8.2 28.7051 8.94667 29.2931 9.488C29.8531 10.02 30.6184 10.286 31.5891 10.286C32.6344 10.286 33.4697 9.964 34.0951 9.32C34.7204 8.66667 35.0564 7.78933 35.1031 6.688C35.1497 5.66133 34.8417 4.826 34.1791 4.182C34.0204 4.02333 33.7777 3.88333 33.4511 3.762C33.1244 3.63133 32.7977 3.566 32.4711 3.566H29.2091C28.5277 3.566 28.1311 3.314 28.0191 2.81C28.0004 2.726 27.9911 2.63733 27.9911 2.544C27.9911 2.124 28.1964 1.788 28.6071 1.536C29.1857 1.18133 30.1797 1.004 31.5891 1.004C32.5317 1.004 33.2597 1.06467 33.7731 1.186C34.6784 1.39133 35.2104 1.788 35.3691 2.376C35.3971 2.488 35.4111 2.6 35.4111 2.712C35.4111 3.08533 35.2431 3.426 34.9071 3.734C35.5884 4.47133 35.9291 5.40933 35.9291 6.548C35.9291 7.88267 35.5511 8.96067 34.7951 9.782C34.0204 10.6313 32.9704 11.0513 31.6451 11.042ZM32.5691 2.838C33.3157 2.838 33.8664 2.96867 34.2211 3.23C34.5011 3.09 34.6131 2.87533 34.5571 2.586C34.4544 2.01667 33.4884 1.732 31.6591 1.732C30.4551 1.732 29.6477 1.83933 29.2371 2.054C28.9664 2.194 28.8404 2.34333 28.8591 2.502C28.8777 2.726 29.1157 2.838 29.5731 2.838H32.5691ZM39.2941 6.156C39.1448 6.28667 38.9068 6.51533 38.5801 6.842C38.3375 7.094 38.0061 7.444 37.5861 7.892C37.8288 7.92 37.9921 8.06 38.0761 8.312C38.1041 8.40533 38.1181 8.49867 38.1181 8.592C38.1181 8.69467 38.0995 8.802 38.0621 8.914C38.0061 9.082 37.9781 9.17067 37.9781 9.18C37.9595 9.25467 37.9501 9.334 37.9501 9.418C37.9501 9.96867 38.2441 10.244 38.8321 10.244C39.1681 10.244 39.4341 10.1367 39.6301 9.922C39.8261 9.70733 39.9241 9.42267 39.9241 9.068V8.27H40.6941V9.082C40.6941 9.94067 41.0535 10.3373 41.7721 10.272C42.1361 10.2347 42.4255 10.0247 42.6401 9.642C42.8175 9.31533 42.9061 8.94667 42.9061 8.536C42.9061 7.88267 42.7101 7.29933 42.3181 6.786C41.9355 6.27267 41.4268 5.94133 40.7921 5.792C40.6708 5.764 40.5355 5.75 40.3861 5.75C39.9381 5.75 39.5741 5.88533 39.2941 6.156ZM37.7961 5.89H36.9841C36.9468 5.74067 36.9281 5.596 36.9281 5.456C36.9281 5.04533 37.0635 4.69067 37.3341 4.392C37.6048 4.084 37.9408 3.916 38.3421 3.888C39.2381 3.82267 39.7561 4.13533 39.8961 4.826C40.7081 4.22867 41.6788 3.916 42.8081 3.888C43.9001 3.86 44.8288 4.21 45.5941 4.938C46.3875 5.694 46.7655 6.632 46.7281 7.752C46.7001 8.69467 46.4015 9.474 45.8321 10.09C45.2721 10.6967 44.5441 11 43.6481 11C43.5268 11 43.4055 10.9953 43.2841 10.986V10.314C44.0588 10.37 44.7028 10.1087 45.2161 9.53C45.7295 8.95133 45.9581 8.27933 45.9021 7.514C45.8368 6.674 45.5195 5.98333 44.9501 5.442C44.3901 4.89133 43.6901 4.61133 42.8501 4.602C42.0195 4.59267 41.3241 4.76533 40.7641 5.12C42.5748 5.372 43.5548 6.41733 43.7041 8.256C43.7601 8.956 43.6341 9.572 43.3261 10.104C42.9808 10.7013 42.4815 11 41.8281 11C40.9415 10.9907 40.4281 10.748 40.2881 10.272C40.1295 10.7573 39.5881 11 38.6641 11C38.2348 11 37.8755 10.86 37.5861 10.58C37.2968 10.2907 37.1428 9.94533 37.1241 9.544C37.1148 9.41333 37.1381 9.25 37.1941 9.054C37.2595 8.858 37.2921 8.73667 37.2921 8.69C37.2921 8.55 37.2128 8.48 37.0541 8.48C36.9515 8.48 36.8021 8.578 36.6061 8.774V7.934C36.7741 7.71 37.1848 7.24333 37.8381 6.534C37.8381 6.534 38.2115 6.16067 38.9581 5.414C39.0608 5.31133 39.1121 5.18533 39.1121 5.036C39.1121 4.728 38.9021 4.59267 38.4821 4.63C38.2488 4.64867 38.0621 4.74667 37.9221 4.924C37.7915 5.10133 37.7261 5.302 37.7261 5.526C37.7261 5.65667 37.7495 5.778 37.7961 5.89ZM51.3522 6.45C51.0722 6.45 50.8389 6.54333 50.6522 6.73C50.4749 6.90733 50.3862 7.12667 50.3862 7.388C50.3862 7.64933 50.4609 7.87333 50.6102 8.06C50.7689 8.23733 50.9976 8.326 51.2962 8.326C51.5762 8.326 51.8002 8.242 51.9682 8.074C52.1362 7.906 52.2202 7.69133 52.2202 7.43C52.2202 7.15 52.1409 6.91667 51.9822 6.73C51.8329 6.54333 51.6229 6.45 51.3522 6.45ZM53.0602 7.472C53.0602 7.976 52.8922 8.37733 52.5562 8.676C52.2296 8.96533 51.8096 9.11 51.2962 9.11C50.7922 9.11 50.3769 8.956 50.0502 8.648C49.7236 8.34 49.5602 7.934 49.5602 7.43C49.5602 6.94467 49.7282 6.534 50.0642 6.198C50.4002 5.862 50.8249 5.68 51.3382 5.652C51.7582 5.624 52.1269 5.64733 52.4442 5.722C52.7336 5.78733 53.0182 5.918 53.2982 6.114C53.6342 6.35667 53.8956 6.646 54.0822 6.982C54.2969 7.38333 54.3949 7.85933 54.3762 8.41C54.3576 8.89533 54.2176 9.31067 53.9562 9.656C53.7229 9.964 53.4709 10.2113 53.2002 10.398C52.8736 10.6313 52.5049 10.7993 52.0942 10.902C51.8422 10.9673 51.4456 11.0047 50.9042 11.014C50.4096 11.0233 49.9336 10.9113 49.4762 10.678C48.9909 10.4353 48.6082 10.1273 48.3282 9.754C48.0576 9.38067 47.8616 9.00733 47.7402 8.634C47.6282 8.25133 47.5722 7.84533 47.5722 7.416C47.5722 6.97733 47.6469 6.55733 47.7962 6.156C47.9176 5.82 48.1182 5.47933 48.3982 5.134C48.6409 4.826 48.9162 4.58333 49.2242 4.406C49.4762 4.25667 49.7189 4.14467 49.9522 4.07C50.3536 3.93933 50.7409 3.874 51.1142 3.874C51.7582 3.874 52.3369 4 52.8502 4.252C53.3729 4.49467 53.7322 4.91467 53.9282 5.512H53.0742C52.9062 5.19467 52.6776 4.97067 52.3882 4.84C52.0989 4.7 51.8002 4.62067 51.4922 4.602C51.1936 4.58333 50.9509 4.588 50.7642 4.616C50.4282 4.672 50.1389 4.76533 49.8962 4.896C49.5229 5.11067 49.2102 5.39067 48.9582 5.736C48.5942 6.24933 48.4076 6.79067 48.3982 7.36C48.3889 7.77067 48.4356 8.13933 48.5382 8.466C48.6596 8.84867 48.8369 9.15667 49.0702 9.39C49.3876 9.70733 49.6956 9.93133 49.9942 10.062C50.3022 10.1927 50.6429 10.258 51.0162 10.258C51.3989 10.258 51.7536 10.202 52.0802 10.09C52.2762 10.0247 52.4536 9.936 52.6122 9.824C52.8176 9.684 53.0229 9.488 53.2282 9.236C53.4336 8.97467 53.5409 8.67133 53.5502 8.326C53.5596 7.906 53.5036 7.57467 53.3822 7.332C53.2702 7.08933 53.1209 6.87467 52.9342 6.688C52.8876 6.64133 52.8082 6.58067 52.6962 6.506C52.7429 6.54333 52.8082 6.62267 52.8922 6.744C52.9482 6.83733 52.9902 6.94467 53.0182 7.066C53.0462 7.29 53.0602 7.42533 53.0602 7.472ZM59.4421 10.986C57.9581 10.9673 56.8754 10.6547 56.1941 10.048C55.5594 9.488 55.2421 8.802 55.2421 7.99C55.2421 7.08467 55.6294 6.43133 56.4041 6.03C56.8521 5.79667 57.3794 5.68 57.9861 5.68H58.9661C58.9474 5.32533 58.8261 5.05467 58.6021 4.868C58.3781 4.672 58.0981 4.574 57.7621 4.574C57.4168 4.574 57.1274 4.66733 56.8941 4.854C56.6608 5.04067 56.5441 5.316 56.5441 5.68H55.7181C55.7088 5.10133 55.9141 4.644 56.3341 4.308C56.7074 4.00933 57.1834 3.86 57.7621 3.86C59.1528 3.86 59.8574 4.69533 59.8761 6.366H58.1961C57.4961 6.366 56.9828 6.51067 56.6561 6.8C56.2641 7.14533 56.0821 7.56067 56.1101 8.046C56.1568 8.82067 56.5161 9.39933 57.1881 9.782C57.7388 10.09 58.4668 10.244 59.3721 10.244C60.4081 10.244 61.2201 9.93133 61.8081 9.306C62.3961 8.67133 62.7134 7.79867 62.7601 6.688C62.8068 5.68 62.4988 4.84467 61.8361 4.182C61.2108 3.55667 60.3148 3.23933 59.1481 3.23C57.8228 3.21133 56.6514 3.44933 55.6341 3.944V3.174C56.2968 2.95933 56.6281 2.782 56.6281 2.642C56.6281 2.614 56.6094 2.59067 56.5721 2.572C56.3761 2.45067 56.2781 2.278 56.2781 2.054C56.2781 1.83 56.4181 1.62933 56.6981 1.452C57.1834 1.15333 58.0374 1.004 59.2601 1.004C61.5468 1.004 62.8161 1.466 63.0681 2.39C63.0961 2.49267 63.1101 2.6 63.1101 2.712C63.1101 3.16933 62.9281 3.51 62.5641 3.734C63.2454 4.47133 63.5861 5.40933 63.5861 6.548C63.5861 7.892 63.2314 8.96067 62.5221 9.754C61.7848 10.5847 60.7581 10.9953 59.4421 10.986ZM57.3701 2.656C57.9301 2.56267 58.5274 2.516 59.1621 2.516C60.2914 2.516 61.2108 2.73533 61.9201 3.174C62.2094 3.118 62.3214 2.922 62.2561 2.586C62.1534 2.01667 61.1781 1.732 59.3301 1.732C58.2941 1.732 57.6268 1.816 57.3281 1.984C57.2441 2.03067 57.1974 2.082 57.1881 2.138C57.1694 2.20333 57.1834 2.25933 57.2301 2.306C57.2861 2.34333 57.3374 2.38067 57.3841 2.418C57.4401 2.474 57.4354 2.55333 57.3701 2.656ZM66.0379 9.796C65.5432 9.44133 65.2912 8.96067 65.2819 8.354C65.2725 7.74733 65.5479 7.234 66.1079 6.814C66.3692 6.618 66.6305 6.49667 66.8919 6.45C67.0319 6.422 67.2979 6.408 67.6899 6.408H70.9239C70.9145 6.34267 70.9005 6.226 70.8819 6.058C70.7605 5.386 70.4852 4.85867 70.0559 4.476C69.6359 4.084 68.9779 3.888 68.0819 3.888C67.6805 3.888 67.4192 3.902 67.2979 3.93C66.8405 4.03267 66.5885 4.09333 66.5419 4.112C66.2245 4.24267 65.9165 4.49 65.6179 4.854C65.3472 5.18067 65.2119 5.484 65.2119 5.764H66.0519C66.0612 5.71733 66.0799 5.652 66.1079 5.568C66.2572 5.204 66.4812 4.952 66.7799 4.812C67.0879 4.672 67.5265 4.59733 68.0959 4.588C68.5905 4.588 68.9732 4.672 69.2439 4.84C69.5239 4.99867 69.7712 5.29267 69.9859 5.722H67.7319C66.9012 5.722 66.3179 5.82 65.9819 6.016C65.7392 6.156 65.5992 6.24 65.5619 6.268C65.4312 6.37067 65.2492 6.55267 65.0159 6.814C64.6519 7.234 64.4699 7.74733 64.4699 8.354C64.4699 9.09133 64.7079 9.67467 65.1839 10.104C65.5292 10.4213 65.8652 10.6407 66.1919 10.762C66.4439 10.8553 66.8499 10.9393 67.4099 11.014C67.0832 11.1353 66.9152 11.4107 66.9059 11.84C66.8965 12.092 66.9945 12.3253 67.1999 12.54C67.4332 12.8013 67.7925 12.988 68.2779 13.1C68.5205 13.156 68.9079 13.184 69.4399 13.184C70.1305 13.184 70.7232 13.0207 71.2179 12.694C71.5445 12.4793 71.7919 12.204 71.9599 11.868C72.1092 11.5787 72.1605 11.2613 72.1139 10.916H71.2879C71.3252 11.0187 71.3252 11.1587 71.2879 11.336C71.2505 11.5413 71.1712 11.6953 71.0499 11.798C70.7605 12.0407 70.5459 12.1947 70.4059 12.26C70.1445 12.3813 69.7619 12.4513 69.2579 12.47C68.2872 12.5073 67.8019 12.2553 67.8019 11.714C67.8019 11.378 68.0819 11.1493 68.6419 11.028C68.7445 11.028 68.9079 11.014 69.1319 10.986C70.0839 10.846 70.7792 10.5333 71.2179 10.048C71.3579 9.88933 71.4419 9.712 71.4699 9.516H70.6159C70.5785 9.77733 70.2425 9.992 69.6079 10.16C69.2439 10.2533 68.7445 10.3047 68.1099 10.314C67.2325 10.3233 66.5419 10.1507 66.0379 9.796ZM74.7251 4.056C73.9691 4.336 73.3858 4.77 72.9751 5.358C72.5458 5.98333 72.3311 6.79067 72.3311 7.78C72.3311 8.66667 72.5458 9.44133 72.9751 10.104C73.2458 10.5147 73.6145 10.79 74.0811 10.93C74.3705 11.014 74.6971 11.0467 75.0611 11.028C75.6865 10.9907 76.1578 10.8133 76.4751 10.496C76.5965 10.3747 76.6945 10.2253 76.7691 10.048C76.8438 10.2067 76.9558 10.3653 77.1051 10.524C77.4318 10.86 77.8938 11.028 78.4911 11.028C79.0605 11.028 79.5271 10.9253 79.8911 10.72C80.2645 10.5053 80.5631 10.188 80.7871 9.768C81.0205 9.33867 81.1371 8.872 81.1371 8.368C81.1371 7.612 80.9411 7.01 80.5491 6.562C80.2225 6.18867 79.8165 5.93667 79.3311 5.806C79.1258 5.75 78.8738 5.722 78.5751 5.722H77.3991C77.3991 5.37667 77.4785 5.11533 77.6371 4.938C77.8331 4.714 78.1645 4.602 78.6311 4.602C79.0231 4.602 79.2845 4.70933 79.4151 4.924C79.5551 5.12933 79.6251 5.386 79.6251 5.694H80.4371C80.4371 5.162 80.3205 4.74667 80.0871 4.448C79.7885 4.06533 79.3031 3.874 78.6311 3.874C77.6045 3.874 76.9465 4.27067 76.6571 5.064C76.6011 5.21333 76.5731 5.53533 76.5731 6.03V6.394H78.3231C78.5285 6.394 78.6731 6.39867 78.7571 6.408C79.1398 6.408 79.4851 6.57133 79.7931 6.898C80.1385 7.262 80.3158 7.71467 80.3251 8.256C80.3345 8.63867 80.2551 9.00267 80.0871 9.348C79.9285 9.684 79.7138 9.92667 79.4431 10.076C79.2098 10.2067 78.9905 10.272 78.7851 10.272C78.2625 10.272 77.8565 10.1227 77.5671 9.824C77.2871 9.516 77.1471 9.18467 77.1471 8.83V7.948H76.3911V8.886C76.3911 9.194 76.2418 9.51133 75.9431 9.838C75.6538 10.1647 75.2618 10.3047 74.7671 10.258C74.3098 10.2207 73.9411 10.0153 73.6611 9.642C73.3438 9.222 73.1758 8.648 73.1571 7.92C73.1478 7.388 73.2085 6.912 73.3391 6.492C73.5538 5.82933 73.9645 5.316 74.5711 4.952C74.9725 4.71867 75.5418 4.61133 76.2791 4.63V3.888C75.5511 3.888 75.0331 3.944 74.7251 4.056Z" fill="#1F3A6F"/>
</svg>
