<svg width="58" height="28" viewBox="0 0 58 28" fill="none" xmlns="http://www.w3.org/2000/svg">
<path d="M13.06 11H11.3305L6.89395 3.93848V11H5.16445V1.04688H6.89395L11.3441 8.13574V1.04688H13.06V11ZM19.5742 10.2754C19.0866 10.8496 18.3939 11.1367 17.4961 11.1367C16.694 11.1367 16.0856 10.902 15.6709 10.4326C15.2607 9.96322 15.0557 9.28418 15.0557 8.39551V3.60352H16.7168V8.375C16.7168 9.3138 17.1064 9.7832 17.8857 9.7832C18.6924 9.7832 19.237 9.49382 19.5195 8.91504V3.60352H21.1807V11H19.6152L19.5742 10.2754ZM26.0611 9.81055C26.4758 9.81055 26.8199 9.68978 27.0934 9.44824C27.3668 9.20671 27.5126 8.9082 27.5309 8.55273H29.0963C29.0781 9.01302 28.9345 9.44368 28.6656 9.84473C28.3967 10.2412 28.0322 10.5557 27.5719 10.7881C27.1116 11.0205 26.6148 11.1367 26.0816 11.1367C25.0471 11.1367 24.2268 10.8018 23.6207 10.1318C23.0146 9.46191 22.7115 8.53678 22.7115 7.35645V7.18555C22.7115 6.0599 23.0123 5.15983 23.6139 4.48535C24.2154 3.80632 25.0357 3.4668 26.0748 3.4668C26.9544 3.4668 27.6699 3.72428 28.2213 4.23926C28.7773 4.74967 29.0689 5.42188 29.0963 6.25586H27.5309C27.5126 5.83203 27.3668 5.4834 27.0934 5.20996C26.8245 4.93652 26.4804 4.7998 26.0611 4.7998C25.5234 4.7998 25.1087 4.99577 24.817 5.3877C24.5253 5.77507 24.3772 6.36523 24.3727 7.1582V7.4248C24.3727 8.22689 24.5162 8.82617 24.8033 9.22266C25.095 9.61458 25.5143 9.81055 26.0611 9.81055ZM32.2678 11H30.6066V0.5H32.2678V11ZM37.49 11.1367C36.4373 11.1367 35.5828 10.8063 34.9266 10.1455C34.2749 9.48014 33.949 8.59603 33.949 7.49316V7.28809C33.949 6.5498 34.0903 5.89128 34.3729 5.3125C34.66 4.72917 35.061 4.27572 35.576 3.95215C36.091 3.62858 36.6652 3.4668 37.2986 3.4668C38.3058 3.4668 39.0828 3.78809 39.6297 4.43066C40.1811 5.07324 40.4568 5.98242 40.4568 7.1582V7.82812H35.6238C35.674 8.4388 35.8768 8.92188 36.2322 9.27734C36.5923 9.63281 37.0434 9.81055 37.5857 9.81055C38.3468 9.81055 38.9666 9.50293 39.4451 8.8877L40.3406 9.74219C40.0444 10.1842 39.6479 10.5283 39.1512 10.7744C38.659 11.016 38.1053 11.1367 37.49 11.1367ZM37.2918 4.7998C36.8361 4.7998 36.4669 4.95931 36.1844 5.27832C35.9064 5.59733 35.7286 6.04167 35.6512 6.61133H38.8162V6.48828C38.7798 5.93229 38.6316 5.51302 38.3719 5.23047C38.1121 4.94336 37.7521 4.7998 37.2918 4.7998ZM46.3217 11C46.2488 10.8587 46.185 10.6286 46.1303 10.3096C45.6016 10.861 44.9545 11.1367 44.1889 11.1367C43.446 11.1367 42.8399 10.9248 42.3705 10.501C41.9011 10.0771 41.6664 9.55306 41.6664 8.92871C41.6664 8.1403 41.9581 7.53646 42.5414 7.11719C43.1293 6.69336 43.9678 6.48145 45.057 6.48145H46.0756V5.99609C46.0756 5.61328 45.9685 5.30794 45.7543 5.08008C45.5401 4.84766 45.2143 4.73145 44.7768 4.73145C44.3985 4.73145 44.0886 4.82715 43.8471 5.01855C43.6055 5.2054 43.4848 5.44466 43.4848 5.73633H41.8236C41.8236 5.33073 41.9581 4.95247 42.227 4.60156C42.4958 4.24609 42.8604 3.9681 43.3207 3.76758C43.7855 3.56706 44.3028 3.4668 44.8725 3.4668C45.7383 3.4668 46.4288 3.68555 46.9437 4.12305C47.4587 4.55599 47.723 5.16667 47.7367 5.95508V9.29102C47.7367 9.95638 47.8301 10.4873 48.017 10.8838V11H46.3217ZM44.4965 9.80371C44.8246 9.80371 45.1322 9.72396 45.4193 9.56445C45.711 9.40495 45.9298 9.19076 46.0756 8.92188V7.52734H45.1801C44.5648 7.52734 44.1023 7.63444 43.7924 7.84863C43.4825 8.06283 43.3275 8.36589 43.3275 8.75781C43.3275 9.07682 43.4324 9.33203 43.642 9.52344C43.8562 9.71029 44.141 9.80371 44.4965 9.80371ZM53.499 5.12109C53.2803 5.08464 53.0547 5.06641 52.8223 5.06641C52.0612 5.06641 51.5485 5.35807 51.2842 5.94141V11H49.623V3.60352H51.209L51.25 4.43066C51.651 3.78809 52.207 3.4668 52.918 3.4668C53.1549 3.4668 53.3509 3.4987 53.5059 3.5625L53.499 5.12109ZM2.90879 17.0469L5.77988 24.6758L8.64414 17.0469H10.8795V27H9.15684V23.7188L9.32773 19.3301L6.38828 27H5.15098L2.21836 19.3369L2.38926 23.7188V27H0.666601V17.0469H2.90879ZM16.177 27.1367C15.1242 27.1367 14.2697 26.8063 13.6135 26.1455C12.9618 25.4801 12.6359 24.596 12.6359 23.4932V23.2881C12.6359 22.5498 12.7772 21.8913 13.0598 21.3125C13.3469 20.7292 13.7479 20.2757 14.2629 19.9521C14.7779 19.6286 15.3521 19.4668 15.9855 19.4668C16.9927 19.4668 17.7697 19.7881 18.3166 20.4307C18.868 21.0732 19.1437 21.9824 19.1437 23.1582V23.8281H14.3107C14.3609 24.4388 14.5637 24.9219 14.9191 25.2773C15.2792 25.6328 15.7303 25.8105 16.2727 25.8105C17.0337 25.8105 17.6535 25.5029 18.132 24.8877L19.0275 25.7422C18.7313 26.1842 18.3348 26.5283 17.8381 26.7744C17.3459 27.016 16.7922 27.1367 16.177 27.1367ZM15.9787 20.7998C15.523 20.7998 15.1538 20.9593 14.8713 21.2783C14.5933 21.5973 14.4156 22.0417 14.3381 22.6113H17.5031V22.4883C17.4667 21.9323 17.3186 21.513 17.0588 21.2305C16.799 20.9434 16.439 20.7998 15.9787 20.7998ZM20.2781 23.2471C20.2781 22.1077 20.5424 21.194 21.0711 20.5059C21.5997 19.8132 22.3084 19.4668 23.1971 19.4668C23.9809 19.4668 24.6144 19.7402 25.0975 20.2871V16.5H26.7586V27H25.2547L25.1727 26.2344C24.6759 26.8359 24.0128 27.1367 23.1834 27.1367C22.3175 27.1367 21.6157 26.7881 21.0779 26.0908C20.5447 25.3936 20.2781 24.4456 20.2781 23.2471ZM21.9393 23.3906C21.9393 24.1426 22.0828 24.7305 22.3699 25.1543C22.6616 25.5736 23.074 25.7832 23.6072 25.7832C24.2863 25.7832 24.783 25.4801 25.0975 24.874V21.7158C24.7921 21.1234 24.2999 20.8271 23.6209 20.8271C23.0831 20.8271 22.6684 21.0413 22.3768 21.4697C22.0851 21.8936 21.9393 22.5339 21.9393 23.3906ZM30.4086 27H28.7475V19.6035H30.4086V27ZM28.6449 17.6826C28.6449 17.4274 28.7247 17.2155 28.8842 17.0469C29.0482 16.8783 29.2807 16.7939 29.5814 16.7939C29.8822 16.7939 30.1146 16.8783 30.2787 17.0469C30.4428 17.2155 30.5248 17.4274 30.5248 17.6826C30.5248 17.9333 30.4428 18.1429 30.2787 18.3115C30.1146 18.4756 29.8822 18.5576 29.5814 18.5576C29.2807 18.5576 29.0482 18.4756 28.8842 18.3115C28.7247 18.1429 28.6449 17.9333 28.6449 17.6826ZM35.4121 25.8105C35.8268 25.8105 36.1709 25.6898 36.4443 25.4482C36.7178 25.2067 36.8636 24.9082 36.8818 24.5527H38.4473C38.429 25.013 38.2855 25.4437 38.0166 25.8447C37.7477 26.2412 37.3831 26.5557 36.9229 26.7881C36.4626 27.0205 35.9658 27.1367 35.4326 27.1367C34.3981 27.1367 33.5778 26.8018 32.9717 26.1318C32.3656 25.4619 32.0625 24.5368 32.0625 23.3564V23.1855C32.0625 22.0599 32.3633 21.1598 32.9648 20.4854C33.5664 19.8063 34.3867 19.4668 35.4258 19.4668C36.3053 19.4668 37.0208 19.7243 37.5723 20.2393C38.1283 20.7497 38.4199 21.4219 38.4473 22.2559H36.8818C36.8636 21.832 36.7178 21.4834 36.4443 21.21C36.1755 20.9365 35.8314 20.7998 35.4121 20.7998C34.8743 20.7998 34.4596 20.9958 34.168 21.3877C33.8763 21.7751 33.7282 22.3652 33.7236 23.1582V23.4248C33.7236 24.2269 33.8672 24.8262 34.1543 25.2227C34.446 25.6146 34.8652 25.8105 35.4121 25.8105ZM41.6188 27H39.9576V19.6035H41.6188V27ZM39.8551 17.6826C39.8551 17.4274 39.9348 17.2155 40.0943 17.0469C40.2584 16.8783 40.4908 16.7939 40.7916 16.7939C41.0924 16.7939 41.3248 16.8783 41.4889 17.0469C41.6529 17.2155 41.735 17.4274 41.735 17.6826C41.735 17.9333 41.6529 18.1429 41.4889 18.3115C41.3248 18.4756 41.0924 18.5576 40.7916 18.5576C40.4908 18.5576 40.2584 18.4756 40.0943 18.3115C39.9348 18.1429 39.8551 17.9333 39.8551 17.6826ZM45.1252 19.6035L45.173 20.458C45.7199 19.7972 46.4377 19.4668 47.3264 19.4668C48.8667 19.4668 49.6506 20.3486 49.6779 22.1123V27H48.0168V22.208C48.0168 21.7386 47.9143 21.3923 47.7092 21.1689C47.5087 20.9411 47.1783 20.8271 46.718 20.8271C46.048 20.8271 45.549 21.1302 45.2209 21.7363V27H43.5598V19.6035H45.1252ZM54.784 27.1367C53.7312 27.1367 52.8768 26.8063 52.2205 26.1455C51.5688 25.4801 51.243 24.596 51.243 23.4932V23.2881C51.243 22.5498 51.3842 21.8913 51.6668 21.3125C51.9539 20.7292 52.3549 20.2757 52.8699 19.9521C53.3849 19.6286 53.9591 19.4668 54.5926 19.4668C55.5997 19.4668 56.3768 19.7881 56.9236 20.4307C57.4751 21.0732 57.7508 21.9824 57.7508 23.1582V23.8281H52.9178C52.9679 24.4388 53.1707 24.9219 53.5262 25.2773C53.8862 25.6328 54.3374 25.8105 54.8797 25.8105C55.6408 25.8105 56.2605 25.5029 56.7391 24.8877L57.6346 25.7422C57.3383 26.1842 56.9419 26.5283 56.4451 26.7744C55.9529 27.016 55.3992 27.1367 54.784 27.1367ZM54.5857 20.7998C54.13 20.7998 53.7609 20.9593 53.4783 21.2783C53.2003 21.5973 53.0226 22.0417 52.9451 22.6113H56.1102V22.4883C56.0737 21.9323 55.9256 21.513 55.6658 21.2305C55.4061 20.9434 55.046 20.7998 54.5857 20.7998Z" fill="#1F3A6F"/>
</svg>
