<svg width="58" height="28" viewBox="0 0 58 28" fill="none" xmlns="http://www.w3.org/2000/svg">
<path d="M9.30003 9.384C8.02137 9.384 7.08337 9.09467 6.48603 8.516C6.09403 8.13333 5.89803 7.68067 5.89803 7.158C5.89803 6.92467 5.93537 6.696 6.01003 6.472C6.1687 6.01467 6.43003 5.70667 6.79403 5.548C7.02737 5.44533 7.3587 5.394 7.78803 5.394H9.18803V5.03C9.18803 4.666 9.16003 4.358 9.10403 4.106C9.02003 3.73267 8.82403 3.43867 8.51603 3.224C8.20803 3 7.8487 2.888 7.43803 2.888C6.87803 2.888 6.43936 3.01867 6.12203 3.28C5.8047 3.54133 5.64603 3.94267 5.64603 4.484C5.64603 4.484 5.6647 4.55867 5.70203 4.708H6.51403C6.45803 4.568 6.4347 4.456 6.44403 4.372C6.47203 3.85867 6.80803 3.60667 7.45203 3.616C7.79737 3.62533 8.0447 3.74667 8.19403 3.98C8.2967 4.148 8.35737 4.4 8.37603 4.736H7.45203C6.9387 4.736 6.50936 4.83867 6.16403 5.044C5.82803 5.24933 5.56203 5.52933 5.36603 5.884C5.17003 6.22933 5.07203 6.63533 5.07203 7.102C5.07203 8.29667 5.62737 9.146 6.73803 9.65C7.43803 9.96733 8.28737 10.126 9.28603 10.126C10.3034 10.126 11.162 9.96733 11.862 9.65C12.9727 9.146 13.528 8.29667 13.528 7.102C13.528 6.63533 13.4347 6.234 13.248 5.898C12.9307 5.32867 12.4734 4.96467 11.876 4.806C11.6987 4.75933 11.456 4.736 11.148 4.736H10.224C10.2427 4.4 10.3034 4.148 10.406 3.98C10.5554 3.74667 10.8027 3.62533 11.148 3.616C11.792 3.60667 12.128 3.85867 12.156 4.372C12.1654 4.456 12.142 4.568 12.086 4.708H12.898C12.9167 4.652 12.9354 4.57733 12.954 4.484C12.954 3.94267 12.7954 3.54133 12.478 3.28C12.1607 3.01867 11.722 2.888 11.162 2.888C10.7514 2.888 10.392 3 10.084 3.224C9.77603 3.43867 9.58003 3.73267 9.49603 4.106C9.44003 4.358 9.41203 4.666 9.41203 5.03V5.394H10.812C11.2414 5.394 11.5727 5.44533 11.806 5.548C12.17 5.70667 12.4314 6.01467 12.59 6.472C12.6647 6.696 12.702 6.92467 12.702 7.158C12.702 7.68067 12.506 8.13333 12.114 8.516C11.5167 9.09467 10.5787 9.384 9.30003 9.384ZM12.0842 9.188C12.1589 9.14133 12.2569 9.07133 12.3782 8.978C12.4436 8.93133 12.5602 8.81933 12.7282 8.642C12.8402 8.70733 12.9429 8.82867 13.0362 9.006C13.1296 9.18333 13.1762 9.38867 13.1762 9.622C13.1762 10.2193 12.9242 10.77 12.4202 11.274C12.1962 11.498 11.9256 11.6893 11.6082 11.848C10.8989 12.2027 10.0776 12.3847 9.14422 12.394C8.52822 12.4033 7.95889 12.324 7.43622 12.156C6.54022 11.876 5.88222 11.414 5.46222 10.77C5.26622 10.4807 5.16355 10.224 5.15422 10H6.03622C6.21355 10.56 6.63822 10.9893 7.31022 11.288C7.86088 11.54 8.47222 11.666 9.14422 11.666C9.41489 11.666 9.66689 11.6473 9.90022 11.61C10.2922 11.5447 10.6189 11.4467 10.8802 11.316C11.3842 11.064 11.7482 10.784 11.9722 10.476C12.1682 10.2053 12.2709 9.92533 12.2802 9.636C12.2896 9.40267 12.2242 9.25333 12.0842 9.188ZM17.2869 3.602C17.6322 3.602 17.8702 3.70933 18.0009 3.924C18.1409 4.13867 18.2109 4.40467 18.2109 4.722H14.3609V5.394H15.8729C15.1449 5.77667 14.7809 6.43467 14.7809 7.368C14.7809 8.04933 14.9676 8.642 15.3409 9.146C15.6302 9.538 16.0082 9.804 16.4749 9.944C16.7362 10.0187 17.0582 10.0467 17.4409 10.028C18.0662 9.99067 18.5376 9.81333 18.8549 9.496C18.9762 9.37467 19.0742 9.22533 19.1489 9.048C19.2236 9.20667 19.3356 9.36533 19.4849 9.524C19.8116 9.86 20.2736 10.028 20.8709 10.028C21.4402 10.028 21.9069 9.92533 22.2709 9.72C22.6442 9.50533 22.9429 9.188 23.1669 8.768C23.4002 8.33867 23.5169 7.872 23.5169 7.368C23.5169 6.612 23.3209 6.01 22.9289 5.562C22.6022 5.18867 22.1962 4.93667 21.7109 4.806C21.5056 4.75 21.2536 4.722 20.9549 4.722H20.0869C20.0869 4.39533 20.1522 4.12933 20.2829 3.924C20.4229 3.71867 20.6656 3.61133 21.0109 3.602C21.3936 3.58333 21.6549 3.686 21.7949 3.91C21.9349 4.12467 22.0049 4.386 22.0049 4.694H22.8169C22.8169 4.162 22.7002 3.74667 22.4669 3.448C22.1682 3.06533 21.6829 2.874 21.0109 2.874C20.5442 2.874 20.1522 3.00933 19.8349 3.28C19.5269 3.55067 19.3449 3.91467 19.2889 4.372C19.2702 4.53067 19.2609 4.75 19.2609 5.03V5.394H20.7029C20.9082 5.394 21.0529 5.39867 21.1369 5.408C21.5196 5.408 21.8649 5.57133 22.1729 5.898C22.5182 6.262 22.6956 6.71467 22.7049 7.256C22.7142 7.63867 22.6349 8.00267 22.4669 8.348C22.3082 8.684 22.0936 8.92667 21.8229 9.076C21.5896 9.20667 21.3702 9.272 21.1649 9.272C20.6422 9.272 20.2362 9.12267 19.9469 8.824C19.6669 8.516 19.5269 8.18467 19.5269 7.83V7.06H18.7709V7.886C18.7709 8.194 18.6309 8.502 18.3509 8.81C18.0802 9.10867 17.6789 9.258 17.1469 9.258C16.6709 9.258 16.2929 9.06667 16.0129 8.684C15.7516 8.32933 15.6209 7.858 15.6209 7.27C15.6209 7.018 15.6816 6.766 15.8029 6.514C15.9242 6.25267 16.0736 6.05667 16.2509 5.926C16.7456 5.57133 17.2962 5.394 17.9029 5.394H19.0369V5.016C19.0369 4.624 19.0042 4.316 18.9389 4.092C18.7056 3.28933 18.1549 2.88333 17.2869 2.874C16.8856 2.86467 16.5869 2.91133 16.3909 3.014C15.7842 3.31267 15.4809 3.87267 15.4809 4.694H16.2929C16.2929 3.966 16.6242 3.602 17.2869 3.602ZM31.8939 5.688C31.9405 4.53067 31.6139 3.518 30.9139 2.65C30.2139 1.77267 29.3319 1.35733 28.2679 1.404C27.5585 1.432 27.0265 1.52533 26.6719 1.684C26.1585 1.908 25.7385 2.25333 25.4119 2.72H24.5579C25.1365 1.35733 26.3545 0.676 28.2119 0.676C29.6772 0.676 30.7925 1.16133 31.5579 2.132C32.3325 3.09333 32.7199 4.22267 32.7199 5.52C32.7199 6.88267 32.3652 7.96067 31.6559 8.754C30.9185 9.58467 29.8919 9.99533 28.5759 9.986C27.0919 9.96733 26.0092 9.65467 25.3279 9.048C24.6932 8.488 24.3759 7.802 24.3759 6.99C24.3759 6.08467 24.7632 5.43133 25.5379 5.03C25.9859 4.79667 26.5132 4.68 27.1199 4.68H28.0999C28.0812 4.32533 27.9599 4.05467 27.7359 3.868C27.5119 3.672 27.2319 3.574 26.8959 3.574C26.5505 3.574 26.2612 3.66733 26.0279 3.854C25.7945 4.04067 25.6779 4.316 25.6779 4.68H24.8519C24.8425 4.10133 25.0479 3.644 25.4679 3.308C25.8412 3.00933 26.3172 2.86 26.8959 2.86C28.2865 2.86 28.9912 3.69533 29.0099 5.366H27.3299C26.6299 5.366 26.1165 5.51067 25.7899 5.8C25.3979 6.14533 25.2159 6.56067 25.2439 7.046C25.2905 7.82067 25.6499 8.39933 26.3219 8.782C26.8725 9.09 27.6005 9.244 28.5059 9.244C29.5419 9.244 30.3539 8.93133 30.9419 8.306C31.5299 7.67133 31.8472 6.79867 31.8939 5.688ZM39.7662 6.178C39.5982 6.43933 39.5142 6.78467 39.5142 7.214C39.5142 7.87667 39.7662 8.39467 40.2702 8.768C40.7276 9.11333 41.3342 9.28133 42.0902 9.272C42.5849 9.272 43.0282 9.14133 43.4202 8.88C43.9709 8.52533 44.2462 8.012 44.2462 7.34C44.2462 6.98533 44.1342 6.68667 43.9102 6.444C43.7702 6.29467 43.5929 6.22 43.3782 6.22C43.0049 6.22 42.8416 6.43467 42.8882 6.864H42.1462C42.1369 6.71467 42.1322 6.53733 42.1322 6.332C42.1322 5.94933 42.1462 5.63667 42.1742 5.394C42.2302 4.89933 42.3516 4.498 42.5382 4.19C42.8462 3.66733 43.2382 3.31267 43.7142 3.126C44.1902 2.93 44.7036 2.85533 45.2542 2.902C45.6929 2.93933 46.0569 3.042 46.3462 3.21C46.7756 3.462 47.1722 3.84467 47.5362 4.358C47.9189 4.90867 48.1102 5.61333 48.1102 6.472C48.1102 6.96667 47.9842 7.48 47.7322 8.012C47.5176 8.47867 47.2842 8.824 47.0322 9.048C46.3042 9.692 45.4689 10.0093 44.5262 10V9.3C44.9649 9.3 45.3709 9.202 45.7442 9.006C46.2016 8.76333 46.5656 8.418 46.8362 7.97C47.1162 7.51267 47.2609 7.004 47.2702 6.444C47.2889 5.632 47.0276 4.92733 46.4862 4.33C46.1129 3.91933 45.6882 3.69067 45.2122 3.644C44.5496 3.57867 43.9942 3.742 43.5462 4.134C43.4156 4.246 43.2896 4.43267 43.1682 4.694C43.0282 4.99267 42.9536 5.296 42.9442 5.604C43.1216 5.47333 43.3502 5.436 43.6302 5.492C43.8076 5.52933 43.9056 5.548 43.9242 5.548C44.0829 5.604 44.2462 5.70667 44.4142 5.856C44.8062 6.21067 45.0209 6.682 45.0582 7.27C45.1049 8.07267 44.8249 8.73067 44.2182 9.244C43.6209 9.748 42.9209 10 42.1182 10C41.1849 10 40.4149 9.79467 39.8082 9.384C39.3229 9.05733 39.0009 8.62333 38.8422 8.082C38.7396 7.73667 38.7022 7.354 38.7302 6.934C38.7862 6.15933 39.1129 5.55733 39.7102 5.128C40.1022 4.848 40.6482 4.708 41.3482 4.708C41.3482 4.46533 41.3296 4.288 41.2922 4.176C41.1709 3.80267 40.9282 3.616 40.5642 3.616C40.3869 3.616 40.2376 3.67667 40.1162 3.798C39.9949 3.91933 39.9156 4.09667 39.8782 4.33C39.8502 4.526 39.8549 4.68933 39.8922 4.82H39.0942C39.0662 4.72667 39.0616 4.568 39.0802 4.344C39.0989 4.12933 39.1222 3.98467 39.1502 3.91C39.3089 3.48067 39.5469 3.196 39.8642 3.056C40.0789 2.96267 40.3262 2.91133 40.6062 2.902C41.1569 2.89267 41.5769 3.09333 41.8662 3.504C42.0249 3.74667 42.1276 4.17133 42.1742 4.778C42.1836 4.92733 42.1836 5.13267 42.1742 5.394H41.5442C41.0496 5.394 40.6996 5.436 40.4942 5.52C40.2236 5.61333 39.9809 5.83267 39.7662 6.178ZM51.5464 6.43C51.5464 5.80467 51.4204 5.21667 51.1684 4.666C50.8511 3.966 50.4171 3.616 49.8664 3.616C49.3624 3.616 48.9424 3.728 48.6064 3.952V3.21C48.7837 3.098 48.9797 3.014 49.1944 2.958C49.3717 2.91133 49.6191 2.888 49.9364 2.888C50.7204 2.888 51.3177 3.25667 51.7284 3.994C52.1484 4.722 52.3584 5.534 52.3584 6.43C52.3584 7.34467 52.1484 8.17067 51.7284 8.908C51.3177 9.636 50.7204 10 49.9364 10C49.6191 10 49.3717 9.97667 49.1944 9.93C48.9797 9.874 48.7837 9.79 48.6064 9.678V8.936C48.9424 9.16 49.3624 9.272 49.8664 9.272C50.4171 9.272 50.8511 8.91733 51.1684 8.208C51.4204 7.65733 51.5464 7.06467 51.5464 6.43ZM1.7624 20.072H0.964399C0.880399 19.596 0.922399 19.1853 1.0904 18.84C1.37973 18.2427 1.86973 17.944 2.5604 17.944C2.96173 17.944 3.29307 18.0653 3.5544 18.308C3.82507 18.5507 3.9744 18.8633 4.0024 19.246C4.6184 18.3593 5.49573 17.93 6.6344 17.958C7.85707 17.9953 8.79973 18.5273 9.4624 19.554C9.87307 20.1887 10.0644 20.884 10.0364 21.64C9.98973 22.9933 9.38773 23.9827 8.2304 24.608C7.68907 24.8973 6.97507 25.0513 6.0884 25.07V24.37C7.0124 24.3513 7.75907 24.0947 8.3284 23.6C8.89773 23.1053 9.18707 22.452 9.1964 21.64C9.20573 20.94 9.0004 20.3053 8.5804 19.736C8.16973 19.1573 7.6564 18.8213 7.0404 18.728C6.88173 18.7 6.72307 18.686 6.5644 18.686C5.5844 18.686 4.84707 19.1293 4.3524 20.016C4.45507 19.9973 4.55773 19.988 4.6604 19.988C5.17373 19.988 5.63573 20.17 6.0464 20.534C6.58773 21.01 6.8584 21.6493 6.8584 22.452C6.8584 22.7693 6.77907 23.1007 6.6204 23.446C6.46173 23.7913 6.2564 24.076 6.0044 24.3C5.37907 24.832 4.6044 25.0933 3.6804 25.084C2.62573 25.0653 1.78573 24.7433 1.1604 24.118C0.628399 23.586 0.357732 22.816 0.348399 21.808C0.348399 21.4813 0.371732 21.1687 0.418399 20.87H1.1044C1.09507 21.2807 1.3424 21.4907 1.8464 21.5C2.14507 21.5093 2.42507 21.4067 2.6864 21.192C2.94773 20.968 3.1484 20.6647 3.2884 20.282C3.4004 19.9833 3.3864 19.6333 3.2464 19.232C3.12507 18.868 2.89173 18.686 2.5464 18.686C2.2664 18.686 2.05173 18.7793 1.9024 18.966C1.7624 19.1527 1.6924 19.3767 1.6924 19.638C1.6924 19.7967 1.71573 19.9413 1.7624 20.072ZM1.1184 21.934C1.13707 22.466 1.26773 22.914 1.5104 23.278C1.77173 23.67 2.09373 23.95 2.4764 24.118C2.79373 24.2487 3.21373 24.3233 3.7364 24.342C4.30573 24.3607 4.80973 24.2067 5.2484 23.88C5.7244 23.516 5.98107 23.0493 6.0184 22.48C6.05573 22.0133 5.9204 21.598 5.6124 21.234C5.3044 20.8607 4.93573 20.674 4.5064 20.674C4.3104 20.674 4.18907 20.6833 4.1424 20.702C4.0304 20.7393 3.9044 20.856 3.7644 21.052C3.38173 21.5653 2.9664 21.9153 2.5184 22.102C2.33173 22.1767 2.1124 22.214 1.8604 22.214C1.44973 22.214 1.2024 22.1207 1.1184 21.934ZM13.479 21.43C13.479 20.8047 13.353 20.2167 13.101 19.666C12.7837 18.966 12.3497 18.616 11.799 18.616C11.295 18.616 10.875 18.728 10.539 18.952V18.21C10.7164 18.098 10.9124 18.014 11.127 17.958C11.3044 17.9113 11.5517 17.888 11.869 17.888C12.653 17.888 13.2504 18.2567 13.661 18.994C14.081 19.722 14.291 20.534 14.291 21.43C14.291 22.3447 14.081 23.1707 13.661 23.908C13.2504 24.636 12.653 25 11.869 25C11.5517 25 11.3044 24.9767 11.127 24.93C10.9124 24.874 10.7164 24.79 10.539 24.678V23.936C10.875 24.16 11.295 24.272 11.799 24.272C12.3497 24.272 12.7837 23.9173 13.101 23.208C13.353 22.6573 13.479 22.0647 13.479 21.43ZM18.9206 18.602C18.1086 18.5927 17.4133 18.868 16.8346 19.428C16.2559 19.988 15.9619 20.66 15.9526 21.444C15.9433 22.2467 16.2373 22.928 16.8346 23.488C17.3666 23.992 18.0759 24.2487 18.9626 24.258C19.7559 24.2673 20.4326 24.006 20.9926 23.474C21.5619 22.9327 21.8513 22.256 21.8606 21.444C21.8699 20.6413 21.5806 19.9693 20.9926 19.428C20.4139 18.8867 19.7233 18.6113 18.9206 18.602ZM16.6386 18.602C16.9653 18.378 17.2266 18.21 17.4226 18.098C17.6279 17.986 17.8333 17.8693 18.0386 17.748C18.2533 17.6173 18.3746 17.5193 18.4026 17.454C18.4306 17.3887 18.4446 17.314 18.4446 17.23C18.4446 17.0713 18.3979 16.922 18.3046 16.782C18.2113 16.6327 18.1179 16.5393 18.0246 16.502C17.8939 16.446 17.7399 16.418 17.5626 16.418C17.1986 16.418 16.8813 16.5207 16.6106 16.726C16.1999 17.034 15.9946 17.384 15.9946 17.776C15.9946 18.2147 16.2093 18.49 16.6386 18.602ZM15.9526 16.222C16.4286 15.8207 16.9699 15.62 17.5766 15.62C17.9126 15.62 18.2113 15.6853 18.4726 15.816C18.6499 15.9093 18.8039 16.068 18.9346 16.292C19.0746 16.516 19.1446 16.754 19.1446 17.006C19.3593 16.81 19.5086 16.6513 19.5926 16.53C19.7793 16.2593 19.9239 15.9933 20.0266 15.732H20.9086C20.8246 16.096 20.6473 16.4647 20.3766 16.838C20.0873 17.2393 19.6953 17.5847 19.2006 17.874C19.4713 17.9113 19.6673 17.9393 19.7886 17.958C19.9846 18.0047 20.2086 18.0747 20.4606 18.168C21.1326 18.42 21.6646 18.8447 22.0566 19.442C22.4579 20.0393 22.6633 20.6973 22.6726 21.416C22.6819 22.4893 22.3273 23.3573 21.6086 24.02C20.8993 24.6733 20.0033 25 18.9206 25C17.8379 25 16.9373 24.6733 16.2186 24.02C15.4999 23.3667 15.1406 22.508 15.1406 21.444C15.1406 20.5573 15.4439 19.7827 16.0506 19.12C15.4626 18.9147 15.1686 18.4713 15.1686 17.79C15.1686 17.1833 15.4299 16.6607 15.9526 16.222ZM27.3011 20.45C27.0211 20.45 26.7877 20.5433 26.6011 20.73C26.4237 20.9073 26.3351 21.1267 26.3351 21.388C26.3351 21.6493 26.4097 21.8733 26.5591 22.06C26.7177 22.2373 26.9464 22.326 27.2451 22.326C27.5251 22.326 27.7491 22.242 27.9171 22.074C28.0851 21.906 28.1691 21.6913 28.1691 21.43C28.1691 21.15 28.0897 20.9167 27.9311 20.73C27.7817 20.5433 27.5717 20.45 27.3011 20.45ZM29.0091 21.472C29.0091 21.976 28.8411 22.3773 28.5051 22.676C28.1784 22.9653 27.7584 23.11 27.2451 23.11C26.7411 23.11 26.3257 22.956 25.9991 22.648C25.6724 22.34 25.5091 21.934 25.5091 21.43C25.5091 20.9447 25.6771 20.534 26.0131 20.198C26.3491 19.862 26.7737 19.68 27.2871 19.652C27.7071 19.624 28.0757 19.6473 28.3931 19.722C28.6824 19.7873 28.9671 19.918 29.2471 20.114C29.5831 20.3567 29.8444 20.646 30.0311 20.982C30.2457 21.3833 30.3437 21.8593 30.3251 22.41C30.3064 22.8953 30.1664 23.3107 29.9051 23.656C29.6717 23.964 29.4197 24.2113 29.1491 24.398C28.8224 24.6313 28.4537 24.7993 28.0431 24.902C27.7911 24.9673 27.3944 25.0047 26.8531 25.014C26.3584 25.0233 25.8824 24.9113 25.4251 24.678C24.9397 24.4353 24.5571 24.1273 24.2771 23.754C24.0064 23.3807 23.8104 23.0073 23.6891 22.634C23.5771 22.2513 23.5211 21.8453 23.5211 21.416C23.5211 20.9773 23.5957 20.5573 23.7451 20.156C23.8664 19.82 24.0671 19.4793 24.3471 19.134C24.5897 18.826 24.8651 18.5833 25.1731 18.406C25.4251 18.2567 25.6677 18.1447 25.9011 18.07C26.3024 17.9393 26.6897 17.874 27.0631 17.874C27.7071 17.874 28.2857 18 28.7991 18.252C29.3217 18.4947 29.6811 18.9147 29.8771 19.512H29.0231C28.8551 19.1947 28.6264 18.9707 28.3371 18.84C28.0477 18.7 27.7491 18.6207 27.4411 18.602C27.1424 18.5833 26.8997 18.588 26.7131 18.616C26.3771 18.672 26.0877 18.7653 25.8451 18.896C25.4717 19.1107 25.1591 19.3907 24.9071 19.736C24.5431 20.2493 24.3564 20.7907 24.3471 21.36C24.3377 21.7707 24.3844 22.1393 24.4871 22.466C24.6084 22.8487 24.7857 23.1567 25.0191 23.39C25.3364 23.7073 25.6444 23.9313 25.9431 24.062C26.2511 24.1927 26.5917 24.258 26.9651 24.258C27.3477 24.258 27.7024 24.202 28.0291 24.09C28.2251 24.0247 28.4024 23.936 28.5611 23.824C28.7664 23.684 28.9717 23.488 29.1771 23.236C29.3824 22.9747 29.4897 22.6713 29.4991 22.326C29.5084 21.906 29.4524 21.5747 29.3311 21.332C29.2191 21.0893 29.0697 20.8747 28.8831 20.688C28.8364 20.6413 28.7571 20.5807 28.6451 20.506C28.6917 20.5433 28.7571 20.6227 28.8411 20.744C28.8971 20.8373 28.9391 20.9447 28.9671 21.066C28.9951 21.29 29.0091 21.4253 29.0091 21.472ZM35.3909 24.986C33.9069 24.9673 32.8242 24.6547 32.1429 24.048C31.5082 23.488 31.1909 22.802 31.1909 21.99C31.1909 21.0847 31.5782 20.4313 32.3529 20.03C32.8009 19.7967 33.3282 19.68 33.9349 19.68H34.9149C34.8962 19.3253 34.7749 19.0547 34.5509 18.868C34.3269 18.672 34.0469 18.574 33.7109 18.574C33.3656 18.574 33.0762 18.6673 32.8429 18.854C32.6096 19.0407 32.4929 19.316 32.4929 19.68H31.6669C31.6576 19.1013 31.8629 18.644 32.2829 18.308C32.6562 18.0093 33.1322 17.86 33.7109 17.86C35.1016 17.86 35.8062 18.6953 35.8249 20.366H34.1449C33.4449 20.366 32.9316 20.5107 32.6049 20.8C32.2129 21.1453 32.0309 21.5607 32.0589 22.046C32.1056 22.8207 32.4649 23.3993 33.1369 23.782C33.6876 24.09 34.4156 24.244 35.3209 24.244C36.3569 24.244 37.1689 23.9313 37.7569 23.306C38.3449 22.6713 38.6622 21.7987 38.7089 20.688C38.7556 19.68 38.4476 18.8447 37.7849 18.182C37.1596 17.5567 36.2636 17.2393 35.0969 17.23C33.7716 17.2113 32.6002 17.4493 31.5829 17.944V17.174C32.2456 16.9593 32.5769 16.782 32.5769 16.642C32.5769 16.614 32.5582 16.5907 32.5209 16.572C32.3249 16.4507 32.2269 16.278 32.2269 16.054C32.2269 15.83 32.3669 15.6293 32.6469 15.452C33.1322 15.1533 33.9862 15.004 35.2089 15.004C37.4956 15.004 38.7649 15.466 39.0169 16.39C39.0449 16.4927 39.0589 16.6 39.0589 16.712C39.0589 17.1693 38.8769 17.51 38.5129 17.734C39.1942 18.4713 39.5349 19.4093 39.5349 20.548C39.5349 21.892 39.1802 22.9607 38.4709 23.754C37.7336 24.5847 36.7069 24.9953 35.3909 24.986ZM33.3189 16.656C33.8789 16.5627 34.4762 16.516 35.1109 16.516C36.2402 16.516 37.1596 16.7353 37.8689 17.174C38.1582 17.118 38.2702 16.922 38.2049 16.586C38.1022 16.0167 37.1269 15.732 35.2789 15.732C34.2429 15.732 33.5756 15.816 33.2769 15.984C33.1929 16.0307 33.1462 16.082 33.1369 16.138C33.1182 16.2033 33.1322 16.2593 33.1789 16.306C33.2349 16.3433 33.2862 16.3807 33.3329 16.418C33.3889 16.474 33.3842 16.5533 33.3189 16.656ZM41.9867 23.796C41.492 23.4413 41.24 22.9607 41.2307 22.354C41.2214 21.7473 41.4967 21.234 42.0567 20.814C42.318 20.618 42.5794 20.4967 42.8407 20.45C42.9807 20.422 43.2467 20.408 43.6387 20.408H46.8727C46.8634 20.3427 46.8494 20.226 46.8307 20.058C46.7094 19.386 46.434 18.8587 46.0047 18.476C45.5847 18.084 44.9267 17.888 44.0307 17.888C43.6294 17.888 43.368 17.902 43.2467 17.93C42.7894 18.0327 42.5374 18.0933 42.4907 18.112C42.1734 18.2427 41.8654 18.49 41.5667 18.854C41.296 19.1807 41.1607 19.484 41.1607 19.764H42.0007C42.01 19.7173 42.0287 19.652 42.0567 19.568C42.206 19.204 42.43 18.952 42.7287 18.812C43.0367 18.672 43.4754 18.5973 44.0447 18.588C44.5394 18.588 44.922 18.672 45.1927 18.84C45.4727 18.9987 45.72 19.2927 45.9347 19.722H43.6807C42.85 19.722 42.2667 19.82 41.9307 20.016C41.688 20.156 41.548 20.24 41.5107 20.268C41.38 20.3707 41.198 20.5527 40.9647 20.814C40.6007 21.234 40.4187 21.7473 40.4187 22.354C40.4187 23.0913 40.6567 23.6747 41.1327 24.104C41.478 24.4213 41.814 24.6407 42.1407 24.762C42.3927 24.8553 42.7987 24.9393 43.3587 25.014C43.032 25.1353 42.864 25.4107 42.8547 25.84C42.8454 26.092 42.9434 26.3253 43.1487 26.54C43.382 26.8013 43.7414 26.988 44.2267 27.1C44.4694 27.156 44.8567 27.184 45.3887 27.184C46.0794 27.184 46.672 27.0207 47.1667 26.694C47.4934 26.4793 47.7407 26.204 47.9087 25.868C48.058 25.5787 48.1094 25.2613 48.0627 24.916H47.2367C47.274 25.0187 47.274 25.1587 47.2367 25.336C47.1994 25.5413 47.12 25.6953 46.9987 25.798C46.7094 26.0407 46.4947 26.1947 46.3547 26.26C46.0934 26.3813 45.7107 26.4513 45.2067 26.47C44.236 26.5073 43.7507 26.2553 43.7507 25.714C43.7507 25.378 44.0307 25.1493 44.5907 25.028C44.6934 25.028 44.8567 25.014 45.0807 24.986C46.0327 24.846 46.728 24.5333 47.1667 24.048C47.3067 23.8893 47.3907 23.712 47.4187 23.516H46.5647C46.5274 23.7773 46.1914 23.992 45.5567 24.16C45.1927 24.2533 44.6934 24.3047 44.0587 24.314C43.1814 24.3233 42.4907 24.1507 41.9867 23.796ZM50.674 18.056C49.918 18.336 49.3346 18.77 48.924 19.358C48.4946 19.9833 48.28 20.7907 48.28 21.78C48.28 22.6667 48.4946 23.4413 48.924 24.104C49.1946 24.5147 49.5633 24.79 50.03 24.93C50.3193 25.014 50.646 25.0467 51.01 25.028C51.6353 24.9907 52.1066 24.8133 52.424 24.496C52.5453 24.3747 52.6433 24.2253 52.718 24.048C52.7926 24.2067 52.9046 24.3653 53.054 24.524C53.3806 24.86 53.8426 25.028 54.44 25.028C55.0093 25.028 55.476 24.9253 55.84 24.72C56.2133 24.5053 56.512 24.188 56.736 23.768C56.9693 23.3387 57.086 22.872 57.086 22.368C57.086 21.612 56.89 21.01 56.498 20.562C56.1713 20.1887 55.7653 19.9367 55.28 19.806C55.0746 19.75 54.8226 19.722 54.524 19.722H53.348C53.348 19.3767 53.4273 19.1153 53.586 18.938C53.782 18.714 54.1133 18.602 54.58 18.602C54.972 18.602 55.2333 18.7093 55.364 18.924C55.504 19.1293 55.574 19.386 55.574 19.694H56.386C56.386 19.162 56.2693 18.7467 56.036 18.448C55.7373 18.0653 55.252 17.874 54.58 17.874C53.5533 17.874 52.8953 18.2707 52.606 19.064C52.55 19.2133 52.522 19.5353 52.522 20.03V20.394H54.272C54.4773 20.394 54.622 20.3987 54.706 20.408C55.0886 20.408 55.434 20.5713 55.742 20.898C56.0873 21.262 56.2646 21.7147 56.274 22.256C56.2833 22.6387 56.204 23.0027 56.036 23.348C55.8773 23.684 55.6626 23.9267 55.392 24.076C55.1586 24.2067 54.9393 24.272 54.734 24.272C54.2113 24.272 53.8053 24.1227 53.516 23.824C53.236 23.516 53.096 23.1847 53.096 22.83V21.948H52.34V22.886C52.34 23.194 52.1906 23.5113 51.892 23.838C51.6026 24.1647 51.2106 24.3047 50.716 24.258C50.2586 24.2207 49.89 24.0153 49.61 23.642C49.2926 23.222 49.1246 22.648 49.106 21.92C49.0966 21.388 49.1573 20.912 49.288 20.492C49.5026 19.8293 49.9133 19.316 50.52 18.952C50.9213 18.7187 51.4906 18.6113 52.228 18.63V17.888C51.5 17.888 50.982 17.944 50.674 18.056Z" fill="#1F3A6F"/>
</svg>
