<svg width="90" height="30" viewBox="0 0 90 30" fill="none" xmlns="http://www.w3.org/2000/svg">
<path d="M14.4867 6.2832C14.4867 7.25846 14.3181 8.11523 13.9809 8.85352C13.6436 9.58724 13.1605 10.1523 12.5316 10.5488C11.9073 10.9408 11.1872 11.1367 10.3715 11.1367C9.56484 11.1367 8.84479 10.9408 8.21133 10.5488C7.58242 10.1523 7.09479 9.58952 6.74844 8.86035C6.40664 8.13118 6.23346 7.29036 6.2289 6.33789V5.77734C6.2289 4.80664 6.3998 3.94987 6.7416 3.20703C7.08795 2.46419 7.57331 1.89681 8.19765 1.50488C8.82656 1.1084 9.54661 0.910156 10.3578 0.910156C11.169 0.910156 11.8868 1.10612 12.5111 1.49805C13.14 1.88542 13.6254 2.44596 13.9672 3.17969C14.309 3.90885 14.4822 4.75879 14.4867 5.72949V6.2832ZM12.7572 5.76367C12.7572 4.66081 12.5476 3.81543 12.1283 3.22754C11.7136 2.63965 11.1234 2.3457 10.3578 2.3457C9.61042 2.3457 9.0248 2.63965 8.60098 3.22754C8.1817 3.81087 7.96751 4.63802 7.9584 5.70898V6.2832C7.9584 7.37695 8.17031 8.22233 8.59414 8.81934C9.02252 9.41634 9.61497 9.71484 10.3715 9.71484C11.1371 9.71484 11.725 9.42318 12.1352 8.83984C12.5499 8.25651 12.7572 7.4043 12.7572 6.2832V5.76367ZM22.6895 7.37695C22.6895 8.52539 22.432 9.43913 21.917 10.1182C21.4066 10.7972 20.7025 11.1367 19.8047 11.1367C18.9388 11.1367 18.2643 10.8245 17.7812 10.2002L17.6992 11H16.1953V0.5H17.8564V4.31445C18.335 3.74935 18.9798 3.4668 19.791 3.4668C20.6934 3.4668 21.402 3.80176 21.917 4.47168C22.432 5.1416 22.6895 6.07812 22.6895 7.28125V7.37695ZM21.0283 7.2334C21.0283 6.43132 20.887 5.82975 20.6045 5.42871C20.3219 5.02767 19.9118 4.82715 19.374 4.82715C18.654 4.82715 18.1481 5.1416 17.8564 5.77051V8.81934C18.1527 9.46191 18.6631 9.7832 19.3877 9.7832C19.9072 9.7832 20.3083 9.58952 20.5908 9.20215C20.8734 8.81478 21.0192 8.22917 21.0283 7.44531V7.2334ZM28.3834 8.99023C28.3834 8.69401 28.2603 8.46842 28.0143 8.31348C27.7727 8.15853 27.3694 8.02181 26.8043 7.90332C26.2392 7.78483 25.7675 7.63444 25.3893 7.45215C24.5598 7.05111 24.1451 6.47005 24.1451 5.70898C24.1451 5.07096 24.414 4.53776 24.9518 4.10938C25.4895 3.68099 26.1731 3.4668 27.0025 3.4668C27.8867 3.4668 28.5999 3.68555 29.1422 4.12305C29.6891 4.56055 29.9625 5.12793 29.9625 5.8252H28.3014C28.3014 5.50618 28.1829 5.24186 27.9459 5.03223C27.7089 4.81803 27.3945 4.71094 27.0025 4.71094C26.638 4.71094 26.3395 4.79525 26.107 4.96387C25.8792 5.13249 25.7652 5.35807 25.7652 5.64062C25.7652 5.89583 25.8723 6.09408 26.0865 6.23535C26.3007 6.37663 26.7337 6.52018 27.3853 6.66602C28.037 6.80729 28.5475 6.97819 28.9166 7.17871C29.2903 7.37467 29.566 7.61165 29.7437 7.88965C29.926 8.16764 30.0172 8.50488 30.0172 8.90137C30.0172 9.56673 29.7415 10.1068 29.19 10.5215C28.6386 10.9316 27.9163 11.1367 27.023 11.1367C26.4169 11.1367 25.8769 11.0273 25.4029 10.8086C24.929 10.5898 24.5598 10.2891 24.2955 9.90625C24.0312 9.52344 23.899 9.111 23.899 8.66895H25.5123C25.5351 9.06087 25.6832 9.36393 25.9566 9.57812C26.2301 9.78776 26.5924 9.89258 27.0436 9.89258C27.4811 9.89258 27.8137 9.81055 28.0416 9.64648C28.2695 9.47786 28.3834 9.25911 28.3834 8.99023ZM33.7014 1.80566V3.60352H35.007V4.83398H33.7014V8.96289C33.7014 9.24544 33.7561 9.45052 33.8654 9.57812C33.9794 9.70117 34.1799 9.7627 34.467 9.7627C34.6584 9.7627 34.8521 9.73991 35.048 9.69434V10.9795C34.6698 11.0843 34.3052 11.1367 33.9543 11.1367C32.6783 11.1367 32.0402 10.4326 32.0402 9.02441V4.83398H30.8234V3.60352H32.0402V1.80566H33.7014ZM39.6893 11.1367C38.6365 11.1367 37.782 10.8063 37.1258 10.1455C36.4741 9.48014 36.1482 8.59603 36.1482 7.49316V7.28809C36.1482 6.5498 36.2895 5.89128 36.5721 5.3125C36.8592 4.72917 37.2602 4.27572 37.7752 3.95215C38.2902 3.62858 38.8644 3.4668 39.4978 3.4668C40.505 3.4668 41.282 3.78809 41.8289 4.43066C42.3803 5.07324 42.6561 5.98242 42.6561 7.1582V7.82812H37.823C37.8732 8.4388 38.076 8.92188 38.4314 9.27734C38.7915 9.63281 39.2426 9.81055 39.785 9.81055C40.546 9.81055 41.1658 9.50293 41.6443 8.8877L42.5398 9.74219C42.2436 10.1842 41.8471 10.5283 41.3504 10.7744C40.8582 11.016 40.3045 11.1367 39.6893 11.1367ZM39.491 4.7998C39.0353 4.7998 38.6661 4.95931 38.3836 5.27832C38.1056 5.59733 37.9279 6.04167 37.8504 6.61133H41.0154V6.48828C40.979 5.93229 40.8309 5.51302 40.5711 5.23047C40.3113 4.94336 39.9513 4.7998 39.491 4.7998ZM46.183 1.80566V3.60352H47.4887V4.83398H46.183V8.96289C46.183 9.24544 46.2377 9.45052 46.3471 9.57812C46.461 9.70117 46.6615 9.7627 46.9486 9.7627C47.14 9.7627 47.3337 9.73991 47.5297 9.69434V10.9795C47.1514 11.0843 46.7868 11.1367 46.4359 11.1367C45.1599 11.1367 44.5219 10.4326 44.5219 9.02441V4.83398H43.3051V3.60352H44.5219V1.80566H46.183ZM52.7861 5.12109C52.5674 5.08464 52.3418 5.06641 52.1094 5.06641C51.3483 5.06641 50.8356 5.35807 50.5713 5.94141V11H48.9102V3.60352H50.4961L50.5371 4.43066C50.9382 3.78809 51.4941 3.4668 52.2051 3.4668C52.4421 3.4668 52.638 3.4987 52.793 3.5625L52.7861 5.12109ZM55.7525 11H54.0914V3.60352H55.7525V11ZM53.9889 1.68262C53.9889 1.42741 54.0686 1.21549 54.2281 1.04688C54.3922 0.878255 54.6246 0.793945 54.9254 0.793945C55.2262 0.793945 55.4586 0.878255 55.6227 1.04688C55.7867 1.21549 55.8687 1.42741 55.8687 1.68262C55.8687 1.93327 55.7867 2.1429 55.6227 2.31152C55.4586 2.47559 55.2262 2.55762 54.9254 2.55762C54.6246 2.55762 54.3922 2.47559 54.2281 2.31152C54.0686 2.1429 53.9889 1.93327 53.9889 1.68262ZM60.7561 9.81055C61.1708 9.81055 61.5148 9.68978 61.7883 9.44824C62.0617 9.20671 62.2076 8.9082 62.2258 8.55273H63.7912C63.773 9.01302 63.6294 9.44368 63.3605 9.84473C63.0917 10.2412 62.7271 10.5557 62.2668 10.7881C61.8065 11.0205 61.3098 11.1367 60.7766 11.1367C59.7421 11.1367 58.9217 10.8018 58.3156 10.1318C57.7095 9.46191 57.4064 8.53678 57.4064 7.35645V7.18555C57.4064 6.0599 57.7072 5.15983 58.3088 4.48535C58.9104 3.80632 59.7307 3.4668 60.7697 3.4668C61.6493 3.4668 62.3648 3.72428 62.9162 4.23926C63.4722 4.74967 63.7639 5.42188 63.7912 6.25586H62.2258C62.2076 5.83203 62.0617 5.4834 61.7883 5.20996C61.5194 4.93652 61.1753 4.7998 60.7561 4.7998C60.2183 4.7998 59.8036 4.99577 59.5119 5.3877C59.2202 5.77507 59.0721 6.36523 59.0676 7.1582V7.4248C59.0676 8.22689 59.2111 8.82617 59.4982 9.22266C59.7899 9.61458 60.2092 9.81055 60.7561 9.81055ZM69.3416 8.99023C69.3416 8.69401 69.2186 8.46842 68.9725 8.31348C68.7309 8.15853 68.3276 8.02181 67.7625 7.90332C67.1974 7.78483 66.7257 7.63444 66.3475 7.45215C65.518 7.05111 65.1033 6.47005 65.1033 5.70898C65.1033 5.07096 65.3722 4.53776 65.91 4.10938C66.4477 3.68099 67.1313 3.4668 67.9607 3.4668C68.8449 3.4668 69.5581 3.68555 70.1004 4.12305C70.6473 4.56055 70.9207 5.12793 70.9207 5.8252H69.2596C69.2596 5.50618 69.1411 5.24186 68.9041 5.03223C68.6671 4.81803 68.3527 4.71094 67.9607 4.71094C67.5962 4.71094 67.2977 4.79525 67.0652 4.96387C66.8374 5.13249 66.7234 5.35807 66.7234 5.64062C66.7234 5.89583 66.8305 6.09408 67.0447 6.23535C67.2589 6.37663 67.6919 6.52018 68.3436 6.66602C68.9952 6.80729 69.5057 6.97819 69.8748 7.17871C70.2485 7.37467 70.5242 7.61165 70.702 7.88965C70.8842 8.16764 70.9754 8.50488 70.9754 8.90137C70.9754 9.56673 70.6997 10.1068 70.1482 10.5215C69.5968 10.9316 68.8745 11.1367 67.9812 11.1367C67.3751 11.1367 66.8351 11.0273 66.3611 10.8086C65.8872 10.5898 65.518 10.2891 65.2537 9.90625C64.9894 9.52344 64.8572 9.111 64.8572 8.66895H66.4705C66.4933 9.06087 66.6414 9.36393 66.9148 9.57812C67.1883 9.78776 67.5506 9.89258 68.0018 9.89258C68.4393 9.89258 68.7719 9.81055 68.9998 9.64648C69.2277 9.47786 69.3416 9.25911 69.3416 8.99023ZM75.9512 8.31348C75.9512 7.85319 76.0765 7.43164 76.3271 7.04883C76.5778 6.66146 77.0723 6.20345 77.8105 5.6748C77.4232 5.18717 77.152 4.77246 76.9971 4.43066C76.8467 4.08887 76.7715 3.75846 76.7715 3.43945C76.7715 2.66016 77.0085 2.04492 77.4824 1.59375C77.9564 1.13802 78.5944 0.910156 79.3965 0.910156C80.1211 0.910156 80.7135 1.12435 81.1738 1.55273C81.6387 1.97656 81.8711 2.50293 81.8711 3.13184C81.8711 3.54655 81.7663 3.92936 81.5566 4.28027C81.347 4.62663 81.0029 4.97298 80.5244 5.31934L79.8477 5.81152L81.7686 8.08105C82.0465 7.53418 82.1855 6.92578 82.1855 6.25586H83.6279C83.6279 7.48177 83.3408 8.48665 82.7666 9.27051L84.2295 11H82.3018L81.7412 10.3369C81.0303 10.8701 80.1826 11.1367 79.1982 11.1367C78.2139 11.1367 77.4255 10.877 76.833 10.3574C76.2451 9.83333 75.9512 9.15202 75.9512 8.31348ZM79.2461 9.81055C79.8066 9.81055 80.3307 9.6237 80.8184 9.25L78.6445 6.68652L78.4326 6.83691C77.8857 7.25163 77.6123 7.72559 77.6123 8.25879C77.6123 8.71908 77.7604 9.09277 78.0566 9.37988C78.3529 9.66699 78.7493 9.81055 79.2461 9.81055ZM78.3301 3.39844C78.3301 3.78125 78.5648 4.26204 79.0342 4.84082L79.793 4.32129L80.0049 4.15039C80.2874 3.89974 80.4287 3.57845 80.4287 3.18652C80.4287 2.92676 80.3307 2.70573 80.1348 2.52344C79.9388 2.33659 79.6904 2.24316 79.3896 2.24316C79.0661 2.24316 78.8086 2.35254 78.6172 2.57129C78.4258 2.79004 78.3301 3.06576 78.3301 3.39844ZM8.42324 25.708C8.06321 26.1774 7.56419 26.5329 6.92617 26.7744C6.28815 27.016 5.56354 27.1367 4.75234 27.1367C3.91836 27.1367 3.18008 26.9476 2.5375 26.5693C1.89492 26.1911 1.39818 25.651 1.04726 24.9492C0.70091 24.2428 0.520897 23.4202 0.507225 22.4814V21.7021C0.507225 20.1982 0.867251 19.0247 1.5873 18.1816C2.30736 17.334 3.31224 16.9102 4.60195 16.9102C5.70937 16.9102 6.58893 17.1836 7.24062 17.7305C7.89232 18.2773 8.28424 19.0658 8.4164 20.0957H6.72109C6.52969 18.8971 5.8347 18.2979 4.63613 18.2979C3.86139 18.2979 3.27122 18.5781 2.86562 19.1387C2.46458 19.6947 2.25723 20.5127 2.24355 21.5928V22.3584C2.24355 23.4339 2.46914 24.2702 2.92031 24.8672C3.37604 25.4596 4.00723 25.7559 4.81387 25.7559C5.69798 25.7559 6.32689 25.5553 6.70058 25.1543V23.2061H4.6498V21.8936H8.42324V25.708ZM12.9004 24.6211L14.4043 19.6035H16.1748L13.2353 28.1211C12.7842 29.3652 12.0186 29.9873 10.9385 29.9873C10.6969 29.9873 10.4303 29.9463 10.1387 29.8643V28.5791L10.4531 28.5996C10.8724 28.5996 11.1868 28.5221 11.3965 28.3672C11.6107 28.2168 11.7793 27.9616 11.9023 27.6016L12.1416 26.9658L9.54394 19.6035H11.335L12.9004 24.6211ZM18.8268 19.6035L18.8746 20.458C19.4215 19.7972 20.1393 19.4668 21.0279 19.4668C22.5683 19.4668 23.3521 20.3486 23.3795 22.1123V27H21.7184V22.208C21.7184 21.7386 21.6158 21.3923 21.4107 21.1689C21.2102 20.9411 20.8798 20.8271 20.4195 20.8271C19.7496 20.8271 19.2506 21.1302 18.9225 21.7363V27H17.2613V19.6035H18.8268ZM29.6477 27C29.5747 26.8587 29.5109 26.6286 29.4562 26.3096C28.9276 26.861 28.2805 27.1367 27.5148 27.1367C26.772 27.1367 26.1659 26.9248 25.6965 26.501C25.2271 26.0771 24.9924 25.5531 24.9924 24.9287C24.9924 24.1403 25.284 23.5365 25.8674 23.1172C26.4553 22.6934 27.2938 22.4814 28.383 22.4814H29.4016V21.9961C29.4016 21.6133 29.2945 21.3079 29.0803 21.0801C28.8661 20.8477 28.5402 20.7314 28.1027 20.7314C27.7245 20.7314 27.4146 20.8271 27.173 21.0186C26.9315 21.2054 26.8107 21.4447 26.8107 21.7363H25.1496C25.1496 21.3307 25.284 20.9525 25.5529 20.6016C25.8218 20.2461 26.1864 19.9681 26.6467 19.7676C27.1115 19.5671 27.6288 19.4668 28.1984 19.4668C29.0643 19.4668 29.7548 19.6855 30.2697 20.123C30.7847 20.556 31.049 21.1667 31.0627 21.9551V25.291C31.0627 25.9564 31.1561 26.4873 31.343 26.8838V27H29.6477ZM27.8225 25.8037C28.1506 25.8037 28.4582 25.724 28.7453 25.5645C29.037 25.4049 29.2557 25.1908 29.4016 24.9219V23.5273H28.5061C27.8908 23.5273 27.4283 23.6344 27.1184 23.8486C26.8085 24.0628 26.6535 24.3659 26.6535 24.7578C26.6535 25.0768 26.7583 25.332 26.968 25.5234C27.1822 25.7103 27.467 25.8037 27.8225 25.8037ZM36.2098 27.1367C35.157 27.1367 34.3025 26.8063 33.6463 26.1455C32.9946 25.4801 32.6687 24.596 32.6687 23.4932V23.2881C32.6687 22.5498 32.81 21.8913 33.0926 21.3125C33.3797 20.7292 33.7807 20.2757 34.2957 19.9521C34.8107 19.6286 35.3849 19.4668 36.0184 19.4668C37.0255 19.4668 37.8025 19.7881 38.3494 20.4307C38.9008 21.0732 39.1766 21.9824 39.1766 23.1582V23.8281H34.3436C34.3937 24.4388 34.5965 24.9219 34.952 25.2773C35.312 25.6328 35.7631 25.8105 36.3055 25.8105C37.0665 25.8105 37.6863 25.5029 38.1648 24.8877L39.0603 25.7422C38.7641 26.1842 38.3676 26.5283 37.8709 26.7744C37.3787 27.016 36.825 27.1367 36.2098 27.1367ZM36.0115 20.7998C35.5558 20.7998 35.1867 20.9593 34.9041 21.2783C34.6261 21.5973 34.4484 22.0417 34.3709 22.6113H37.5359V22.4883C37.4995 21.9323 37.3514 21.513 37.0916 21.2305C36.8318 20.9434 36.4718 20.7998 36.0115 20.7998ZM43.6605 25.8105C44.0753 25.8105 44.4193 25.6898 44.6928 25.4482C44.9662 25.2067 45.112 24.9082 45.1303 24.5527H46.6957C46.6775 25.013 46.5339 25.4437 46.265 25.8447C45.9962 26.2412 45.6316 26.5557 45.1713 26.7881C44.711 27.0205 44.2143 27.1367 43.6811 27.1367C42.6465 27.1367 41.8262 26.8018 41.2201 26.1318C40.614 25.4619 40.3109 24.5368 40.3109 23.3564V23.1855C40.3109 22.0599 40.6117 21.1598 41.2133 20.4854C41.8148 19.8063 42.6352 19.4668 43.6742 19.4668C44.5538 19.4668 45.2693 19.7243 45.8207 20.2393C46.3767 20.7497 46.6684 21.4219 46.6957 22.2559H45.1303C45.112 21.832 44.9662 21.4834 44.6928 21.21C44.4239 20.9365 44.0798 20.7998 43.6605 20.7998C43.1228 20.7998 42.7081 20.9958 42.4164 21.3877C42.1247 21.7751 41.9766 22.3652 41.9721 23.1582V23.4248C41.9721 24.2269 42.1156 24.8262 42.4027 25.2227C42.6944 25.6146 43.1137 25.8105 43.6605 25.8105ZM49.7373 20.4102C50.2796 19.7812 50.9655 19.4668 51.7949 19.4668C53.3717 19.4668 54.1715 20.3669 54.1943 22.167V27H52.5332V22.2285C52.5332 21.7181 52.4215 21.3581 52.1982 21.1484C51.9795 20.9342 51.6559 20.8271 51.2275 20.8271C50.5622 20.8271 50.0654 21.1234 49.7373 21.7158V27H48.0762V16.5H49.7373V20.4102ZM55.7184 23.2334C55.7184 22.5088 55.8619 21.8571 56.149 21.2783C56.4361 20.695 56.8395 20.2484 57.359 19.9385C57.8785 19.624 58.4755 19.4668 59.15 19.4668C60.148 19.4668 60.957 19.7881 61.5768 20.4307C62.2011 21.0732 62.5383 21.9255 62.5885 22.9873L62.5953 23.377C62.5953 24.1061 62.454 24.7578 62.1715 25.332C61.8935 25.9062 61.4924 26.3506 60.9684 26.665C60.4488 26.9795 59.8473 27.1367 59.1637 27.1367C58.12 27.1367 57.2838 26.7904 56.6549 26.0977C56.0305 25.4004 55.7184 24.473 55.7184 23.3154V23.2334ZM57.3795 23.377C57.3795 24.138 57.5367 24.735 57.8512 25.168C58.1656 25.5964 58.6031 25.8105 59.1637 25.8105C59.7242 25.8105 60.1594 25.5918 60.4693 25.1543C60.7838 24.7168 60.941 24.0765 60.941 23.2334C60.941 22.486 60.7792 21.8936 60.4557 21.4561C60.1367 21.0186 59.7014 20.7998 59.15 20.7998C58.6077 20.7998 58.177 21.0163 57.858 21.4492C57.539 21.8776 57.3795 22.5202 57.3795 23.377ZM65.9172 27H64.2561V16.5H65.9172V27ZM67.5711 23.2334C67.5711 22.5088 67.7146 21.8571 68.0018 21.2783C68.2889 20.695 68.6922 20.2484 69.2117 19.9385C69.7312 19.624 70.3283 19.4668 71.0027 19.4668C72.0008 19.4668 72.8097 19.7881 73.4295 20.4307C74.0538 21.0732 74.3911 21.9255 74.4412 22.9873L74.448 23.377C74.448 24.1061 74.3068 24.7578 74.0242 25.332C73.7462 25.9062 73.3452 26.3506 72.8211 26.665C72.3016 26.9795 71.7 27.1367 71.0164 27.1367C69.9728 27.1367 69.1365 26.7904 68.5076 26.0977C67.8833 25.4004 67.5711 24.473 67.5711 23.3154V23.2334ZM69.2322 23.377C69.2322 24.138 69.3895 24.735 69.7039 25.168C70.0184 25.5964 70.4559 25.8105 71.0164 25.8105C71.577 25.8105 72.0122 25.5918 72.3221 25.1543C72.6365 24.7168 72.7937 24.0765 72.7937 23.2334C72.7937 22.486 72.632 21.8936 72.3084 21.4561C71.9894 21.0186 71.5542 20.7998 71.0027 20.7998C70.4604 20.7998 70.0297 21.0163 69.7107 21.4492C69.3917 21.8776 69.2322 22.5202 69.2322 23.377ZM75.7123 23.2471C75.7123 22.0986 75.9812 21.1826 76.5189 20.499C77.0613 19.8109 77.779 19.4668 78.6723 19.4668C79.5154 19.4668 80.1784 19.7607 80.6615 20.3486L80.7367 19.6035H82.2338V26.7744C82.2338 27.7451 81.9307 28.5107 81.3246 29.0713C80.723 29.6318 79.9096 29.9121 78.8842 29.9121C78.3419 29.9121 77.8109 29.7982 77.2914 29.5703C76.7764 29.347 76.3845 29.0531 76.1156 28.6885L76.9018 27.6904C77.4122 28.2965 78.0411 28.5996 78.7885 28.5996C79.3399 28.5996 79.7751 28.4492 80.0941 28.1484C80.4131 27.8522 80.5727 27.4147 80.5727 26.8359V26.3369C80.0941 26.8701 79.4561 27.1367 78.6586 27.1367C77.7927 27.1367 77.084 26.7926 76.5326 26.1045C75.9857 25.4163 75.7123 24.4639 75.7123 23.2471ZM77.3666 23.3906C77.3666 24.1335 77.517 24.7191 77.8178 25.1475C78.1231 25.5713 78.5447 25.7832 79.0824 25.7832C79.7523 25.7832 80.2491 25.4961 80.5727 24.9219V21.668C80.2582 21.1074 79.766 20.8271 79.0961 20.8271C78.5492 20.8271 78.1231 21.0436 77.8178 21.4766C77.517 21.9095 77.3666 22.5475 77.3666 23.3906ZM86.6836 24.6211L88.1875 19.6035H89.958L87.0186 28.1211C86.5674 29.3652 85.8018 29.9873 84.7217 29.9873C84.4801 29.9873 84.2135 29.9463 83.9219 29.8643V28.5791L84.2363 28.5996C84.6556 28.5996 84.9701 28.5221 85.1797 28.3672C85.3939 28.2168 85.5625 27.9616 85.6855 27.6016L85.9248 26.9658L83.3271 19.6035H85.1182L86.6836 24.6211Z" fill="#1F3A6F"/>
</svg>
