<svg width="64" height="12" viewBox="0 0 64 12" fill="none" xmlns="http://www.w3.org/2000/svg">
<path d="M2.40918 7.30176V11H0.679688V1.04688H4.4873C5.59928 1.04688 6.48112 1.33626 7.13281 1.91504C7.78906 2.49382 8.11719 3.25944 8.11719 4.21191C8.11719 5.18717 7.7959 5.94596 7.15332 6.48828C6.5153 7.0306 5.61979 7.30176 4.4668 7.30176H2.40918ZM2.40918 5.91406H4.4873C5.10254 5.91406 5.57194 5.77051 5.89551 5.4834C6.21908 5.19173 6.38086 4.77246 6.38086 4.22559C6.38086 3.68783 6.2168 3.25944 5.88867 2.94043C5.56055 2.61686 5.10938 2.45052 4.53516 2.44141H2.40918V5.91406ZM12.7857 11.1367C11.733 11.1367 10.8785 10.8063 10.2223 10.1455C9.57057 9.48014 9.24473 8.59603 9.24473 7.49316V7.28809C9.24473 6.5498 9.386 5.89128 9.66855 5.3125C9.95566 4.72917 10.3567 4.27572 10.8717 3.95215C11.3867 3.62858 11.9609 3.4668 12.5943 3.4668C13.6015 3.4668 14.3785 3.78809 14.9254 4.43066C15.4768 5.07324 15.7525 5.98242 15.7525 7.1582V7.82812H10.9195C10.9697 8.4388 11.1725 8.92188 11.5279 9.27734C11.888 9.63281 12.3391 9.81055 12.8814 9.81055C13.6425 9.81055 14.2623 9.50293 14.7408 8.8877L15.6363 9.74219C15.3401 10.1842 14.9436 10.5283 14.4469 10.7744C13.9547 11.016 13.401 11.1367 12.7857 11.1367ZM12.5875 4.7998C12.1318 4.7998 11.7626 4.95931 11.4801 5.27832C11.2021 5.59733 11.0243 6.04167 10.9469 6.61133H14.1119V6.48828C14.0755 5.93229 13.9273 5.51302 13.6676 5.23047C13.4078 4.94336 13.0478 4.7998 12.5875 4.7998ZM16.8869 7.24707C16.8869 6.10775 17.1512 5.19401 17.6799 4.50586C18.2085 3.81315 18.9172 3.4668 19.8059 3.4668C20.5897 3.4668 21.2232 3.74023 21.7062 4.28711V0.5H23.3674V11H21.8635L21.7814 10.2344C21.2847 10.8359 20.6216 11.1367 19.7922 11.1367C18.9263 11.1367 18.2245 10.7881 17.6867 10.0908C17.1535 9.39355 16.8869 8.44564 16.8869 7.24707ZM18.548 7.39062C18.548 8.14258 18.6916 8.73047 18.9787 9.1543C19.2704 9.57357 19.6828 9.7832 20.216 9.7832C20.8951 9.7832 21.3918 9.48014 21.7062 8.87402V5.71582C21.4009 5.12337 20.9087 4.82715 20.2297 4.82715C19.6919 4.82715 19.2772 5.04134 18.9855 5.46973C18.6939 5.89355 18.548 6.53385 18.548 7.39062ZM27.0174 11H25.3563V3.60352H27.0174V11ZM25.2537 1.68262C25.2537 1.42741 25.3335 1.21549 25.493 1.04688C25.657 0.878255 25.8895 0.793945 26.1902 0.793945C26.491 0.793945 26.7234 0.878255 26.8875 1.04688C27.0516 1.21549 27.1336 1.42741 27.1336 1.68262C27.1336 1.93327 27.0516 2.1429 26.8875 2.31152C26.7234 2.47559 26.491 2.55762 26.1902 2.55762C25.8895 2.55762 25.657 2.47559 25.493 2.31152C25.3335 2.1429 25.2537 1.93327 25.2537 1.68262ZM33.4018 11C33.3288 10.8587 33.265 10.6286 33.2104 10.3096C32.6817 10.861 32.0346 11.1367 31.2689 11.1367C30.5261 11.1367 29.92 10.9248 29.4506 10.501C28.9812 10.0771 28.7465 9.55306 28.7465 8.92871C28.7465 8.1403 29.0381 7.53646 29.6215 7.11719C30.2094 6.69336 31.0479 6.48145 32.1371 6.48145H33.1557V5.99609C33.1557 5.61328 33.0486 5.30794 32.8344 5.08008C32.6202 4.84766 32.2943 4.73145 31.8568 4.73145C31.4786 4.73145 31.1687 4.82715 30.9271 5.01855C30.6856 5.2054 30.5648 5.44466 30.5648 5.73633H28.9037C28.9037 5.33073 29.0381 4.95247 29.307 4.60156C29.5759 4.24609 29.9405 3.9681 30.4008 3.76758C30.8656 3.56706 31.3829 3.4668 31.9525 3.4668C32.8184 3.4668 33.5089 3.68555 34.0238 4.12305C34.5388 4.55599 34.8031 5.16667 34.8168 5.95508V9.29102C34.8168 9.95638 34.9102 10.4873 35.0971 10.8838V11H33.4018ZM31.5766 9.80371C31.9047 9.80371 32.2123 9.72396 32.4994 9.56445C32.7911 9.40495 33.0098 9.19076 33.1557 8.92188V7.52734H32.2602C31.6449 7.52734 31.1824 7.63444 30.8725 7.84863C30.5626 8.06283 30.4076 8.36589 30.4076 8.75781C30.4076 9.07682 30.5124 9.33203 30.7221 9.52344C30.9363 9.71029 31.2211 9.80371 31.5766 9.80371ZM38.7881 1.80566V3.60352H40.0938V4.83398H38.7881V8.96289C38.7881 9.24544 38.8428 9.45052 38.9521 9.57812C39.0661 9.70117 39.2666 9.7627 39.5537 9.7627C39.7451 9.7627 39.9388 9.73991 40.1348 9.69434V10.9795C39.7565 11.0843 39.3919 11.1367 39.041 11.1367C37.765 11.1367 37.127 10.4326 37.127 9.02441V4.83398H35.9102V3.60352H37.127V1.80566H38.7881ZM45.3912 5.12109C45.1725 5.08464 44.9469 5.06641 44.7145 5.06641C43.9534 5.06641 43.4407 5.35807 43.1764 5.94141V11H41.5152V3.60352H43.1012L43.1422 4.43066C43.5432 3.78809 44.0992 3.4668 44.8102 3.4668C45.0471 3.4668 45.2431 3.4987 45.398 3.5625L45.3912 5.12109ZM48.3576 11H46.6965V3.60352H48.3576V11ZM46.5939 1.68262C46.5939 1.42741 46.6737 1.21549 46.8332 1.04688C46.9973 0.878255 47.2297 0.793945 47.5305 0.793945C47.8313 0.793945 48.0637 0.878255 48.2277 1.04688C48.3918 1.21549 48.4738 1.42741 48.4738 1.68262C48.4738 1.93327 48.3918 2.1429 48.2277 2.31152C48.0637 2.47559 47.8313 2.55762 47.5305 2.55762C47.2297 2.55762 46.9973 2.47559 46.8332 2.31152C46.6737 2.1429 46.5939 1.93327 46.5939 1.68262ZM53.3611 9.81055C53.7758 9.81055 54.1199 9.68978 54.3934 9.44824C54.6668 9.20671 54.8126 8.9082 54.8309 8.55273H56.3963C56.3781 9.01302 56.2345 9.44368 55.9656 9.84473C55.6967 10.2412 55.3322 10.5557 54.8719 10.7881C54.4116 11.0205 53.9148 11.1367 53.3816 11.1367C52.3471 11.1367 51.5268 10.8018 50.9207 10.1318C50.3146 9.46191 50.0115 8.53678 50.0115 7.35645V7.18555C50.0115 6.0599 50.3123 5.15983 50.9139 4.48535C51.5154 3.80632 52.3357 3.4668 53.3748 3.4668C54.2544 3.4668 54.9699 3.72428 55.5213 4.23926C56.0773 4.74967 56.3689 5.42188 56.3963 6.25586H54.8309C54.8126 5.83203 54.6668 5.4834 54.3934 5.20996C54.1245 4.93652 53.7804 4.7998 53.3611 4.7998C52.8234 4.7998 52.4087 4.99577 52.117 5.3877C51.8253 5.77507 51.6772 6.36523 51.6727 7.1582V7.4248C51.6727 8.22689 51.8162 8.82617 52.1033 9.22266C52.395 9.61458 52.8143 9.81055 53.3611 9.81055ZM61.9467 8.99023C61.9467 8.69401 61.8236 8.46842 61.5775 8.31348C61.336 8.15853 60.9327 8.02181 60.3676 7.90332C59.8025 7.78483 59.3308 7.63444 58.9525 7.45215C58.1231 7.05111 57.7084 6.47005 57.7084 5.70898C57.7084 5.07096 57.9773 4.53776 58.515 4.10938C59.0528 3.68099 59.7364 3.4668 60.5658 3.4668C61.4499 3.4668 62.1631 3.68555 62.7055 4.12305C63.2523 4.56055 63.5258 5.12793 63.5258 5.8252H61.8646C61.8646 5.50618 61.7462 5.24186 61.5092 5.03223C61.2722 4.81803 60.9577 4.71094 60.5658 4.71094C60.2012 4.71094 59.9027 4.79525 59.6703 4.96387C59.4424 5.13249 59.3285 5.35807 59.3285 5.64062C59.3285 5.89583 59.4356 6.09408 59.6498 6.23535C59.864 6.37663 60.2969 6.52018 60.9486 6.66602C61.6003 6.80729 62.1107 6.97819 62.4799 7.17871C62.8536 7.37467 63.1293 7.61165 63.307 7.88965C63.4893 8.16764 63.5805 8.50488 63.5805 8.90137C63.5805 9.56673 63.3048 10.1068 62.7533 10.5215C62.2019 10.9316 61.4796 11.1367 60.5863 11.1367C59.9802 11.1367 59.4402 11.0273 58.9662 10.8086C58.4923 10.5898 58.1231 10.2891 57.8588 9.90625C57.5945 9.52344 57.4623 9.111 57.4623 8.66895H59.0756C59.0984 9.06087 59.2465 9.36393 59.5199 9.57812C59.7934 9.78776 60.1557 9.89258 60.6068 9.89258C61.0443 9.89258 61.377 9.81055 61.6049 9.64648C61.8327 9.47786 61.9467 9.25911 61.9467 8.99023Z" fill="#1F3A6F"/>
</svg>
