<svg width="59" height="14" viewBox="0 0 59 14" fill="none" xmlns="http://www.w3.org/2000/svg">
<path d="M2.04108 7.01C1.79841 7.346 1.65841 7.79867 1.62108 8.368C1.57441 9.012 1.65841 9.61867 1.87308 10.188C2.06908 10.72 2.42841 11.1913 2.95108 11.602C3.53908 12.0687 4.32308 12.302 5.30308 12.302C6.13375 12.302 6.78708 12.148 7.26308 11.84C8.14041 11.28 8.59308 10.6033 8.62108 9.81H9.47508C9.47508 10.846 9.02241 11.6673 8.11708 12.274C7.32375 12.7873 6.38108 13.0487 5.28908 13.058C3.87975 13.0673 2.75975 12.6427 1.92908 11.784C1.10775 10.9253 0.734412 9.81 0.809079 8.438C0.846412 7.738 0.986412 7.20133 1.22908 6.828C1.47175 6.44533 1.73308 6.16067 2.01308 5.974C2.01308 5.722 2.06908 5.45133 2.18108 5.162C2.49841 4.35 3.13308 3.92533 4.08508 3.888C4.39308 3.87867 4.69641 3.958 4.99508 4.126C5.26575 4.28467 5.43375 4.49933 5.49908 4.77C5.57375 4.546 5.71841 4.35467 5.93308 4.196C6.20375 4 6.55375 3.89733 6.98308 3.888C7.58975 3.86933 8.05641 4.07 8.38308 4.49C8.70975 4.90067 8.87308 5.39067 8.87308 5.96V6.394H3.80508C3.49708 6.394 3.29175 6.39867 3.18908 6.408C3.09575 6.408 2.97908 6.436 2.83908 6.492C2.78308 6.76267 2.78775 7.094 2.85308 7.486C2.98375 8.25133 3.33841 8.84867 3.91708 9.278C4.26241 9.53 4.78041 9.66067 5.47108 9.67C6.41375 9.67933 7.14641 9.32467 7.66908 8.606C7.94908 8.22333 8.07041 7.738 8.03308 7.15H8.85908C8.85908 8.02733 8.59775 8.76933 8.07508 9.376C7.47775 10.0667 6.58641 10.412 5.40108 10.412C4.85975 10.412 4.42575 10.356 4.09908 10.244C3.63241 10.0853 3.21708 9.81 2.85308 9.418C2.55441 9.082 2.33975 8.72267 2.20908 8.34C2.05975 7.90133 2.00375 7.458 2.04108 7.01ZM5.10708 5.722C5.09775 5.442 4.99975 5.19 4.81308 4.966C4.62641 4.742 4.38375 4.63 4.08508 4.63C3.63708 4.63 3.31041 4.784 3.10508 5.092C3.03975 5.19467 2.96975 5.414 2.89508 5.75C3.02575 5.73133 3.16575 5.722 3.31508 5.722H5.10708ZM5.91908 5.722H8.03308C8.01441 5.274 7.83241 4.952 7.48708 4.756C7.32841 4.672 7.14175 4.63 6.92708 4.63C6.61908 4.63 6.37641 4.73733 6.19908 4.952C6.03108 5.15733 5.93775 5.414 5.91908 5.722ZM15.5399 5.288C15.5585 5.54933 15.4559 5.764 15.2319 5.932C15.0172 6.1 14.7699 6.17467 14.4899 6.156C14.0605 6.128 13.7432 5.96933 13.5379 5.68C13.4072 5.484 13.3419 5.26933 13.3419 5.036C13.3419 4.672 13.4445 4.38733 13.6499 4.182C13.9392 3.89267 14.2892 3.75733 14.6999 3.776C15.2132 3.79467 15.6565 4.056 16.0299 4.56C16.3472 4.98 16.4965 5.54467 16.4779 6.254C16.4685 6.79533 16.3099 7.25267 16.0019 7.626C15.5539 8.17667 14.9285 8.44267 14.1259 8.424C13.4819 8.41467 12.9405 8.20933 12.5019 7.808C12.1192 7.46267 11.9372 7.00067 11.9559 6.422C11.9652 6.10467 12.0445 5.82 12.1939 5.568C12.2872 5.46533 12.3945 5.28333 12.5159 5.022C12.5439 4.75133 12.4085 4.616 12.1099 4.616C11.8205 4.616 11.5172 4.86333 11.1999 5.358C10.9479 5.98333 10.8219 6.54333 10.8219 7.038C10.8219 7.55133 10.9059 8.02267 11.0739 8.452C11.3912 9.24533 11.9745 9.79133 12.8239 10.09C13.2625 10.2487 13.7432 10.3187 14.2659 10.3C14.6112 10.2907 14.8445 10.2767 14.9659 10.258C15.2459 10.2113 15.5585 10.104 15.9039 9.936C16.3612 9.712 16.7672 9.348 17.1219 8.844C17.5139 8.284 17.7099 7.56533 17.7099 6.688C17.7099 6.016 17.5932 5.358 17.3599 4.714C17.0892 3.97667 16.7112 3.43067 16.2259 3.076C15.6472 2.656 15.0172 2.446 14.3359 2.446C13.5519 2.446 12.9685 2.544 12.5859 2.74C12.1285 2.97333 11.7879 3.22067 11.5639 3.482C11.5079 3.54733 11.4332 3.64533 11.3399 3.776H10.4719C10.4999 3.68267 10.5605 3.566 10.6539 3.426C10.9339 2.978 11.2605 2.63733 11.6339 2.404C12.0165 2.17067 12.3852 2.00733 12.7399 1.914C13.1972 1.79267 13.7292 1.732 14.3359 1.732C14.9705 1.732 15.5539 1.85333 16.0859 2.096C16.7392 2.39467 17.2945 2.922 17.7519 3.678C18.2652 4.52733 18.5265 5.47933 18.5359 6.534C18.5452 7.60733 18.3165 8.50333 17.8499 9.222C17.3645 9.978 16.6972 10.5053 15.8479 10.804C15.3812 10.9627 14.8492 11.042 14.2519 11.042C13.5332 11.042 12.9685 10.9627 12.5579 10.804C11.6899 10.468 11.0505 9.98267 10.6399 9.348C10.2292 8.704 10.0239 7.92 10.0239 6.996C10.0239 6.212 10.1919 5.54467 10.5279 4.994C10.7705 4.59267 11.1019 4.28467 11.5219 4.07C11.7552 3.94867 12.0399 3.89733 12.3759 3.916C12.7119 3.93467 12.9685 4.084 13.1459 4.364C13.2485 4.532 13.2952 4.73267 13.2859 4.966C13.2765 5.20867 13.1645 5.47467 12.9499 5.764C12.8005 5.96933 12.7259 6.21667 12.7259 6.506C12.7259 6.702 12.7679 6.86533 12.8519 6.996C13.1505 7.45333 13.5845 7.682 14.1539 7.682C14.5179 7.682 14.8025 7.61667 15.0079 7.486C15.4092 7.234 15.6379 6.82333 15.6939 6.254C15.7312 5.87133 15.6799 5.54933 15.5399 5.288ZM14.4759 4.49C14.1772 4.518 14.0465 4.69533 14.0839 5.022C14.1119 5.32067 14.2892 5.45133 14.6159 5.414C14.9145 5.386 15.0452 5.20867 15.0079 4.882C14.9799 4.58333 14.8025 4.45267 14.4759 4.49ZM21.978 7.43C21.978 6.80467 21.852 6.21667 21.6 5.666C21.2827 4.966 20.8487 4.616 20.298 4.616C19.794 4.616 19.374 4.728 19.038 4.952V4.21C19.2154 4.098 19.4114 4.014 19.626 3.958C19.8034 3.91133 20.0507 3.888 20.368 3.888C21.152 3.888 21.7494 4.25667 22.16 4.994C22.58 5.722 22.79 6.534 22.79 7.43C22.79 8.34467 22.58 9.17067 22.16 9.908C21.7494 10.636 21.152 11 20.368 11C20.0507 11 19.8034 10.9767 19.626 10.93C19.4114 10.874 19.2154 10.79 19.038 10.678V9.936C19.374 10.16 19.794 10.272 20.298 10.272C20.8487 10.272 21.2827 9.91733 21.6 9.208C21.852 8.65733 21.978 8.06467 21.978 7.43ZM32.5462 6.45C32.2662 6.45 32.0328 6.54333 31.8462 6.73C31.6688 6.90733 31.5802 7.12667 31.5802 7.388C31.5802 7.64933 31.6548 7.87333 31.8042 8.06C31.9628 8.23733 32.1915 8.326 32.4902 8.326C32.7702 8.326 32.9942 8.242 33.1622 8.074C33.3302 7.906 33.4142 7.69133 33.4142 7.43C33.4142 7.15 33.3348 6.91667 33.1762 6.73C33.0268 6.54333 32.8168 6.45 32.5462 6.45ZM34.2542 7.472C34.2542 7.976 34.0862 8.37733 33.7502 8.676C33.4235 8.96533 33.0035 9.11 32.4902 9.11C31.9862 9.11 31.5708 8.956 31.2442 8.648C30.9175 8.34 30.7542 7.934 30.7542 7.43C30.7542 6.94467 30.9222 6.534 31.2582 6.198C31.5942 5.862 32.0188 5.68 32.5322 5.652C32.9522 5.624 33.3208 5.64733 33.6382 5.722C33.9275 5.78733 34.2122 5.918 34.4922 6.114C34.8282 6.35667 35.0895 6.646 35.2762 6.982C35.4908 7.38333 35.5888 7.85933 35.5702 8.41C35.5515 8.89533 35.4115 9.31067 35.1502 9.656C34.9168 9.964 34.6648 10.2113 34.3942 10.398C34.0675 10.6313 33.6988 10.7993 33.2882 10.902C33.0362 10.9673 32.6395 11.0047 32.0982 11.014C31.6035 11.0233 31.1275 10.9113 30.6702 10.678C30.1848 10.4353 29.8022 10.1273 29.5222 9.754C29.2515 9.38067 29.0555 9.00733 28.9342 8.634C28.8222 8.25133 28.7662 7.84533 28.7662 7.416C28.7662 6.97733 28.8408 6.55733 28.9902 6.156C29.1115 5.82 29.3122 5.47933 29.5922 5.134C29.8348 4.826 30.1102 4.58333 30.4182 4.406C30.6702 4.25667 30.9128 4.14467 31.1462 4.07C31.5475 3.93933 31.9348 3.874 32.3082 3.874C32.9522 3.874 33.5308 4 34.0442 4.252C34.5668 4.49467 34.9262 4.91467 35.1222 5.512H34.2682C34.1002 5.19467 33.8715 4.97067 33.5822 4.84C33.2928 4.7 32.9942 4.62067 32.6862 4.602C32.3875 4.58333 32.1448 4.588 31.9582 4.616C31.6222 4.672 31.3328 4.76533 31.0902 4.896C30.7168 5.11067 30.4042 5.39067 30.1522 5.736C29.7882 6.24933 29.6015 6.79067 29.5922 7.36C29.5828 7.77067 29.6295 8.13933 29.7322 8.466C29.8535 8.84867 30.0308 9.15667 30.2642 9.39C30.5815 9.70733 30.8895 9.93133 31.1882 10.062C31.4962 10.1927 31.8368 10.258 32.2102 10.258C32.5928 10.258 32.9475 10.202 33.2742 10.09C33.4702 10.0247 33.6475 9.936 33.8062 9.824C34.0115 9.684 34.2168 9.488 34.4222 9.236C34.6275 8.97467 34.7348 8.67133 34.7442 8.326C34.7535 7.906 34.6975 7.57467 34.5762 7.332C34.4642 7.08933 34.3148 6.87467 34.1282 6.688C34.0815 6.64133 34.0022 6.58067 33.8902 6.506C33.9368 6.54333 34.0022 6.62267 34.0862 6.744C34.1422 6.83733 34.1842 6.94467 34.2122 7.066C34.2402 7.29 34.2542 7.42533 34.2542 7.472ZM40.202 4.602C39.39 4.59267 38.6947 4.868 38.116 5.428C37.5374 5.988 37.2434 6.66 37.234 7.444C37.2247 8.24667 37.5187 8.928 38.116 9.488C38.648 9.992 39.3574 10.2487 40.244 10.258C41.0374 10.2673 41.714 10.006 42.274 9.474C42.8434 8.93267 43.1327 8.256 43.142 7.444C43.1514 6.64133 42.862 5.96933 42.274 5.428C41.6954 4.88667 41.0047 4.61133 40.202 4.602ZM43.954 7.416C43.9634 8.48933 43.6087 9.35733 42.89 10.02C42.1807 10.6733 41.2847 11 40.202 11C39.1194 11 38.2187 10.6733 37.5 10.02C36.7814 9.36667 36.422 8.508 36.422 7.444C36.422 6.8 36.576 6.226 36.884 5.722C36.884 5.71267 37.0847 5.456 37.486 4.952C37.5887 4.82133 37.9947 4.53667 38.704 4.098C39.096 3.86467 39.4927 3.63133 39.894 3.398C40.3514 3.09933 40.678 2.81 40.874 2.53C41.07 2.25 41.2147 1.984 41.308 1.732H42.19C42.106 2.096 41.9287 2.46467 41.658 2.838C41.3687 3.23933 40.9767 3.58467 40.482 3.874C40.7527 3.91133 40.9487 3.93933 41.07 3.958C41.266 4.00467 41.49 4.07467 41.742 4.168C42.414 4.42 42.946 4.84467 43.338 5.442C43.7394 6.03933 43.9447 6.69733 43.954 7.416ZM47.3925 7.43C47.3925 6.80467 47.2665 6.21667 47.0145 5.666C46.6972 4.966 46.2632 4.616 45.7125 4.616C45.2085 4.616 44.7885 4.728 44.4525 4.952V4.21C44.6298 4.098 44.8258 4.014 45.0405 3.958C45.2178 3.91133 45.4652 3.888 45.7825 3.888C46.5665 3.888 47.1638 4.25667 47.5745 4.994C47.9945 5.722 48.2045 6.534 48.2045 7.43C48.2045 8.34467 47.9945 9.17067 47.5745 9.908C47.1638 10.636 46.5665 11 45.7825 11C45.4652 11 45.2178 10.9767 45.0405 10.93C44.8258 10.874 44.6298 10.79 44.4525 10.678V9.936C44.7885 10.16 45.2085 10.272 45.7125 10.272C46.2632 10.272 46.6972 9.91733 47.0145 9.208C47.2665 8.65733 47.3925 8.06467 47.3925 7.43ZM46.6881 2.53C46.8561 2.65133 47.0381 2.698 47.2341 2.67C47.4207 2.642 47.5607 2.572 47.6541 2.46C47.7474 2.33867 47.7847 2.18467 47.7661 1.998C47.7474 1.79267 47.6961 1.65267 47.6121 1.578C47.4814 1.466 47.3461 1.41467 47.2061 1.424C47.0847 1.43333 46.9774 1.47067 46.8841 1.536C46.7534 1.62 46.6881 1.72267 46.6881 1.844V2.53ZM45.9321 1.914C45.9321 1.718 45.8574 1.58733 45.7081 1.522C45.5494 1.45667 45.3861 1.46133 45.2181 1.536C45.0407 1.61067 44.9147 1.71333 44.8401 1.844V1.06C45.1201 0.826666 45.4234 0.724 45.7501 0.751999C45.8994 0.761333 46.0394 0.808 46.1701 0.891999C46.2447 0.938666 46.3287 1.00867 46.4221 1.102C46.5154 0.99 46.6461 0.901333 46.8141 0.836C46.9821 0.770666 47.1734 0.742666 47.3881 0.751999C47.7147 0.770666 47.9901 0.882666 48.2141 1.088C48.4287 1.29333 48.5454 1.58267 48.5641 1.956C48.5734 2.264 48.5221 2.51133 48.4101 2.698C48.2887 2.88467 48.1347 3.02933 47.9481 3.132C47.7241 3.25333 47.4814 3.30467 47.2201 3.286C46.9681 3.26733 46.7907 3.22533 46.6881 3.16V4.742C46.6134 4.658 46.4921 4.55067 46.3241 4.42C46.1747 4.32667 46.0441 4.26133 45.9321 4.224V1.914ZM52.9128 3.888V4.588C52.3808 4.57867 51.9561 4.63467 51.6388 4.756C51.4148 4.85867 51.1628 5.04533 50.8828 5.316C50.3508 5.82933 50.0848 6.58533 50.0848 7.584C50.0848 8.368 50.2901 8.998 50.7008 9.474C51.1581 10.006 51.7554 10.272 52.4928 10.272C53.2581 10.272 53.7948 10.0993 54.1028 9.754C54.4668 9.35267 54.6488 8.886 54.6488 8.354C54.6488 8.02733 54.5648 7.74267 54.3968 7.5C54.2288 7.25733 53.9954 7.136 53.6968 7.136C53.2674 7.136 53.0528 7.36 53.0528 7.808C53.0528 7.87333 53.0574 7.93867 53.0668 8.004H52.2968C52.2688 7.78933 52.2548 7.56067 52.2548 7.318C52.2548 6.58067 52.3901 5.96467 52.6608 5.47C53.2488 4.41533 54.1868 3.888 55.4748 3.888C56.3988 3.888 57.1641 4.25667 57.7708 4.994C58.3774 5.73133 58.6668 6.58533 58.6388 7.556C58.6108 8.61067 58.2654 9.46 57.6028 10.104C56.9401 10.748 56.0348 11.0513 54.8868 11.014V10.314C55.7641 10.314 56.4594 10.09 56.9728 9.642C57.5328 9.15667 57.8128 8.43333 57.8128 7.472C57.8128 6.716 57.5934 6.058 57.1548 5.498C56.6881 4.91 56.1048 4.616 55.4048 4.616C54.7421 4.616 54.2054 4.82133 53.7948 5.232C53.3934 5.63333 53.1554 6.09533 53.0808 6.618C53.3421 6.45933 53.6314 6.38 53.9488 6.38C54.4248 6.38933 54.8074 6.60867 55.0968 7.038C55.3488 7.42067 55.4748 7.88267 55.4748 8.424C55.4748 9.14267 55.2088 9.768 54.6768 10.3C54.2288 10.748 53.4961 10.9813 52.4788 11C51.4988 11.0187 50.7054 10.6733 50.0988 9.964C49.5481 9.32 49.2728 8.494 49.2728 7.486C49.2728 6.45 49.5994 5.568 50.2528 4.84C50.8688 4.15867 51.7554 3.84133 52.9128 3.888Z" fill="#1F3A6F"/>
</svg>
