<svg width="127" height="15" viewBox="0 0 127 15" fill="none" xmlns="http://www.w3.org/2000/svg">
<path d="M5.94824 11.2139L9.2002 1.20312H11.6436L7.03809 14H4.88477L0.296875 1.20312H2.73145L5.94824 11.2139ZM15.3092 14H13.1734V4.49023H15.3092V14ZM13.0416 2.02051C13.0416 1.69238 13.1441 1.41992 13.3492 1.20312C13.5602 0.986328 13.859 0.87793 14.2457 0.87793C14.6324 0.87793 14.9312 0.986328 15.1422 1.20312C15.3531 1.41992 15.4586 1.69238 15.4586 2.02051C15.4586 2.34277 15.3531 2.6123 15.1422 2.8291C14.9312 3.04004 14.6324 3.14551 14.2457 3.14551C13.859 3.14551 13.5602 3.04004 13.3492 2.8291C13.1441 2.6123 13.0416 2.34277 13.0416 2.02051ZM21.9807 14.1758C20.6271 14.1758 19.5285 13.751 18.6848 12.9014C17.8469 12.0459 17.4279 10.9092 17.4279 9.49121V9.22754C17.4279 8.27832 17.6096 7.43164 17.9729 6.6875C18.342 5.9375 18.8576 5.35449 19.5197 4.93848C20.1818 4.52246 20.9201 4.31445 21.7346 4.31445C23.0295 4.31445 24.0285 4.72754 24.7316 5.55371C25.4406 6.37988 25.7951 7.54883 25.7951 9.06055V9.92188H19.5812C19.6457 10.707 19.9064 11.3281 20.3635 11.7852C20.8264 12.2422 21.4064 12.4707 22.1037 12.4707C23.0822 12.4707 23.8791 12.0752 24.4943 11.2842L25.6457 12.3828C25.2648 12.9512 24.7551 13.3936 24.1164 13.71C23.4836 14.0205 22.7717 14.1758 21.9807 14.1758ZM21.7258 6.02832C21.1398 6.02832 20.6652 6.2334 20.302 6.64355C19.9445 7.05371 19.716 7.625 19.6164 8.35742H23.6857V8.19922C23.6389 7.48438 23.4484 6.94531 23.1145 6.58203C22.7805 6.21289 22.3176 6.02832 21.7258 6.02832ZM35.9646 11.0557L37.4764 4.49023H39.5594L36.9666 14H35.2088L33.1697 7.46973L31.1658 14H29.408L26.8064 4.49023H28.8895L30.4275 10.9854L32.3787 4.49023H33.9871L35.9646 11.0557ZM53.3506 8.57715H48.2002V14H45.9766V1.20312H54.1064V2.99609H48.2002V6.80176H53.3506V8.57715ZM58.0885 14H55.9527V0.5H58.0885V14ZM60.1721 9.15723C60.1721 8.22559 60.3566 7.3877 60.7258 6.64355C61.0949 5.89355 61.6135 5.31934 62.2814 4.9209C62.9494 4.5166 63.717 4.31445 64.5842 4.31445C65.8674 4.31445 66.9074 4.72754 67.7043 5.55371C68.507 6.37988 68.9406 7.47559 69.0051 8.84082L69.0139 9.3418C69.0139 10.2793 68.8322 11.1172 68.4689 11.8555C68.1115 12.5938 67.5959 13.165 66.9221 13.5693C66.2541 13.9736 65.4807 14.1758 64.6018 14.1758C63.26 14.1758 62.1848 13.7305 61.3762 12.8398C60.5734 11.9434 60.1721 10.751 60.1721 9.2627V9.15723ZM62.3078 9.3418C62.3078 10.3203 62.51 11.0879 62.9143 11.6445C63.3186 12.1953 63.8811 12.4707 64.6018 12.4707C65.3225 12.4707 65.882 12.1895 66.2805 11.627C66.6848 11.0645 66.8869 10.2412 66.8869 9.15723C66.8869 8.19629 66.6789 7.43457 66.2629 6.87207C65.8527 6.30957 65.2932 6.02832 64.5842 6.02832C63.8869 6.02832 63.3332 6.30664 62.923 6.86328C62.5129 7.41406 62.3078 8.24023 62.3078 9.3418ZM70.5701 9.15723C70.5701 8.22559 70.7547 7.3877 71.1238 6.64355C71.493 5.89355 72.0115 5.31934 72.6795 4.9209C73.3475 4.5166 74.115 4.31445 74.9822 4.31445C76.2654 4.31445 77.3055 4.72754 78.1023 5.55371C78.9051 6.37988 79.3387 7.47559 79.4031 8.84082L79.4119 9.3418C79.4119 10.2793 79.2303 11.1172 78.867 11.8555C78.5096 12.5938 77.9939 13.165 77.3201 13.5693C76.6521 13.9736 75.8787 14.1758 74.9998 14.1758C73.658 14.1758 72.5828 13.7305 71.7742 12.8398C70.9715 11.9434 70.5701 10.751 70.5701 9.2627V9.15723ZM72.7059 9.3418C72.7059 10.3203 72.908 11.0879 73.3123 11.6445C73.7166 12.1953 74.2791 12.4707 74.9998 12.4707C75.7205 12.4707 76.2801 12.1895 76.6785 11.627C77.0828 11.0645 77.285 10.2412 77.285 9.15723C77.285 8.19629 77.077 7.43457 76.6609 6.87207C76.2508 6.30957 75.6912 6.02832 74.9822 6.02832C74.285 6.02832 73.7312 6.30664 73.3211 6.86328C72.9109 7.41406 72.7059 8.24023 72.7059 9.3418ZM86.3471 6.44141C86.0658 6.39453 85.7758 6.37109 85.477 6.37109C84.4984 6.37109 83.8393 6.74609 83.4994 7.49609V14H81.3637V4.49023H83.4027L83.4555 5.55371C83.9711 4.72754 84.6859 4.31445 85.6 4.31445C85.9047 4.31445 86.1566 4.35547 86.3559 4.4375L86.3471 6.44141ZM94.9088 9.24512V14H92.6852V1.20312H97.5807C99.0104 1.20312 100.144 1.5752 100.982 2.31934C101.826 3.06348 102.248 4.04785 102.248 5.27246C102.248 6.52637 101.835 7.50195 101.008 8.19922C100.188 8.89648 99.0367 9.24512 97.5543 9.24512H94.9088ZM94.9088 7.46094H97.5807C98.3717 7.46094 98.9752 7.27637 99.3912 6.90723C99.8072 6.53223 100.015 5.99316 100.015 5.29004C100.015 4.59863 99.8043 4.04785 99.3824 3.6377C98.9605 3.22168 98.3805 3.00781 97.6422 2.99609H94.9088V7.46094ZM106.414 14H104.279V0.5H106.414V14ZM114.58 14C114.486 13.8184 114.404 13.5225 114.334 13.1123C113.654 13.8213 112.822 14.1758 111.838 14.1758C110.883 14.1758 110.103 13.9033 109.5 13.3584C108.896 12.8135 108.595 12.1396 108.595 11.3369C108.595 10.3232 108.97 9.54688 109.72 9.00781C110.475 8.46289 111.554 8.19043 112.954 8.19043H114.263V7.56641C114.263 7.07422 114.126 6.68164 113.85 6.38867C113.575 6.08984 113.156 5.94043 112.594 5.94043C112.107 5.94043 111.709 6.06348 111.398 6.30957C111.088 6.5498 110.932 6.85742 110.932 7.23242H108.797C108.797 6.71094 108.97 6.22461 109.315 5.77344C109.661 5.31641 110.13 4.95898 110.721 4.70117C111.319 4.44336 111.984 4.31445 112.717 4.31445C113.83 4.31445 114.718 4.5957 115.38 5.1582C116.042 5.71484 116.382 6.5 116.399 7.51367V11.8027C116.399 12.6582 116.519 13.3408 116.76 13.8506V14H114.58ZM112.233 12.4619C112.655 12.4619 113.051 12.3594 113.42 12.1543C113.795 11.9492 114.076 11.6738 114.263 11.3281V9.53516H113.112C112.321 9.53516 111.726 9.67285 111.328 9.94824C110.929 10.2236 110.73 10.6133 110.73 11.1172C110.73 11.5273 110.865 11.8555 111.135 12.1016C111.41 12.3418 111.776 12.4619 112.233 12.4619ZM120.768 4.49023L120.829 5.58887C121.533 4.73926 122.455 4.31445 123.598 4.31445C125.579 4.31445 126.586 5.44824 126.621 7.71582V14H124.486V7.83887C124.486 7.23535 124.354 6.79004 124.09 6.50293C123.832 6.20996 123.408 6.06348 122.816 6.06348C121.954 6.06348 121.313 6.45312 120.891 7.23242V14H118.755V4.49023H120.768Z" fill="#203A6F"/>
</svg>
