<svg width="143" height="15" viewBox="0 0 143 15" fill="none" xmlns="http://www.w3.org/2000/svg">
<path d="M6.22676 11.2139L9.47871 1.20312H11.9221L7.3166 14H5.16328L0.575394 1.20312H3.00996L6.22676 11.2139ZM15.5877 14H13.452V4.49023H15.5877V14ZM13.3201 2.02051C13.3201 1.69238 13.4227 1.41992 13.6277 1.20312C13.8387 0.986328 14.1375 0.87793 14.5242 0.87793C14.9109 0.87793 15.2098 0.986328 15.4207 1.20312C15.6316 1.41992 15.7371 1.69238 15.7371 2.02051C15.7371 2.34277 15.6316 2.6123 15.4207 2.8291C15.2098 3.04004 14.9109 3.14551 14.5242 3.14551C14.1375 3.14551 13.8387 3.04004 13.6277 2.8291C13.4227 2.6123 13.3201 2.34277 13.3201 2.02051ZM22.2592 14.1758C20.9057 14.1758 19.807 13.751 18.9633 12.9014C18.1254 12.0459 17.7064 10.9092 17.7064 9.49121V9.22754C17.7064 8.27832 17.8881 7.43164 18.2514 6.6875C18.6205 5.9375 19.1361 5.35449 19.7982 4.93848C20.4604 4.52246 21.1986 4.31445 22.0131 4.31445C23.308 4.31445 24.307 4.72754 25.0102 5.55371C25.7191 6.37988 26.0736 7.54883 26.0736 9.06055V9.92188H19.8598C19.9242 10.707 20.185 11.3281 20.642 11.7852C21.1049 12.2422 21.685 12.4707 22.3822 12.4707C23.3607 12.4707 24.1576 12.0752 24.7729 11.2842L25.9242 12.3828C25.5434 12.9512 25.0336 13.3936 24.3949 13.71C23.7621 14.0205 23.0502 14.1758 22.2592 14.1758ZM22.0043 6.02832C21.4184 6.02832 20.9438 6.2334 20.5805 6.64355C20.223 7.05371 19.9945 7.625 19.8949 8.35742H23.9643V8.19922C23.9174 7.48438 23.727 6.94531 23.393 6.58203C23.059 6.21289 22.5961 6.02832 22.0043 6.02832ZM36.2432 11.0557L37.7549 4.49023H39.8379L37.2451 14H35.4873L33.4482 7.46973L31.4443 14H29.6865L27.085 4.49023H29.168L30.7061 10.9854L32.6572 4.49023H34.2656L36.2432 11.0557ZM56.0197 9.83398C55.8908 11.1992 55.3869 12.2656 54.508 13.0332C53.6291 13.7949 52.4602 14.1758 51.0012 14.1758C49.9816 14.1758 49.0822 13.9355 48.3029 13.4551C47.5295 12.9688 46.9318 12.2803 46.51 11.3896C46.0881 10.499 45.8684 9.46484 45.8508 8.28711V7.0918C45.8508 5.88477 46.0647 4.82129 46.4924 3.90137C46.9201 2.98145 47.5324 2.27246 48.3293 1.77441C49.132 1.27637 50.0578 1.02734 51.1066 1.02734C52.5188 1.02734 53.6555 1.41113 54.5168 2.17871C55.3781 2.94629 55.8791 4.03027 56.0197 5.43066H53.8049C53.6994 4.51074 53.4299 3.84863 52.9963 3.44434C52.5686 3.03418 51.9387 2.8291 51.1066 2.8291C50.1398 2.8291 49.3957 3.18359 48.8742 3.89258C48.3586 4.5957 48.0949 5.62988 48.0832 6.99512V8.12891C48.0832 9.51172 48.3293 10.5664 48.8215 11.293C49.3195 12.0195 50.0461 12.3828 51.0012 12.3828C51.8742 12.3828 52.5305 12.1865 52.9699 11.7939C53.4094 11.4014 53.6877 10.748 53.8049 9.83398H56.0197ZM57.5584 9.15723C57.5584 8.22559 57.743 7.3877 58.1121 6.64355C58.4813 5.89355 58.9998 5.31934 59.6678 4.9209C60.3357 4.5166 61.1033 4.31445 61.9705 4.31445C63.2537 4.31445 64.2938 4.72754 65.0906 5.55371C65.8934 6.37988 66.327 7.47559 66.3914 8.84082L66.4002 9.3418C66.4002 10.2793 66.2186 11.1172 65.8553 11.8555C65.4979 12.5938 64.9822 13.165 64.3084 13.5693C63.6404 13.9736 62.867 14.1758 61.9881 14.1758C60.6463 14.1758 59.5711 13.7305 58.7625 12.8398C57.9598 11.9434 57.5584 10.751 57.5584 9.2627V9.15723ZM59.6941 9.3418C59.6941 10.3203 59.8963 11.0879 60.3006 11.6445C60.7049 12.1953 61.2674 12.4707 61.9881 12.4707C62.7088 12.4707 63.2684 12.1895 63.6668 11.627C64.0711 11.0645 64.2732 10.2412 64.2732 9.15723C64.2732 8.19629 64.0652 7.43457 63.6492 6.87207C63.2391 6.30957 62.6795 6.02832 61.9705 6.02832C61.2732 6.02832 60.7195 6.30664 60.3094 6.86328C59.8992 7.41406 59.6941 8.24023 59.6941 9.3418ZM70.3383 4.49023L70.3998 5.58887C71.1029 4.73926 72.0258 4.31445 73.1684 4.31445C75.1488 4.31445 76.1566 5.44824 76.1918 7.71582V14H74.0561V7.83887C74.0561 7.23535 73.9242 6.79004 73.6606 6.50293C73.4027 6.20996 72.9779 6.06348 72.3861 6.06348C71.5248 6.06348 70.8832 6.45312 70.4613 7.23242V14H68.3256V4.49023H70.3383ZM83.8564 11.416C83.8564 11.0352 83.6982 10.7451 83.3818 10.5459C83.0713 10.3467 82.5527 10.1709 81.8262 10.0186C81.0996 9.86621 80.4932 9.67285 80.0068 9.43848C78.9404 8.92285 78.4072 8.17578 78.4072 7.19727C78.4072 6.37695 78.7529 5.69141 79.4443 5.14062C80.1357 4.58984 81.0146 4.31445 82.0811 4.31445C83.2178 4.31445 84.1348 4.5957 84.832 5.1582C85.5352 5.7207 85.8867 6.4502 85.8867 7.34668H83.751C83.751 6.93652 83.5986 6.59668 83.2939 6.32715C82.9893 6.05176 82.585 5.91406 82.0811 5.91406C81.6123 5.91406 81.2285 6.02246 80.9297 6.23926C80.6367 6.45605 80.4902 6.74609 80.4902 7.10938C80.4902 7.4375 80.6279 7.69238 80.9033 7.87402C81.1787 8.05566 81.7354 8.24023 82.5732 8.42773C83.4111 8.60938 84.0674 8.8291 84.542 9.08691C85.0225 9.33887 85.377 9.64355 85.6055 10.001C85.8398 10.3584 85.957 10.792 85.957 11.3018C85.957 12.1572 85.6025 12.8516 84.8936 13.3848C84.1846 13.9121 83.2559 14.1758 82.1074 14.1758C81.3281 14.1758 80.6338 14.0352 80.0244 13.7539C79.415 13.4727 78.9404 13.0859 78.6006 12.5938C78.2607 12.1016 78.0908 11.5713 78.0908 11.0029H80.165C80.1943 11.5068 80.3848 11.8965 80.7363 12.1719C81.0879 12.4414 81.5537 12.5762 82.1338 12.5762C82.6963 12.5762 83.124 12.4707 83.417 12.2598C83.71 12.043 83.8564 11.7617 83.8564 11.416ZM93.7359 13.0684C93.109 13.8066 92.2184 14.1758 91.0641 14.1758C90.0328 14.1758 89.2506 13.874 88.7174 13.2705C88.19 12.667 87.9264 11.7939 87.9264 10.6514V4.49023H90.0621V10.625C90.0621 11.832 90.5631 12.4355 91.565 12.4355C92.6021 12.4355 93.3023 12.0635 93.6656 11.3193V4.49023H95.8014V14H93.7887L93.7359 13.0684ZM100.399 14H98.2629V0.5H100.399V14ZM105.558 2.17871V4.49023H107.237V6.07227H105.558V11.3809C105.558 11.7441 105.629 12.0078 105.769 12.1719C105.916 12.3301 106.174 12.4092 106.543 12.4092C106.789 12.4092 107.038 12.3799 107.29 12.3213V13.9736C106.804 14.1084 106.335 14.1758 105.884 14.1758C104.243 14.1758 103.423 13.2705 103.423 11.46V6.07227H101.858V4.49023H103.423V2.17871H105.558ZM114.708 14C114.615 13.8184 114.533 13.5225 114.462 13.1123C113.783 13.8213 112.951 14.1758 111.966 14.1758C111.011 14.1758 110.232 13.9033 109.628 13.3584C109.025 12.8135 108.723 12.1396 108.723 11.3369C108.723 10.3232 109.098 9.54688 109.848 9.00781C110.604 8.46289 111.682 8.19043 113.082 8.19043H114.392V7.56641C114.392 7.07422 114.254 6.68164 113.979 6.38867C113.704 6.08984 113.285 5.94043 112.722 5.94043C112.236 5.94043 111.837 6.06348 111.527 6.30957C111.216 6.5498 111.061 6.85742 111.061 7.23242H108.925C108.925 6.71094 109.098 6.22461 109.444 5.77344C109.789 5.31641 110.258 4.95898 110.85 4.70117C111.448 4.44336 112.113 4.31445 112.845 4.31445C113.958 4.31445 114.846 4.5957 115.508 5.1582C116.17 5.71484 116.51 6.5 116.528 7.51367V11.8027C116.528 12.6582 116.648 13.3408 116.888 13.8506V14H114.708ZM112.362 12.4619C112.784 12.4619 113.179 12.3594 113.548 12.1543C113.923 11.9492 114.204 11.6738 114.392 11.3281V9.53516H113.241C112.45 9.53516 111.855 9.67285 111.456 9.94824C111.058 10.2236 110.859 10.6133 110.859 11.1172C110.859 11.5273 110.994 11.8555 111.263 12.1016C111.538 12.3418 111.905 12.4619 112.362 12.4619ZM120.896 4.49023L120.958 5.58887C121.661 4.73926 122.584 4.31445 123.727 4.31445C125.707 4.31445 126.715 5.44824 126.75 7.71582V14H124.614V7.83887C124.614 7.23535 124.482 6.79004 124.219 6.50293C123.961 6.20996 123.536 6.06348 122.944 6.06348C122.083 6.06348 121.441 6.45312 121.02 7.23242V14H118.884V4.49023H120.896ZM131.76 2.17871V4.49023H133.439V6.07227H131.76V11.3809C131.76 11.7441 131.831 12.0078 131.971 12.1719C132.118 12.3301 132.376 12.4092 132.745 12.4092C132.991 12.4092 133.24 12.3799 133.492 12.3213V13.9736C133.005 14.1084 132.537 14.1758 132.086 14.1758C130.445 14.1758 129.625 13.2705 129.625 11.46V6.07227H128.06V4.49023H129.625V2.17871H131.76ZM140.559 11.416C140.559 11.0352 140.401 10.7451 140.084 10.5459C139.774 10.3467 139.255 10.1709 138.529 10.0186C137.802 9.86621 137.196 9.67285 136.709 9.43848C135.643 8.92285 135.11 8.17578 135.11 7.19727C135.11 6.37695 135.455 5.69141 136.147 5.14062C136.838 4.58984 137.717 4.31445 138.783 4.31445C139.92 4.31445 140.837 4.5957 141.534 5.1582C142.238 5.7207 142.589 6.4502 142.589 7.34668H140.453C140.453 6.93652 140.301 6.59668 139.996 6.32715C139.692 6.05176 139.287 5.91406 138.783 5.91406C138.315 5.91406 137.931 6.02246 137.632 6.23926C137.339 6.45605 137.193 6.74609 137.193 7.10938C137.193 7.4375 137.33 7.69238 137.606 7.87402C137.881 8.05566 138.438 8.24023 139.276 8.42773C140.113 8.60938 140.77 8.8291 141.244 9.08691C141.725 9.33887 142.079 9.64355 142.308 10.001C142.542 10.3584 142.659 10.792 142.659 11.3018C142.659 12.1572 142.305 12.8516 141.596 13.3848C140.887 13.9121 139.958 14.1758 138.81 14.1758C138.03 14.1758 137.336 14.0352 136.727 13.7539C136.117 13.4727 135.643 13.0859 135.303 12.5938C134.963 12.1016 134.793 11.5713 134.793 11.0029H136.867C136.897 11.5068 137.087 11.8965 137.439 12.1719C137.79 12.4414 138.256 12.5762 138.836 12.5762C139.399 12.5762 139.826 12.4707 140.119 12.2598C140.412 12.043 140.559 11.7617 140.559 11.416Z" fill="#1F3A6F"/>
</svg>
