<svg width="54" height="14" viewBox="0 0 54 14" fill="none" xmlns="http://www.w3.org/2000/svg">
<path d="M5.11289 8.83301L7.64219 1.04688H9.54258L5.96055 11H4.28574L0.717382 1.04688H2.61094L5.11289 8.83301ZM12.427 11H10.7658V3.60352H12.427V11ZM10.6633 1.68262C10.6633 1.42741 10.743 1.21549 10.9025 1.04688C11.0666 0.878255 11.299 0.793945 11.5998 0.793945C11.9006 0.793945 12.133 0.878255 12.2971 1.04688C12.4611 1.21549 12.5432 1.42741 12.5432 1.68262C12.5432 1.93327 12.4611 2.1429 12.2971 2.31152C12.133 2.47559 11.9006 2.55762 11.5998 2.55762C11.299 2.55762 11.0666 2.47559 10.9025 2.31152C10.743 2.1429 10.6633 1.93327 10.6633 1.68262ZM18.2645 5.12109C18.0457 5.08464 17.8201 5.06641 17.5877 5.06641C16.8266 5.06641 16.3139 5.35807 16.0496 5.94141V11H14.3885V3.60352H15.9744L16.0154 4.43066C16.4165 3.78809 16.9725 3.4668 17.6834 3.4668C17.9204 3.4668 18.1163 3.4987 18.2713 3.5625L18.2645 5.12109ZM18.9066 7.2334C18.9066 6.50879 19.0502 5.8571 19.3373 5.27832C19.6244 4.69499 20.0277 4.24837 20.5473 3.93848C21.0668 3.62402 21.6638 3.4668 22.3383 3.4668C23.3363 3.4668 24.1452 3.78809 24.765 4.43066C25.3894 5.07324 25.7266 5.92546 25.7768 6.9873L25.7836 7.37695C25.7836 8.10612 25.6423 8.75781 25.3598 9.33203C25.0818 9.90625 24.6807 10.3506 24.1566 10.665C23.6371 10.9795 23.0355 11.1367 22.352 11.1367C21.3083 11.1367 20.4721 10.7904 19.8432 10.0977C19.2188 9.40039 18.9066 8.47298 18.9066 7.31543V7.2334ZM20.5678 7.37695C20.5678 8.13802 20.725 8.73503 21.0395 9.16797C21.3539 9.59635 21.7914 9.81055 22.352 9.81055C22.9125 9.81055 23.3477 9.5918 23.6576 9.1543C23.9721 8.7168 24.1293 8.0765 24.1293 7.2334C24.1293 6.486 23.9675 5.89355 23.6439 5.45605C23.3249 5.01855 22.8897 4.7998 22.3383 4.7998C21.796 4.7998 21.3653 5.01628 21.0463 5.44922C20.7273 5.8776 20.5678 6.52018 20.5678 7.37695ZM29.1055 11H27.4443V0.5H29.1055V11ZM30.7594 7.2334C30.7594 6.50879 30.9029 5.8571 31.19 5.27832C31.4771 4.69499 31.8805 4.24837 32.4 3.93848C32.9195 3.62402 33.5165 3.4668 34.191 3.4668C35.1891 3.4668 35.998 3.78809 36.6178 4.43066C37.2421 5.07324 37.5794 5.92546 37.6295 6.9873L37.6363 7.37695C37.6363 8.10612 37.4951 8.75781 37.2125 9.33203C36.9345 9.90625 36.5335 10.3506 36.0094 10.665C35.4898 10.9795 34.8883 11.1367 34.2047 11.1367C33.1611 11.1367 32.3248 10.7904 31.6959 10.0977C31.0716 9.40039 30.7594 8.47298 30.7594 7.31543V7.2334ZM32.4205 7.37695C32.4205 8.13802 32.5777 8.73503 32.8922 9.16797C33.2066 9.59635 33.6441 9.81055 34.2047 9.81055C34.7652 9.81055 35.2005 9.5918 35.5104 9.1543C35.8248 8.7168 35.982 8.0765 35.982 7.2334C35.982 6.486 35.8202 5.89355 35.4967 5.45605C35.1777 5.01855 34.7424 4.7998 34.191 4.7998C33.6487 4.7998 33.218 5.01628 32.899 5.44922C32.58 5.8776 32.4205 6.52018 32.4205 7.37695ZM38.9006 7.24707C38.9006 6.09863 39.1695 5.18262 39.7072 4.49902C40.2495 3.81087 40.9673 3.4668 41.8605 3.4668C42.7036 3.4668 43.3667 3.76074 43.8498 4.34863L43.925 3.60352H45.4221V10.7744C45.4221 11.7451 45.119 12.5107 44.5129 13.0713C43.9113 13.6318 43.0979 13.9121 42.0725 13.9121C41.5301 13.9121 40.9992 13.7982 40.4797 13.5703C39.9647 13.347 39.5728 13.0531 39.3039 12.6885L40.09 11.6904C40.6005 12.2965 41.2294 12.5996 41.9768 12.5996C42.5282 12.5996 42.9634 12.4492 43.2824 12.1484C43.6014 11.8522 43.7609 11.4147 43.7609 10.8359V10.3369C43.2824 10.8701 42.6444 11.1367 41.8469 11.1367C40.981 11.1367 40.2723 10.7926 39.7209 10.1045C39.174 9.41634 38.9006 8.46387 38.9006 7.24707ZM40.5549 7.39062C40.5549 8.13346 40.7053 8.71908 41.0061 9.14746C41.3114 9.57129 41.7329 9.7832 42.2707 9.7832C42.9406 9.7832 43.4374 9.49609 43.7609 8.92188V5.66797C43.4465 5.10742 42.9543 4.82715 42.2844 4.82715C41.7375 4.82715 41.3114 5.04362 41.0061 5.47656C40.7053 5.90951 40.5549 6.54753 40.5549 7.39062ZM49.8719 8.62109L51.3758 3.60352H53.1463L50.2068 12.1211C49.7557 13.3652 48.99 13.9873 47.91 13.9873C47.6684 13.9873 47.4018 13.9463 47.1102 13.8643V12.5791L47.4246 12.5996C47.8439 12.5996 48.1583 12.5221 48.368 12.3672C48.5822 12.2168 48.7508 11.9616 48.8738 11.6016L49.1131 10.9658L46.5154 3.60352H48.3064L49.8719 8.62109Z" fill="#1F3A6F"/>
</svg>
