<svg width="77" height="13" viewBox="0 0 77 13" fill="none" xmlns="http://www.w3.org/2000/svg">
<path d="M4.40125 5.45C4.12125 5.45 3.88792 5.54333 3.70125 5.73C3.52392 5.90733 3.43525 6.12667 3.43525 6.388C3.43525 6.64933 3.50992 6.87333 3.65925 7.06C3.81792 7.23733 4.04658 7.326 4.34525 7.326C4.62525 7.326 4.84925 7.242 5.01725 7.074C5.18525 6.906 5.26925 6.69133 5.26925 6.43C5.26925 6.15 5.18992 5.91667 5.03125 5.73C4.88192 5.54333 4.67192 5.45 4.40125 5.45ZM6.10925 6.472C6.10925 6.976 5.94125 7.37733 5.60525 7.676C5.27858 7.96533 4.85858 8.11 4.34525 8.11C3.84125 8.11 3.42592 7.956 3.09925 7.648C2.77258 7.34 2.60925 6.934 2.60925 6.43C2.60925 5.94467 2.77725 5.534 3.11325 5.198C3.44925 4.862 3.87392 4.68 4.38725 4.652C4.80725 4.624 5.17592 4.64733 5.49325 4.722C5.78258 4.78733 6.06725 4.918 6.34725 5.114C6.68325 5.35667 6.94458 5.646 7.13125 5.982C7.34592 6.38333 7.44392 6.85933 7.42525 7.41C7.40658 7.89533 7.26658 8.31067 7.00525 8.656C6.77192 8.964 6.51992 9.21133 6.24925 9.398C5.92258 9.63133 5.55392 9.79933 5.14325 9.902C4.89125 9.96733 4.49458 10.0047 3.95325 10.014C3.45858 10.0233 2.98258 9.91133 2.52525 9.678C2.03992 9.43533 1.65725 9.12733 1.37725 8.754C1.10658 8.38067 0.910584 8.00733 0.789251 7.634C0.677251 7.25133 0.621251 6.84533 0.621251 6.416C0.621251 5.97733 0.695917 5.55733 0.845251 5.156C0.966584 4.82 1.16725 4.47933 1.44725 4.134C1.68992 3.826 1.96525 3.58333 2.27325 3.406C2.52525 3.25667 2.76792 3.14467 3.00125 3.07C3.40258 2.93933 3.78992 2.874 4.16325 2.874C4.80725 2.874 5.38592 3 5.89925 3.252C6.42192 3.49467 6.78125 3.91467 6.97725 4.512H6.12325C5.95525 4.19467 5.72658 3.97067 5.43725 3.84C5.14792 3.7 4.84925 3.62067 4.54125 3.602C4.24258 3.58333 3.99992 3.588 3.81325 3.616C3.47725 3.672 3.18792 3.76533 2.94525 3.896C2.57192 4.11067 2.25925 4.39067 2.00725 4.736C1.64325 5.24933 1.45658 5.79067 1.44725 6.36C1.43792 6.77067 1.48458 7.13933 1.58725 7.466C1.70858 7.84867 1.88592 8.15667 2.11925 8.39C2.43658 8.70733 2.74458 8.93133 3.04325 9.062C3.35125 9.19267 3.69192 9.258 4.06525 9.258C4.44792 9.258 4.80258 9.202 5.12925 9.09C5.32525 9.02467 5.50258 8.936 5.66125 8.824C5.86658 8.684 6.07192 8.488 6.27725 8.236C6.48258 7.97467 6.58992 7.67133 6.59925 7.326C6.60858 6.906 6.55258 6.57467 6.43125 6.332C6.31925 6.08933 6.16992 5.87467 5.98325 5.688C5.93658 5.64133 5.85725 5.58067 5.74525 5.506C5.79192 5.54333 5.85725 5.62267 5.94125 5.744C5.99725 5.83733 6.03925 5.94467 6.06725 6.066C6.09525 6.29 6.10925 6.42533 6.10925 6.472ZM12.0571 5.45C11.7771 5.45 11.5438 5.54333 11.3571 5.73C11.1798 5.90733 11.0911 6.12667 11.0911 6.388C11.0911 6.64933 11.1658 6.87333 11.3151 7.06C11.4738 7.23733 11.7024 7.326 12.0011 7.326C12.2811 7.326 12.5051 7.242 12.6731 7.074C12.8411 6.906 12.9251 6.69133 12.9251 6.43C12.9251 6.15 12.8458 5.91667 12.6871 5.73C12.5378 5.54333 12.3278 5.45 12.0571 5.45ZM13.7651 6.472C13.7651 6.976 13.5971 7.37733 13.2611 7.676C12.9344 7.96533 12.5144 8.11 12.0011 8.11C11.4971 8.11 11.0818 7.956 10.7551 7.648C10.4284 7.34 10.2651 6.934 10.2651 6.43C10.2651 5.94467 10.4331 5.534 10.7691 5.198C11.1051 4.862 11.5298 4.68 12.0431 4.652C12.4631 4.624 12.8318 4.64733 13.1491 4.722C13.4384 4.78733 13.7231 4.918 14.0031 5.114C14.3391 5.35667 14.6004 5.646 14.7871 5.982C15.0018 6.38333 15.0998 6.85933 15.0811 7.41C15.0624 7.89533 14.9224 8.31067 14.6611 8.656C14.4278 8.964 14.1758 9.21133 13.9051 9.398C13.5784 9.63133 13.2098 9.79933 12.7991 9.902C12.5471 9.96733 12.1504 10.0047 11.6091 10.014C11.1144 10.0233 10.6384 9.91133 10.1811 9.678C9.69578 9.43533 9.31311 9.12733 9.03311 8.754C8.76244 8.38067 8.56644 8.00733 8.44511 7.634C8.33311 7.25133 8.27711 6.84533 8.27711 6.416C8.27711 5.97733 8.35178 5.55733 8.50111 5.156C8.62244 4.82 8.82311 4.47933 9.10311 4.134C9.34578 3.826 9.62111 3.58333 9.92911 3.406C10.1811 3.25667 10.4238 3.14467 10.6571 3.07C11.0584 2.93933 11.4458 2.874 11.8191 2.874C12.4631 2.874 13.0418 3 13.5551 3.252C14.0778 3.49467 14.4371 3.91467 14.6331 4.512H13.7791C13.6111 4.19467 13.3824 3.97067 13.0931 3.84C12.8038 3.7 12.5051 3.62067 12.1971 3.602C11.8984 3.58333 11.6558 3.588 11.4691 3.616C11.1331 3.672 10.8438 3.76533 10.6011 3.896C10.2278 4.11067 9.91511 4.39067 9.66311 4.736C9.29911 5.24933 9.11244 5.79067 9.10311 6.36C9.09378 6.77067 9.14044 7.13933 9.24311 7.466C9.36444 7.84867 9.54178 8.15667 9.77511 8.39C10.0924 8.70733 10.4004 8.93133 10.6991 9.062C11.0071 9.19267 11.3478 9.258 11.7211 9.258C12.1038 9.258 12.4584 9.202 12.7851 9.09C12.9811 9.02467 13.1584 8.936 13.3171 8.824C13.5224 8.684 13.7278 8.488 13.9331 8.236C14.1384 7.97467 14.2458 7.67133 14.2551 7.326C14.2644 6.906 14.2084 6.57467 14.0871 6.332C13.9751 6.08933 13.8258 5.87467 13.6391 5.688C13.5924 5.64133 13.5131 5.58067 13.4011 5.506C13.4478 5.54333 13.5131 5.62267 13.5971 5.744C13.6531 5.83733 13.6951 5.94467 13.7231 6.066C13.7511 6.29 13.7651 6.42533 13.7651 6.472ZM23.465 5.688C23.5116 4.53067 23.185 3.518 22.485 2.65C21.785 1.77267 20.903 1.35733 19.839 1.404C19.1296 1.432 18.5976 1.52533 18.243 1.684C17.7296 1.908 17.3096 2.25333 16.983 2.72H16.129C16.7076 1.35733 17.9256 0.676 19.783 0.676C21.2483 0.676 22.3636 1.16133 23.129 2.132C23.9036 3.09333 24.291 4.22267 24.291 5.52C24.291 6.88267 23.9363 7.96067 23.227 8.754C22.4896 9.58467 21.463 9.99533 20.147 9.986C18.663 9.96733 17.5803 9.65467 16.899 9.048C16.2643 8.488 15.947 7.802 15.947 6.99C15.947 6.08467 16.3343 5.43133 17.109 5.03C17.557 4.79667 18.0843 4.68 18.691 4.68H19.671C19.6523 4.32533 19.531 4.05467 19.307 3.868C19.083 3.672 18.803 3.574 18.467 3.574C18.1216 3.574 17.8323 3.66733 17.599 3.854C17.3656 4.04067 17.249 4.316 17.249 4.68H16.423C16.4136 4.10133 16.619 3.644 17.039 3.308C17.4123 3.00933 17.8883 2.86 18.467 2.86C19.8576 2.86 20.5623 3.69533 20.581 5.366H18.901C18.201 5.366 17.6876 5.51067 17.361 5.8C16.969 6.14533 16.787 6.56067 16.815 7.046C16.8616 7.82067 17.221 8.39933 17.893 8.782C18.4436 9.09 19.1716 9.244 20.077 9.244C21.113 9.244 21.925 8.93133 22.513 8.306C23.101 7.67133 23.4183 6.79867 23.465 5.688ZM28.9548 3.602C28.1428 3.59267 27.4474 3.868 26.8688 4.428C26.2901 4.988 25.9961 5.66 25.9868 6.444C25.9774 7.24667 26.2714 7.928 26.8688 8.488C27.4008 8.992 28.1101 9.24867 28.9968 9.258C29.7901 9.26733 30.4668 9.006 31.0268 8.474C31.5961 7.93267 31.8854 7.256 31.8948 6.444C31.9041 5.64133 31.6148 4.96933 31.0268 4.428C30.4481 3.88667 29.7574 3.61133 28.9548 3.602ZM32.7068 6.416C32.7161 7.48933 32.3614 8.35733 31.6428 9.02C30.9334 9.67333 30.0374 10 28.9548 10C27.8721 10 26.9714 9.67333 26.2528 9.02C25.5341 8.36667 25.1748 7.508 25.1748 6.444C25.1748 5.8 25.3288 5.226 25.6368 4.722C25.6368 4.71267 25.8374 4.456 26.2388 3.952C26.3414 3.82133 26.7474 3.53667 27.4568 3.098C27.8488 2.86467 28.2454 2.63133 28.6468 2.398C29.1041 2.09933 29.4308 1.81 29.6268 1.53C29.8228 1.25 29.9674 0.983999 30.0608 0.731999H30.9428C30.8588 1.096 30.6814 1.46467 30.4108 1.838C30.1214 2.23933 29.7294 2.58467 29.2348 2.874C29.5054 2.91133 29.7014 2.93933 29.8228 2.958C30.0188 3.00467 30.2428 3.07467 30.4948 3.168C31.1668 3.42 31.6988 3.84467 32.0908 4.442C32.4921 5.03933 32.6974 5.69733 32.7068 6.416ZM36.1732 3.602C36.5186 3.602 36.7566 3.70933 36.8872 3.924C37.0272 4.13867 37.0972 4.40467 37.0972 4.722H33.2472V5.394H34.7592C34.0312 5.77667 33.6672 6.43467 33.6672 7.368C33.6672 8.04933 33.8539 8.642 34.2272 9.146C34.5166 9.538 34.8946 9.804 35.3612 9.944C35.6226 10.0187 35.9446 10.0467 36.3272 10.028C36.9526 9.99067 37.4239 9.81333 37.7412 9.496C37.8626 9.37467 37.9606 9.22533 38.0352 9.048C38.1099 9.20667 38.2219 9.36533 38.3712 9.524C38.6979 9.86 39.1599 10.028 39.7572 10.028C40.3266 10.028 40.7932 9.92533 41.1572 9.72C41.5306 9.50533 41.8292 9.188 42.0532 8.768C42.2866 8.33867 42.4032 7.872 42.4032 7.368C42.4032 6.612 42.2072 6.01 41.8152 5.562C41.4886 5.18867 41.0826 4.93667 40.5972 4.806C40.3919 4.75 40.1399 4.722 39.8412 4.722H38.9732C38.9732 4.39533 39.0386 4.12933 39.1692 3.924C39.3092 3.71867 39.5519 3.61133 39.8972 3.602C40.2799 3.58333 40.5412 3.686 40.6812 3.91C40.8212 4.12467 40.8912 4.386 40.8912 4.694H41.7032C41.7032 4.162 41.5866 3.74667 41.3532 3.448C41.0546 3.06533 40.5692 2.874 39.8972 2.874C39.4306 2.874 39.0386 3.00933 38.7212 3.28C38.4132 3.55067 38.2312 3.91467 38.1752 4.372C38.1566 4.53067 38.1472 4.75 38.1472 5.03V5.394H39.5892C39.7946 5.394 39.9392 5.39867 40.0232 5.408C40.4059 5.408 40.7512 5.57133 41.0592 5.898C41.4046 6.262 41.5819 6.71467 41.5912 7.256C41.6006 7.63867 41.5212 8.00267 41.3532 8.348C41.1946 8.684 40.9799 8.92667 40.7092 9.076C40.4759 9.20667 40.2566 9.272 40.0512 9.272C39.5286 9.272 39.1226 9.12267 38.8332 8.824C38.5532 8.516 38.4132 8.18467 38.4132 7.83V7.06H37.6572V7.886C37.6572 8.194 37.5172 8.502 37.2372 8.81C36.9666 9.10867 36.5652 9.258 36.0332 9.258C35.5572 9.258 35.1792 9.06667 34.8992 8.684C34.6379 8.32933 34.5072 7.858 34.5072 7.27C34.5072 7.018 34.5679 6.766 34.6892 6.514C34.8106 6.25267 34.9599 6.05667 35.1372 5.926C35.6319 5.57133 36.1826 5.394 36.7892 5.394H37.9232V5.016C37.9232 4.624 37.8906 4.316 37.8252 4.092C37.5919 3.28933 37.0412 2.88333 36.1732 2.874C35.7719 2.86467 35.4732 2.91133 35.2772 3.014C34.6706 3.31267 34.3672 3.87267 34.3672 4.694H35.1792C35.1792 3.966 35.5106 3.602 36.1732 3.602ZM47.0282 5.45C46.7482 5.45 46.5149 5.54333 46.3282 5.73C46.1509 5.90733 46.0622 6.12667 46.0622 6.388C46.0622 6.64933 46.1369 6.87333 46.2862 7.06C46.4449 7.23733 46.6735 7.326 46.9722 7.326C47.2522 7.326 47.4762 7.242 47.6442 7.074C47.8122 6.906 47.8962 6.69133 47.8962 6.43C47.8962 6.15 47.8169 5.91667 47.6582 5.73C47.5089 5.54333 47.2989 5.45 47.0282 5.45ZM48.7362 6.472C48.7362 6.976 48.5682 7.37733 48.2322 7.676C47.9055 7.96533 47.4855 8.11 46.9722 8.11C46.4682 8.11 46.0529 7.956 45.7262 7.648C45.3995 7.34 45.2362 6.934 45.2362 6.43C45.2362 5.94467 45.4042 5.534 45.7402 5.198C46.0762 4.862 46.5009 4.68 47.0142 4.652C47.4342 4.624 47.8029 4.64733 48.1202 4.722C48.4095 4.78733 48.6942 4.918 48.9742 5.114C49.3102 5.35667 49.5715 5.646 49.7582 5.982C49.9729 6.38333 50.0709 6.85933 50.0522 7.41C50.0335 7.89533 49.8935 8.31067 49.6322 8.656C49.3989 8.964 49.1469 9.21133 48.8762 9.398C48.5495 9.63133 48.1809 9.79933 47.7702 9.902C47.5182 9.96733 47.1215 10.0047 46.5802 10.014C46.0855 10.0233 45.6095 9.91133 45.1522 9.678C44.6669 9.43533 44.2842 9.12733 44.0042 8.754C43.7335 8.38067 43.5375 8.00733 43.4162 7.634C43.3042 7.25133 43.2482 6.84533 43.2482 6.416C43.2482 5.97733 43.3229 5.55733 43.4722 5.156C43.5935 4.82 43.7942 4.47933 44.0742 4.134C44.3169 3.826 44.5922 3.58333 44.9002 3.406C45.1522 3.25667 45.3949 3.14467 45.6282 3.07C46.0295 2.93933 46.4169 2.874 46.7902 2.874C47.4342 2.874 48.0129 3 48.5262 3.252C49.0489 3.49467 49.4082 3.91467 49.6042 4.512H48.7502C48.5822 4.19467 48.3535 3.97067 48.0642 3.84C47.7749 3.7 47.4762 3.62067 47.1682 3.602C46.8695 3.58333 46.6269 3.588 46.4402 3.616C46.1042 3.672 45.8149 3.76533 45.5722 3.896C45.1989 4.11067 44.8862 4.39067 44.6342 4.736C44.2702 5.24933 44.0835 5.79067 44.0742 6.36C44.0649 6.77067 44.1115 7.13933 44.2142 7.466C44.3355 7.84867 44.5129 8.15667 44.7462 8.39C45.0635 8.70733 45.3715 8.93133 45.6702 9.062C45.9782 9.19267 46.3189 9.258 46.6922 9.258C47.0749 9.258 47.4295 9.202 47.7562 9.09C47.9522 9.02467 48.1295 8.936 48.2882 8.824C48.4935 8.684 48.6989 8.488 48.9042 8.236C49.1095 7.97467 49.2169 7.67133 49.2262 7.326C49.2355 6.906 49.1795 6.57467 49.0582 6.332C48.9462 6.08933 48.7969 5.87467 48.6102 5.688C48.5635 5.64133 48.4842 5.58067 48.3722 5.506C48.4189 5.54333 48.4842 5.62267 48.5682 5.744C48.6242 5.83733 48.6662 5.94467 48.6942 6.066C48.7222 6.29 48.7362 6.42533 48.7362 6.472ZM55.1181 9.986C53.6341 9.96733 52.5514 9.65467 51.8701 9.048C51.2354 8.488 50.9181 7.802 50.9181 6.99C50.9181 6.08467 51.3054 5.43133 52.0801 5.03C52.5281 4.79667 53.0554 4.68 53.6621 4.68H54.6421C54.6234 4.32533 54.5021 4.05467 54.2781 3.868C54.0541 3.672 53.7741 3.574 53.4381 3.574C53.0927 3.574 52.8034 3.66733 52.5701 3.854C52.3367 4.04067 52.2201 4.316 52.2201 4.68H51.3941C51.3847 4.10133 51.5901 3.644 52.0101 3.308C52.3834 3.00933 52.8594 2.86 53.4381 2.86C54.8287 2.86 55.5334 3.69533 55.5521 5.366H53.8721C53.1721 5.366 52.6587 5.51067 52.3321 5.8C51.9401 6.14533 51.7581 6.56067 51.7861 7.046C51.8327 7.82067 52.1921 8.39933 52.8641 8.782C53.4147 9.09 54.1427 9.244 55.0481 9.244C56.0841 9.244 56.8961 8.93133 57.4841 8.306C58.0721 7.67133 58.3894 6.79867 58.4361 5.688C58.4827 4.68 58.1747 3.84467 57.5121 3.182C56.8867 2.55667 55.9907 2.23933 54.8241 2.23C53.4987 2.21133 52.3274 2.44933 51.3101 2.944V2.174C51.9727 1.95933 52.3041 1.782 52.3041 1.642C52.3041 1.614 52.2854 1.59067 52.2481 1.572C52.0521 1.45067 51.9541 1.278 51.9541 1.054C51.9541 0.829999 52.0941 0.629333 52.3741 0.451999C52.8594 0.153333 53.7134 0.00399935 54.9361 0.00399935C57.2227 0.00399935 58.4921 0.466 58.7441 1.39C58.7721 1.49267 58.7861 1.6 58.7861 1.712C58.7861 2.16933 58.6041 2.51 58.2401 2.734C58.9214 3.47133 59.2621 4.40933 59.2621 5.548C59.2621 6.892 58.9074 7.96067 58.1981 8.754C57.4607 9.58467 56.4341 9.99533 55.1181 9.986ZM53.0461 1.656C53.6061 1.56267 54.2034 1.516 54.8381 1.516C55.9674 1.516 56.8867 1.73533 57.5961 2.174C57.8854 2.118 57.9974 1.922 57.9321 1.586C57.8294 1.01667 56.8541 0.731999 55.0061 0.731999C53.9701 0.731999 53.3027 0.815999 53.0041 0.983999C52.9201 1.03067 52.8734 1.082 52.8641 1.138C52.8454 1.20333 52.8594 1.25933 52.9061 1.306C52.9621 1.34333 53.0134 1.38067 53.0601 1.418C53.1161 1.474 53.1114 1.55333 53.0461 1.656ZM61.7139 8.796C61.2192 8.44133 60.9672 7.96067 60.9579 7.354C60.9485 6.74733 61.2239 6.234 61.7839 5.814C62.0452 5.618 62.3065 5.49667 62.5679 5.45C62.7079 5.422 62.9739 5.408 63.3659 5.408H66.5999C66.5905 5.34267 66.5765 5.226 66.5579 5.058C66.4365 4.386 66.1612 3.85867 65.7319 3.476C65.3119 3.084 64.6539 2.888 63.7579 2.888C63.3565 2.888 63.0952 2.902 62.9739 2.93C62.5165 3.03267 62.2645 3.09333 62.2179 3.112C61.9005 3.24267 61.5925 3.49 61.2939 3.854C61.0232 4.18067 60.8879 4.484 60.8879 4.764H61.7279C61.7372 4.71733 61.7559 4.652 61.7839 4.568C61.9332 4.204 62.1572 3.952 62.4559 3.812C62.7639 3.672 63.2025 3.59733 63.7719 3.588C64.2665 3.588 64.6492 3.672 64.9199 3.84C65.1999 3.99867 65.4472 4.29267 65.6619 4.722H63.4079C62.5772 4.722 61.9939 4.82 61.6579 5.016C61.4152 5.156 61.2752 5.24 61.2379 5.268C61.1072 5.37067 60.9252 5.55267 60.6919 5.814C60.3279 6.234 60.1459 6.74733 60.1459 7.354C60.1459 8.09133 60.3839 8.67467 60.8599 9.104C61.2052 9.42133 61.5412 9.64067 61.8679 9.762C62.1199 9.85533 62.5259 9.93933 63.0859 10.014C62.7592 10.1353 62.5912 10.4107 62.5819 10.84C62.5725 11.092 62.6705 11.3253 62.8759 11.54C63.1092 11.8013 63.4685 11.988 63.9539 12.1C64.1965 12.156 64.5839 12.184 65.1159 12.184C65.8065 12.184 66.3992 12.0207 66.8939 11.694C67.2205 11.4793 67.4679 11.204 67.6359 10.868C67.7852 10.5787 67.8365 10.2613 67.7899 9.916H66.9639C67.0012 10.0187 67.0012 10.1587 66.9639 10.336C66.9265 10.5413 66.8472 10.6953 66.7259 10.798C66.4365 11.0407 66.2219 11.1947 66.0819 11.26C65.8205 11.3813 65.4379 11.4513 64.9339 11.47C63.9632 11.5073 63.4779 11.2553 63.4779 10.714C63.4779 10.378 63.7579 10.1493 64.3179 10.028C64.4205 10.028 64.5839 10.014 64.8079 9.986C65.7599 9.846 66.4552 9.53333 66.8939 9.048C67.0339 8.88933 67.1179 8.712 67.1459 8.516H66.2919C66.2545 8.77733 65.9185 8.992 65.2839 9.16C64.9199 9.25333 64.4205 9.30467 63.7859 9.314C62.9085 9.32333 62.2179 9.15067 61.7139 8.796ZM70.4011 3.056C69.6451 3.336 69.0618 3.77 68.6511 4.358C68.2218 4.98333 68.0071 5.79067 68.0071 6.78C68.0071 7.66667 68.2218 8.44133 68.6511 9.104C68.9218 9.51467 69.2905 9.79 69.7571 9.93C70.0465 10.014 70.3731 10.0467 70.7371 10.028C71.3625 9.99067 71.8338 9.81333 72.1511 9.496C72.2725 9.37467 72.3705 9.22533 72.4451 9.048C72.5198 9.20667 72.6318 9.36533 72.7811 9.524C73.1078 9.86 73.5698 10.028 74.1671 10.028C74.7365 10.028 75.2031 9.92533 75.5671 9.72C75.9405 9.50533 76.2391 9.188 76.4631 8.768C76.6965 8.33867 76.8131 7.872 76.8131 7.368C76.8131 6.612 76.6171 6.01 76.2251 5.562C75.8985 5.18867 75.4925 4.93667 75.0071 4.806C74.8018 4.75 74.5498 4.722 74.2511 4.722H73.0751C73.0751 4.37667 73.1545 4.11533 73.3131 3.938C73.5091 3.714 73.8405 3.602 74.3071 3.602C74.6991 3.602 74.9605 3.70933 75.0911 3.924C75.2311 4.12933 75.3011 4.386 75.3011 4.694H76.1131C76.1131 4.162 75.9965 3.74667 75.7631 3.448C75.4645 3.06533 74.9791 2.874 74.3071 2.874C73.2805 2.874 72.6225 3.27067 72.3331 4.064C72.2771 4.21333 72.2491 4.53533 72.2491 5.03V5.394H73.9991C74.2045 5.394 74.3491 5.39867 74.4331 5.408C74.8158 5.408 75.1611 5.57133 75.4691 5.898C75.8145 6.262 75.9918 6.71467 76.0011 7.256C76.0105 7.63867 75.9311 8.00267 75.7631 8.348C75.6045 8.684 75.3898 8.92667 75.1191 9.076C74.8858 9.20667 74.6665 9.272 74.4611 9.272C73.9385 9.272 73.5325 9.12267 73.2431 8.824C72.9631 8.516 72.8231 8.18467 72.8231 7.83V6.948H72.0671V7.886C72.0671 8.194 71.9178 8.51133 71.6191 8.838C71.3298 9.16467 70.9378 9.30467 70.4431 9.258C69.9858 9.22067 69.6171 9.01533 69.3371 8.642C69.0198 8.222 68.8518 7.648 68.8331 6.92C68.8238 6.388 68.8845 5.912 69.0151 5.492C69.2298 4.82933 69.6405 4.316 70.2471 3.952C70.6485 3.71867 71.2178 3.61133 71.9551 3.63V2.888C71.2271 2.888 70.7091 2.944 70.4011 3.056Z" fill="#1F3A6F"/>
</svg>
