<svg width="47" height="48" viewBox="0 0 47 48" fill="none" xmlns="http://www.w3.org/2000/svg">
<path fill-rule="evenodd" clip-rule="evenodd" d="M20.5858 29.4238L32.6603 44.9658C34.4711 43.2854 35.5865 40.9876 35.7866 38.5254C35.9867 36.0632 35.2571 33.6153 33.7415 31.6645C32.226 29.7138 30.0345 28.4016 27.5992 27.9868C25.164 27.5721 22.6617 28.0847 20.5858 29.4238Z" fill="#C5BDE1"/>
<path fill-rule="evenodd" clip-rule="evenodd" d="M24.2998 21.4729L33.5465 28.6853C35.2142 29.8674 37.27 30.369 39.2948 30.0877C40.3075 29.9677 41.2857 29.6453 42.1713 29.1396C43.0569 28.6339 43.8317 27.9553 44.4497 27.1442L44.889 26.5508C45.6244 25.5322 46.1077 24.3536 46.2993 23.1119C46.4908 21.8702 46.3851 20.6008 45.9908 19.4078C45.5129 17.9149 44.5571 16.6206 43.2708 15.7246L33.9857 8.50452L24.269 21.4729H24.2998Z" fill="#6C63FF"/>
<path fill-rule="evenodd" clip-rule="evenodd" d="M13.6894 3.13372L13.2501 3.64228C12.4971 4.6673 12.0035 5.8595 11.8116 7.11687C11.6197 8.37424 11.7352 9.65938 12.1483 10.8624C12.6179 12.3406 13.5464 13.6308 14.799 14.5456L23.3367 20.9566L32.984 7.91886L24.5079 1.50787C22.855 0.292588 20.788 -0.218608 18.7592 0.0860808C16.7303 0.39077 14.9047 1.48653 13.6817 3.13372H13.6894Z" fill="#C5BDE1"/>
<path fill-rule="evenodd" clip-rule="evenodd" d="M1.32248 32.8184L19.3611 25.2054C18.2308 23.001 16.309 21.3054 13.9809 20.4587C11.6529 19.6119 9.09079 19.6767 6.80847 20.6399C4.52615 21.6032 2.69238 23.3937 1.67493 25.6523C0.657477 27.911 0.531577 30.4708 1.32248 32.8184Z" fill="#6C63FF"/>
<path fill-rule="evenodd" clip-rule="evenodd" d="M30.9262 46.2936C28.8609 47.6317 26.3687 48.1461 23.9424 47.7348C21.5161 47.3236 19.3325 46.0168 17.8234 44.0729C16.3144 42.129 15.5899 39.6895 15.7931 37.237C15.9964 34.7845 17.1126 32.4976 18.9211 30.8286L30.9262 46.2936Z" fill="#6C63FF"/>
<path fill-rule="evenodd" clip-rule="evenodd" d="M18.9982 29.7183L18.4048 30.3039C17.2177 31.4305 16.3025 32.8123 15.7285 34.3449C15.1544 35.8775 14.9366 37.5206 15.0915 39.1498L14.6523 39.3656C12.3632 40.2737 9.82055 40.311 7.50585 39.4703C5.19115 38.6296 3.26507 36.9694 2.09229 34.8039L20.2157 27.214C20.3566 27.695 20.4546 28.1875 20.5085 28.6857C20.4391 28.6857 20.3621 28.7628 20.2157 28.8399L19.553 29.202L18.9674 29.7183H18.9982Z" fill="#C5BDE1"/>
</svg>
