<svg width="51" height="49" viewBox="0 0 51 49" fill="none" xmlns="http://www.w3.org/2000/svg">
<path fill-rule="evenodd" clip-rule="evenodd" d="M0.0742748 6.98141C-0.236063 9.01495 0.45807 10.1093 1.56059 10.338C2.65494 10.4196 3.6595 9.63562 4.05967 7.52859C4.45985 5.42156 2.8836 2.69385 2.8836 2.69385C2.8836 2.69385 0.433614 4.80088 0.0742748 6.98141Z" fill="#6C63FF"/>
<path fill-rule="evenodd" clip-rule="evenodd" d="M38.638 48.5514L37.4702 47.3754L39.8876 45.4317L34.1136 39.1841L41.3658 33.4102L47.1397 39.5761L49.5652 37.6242L50.7331 38.8737L38.638 48.5514Z" fill="#C5BDE1"/>
<path fill-rule="evenodd" clip-rule="evenodd" d="M43.0886 31.0665L42.5415 30.4376L40.8264 31.8505L18.3433 7.96263H18.2616L10.8462 6.54976L4.76188 0.0734982L4.68023 0L4.45154 0.775843L10.1438 7.10511L10.2989 14.4389L32.8557 38.3268L31.3774 39.5763L31.9246 40.197L41.3655 32.4712L43.0886 31.0665Z" fill="#C5BDE1"/>
<path fill-rule="evenodd" clip-rule="evenodd" d="M21.5437 12.5706L18.1054 15.2983L18.7343 15.9272L22.0908 13.1913L23.2587 14.4408L21.462 16.0007L22.0092 16.6295L23.8794 15.1431L25.1371 16.3927L23.177 17.9525L23.8059 18.4997L25.6761 17.0133L26.7704 18.1893L23.4956 20.9171L24.0345 21.5459L27.3993 18.81L28.5671 20.0596L26.6887 21.5459L27.2441 22.1666L29.1143 20.6067L30.3638 21.9379L28.4936 23.4161L29.0326 24.1185L30.911 22.5586L32.3892 24.1185L29.0326 26.7727L29.5798 27.4015L32.9364 24.6656L33.8756 25.6783L32.0789 27.0912L32.6995 27.7118L34.4227 26.3071L35.6722 27.5567L33.8756 28.9614L34.4962 29.582L36.2194 28.1773L40.115 32.3914L33.4835 37.7815L11.1555 14.1305L11.0004 7.41736L17.7951 8.66688L21.5437 12.5706Z" fill="#6C63FF"/>
</svg>
