<svg width="47" height="43" viewBox="0 0 47 43" fill="none" xmlns="http://www.w3.org/2000/svg">
<path fill-rule="evenodd" clip-rule="evenodd" d="M34.5954 0.0150955C31.5783 -0.00303862 28.6562 1.0693 26.367 3.0347C24.1023 4.90685 22.3963 4.90685 20.2297 3.0347C17.9199 1.11711 15.0109 0.0699858 12.0088 0.0754889C9.73057 0.0362999 7.48607 0.629308 5.52449 1.78867C3.5629 2.94803 1.96102 4.62838 0.896714 6.64312C-0.333773 9.16449 -0.190372 13.709 0.677763 16.3813C1.08804 17.8281 1.64451 19.2294 2.33855 20.5635C2.50099 20.5076 2.67289 20.4845 2.84432 20.4955H9.55539L13.1638 13.641C13.2638 13.4632 13.4097 13.3154 13.5864 13.2131C13.763 13.1109 13.9638 13.0579 14.1678 13.0598C14.3646 13.0875 14.5523 13.1606 14.7161 13.2733C14.8798 13.3859 15.0152 13.5351 15.1114 13.709L22.9096 31.6983L25.0686 26.2781C25.1656 26.0965 25.3121 25.9461 25.4912 25.8446C25.6703 25.743 25.8745 25.6944 26.0802 25.7043H39.7212C40.0002 25.7003 40.2702 25.8029 40.4761 25.9912C40.8309 25.5609 41.1933 25.0551 41.5632 24.5493C43.2341 22.5077 44.5717 20.2147 45.5264 17.7552C46.326 15.7276 46.7901 13.5833 46.9003 11.4065C46.9003 5.05028 41.4122 0 34.6332 0L34.5954 0.0150955Z" fill="#6C63FF"/>
<path fill-rule="evenodd" clip-rule="evenodd" d="M26.7972 27.6526L23.9135 34.726C23.8236 34.9188 23.6808 35.0822 23.5017 35.1971C23.3226 35.312 23.1147 35.3738 22.9019 35.3752C22.6992 35.3715 22.5022 35.3079 22.3356 35.1924C22.169 35.0768 22.0404 34.9146 21.9659 34.726L14.0243 16.4725L11.1406 21.8852C11.0681 22.0554 10.9471 22.2005 10.7928 22.3025C10.6384 22.4045 10.4575 22.4589 10.2725 22.4589H3.41797C3.49346 22.6023 3.56138 22.6778 3.63687 22.8212L5.4411 25.2747C5.94688 25.8484 6.45266 26.3542 6.9509 26.9354C13.0958 33.035 17.3459 37.6852 19.9427 40.584C20.3609 41.0771 20.8813 41.4733 21.4679 41.745C22.0546 42.0167 22.6933 42.1574 23.3398 42.1574C23.9863 42.1574 24.625 42.0167 25.2117 41.745C25.7983 41.4733 26.3187 41.0771 26.7368 40.584C29.2582 37.7683 33.229 33.4427 38.9284 27.6677L26.7972 27.6526Z" fill="#C5BDE1"/>
<path fill-rule="evenodd" clip-rule="evenodd" d="M30.1942 11.141C31.9229 11.141 33.2968 12.296 33.2968 13.6699C33.2968 13.8701 33.3763 14.0621 33.5179 14.2037C33.6595 14.3453 33.8515 14.4248 34.0517 14.4248C34.1584 14.433 34.2657 14.4199 34.3674 14.3863C34.469 14.3527 34.5629 14.2992 34.6437 14.229C34.7245 14.1587 34.7905 14.0731 34.8379 13.9771C34.8853 13.8812 34.9131 13.7767 34.9198 13.6699C34.9198 11.4052 32.7457 9.63117 30.1564 9.63117C30.0566 9.62506 29.9566 9.63882 29.8622 9.67167C29.7678 9.70451 29.6809 9.75578 29.6064 9.82249C29.532 9.88921 29.4715 9.97005 29.4286 10.0603C29.3856 10.1506 29.361 10.2485 29.3562 10.3483C29.3581 10.4557 29.3815 10.5616 29.4249 10.6599C29.4682 10.7582 29.5307 10.8468 29.6087 10.9206C29.6868 10.9944 29.7787 11.0519 29.8792 11.0898C29.9798 11.1276 30.0868 11.145 30.1942 11.141Z" fill="#C5BDE1"/>
<path fill-rule="evenodd" clip-rule="evenodd" d="M32.0669 8.60626C34.158 8.60626 35.8867 10.0481 35.8867 11.7768C35.8916 11.9057 35.9218 12.0324 35.9757 12.1496C36.0295 12.2669 36.106 12.3723 36.2006 12.4599C36.2953 12.5476 36.4063 12.6157 36.5273 12.6604C36.6483 12.7051 36.7769 12.7255 36.9058 12.7205C37.1761 12.7373 37.4424 12.6482 37.6482 12.4721C37.8539 12.2959 37.983 12.0465 38.008 11.7768C38.008 9.03656 35.3356 6.72656 32.0895 6.72656C31.8349 6.72932 31.5903 6.82664 31.4033 6.99963C31.2164 7.17262 31.1005 7.40893 31.078 7.66264C31.0819 7.7912 31.1112 7.91772 31.1643 8.03489C31.2173 8.15205 31.2931 8.25755 31.3871 8.34529C31.4812 8.43302 31.5917 8.50125 31.7122 8.54605C31.8328 8.59084 31.961 8.61131 32.0895 8.60626H32.0669Z" fill="#C5BDE1"/>
<path fill-rule="evenodd" clip-rule="evenodd" d="M33.9449 5.85483C36.8286 5.85483 39.282 7.80247 39.282 10.2559C39.2996 10.6257 39.4594 10.9744 39.7281 11.2291C39.9969 11.4837 40.3536 11.6246 40.7239 11.6223C41.0888 11.6075 41.4361 11.4608 41.7012 11.2096C41.9663 10.9584 42.1314 10.6195 42.1658 10.2559C42.1658 6.35306 38.4894 3.18248 33.9449 3.18248C33.7644 3.17229 33.5837 3.19782 33.4131 3.25761C33.2425 3.31739 33.0854 3.41025 32.9507 3.53087C32.8161 3.65149 32.7065 3.7975 32.6284 3.96053C32.5503 4.12356 32.5051 4.30039 32.4955 4.48091C32.4973 4.66724 32.5366 4.85129 32.6111 5.02211C32.6855 5.19293 32.7936 5.34702 32.9288 5.47521C33.0641 5.60341 33.2237 5.70308 33.3983 5.76829C33.5728 5.83351 33.7587 5.86294 33.9449 5.85483Z" fill="#C5BDE1"/>
</svg>
