<svg width="26" height="58" viewBox="0 0 26 58" fill="none" xmlns="http://www.w3.org/2000/svg">
<path fill-rule="evenodd" clip-rule="evenodd" d="M11.8042 23.1734H13.3076C13.7505 23.1648 14.1802 23.3249 14.5093 23.6213C14.8385 23.9178 15.0426 24.3283 15.0802 24.7696C15.04 25.2183 14.8381 25.6371 14.5119 25.9479C14.1858 26.2587 13.7577 26.4402 13.3076 26.4587H12.5281C12.5491 25.3239 12.3078 24.1996 11.8228 23.1734H11.8042Z" fill="#C5BDE1"/>
<path fill-rule="evenodd" clip-rule="evenodd" d="M2.93237 26.4567L3.19214 12.2671C4.62445 11.9273 6.07891 11.6886 7.54466 11.5525L10.8299 22.9023C11.4424 24.3315 11.8879 26.0112 11.6187 26.3638C11.6187 26.4567 11.6188 26.4567 11.5352 26.4567H2.93237Z" fill="#6C63FF"/>
<path fill-rule="evenodd" clip-rule="evenodd" d="M13.4551 0.0171261C14.2455 -0.0438477 15.04 0.0583869 15.7893 0.317501C16.5386 0.576616 17.2266 0.987069 17.8105 1.52333C18.3944 2.0596 18.8618 2.71024 19.1836 3.43479C19.5055 4.15935 19.6748 4.94232 19.6812 5.7351C19.6876 6.52788 19.5308 7.31353 19.2207 8.04317C18.9106 8.77281 18.4537 9.43084 17.8785 9.97643C17.3033 10.522 16.622 10.9435 15.877 11.2146C15.132 11.4858 14.3392 11.6008 13.5478 11.5525H18.5128C18.7819 11.5525 25.2504 11.4598 25.7886 16.7866V29.7791C25.7767 30.0229 25.7168 30.262 25.6123 30.4827C25.5079 30.7033 25.361 30.9012 25.1799 31.065C24.9989 31.2288 24.7874 31.3553 24.5574 31.4372C24.3275 31.5191 24.0835 31.5548 23.8397 31.5423C23.5875 31.5562 23.3352 31.5185 23.0981 31.4314C22.861 31.3444 22.6441 31.2099 22.4608 31.0361C22.2774 30.8624 22.1316 30.6531 22.032 30.4209C21.9324 30.1888 21.8811 29.9388 21.8815 29.6863V15.5802H20.9535V30.9298C20.9535 38.8181 21.0464 46.7063 21.399 54.6967C21.5754 58.6872 14.6615 58.6872 14.4852 54.6967C14.1232 47.5137 14.0304 40.3308 14.0304 33.1385H13.1024C13.0189 40.3308 12.9261 47.5137 12.6662 54.6967C12.3971 58.6872 5.47396 58.6872 5.65028 54.6967C6.09574 46.7156 6.09572 38.8181 6.09572 30.9298V27.2177H13.3716C13.7037 27.247 14.0383 27.2068 14.3541 27.0998C14.6699 26.9928 14.96 26.8212 15.2059 26.596C15.4518 26.3708 15.648 26.097 15.7824 25.7918C15.9167 25.4866 15.9862 25.1568 15.9862 24.8234C15.9862 24.4899 15.9167 24.1602 15.7824 23.855C15.648 23.5498 15.4518 23.2759 15.2059 23.0507C14.96 22.8256 14.6699 22.654 14.3541 22.547C14.0383 22.4399 13.7037 22.3998 13.3716 22.4291H11.599L8.40662 11.6082H13.4551C10.0028 11.5154 7.24658 9.03757 7.24658 5.83587C7.33286 4.25796 8.0284 2.77518 9.18659 1.70009C10.3448 0.624995 11.8751 0.0415852 13.4551 0.0728057V0.0171261Z" fill="#C5BDE1"/>
<path fill-rule="evenodd" clip-rule="evenodd" d="M2.13452 26.4578H1.77257C1.3187 26.4765 0.875486 26.3166 0.538217 26.0123C0.230194 25.6661 0.041547 25.2302 0 24.7687L0.0927804 16.0731C0.217566 15.3916 0.47927 14.7425 0.862099 14.1651C1.24493 13.5877 1.74095 13.0939 2.32008 12.7136L2.14381 26.467L2.13452 26.4578Z" fill="#C5BDE1"/>
</svg>
