<svg width="35" height="44" viewBox="0 0 35 44" fill="none" xmlns="http://www.w3.org/2000/svg">
<path fill-rule="evenodd" clip-rule="evenodd" d="M34.4352 9.1573C34.3782 8.56457 34.1698 7.99643 33.83 7.50741C33.4903 7.01838 33.0305 6.62487 32.4949 6.36465L18.9132 0.308495C18.3644 0.117874 17.7892 0.0137956 17.2084 0C16.6541 0.0149827 16.1059 0.119151 15.5847 0.308495L1.93 6.36465C1.40469 6.62912 0.957125 7.02558 0.631215 7.51516C0.305305 8.00474 0.112209 8.57062 0.0709099 9.1573C-0.0102718 9.70122 -0.399911 23.1206 2.08425 27.545C4.56841 31.9694 15.666 42.45 16.1287 42.7585C16.6625 43.0079 17.2443 43.138 17.8335 43.14C18.3968 43.1394 18.9525 43.0089 19.4571 42.7585C19.928 42.523 29.9377 31.8882 32.4949 27.545C35.0521 23.2017 34.4352 9.68499 34.4352 9.1573Z" fill="#C5BDE1"/>
<path fill-rule="evenodd" clip-rule="evenodd" d="M19.9199 17.8562C19.9024 17.5445 19.8214 17.2397 19.6818 16.9605C19.5422 16.6813 19.3469 16.4336 19.1081 16.2326C18.543 15.8256 17.8642 15.6067 17.1678 15.6067C16.4714 15.6067 15.7927 15.8256 15.2276 16.2326C14.6836 16.6953 14.5294 18.4001 14.5294 19.0252C14.5335 19.2075 14.4926 19.388 14.4105 19.5508C14.3284 19.7136 14.2076 19.8537 14.0586 19.9588C13.7223 20.2067 13.3154 20.3405 12.8976 20.3405C12.4799 20.3405 12.073 20.2067 11.7368 19.9588C11.5898 19.8523 11.4709 19.7117 11.3903 19.5491C11.3096 19.3865 11.2697 19.2067 11.274 19.0252C11.2441 17.9755 11.3728 16.9273 11.6556 15.916C11.939 15.3068 12.365 14.775 12.8976 14.3654C13.4605 13.8701 14.1217 13.4993 14.8379 13.2776C15.5895 13.028 16.3759 12.8993 17.1678 12.896C17.9586 12.9118 18.7432 13.0403 19.4977 13.2776C20.1811 13.5183 20.8122 13.8876 21.3568 14.3654C21.8929 14.7714 22.3197 15.3042 22.5989 15.916C22.9114 16.5147 23.0731 17.1808 23.0697 17.8562C23.0745 18.0386 23.034 18.2194 22.9518 18.3823C22.8697 18.5452 22.7484 18.6852 22.5989 18.7898C22.4536 18.9253 22.2822 19.0297 22.0951 19.0967C21.9081 19.1637 21.7094 19.1919 21.5111 19.1795C21.3012 19.1982 21.0896 19.1732 20.8898 19.1062C20.69 19.0391 20.5063 18.9314 20.3502 18.7898C20.2027 18.6838 20.0834 18.5433 20.0027 18.3805C19.922 18.2178 19.8825 18.0378 19.8874 17.8562H19.9199Z" fill="#6C63FF"/>
<path fill-rule="evenodd" clip-rule="evenodd" d="M17.055 7.77646C18.6086 7.76429 20.1543 7.99999 21.6337 8.47464C23.0214 8.9601 24.3089 9.69463 25.433 10.6422C26.4924 11.4916 27.3656 12.55 27.9984 13.7515C28.6108 14.9501 28.9281 16.2777 28.9238 17.6238C28.9192 18.7972 28.6847 19.9583 28.2338 21.0416C28.1536 21.0969 28.0983 21.1814 28.0795 21.277C27.7629 21.7397 27.4544 22.2106 27.1378 22.5921L26.2123 23.7693C25.9379 24.1594 25.6251 24.5211 25.2787 24.849C25.2057 24.9302 25.1245 25.0114 25.0515 25.0114C24.9515 25.0959 24.8712 25.2011 24.816 25.3199C24.5004 25.5776 24.2193 25.875 23.9798 26.2047C23.8498 26.3963 23.7622 26.6135 23.723 26.8418C23.6838 27.07 23.6938 27.304 23.7525 27.528C23.7525 28.7701 23.8256 29.6956 23.7525 30.3207C23.7461 30.79 23.6945 31.2576 23.5983 31.717C23.4961 32.2951 23.2697 32.8441 22.9347 33.3263C22.5997 33.8084 22.1642 34.2122 21.6581 34.5096C13.7428 39.478 21.8853 23.4202 22.9001 22.0969C23.1355 21.7884 23.3629 21.553 23.5983 21.2445C23.8337 20.936 23.9799 20.7006 24.1422 20.3921C24.3458 20.1777 24.528 19.9439 24.6861 19.694C24.8322 19.3704 24.9359 19.0293 24.9946 18.6792C25.0623 18.3208 25.0895 17.9559 25.0758 17.5914C25.0982 16.6753 24.8829 15.7691 24.4507 14.9611C24.0201 14.1613 23.4416 13.4506 22.7459 12.8666C21.9917 12.2358 21.1197 11.7611 20.1805 11.4702C19.191 11.092 18.1387 10.9047 17.0794 10.9182C15.9931 10.8975 14.9129 11.0849 13.8971 11.4702C12.9666 11.7757 12.0999 12.2489 11.3398 12.8666C10.6599 13.468 10.0815 14.1753 9.62692 14.9611C9.24536 15.8135 9.47267 14.4902 9.47267 15.3426C9.46664 15.5643 9.41529 15.7824 9.32174 15.9834C9.22819 16.1845 9.09445 16.3642 8.92876 16.5116C8.52523 16.8121 8.03552 16.9744 7.53241 16.9744C7.0293 16.9744 6.53964 16.8121 6.13611 16.5116C5.95817 16.3748 5.81582 16.1972 5.72113 15.9937C5.62645 15.7902 5.58219 15.5668 5.59216 15.3426C5.59216 14.0275 5.43792 14.9611 6.06302 13.719C6.68965 12.5158 7.56067 11.4568 8.62027 10.6097C9.74549 9.66381 11.0327 8.92943 12.4196 8.44216C13.9255 7.96167 15.4988 7.72596 17.0794 7.744L17.055 7.77646Z" fill="#6C63FF"/>
</svg>
