<svg width="33" height="46" viewBox="0 0 33 46" fill="none" xmlns="http://www.w3.org/2000/svg">
<path fill-rule="evenodd" clip-rule="evenodd" d="M15.3155 12.4934L3.59022 24.1473C2.97152 24.958 2.46782 25.8503 2.0934 26.7989C2.02212 26.9414 1.88671 27.2123 1.75128 27.5544L1.34499 28.3028C-2.60382 36.4072 6.59106 33.4135 9.72729 30.206L21.3741 18.5449L15.3155 12.4791V12.4934Z" fill="#6C63FF"/>
<path fill-rule="evenodd" clip-rule="evenodd" d="M32.955 6.4979C32.9757 5.77145 32.8407 5.04898 32.5592 4.37898C32.2776 3.70897 31.8561 3.10693 31.3228 2.61324C30.8241 2.06223 30.2127 1.62492 29.5302 1.33099C28.8476 1.03705 28.1098 0.893375 27.3668 0.909697H27.3027C26.5941 0.900377 25.8911 1.0345 25.2357 1.30399C24.5804 1.57348 23.9863 1.97277 23.4893 2.47782L21.1728 4.79436L20.8306 4.45222C20.607 4.21023 20.3304 4.0232 20.0226 3.90574C19.7147 3.78828 19.3838 3.74357 19.0558 3.77508C18.7403 3.76265 18.4257 3.81649 18.1323 3.93312C17.8389 4.04975 17.5731 4.22658 17.3522 4.45222L15.2139 6.63332C14.9807 6.85022 14.7966 7.11439 14.6737 7.40816C14.5507 7.70194 14.4919 8.01855 14.5011 8.33687C14.4878 8.63298 14.5094 8.92963 14.5653 9.22072L24.5442 19.1996V19.2567C24.8726 19.373 25.2157 19.4426 25.5635 19.4634C25.8879 19.4516 26.2065 19.3735 26.4995 19.2337C26.7925 19.0939 27.0538 18.8955 27.267 18.6508L29.4482 16.5125C29.8939 16.0261 30.1412 15.3903 30.1412 14.7305C30.1412 14.0707 29.8939 13.4349 29.4482 12.9486L29.0419 12.6777L31.4226 10.3612C31.9554 9.87028 32.3725 9.26711 32.6437 8.59529C32.9149 7.92346 33.0334 7.19976 32.9907 6.47652L32.955 6.4979Z" fill="#C5BDE1"/>
<path fill-rule="evenodd" clip-rule="evenodd" d="M7.1327 41.2483L3.93232 34.9829L0.660643 41.2483C0.0547792 43.4294 2.16463 45.1329 3.93232 45.1329C5.70002 45.1329 7.88825 43.4294 7.1327 41.2483Z" fill="#6C63FF"/>
</svg>
