<svg width="63" height="23" viewBox="0 0 63 23" fill="none" xmlns="http://www.w3.org/2000/svg">
<path d="M61.75 22.58V18.58C60.4616 18.5105 59.1826 18.3196 57.93 18.01L58.12 5.48999C59.3985 5.15738 60.721 5.02585 62.04 5.10004V0.98999C54.58 0.89999 50.18 4.62004 46.45 8.54004C43.02 4.54004 38.7099 0.610039 31.2599 0.540039C23.8099 0.470039 19.26 4.18 15.68 8C12.14 4.08 7.92994 0.16 0.379944 0L0.289978 4.11005C1.82009 4.09232 3.34093 4.34969 4.77997 4.87L4.58997 17.01C3.1291 17.4188 1.61678 17.6142 0.0999756 17.59L0 21.7C7.55 21.79 11.95 17.97 15.49 14.15C19.02 18.15 23.32 21.98 30.87 22.15C38.42 22.32 42.7299 18.52 46.45 14.6C49.9 18.6 54.2 22.53 61.75 22.6V22.58Z" fill="#6C63FF"/>
<path d="M49.1309 11.5808C50.7427 9.73018 52.6118 8.1204 54.6809 6.80078L54.5809 16.5508C52.5618 15.1192 50.7307 13.4393 49.1309 11.5508V11.5808Z" fill="#C5BDE1"/>
<path d="M34.7896 17.5987C33.5036 17.887 32.1873 18.0179 30.8696 17.9887C29.9386 17.9909 29.01 17.8937 28.0996 17.6987L28.2996 4.7887C29.2399 4.59164 30.1989 4.49772 31.1596 4.50867C32.4522 4.53326 33.7362 4.72485 34.9796 5.07868L34.7896 17.5987Z" fill="#C5BDE1"/>
<path d="M18.2598 11.1C20.1291 8.9476 22.3592 7.13717 24.8498 5.75L24.6598 16.55C22.207 15.1459 20.0367 13.2978 18.2598 11.1Z" fill="#C5BDE1"/>
<path d="M8.2193 6.51953C9.96348 7.81157 11.5361 9.32035 12.8993 11.0095C11.4184 12.5965 9.78744 14.0365 8.0293 15.3095L8.2193 6.51953Z" fill="#C5BDE1"/>
<path d="M43.7805 11.4796C42.142 13.306 40.2769 14.9157 38.2305 16.2695L38.3304 6.51953C40.3899 7.90044 42.2276 9.58636 43.7805 11.5195V11.4796Z" fill="#C5BDE1"/>
</svg>
