<svg width="52" height="44" viewBox="0 0 52 44" fill="none" xmlns="http://www.w3.org/2000/svg">
<path d="M50.1737 25.2786H43.5675L39.1389 17.6647C39.0354 17.4918 38.8872 17.35 38.7099 17.2542C38.5326 17.1584 38.3327 17.1121 38.1313 17.1203H29.2824L25.2195 9.97779L29.7049 2.36396C29.8492 2.09671 29.8815 1.78311 29.7946 1.49208C29.7078 1.20106 29.5089 0.956426 29.2418 0.811946C29.1151 0.73394 28.9742 0.681912 28.8272 0.658894C28.6803 0.635875 28.5302 0.642324 28.3858 0.677867C28.2414 0.71341 28.1054 0.777336 27.9859 0.865921C27.8664 0.954507 27.7658 1.06598 27.6898 1.19385L23.2043 8.88894H15.0786L10.6501 1.19385C10.5741 1.06598 10.4734 0.954507 10.3539 0.865921C10.2344 0.777336 10.0985 0.71341 9.95403 0.677867C9.80959 0.642324 9.65953 0.635875 9.51258 0.658894C9.36562 0.681912 9.22471 0.73394 9.09805 0.811946C8.971 0.888711 8.86033 0.989767 8.77236 1.10934C8.68439 1.22891 8.62086 1.36465 8.58539 1.50879C8.54992 1.65293 8.54321 1.80265 8.56565 1.94939C8.58808 2.09613 8.6392 2.23701 8.71612 2.36396L13.0472 9.99404L8.6999 17.681C8.58427 17.8527 8.5225 18.055 8.5225 18.262C8.5225 18.469 8.58427 18.6713 8.6999 18.843L13.0472 26.4568L8.98428 33.5262H1.98803C1.67985 33.5262 1.38429 33.6486 1.16638 33.8665C0.948461 34.0845 0.82605 34.38 0.82605 34.6882C0.82605 34.9964 0.948461 35.2919 1.16638 35.5098C1.38429 35.7277 1.67985 35.8502 1.98803 35.8502H8.98428L13.4534 43.4477C13.5435 43.6324 13.6891 43.7842 13.8698 43.8818C14.0505 43.9795 14.2573 44.018 14.461 43.9922H23.9357C24.1371 44.0003 24.3369 43.9541 24.5142 43.8583C24.6915 43.7625 24.8397 43.6207 24.9433 43.4477L29.2987 35.8339H38.1476C38.3551 35.8212 38.5557 35.7546 38.7296 35.6405C38.9035 35.5265 39.0445 35.3691 39.1389 35.1839L43.5675 27.57H50.1737C50.4793 27.5618 50.7701 27.4368 50.9863 27.2206C51.2024 27.0044 51.3275 26.7136 51.3357 26.4081C51.3275 26.1025 51.2024 25.8117 50.9863 25.5955C50.7701 25.3793 50.4793 25.2543 50.1737 25.2461V25.2786Z" fill="#6C63FF"/>
<path d="M15.0616 11.1383H23.2198L27.3396 18.2077L23.2198 25.2771H15.0616L10.95 18.2077L15.0616 11.1383Z" fill="#C5BDE1"/>
<path d="M23.2198 41.7406H15.0616L10.95 34.6712L15.0616 27.6018H23.2198L27.3396 34.6712L23.2198 41.7406Z" fill="#C5BDE1"/>
</svg>
