<svg width="45" height="50" viewBox="0 0 45 50" fill="none" xmlns="http://www.w3.org/2000/svg">
<path d="M44.1469 40.8122C44.6234 41.7056 44.8605 42.7071 44.8353 43.7193C44.8101 44.7314 44.5234 45.7199 44.0031 46.5885C43.4827 47.457 42.7465 48.1761 41.8659 48.6759C40.9853 49.1756 39.9904 49.439 38.9779 49.4403H5.83801C4.82595 49.4376 3.83164 49.1742 2.95099 48.6755C2.07033 48.1768 1.33301 47.4596 0.810136 46.593C0.305846 45.7195 0.0280433 44.7338 0.00201411 43.7255C-0.0240151 42.7172 0.202602 41.7184 0.66115 40.82L13.4778 17.2025V3.17C13.4737 2.84965 13.5326 2.53161 13.6514 2.23406C13.7702 1.93651 13.9465 1.66527 14.1701 1.43583C14.3937 1.20639 14.6603 1.02325 14.9547 0.89686C15.2491 0.770471 15.5655 0.703313 15.8858 0.699219H28.93C29.5834 0.705354 30.2083 0.967637 30.6703 1.42968C31.1324 1.89171 31.3947 2.51661 31.4008 3.17V17.1946L44.1469 40.8122Z" fill="#6C63FF"/>
<path d="M24.5372 30.9845C24.2658 30.9761 23.9955 31.0222 23.7423 31.12C23.4891 31.2179 23.258 31.3655 23.0628 31.5541C22.8675 31.7428 22.7121 31.9687 22.6057 32.2184C22.4992 32.4681 22.4438 32.7367 22.4429 33.0082C22.4255 33.2893 22.4659 33.5709 22.5615 33.8358C22.6571 34.1007 22.806 34.3432 22.9989 34.5484C23.1918 34.7535 23.4247 34.917 23.6832 35.0288C23.9417 35.1406 24.2203 35.1982 24.5019 35.1982C24.7835 35.1982 25.0621 35.1406 25.3206 35.0288C25.5791 34.917 25.8119 34.7535 26.0048 34.5484C26.1977 34.3432 26.3466 34.1007 26.4422 33.8358C26.5379 33.5709 26.5782 33.2893 26.5609 33.0082C26.5619 32.7421 26.5103 32.4785 26.409 32.2325C26.3077 31.9865 26.1586 31.763 25.9705 31.5749C25.7823 31.3868 25.5589 31.2378 25.3129 31.1364C25.0669 31.0351 24.8033 30.9835 24.5372 30.9845Z" fill="#C5BDE1"/>
<path d="M18.639 18.5451C18.373 18.544 18.1093 18.5957 17.8633 18.697C17.6173 18.7983 17.3939 18.9473 17.2057 19.1355C17.0176 19.3236 16.8686 19.5471 16.7673 19.7931C16.666 20.0391 16.6143 20.3027 16.6154 20.5687C16.607 20.8401 16.653 21.1104 16.7508 21.3636C16.8487 21.6169 16.9963 21.8479 17.185 22.0432C17.3736 22.2384 17.5995 22.3939 17.8493 22.5003C18.099 22.6068 18.3675 22.6621 18.639 22.663C18.9164 22.6705 19.1926 22.6216 19.4505 22.5191C19.7084 22.4166 19.9428 22.2627 20.1394 22.0669C20.336 21.871 20.4908 21.6372 20.5942 21.3796C20.6976 21.1221 20.7477 20.8462 20.7412 20.5687C20.7403 20.2966 20.6847 20.0274 20.5777 19.7771C20.4708 19.5268 20.3147 19.3006 20.1186 19.1118C19.9225 18.923 19.6905 18.7756 19.4363 18.6782C19.1821 18.5809 18.911 18.5356 18.639 18.5451Z" fill="#C5BDE1"/>
<path d="M18.6396 25.7143C17.7657 25.7204 16.9293 26.0703 16.3114 26.6883C15.6934 27.3062 15.3436 28.1426 15.3374 29.0165C15.328 29.456 15.4064 29.893 15.5682 30.3019C15.7299 30.7107 15.9717 31.0831 16.2793 31.3973C16.5869 31.7114 16.9541 31.961 17.3595 32.1313C17.7648 32.3017 18.2 32.3894 18.6396 32.3893C19.0864 32.4035 19.5313 32.3259 19.9469 32.1614C20.3625 31.9969 20.74 31.749 21.056 31.4329C21.3721 31.1169 21.6201 30.7394 21.7846 30.3238C21.9491 29.9081 22.0266 29.4632 22.0125 29.0165C22.0126 28.5768 21.9249 28.1416 21.7545 27.7363C21.5842 27.3309 21.3346 26.9637 21.0204 26.6561C20.7063 26.3486 20.3339 26.1068 19.925 25.9451C19.5162 25.7833 19.0792 25.7049 18.6396 25.7143Z" fill="#C5BDE1"/>
<path d="M37.9823 42.9713C38.1849 42.6038 38.2911 42.1909 38.2911 41.7713C38.2911 41.3516 38.1849 40.9387 37.9823 40.5712L35.6292 36.2963C35.3028 35.7626 34.7849 35.3737 34.1814 35.209C33.5779 35.0443 32.9342 35.1162 32.3819 35.41C30.404 36.5999 28.1677 37.2942 25.8637 37.4337C21.5104 37.6611 16.71 33.9118 12.3646 33.5118C11.8993 33.464 11.4302 33.551 11.013 33.7624C10.5958 33.9738 10.2481 34.3006 10.0115 34.704L6.79555 40.6182C6.58017 40.9815 6.46655 41.396 6.46655 41.8183C6.46655 42.2406 6.58017 42.6552 6.79555 43.0184C7.02331 43.3653 7.33429 43.6496 7.70009 43.8455C8.06589 44.0415 8.47491 44.1427 8.88986 44.1401H35.888C36.303 44.1427 36.712 44.0415 37.0778 43.8455C37.4436 43.6496 37.7546 43.3653 37.9823 43.0184V42.9713Z" fill="#C5BDE1"/>
</svg>
