<svg width="64" height="57" viewBox="0 0 64 57" fill="none" xmlns="http://www.w3.org/2000/svg">
<path d="M8.46294 30.4543C7.4978 30.5811 6.51656 30.4891 5.5918 30.1852C4.66704 29.8813 3.82223 29.3731 3.1205 28.6985C2.41877 28.0239 1.87781 27.2 1.53771 26.2879C1.19761 25.3758 1.06708 24.3989 1.15578 23.4295C1.15578 21.5066 1.91987 19.6624 3.2796 18.3027C4.63933 16.943 6.48351 16.1791 8.40646 16.1791C10.3294 16.1791 12.1736 16.943 13.5333 18.3027C14.893 19.6624 15.6568 21.5066 15.6568 23.4295C15.67 24.3637 15.4905 25.2906 15.1295 26.1524C14.7686 27.0141 14.2342 27.7923 13.5591 28.4382C12.8841 29.0841 12.0831 29.584 11.2063 29.9066C10.3295 30.2292 9.39564 30.3676 8.46294 30.3133V30.4543ZM3.86437 23.2885C3.85164 23.8844 3.96239 24.4765 4.18981 25.0275C4.41723 25.5785 4.75641 26.0764 5.18577 26.4899C5.61514 26.9033 6.12537 27.2234 6.68454 27.4299C7.2437 27.6363 7.83967 27.7248 8.4347 27.6896C9.02002 27.7208 9.60524 27.6308 10.1542 27.4253C10.7032 27.2199 11.204 26.9034 11.6251 26.4956C12.0461 26.0878 12.3785 25.5975 12.6014 25.0554C12.8243 24.5132 12.9328 23.9309 12.9203 23.3449C12.9357 22.7503 12.8303 22.1588 12.6107 21.6061C12.3911 21.0533 12.0619 20.5508 11.6426 20.129C11.2234 19.7071 10.7228 19.3745 10.1714 19.1515C9.62008 18.9284 9.02936 18.8194 8.4347 18.831C7.99654 18.8299 7.55993 18.8868 7.13671 19.0003C6.75034 18.723 6.28636 18.5749 5.81083 18.5771C5.39437 18.5907 4.9862 18.6965 4.61547 18.8868C4.24475 19.077 3.92065 19.347 3.66669 19.6773C3.22516 20.182 2.99887 20.8395 3.03578 21.509C3.07268 22.1786 3.37004 22.8072 3.86437 23.2603" fill="white"/>
<path d="M8.43563 27.2361C7.93846 27.3003 7.43316 27.2577 6.95374 27.1112C6.47432 26.9648 6.03184 26.7178 5.65541 26.3868C5.27898 26.0557 4.9772 25.6482 4.77069 25.1914C4.56417 24.7347 4.45753 24.2391 4.45764 23.7378C4.72625 23.8481 5.01376 23.9056 5.30414 23.9071C5.72541 23.8975 6.13908 23.7938 6.515 23.6034C6.89091 23.413 7.21924 23.1408 7.47617 22.8068C7.84019 22.3682 8.05352 21.8241 8.08401 21.255C8.1145 20.6858 7.96069 20.122 7.64561 19.6471C7.90819 19.6193 8.17305 19.6193 8.43563 19.6471C9.46668 19.6755 10.4476 20.0978 11.1769 20.8271C11.9063 21.5565 12.3287 22.5375 12.3571 23.5685C12.3617 24.077 12.2621 24.581 12.0644 25.0496C11.8667 25.5181 11.575 25.9412 11.2076 26.2927C10.8402 26.6442 10.405 26.9168 9.92819 27.0936C9.45142 27.2704 8.94341 27.3477 8.43563 27.3207" fill="#6C63FF"/>
<path d="M8.46386 30.4614C7.49872 30.5882 6.51748 30.4962 5.59272 30.1922C4.66796 29.8883 3.82315 29.3802 3.12142 28.7055C2.41969 28.0309 1.87872 27.207 1.53863 26.295C1.19853 25.3829 1.068 24.4059 1.1567 23.4366C1.1567 21.5136 1.92079 19.6694 3.28052 18.3097C4.64025 16.95 6.48443 16.1861 8.40738 16.1861C10.3303 16.1861 12.1745 16.95 13.5342 18.3097C14.894 19.6694 15.6577 21.5136 15.6577 23.4366C15.6709 24.3708 15.4914 25.2977 15.1305 26.1594C14.7695 27.0212 14.2351 27.7993 13.5601 28.4452C12.885 29.0911 12.084 29.591 11.2072 29.9136C10.3304 30.2362 9.39656 30.3747 8.46386 30.3203V30.4614ZM8.46386 15.1422C7.36534 15.0924 6.26792 15.2669 5.23904 15.6549C4.21015 16.043 3.27109 16.6366 2.47914 17.3995C1.68719 18.1625 1.05913 19.0787 0.632894 20.0924C0.20666 21.1061 -0.00853429 22.1959 0.000259002 23.2955C0.359837 25.2403 1.38897 26.9978 2.90928 28.2627C4.42958 29.5277 6.34491 30.2203 8.32266 30.2203C10.3004 30.2203 12.2157 29.5277 13.736 28.2627C15.2563 26.9978 16.2855 25.2403 16.6451 23.2955C16.672 22.2014 16.4768 21.1131 16.0713 20.0964C15.6658 19.0798 15.0586 18.1559 14.286 17.3807C13.5134 16.6054 12.5916 15.9948 11.5764 15.5858C10.5612 15.1769 9.47341 14.978 8.37914 15.0012" fill="#C5BDE1"/>
<path d="M8.43411 27.8336C7.83907 27.8688 7.24311 27.7805 6.68394 27.574C6.12477 27.3675 5.61454 27.0474 5.18518 26.634C4.75582 26.2205 4.41664 25.7226 4.18922 25.1716C3.9618 24.6207 3.85105 24.0285 3.86378 23.4326L4.42788 23.7429C4.42777 24.2442 4.53441 24.7398 4.74093 25.1966C4.94744 25.6533 5.24922 26.0608 5.62565 26.3919C6.00208 26.7229 6.44456 26.9699 6.92398 27.1163C7.4034 27.2628 7.9087 27.3054 8.40587 27.2412C8.91365 27.2682 9.42166 27.1909 9.89843 27.0141C10.3752 26.8373 10.8104 26.5647 11.1778 26.2131C11.5452 25.8616 11.837 25.4386 12.0346 24.97C12.2323 24.5015 12.3319 23.9975 12.3274 23.489C12.2989 22.458 11.8765 21.477 11.1472 20.7476C10.4178 20.0183 9.43692 19.596 8.40587 19.5676C8.14329 19.5398 7.87843 19.5398 7.61585 19.5676C7.49767 19.3972 7.35502 19.2451 7.1926 19.1162C7.61582 19.0027 8.05243 18.9458 8.49059 18.9469C9.08525 18.9353 9.67597 19.0443 10.2273 19.2674C10.7787 19.4905 11.2789 19.823 11.6982 20.2449C12.1174 20.6668 12.447 21.1692 12.6666 21.722C12.8862 22.2747 12.9916 22.8662 12.9762 23.4608C12.9887 24.0468 12.8802 24.6291 12.6573 25.1713C12.4344 25.7134 12.102 26.2037 11.681 26.6115C11.2599 27.0193 10.7591 27.3358 10.2101 27.5413C9.66113 27.7467 9.07591 27.8366 8.49059 27.8055" fill="#C5BDE1"/>
<path d="M5.30414 23.9093C5.01376 23.9078 4.72625 23.8504 4.45764 23.74V23.4297C4.50363 22.538 4.84011 21.6858 5.41572 21.0032C5.99133 20.3207 6.77447 19.8452 7.64561 19.6493C7.96069 20.1242 8.1145 20.688 8.08401 21.2572C8.05352 21.8263 7.84019 22.3705 7.47617 22.809C7.21924 23.143 6.89091 23.4152 6.515 23.6056C6.13908 23.796 5.72541 23.8998 5.30414 23.9093Z" fill="white"/>
<path d="M3.86227 23.4058C3.36794 22.9526 3.07059 22.3241 3.03368 21.6545C2.99678 20.985 3.22306 20.3275 3.6646 19.8228C3.91855 19.4925 4.24265 19.2225 4.61338 19.0322C4.9841 18.842 5.39227 18.7362 5.80873 18.7226C6.28427 18.7204 6.74825 18.8685 7.13462 19.1458C6.19775 19.3992 5.37028 19.9533 4.77902 20.723C4.18776 21.4927 3.86569 22.4352 3.86227 23.4058Z" fill="white"/>
<path d="M4.45485 23.7464L3.89075 23.436C3.89416 22.4655 4.21624 21.5229 4.8075 20.7533C5.39876 19.9836 6.22622 19.4295 7.16309 19.176C7.32551 19.3049 7.46816 19.457 7.58634 19.6274C6.7152 19.8233 5.93206 20.2988 5.35645 20.9814C4.78084 21.664 4.44436 22.5161 4.39837 23.4078V23.7182" fill="white"/>
<path d="M31.937 15.5047C30.9718 15.6314 29.9906 15.5395 29.0658 15.2355C28.1411 14.9316 27.2966 14.4235 26.5949 13.7488C25.8931 13.0742 25.3522 12.2503 25.0121 11.3382C24.672 10.4262 24.5414 9.44927 24.6301 8.47989C24.6489 6.55695 25.4306 4.72016 26.8036 3.37366C28.1765 2.02716 30.0281 1.2812 31.9511 1.2999C33.874 1.31861 35.7108 2.10045 37.0573 3.4734C38.4038 4.84636 39.1499 6.69797 39.1312 8.62092C39.1402 9.55394 38.9577 10.4789 38.5953 11.3388C38.2329 12.1986 37.6984 12.975 37.0242 13.6201C36.35 14.2652 35.5508 14.7652 34.6758 15.0893C33.8009 15.4135 32.8687 15.5548 31.937 15.5047ZM27.3949 11.8089C27.3949 13.5016 29.2286 14.9686 31.9652 14.9686C34.7018 14.9686 36.4508 13.4452 36.4508 11.7525C36.4508 9.80583 34.3632 8.64916 31.9652 8.64916C29.5672 8.64916 27.3949 9.77763 27.3949 11.8089ZM27.3949 4.64306C27.2767 4.75203 27.1725 4.87519 27.0846 5.00979C26.6379 5.51959 26.4107 6.18538 26.453 6.86189C26.4953 7.5384 26.8034 8.17071 27.3102 8.62092C27.7166 8.92828 28.2112 9.09646 28.7207 9.10052C29.3772 9.07949 30.0058 8.83005 30.4981 8.39522C30.9485 8.43714 31.4018 8.43714 31.8522 8.39522C34.2503 8.39522 36.3382 7.26675 36.3382 5.32012C36.3382 3.6274 34.5888 2.10396 31.8522 2.10396C30.9502 2.00289 30.0391 2.18141 29.2418 2.61537C28.4445 3.04932 27.7997 3.71776 27.3949 4.53019" fill="white"/>
<path d="M31.9366 15.5067C30.9715 15.6335 29.9903 15.5415 29.0655 15.2376C28.1407 14.9336 27.2963 14.4255 26.5945 13.7509C25.8928 13.0763 25.3518 12.2524 25.0117 11.3403C24.6716 10.4282 24.5411 9.45132 24.6298 8.48194C24.6485 6.55899 25.4303 4.72221 26.8032 3.37571C28.1762 2.0292 30.0278 1.28325 31.9508 1.30195C33.8737 1.32066 35.7104 2.10249 37.0569 3.47545C38.4034 4.84841 39.1495 6.70002 39.1308 8.62297C39.1399 9.55599 38.9573 10.481 38.595 11.3408C38.2326 12.2006 37.698 12.9771 37.0239 13.6221C36.3497 14.2672 35.5505 14.7672 34.6755 15.0914C33.8006 15.4155 32.8684 15.5569 31.9366 15.5067ZM31.9366 0.328635C30.8381 0.27879 29.741 0.45325 28.7122 0.841337C27.6833 1.22942 26.7442 1.82304 25.9523 2.58595C25.1603 3.34886 24.5319 4.2651 24.1057 5.27878C23.6794 6.29245 23.4642 7.38233 23.473 8.48194C23.8158 10.4301 24.8301 12.1966 26.3397 13.4747C27.8493 14.7528 29.7589 15.4619 31.7369 15.4786C33.7149 15.4954 35.6361 14.8189 37.1671 13.5665C38.6982 12.3141 39.7425 10.565 40.1182 8.62297C40.1451 7.52878 39.9499 6.44048 39.5444 5.42385C39.1389 4.40722 38.5314 3.48338 37.7588 2.70812C36.9862 1.93286 36.0644 1.32229 35.0492 0.913314C34.0339 0.50434 32.9462 0.305421 31.8519 0.328635" fill="#C5BDE1"/>
<path d="M31.9078 7.96897H30.9205C31.1973 7.62021 31.3877 7.21092 31.476 6.77452C31.5642 6.33812 31.548 5.88701 31.4285 5.45811C31.6816 5.37981 31.903 5.22258 32.0604 5.00937C32.2178 4.79617 32.3026 4.5382 32.3029 4.27321C32.3029 3.65254 31.5693 3.31401 30.8358 3.31401H30.5537C30.081 3.33929 29.6321 3.52885 29.2843 3.85C29.0131 3.81025 28.7373 3.81025 28.4661 3.85C28.9066 3.38384 29.4416 3.01695 30.0351 2.77371C30.6286 2.53048 31.2669 2.4165 31.9078 2.4394C34.0237 2.4394 35.8294 3.76537 35.8294 5.2606C35.8294 6.75584 33.9673 7.94078 31.9078 7.94078" fill="#6C63FF"/>
<path d="M31.9096 8.36239C31.4592 8.40431 31.0059 8.40431 30.5555 8.36239L30.9223 8.02386H31.9096C33.9691 8.02386 35.8311 7.03645 35.8311 5.34373C35.8311 3.65101 34.0255 2.52253 31.9096 2.52253C31.2687 2.49962 30.6304 2.61356 30.0369 2.8568C29.4434 3.10003 28.9084 3.46697 28.4679 3.93313C28.0947 4.06409 27.75 4.26516 27.4523 4.52556C27.8571 3.71312 28.5016 3.04469 29.2989 2.61073C30.0961 2.17678 31.0076 1.99826 31.9096 2.09932C34.7308 2.09932 36.3953 3.62277 36.3953 5.31549C36.3953 7.00821 34.3077 8.39058 31.9096 8.39058" fill="#C5BDE1"/>
<path d="M31.9034 14.4047C29.7875 14.4047 27.9818 13.1352 27.9254 11.5835C27.9254 9.55226 29.8439 8.76233 31.9034 8.76233C33.9629 8.76233 35.8249 9.74975 35.8249 11.5835C35.8249 13.4173 34.0193 14.4047 31.9034 14.4047ZM30.8596 9.41119H30.5775C29.7312 9.41119 28.9975 9.97545 29.054 10.709C29.1104 11.4425 29.7029 11.6682 30.5493 11.6682H30.8313C31.7905 11.6682 32.3831 10.9629 32.3267 10.3422C32.2702 9.72153 31.5931 9.383 30.8596 9.383" fill="#6C63FF"/>
<path d="M31.9059 14.8288C29.0847 14.8288 27.3356 13.3617 27.3356 11.669C27.3356 9.97629 29.5079 8.50928 31.9059 8.50928C34.3039 8.50928 36.3915 9.66594 36.3915 11.6126C36.3915 13.5592 34.6425 14.8288 31.9059 14.8288ZM31.9059 8.93244C29.8464 8.93244 27.8715 9.63774 27.9279 11.7536C27.9279 13.2207 29.79 14.5748 31.9059 14.5748C34.0218 14.5748 35.8274 13.2489 35.8274 11.7536C35.8274 10.2584 33.9654 8.93244 31.9059 8.93244Z" fill="#C5BDE1"/>
<path d="M30.5526 11.8113C29.7062 11.8113 29.1137 11.3881 29.0573 10.8521C29.0008 10.3161 29.7345 9.63896 30.5808 9.55432H30.8629C31.5964 9.55432 32.2453 9.89285 32.3299 10.5135C32.4146 11.1342 31.7938 11.7266 30.8346 11.8395H30.5526" fill="#F2F7FD"/>
<path d="M31.4576 5.34441C31.3192 4.90987 31.0542 4.52668 30.6962 4.24415C30.2966 3.94417 29.8134 3.77645 29.3138 3.76451C29.6616 3.44336 30.1105 3.2538 30.5832 3.22852H30.8653C31.5988 3.22852 32.2477 3.56705 32.3324 4.18771C32.3322 4.4527 32.2473 4.71068 32.0899 4.92388C31.9326 5.13708 31.7108 5.29432 31.4576 5.37261" fill="#C5BDE1"/>
<path d="M28.7769 8.98729C28.2674 8.98323 27.7727 8.81505 27.3663 8.50769C26.8596 8.05747 26.5514 7.42512 26.5092 6.74861C26.4669 6.07211 26.694 5.40636 27.1408 4.89655C27.2287 4.76196 27.3329 4.63875 27.451 4.52979C27.4238 4.77353 27.4238 5.01954 27.451 5.26328C27.451 6.89958 28.8617 8.0845 30.6673 8.28199C30.175 8.71682 29.5464 8.96625 28.8899 8.98729" fill="white"/>
<path d="M30.9177 7.9149C29.2532 7.6892 27.8707 6.92748 27.9271 5.0937C27.9649 4.60705 28.1523 4.14397 28.4633 3.76773C28.7346 3.72798 29.0103 3.72798 29.2815 3.76773C29.1897 3.87078 29.1196 3.99148 29.076 4.12245C29.0323 4.25341 29.0157 4.39191 29.0274 4.52947C29.0274 5.06549 29.6764 5.48866 30.5227 5.48866H30.8048H31.4257C31.5452 5.91757 31.5615 6.36867 31.4732 6.80507C31.385 7.24147 31.1945 7.65077 30.9177 7.99953" fill="white"/>
<path d="M30.5559 8.25666C28.7503 7.91811 27.3397 6.87425 27.3397 5.23795C27.3124 4.99421 27.3124 4.7482 27.3397 4.50446C27.6373 4.24406 27.982 4.04295 28.3552 3.91199C28.0443 4.28822 27.8572 4.75131 27.8194 5.23795C27.8194 6.93067 29.1452 7.6924 30.8097 8.05915L30.4429 8.39768" fill="white"/>
<path d="M30.5531 5.49169C29.7068 5.49169 29.1142 5.06852 29.0578 4.53249C29.0462 4.39493 29.0627 4.25644 29.1064 4.12547C29.15 3.9945 29.2201 3.8738 29.312 3.77075C29.8115 3.7827 30.2948 3.95041 30.6943 4.25039C31.0524 4.53292 31.3174 4.91611 31.4558 5.35066H30.8352H30.5531" fill="white"/>
<path d="M55.3814 30.4593C54.4151 30.5852 53.4327 30.4929 52.5068 30.1891C51.581 29.8853 50.7352 29.3777 50.0314 28.7037C49.3276 28.0297 48.7839 27.2064 48.4404 26.2945C48.0968 25.3826 47.9619 24.4053 48.046 23.4345C48.1391 21.5427 48.9494 19.7576 50.3121 18.4421C51.6747 17.1266 53.4876 16.3797 55.3814 16.3533C57.2757 16.4038 59.0775 17.1826 60.4122 18.5278C61.7469 19.873 62.5114 21.6809 62.547 23.5755C62.56 24.5072 62.3814 25.4316 62.0222 26.2914C61.663 27.1511 61.131 27.9278 60.459 28.5733C59.7871 29.2188 58.9897 29.7193 58.1162 30.0438C57.2427 30.3682 56.3118 30.5096 55.3814 30.4593ZM51.8832 26.9046C51.8832 27.8099 52.2427 28.6782 52.8829 29.3184C53.5231 29.9585 54.3913 30.3182 55.2967 30.3182C56.2021 30.3182 57.0703 29.9585 57.7105 29.3184C58.3507 28.6782 58.7102 27.8099 58.7102 26.9046V26.6789H58.9362C59.3716 26.6978 59.8063 26.6289 60.2145 26.4761C60.6227 26.3234 60.9958 26.0899 61.3117 25.7897C61.6277 25.4895 61.8801 25.1288 62.0535 24.729C62.227 24.3292 62.3181 23.8985 62.3215 23.4627C62.3149 23.0328 62.2207 22.6088 62.0446 22.2166C61.8685 21.8244 61.6142 21.4723 61.2973 21.1818C60.9803 20.8913 60.6074 20.6685 60.2014 20.5271C59.7954 20.3857 59.365 20.3286 58.9362 20.3594H58.682C58.6951 20.2092 58.6951 20.0581 58.682 19.908C58.6826 19.471 58.5941 19.0385 58.422 18.6368C58.2499 18.2351 57.998 17.8728 57.6812 17.5718C57.3644 17.2708 56.9895 17.0376 56.5795 16.8863C56.1696 16.735 55.7331 16.6688 55.2967 16.6918C54.5947 16.658 53.8999 16.8473 53.312 17.2324C52.7242 17.6175 52.2734 18.1789 52.024 18.8359C51.4395 19.026 50.9208 19.3782 50.5287 19.8516C50.3251 20.1272 50.1637 20.4314 50.0493 20.7543C49.5128 20.9929 49.0638 21.3929 48.7654 21.8986C48.4671 22.4044 48.3339 22.9905 48.3846 23.5755C48.3951 24.0116 48.4935 24.441 48.6738 24.8381C48.8541 25.2353 49.1129 25.592 49.4342 25.887C49.7555 26.1819 50.1328 26.409 50.5439 26.5548C50.9549 26.7006 51.3913 26.7619 51.8267 26.7353C51.8267 26.7353 51.8267 26.9046 51.8267 27.0174L51.8832 26.9046ZM55.4376 23.8577H55.1837V23.5191C55.1986 23.369 55.1986 23.2178 55.1837 23.0677H55.494C55.48 23.2367 55.48 23.4066 55.494 23.5755V23.8577" fill="white"/>
<path d="M55.3763 30.4518C54.41 30.5778 53.4276 30.4855 52.5017 30.1816C51.5758 29.8778 50.73 29.3702 50.0263 28.6962C49.3225 28.0222 48.7787 27.199 48.4352 26.2871C48.0917 25.3752 47.9568 24.3978 48.0409 23.427C48.134 21.5353 48.9443 19.7501 50.3069 18.4346C51.6696 17.1192 53.4824 16.3722 55.3763 16.3458C57.2706 16.3963 59.0724 17.1752 60.407 18.5203C61.7417 19.8655 62.5063 21.6735 62.5419 23.5681C62.5548 24.4998 62.3763 25.4242 62.017 26.2839C61.6578 27.1436 61.1258 27.9204 60.4539 28.5659C59.7819 29.2114 58.9845 29.7119 58.111 30.0363C57.2376 30.3607 56.3067 30.5022 55.3763 30.4518ZM55.3763 15.2737C54.2788 15.228 53.1834 15.4052 52.1563 15.7948C51.1292 16.1843 50.1916 16.7781 49.4005 17.5402C48.6094 18.3023 47.9812 19.2169 47.5536 20.2287C47.1259 21.2405 46.9079 22.3285 46.9127 23.427C47.2563 25.3886 48.2803 27.1662 49.8052 28.4471C51.33 29.728 53.2578 30.4302 55.2492 30.4302C57.2406 30.4302 59.1684 29.728 60.6932 28.4471C62.218 27.1662 63.2421 25.3886 63.5857 23.427C63.6127 22.3328 63.4175 21.2445 63.012 20.2279C62.6065 19.2113 61.9993 18.2874 61.2267 17.5122C60.4541 16.7369 59.532 16.1263 58.5167 15.7174C57.5015 15.3084 56.4141 15.1095 55.3198 15.1327" fill="#C5BDE1"/>
<path d="M55.3254 29.6367C54.9409 29.6599 54.5558 29.604 54.1937 29.4726C53.8316 29.3412 53.5003 29.137 53.2201 28.8727C52.94 28.6084 52.7167 28.2895 52.5644 27.9357C52.4122 27.5819 52.334 27.2007 52.3347 26.8155V26.5052C52.6624 26.4542 52.9841 26.369 53.2942 26.2513C53.3873 26.4382 53.5329 26.5939 53.7133 26.6992C53.8937 26.8044 54.1012 26.8547 54.3098 26.8437H54.5071C54.8315 26.815 55.1318 26.6598 55.3429 26.4118C55.554 26.1637 55.6591 25.8427 55.6356 25.5178C55.6269 25.3199 55.5571 25.1297 55.4359 24.9731C55.3147 24.8165 55.1479 24.7013 54.9586 24.6432C55.0369 24.4597 55.1027 24.2712 55.1559 24.079H55.5792C55.7374 24.7247 56.0951 25.3039 56.6016 25.7345C57.1082 26.165 57.7376 26.4248 58.4004 26.477C58.4156 26.5704 58.4156 26.6657 58.4004 26.7591C58.4004 27.5073 58.1033 28.2249 57.5742 28.754C57.0451 29.2831 56.3274 29.5803 55.5792 29.5803" fill="#6C63FF"/>
<path d="M55.3247 30.0613C54.8894 30.088 54.453 30.0266 54.0419 29.8808C53.6308 29.7351 53.2536 29.5079 52.9323 29.2129C52.611 28.918 52.3522 28.5613 52.1719 28.1642C51.9916 27.767 51.8935 27.3376 51.8829 26.9016C51.8829 26.9016 51.8829 26.7041 51.8829 26.6194H52.3058V26.9297C52.3779 27.6691 52.7227 28.3553 53.2729 28.8544C53.8231 29.3536 54.5395 29.6301 55.2824 29.6301C56.0253 29.6301 56.7416 29.3536 57.2918 28.8544C57.842 28.3553 58.1865 27.6691 58.2585 26.9297C58.2738 26.8363 58.2738 26.741 58.2585 26.6476H58.71V26.8733C58.7066 27.3091 58.6156 27.7398 58.4421 28.1396C58.2686 28.5394 58.0163 28.9002 57.7003 29.2004C57.3843 29.5005 57.0112 29.734 56.6031 29.8867C56.1949 30.0395 55.7601 30.1084 55.3247 30.0895V30.0613ZM55.5785 24.1932H55.1553V23.77H55.4094C55.4094 23.9393 55.4094 24.0803 55.4094 24.1932" fill="#C5BDE1"/>
<path d="M54.3099 26.9301C54.1013 26.9411 53.8939 26.8908 53.7134 26.7856C53.533 26.6803 53.3875 26.5246 53.2943 26.3377C54.0357 26.0363 54.632 25.4602 54.9587 24.7296C55.1481 24.7877 55.3148 24.9029 55.436 25.0595C55.5573 25.2161 55.627 25.4063 55.6358 25.6042C55.6593 25.9291 55.5542 26.2502 55.3431 26.4982C55.1319 26.7463 54.8317 26.9014 54.5072 26.9301H54.3099Z" fill="#F2F7FD"/>
<path d="M51.8529 26.2016C51.4684 26.2247 51.0833 26.1689 50.7212 26.0375C50.3591 25.9061 50.0278 25.7019 49.7476 25.4376C49.4675 25.1733 49.2442 24.8544 49.0919 24.5006C48.9397 24.1468 48.8615 23.7656 48.8622 23.3804C48.8137 22.9348 48.8912 22.4844 49.0857 22.0805C49.2802 21.6765 49.5839 21.3352 49.9625 21.0952C49.9493 21.2736 49.9493 21.4528 49.9625 21.6312C49.8121 21.867 49.7338 22.1415 49.737 22.4212C49.7654 22.698 49.8974 22.9537 50.1068 23.1369C50.3162 23.3201 50.5871 23.4172 50.8652 23.4086C51.2515 23.6858 51.7159 23.8339 52.1914 23.8318C52.6008 23.8174 53.0021 23.7141 53.3675 23.5289C53.7329 23.3438 54.0536 23.0813 54.3073 22.7598H54.7302C54.7457 22.9192 54.7457 23.0799 54.7302 23.2394C54.7302 23.2394 54.7302 23.4933 54.7302 23.6343C54.0633 23.6733 53.4274 23.9285 52.9184 24.3611C52.4094 24.7938 52.0549 25.3804 51.909 26.0323" fill="#6C63FF"/>
<path d="M52.3906 26.1419C52.5034 25.6133 52.7894 25.1375 53.2034 24.7899C53.6174 24.4424 54.1358 24.243 54.676 24.2235C54.6219 24.3698 54.5557 24.5114 54.4783 24.6467C54.1688 24.6678 53.8786 24.804 53.6645 25.0286C53.4504 25.2531 53.3278 25.5496 53.3215 25.8598C53.0701 25.9779 52.8049 26.0633 52.5318 26.1138" fill="white"/>
<path d="M51.9667 26.1911C52.1126 25.5392 52.4671 24.9526 52.9761 24.5199C53.4851 24.0873 54.121 23.8321 54.7879 23.7931C54.7879 23.9342 54.7879 24.0752 54.7879 24.2163C54.2477 24.2358 53.7296 24.4351 53.3156 24.7827C52.9016 25.1302 52.6157 25.6061 52.5029 26.1347H52.0796" fill="#C5BDE1"/>
<path d="M53.1825 25.9099C53.1888 25.5997 53.311 25.3031 53.5251 25.0786C53.7392 24.8541 54.0297 24.7179 54.3392 24.6968C54.0398 25.2305 53.5877 25.6626 53.0413 25.9381" fill="#D7E6F9"/>
<path d="M51.8539 26.6227C51.4185 26.6493 50.9821 26.588 50.5711 26.4422C50.16 26.2964 49.7824 26.0693 49.4611 25.7743C49.1398 25.4794 48.8813 25.1227 48.701 24.7255C48.5207 24.3284 48.4223 23.899 48.4118 23.4629C48.3611 22.8779 48.4943 22.2917 48.7926 21.786C49.091 21.2803 49.54 20.8803 50.0765 20.6417C50.0637 20.7919 50.0637 20.9429 50.0765 21.0931C49.6978 21.3331 49.3938 21.6744 49.1994 22.0783C49.0049 22.4822 48.9277 22.9326 48.9762 23.3783C48.9755 23.7635 49.0537 24.1447 49.2059 24.4985C49.3582 24.8523 49.5811 25.1712 49.8613 25.4355C50.1414 25.6998 50.4728 25.904 50.8348 26.0353C51.1969 26.1667 51.582 26.2226 51.9665 26.1995C51.9527 26.3402 51.9527 26.4819 51.9665 26.6227H51.8539ZM54.7877 23.8015C54.7877 23.6604 54.7877 23.5193 54.7877 23.4065C54.8032 23.247 54.8032 23.0864 54.7877 22.9269H55.2392C55.2541 23.077 55.2541 23.2282 55.2392 23.3783V23.7168H54.7877" fill="#C5BDE1"/>
<path d="M52.3329 26.5882C52.3329 26.4189 52.3329 26.2778 52.3329 26.1368C52.606 26.0863 52.8716 26.001 53.1229 25.8829C53.0938 26.0129 53.0938 26.1478 53.1229 26.2778C52.8129 26.3956 52.4915 26.4807 52.1638 26.5317L52.3329 26.5882ZM54.7873 24.6697C54.6482 24.6373 54.5036 24.6373 54.3644 24.6697C54.4418 24.5344 54.5077 24.3929 54.5618 24.2466H55.0415C54.9883 24.4388 54.9221 24.6273 54.8438 24.8108" fill="#C5BDE1"/>
<path d="M51.9096 26.6189C51.8958 26.4782 51.8958 26.3365 51.9096 26.1958H52.3329C52.3329 26.1958 52.3329 26.4779 52.3329 26.6471H51.9096V26.6189ZM54.7308 24.2491C54.7308 24.1081 54.7308 23.967 54.7308 23.8259H55.1823V24.2491H54.7029" fill="#C5BDE1"/>
<path d="M53.2948 26.3343C53.2657 26.2043 53.2657 26.0694 53.2948 25.9394C53.8413 25.6639 54.293 25.2318 54.5925 24.6981C54.7316 24.6656 54.8765 24.6656 55.0157 24.6981C54.689 25.4287 54.0924 26.0048 53.3509 26.3061" fill="#C5BDE1"/>
<path d="M50.841 23.4871C50.563 23.4957 50.2917 23.3986 50.0824 23.2154C49.873 23.0322 49.7409 22.7764 49.7125 22.4996C49.7094 22.22 49.7877 21.9455 49.9381 21.7097C49.9566 22.0415 50.0441 22.3658 50.1946 22.6621C50.3452 22.9583 50.5557 23.2201 50.8128 23.4307" fill="#6C63FF"/>
<path d="M58.9336 26.1984H58.6512C58.5208 25.564 58.1898 24.9884 57.7072 24.5566C57.2246 24.1248 56.616 23.8597 55.9712 23.8003C55.9573 23.6879 55.9573 23.5742 55.9712 23.4618C55.9422 23.2843 55.9422 23.1033 55.9712 22.9258L56.8177 22.6719C56.8766 22.9153 57.0189 23.1304 57.2199 23.2798C57.4209 23.4293 57.6676 23.5036 57.9176 23.49H58.1153C58.437 23.4544 58.7328 23.2974 58.9425 23.0509C59.1523 22.8045 59.2602 22.4872 59.2439 22.164C59.2294 21.9403 59.1411 21.7277 58.9932 21.5593C58.8452 21.3909 58.6456 21.2761 58.4256 21.233C58.4989 21.0796 58.5558 20.9188 58.595 20.7534H58.9336C59.6818 20.7534 60.3992 21.0506 60.9283 21.5797C61.4573 22.1088 61.7548 22.8264 61.7548 23.5746C61.7548 24.3228 61.4573 25.0404 60.9283 25.5695C60.3992 26.0986 59.6818 26.3958 58.9336 26.3958" fill="#6C63FF"/>
<path d="M58.1702 26.1086C57.6998 25.9854 57.2651 25.7524 56.9022 25.4287C56.5392 25.105 56.2585 24.6999 56.0825 24.2466C56.5624 24.3486 57.0072 24.574 57.3733 24.9006C57.7394 25.2271 58.0141 25.6435 58.1702 26.1086Z" fill="#6C63FF"/>
<path d="M58.6543 26.1952H58.1749C58.0189 25.7302 57.7441 25.3138 57.378 24.9873C57.0119 24.6607 56.5671 24.4353 56.0873 24.3332C56.0744 24.183 56.0744 24.032 56.0873 23.8818C56.7321 23.9412 57.3407 24.2063 57.8233 24.6381C58.3059 25.07 58.6368 25.6456 58.7673 26.2799" fill="#C5BDE1"/>
<path d="M58.9376 26.6193H58.7117C58.7291 26.4788 58.7291 26.3367 58.7117 26.1961H58.9937C59.7419 26.1961 60.4596 25.8989 60.9887 25.3698C61.5178 24.8407 61.8149 24.1232 61.8149 23.3749C61.8149 22.6267 61.5178 21.9091 60.9887 21.38C60.4596 20.851 59.7419 20.5537 58.9937 20.5537H58.6552C58.6819 20.4139 58.6819 20.2703 58.6552 20.1305H58.9093C59.3381 20.0998 59.7686 20.1569 60.1746 20.2983C60.5806 20.4397 60.9535 20.6625 61.2704 20.953C61.5873 21.2435 61.8416 21.5956 62.0177 21.9878C62.1939 22.38 62.2881 22.804 62.2946 23.2339C62.2913 23.6697 62.2002 24.1003 62.0267 24.5001C61.8532 24.8999 61.6009 25.2607 61.2849 25.5609C60.9689 25.861 60.5959 26.0945 60.1877 26.2473C59.7795 26.4 59.3447 26.469 58.9093 26.45L58.9376 26.6193ZM56.0881 23.6288H55.6084V23.3467C55.5944 23.1777 55.5944 23.0079 55.6084 22.8389H56.0599C56.0309 23.0164 56.0309 23.1974 56.0599 23.3749C56.046 23.4874 56.046 23.601 56.0599 23.7135" fill="#C5BDE1"/>
<path d="M58.2531 26.5657C57.5904 26.5136 56.9612 26.2538 56.4547 25.8233C55.9482 25.3927 55.5901 24.8134 55.4319 24.1677H55.9399C56.1158 24.621 56.3969 25.0261 56.7598 25.3498C57.1227 25.6735 57.5571 25.9065 58.0275 26.0297C58.0572 26.1787 58.0572 26.3321 58.0275 26.4811" fill="#C5BDE1"/>
<path d="M58.7109 26.6143H58.2594C58.2891 26.4653 58.2891 26.3119 58.2594 26.1629H58.7392C58.7566 26.3034 58.7566 26.4456 58.7392 26.5861L58.7109 26.6143ZM56.1156 24.2163H55.6077C55.6077 24.2163 55.6077 23.9624 55.6077 23.7931H56.0874C56.0746 23.9433 56.0746 24.0943 56.0874 24.2445" fill="#C5BDE1"/>
<path d="M57.9203 23.4934C57.6702 23.507 57.4235 23.4327 57.2226 23.2833C57.0216 23.1338 56.8793 22.9187 56.8203 22.6753C57.5167 22.4125 58.09 21.8995 58.4282 21.2365C58.6482 21.2796 58.8478 21.3943 58.9958 21.5627C59.1438 21.7311 59.232 21.9437 59.2465 22.1675C59.2628 22.4907 59.1549 22.8079 58.9452 23.0544C58.7354 23.3008 58.4396 23.4579 58.118 23.4934H57.9203Z" fill="#F2F7FD"/>
<path d="M55.3251 22.5295H55.1274C55.0723 22.3028 54.987 22.0845 54.8736 21.8806C55.1152 21.2835 55.1152 20.6158 54.8736 20.0186C55.1439 19.9412 55.3791 19.7722 55.5386 19.5406C55.6981 19.3091 55.7723 19.0293 55.7483 18.7491C55.7412 18.6131 55.7067 18.4799 55.6471 18.3575C55.5875 18.235 55.5038 18.1258 55.4012 18.0363C55.2985 17.9468 55.179 17.8789 55.0496 17.8366C54.9201 17.7942 54.7837 17.7783 54.648 17.7899H54.4503C54.1846 17.8213 53.9347 17.9325 53.7333 18.1088C53.5319 18.285 53.3883 18.5181 53.3218 18.7773H52.8424C53.1093 18.2653 53.5162 17.8396 54.0157 17.5499C54.5152 17.2602 55.0866 17.1184 55.6636 17.141C56.4118 17.141 57.1292 17.4382 57.6583 17.9673C58.1874 18.4964 58.4848 19.214 58.4848 19.9622C58.5003 20.1217 58.5003 20.2823 58.4848 20.4418C57.8857 20.5154 57.3201 20.7592 56.8552 21.1441C56.3902 21.5291 56.0451 22.0393 55.8609 22.6141H55.5789" fill="#6C63FF"/>
<path d="M55.1292 22.5349H54.6498C54.7625 22.371 54.8481 22.19 54.9036 21.9989C55.017 22.2028 55.1023 22.421 55.1574 22.6478" fill="#9EC0EE"/>
<path d="M56.0596 22.4705C56.1982 22.0196 56.4682 21.6203 56.8351 21.3238C57.202 21.0272 57.649 20.847 58.119 20.806C58.065 20.9523 57.9987 21.0938 57.9213 21.2292C57.6542 21.2568 57.4023 21.3666 57.2002 21.5434C56.9981 21.7203 56.8559 21.9555 56.7931 22.2166C56.5598 22.3306 56.3134 22.4158 56.0596 22.4705Z" fill="white"/>
<path d="M55.6077 22.5282C55.7918 21.9533 56.1369 21.4431 56.6019 21.0582C57.0669 20.6732 57.6324 20.4295 58.2315 20.3558C58.2476 20.5059 58.2476 20.6572 58.2315 20.8072C57.7616 20.8482 57.3142 21.0284 56.9473 21.325C56.5804 21.6215 56.3104 22.0208 56.1718 22.4717H55.7206" fill="#C5BDE1"/>
<path d="M56.7875 22.2239C56.8503 21.9628 56.9924 21.7276 57.1945 21.5507C57.3967 21.3738 57.6485 21.264 57.9157 21.2365C57.6462 21.6706 57.2535 22.0144 56.7875 22.2239Z" fill="#D7E6F9"/>
<path d="M55.323 23.0938C55.3497 22.954 55.3497 22.8104 55.323 22.6706H55.8024V23.0938H55.605H55.323ZM58.4262 20.4983C58.4417 20.3388 58.4417 20.1782 58.4262 20.0187C58.4262 19.2704 58.1291 18.5529 57.6 18.0238C57.071 17.4947 56.3533 17.1975 55.605 17.1975C55.0281 17.1749 54.4566 17.3166 53.9571 17.6063C53.4577 17.896 53.0507 18.3217 52.7838 18.8338H52.2197C52.4691 18.1767 52.9199 17.6154 53.5077 17.2302C54.0956 16.8451 54.7901 16.6558 55.4921 16.6896C55.9284 16.6666 56.3649 16.7328 56.7749 16.8841C57.1849 17.0354 57.5598 17.2687 57.8766 17.5696C58.1934 17.8706 58.4456 18.233 58.6177 18.6346C58.7898 19.0363 58.8783 19.4688 58.8777 19.9058C58.8908 20.056 58.8908 20.207 58.8777 20.3572H58.4262" fill="#C5BDE1"/>
<path d="M54.7588 22.919H54.3359L54.5615 22.5804C54.5743 22.7212 54.5743 22.8628 54.5615 23.0036" fill="#88B0E9"/>
<path d="M55.2114 23.0924H54.7599C54.7727 22.9516 54.7727 22.81 54.7599 22.6692H55.2396C55.2663 22.809 55.2663 22.9526 55.2396 23.0924" fill="#C5BDE1"/>
<path d="M55.9754 22.9219C55.9457 22.7729 55.9457 22.6195 55.9754 22.4705C56.2292 22.4158 56.4756 22.3306 56.7089 22.2166V22.4987C56.6957 22.5544 56.6957 22.6124 56.7089 22.668L55.8624 22.9219H55.9754ZM58.3169 21.2292H57.8092C57.8866 21.0938 57.9525 20.9523 58.0066 20.806H58.4863C58.447 20.9714 58.3901 21.1322 58.3169 21.2856" fill="#C5BDE1"/>
<path d="M55.6077 23.0972V22.674H56.0592C56.0295 22.8231 56.0295 22.9764 56.0592 23.1254H55.6077V23.0972ZM58.2033 20.9813C58.2194 20.8313 58.2194 20.6799 58.2033 20.5299H58.6544C58.6811 20.6697 58.6811 20.8133 58.6544 20.9531H58.1751" fill="#C5BDE1"/>
<path d="M56.8203 22.6753C56.8071 22.6196 56.8071 22.5616 56.8203 22.506V22.2239C57.2864 22.0144 57.679 21.6706 57.9485 21.2365H58.4565C58.1182 21.8995 57.5446 22.4125 56.8482 22.6753" fill="#C5BDE1"/>
<path d="M54.757 20.0184C54.6185 19.7 54.4057 19.4194 54.1364 19.2003C53.8545 19.0037 53.5391 18.8603 53.2056 18.7771C53.272 18.5178 53.4153 18.2848 53.6168 18.1086C53.8182 17.9323 54.0683 17.8211 54.3341 17.7897H54.5314C54.6671 17.7781 54.8039 17.794 54.9333 17.8364C55.0628 17.8787 55.1823 17.9466 55.285 18.0361C55.3876 18.1256 55.4713 18.2348 55.5309 18.3572C55.5904 18.4797 55.6247 18.6129 55.6318 18.7489C55.6557 19.0291 55.5816 19.3088 55.422 19.5404C55.2625 19.772 55.0273 19.941 54.757 20.0184Z" fill="white"/>
<path d="M49.9655 20.72C50.0799 20.397 50.2416 20.0927 50.4452 19.8171C50.8373 19.3438 51.3556 18.9916 51.9402 18.8015C51.8291 19.1286 51.7721 19.4717 51.7711 19.8171C51.7556 19.9766 51.7556 20.1373 51.7711 20.2967C51.1532 20.2926 50.5434 20.4378 49.9937 20.72" fill="white"/>
<path d="M52.218 23.9147C51.7425 23.9169 51.2782 23.7688 50.8918 23.4916H51.033C51.3547 23.456 51.6505 23.299 51.8602 23.0525C52.07 22.8061 52.1779 22.4888 52.1615 22.1656C52.1399 21.8936 52.0125 21.641 51.8068 21.4617C51.6012 21.2824 51.3336 21.1908 51.0612 21.2064H50.8636C50.504 21.2436 50.1718 21.4149 49.9327 21.686C49.9194 21.5076 49.9194 21.3284 49.9327 21.15C50.5131 20.8386 51.1645 20.683 51.823 20.6986H51.9921C52.1441 21.2308 52.4408 21.7104 52.8493 22.084C53.2577 22.4576 53.762 22.7104 54.3057 22.8145C54.052 23.1361 53.7313 23.3986 53.3659 23.5837C53.0005 23.7688 52.5992 23.8722 52.1898 23.8865" fill="white"/>
<path d="M49.9616 21.1746C49.9488 21.0244 49.9488 20.8734 49.9616 20.7232C50.5114 20.4411 51.1211 20.2959 51.739 20.3C51.7065 20.4392 51.7065 20.584 51.739 20.7232H51.5695C50.911 20.7077 50.26 20.8632 49.6796 21.1746" fill="white"/>
<path d="M50.8958 23.4847C50.6387 23.2741 50.4285 23.0124 50.2779 22.7161C50.1274 22.4199 50.0399 22.0956 50.0214 21.7638C50.2604 21.4926 50.5927 21.3214 50.9522 21.2842H51.1499C51.4223 21.2686 51.6899 21.3602 51.8955 21.5395C52.1011 21.7188 52.2285 21.9714 52.2502 22.2434C52.2666 22.5666 52.1586 22.8838 51.9489 23.1303C51.7391 23.3768 51.4433 23.5338 51.1217 23.5693H50.9805" fill="white"/>
<path d="M54.8685 21.8823C54.5975 21.448 54.2299 21.0821 53.7944 20.8129C53.3589 20.5438 52.8673 20.3788 52.3576 20.3306C52.3424 20.1617 52.3424 19.9917 52.3576 19.8228C52.3644 19.439 52.4609 19.0622 52.6397 18.7225H53.1194C53.0918 18.8241 53.0918 18.9313 53.1194 19.0329C53.1266 19.17 53.1607 19.3044 53.22 19.4283C53.2792 19.5522 53.3623 19.6632 53.4645 19.7549C53.5667 19.8466 53.6862 19.9173 53.8158 19.9628C53.9453 20.0084 54.0826 20.0279 54.2197 20.0203H54.4171H54.6712C54.9128 20.6175 54.9128 21.2851 54.6712 21.8823" fill="white"/>
<path d="M54.589 22.479C54.1029 22.4448 53.6383 22.265 53.2559 21.9631C52.8734 21.6611 52.5909 21.2511 52.4448 20.7863C52.9155 20.8538 53.3613 21.0393 53.7411 21.3254C54.1209 21.6115 54.4223 21.9889 54.6172 22.4226" fill="white"/>
<path d="M54.6172 22.4204C54.4223 21.9867 54.1209 21.6093 53.7411 21.3233C53.3613 21.0372 52.9155 20.8517 52.4448 20.7841V20.3328C52.9545 20.3809 53.4461 20.546 53.8816 20.8151C54.3171 21.0842 54.6847 21.4502 54.9557 21.8844C54.9003 22.0755 54.8147 22.2565 54.7019 22.4204" fill="white"/>
<path d="M52.3621 20.2737H51.9389C51.9234 20.1142 51.9234 19.9536 51.9389 19.7941C51.9399 19.4486 51.9972 19.1056 52.1083 18.7784H52.6724C52.4936 19.1181 52.3971 19.4949 52.3903 19.8787C52.3751 20.0476 52.3751 20.2176 52.3903 20.3865" fill="white"/>
<path d="M54.3345 22.8365C53.7908 22.7324 53.2865 22.4795 52.878 22.106C52.4696 21.7324 52.1729 21.2528 52.0209 20.7206H52.4441C52.5902 21.1854 52.8727 21.5954 53.2551 21.8973C53.6376 22.1993 54.1022 22.379 54.5883 22.4133L54.3627 22.7518" fill="white"/>
<path d="M52.4471 20.779H52.0239C51.9914 20.6398 51.9914 20.495 52.0239 20.3558H52.4471V20.8072" fill="white"/>
<path d="M54.3052 20.0762C54.1681 20.0838 54.0308 20.0643 53.9012 20.0187C53.7717 19.9732 53.6522 19.9025 53.55 19.8108C53.4477 19.7191 53.3647 19.6081 53.3054 19.4842C53.2462 19.3603 53.2121 19.2259 53.2049 19.0888C53.1773 18.9872 53.1773 18.88 53.2049 18.7784C53.5384 18.8616 53.8538 19.005 54.1358 19.2016C54.4051 19.4208 54.6178 19.7014 54.7563 20.0198H54.5025H54.3052" fill="white"/>
<path d="M16.5029 16.8066V16.5245C17.5943 14.2131 19.4896 12.3779 21.835 11.3617H22.1171V11.6438C19.8767 12.6079 18.0622 14.3521 17.0106 16.5527L16.8132 16.6938L16.5029 16.8066Z" fill="#878EAF"/>
<path d="M47.146 16.8055L46.9487 16.6644C45.8766 14.4786 44.0684 12.7406 41.8421 11.7555L41.7009 11.4734H41.9833C44.3335 12.4926 46.2366 14.3259 47.3433 16.6362V16.9183L47.146 16.8055Z" fill="#878EAF"/>
<path d="M18.0243 55.7391C17.0608 55.8707 16.0799 55.783 15.1549 55.4826C14.23 55.1822 13.3847 54.6768 12.6822 54.0042C11.9798 53.3317 11.4383 52.5091 11.0981 51.5981C10.7578 50.687 10.6276 49.7109 10.7172 48.7425C10.7172 46.8196 11.4813 44.9754 12.841 43.6157C14.2007 42.2559 16.0449 41.4921 17.9679 41.4921C19.8908 41.4921 21.735 42.2559 23.0947 43.6157C24.4544 44.9754 25.2182 46.8196 25.2182 48.7425C25.2234 49.6732 25.0382 50.5951 24.6741 51.4516C24.31 52.3081 23.7747 53.0811 23.1009 53.7231C22.4272 54.3652 21.6294 54.8627 20.7563 55.1851C19.8833 55.5075 18.9537 55.6481 18.0243 55.5981V55.7391ZM13.4258 48.5733C13.413 49.1692 13.5238 49.7613 13.7512 50.3123C13.9786 50.8633 14.3178 51.3612 14.7472 51.7747C15.1765 52.1881 15.6868 52.5081 16.2459 52.7146C16.8051 52.9211 17.4011 53.0095 17.9961 52.9743C18.579 53.0053 19.162 52.9162 19.7091 52.7125C20.2561 52.5087 20.7552 52.1947 21.1758 51.79C21.5964 51.3852 21.9296 50.8983 22.1542 50.3595C22.3788 49.8208 22.4903 49.2416 22.4817 48.6579C22.4971 48.0633 22.3917 47.4718 22.1721 46.9191C21.9525 46.3663 21.6229 45.8638 21.2037 45.4419C20.7844 45.0201 20.2842 44.6875 19.7328 44.4644C19.1815 44.2414 18.5908 44.1324 17.9961 44.144C17.5578 44.1409 17.1209 44.1978 16.6981 44.3133C16.3117 44.036 15.8478 43.8879 15.3722 43.8901C14.958 43.9004 14.5512 44.0018 14.1807 44.187C13.8101 44.3723 13.4848 44.637 13.2281 44.9621C12.7866 45.4668 12.5599 46.1243 12.5968 46.7938C12.6337 47.4634 12.9314 48.0919 13.4258 48.5451" fill="white"/>
<path d="M17.9965 52.5121C17.5009 52.5807 16.9962 52.5422 16.5167 52.3992C16.0373 52.2561 15.594 52.012 15.217 51.6831C14.84 51.3542 14.538 50.9482 14.3313 50.4926C14.1245 50.037 14.0179 49.5423 14.0186 49.042C14.2918 49.1319 14.5774 49.1795 14.8651 49.1831C15.2792 49.1728 15.6861 49.0714 16.0566 48.8861C16.4272 48.7008 16.7521 48.4362 17.0088 48.111C17.3857 47.6799 17.6096 47.1363 17.6453 46.5648C17.681 45.9933 17.5268 45.426 17.2065 44.9513C17.469 44.9222 17.734 44.9222 17.9965 44.9513C19.0276 44.9797 20.0085 45.402 20.7378 46.1314C21.4672 46.8607 21.8896 47.8417 21.9181 48.8727C21.9188 49.3789 21.8161 49.8798 21.6167 50.345C21.4173 50.8102 21.1252 51.2298 20.7582 51.5784C20.3912 51.9269 19.9571 52.1969 19.4822 52.372C19.0074 52.5471 18.5019 52.6236 17.9965 52.5967" fill="#6C63FF"/>
<path d="M18.0311 55.7372C17.0675 55.8688 16.0867 55.781 15.1617 55.4806C14.2367 55.1803 13.3914 54.6749 12.689 54.0023C11.9866 53.3297 11.4451 52.5072 11.1049 51.5962C10.7646 50.6851 10.6343 49.709 10.724 48.7406C10.724 46.8177 11.4881 44.9735 12.8478 43.6138C14.2075 42.254 16.0517 41.4901 17.9746 41.4901C19.8976 41.4901 21.7418 42.254 23.1015 43.6138C24.4612 44.9735 25.225 46.8177 25.225 48.7406C25.2302 49.6713 25.0449 50.5932 24.6808 51.4497C24.3167 52.3062 23.7814 53.0792 23.1077 53.7212C22.4339 54.3633 21.6362 54.8608 20.7631 55.1832C19.8901 55.5056 18.9604 55.6462 18.0311 55.5961V55.7372ZM18.0311 40.4181C16.9312 40.3722 15.8332 40.5503 14.8042 40.9415C13.7753 41.3328 12.8365 41.9291 12.045 42.6942C11.2535 43.4594 10.6257 44.3774 10.1998 45.3925C9.77389 46.4076 9.55892 47.4987 9.56752 48.5995C9.54542 49.6991 9.75223 50.7912 10.175 51.8065C10.5978 52.8218 11.2273 53.7379 12.0233 54.4968C12.8193 55.2556 13.7644 55.8406 14.7987 56.2144C15.833 56.5882 16.9339 56.7428 18.0311 56.6682C19.1033 56.7262 20.1759 56.5635 21.1826 56.19C22.1893 55.8166 23.1083 55.2404 23.8832 54.4972C24.6582 53.754 25.2723 52.8596 25.6875 51.8694C26.1027 50.8792 26.3102 49.8143 26.297 48.7406C26.3238 47.6451 26.1288 46.5556 25.7236 45.5374C25.3184 44.5193 24.7116 43.5936 23.9394 42.8162C23.1672 42.0387 22.2455 41.4254 21.2301 41.0133C20.2148 40.6012 19.1267 40.3987 18.0311 40.4181Z" fill="#C5BDE1"/>
<path d="M18 53.1053C17.405 53.1405 16.809 53.052 16.2499 52.8455C15.6907 52.6391 15.1805 52.3191 14.7511 51.9056C14.3217 51.4921 13.9826 50.9942 13.7551 50.4432C13.5277 49.8922 13.417 49.3001 13.4297 48.7042C13.6007 48.8433 13.7905 48.9573 13.9938 49.0427C13.9931 49.543 14.0997 50.0377 14.3065 50.4933C14.5133 50.9489 14.8152 51.3549 15.1923 51.6838C15.5693 52.0127 16.0125 52.2569 16.492 52.3999C16.9714 52.5429 17.4762 52.5814 17.9718 52.5128C18.4772 52.5396 18.9826 52.4632 19.4575 52.2881C19.9323 52.113 20.3664 51.843 20.7334 51.4944C21.1004 51.1459 21.3926 50.7263 21.592 50.2611C21.7913 49.7959 21.894 49.2949 21.8933 48.7888C21.8648 47.7578 21.4424 46.7768 20.7131 46.0474C19.9837 45.3181 19.0028 44.8958 17.9718 44.8674C17.7093 44.8382 17.4443 44.8382 17.1818 44.8674C17.0713 44.6909 16.9275 44.5376 16.7585 44.416C17.1813 44.3005 17.6179 44.2436 18.0562 44.2467C18.6508 44.2351 19.2419 44.3441 19.7932 44.5671C20.3446 44.7902 20.8449 45.1228 21.2641 45.5447C21.6834 45.9666 22.0129 46.469 22.2325 47.0218C22.4521 47.5745 22.5575 48.1661 22.5421 48.7606C22.5507 49.3443 22.4392 49.9235 22.2146 50.4623C21.99 51.0011 21.6568 51.4879 21.2362 51.8927C20.8156 52.2974 20.3165 52.6114 19.7695 52.8152C19.2224 53.0189 18.6391 53.108 18.0562 53.0771" fill="#C5BDE1"/>
<path d="M14.8651 49.1842C14.5774 49.1806 14.2918 49.133 14.0186 49.0431V48.7046C14.0565 47.8135 14.3906 46.9606 14.968 46.2809C15.5455 45.6013 16.3333 45.1337 17.2065 44.9524C17.5268 45.4271 17.681 45.9944 17.6453 46.5659C17.6096 47.1374 17.3857 47.681 17.0088 48.1121C16.7521 48.4373 16.4272 48.7019 16.0566 48.8872C15.6861 49.0725 15.2792 49.1739 14.8651 49.1842Z" fill="white"/>
<path d="M13.4285 48.6808C12.9342 48.2277 12.6365 47.5991 12.5996 46.9295C12.5627 46.26 12.7893 45.6026 13.2309 45.0978C13.4876 44.7727 13.8129 44.5081 14.1834 44.3228C14.554 44.1375 14.9608 44.0361 15.375 44.0258C15.8505 44.0236 16.3145 44.1718 16.7009 44.449C15.7639 44.6926 14.9344 45.2402 14.3422 46.006C13.7499 46.7719 13.4286 47.7127 13.4285 48.6808Z" fill="white"/>
<path d="M14.0192 49.0496C13.8159 48.9642 13.6261 48.8502 13.4551 48.711C13.4552 47.7429 13.7765 46.8022 14.3687 46.0363C14.961 45.2705 15.7904 44.7228 16.7274 44.4792C16.8964 44.6009 17.0402 44.7542 17.1507 44.9307C16.2774 45.112 15.4896 45.5795 14.9122 46.2592C14.3347 46.9388 14.0006 47.7918 13.9627 48.6829V49.0214" fill="white"/>
<path d="M45.8167 55.7391C44.8531 55.8707 43.8722 55.783 42.9473 55.4826C42.0223 55.1822 41.177 54.6768 40.4746 54.0042C39.7722 53.3317 39.2307 52.5091 38.8904 51.5981C38.5502 50.687 38.4199 49.7109 38.5095 48.7425C38.5095 46.8196 39.2736 44.9754 40.6334 43.6157C41.9931 42.2559 43.8373 41.4921 45.7602 41.4921C47.6832 41.4921 49.5273 42.2559 50.8871 43.6157C52.2468 44.9754 53.0105 46.8196 53.0105 48.7425C53.0157 49.6732 52.8309 50.5951 52.4668 51.4516C52.1027 52.3081 51.567 53.0811 50.8933 53.7231C50.2195 54.3652 49.4217 54.8627 48.5487 55.1851C47.6757 55.5075 46.746 55.6481 45.8167 55.5981V55.7391ZM43.4749 53.6514C43.6138 54.145 43.9148 54.5776 44.3293 54.8795C44.7438 55.1814 45.2478 55.3351 45.7602 55.3159C46.2642 55.3273 46.7576 55.1695 47.1615 54.8678C47.5655 54.5662 47.8569 54.1379 47.9891 53.6514C48.3795 53.8911 48.8286 54.018 49.2867 54.0182C49.5902 54.0258 49.8919 53.9721 50.1742 53.8603C50.4564 53.7485 50.7134 53.581 50.9294 53.3676C51.1454 53.1543 51.316 52.8995 51.4312 52.6187C51.5464 52.3378 51.6038 52.0366 51.5999 51.733C51.6059 51.217 51.4258 50.7162 51.0923 50.3224C51.5818 50.2012 52.0157 49.9176 52.3231 49.5179C52.6306 49.1182 52.7934 48.626 52.785 48.1219C52.7962 47.7105 52.6839 47.3052 52.4626 46.9583C52.2414 46.6113 51.9215 46.3385 51.5438 46.1752C51.5575 46.0251 51.5575 45.874 51.5438 45.7239C51.5483 45.424 51.4905 45.1264 51.3744 44.8498C51.2582 44.5733 51.0861 44.3238 50.8688 44.1171C50.6515 43.9103 50.3935 43.7509 50.1115 43.6487C49.8295 43.5465 49.5295 43.5038 49.2302 43.5233C48.8194 43.53 48.4149 43.6262 48.0452 43.8054C47.9949 43.2464 47.7276 42.7295 47.3003 42.3655C46.873 42.0016 46.3201 41.8196 45.7602 41.8588C45.1942 41.8188 44.6347 41.999 44.1984 42.3617C43.7621 42.7244 43.4828 43.2417 43.4187 43.8054C43.0257 43.604 42.5906 43.4977 42.149 43.4951C41.8461 43.4717 41.5418 43.5113 41.255 43.6114C40.9681 43.7115 40.7051 43.8699 40.4825 44.0766C40.2599 44.2833 40.0825 44.5339 39.9615 44.8125C39.8404 45.0912 39.7784 45.3918 39.7793 45.6956C39.7524 45.9111 39.7524 46.1291 39.7793 46.3445C39.4249 46.5198 39.1294 46.7946 38.929 47.1354C38.7285 47.4762 38.6317 47.868 38.6507 48.2629C38.652 48.7271 38.8 49.179 39.0736 49.554C39.3473 49.929 39.7326 50.2078 40.1743 50.3506C39.8366 50.7531 39.6561 51.2642 39.6663 51.7894C39.6697 52.0932 39.7347 52.3931 39.8568 52.6713C39.9789 52.9494 40.1559 53.2001 40.3771 53.4082C40.5984 53.6163 40.8593 53.7776 41.1444 53.8824C41.4295 53.9872 41.7327 54.0334 42.036 54.0182C42.4859 54.022 42.9273 53.8945 43.3058 53.6514H43.4749ZM45.1114 50.8302V50.661H45.3934H45.0549L45.1114 50.8302ZM47.8761 48.009C47.8443 47.7657 47.7776 47.5282 47.6784 47.3037L47.9608 47.473C47.9459 47.6231 47.9459 47.7743 47.9608 47.9244" fill="white"/>
<path d="M45.8171 55.7311C44.8535 55.8627 43.8727 55.7749 42.9477 55.4746C42.0227 55.1742 41.1774 54.6688 40.475 53.9962C39.7726 53.3236 39.2311 52.5011 38.8909 51.5901C38.5506 50.679 38.4203 49.7029 38.51 48.7345C38.51 46.8116 39.2741 44.9674 40.6338 43.6077C41.9935 42.2479 43.8377 41.4841 45.7606 41.4841C47.6836 41.4841 49.5278 42.2479 50.8875 43.6077C52.2472 44.9674 53.011 46.8116 53.011 48.7345C53.0162 49.6652 52.8313 50.5871 52.4672 51.4436C52.1031 52.3001 51.5674 53.0731 50.8937 53.7151C50.2199 54.3572 49.4222 54.8547 48.5491 55.1771C47.6761 55.4995 46.7464 55.6401 45.8171 55.5901V55.7311ZM45.8171 40.412C44.7172 40.3661 43.6192 40.5442 42.5902 40.9355C41.5613 41.3267 40.6225 41.923 39.831 42.6882C39.0395 43.4533 38.4117 44.3713 37.9858 45.3864C37.5599 46.4015 37.3449 47.4926 37.3535 48.5934C37.6971 50.555 38.7215 52.3326 40.2464 53.6135C41.7712 54.8944 43.6986 55.5966 45.69 55.5966C47.6815 55.5966 49.6093 54.8944 51.1341 53.6135C52.6589 52.3326 53.6829 50.555 54.0266 48.5934C54.0534 47.498 53.8584 46.4084 53.4532 45.3903C53.048 44.3721 52.4411 43.4465 51.6689 42.669C50.8967 41.8915 49.9753 41.2783 48.96 40.8662C47.9446 40.4541 46.8563 40.2516 45.7606 40.2709" fill="#C5BDE1"/>
<path d="M47.1401 51.2996C46.766 51.073 46.3362 50.9558 45.8989 50.9611C46.2024 50.9687 46.5041 50.915 46.7864 50.8032C47.0687 50.6914 47.3253 50.5238 47.5413 50.3105C47.7573 50.0971 47.9282 49.8424 48.0434 49.5615C48.1586 49.2807 48.216 48.9795 48.2122 48.6759V48.4784C48.2404 48.9757 48.4282 49.4506 48.748 49.8326C48.3521 49.9173 47.9872 50.1096 47.6935 50.3884C47.3998 50.6671 47.1889 51.0214 47.0836 51.4124" fill="#C5BDE1"/>
<path d="M47.142 46.8801C46.7262 46.598 46.2338 46.4503 45.7314 46.4569H45.3928H45.7596C46.1549 46.4717 46.5463 46.3739 46.8881 46.1748C46.9204 46.4305 46.9966 46.6787 47.1137 46.9083" fill="#C5BDE1"/>
<path d="M44.463 51.302C44.3685 50.9396 44.1805 50.6083 43.9182 50.341C43.6558 50.0737 43.3282 49.8798 42.9677 49.7785C43.1365 49.5663 43.27 49.3281 43.3627 49.0732C43.4514 49.5331 43.6811 49.954 44.0197 50.2775C44.3584 50.601 44.7892 50.8112 45.2526 50.8788V51.0481C44.9648 51.0905 44.6875 51.1861 44.4347 51.3302" fill="#C5BDE1"/>
<path d="M49.2843 53.8442C48.8477 53.8483 48.4216 53.7096 48.071 53.4492V53.1953C48.0861 53.0736 48.0861 52.9504 48.071 52.8286C48.3637 52.8249 48.653 52.7636 48.922 52.6482C49.191 52.5328 49.4347 52.3655 49.639 52.1559C49.8434 51.9463 50.0043 51.6986 50.1129 51.4267C50.2215 51.1549 50.2754 50.8643 50.2717 50.5717H50.7514C50.9364 50.7442 51.0825 50.9543 51.1798 51.1878C51.2771 51.4213 51.3232 51.6729 51.3155 51.9258C51.301 52.4499 51.0844 52.948 50.7111 53.3161C50.3378 53.6841 49.8367 53.8936 49.3126 53.9006" fill="#6C63FF"/>
<path d="M48.0441 52.831C48.0082 52.5682 47.9198 52.3155 47.7841 52.0877C47.6483 51.8598 47.4683 51.6617 47.2544 51.505C47.3081 51.0983 47.505 50.7241 47.8102 50.45C48.1154 50.1758 48.5087 50.0197 48.9188 50.0098C49.3034 50.3065 49.7619 50.4919 50.2447 50.5458C50.2484 50.8385 50.1945 51.1291 50.0859 51.4009C49.9774 51.6727 49.8164 51.9205 49.6121 52.1301C49.4077 52.3397 49.164 52.5069 48.895 52.6224C48.626 52.7378 48.3368 52.7991 48.0441 52.8028V52.831ZM48.8906 50.4894C48.6929 50.482 48.4974 50.5309 48.3265 50.6304C48.2225 50.6779 48.1295 50.7467 48.0537 50.8323C47.9779 50.9179 47.9209 51.0184 47.8863 51.1274C47.8518 51.2364 47.8403 51.3514 47.8529 51.465C47.8656 51.5787 47.9021 51.6884 47.9597 51.7871C48.0252 51.9007 48.1197 51.9946 48.2338 52.0591C48.3479 52.1236 48.4775 52.1563 48.6085 52.1539C48.7998 52.1506 48.9859 52.0918 49.1444 51.9846C49.2484 51.9372 49.3413 51.8684 49.4171 51.7828C49.4929 51.6972 49.5499 51.5966 49.5845 51.4876C49.6191 51.3787 49.6305 51.2637 49.6179 51.15C49.6053 51.0364 49.5688 50.9267 49.5111 50.8279C49.4515 50.7175 49.3613 50.6268 49.2511 50.5667C49.141 50.5066 49.0157 50.4798 48.8906 50.4894Z" fill="#C5BDE1"/>
<path d="M51.2916 51.8699C51.233 52.3637 50.9956 52.819 50.6238 53.1494C50.252 53.4797 49.7718 53.6622 49.2745 53.6622C48.7772 53.6622 48.297 53.4797 47.9252 53.1494C47.5534 52.819 47.3159 52.3637 47.2574 51.8699C47.2574 50.4593 48.2166 49.9515 49.2886 49.9515C49.5462 49.9361 49.8041 49.9736 50.0466 50.0616C50.2891 50.1497 50.5112 50.2865 50.6989 50.4636C50.8865 50.6406 51.0356 50.8542 51.1376 51.0912C51.2396 51.3283 51.292 51.5836 51.2916 51.8417V51.8699ZM51.6018 51.8417C51.5387 51.2685 51.2664 50.7389 50.837 50.3542C50.4075 49.9695 49.8511 49.7567 49.2745 49.7567C48.6979 49.7567 48.1415 49.9695 47.712 50.3542C47.2825 50.7389 47.0103 51.2685 46.9471 51.8417C47.0103 52.4148 47.2825 52.9444 47.712 53.3291C48.1415 53.7139 48.6979 53.9266 49.2745 53.9266C49.8511 53.9266 50.4075 53.7139 50.837 53.3291C51.2664 52.9444 51.5387 52.4148 51.6018 51.8417Z" fill="#C5BDE1"/>
<path d="M48.6114 52.1855C48.4803 52.1879 48.3508 52.1552 48.2367 52.0907C48.1226 52.0262 48.0281 51.9322 47.9626 51.8187C47.9049 51.7199 47.8684 51.6102 47.8558 51.4966C47.8432 51.383 47.8547 51.268 47.8892 51.159C47.9238 51.05 47.9808 50.9495 48.0566 50.8639C48.1324 50.7783 48.2253 50.7095 48.3293 50.662C48.5003 50.5625 48.6958 50.5136 48.8934 50.521C49.0186 50.5113 49.1439 50.5382 49.254 50.5983C49.3642 50.6584 49.4544 50.7491 49.514 50.8595C49.5717 50.9582 49.6082 51.068 49.6208 51.1816C49.6334 51.2952 49.6219 51.4103 49.5874 51.5192C49.5528 51.6282 49.4958 51.7287 49.42 51.8143C49.3442 51.8999 49.2513 51.9687 49.1473 52.0162C48.9887 52.1234 48.8027 52.1822 48.6114 52.1855Z" fill="white"/>
<path d="M45.7593 55.1755C45.2977 55.1707 44.8509 55.013 44.4885 54.7271C44.1261 54.4413 43.8686 54.0434 43.7563 53.5957C43.9995 53.3764 44.1919 53.1069 44.3204 52.8057C44.2812 52.9055 44.2812 53.0164 44.3204 53.1161C44.386 53.2296 44.4808 53.3235 44.5949 53.388C44.709 53.4525 44.8382 53.4853 44.9693 53.4828C45.1579 53.4896 45.3446 53.4405 45.5055 53.3418C45.6095 53.2943 45.7021 53.2255 45.7779 53.1399C45.8537 53.0543 45.9107 52.9538 45.9453 52.8448C45.9798 52.7358 45.9913 52.6208 45.9787 52.5072C45.966 52.3935 45.9299 52.2838 45.8722 52.1851C45.8138 52.0717 45.7245 51.9771 45.6146 51.9122C45.5048 51.8473 45.3788 51.8148 45.2513 51.8183C45.0595 51.8181 44.8724 51.8773 44.7155 51.9876C44.5789 52.0489 44.4618 52.1465 44.3769 52.2697C44.3632 52.1856 44.3632 52.0999 44.3769 52.0158C44.6166 51.8421 44.818 51.6213 44.9693 51.3669H45.5616C45.668 51.6894 45.8484 51.9824 46.0885 52.2224C46.3286 52.4625 46.6219 52.6429 46.9443 52.7493C47.0633 53.1172 47.2892 53.4413 47.5931 53.6803C47.4769 54.1182 47.2214 54.5064 46.8651 54.7863C46.5089 55.0662 46.0711 55.2226 45.6181 55.232" fill="#6C63FF"/>
<path d="M47.1383 52.684C46.8159 52.5777 46.523 52.3972 46.2829 52.1571C46.0428 51.917 45.8623 51.624 45.756 51.3016C46.176 51.2927 46.5891 51.4106 46.941 51.6402V51.8941C46.8957 52.1555 46.8957 52.4227 46.941 52.684" fill="#6C63FF"/>
<path d="M47.7633 53.1665C47.6625 53.0495 47.5683 52.9271 47.4812 52.7997H47.735C47.7489 52.9121 47.7489 53.0258 47.735 53.1382" fill="#C5BDE1"/>
<path d="M47.7613 53.1928C47.7028 53.6867 47.4654 54.1419 47.0936 54.4723C46.7218 54.8026 46.2416 54.9851 45.7443 54.9851C45.2469 54.9851 44.7668 54.8026 44.395 54.4723C44.0232 54.1419 43.7857 53.6867 43.7272 53.1928C43.7272 51.754 44.6863 51.2744 45.7584 51.2744C46.016 51.259 46.2739 51.2965 46.5164 51.3845C46.7589 51.4726 46.981 51.6094 47.1687 51.7865C47.3563 51.9635 47.5054 52.1772 47.6074 52.4142C47.7094 52.6512 47.7618 52.9066 47.7613 53.1646V53.1928ZM48.0716 53.1646C48.0762 52.8647 48.0187 52.5671 47.9025 52.2906C47.7864 52.014 47.6143 51.7645 47.397 51.5578C47.1797 51.3511 46.9217 51.1916 46.6397 51.0894C46.3577 50.9872 46.0577 50.9446 45.7584 50.9641C45.1673 50.9641 44.6005 51.1989 44.1825 51.6169C43.7645 52.0348 43.5295 52.6017 43.5295 53.1928C43.5295 53.7839 43.7645 54.3508 44.1825 54.7687C44.6005 55.1867 45.1673 55.4216 45.7584 55.4216C46.0605 55.4331 46.3617 55.383 46.6438 55.2743C46.926 55.1657 47.1833 55.0008 47.3997 54.7897C47.6161 54.5786 47.7873 54.3257 47.9029 54.0463C48.0184 53.7669 48.0757 53.4669 48.0716 53.1646Z" fill="#C5BDE1"/>
<path d="M45.0787 53.4819C44.9476 53.4844 44.8181 53.4516 44.704 53.3871C44.5899 53.3226 44.4954 53.2287 44.4299 53.1152C44.3906 53.0155 44.3906 52.9045 44.4299 52.8048C44.503 52.6319 44.5595 52.4524 44.599 52.2688C44.6839 52.1456 44.801 52.048 44.9375 51.9867C45.0945 51.8764 45.2818 51.8172 45.4737 51.8174C45.6012 51.8139 45.7269 51.8464 45.8367 51.9113C45.9465 51.9762 46.0359 52.0708 46.0943 52.1842C46.1519 52.2829 46.1881 52.3926 46.2007 52.5063C46.2133 52.6199 46.2022 52.7349 46.1676 52.8439C46.1331 52.9529 46.0761 53.0534 46.0003 53.139C45.9245 53.2246 45.8315 53.2934 45.7275 53.3409C45.5666 53.4396 45.3803 53.4887 45.1916 53.4819" fill="white"/>
<path d="M42.2058 53.8442C41.6832 53.8454 41.1797 53.648 40.7973 53.2917C40.4149 52.9355 40.1822 52.4472 40.1464 51.9258C40.1289 51.6815 40.1595 51.4361 40.237 51.2038C40.3144 50.9714 40.4373 50.7566 40.5979 50.5717H40.8235C40.8113 50.6842 40.8113 50.7977 40.8235 50.9102C40.7336 51.0383 40.6854 51.191 40.6854 51.3475C40.6854 51.5039 40.7336 51.6566 40.8235 51.7848C40.8956 51.8986 40.9956 51.992 41.1141 52.0562C41.2326 52.1204 41.3657 52.1532 41.5005 52.1515C41.6214 52.1774 41.7464 52.1774 41.8673 52.1515C42.2436 52.3727 42.6719 52.4896 43.1084 52.4901H43.5317C43.4864 52.7704 43.4864 53.0561 43.5317 53.3364V53.5339C43.1838 53.8025 42.7583 53.951 42.3188 53.9571" fill="#6C63FF"/>
<path d="M43.138 52.4395C42.7014 52.439 42.2731 52.3222 41.8968 52.1009C41.8968 52.1009 41.8966 52.1009 42.0659 52.1009C42.1699 52.0534 42.2628 51.9847 42.3386 51.8991C42.4144 51.8135 42.4715 51.713 42.506 51.604C42.5406 51.495 42.552 51.38 42.5394 51.2664C42.5268 51.1527 42.4903 51.043 42.4327 50.9442C42.3788 50.8534 42.3053 50.7758 42.2174 50.7172C42.1295 50.6586 42.0296 50.6205 41.925 50.6057C42.2233 50.5071 42.5005 50.3541 42.7429 50.1543C43.1018 50.2272 43.4308 50.4059 43.6873 50.6673C43.9437 50.9288 44.1159 51.2611 44.1818 51.6213C43.9053 51.8451 43.6915 52.1367 43.5612 52.4677H43.138V52.4395ZM40.9377 50.9725C40.9256 50.8599 40.9256 50.7464 40.9377 50.6339H41.3606C41.2442 50.7126 41.1397 50.8076 41.0503 50.916" fill="#C5BDE1"/>
<path d="M44.3226 51.8699C44.3081 52.394 44.0915 52.8921 43.7182 53.2602C43.3449 53.6282 42.8439 53.8377 42.3197 53.8447C41.797 53.846 41.2936 53.6485 40.9111 53.2923C40.5287 52.936 40.296 52.4478 40.2603 51.9264C40.2414 51.656 40.2826 51.3849 40.3811 51.1324C40.4796 50.88 40.6329 50.6525 40.8299 50.4663C41.0268 50.2802 41.2624 50.14 41.52 50.0559C41.7776 49.9717 42.0508 49.9457 42.3197 49.9797C42.5772 49.9643 42.8351 50.0018 43.0777 50.0899C43.3202 50.1779 43.5419 50.3147 43.7296 50.4918C43.9172 50.6689 44.0667 50.8825 44.1687 51.1195C44.2706 51.3566 44.3231 51.6119 44.3226 51.8699ZM44.6329 51.8699C44.6295 51.5736 44.5662 51.281 44.4469 51.0097C44.3277 50.7384 44.155 50.494 43.939 50.2911C43.7229 50.0882 43.4682 49.9311 43.1899 49.8291C42.9117 49.7271 42.6156 49.6824 42.3197 49.6976C42.0144 49.674 41.7075 49.7144 41.4188 49.8161C41.13 49.9179 40.8656 50.0788 40.6425 50.2886C40.4195 50.4984 40.2425 50.7524 40.1232 51.0344C40.0039 51.3164 39.9448 51.6202 39.9496 51.9264C39.9496 52.5474 40.1965 53.143 40.6356 53.5821C41.0748 54.0212 41.6704 54.268 42.2914 54.268C42.9125 54.268 43.5081 54.0212 43.9472 53.5821C44.3864 53.143 44.6329 52.5474 44.6329 51.9264" fill="#C5BDE1"/>
<path d="M41.5023 52.1777C41.3675 52.1794 41.2344 52.1467 41.1159 52.0825C40.9974 52.0183 40.8974 51.9248 40.8252 51.811C40.7354 51.6828 40.6871 51.5302 40.6871 51.3737C40.6871 51.2172 40.7354 51.0645 40.8252 50.9364C40.995 51.4251 41.3355 51.8359 41.7843 52.0931C41.6635 52.119 41.5385 52.119 41.4176 52.0931" fill="white"/>
<path d="M41.8943 52.0992C41.4455 51.842 41.1049 51.4311 40.9352 50.9425C41.0246 50.8341 41.129 50.7391 41.2455 50.6604H41.8378C41.9424 50.6752 42.0423 50.7133 42.1302 50.7719C42.2181 50.8305 42.2919 50.9081 42.3458 50.9989C42.4034 51.0977 42.4396 51.2074 42.4522 51.321C42.4648 51.4346 42.4533 51.5497 42.4188 51.6587C42.3842 51.7677 42.3272 51.8682 42.2514 51.9538C42.1756 52.0394 42.083 52.1081 41.979 52.1556C41.979 52.1556 41.9788 52.1556 41.8096 52.1556" fill="white"/>
<path d="M40.5937 50.2304C40.1829 50.1261 39.8171 49.8906 39.5523 49.5596C39.2875 49.2286 39.1382 48.8203 39.1266 48.3966C39.0798 48.0553 39.1419 47.708 39.304 47.404C39.4661 47.1001 39.7198 46.8551 40.0293 46.7039C40.0821 46.8558 40.1585 46.9986 40.2552 47.1271C40.1516 47.1752 40.0588 47.2437 39.9824 47.3287C39.9061 47.4136 39.8475 47.5131 39.8106 47.6211C39.7737 47.7292 39.7591 47.8436 39.7675 47.9575C39.776 48.0713 39.8077 48.1823 39.8602 48.2837C39.9324 48.3975 40.0323 48.491 40.1508 48.5552C40.2694 48.6194 40.4025 48.6522 40.5372 48.6505C40.7145 48.6395 40.8873 48.5914 41.0449 48.5094L41.2708 48.7069C40.9538 49.0882 40.7747 49.5654 40.7628 50.0611L40.5655 50.2022" fill="#6C63FF"/>
<path d="M40.7972 50.0988C40.8091 49.6031 40.9882 49.1259 41.3052 48.7446C41.6929 49.0433 42.17 49.2024 42.6593 49.196H42.9979C42.8897 49.3995 42.7571 49.589 42.6028 49.7603H42.2078C41.7099 49.7569 41.221 49.8937 40.7972 50.1552" fill="#C5BDE1"/>
<path d="M41.161 50.3159H40.9072C41.3006 50.0861 41.7494 49.969 42.2049 49.9773C41.8741 50.1811 41.493 50.2886 41.1046 50.2877" fill="#C5BDE1"/>
<path d="M43.1919 48.487C43.1919 49.0257 42.9781 49.5423 42.5971 49.9233C42.2162 50.3042 41.6994 50.5182 41.1607 50.5182C40.622 50.5182 40.1052 50.3042 39.7243 49.9233C39.3433 49.5423 39.1295 49.0257 39.1295 48.487C39.1052 48.219 39.1421 47.9491 39.2373 47.6975C39.3325 47.4459 39.4836 47.2192 39.6791 47.0344C39.8747 46.8497 40.1096 46.7118 40.3662 46.6311C40.6228 46.5504 40.8946 46.5291 41.1607 46.5686C41.4182 46.5493 41.6768 46.5829 41.9207 46.6675C42.1647 46.752 42.3889 46.8856 42.5792 47.0601C42.7695 47.2346 42.9219 47.4462 43.0273 47.6819C43.1326 47.9176 43.1887 48.1724 43.1919 48.4305V48.487ZM43.4739 48.4305C43.4745 48.133 43.4141 47.8385 43.2962 47.5653C43.1783 47.2921 43.0055 47.046 42.7886 46.8424C42.5717 46.6387 42.3155 46.4818 42.0354 46.3813C41.7554 46.2808 41.4576 46.2389 41.1607 46.2582C40.8577 46.2388 40.5538 46.2821 40.2684 46.3858C39.983 46.4894 39.7221 46.6509 39.5021 46.8603C39.2822 47.0696 39.1079 47.3222 38.9904 47.6022C38.8728 47.8821 38.8147 48.1834 38.8192 48.487C38.8824 49.0601 39.1546 49.5897 39.5841 49.9745C40.0136 50.3592 40.57 50.5719 41.1466 50.5719C41.7232 50.5719 42.2796 50.3592 42.709 49.9745C43.1385 49.5897 43.4107 49.0601 43.4739 48.487" fill="#C5BDE1"/>
<path d="M40.5111 48.6578C40.3763 48.6595 40.2432 48.6268 40.1247 48.5626C40.0061 48.4984 39.9062 48.4049 39.834 48.2911C39.7815 48.1897 39.7498 48.0787 39.7414 47.9648C39.7329 47.8509 39.7475 47.7365 39.7844 47.6285C39.8213 47.5204 39.8799 47.4209 39.9562 47.336C40.0326 47.2511 40.1254 47.1825 40.229 47.1344L40.3981 47.3601C40.4853 47.7928 40.6902 48.1931 40.9904 48.5168C40.8329 48.5988 40.6601 48.6468 40.4828 48.6578" fill="white"/>
<path d="M45.5912 50.6001H45.4221C45.5078 50.0352 45.3984 49.458 45.1118 48.9638C45.279 49.0014 45.4523 49.0014 45.6194 48.9638L45.8454 48.7945C46.1638 48.8021 46.4798 48.7404 46.7721 48.6137C47.0643 48.4871 47.3258 48.2985 47.538 48.061C47.567 48.2291 47.567 48.4008 47.538 48.5688C47.2503 48.5688 46.9655 48.6259 46.7001 48.7368C46.4347 48.8478 46.1938 49.0103 45.9917 49.215C45.7896 49.4197 45.6302 49.6626 45.5227 49.9294C45.4152 50.1962 45.3619 50.4817 45.3656 50.7694" fill="#C5BDE1"/>
<path d="M45.7613 50.6034H45.5919C45.5881 50.3157 45.6417 50.0302 45.7492 49.7634C45.8567 49.4965 46.0162 49.2537 46.2183 49.049C46.4204 48.8443 46.6609 48.6818 46.9263 48.5708C47.1918 48.4599 47.4766 48.4028 47.7642 48.4028V48.6285C47.7497 49.1526 47.5332 49.6507 47.1598 50.0188C46.7865 50.3868 46.2855 50.5963 45.7613 50.6034Z" fill="#C5BDE1"/>
<path d="M45.9315 48.6251C46.046 48.4805 46.1082 48.3016 46.1082 48.1172C46.1082 47.9329 46.046 47.754 45.9315 47.6094C45.8625 47.5011 45.7665 47.4128 45.6526 47.3534C45.5387 47.294 45.411 47.2656 45.2827 47.2709C45.2959 47.1019 45.2959 46.9321 45.2827 46.7631H45.6495C46.0376 46.7403 46.4235 46.836 46.756 47.0376C47.0885 47.2391 47.3521 47.5369 47.5116 47.8915C47.2993 48.129 47.0379 48.3176 46.7457 48.4443C46.4534 48.5709 46.1373 48.6326 45.8189 48.6251" fill="#C5BDE1"/>
<path d="M45.421 50.5755C45.0123 50.503 44.6338 50.3119 44.3328 50.026C44.0318 49.7401 43.8217 49.3719 43.7284 48.9674C43.973 48.8591 44.201 48.7166 44.4055 48.5442C44.4686 48.6598 44.5628 48.7554 44.6775 48.8203C44.7922 48.8851 44.9227 48.9165 45.0543 48.9109C45.3409 49.4052 45.4503 49.9824 45.3646 50.5472" fill="#C5BDE1"/>
<path d="M47.764 48.6245C47.7495 49.1485 47.5329 49.6467 47.1596 50.0147C46.7863 50.3828 46.2852 50.5922 45.761 50.5993C45.2384 50.6006 44.7349 50.403 44.3525 50.0468C43.9701 49.6906 43.7374 49.2023 43.7016 48.6809C43.7016 47.2421 44.689 46.7625 45.761 46.7625C46.0171 46.743 46.2745 46.7768 46.517 46.8616C46.7594 46.9464 46.9818 47.0805 47.1699 47.2554C47.358 47.4302 47.5078 47.6422 47.61 47.8778C47.7123 48.1134 47.7647 48.3676 47.764 48.6245ZM48.0743 48.6245C48.0111 48.0514 47.7389 47.5217 47.3094 47.137C46.8799 46.7522 46.3235 46.5396 45.7469 46.5396C45.1703 46.5396 44.6139 46.7522 44.1844 47.137C43.755 47.5217 43.4827 48.0514 43.4196 48.6245C43.4827 49.1976 43.755 49.7273 44.1844 50.112C44.6139 50.4967 45.1703 50.7094 45.7469 50.7094C46.3235 50.7094 46.8799 50.4967 47.3094 50.112C47.7389 49.7273 48.0111 49.1976 48.0743 48.6245Z" fill="#6C63FF"/>
<path d="M45.1078 48.9389C44.956 48.7255 44.7642 48.5435 44.5433 48.4028C44.9062 48.6072 45.3123 48.7231 45.7284 48.7414L45.5028 48.9106C45.3356 48.9482 45.162 48.9482 44.9948 48.9106" fill="white"/>
<path d="M45.8451 48.6207C45.429 48.6024 45.0229 48.4864 44.66 48.2821L44.8012 48.1128C45.0031 47.8567 45.1646 47.5713 45.2806 47.2665C45.4089 47.2612 45.5366 47.2896 45.6505 47.349C45.7644 47.4084 45.8604 47.4967 45.9294 47.605C46.0439 47.7496 46.1061 47.9285 46.1061 48.1128C46.1061 48.2972 46.0439 48.4761 45.9294 48.6207" fill="white"/>
<path d="M45.082 48.9303C44.9504 48.9359 44.82 48.9045 44.7053 48.8397C44.5906 48.7748 44.4963 48.6792 44.4332 48.5636V48.4225C44.6541 48.5631 44.8456 48.7451 44.9973 48.9585" fill="#E8F0FA"/>
<path d="M48.241 47.5291C48.1496 47.4983 48.0706 47.439 48.0154 47.3599C48.1632 47.0416 48.2401 46.6951 48.241 46.3442C48.2563 46.2508 48.2563 46.1555 48.241 46.0621C48.371 46.0913 48.506 46.0913 48.636 46.0621C48.8126 46.1003 48.9952 46.1003 49.1719 46.0621C49.2759 46.0146 49.3688 45.9459 49.4446 45.8603C49.5204 45.7747 49.5774 45.6741 49.612 45.5652C49.6465 45.4562 49.658 45.3412 49.6454 45.2275C49.6328 45.1139 49.5963 45.0041 49.5386 44.9054C49.4802 44.792 49.3912 44.6975 49.2814 44.6326C49.1716 44.5677 49.0455 44.5351 48.9181 44.5387C48.7323 44.4973 48.5398 44.4973 48.354 44.5387C48.218 44.6464 48.0949 44.7695 47.9872 44.9054C48.0834 44.662 48.1404 44.405 48.1563 44.1437C48.5124 43.9576 48.9118 43.8699 49.3131 43.8898C49.5716 43.8701 49.8311 43.9046 50.0755 43.9911C50.3199 44.0777 50.5437 44.2142 50.7323 44.3922C50.9208 44.5701 51.0702 44.7855 51.1707 45.0244C51.2712 45.2634 51.3207 45.5208 51.316 45.78C51.3299 45.8924 51.3299 46.0061 51.316 46.1185C51.0535 46.0892 50.7885 46.0892 50.526 46.1185C50.051 46.0967 49.581 46.2235 49.1815 46.4814C48.782 46.7393 48.4731 47.1154 48.2975 47.5573" fill="#6C63FF"/>
<path d="M48.0162 47.3542C47.7957 47.1936 47.613 46.9866 47.4813 46.7477C47.3497 46.5088 47.2724 46.2439 47.2544 45.9718C47.5045 45.7749 47.7069 45.5242 47.8467 45.2383C47.7818 45.4111 47.7818 45.6015 47.8467 45.7743C47.9072 45.8876 47.9942 45.9844 48.1005 46.0564C48.1158 46.1498 48.1158 46.2451 48.1005 46.3385C48.0996 46.6894 48.0228 47.0359 47.875 47.3542" fill="#C5BDE1"/>
<path d="M51.2916 45.8661C51.233 46.36 50.9956 46.8153 50.6238 47.1456C50.252 47.4759 49.7718 47.6584 49.2745 47.6584C48.7772 47.6584 48.297 47.4759 47.9252 47.1456C47.5534 46.8153 47.3159 46.36 47.2574 45.8661C47.2574 44.4273 48.2166 43.9477 49.2886 43.9477C49.5471 43.928 49.807 43.9625 50.0514 44.049C50.2958 44.1355 50.5193 44.2722 50.7078 44.4501C50.8964 44.628 51.0457 44.8434 51.1462 45.0823C51.2467 45.3213 51.2962 45.5787 51.2916 45.8379V45.8661ZM51.6018 45.8379C51.5387 45.2648 51.2664 44.7351 50.837 44.3504C50.4075 43.9657 49.8511 43.7529 49.2745 43.7529C48.6979 43.7529 48.1415 43.9657 47.712 44.3504C47.2825 44.7351 47.0103 45.2648 46.9471 45.8379C47.0103 46.411 47.2825 46.9406 47.712 47.3254C48.1415 47.7101 48.6979 47.9228 49.2745 47.9228C49.8511 47.9228 50.4075 47.7101 50.837 47.3254C51.2664 46.9406 51.5387 46.411 51.6018 45.8379Z" fill="#C5BDE1"/>
<path d="M48.6103 46.1462C48.4803 46.1754 48.3454 46.1754 48.2153 46.1462C48.1896 45.824 48.0829 45.5134 47.905 45.2435C47.9173 45.1877 47.9173 45.1299 47.905 45.0742C48.0128 44.9382 48.1359 44.8152 48.2718 44.7074C48.4576 44.666 48.6501 44.666 48.8359 44.7074C48.9634 44.7039 49.0894 44.7364 49.1992 44.8013C49.309 44.8662 49.3981 44.9608 49.4565 45.0742C49.5141 45.1729 49.5506 45.2827 49.5632 45.3963C49.5759 45.5099 49.5644 45.6249 49.5298 45.7339C49.4953 45.8429 49.4383 45.9434 49.3625 46.029C49.2867 46.1146 49.1937 46.1834 49.0897 46.2309C48.9131 46.269 48.7305 46.269 48.5538 46.2309" fill="white"/>
<path d="M48.2126 46.0564C48.1062 45.9844 48.0192 45.8876 47.9587 45.7743C47.8938 45.6015 47.8938 45.4111 47.9587 45.2383C48.1366 45.5083 48.2433 45.8188 48.269 46.141" fill="white"/>
<path d="M47.3368 44.587C46.9211 44.3049 46.4287 44.1572 45.9262 44.1638C46.0583 44.0342 46.1459 43.866 46.1763 43.6836C46.2067 43.5011 46.1785 43.3136 46.0957 43.1482C46.0302 43.0347 45.9353 42.9408 45.8212 42.8763C45.7071 42.8118 45.5779 42.779 45.4469 42.7814C45.2556 42.7847 45.0692 42.8435 44.9107 42.9507C44.8071 42.9988 44.7146 43.0674 44.6383 43.1523C44.5619 43.2372 44.5033 43.3367 44.4664 43.4448C44.4295 43.5528 44.4149 43.6673 44.4234 43.7811C44.4318 43.895 44.4631 44.006 44.5157 44.1074C44.6006 44.2306 44.7177 44.3282 44.8542 44.3895H44.6568C44.4126 44.1992 44.1351 44.0557 43.8386 43.9663C43.836 43.7063 43.8898 43.4487 43.996 43.2113C44.1022 42.9738 44.2584 42.7622 44.454 42.5907C44.6496 42.4193 44.8797 42.2921 45.129 42.2179C45.3783 42.1437 45.6409 42.1242 45.8984 42.1608C46.1512 42.1455 46.4045 42.1813 46.6433 42.2659C46.882 42.3506 47.1014 42.4823 47.2883 42.6534C47.4751 42.8244 47.6255 43.0313 47.7308 43.2617C47.8361 43.4921 47.8942 43.7413 47.9013 43.9946C47.7146 44.1251 47.5521 44.2875 47.4216 44.4742" fill="#6C63FF"/>
<path d="M45.8125 46.1448H45.4175C45.3942 45.836 45.31 45.5348 45.1695 45.2588C45.0291 44.9828 44.8352 44.7374 44.5992 44.5367H44.7969H45.1355C45.326 44.529 45.5109 44.4705 45.6713 44.3674L45.869 44.2264C46.3714 44.2198 46.8638 44.3675 47.2796 44.6496C47.0363 44.9981 46.899 45.4096 46.8846 45.8345C46.5525 46.0648 46.16 46.1923 45.756 46.2012" fill="#C5BDE1"/>
<path d="M47.6733 44.8695V44.7284L47.9275 44.4463C47.9403 44.5871 47.9403 44.7287 47.9275 44.8695" fill="#BFD7F5"/>
<path d="M47.8155 44.1656C47.801 44.6896 47.5844 45.1878 47.2111 45.5558C46.8378 45.9239 46.3368 46.1333 45.8126 46.1404C45.2854 46.1412 44.7779 45.9398 44.3947 45.5776C44.0116 45.2155 43.782 44.7202 43.7531 44.1938C43.7531 42.755 44.7405 42.2754 45.8126 42.2754C46.0701 42.26 46.328 42.2975 46.5706 42.3855C46.8131 42.4736 47.0348 42.6104 47.2225 42.7875C47.4101 42.9646 47.5596 43.1782 47.6616 43.4152C47.7635 43.6522 47.816 43.9076 47.8155 44.1656ZM48.1258 44.1656C48.1258 43.5445 47.8793 42.949 47.4401 42.5098C47.001 42.0707 46.4054 41.824 45.7843 41.824C45.1633 41.824 44.5677 42.0707 44.1285 42.5098C43.6894 42.949 43.4425 43.5445 43.4425 44.1656C43.4425 44.7866 43.6894 45.3822 44.1285 45.8213C44.5677 46.2605 45.1633 46.5072 45.7843 46.5072C46.4054 46.5072 47.001 46.2605 47.4401 45.8213C47.8793 45.3822 48.1258 44.7866 48.1258 44.1656Z" fill="#C5BDE1"/>
<path d="M44.8011 44.3885C44.6645 44.3272 44.5475 44.2296 44.4625 44.1064C44.41 44.005 44.3784 43.894 44.3699 43.7801C44.3614 43.6662 44.376 43.5518 44.4129 43.4437C44.4498 43.3357 44.5084 43.2362 44.5848 43.1513C44.6611 43.0664 44.7536 42.9978 44.8572 42.9497C45.0157 42.8425 45.2021 42.7837 45.3934 42.7804C45.5245 42.778 45.6536 42.8107 45.7678 42.8752C45.8819 42.9397 45.9767 43.0336 46.0422 43.1472C46.1251 43.3126 46.1532 43.5 46.1228 43.6825C46.0924 43.865 46.0051 44.0332 45.8731 44.1628C45.5045 44.1673 45.1402 44.2439 44.8011 44.3885Z" fill="white"/>
<path d="M45.1366 44.4716H44.7981C45.1373 44.327 45.5015 44.2503 45.8702 44.2458L45.6725 44.3869C45.512 44.49 45.3272 44.5484 45.1366 44.5562" fill="white"/>
<path d="M40.234 46.3408C40.2071 46.1726 40.2071 46.0012 40.234 45.833C40.2144 45.5636 40.2552 45.2933 40.3539 45.0419C40.4525 44.7905 40.6064 44.5644 40.804 44.3803C41.0016 44.1962 41.2381 44.0589 41.4959 43.9782C41.7536 43.8976 42.0262 43.8759 42.2935 43.9146C42.5278 43.8875 42.7644 43.8875 42.9988 43.9146C42.5931 43.9779 42.2016 44.1116 41.842 44.3095C41.6652 44.3404 41.4939 44.3975 41.334 44.4788C41.1745 44.5583 41.0433 44.6847 40.9576 44.841C40.8719 44.9973 40.8359 45.1761 40.8546 45.3534C40.7148 45.6009 40.6104 45.8668 40.5443 46.1433H40.3184" fill="#6C63FF"/>
<path d="M40.3125 46.5963V46.3424H40.5384C40.5251 46.4454 40.5251 46.5497 40.5384 46.6527" fill="#9FC3F3"/>
<path d="M44.3223 45.8053C44.3078 46.3294 44.0913 46.8275 43.7179 47.1956C43.3446 47.5636 42.8436 47.7731 42.3194 47.7802C41.7922 47.781 41.2847 47.5796 40.9016 47.2174C40.5184 46.8553 40.2889 46.36 40.26 45.8335C40.2403 45.5642 40.2812 45.2939 40.3798 45.0424C40.4785 44.791 40.6323 44.565 40.8299 44.3809C41.0275 44.1968 41.264 44.0594 41.5218 43.9788C41.7796 43.8982 42.0521 43.8765 42.3194 43.9151C42.5769 43.8997 42.8349 43.9372 43.0774 44.0253C43.3199 44.1134 43.5417 44.2501 43.7293 44.4272C43.917 44.6043 44.0664 44.8179 44.1684 45.0549C44.2704 45.2919 44.3228 45.5473 44.3223 45.8053ZM44.6326 45.8053C44.6326 45.1843 44.3861 44.5887 43.947 44.1496C43.5078 43.7105 42.9122 43.4637 42.2912 43.4637C41.6701 43.4637 41.0745 43.7105 40.6354 44.1496C40.1962 44.5887 39.9493 45.1843 39.9493 45.8053C39.9493 46.4264 40.1962 47.022 40.6354 47.4611C41.0745 47.9002 41.6701 48.1469 42.2912 48.1469C42.9122 48.1469 43.5078 47.9002 43.947 47.4611C44.3861 47.022 44.6326 46.4264 44.6326 45.8053Z" fill="#C5BDE1"/>
<path d="M40.7691 45.4672C40.7504 45.2899 40.7864 45.1111 40.8721 44.9548C40.9578 44.7985 41.0893 44.6721 41.2488 44.5926C41.4088 44.5113 41.5797 44.4542 41.7565 44.4233C41.4798 44.6116 41.2326 44.8397 41.0229 45.1004C40.9197 45.2088 40.8342 45.3325 40.7691 45.4672Z" fill="#F1F6FC"/>
<path d="M43.5033 48.0025C43.5033 48.0025 43.5033 48.0025 43.5033 47.7768L43.7575 47.6075C43.6913 47.7445 43.6345 47.8859 43.588 48.0307" fill="white"/>
<path d="M44.3232 46.9607C44.4755 46.6913 44.5714 46.3937 44.6053 46.0861C44.8996 46.2611 45.2255 46.3762 45.5644 46.4246C45.1255 46.4774 44.7078 46.6426 44.3515 46.9042" fill="white"/>
<path d="M43.3652 49.106C43.3779 49.0313 43.3779 48.955 43.3652 48.8803C43.3652 48.8803 43.3652 49.0214 43.3652 49.0778V49.106ZM43.3652 48.0904C43.3761 48.044 43.3761 47.9957 43.3652 47.9493Z" fill="white"/>
<path d="M41.2992 48.7393L41.0732 48.5418C41.1786 48.4916 41.2729 48.4207 41.3505 48.3335C41.428 48.2463 41.4872 48.1445 41.5247 48.034C41.7682 48.0659 42.0148 48.0659 42.2583 48.034H42.4556C42.0376 48.1633 41.6591 48.3963 41.3553 48.7111L41.2992 48.7393ZM42.9353 47.9493H43.1891H42.9353Z" fill="white"/>
<path d="M42.6591 49.1895C42.1697 49.1959 41.6926 49.0368 41.3049 48.7381C41.6088 48.4233 41.9869 48.1904 42.4049 48.061C42.5634 48.0902 42.7261 48.0902 42.8846 48.061H43.1384C43.1519 48.1829 43.1519 48.3059 43.1384 48.4278C43.1296 48.7112 43.0625 48.9897 42.9411 49.2459H42.6026" fill="white"/>
<path d="M42.9956 49.1572C43.1171 48.901 43.1841 48.6224 43.1929 48.339C43.2064 48.2171 43.2064 48.0942 43.1929 47.9723H43.475C43.475 47.9723 43.475 48.2262 43.475 48.339C43.4459 48.526 43.4459 48.7163 43.475 48.9032V49.1008C43.4876 49.1755 43.4876 49.2518 43.475 49.3265H43.1082" fill="white"/>
<path d="M41.0198 48.4882C40.7196 48.1646 40.5147 47.7643 40.4275 47.3315C40.7131 47.6288 41.0738 47.8433 41.4713 47.9522C41.4338 48.0627 41.3746 48.1645 41.2971 48.2517C41.2195 48.339 41.1251 48.4098 41.0198 48.46" fill="white"/>
<path d="M44.3202 48.2564C44.1515 48.166 43.9713 48.0996 43.7843 48.0589C43.8107 47.8989 43.868 47.7455 43.9534 47.6075C44.0529 47.7668 44.1766 47.9096 44.3202 48.0307V48.2564Z" fill="white"/>
<path d="M44.322 48.0293C44.1785 47.9082 44.0547 47.7654 43.9552 47.6061C44.1126 47.3628 44.3246 47.1596 44.5744 47.0127C44.8242 46.8657 45.1049 46.7791 45.394 46.7598C45.4072 46.9288 45.4072 47.0986 45.394 47.2676C45.2251 47.2751 45.0604 47.3235 44.9143 47.4086C44.6916 47.5582 44.5235 47.776 44.4349 48.0293" fill="white"/>
<path d="M43.7266 48.9638C43.7419 48.8704 43.7419 48.7751 43.7266 48.6817C43.6935 48.4761 43.6935 48.2666 43.7266 48.061C43.9136 48.1016 44.0939 48.1681 44.2625 48.2585C44.2409 48.3513 44.2409 48.4478 44.2625 48.5406C44.058 48.7131 43.8301 48.8555 43.5854 48.9638" fill="white"/>
<path d="M43.4433 49.0793C43.4433 49.0793 43.4433 48.9382 43.4433 48.8818V48.6843C43.4333 48.302 43.5209 47.9233 43.6974 47.584C43.913 47.4121 44.0945 47.2017 44.2333 46.9634C44.5896 46.7018 45.0076 46.5365 45.4466 46.4838C45.4605 46.5773 45.4605 46.6724 45.4466 46.7659C45.1574 46.7853 44.8767 46.8719 44.6269 47.0188C44.3771 47.1657 44.1651 47.369 44.0077 47.6123C43.9223 47.7502 43.8647 47.9036 43.8383 48.0637C43.8051 48.2692 43.8051 48.4788 43.8383 48.6843C43.8535 48.7778 43.8535 48.873 43.8383 48.9664H43.5562" fill="white"/>
<path d="M44.5488 48.4837L44.3232 48.3426V48.1169L44.6618 48.3709" fill="white"/>
<path d="M44.6618 48.2815L44.3232 48.0276C44.4118 47.7743 44.5802 47.5565 44.803 47.4069C44.9491 47.3217 45.1134 47.2733 45.2824 47.2659C45.1663 47.5707 45.0048 47.856 44.803 48.1122L44.6618 48.2815Z" fill="white"/>
<path d="M44.3181 48.4845C44.2965 48.3917 44.2965 48.2952 44.3181 48.2024L44.5437 48.3435V48.4845" fill="white"/>
<path d="M44.3251 44.7627C44.1946 44.5351 44.0221 44.3341 43.8171 44.1703C44.1136 44.2597 44.3911 44.4031 44.6354 44.5935L44.2969 44.8474" fill="white"/>
<path d="M45.4192 46.1202C45.0859 46.0458 44.7757 45.8908 44.5163 45.6688C44.4958 45.3534 44.4094 45.0458 44.2625 44.766L44.601 44.5121C44.8369 44.7127 45.0308 44.9581 45.1713 45.2342C45.3117 45.5102 45.396 45.8114 45.4192 46.1202Z" fill="white"/>
<path d="M45.4482 46.4207C45.1093 46.3722 44.7834 46.2571 44.4891 46.0821C44.503 45.9886 44.503 45.8935 44.4891 45.8V45.6589C44.7486 45.881 45.0584 46.036 45.3918 46.1103C45.3918 46.1103 45.3918 46.3078 45.3918 46.4207H45.4482Z" fill="white"/>
<path d="M43.3049 47.4386C43.1087 47.0422 42.8018 46.7112 42.4212 46.4859C42.0406 46.2605 41.6027 46.1504 41.1607 46.169C40.9265 46.1415 40.6897 46.1415 40.4554 46.169C40.5215 45.8925 40.6259 45.6266 40.7657 45.3791C40.7405 45.4715 40.7405 45.5689 40.7657 45.6612C40.8379 45.7751 40.9382 45.8685 41.0567 45.9327C41.1753 45.9969 41.308 46.0297 41.4428 46.028C41.6341 46.0247 41.8205 45.9659 41.979 45.8587C42.083 45.8113 42.1756 45.7425 42.2514 45.6569C42.3272 45.5713 42.3842 45.4707 42.4188 45.3618C42.4533 45.2528 42.4648 45.1378 42.4522 45.0241C42.4396 44.9105 42.4034 44.8008 42.3458 44.702C42.2803 44.5885 42.1854 44.4946 42.0713 44.4301C41.9572 44.3656 41.8277 44.3328 41.6966 44.3353C42.0562 44.1373 42.4478 44.0036 42.8534 43.9403C43.0433 44.0113 43.2236 44.1061 43.3896 44.2224C43.4114 44.6024 43.5278 44.9709 43.7281 45.2945C43.5869 45.6039 43.5191 45.9419 43.5305 46.2819C43.4878 46.5245 43.4878 46.7728 43.5305 47.0154C43.4121 47.1429 43.2796 47.2565 43.1354 47.354" fill="white"/>
<path d="M43.6996 47.1039C43.6569 46.8612 43.6569 46.613 43.6996 46.3704C43.6883 46.0304 43.7557 45.6924 43.897 45.3829C44.0145 45.5621 44.1571 45.7236 44.3202 45.8626C44.2964 46.3219 44.1172 46.7595 43.8122 47.1039" fill="white"/>
<path d="M42.2039 47.7822C41.9707 47.8251 41.7317 47.8251 41.4986 47.7822C41.5352 47.6723 41.5352 47.5535 41.4986 47.4437C41.4341 47.3376 41.3427 47.2505 41.2337 47.191C41.1248 47.1316 41.0021 47.1019 40.878 47.1051H40.6803L40.5112 46.823V46.6819C40.7644 46.6542 41.0199 46.6542 41.273 46.6819C41.6568 46.6644 42.0371 46.7591 42.3678 46.9545C42.6985 47.1499 42.965 47.4376 43.1348 47.7822C42.8835 47.917 42.602 47.985 42.3168 47.9797" fill="white"/>
<path d="M43.0235 47.5864C42.8538 47.2418 42.5873 46.9542 42.2565 46.7587C41.9258 46.5633 41.5451 46.4686 41.1614 46.4862C40.9082 46.4584 40.6528 46.4584 40.3996 46.4862C40.3863 46.3831 40.3863 46.2788 40.3996 46.1758C40.6339 46.1483 40.8706 46.1483 41.1049 46.1758C41.5468 46.1572 41.9848 46.2673 42.3654 46.4927C42.746 46.718 43.0529 47.049 43.2491 47.4454L42.967 47.5864" fill="white"/>
<path d="M41.4964 47.6671C41.1315 47.528 40.8103 47.2943 40.5656 46.99H40.7629C40.887 46.9868 41.0097 47.0164 41.1186 47.0759C41.2276 47.1353 41.319 47.2224 41.3835 47.3285C41.42 47.4384 41.42 47.5572 41.3835 47.6671" fill="white"/>
<path d="M43.9866 45.0667L43.8171 44.6436C43.9021 44.7496 43.9778 44.8629 44.0431 44.9821" fill="white"/>
<path d="M44.1505 45.2997L43.9814 45.074C43.9814 45.074 43.9814 45.2715 43.9814 45.3843" fill="white"/>
<path d="M44.3193 45.8666C44.1562 45.7276 44.0136 45.5661 43.896 45.387C43.6957 45.0634 43.5793 44.6949 43.5575 44.3149C43.6989 44.4051 43.8231 44.5197 43.9243 44.6535L44.0937 45.0766L44.2628 45.3023C44.2767 45.4713 44.2767 45.6412 44.2628 45.8102" fill="white"/>
<path d="M42.2045 48.0852C41.9611 48.1171 41.7145 48.1171 41.471 48.0852C41.0734 47.9763 40.7128 47.7618 40.4272 47.4646C40.3991 47.2492 40.3991 47.0311 40.4272 46.8157L40.5966 47.0978C40.8414 47.4021 41.1626 47.6358 41.5275 47.7749C41.7606 47.8178 41.9996 47.8178 42.2328 47.7749C42.5179 47.7802 42.7997 47.7122 43.051 47.5774L43.3331 47.4364C43.4772 47.3389 43.6098 47.2253 43.7281 47.0978C44.033 46.7534 44.2119 46.3158 44.2357 45.8565C44.2496 45.6875 44.2496 45.5176 44.2357 45.3487C44.2357 45.3487 44.2357 45.1512 44.2357 45.0383C44.1705 44.9191 44.0951 44.8059 44.0102 44.6998C43.909 44.566 43.7848 44.4514 43.6434 44.3612C43.4774 44.2449 43.2971 44.1501 43.1072 44.0791H43.3613C43.52 44.0517 43.682 44.0517 43.8407 44.0791C44.1143 44.2744 44.3366 44.5328 44.4889 44.8324C44.6411 45.132 44.719 45.464 44.7155 45.8001C44.7294 45.8936 44.7294 45.9886 44.7155 46.0822C44.6816 46.3898 44.5857 46.6873 44.4334 46.9568C44.2947 47.195 44.1127 47.4054 43.8972 47.5774L43.6434 47.7467H43.3613H43.1072C42.9486 47.7758 42.7863 47.7758 42.6278 47.7467H42.4301" fill="white"/>
<path d="M41.4981 46.1162C41.3633 46.1179 41.2302 46.0851 41.1117 46.0209C40.9932 45.9567 40.8932 45.8633 40.821 45.7494C40.7958 45.6571 40.7958 45.5596 40.821 45.4673C40.8861 45.3326 40.9716 45.2089 41.0748 45.1006C41.2845 44.8399 41.5318 44.6117 41.8084 44.4235C41.9394 44.421 42.0689 44.4538 42.1831 44.5183C42.2972 44.5828 42.3917 44.6767 42.4572 44.7902C42.5148 44.889 42.5513 44.9987 42.5639 45.1123C42.5766 45.226 42.5651 45.341 42.5305 45.4499C42.496 45.5589 42.439 45.6595 42.3632 45.7451C42.2874 45.8307 42.1944 45.8994 42.0904 45.9469C41.9319 46.0541 41.7459 46.1129 41.5546 46.1162" fill="white"/>
<path d="M50.8374 50.2071C50.6276 50.0414 50.3882 49.9169 50.1321 49.8403C50.0067 49.4724 49.7822 49.1462 49.4836 48.8973C49.185 48.6485 48.8236 48.4867 48.4391 48.4297V47.9784C48.6479 48.0549 48.8662 48.1024 49.0879 48.1194C49.158 48.2352 49.2578 48.3302 49.3768 48.3947C49.4959 48.4591 49.63 48.4907 49.7653 48.4862C49.9478 48.4824 50.1247 48.4234 50.2729 48.3169C50.4231 48.2411 50.5481 48.1236 50.6332 47.9785C50.7182 47.8334 50.7599 47.6668 50.7527 47.4987C51.058 47.2434 51.2914 46.9128 51.4297 46.5396C51.7376 46.6842 51.9958 46.9168 52.1715 47.208C52.3473 47.4993 52.4326 47.8361 52.4171 48.1759C52.4066 48.6381 52.2387 49.083 51.9411 49.4369C51.6436 49.7908 51.2345 50.0327 50.7809 50.1225" fill="#6C63FF"/>
<path d="M50.1321 49.8367C49.8518 49.7914 49.5659 49.7914 49.2856 49.8367H49.0879C48.7274 49.5042 48.4973 49.0541 48.4391 48.5671C48.8236 48.6241 49.185 48.7859 49.4836 49.0347C49.7822 49.2836 50.0067 49.6098 50.1321 49.9777" fill="#C5BDE1"/>
<path d="M50.219 50.2355C49.9722 50.2035 49.7332 50.127 49.5137 50.0098C49.7551 50.0356 49.9921 50.0925 50.219 50.1791" fill="#B1CDF1"/>
<path d="M50.4713 50.2369C50.2445 50.1504 50.0074 50.0935 49.766 50.0677L49.3428 49.7574H49.5401C50.1001 49.7446 50.6478 49.9238 51.0919 50.2652H50.7251" fill="#C5BDE1"/>
<path d="M49.0311 47.8083H48.4949C48.6283 47.4021 48.8974 47.0542 49.257 46.8231C49.6166 46.5919 50.045 46.4915 50.4699 46.5387C50.7041 46.5092 50.941 46.5092 51.1752 46.5387C51.0571 46.8167 50.8951 47.0739 50.6955 47.3005C50.6333 47.1923 50.5422 47.1035 50.4327 47.0437C50.3232 46.984 50.1995 46.9557 50.0749 46.9619C49.8874 46.9648 49.7033 47.0132 49.5387 47.103C49.3938 47.1731 49.2705 47.2808 49.1812 47.4147C49.0919 47.5486 49.0401 47.704 49.0311 47.8647" fill="#C5BDE1"/>
<path d="M52.4702 48.2537C52.4117 48.7476 52.1739 49.2028 51.8021 49.5332C51.4304 49.8635 50.9505 50.046 50.4532 50.046C49.9558 50.046 49.4757 49.8635 49.1039 49.5332C48.7321 49.2028 48.4943 48.7476 48.4358 48.2537C48.4115 47.9858 48.4483 47.7158 48.5436 47.4642C48.6388 47.2126 48.7902 46.9859 48.9858 46.8012C49.1813 46.6165 49.4162 46.4786 49.6728 46.3979C49.9294 46.3171 50.2012 46.2958 50.4673 46.3353C50.7234 46.3158 50.9808 46.3496 51.2232 46.4344C51.4657 46.5192 51.6877 46.6533 51.8758 46.8282C52.064 47.003 52.214 47.2149 52.3163 47.4506C52.4186 47.6862 52.471 47.9404 52.4702 48.1973V48.2537ZM52.7805 48.1973C52.7812 47.8997 52.7207 47.6052 52.6028 47.332C52.485 47.0588 52.3121 46.8128 52.0952 46.6091C51.8783 46.4054 51.6218 46.2485 51.3417 46.148C51.0616 46.0475 50.7642 46.0057 50.4673 46.025C50.1643 46.0055 49.8604 46.0489 49.575 46.1525C49.2896 46.2561 49.0287 46.4177 48.8087 46.627C48.5888 46.8363 48.4146 47.0889 48.297 47.3689C48.1794 47.6488 48.121 47.9501 48.1255 48.2537C48.1887 48.8268 48.4612 49.3565 48.8907 49.7412C49.3202 50.1259 49.8766 50.3386 50.4532 50.3386C51.0298 50.3386 51.5858 50.1259 52.0153 49.7412C52.4448 49.3565 52.7173 48.8268 52.7805 48.2537" fill="#C5BDE1"/>
<path d="M49.9606 48.4907C49.8254 48.4952 49.6912 48.4636 49.5722 48.3992C49.4532 48.3347 49.3537 48.2397 49.2836 48.1239H49.4809C50.037 48.1366 50.5788 47.946 51.0045 47.5879C51.0117 47.7559 50.9704 47.9225 50.8853 48.0676C50.8002 48.2127 50.6749 48.3303 50.5247 48.4061C50.3765 48.5125 50.1996 48.5715 50.0171 48.5753" fill="white"/>
<path d="M49.2827 47.8409H49.0289C49.038 47.6802 49.0898 47.5248 49.1791 47.3909C49.2684 47.257 49.3917 47.1493 49.5366 47.0792C49.7012 46.9894 49.8853 46.941 50.0728 46.9381C50.1974 46.9319 50.3211 46.9602 50.4306 47.0199C50.5401 47.0797 50.6311 47.1685 50.6933 47.2767C50.312 47.6409 49.8098 47.8518 49.2827 47.8691" fill="white"/>
<path d="M49.2859 48.116H49.0882C49.0749 48.013 49.0749 47.9087 49.0882 47.8057H49.3424C49.8694 47.7884 50.3716 47.5775 50.753 47.2133C50.7895 47.3231 50.7895 47.4419 50.753 47.5518C50.3273 47.9099 49.7855 48.1005 49.2294 48.0878" fill="#C5BDE1"/>
<path d="M35.38 48.9016H28.327L28.1013 48.6759L28.327 48.4784H35.38L35.6057 48.6759L35.38 48.9016Z" fill="#878EAF"/>
<path d="M35.3771 48.8748L35.236 48.8184L33.6843 47.3231V47.0128H33.9665L35.5463 48.508V48.8184L35.3771 48.8748Z" fill="#878EAF"/>
<path d="M33.8254 50.4062L33.6843 50.3498V50.0394L35.236 48.5442H35.5463V48.8545L33.9665 50.3498L33.8254 50.4062Z" fill="#878EAF"/>
</svg>
