<svg width="47" height="47" viewBox="0 0 47 47" fill="none" xmlns="http://www.w3.org/2000/svg">
<path d="M12.3879 11.8967L7.67041 16.6141L15.8119 46.9987C17.7504 47.028 19.6929 46.7093 21.5373 46.043L12.3879 11.8967Z" fill="#C5BDE1"/>
<path d="M24.075 44.8651C25.2705 44.177 26.3963 43.3236 27.4172 42.3027L34.1771 35.5429L20.6025 31.9056L24.075 44.8651Z" fill="#C5BDE1"/>
<path d="M42.3018 27.4187C48.565 21.1555 48.565 10.9645 42.3018 4.70129C36.0387 -1.56189 25.8476 -1.56189 19.5844 4.70129L14.6375 9.64826L19.7787 28.8357L36.4246 33.2959L42.3018 27.4187ZM23.4788 8.59567C27.5946 4.47989 34.2916 4.47989 38.4075 8.59567C42.5232 12.7115 42.5232 19.4084 38.4075 23.5242C34.2916 27.64 27.5947 27.64 23.4789 23.5242C19.363 19.4084 19.363 12.7115 23.4788 8.59567Z" fill="#C5BDE1"/>
<path d="M5.42358 18.8639L4.69934 19.5881C-1.56384 25.8514 -1.56384 36.0424 4.69934 42.3056C7.01976 44.6261 9.87945 46.0858 12.8787 46.6869L5.42358 18.8639Z" fill="#C5BDE1"/>
<path d="M26.4838 22.0243C26.8974 21.6107 26.8975 20.9376 26.4838 20.5239C26.0701 20.1102 25.3971 20.1102 24.9834 20.5239C24.5698 20.9375 24.5698 21.6107 24.9834 22.0243C25.3971 22.438 26.0702 22.4379 26.4838 22.0243Z" fill="#6C63FF"/>
<path d="M24.9825 13.5208C23.4634 15.0398 22.9301 17.1761 23.3799 19.1298C23.4131 19.0934 23.447 19.0574 23.4821 19.0222C24.7231 17.7813 26.7423 17.7813 27.9833 19.0222C29.2243 20.2632 29.2243 22.2824 27.9833 23.5234C27.9482 23.5585 27.9122 23.5924 27.8758 23.6256C29.8294 24.0754 31.9657 23.5421 33.4848 22.023C35.8288 19.679 35.8288 15.8648 33.4848 13.5208C31.1407 11.1767 27.3266 11.1767 24.9825 13.5208ZM28.7335 16.2715C28.3192 16.6858 27.6474 16.6858 27.2331 16.2715C26.8188 15.8572 26.8188 15.1855 27.2331 14.7711C27.6474 14.3568 28.3192 14.3568 28.7335 14.7711C29.1478 15.1854 29.1478 15.8572 28.7335 16.2715ZM32.2345 19.7724C31.8201 20.1867 31.1484 20.1867 30.7341 19.7724C30.3197 19.3581 30.3197 18.6864 30.7341 18.272C31.1484 17.8577 31.8201 17.8577 32.2345 18.272C32.6488 18.6864 32.6488 19.3581 32.2345 19.7724Z" fill="#6C63FF"/>
<path d="M14.9371 14.5559L11.3021 18.1908L17.5755 41.6032C19.0691 41.6258 20.5659 41.3803 21.9871 40.8669L14.9371 14.5559Z" fill="#C5BDE1"/>
<path d="M23.9417 39.9606C24.863 39.4304 25.7304 38.7728 26.5171 37.9862L31.7258 32.7775L21.2661 29.9749L23.9417 39.9606Z" fill="#C5BDE1"/>
<path d="M37.9877 26.5158C42.8137 21.6898 42.8137 13.8372 37.9877 9.01123C33.1617 4.18522 25.3091 4.18522 20.4831 9.01123L16.6713 12.823L20.6328 27.6077L33.4591 31.0444L37.9877 26.5158ZM23.4838 12.012C26.6552 8.84063 31.8155 8.84063 34.9869 12.012C38.1583 15.1834 38.1583 20.3436 34.9869 23.515C31.8155 26.6864 26.6553 26.6864 23.4839 23.515C20.3125 20.3436 20.3125 15.1834 23.4838 12.012Z" fill="#C5BDE1"/>
<path d="M9.57038 19.925L9.01233 20.4831C4.18632 25.3092 4.18632 33.1617 9.01233 37.9878C10.8003 39.7757 13.0038 40.9005 15.3148 41.3637L9.57038 19.925Z" fill="#C5BDE1"/>
</svg>
