<svg width="48" height="48" viewBox="0 0 48 48" fill="none" xmlns="http://www.w3.org/2000/svg">
<path d="M23.5664 0C28.2193 0.00258524 32.767 1.3846 36.6345 3.97138C40.5021 6.55816 43.5159 10.2336 45.295 14.5329C47.074 18.8323 47.5385 23.5626 46.6295 28.1258C45.7206 32.6891 43.4791 36.8805 40.1885 40.17C38.0109 42.3595 35.4204 44.095 32.5671 45.276C29.7138 46.4569 26.6544 47.0598 23.5664 47.0497C17.3373 47.028 11.3683 44.5495 6.95579 40.1526C2.54332 35.7557 0.0437439 29.7955 0 23.5664C0.0243194 17.3237 2.515 11.3436 6.9293 6.9293C11.3436 2.515 17.3237 0.0243194 23.5664 0Z" fill="white"/>
<path d="M38.0924 9.00152C35.2142 6.12963 31.5494 4.17534 27.5609 3.38564C23.5724 2.59594 19.4393 3.00627 15.6839 4.56475C11.9285 6.12324 8.71937 8.75994 6.46201 12.1417C4.20466 15.5234 3.00039 19.4984 3.00139 23.5643C2.9904 26.2685 3.51477 28.9481 4.54427 31.4486C5.57376 33.9492 7.08802 36.2213 8.99975 38.1338C10.9115 40.0464 13.1829 41.5617 15.683 42.5923C18.1831 43.6229 20.8624 44.1485 23.5666 44.1387C26.2699 44.1483 28.9484 43.6229 31.4478 42.5927C33.9471 41.5625 36.218 40.048 38.1294 38.1363C41.9628 34.2535 44.1183 29.0207 44.1318 23.5643C44.1414 20.861 43.6159 18.1825 42.5857 15.6831C41.5556 13.1838 40.0411 10.913 38.1294 9.00152H38.0924Z" fill="#C5BDE1"/>
<path d="M11.6075 17.4809C12.8575 17.4883 14.0772 17.8664 15.1122 18.5673C16.1472 19.2683 16.951 20.2606 17.4217 21.4186C17.8924 22.5766 18.009 23.8483 17.7566 25.0725C17.5042 26.2968 16.8942 27.4187 16.0038 28.2962C15.1135 29.1736 13.9828 29.7671 12.755 30.0015C11.5271 30.236 10.2573 30.1008 9.10632 29.6132C7.95532 29.1256 6.97487 28.3073 6.28914 27.2622C5.60341 26.217 5.2432 24.9919 5.25415 23.7419C5.25776 22.913 5.42523 22.0928 5.74693 21.3288C6.06863 20.5648 6.53821 19.8719 7.12866 19.2901C7.71912 18.7082 8.41884 18.2488 9.18749 17.9383C9.95613 17.6278 10.7785 17.4724 11.6075 17.4809Z" fill="#6C63FF"/>
<path d="M21.1366 5.38196C21.6845 5.38196 22.2201 5.5444 22.6757 5.84881C23.1312 6.15322 23.4864 6.5859 23.696 7.09212C23.9057 7.59833 23.9606 8.15537 23.8537 8.69277C23.7468 9.23016 23.4829 9.72375 23.0955 10.1112C22.7081 10.4986 22.2144 10.7625 21.677 10.8694C21.1396 10.9763 20.5826 10.9214 20.0764 10.7117C19.5702 10.5021 19.1375 10.147 18.8331 9.6914C18.5287 9.23582 18.3662 8.70023 18.3662 8.1523C18.3662 7.41756 18.6581 6.7129 19.1776 6.19336C19.6972 5.67382 20.4018 5.38196 21.1366 5.38196Z" fill="#6C63FF"/>
<path d="M23.4361 31.0726C24.5319 31.0726 25.6032 31.3976 26.5143 32.0064C27.4255 32.6152 28.1356 33.4805 28.555 34.493C28.9744 35.5054 29.0841 36.6195 28.8703 37.6943C28.6565 38.769 28.1289 39.7563 27.354 40.5312C26.5791 41.306 25.5918 41.8338 24.517 42.0475C23.4422 42.2613 22.3282 42.1516 21.3158 41.7323C20.3033 41.3129 19.438 40.6027 18.8291 39.6915C18.2203 38.7804 17.8954 37.7092 17.8954 36.6133C17.8954 35.1438 18.4792 33.7345 19.5182 32.6954C20.5573 31.6563 21.9666 31.0726 23.4361 31.0726Z" fill="#6C63FF"/>
<path d="M26.0866 20.7511C26.3368 20.7386 26.587 20.7771 26.8218 20.8643C27.0567 20.9515 27.2713 21.0855 27.4527 21.2583C27.6341 21.4311 27.7785 21.6389 27.877 21.8692C27.9755 22.0995 28.0262 22.3475 28.0259 22.598C28.0235 23.1124 27.8187 23.6052 27.4558 23.9699C27.0929 24.3345 26.601 24.5417 26.0866 24.5465C25.8353 24.5469 25.5866 24.496 25.3556 24.3969C25.1246 24.2978 24.9163 24.1525 24.7434 23.9701C24.5705 23.7877 24.4367 23.5719 24.3501 23.336C24.2635 23.1001 24.2259 22.8489 24.2397 22.598C24.2397 22.1082 24.4343 21.6384 24.7807 21.2921C25.1271 20.9457 25.5968 20.7511 26.0866 20.7511Z" fill="#6C63FF"/>
<path d="M33.0588 14.0353C33.3254 14.0168 33.5913 14.0789 33.822 14.2137C34.0527 14.3485 34.2374 14.5497 34.3521 14.791C34.4668 15.0324 34.5062 15.3026 34.465 15.5666C34.4239 15.8306 34.3041 16.0761 34.1214 16.2711C33.9387 16.4661 33.7016 16.6015 33.4408 16.6597C33.18 16.7179 32.9077 16.6962 32.6595 16.5974C32.4112 16.4986 32.1985 16.3273 32.049 16.1059C31.8995 15.8844 31.8202 15.623 31.8214 15.3558C31.8138 15.0176 31.9391 14.6898 32.1705 14.4429C32.4018 14.196 32.7208 14.0497 33.0588 14.0353Z" fill="#6C63FF"/>
<path d="M37.8249 21.0986C38.7513 21.0968 39.6573 21.3699 40.4285 21.8832C41.1996 22.3966 41.8011 23.1271 42.1569 23.9824C42.5127 24.8378 42.6068 25.7795 42.4272 26.6883C42.2476 27.5971 41.8024 28.4322 41.148 29.0878C40.4936 29.7435 39.6594 30.1904 38.7509 30.3718C37.8425 30.5532 36.9006 30.461 36.0445 30.1069C35.1885 29.7529 34.4568 29.1528 33.9419 28.3826C33.4271 27.6125 33.1522 26.7069 33.1522 25.7805C33.1595 24.5427 33.6538 23.3574 34.5283 22.4812C35.4027 21.605 36.587 21.1083 37.8249 21.0986Z" fill="#6C63FF"/>
<path d="M22.0242 14.3964C22.4078 14.3964 22.7827 14.5101 23.1016 14.7232C23.4205 14.9362 23.6691 15.2391 23.8158 15.5935C23.9626 15.9478 24.001 16.3377 23.9262 16.7139C23.8514 17.0901 23.6667 17.4356 23.3955 17.7068C23.1243 17.978 22.7787 18.1627 22.4025 18.2375C22.0264 18.3124 21.6365 18.274 21.2821 18.1272C20.9278 17.9804 20.6249 17.7319 20.4118 17.413C20.1987 17.0941 20.085 16.7191 20.085 16.3356C20.0874 15.822 20.2925 15.3302 20.6556 14.967C21.0188 14.6039 21.5107 14.3988 22.0242 14.3964Z" fill="#6C63FF"/>
</svg>
