<svg width="30" height="30" viewBox="0 0 30 30" fill="none" xmlns="http://www.w3.org/2000/svg">
<path d="M-5.59271e-05 14.5509C-5.59271e-05 6.18656 6.54745 0 14.9999 0C23.4524 0 29.9999 6.18656 29.9999 14.5509C29.9999 22.9106 23.4524 29.1019 14.9999 29.1019C13.4859 29.1019 12.0262 28.9013 10.664 28.5253C10.3978 28.4529 10.1147 28.4754 9.86338 28.5891L6.87463 29.9025C6.6943 29.9826 6.49701 30.0171 6.30019 30.0029C6.10337 29.9887 5.91307 29.9263 5.7461 29.8211C5.57913 29.7159 5.44062 29.5713 5.34281 29.3999C5.245 29.2285 5.19089 29.0357 5.18526 28.8384L5.09713 26.1628C5.09147 26.0019 5.05354 25.8439 4.98557 25.698C4.91761 25.552 4.82101 25.4213 4.70151 25.3134C3.19763 23.9571 2.0003 22.2956 1.1894 20.4399C0.378502 18.5842 -0.0273224 16.5769 -0.000993427 14.5519L-5.59271e-05 14.5509ZM10.4006 11.8116L6.00088 18.8138C5.56119 19.4728 6.40119 20.2397 7.02651 19.7513L11.7628 16.1625C11.9183 16.0412 12.1098 15.9754 12.307 15.9754C12.5042 15.9754 12.6957 16.0412 12.8512 16.1625L16.3471 18.7894C16.5963 18.9743 16.8809 19.1059 17.1832 19.1759C17.4854 19.246 17.7989 19.2531 18.104 19.1967C18.4091 19.1403 18.6994 19.0217 18.9566 18.8482C19.2139 18.6748 19.4327 18.4502 19.5993 18.1884L23.999 11.1862C24.4387 10.5272 23.5987 9.77531 22.9734 10.2487L18.2371 13.8375C18.0842 13.9586 17.895 14.0244 17.6999 14.0244C17.5049 14.0244 17.3156 13.9586 17.1628 13.8375L13.6621 11.2106C13.4133 11.0225 13.1281 10.8883 12.8245 10.8164C12.521 10.7445 12.2058 10.7365 11.8991 10.7931C11.5923 10.8496 11.3006 10.9693 11.0427 11.1447C10.7847 11.32 10.566 11.5471 10.4006 11.8116Z" fill="#006AFF"/>
</svg>
